# This file is brought to you by Roblox Corporation
# Generated by Roblox Studio

mtllib Flare Gun.mtl

g Meshpart1

v -450.123 5.70825 -1.42776 
v -450.123 5.91724 -1.42776 
v -450.123 5.91724 -1.20425 
v -450.018 5.96052 -1.42776 
v -450.137 5.93195 -1.16263 
v -450.018 5.98132 -1.16263 
v -450.018 5.96052 -1.20425 
v -449.914 5.91724 -1.42776 
v -449.914 5.91724 -1.20425 
v -449.899 5.93195 -1.16263 
v -450.018 5.98132 -1.13071 
v -449.899 5.93195 -1.16263 
v -450.018 5.98132 -1.16263 
v -449.899 5.93195 -1.13071 
v -450.137 5.93195 -1.13071 
v -450.137 5.93195 -1.16263 
v -450.018 5.64417 -1.16263 
v -449.914 5.91724 -1.42776 
v -449.914 5.91724 -1.20425 
v -449.899 5.93195 -1.16263 
v -449.87 5.81274 -1.42776 
v -449.85 5.81274 -1.16263 
v -449.87 5.81274 -1.20425 
v -449.914 5.70825 -1.42776 
v -449.914 5.70825 -1.20425 
v -449.899 5.69354 -1.16263 
v -449.899 5.93195 -1.16263 
v -449.899 5.93195 -1.13071 
v -449.85 5.81274 -1.16263 
v -449.85 5.81274 -1.13071 
v -449.899 5.69354 -1.16263 
v -449.899 5.69354 -1.13071 
v -450.018 5.64417 -1.13071 
v -449.85 5.81274 -1.13071 
v -450.187 5.81274 -1.13071 
v -449.899 5.69354 -1.13071 
v -450.137 5.69354 -1.13071 
v -450.018 5.98132 -1.13071 
v -450.137 5.93195 -1.13071 
v -449.899 5.93195 -1.13071 
v -450.123 5.70825 -1.42776 
v -450.123 5.70825 -1.20425 
v -450.137 5.69354 -1.16263 
v -450.018 5.64417 -1.16263 
v -449.914 5.70825 -1.42776 
v -449.914 5.70825 -1.20425 
v -449.899 5.69354 -1.16263 
v -450.018 5.66497 -1.42776 
v -450.018 5.66497 -1.20425 
v -449.899 5.69354 -1.16263 
v -449.899 5.69354 -1.13071 
v -450.137 5.69354 -1.13071 
v -450.018 5.64417 -1.16263 
v -450.137 5.69354 -1.16263 
v -450.018 5.64417 -1.13071 
v -450.123 5.70825 -1.42776 
v -450.123 5.70825 -1.20425 
v -450.166 5.81274 -1.42776 
v -450.166 5.81274 -1.20425 
v -450.123 5.91724 -1.42776 
v -450.123 5.91724 -1.20425 
v -450.187 5.81274 -1.16263 
v -450.137 5.69354 -1.16263 
v -450.137 5.93195 -1.16263 
v -450.018 5.64417 -1.16263 
v -450.137 5.93195 -1.13071 
v -450.137 5.93195 -1.16263 
v -450.187 5.81274 -1.13071 
v -450.187 5.81274 -1.16263 
v -450.137 5.69354 -1.13071 
v -450.137 5.69354 -1.16263 

vn -0.708661 -0.708661 0 
vn -0.708661 0.708661 0 
vn -0.685039 0.685039 -0.244094 
vn 0 1 0 
vn -0.629921 0.629921 -0.448819 
vn 0 0.897638 -0.448819 
vn 0 0.968504 -0.244094 
vn 0.708661 0.708661 0 
vn 0.685039 0.685039 -0.244094 
vn 0.629921 0.629921 -0.448819 
vn 0 1 0 
vn 0.708661 0.708661 0 
vn 0 1 0 
vn 0.708661 0.708661 0 
vn -0.708661 0.708661 0 
vn -0.708661 0.708661 0 
vn 0 -0.897638 -0.448819 
vn 0.708661 0.708661 0 
vn 0.685039 0.685039 -0.244094 
vn 0.629921 0.629921 -0.448819 
vn 1 0 0 
vn 0.897638 0 -0.448819 
vn 0.968504 0 -0.244094 
vn 0.708661 -0.708661 0 
vn 0.685039 -0.685039 -0.244094 
vn 0.629921 -0.629921 -0.448819 
vn 0.708661 0.708661 0 
vn 0.708661 0.708661 0 
vn 1 0 0 
vn 1 0 0 
vn 0.708661 -0.708661 0 
vn 0.708661 -0.708661 0 
vn 0 0 1 
vn 0 0 1 
vn 0 0 1 
vn 0 0 1 
vn 0 0 1 
vn 0 0 1 
vn 0 0 1 
vn 0 0 1 
vn -0.708661 -0.708661 0 
vn -0.685039 -0.685039 -0.244094 
vn -0.629921 -0.629921 -0.448819 
vn 0 -0.897638 -0.448819 
vn 0.708661 -0.708661 0 
vn 0.685039 -0.685039 -0.244094 
vn 0.629921 -0.629921 -0.448819 
vn 0 -1 0 
vn 0 -0.968504 -0.244094 
vn 0.708661 -0.708661 0 
vn 0.708661 -0.708661 0 
vn -0.708661 -0.708661 0 
vn 0 -1 0 
vn -0.708661 -0.708661 0 
vn 0 -1 0 
vn -0.708661 -0.708661 0 
vn -0.685039 -0.685039 -0.244094 
vn -1 0 0 
vn -0.968504 0 -0.244094 
vn -0.708661 0.708661 0 
vn -0.685039 0.685039 -0.244094 
vn -0.897638 0 -0.448819 
vn -0.629921 -0.629921 -0.448819 
vn -0.629921 0.629921 -0.448819 
vn 0 -0.897638 -0.448819 
vn -0.708661 0.708661 0 
vn -0.708661 0.708661 0 
vn -1 0 0 
vn -1 0 0 
vn -0.708661 -0.708661 0 
vn -0.708661 -0.708661 0 

vt 43.9814 -7.01306 
vt 43.9814 -7.01306 
vt 44.0094 -7.01306 
vt 43.9814 -7 
vt 44.0146 -7.0149 
vt 44.0146 -7 
vt 44.0094 -7 
vt 43.9814 -6.98694 
vt 44.0094 -6.98694 
vt 44.0146 -6.9851 
vt 44.0186 -7 
vt 44.0146 -6.9851 
vt 44.0146 -7 
vt 44.0186 -6.9851 
vt 44.0186 -7.0149 
vt 44.0146 -7.0149 
vt 43.9854 -7.02107 
vt 44.0186 -6.98694 
vt 43.9906 -6.98694 
vt 43.9854 -6.9851 
vt 44.0186 -7 
vt 43.9854 -7 
vt 43.9906 -7 
vt 44.0186 -7.01306 
vt 43.9906 -7.01306 
vt 43.9854 -7.0149 
vt 43.9854 -6.9851 
vt 43.9814 -6.9851 
vt 43.9854 -7 
vt 43.9814 -7 
vt 43.9854 -7.0149 
vt 43.9814 -7.0149 
vt 44 -7.02107 
vt 44.0211 -7 
vt 43.9789 -7 
vt 44.0149 -7.0149 
vt 43.9851 -7.0149 
vt 44 -6.97893 
vt 43.9851 -6.9851 
vt 44.0149 -6.9851 
vt 44.0186 -7.01306 
vt 43.9906 -7.01306 
vt 43.9854 -7.0149 
vt 43.9854 -7 
vt 44.0186 -6.98694 
vt 43.9906 -6.98694 
vt 43.9854 -6.9851 
vt 44.0186 -7 
vt 43.9906 -7 
vt 43.9854 -6.9851 
vt 43.9814 -6.9851 
vt 43.9814 -7.0149 
vt 43.9854 -7 
vt 43.9854 -7.0149 
vt 43.9814 -7 
vt 43.9814 -7.01306 
vt 44.0094 -7.01306 
vt 43.9814 -7 
vt 44.0094 -7 
vt 43.9814 -6.98694 
vt 44.0094 -6.98694 
vt 44.0146 -7 
vt 44.0146 -7.0149 
vt 44.0146 -6.9851 
vt 44.0146 -7.02107 
vt 44.0186 -6.9851 
vt 44.0146 -6.9851 
vt 44.0186 -7 
vt 44.0146 -7 
vt 44.0186 -7.0149 
vt 44.0146 -7.0149 

usemtl Meshpart1Mtl

f 3/3/3 4/4/4 2/2/2 
f 6/6/6 3/3/3 5/5/5 
f 4/4/4 3/3/3 7/7/7 
f 3/3/3 6/6/6 7/7/7 
f 7/7/7 8/8/8 4/4/4 
f 6/6/6 9/9/9 7/7/7 
f 8/8/8 7/7/7 9/9/9 
f 6/6/6 10/10/10 9/9/9 
f 11/11/11 12/12/12 13/13/13 
f 12/12/12 11/11/11 14/14/14 
f 13/13/13 15/15/15 11/11/11 
f 15/15/15 13/13/13 16/16/16 
f 18/18/18 19/19/19 21/21/21 
f 22/22/22 19/19/19 20/20/20 
f 23/23/23 21/21/21 19/19/19 
f 19/19/19 22/22/22 23/23/23 
f 21/21/21 23/23/23 24/24/24 
f 25/25/25 23/23/23 22/22/22 
f 25/25/25 24/24/24 23/23/23 
f 22/22/22 26/26/26 25/25/25 
f 29/29/29 27/27/27 28/28/28 
f 28/28/28 30/30/30 29/29/29 
f 31/31/31 29/29/29 30/30/30 
f 30/30/30 32/32/32 31/31/31 
f 33/33/33 34/34/34 35/35/35 
f 34/34/34 33/33/33 36/36/36 
f 33/33/33 35/35/35 37/37/37 
f 34/34/34 38/38/38 35/35/35 
f 35/35/35 38/38/38 39/39/39 
f 38/38/38 34/34/34 40/40/40 
f 44/44/44 43/43/43 42/42/42 
f 44/44/44 46/46/46 47/47/47 
f 45/45/45 46/46/46 48/48/48 
f 46/46/46 44/44/44 49/49/49 
f 49/49/49 48/48/48 46/46/46 
f 42/42/42 49/49/49 44/44/44 
f 48/48/48 49/49/49 41/41/41 
f 42/42/42 41/41/41 49/49/49 
f 53/53/53 50/50/50 51/51/51 
f 51/51/51 55/55/55 53/53/53 
f 55/55/55 52/52/52 54/54/54 
f 54/54/54 53/53/53 55/55/55 
f 56/56/56 57/57/57 58/58/58 
f 59/59/59 58/58/58 57/57/57 
f 58/58/58 59/59/59 60/60/60 
f 61/61/61 60/60/60 59/59/59 
f 57/57/57 62/62/62 59/59/59 
f 61/61/61 59/59/59 62/62/62 
f 62/62/62 57/57/57 63/63/63 
f 62/62/62 64/64/64 61/61/61 
f 68/68/68 66/66/66 67/67/67 
f 67/67/67 69/69/69 68/68/68 
f 70/70/70 68/68/68 69/69/69 
f 69/69/69 71/71/71 70/70/70 

g Meshpart2

v -450.123 5.91724 -1.95717 
v -450.018 5.66497 -1.95717 
v -450.123 5.70825 -1.95717 
v -450.166 5.81274 -1.95717 
v -449.914 5.91724 -1.95717 
v -450.018 5.96052 -1.95717 
v -449.914 5.70825 -1.95717 
v -449.87 5.81274 -1.95717 
v -449.914 5.91724 -1.95717 
v -449.914 5.91724 -1.42772 
v -450.018 5.96052 -1.42772 
v -450.018 5.96052 -1.95717 
v -450.123 5.91724 -1.42772 
v -450.123 5.91724 -1.95717 
v -449.914 5.70825 -1.42772 
v -449.914 5.70825 -1.95717 
v -449.87 5.81274 -1.95717 
v -449.87 5.81274 -1.42772 
v -449.914 5.91724 -1.95717 
v -449.914 5.91724 -1.42772 
v -449.914 5.70825 -1.42772 
v -449.914 5.70825 -1.95717 
v -450.018 5.66497 -1.42772 
v -450.018 5.66497 -1.95717 
v -450.123 5.70825 -1.42772 
v -450.123 5.70825 -1.95717 
v -450.123 5.70825 -1.42772 
v -450.123 5.70825 -1.95717 
v -450.166 5.81274 -1.42772 
v -450.166 5.81274 -1.95717 
v -450.123 5.91724 -1.42772 
v -450.123 5.91724 -1.95717 

vn 0 0 -1 
vn 0 0 -1 
vn 0 0 -1 
vn 0 0 -1 
vn 0 0 -1 
vn 0 0 -1 
vn 0 0 -1 
vn 0 0 -1 
vn 0.708661 0.708661 0 
vn 0.708661 0.708661 0 
vn 0 1 0 
vn 0 1 0 
vn -0.708661 0.708661 0 
vn -0.708661 0.708661 0 
vn 0.708661 -0.708661 0 
vn 0.708661 -0.708661 0 
vn 1 0 0 
vn 1 0 0 
vn 0.708661 0.708661 0 
vn 0.708661 0.708661 0 
vn 0.708661 -0.708661 0 
vn 0.708661 -0.708661 0 
vn 0 -1 0 
vn 0 -1 0 
vn -0.708661 -0.708661 0 
vn -0.708661 -0.708661 0 
vn -0.708661 -0.708661 0 
vn -0.708661 -0.708661 0 
vn -1 0 0 
vn -1 0 0 
vn -0.708661 0.708661 0 
vn -0.708661 0.708661 0 

vt 54.0131 -48.9869 
vt 54 -49.0185 
vt 54.0131 -49.0131 
vt 54.0185 -49 
vt 53.9869 -48.9869 
vt 54 -48.9815 
vt 53.9869 -49.0131 
vt 53.9815 -49 
vt 53.9669 -48.9869 
vt 54.0331 -48.9869 
vt 54.0331 -49 
vt 53.9669 -49 
vt 54.0331 -49.0131 
vt 53.9669 -49.0131 
vt 53.9669 -49.0131 
vt 54.0331 -49.0131 
vt 54.0331 -49 
vt 53.9669 -49 
vt 54.0331 -48.9869 
vt 53.9669 -48.9869 
vt 53.9669 -48.9869 
vt 54.0331 -48.9869 
vt 53.9669 -49 
vt 54.0331 -49 
vt 53.9669 -49.0131 
vt 54.0331 -49.0131 
vt 54.0331 -49.0131 
vt 53.9669 -49.0131 
vt 54.0331 -49 
vt 53.9669 -49 
vt 54.0331 -48.9869 
vt 53.9669 -48.9869 

usemtl Meshpart2Mtl

f 72/72/72 73/73/73 74/74/74 
f 72/72/72 74/74/74 75/75/75 
f 72/72/72 76/76/76 73/73/73 
f 76/76/76 72/72/72 77/77/77 
f 76/76/76 78/78/78 73/73/73 
f 78/78/78 76/76/76 79/79/79 
f 80/80/80 82/82/82 81/81/81 
f 82/82/82 80/80/80 83/83/83 
f 83/83/83 84/84/84 82/82/82 
f 84/84/84 83/83/83 85/85/85 
f 86/86/86 87/87/87 88/88/88 
f 86/86/86 88/88/88 89/89/89 
f 89/89/89 88/88/88 90/90/90 
f 89/89/89 90/90/90 91/91/91 
f 94/94/94 93/93/93 92/92/92 
f 94/94/94 95/95/95 93/93/93 
f 96/96/96 95/95/95 94/94/94 
f 96/96/96 97/97/97 95/95/95 
f 100/100/100 99/99/99 98/98/98 
f 100/100/100 101/101/101 99/99/99 
f 102/102/102 101/101/101 100/100/100 
f 102/102/102 103/103/103 101/101/101 

g Meshpart3

v -449.723 5.70825 -1.42776 
v -449.723 5.91724 -1.42776 
v -449.723 5.91724 -1.20425 
v -449.618 5.96052 -1.42776 
v -449.738 5.93195 -1.16263 
v -449.618 5.98132 -1.16263 
v -449.618 5.96052 -1.20425 
v -449.514 5.91724 -1.42776 
v -449.514 5.91724 -1.20425 
v -449.499 5.93195 -1.16263 
v -449.618 5.98132 -1.13071 
v -449.499 5.93195 -1.16263 
v -449.618 5.98132 -1.16263 
v -449.499 5.93195 -1.13071 
v -449.738 5.93195 -1.13071 
v -449.738 5.93195 -1.16263 
v -449.618 5.64417 -1.16263 
v -449.514 5.91724 -1.42776 
v -449.514 5.91724 -1.20425 
v -449.499 5.93195 -1.16263 
v -449.471 5.81274 -1.42776 
v -449.45 5.81274 -1.16263 
v -449.471 5.81274 -1.20425 
v -449.514 5.70825 -1.42776 
v -449.514 5.70825 -1.20425 
v -449.499 5.69354 -1.16263 
v -449.499 5.93195 -1.16263 
v -449.499 5.93195 -1.13071 
v -449.45 5.81274 -1.16263 
v -449.45 5.81274 -1.13071 
v -449.499 5.69354 -1.16263 
v -449.499 5.69354 -1.13071 
v -449.618 5.64417 -1.13071 
v -449.45 5.81274 -1.13071 
v -449.787 5.81274 -1.13071 
v -449.499 5.69354 -1.13071 
v -449.738 5.69354 -1.13071 
v -449.618 5.98132 -1.13071 
v -449.738 5.93195 -1.13071 
v -449.499 5.93195 -1.13071 
v -449.723 5.70825 -1.42776 
v -449.723 5.70825 -1.20425 
v -449.738 5.69354 -1.16263 
v -449.618 5.64417 -1.16263 
v -449.514 5.70825 -1.42776 
v -449.514 5.70825 -1.20425 
v -449.499 5.69354 -1.16263 
v -449.618 5.66497 -1.42776 
v -449.618 5.66497 -1.20425 
v -449.499 5.69354 -1.16263 
v -449.499 5.69354 -1.13071 
v -449.738 5.69354 -1.13071 
v -449.618 5.64417 -1.16263 
v -449.738 5.69354 -1.16263 
v -449.618 5.64417 -1.13071 
v -449.723 5.70825 -1.42776 
v -449.723 5.70825 -1.20425 
v -449.766 5.81274 -1.42776 
v -449.766 5.81274 -1.20425 
v -449.723 5.91724 -1.42776 
v -449.723 5.91724 -1.20425 
v -449.787 5.81274 -1.16263 
v -449.738 5.69354 -1.16263 
v -449.738 5.93195 -1.16263 
v -449.618 5.64417 -1.16263 
v -449.738 5.93195 -1.13071 
v -449.738 5.93195 -1.16263 
v -449.787 5.81274 -1.13071 
v -449.787 5.81274 -1.16263 
v -449.738 5.69354 -1.13071 
v -449.738 5.69354 -1.16263 

vn -0.708661 -0.708661 0 
vn -0.708661 0.708661 0 
vn -0.685039 0.685039 -0.244094 
vn 0 1 0 
vn -0.629921 0.629921 -0.448819 
vn 0 0.897638 -0.448819 
vn 0 0.968504 -0.244094 
vn 0.708661 0.708661 0 
vn 0.685039 0.685039 -0.244094 
vn 0.629921 0.629921 -0.448819 
vn 0 1 0 
vn 0.708661 0.708661 0 
vn 0 1 0 
vn 0.708661 0.708661 0 
vn -0.708661 0.708661 0 
vn -0.708661 0.708661 0 
vn 0 -0.897638 -0.448819 
vn 0.708661 0.708661 0 
vn 0.685039 0.685039 -0.244094 
vn 0.629921 0.629921 -0.448819 
vn 1 0 0 
vn 0.897638 0 -0.448819 
vn 0.968504 0 -0.244094 
vn 0.708661 -0.708661 0 
vn 0.685039 -0.685039 -0.244094 
vn 0.629921 -0.629921 -0.448819 
vn 0.708661 0.708661 0 
vn 0.708661 0.708661 0 
vn 1 0 0 
vn 1 0 0 
vn 0.708661 -0.708661 0 
vn 0.708661 -0.708661 0 
vn 0 0 1 
vn 0 0 1 
vn 0 0 1 
vn 0 0 1 
vn 0 0 1 
vn 0 0 1 
vn 0 0 1 
vn 0 0 1 
vn -0.708661 -0.708661 0 
vn -0.685039 -0.685039 -0.244094 
vn -0.629921 -0.629921 -0.448819 
vn 0 -0.897638 -0.448819 
vn 0.708661 -0.708661 0 
vn 0.685039 -0.685039 -0.244094 
vn 0.629921 -0.629921 -0.448819 
vn 0 -1 0 
vn 0 -0.968504 -0.244094 
vn 0.708661 -0.708661 0 
vn 0.708661 -0.708661 0 
vn -0.708661 -0.708661 0 
vn 0 -1 0 
vn -0.708661 -0.708661 0 
vn 0 -1 0 
vn -0.708661 -0.708661 0 
vn -0.685039 -0.685039 -0.244094 
vn -1 0 0 
vn -0.968504 0 -0.244094 
vn -0.708661 0.708661 0 
vn -0.685039 0.685039 -0.244094 
vn -0.897638 0 -0.448819 
vn -0.629921 -0.629921 -0.448819 
vn -0.629921 0.629921 -0.448819 
vn 0 -0.897638 -0.448819 
vn -0.708661 0.708661 0 
vn -0.708661 0.708661 0 
vn -1 0 0 
vn -1 0 0 
vn -0.708661 -0.708661 0 
vn -0.708661 -0.708661 0 

vt 25.9814 -33.0131 
vt 25.9814 -33.0131 
vt 26.0094 -33.0131 
vt 25.9814 -33 
vt 26.0146 -33.0149 
vt 26.0146 -33 
vt 26.0094 -33 
vt 25.9814 -32.9869 
vt 26.0094 -32.9869 
vt 26.0146 -32.9851 
vt 26.0186 -33 
vt 26.0146 -32.9851 
vt 26.0146 -33 
vt 26.0186 -32.9851 
vt 26.0186 -33.0149 
vt 26.0146 -33.0149 
vt 25.9854 -33.0211 
vt 26.0186 -32.9869 
vt 25.9906 -32.9869 
vt 25.9854 -32.9851 
vt 26.0186 -33 
vt 25.9854 -33 
vt 25.9906 -33 
vt 26.0186 -33.0131 
vt 25.9906 -33.0131 
vt 25.9854 -33.0149 
vt 25.9854 -32.9851 
vt 25.9814 -32.9851 
vt 25.9854 -33 
vt 25.9814 -33 
vt 25.9854 -33.0149 
vt 25.9814 -33.0149 
vt 26 -33.0211 
vt 26.0211 -33 
vt 25.9789 -33 
vt 26.0149 -33.0149 
vt 25.9851 -33.0149 
vt 26 -32.9789 
vt 25.9851 -32.9851 
vt 26.0149 -32.9851 
vt 26.0186 -33.0131 
vt 25.9906 -33.0131 
vt 25.9854 -33.0149 
vt 25.9854 -33 
vt 26.0186 -32.9869 
vt 25.9906 -32.9869 
vt 25.9854 -32.9851 
vt 26.0186 -33 
vt 25.9906 -33 
vt 25.9854 -32.9851 
vt 25.9814 -32.9851 
vt 25.9814 -33.0149 
vt 25.9854 -33 
vt 25.9854 -33.0149 
vt 25.9814 -33 
vt 25.9814 -33.0131 
vt 26.0094 -33.0131 
vt 25.9814 -33 
vt 26.0094 -33 
vt 25.9814 -32.9869 
vt 26.0094 -32.9869 
vt 26.0146 -33 
vt 26.0146 -33.0149 
vt 26.0146 -32.9851 
vt 26.0146 -33.0211 
vt 26.0186 -32.9851 
vt 26.0146 -32.9851 
vt 26.0186 -33 
vt 26.0146 -33 
vt 26.0186 -33.0149 
vt 26.0146 -33.0149 

usemtl Meshpart1Mtl

f 106/106/106 107/107/107 105/105/105 
f 109/109/109 106/106/106 108/108/108 
f 107/107/107 106/106/106 110/110/110 
f 106/106/106 109/109/109 110/110/110 
f 110/110/110 111/111/111 107/107/107 
f 109/109/109 112/112/112 110/110/110 
f 111/111/111 110/110/110 112/112/112 
f 109/109/109 113/113/113 112/112/112 
f 114/114/114 115/115/115 116/116/116 
f 115/115/115 114/114/114 117/117/117 
f 116/116/116 118/118/118 114/114/114 
f 118/118/118 116/116/116 119/119/119 
f 121/121/121 122/122/122 124/124/124 
f 125/125/125 122/122/122 123/123/123 
f 126/126/126 124/124/124 122/122/122 
f 122/122/122 125/125/125 126/126/126 
f 124/124/124 126/126/126 127/127/127 
f 128/128/128 126/126/126 125/125/125 
f 128/128/128 127/127/127 126/126/126 
f 125/125/125 129/129/129 128/128/128 
f 132/132/132 130/130/130 131/131/131 
f 131/131/131 133/133/133 132/132/132 
f 134/134/134 132/132/132 133/133/133 
f 133/133/133 135/135/135 134/134/134 
f 136/136/136 137/137/137 138/138/138 
f 137/137/137 136/136/136 139/139/139 
f 136/136/136 138/138/138 140/140/140 
f 137/137/137 141/141/141 138/138/138 
f 138/138/138 141/141/141 142/142/142 
f 141/141/141 137/137/137 143/143/143 
f 147/147/147 146/146/146 145/145/145 
f 147/147/147 149/149/149 150/150/150 
f 148/148/148 149/149/149 151/151/151 
f 149/149/149 147/147/147 152/152/152 
f 152/152/152 151/151/151 149/149/149 
f 145/145/145 152/152/152 147/147/147 
f 151/151/151 152/152/152 144/144/144 
f 145/145/145 144/144/144 152/152/152 
f 156/156/156 153/153/153 154/154/154 
f 154/154/154 158/158/158 156/156/156 
f 158/158/158 155/155/155 157/157/157 
f 157/157/157 156/156/156 158/158/158 
f 159/159/159 160/160/160 161/161/161 
f 162/162/162 161/161/161 160/160/160 
f 161/161/161 162/162/162 163/163/163 
f 164/164/164 163/163/163 162/162/162 
f 160/160/160 165/165/165 162/162/162 
f 164/164/164 162/162/162 165/165/165 
f 165/165/165 160/160/160 166/166/166 
f 165/165/165 167/167/167 164/164/164 
f 171/171/171 169/169/169 170/170/170 
f 170/170/170 172/172/172 171/171/171 
f 173/173/173 171/171/171 172/172/172 
f 172/172/172 174/174/174 173/173/173 

g Meshpart4

v -449.723 5.91724 -1.95717 
v -449.618 5.66497 -1.95717 
v -449.723 5.70825 -1.95717 
v -449.766 5.81274 -1.95717 
v -449.514 5.91724 -1.95717 
v -449.618 5.96052 -1.95717 
v -449.514 5.70825 -1.95717 
v -449.471 5.81274 -1.95717 
v -449.514 5.91724 -1.95717 
v -449.514 5.91724 -1.42772 
v -449.618 5.96052 -1.42772 
v -449.618 5.96052 -1.95717 
v -449.723 5.91724 -1.42772 
v -449.723 5.91724 -1.95717 
v -449.514 5.70825 -1.42772 
v -449.514 5.70825 -1.95717 
v -449.471 5.81274 -1.95717 
v -449.471 5.81274 -1.42772 
v -449.514 5.91724 -1.95717 
v -449.514 5.91724 -1.42772 
v -449.514 5.70825 -1.42772 
v -449.514 5.70825 -1.95717 
v -449.618 5.66497 -1.42772 
v -449.618 5.66497 -1.95717 
v -449.723 5.70825 -1.42772 
v -449.723 5.70825 -1.95717 
v -449.723 5.70825 -1.42772 
v -449.723 5.70825 -1.95717 
v -449.766 5.81274 -1.42772 
v -449.766 5.81274 -1.95717 
v -449.723 5.91724 -1.42772 
v -449.723 5.91724 -1.95717 

vn 0 0 -1 
vn 0 0 -1 
vn 0 0 -1 
vn 0 0 -1 
vn 0 0 -1 
vn 0 0 -1 
vn 0 0 -1 
vn 0 0 -1 
vn 0.708661 0.708661 0 
vn 0.708661 0.708661 0 
vn 0 1 0 
vn 0 1 0 
vn -0.708661 0.708661 0 
vn -0.708661 0.708661 0 
vn 0.708661 -0.708661 0 
vn 0.708661 -0.708661 0 
vn 1 0 0 
vn 1 0 0 
vn 0.708661 0.708661 0 
vn 0.708661 0.708661 0 
vn 0.708661 -0.708661 0 
vn 0.708661 -0.708661 0 
vn 0 -1 0 
vn 0 -1 0 
vn -0.708661 -0.708661 0 
vn -0.708661 -0.708661 0 
vn -0.708661 -0.708661 0 
vn -0.708661 -0.708661 0 
vn -1 0 0 
vn -1 0 0 
vn -0.708661 0.708661 0 
vn -0.708661 0.708661 0 

vt 48.0131 -54.9869 
vt 48 -55.0185 
vt 48.0131 -55.0131 
vt 48.0185 -55 
vt 47.9869 -54.9869 
vt 48 -54.9815 
vt 47.9869 -55.0131 
vt 47.9815 -55 
vt 47.9669 -54.9869 
vt 48.0331 -54.9869 
vt 48.0331 -55 
vt 47.9669 -55 
vt 48.0331 -55.0131 
vt 47.9669 -55.0131 
vt 47.9669 -55.0131 
vt 48.0331 -55.0131 
vt 48.0331 -55 
vt 47.9669 -55 
vt 48.0331 -54.9869 
vt 47.9669 -54.9869 
vt 47.9669 -54.9869 
vt 48.0331 -54.9869 
vt 47.9669 -55 
vt 48.0331 -55 
vt 47.9669 -55.0131 
vt 48.0331 -55.0131 
vt 48.0331 -55.0131 
vt 47.9669 -55.0131 
vt 48.0331 -55 
vt 47.9669 -55 
vt 48.0331 -54.9869 
vt 47.9669 -54.9869 

usemtl Meshpart2Mtl

f 175/175/175 176/176/176 177/177/177 
f 175/175/175 177/177/177 178/178/178 
f 175/175/175 179/179/179 176/176/176 
f 179/179/179 175/175/175 180/180/180 
f 179/179/179 181/181/181 176/176/176 
f 181/181/181 179/179/179 182/182/182 
f 183/183/183 185/185/185 184/184/184 
f 185/185/185 183/183/183 186/186/186 
f 186/186/186 187/187/187 185/185/185 
f 187/187/187 186/186/186 188/188/188 
f 189/189/189 190/190/190 191/191/191 
f 189/189/189 191/191/191 192/192/192 
f 192/192/192 191/191/191 193/193/193 
f 192/192/192 193/193/193 194/194/194 
f 197/197/197 196/196/196 195/195/195 
f 197/197/197 198/198/198 196/196/196 
f 199/199/199 198/198/198 197/197/197 
f 199/199/199 200/200/200 198/198/198 
f 203/203/203 202/202/202 201/201/201 
f 203/203/203 204/204/204 202/202/202 
f 205/205/205 204/204/204 203/203/203 
f 205/205/205 206/206/206 204/204/204 

g Meshpart5

v -450.076 5.76336 -0.862208 
v -450.076 5.93001 -0.633311 
v -449.961 5.93001 -0.633311 
v -449.961 5.76336 -0.862208 
v -449.961 5.93001 -0.368097 
v -450.076 5.93001 -0.633311 
v -450.076 5.93001 -0.368097 
v -449.961 5.93001 -0.633311 
v -449.961 5.66447 -0.512077 
v -449.961 5.66447 -0.763319 
v -449.961 5.77756 -0.520535 
v -449.961 5.93001 -0.633311 
v -449.961 5.76336 -0.862208 
v -449.961 5.93001 -0.368097 
v -449.961 5.82701 -0.348363 
v -450.076 5.93001 -0.368097 
v -450.076 5.82701 -0.348363 
v -449.961 5.82701 -0.348363 
v -449.961 5.93001 -0.368097 
v -450.076 5.77756 -0.520535 
v -450.076 5.66447 -0.512077 
v -449.961 5.77756 -0.520535 
v -449.961 5.66447 -0.512077 
v -450.076 5.66447 -0.512077 
v -450.076 5.66447 -0.763319 
v -449.961 5.66447 -0.763319 
v -449.961 5.66447 -0.512077 
v -450.076 5.82701 -0.348363 
v -450.076 5.77756 -0.520535 
v -449.961 5.82701 -0.348363 
v -449.961 5.77756 -0.520535 
v -450.076 5.93001 -0.633311 
v -450.076 5.77756 -0.520535 
v -450.076 5.93001 -0.368097 
v -450.076 5.82701 -0.348363 
v -450.076 5.66447 -0.763319 
v -450.076 5.66447 -0.512077 
v -450.076 5.76336 -0.862208 

vn 0 0.811024 -0.590551 
vn 0 0.811024 -0.590551 
vn 0 0.811024 -0.590551 
vn 0 0.811024 -0.590551 
vn 0 1 0 
vn 0 1 0 
vn 0 1 0 
vn 0 1 0 
vn 1 0 0 
vn 1 0 0 
vn 1 0 0 
vn 1 0 0 
vn 1 0 0 
vn 1 0 0 
vn 1 0 0 
vn 0 0.188976 0.984252 
vn 0 0.188976 0.984252 
vn 0 0.188976 0.984252 
vn 0 0.188976 0.984252 
vn 0 0.0708661 1 
vn 0 0.0708661 1 
vn 0 0.0708661 1 
vn 0 0.0708661 1 
vn 0 -1 0 
vn 0 -1 0 
vn 0 -1 0 
vn 0 -1 0 
vn 0 -0.96063 0.275591 
vn 0 -0.96063 0.275591 
vn 0 -0.96063 0.275591 
vn 0 -0.96063 0.275591 
vn -1 0 0 
vn -1 0 0 
vn -1 0 0 
vn -1 0 0 
vn -1 0 0 
vn -1 0 0 
vn -1 0 0 

vt 51.9679 -45.0072 
vt 51.9965 -45.0072 
vt 51.9965 -44.9928 
vt 51.9679 -44.9928 
vt 52.0296 -44.9928 
vt 51.9965 -45.0072 
vt 52.0296 -45.0072 
vt 51.9965 -44.9928 
vt 51.9883 -45.0166 
vt 52.0198 -45.0166 
vt 51.9894 -45.0025 
vt 52.0035 -44.9834 
vt 52.0321 -45.0042 
vt 51.9704 -44.9834 
vt 51.9679 -44.9963 
vt 51.9928 -44.9834 
vt 51.9928 -44.9963 
vt 52.0072 -44.9963 
vt 52.0072 -44.9834 
vt 51.9928 -45.0025 
vt 51.9928 -45.0166 
vt 52.0072 -45.0025 
vt 52.0072 -45.0166 
vt 51.9883 -45.0072 
vt 52.0198 -45.0072 
vt 52.0198 -44.9928 
vt 51.9883 -44.9928 
vt 51.9679 -45.0072 
vt 51.9894 -45.0072 
vt 51.9679 -44.9928 
vt 51.9894 -44.9928 
vt 51.9965 -44.9834 
vt 52.0106 -45.0025 
vt 52.0296 -44.9834 
vt 52.0321 -44.9963 
vt 51.9802 -45.0166 
vt 52.0117 -45.0166 
vt 51.9679 -45.0042 

usemtl Meshpart5Mtl

f 207/207/207 208/208/208 209/209/209 
f 207/207/207 209/209/209 210/210/210 
f 211/211/211 212/212/212 213/213/213 
f 212/212/212 211/211/211 214/214/214 
f 215/215/215 216/216/216 217/217/217 
f 216/216/216 218/218/218 217/217/217 
f 218/218/218 216/216/216 219/219/219 
f 220/220/220 217/217/217 218/218/218 
f 217/217/217 220/220/220 221/221/221 
f 222/222/222 223/223/223 224/224/224 
f 222/222/222 224/224/224 225/225/225 
f 226/226/226 227/227/227 228/228/228 
f 227/227/227 229/229/229 228/228/228 
f 230/230/230 231/231/231 232/232/232 
f 230/230/230 232/232/232 233/233/233 
f 234/234/234 235/235/235 236/236/236 
f 235/235/235 237/237/237 236/236/236 
f 238/238/238 239/239/239 240/240/240 
f 240/240/240 239/239/239 241/241/241 
f 238/238/238 242/242/242 239/239/239 
f 239/239/239 242/242/242 243/243/243 
f 242/242/242 238/238/238 244/244/244 

g Meshpart6

v -450.018 5.65299 -1.97801 
v -449.871 5.67239 -1.97801 
v -450.018 5.61124 -1.97801 
v -449.9 5.70191 -1.97801 
v -449.851 5.82001 -1.97801 
v -449.809 5.82001 -1.97801 
v -450.136 5.70191 -1.97801 
v -450.166 5.67239 -1.97801 
v -450.227 5.82001 -1.97801 
v -450.185 5.82001 -1.97801 
v -450.166 5.96762 -1.97801 
v -450.136 5.9381 -1.97801 
v -450.018 6.02877 -1.97801 
v -450.018 5.98702 -1.97801 
v -449.871 5.96762 -1.97801 
v -449.9 5.9381 -1.97801 
v -449.851 5.82001 -1.97801 
v -449.809 5.82001 -1.97801 
v -450.024 6.07773 -1.93407 
v -449.965 6.00365 -1.94777 
v -450.072 6.00365 -1.94777 
v -450.012 6.07773 -1.93407 
v -450.072 6.00365 -1.84854 
v -449.965 6.00365 -1.84854 
v -450.018 5.65299 -1.68491 
v -450.018 5.98702 -1.68491 
v -449.9 5.70191 -1.68491 
v -449.9 5.9381 -1.68491 
v -449.851 5.82001 -1.68491 
v -450.185 5.82001 -1.68491 
v -450.136 5.70191 -1.68491 
v -450.136 5.9381 -1.68491 
v -450.166 5.67239 -1.09659 
v -450.166 5.96762 -1.09659 
v -449.871 5.67239 -1.09659 
v -449.871 5.96762 -1.09659 
v -450.136 5.70191 -1.97801 
v -450.024 6.07773 -1.93407 
v -450.024 6.07773 -1.86225 
v -450.012 6.07773 -1.86225 
v -450.012 6.07773 -1.93407 
v -450.038 6.04856 -1.89983 
v -450.038 6.04856 -1.08375 
v -449.999 6.04856 -1.08375 
v -449.999 6.04856 -1.89983 
v -450.072 6.00365 -1.84854 
v -449.965 6.00365 -1.84854 
v -450.018 5.65299 -1.68491 
v -450.227 5.82001 -1.09659 
v -450.227 5.82001 -1.97801 
v -450.166 5.96762 -1.09659 
v -450.166 5.96762 -1.97801 
v -450.018 6.02877 -1.09659 
v -450.018 6.02877 -1.97801 
v -449.871 5.96762 -1.09659 
v -449.871 5.96762 -1.97801 
v -449.809 5.82001 -1.09659 
v -450.185 5.82001 -1.09659 
v -450.136 5.9381 -1.66474 
v -450.136 5.70191 -1.66474 
v -450.136 5.70191 -1.09659 
v -450.018 5.65299 -1.66474 
v -450.018 5.65299 -1.09659 
v -449.9 5.70191 -1.66474 
v -449.9 5.70191 -1.09659 
v -449.851 5.82001 -1.66474 
v -449.851 5.82001 -1.09659 
v -450.018 5.65299 -1.68491 
v -449.9 5.70191 -1.97801 
v -450.018 5.65299 -1.97801 
v -449.9 5.70191 -1.68491 
v -449.851 5.82001 -1.97801 
v -449.851 5.82001 -1.68491 
v -450.136 5.70191 -1.68491 
v -450.136 5.70191 -1.97801 
v -450.166 5.67239 -1.09659 
v -450.166 5.96762 -1.09659 
v -449.871 5.67239 -1.09659 
v -449.871 5.96762 -1.09659 
v -450.136 5.70191 -1.97801 
v -450.072 6.00365 -1.84854 
v -449.965 6.00365 -1.84854 
v -449.965 6.00365 -1.94777 
v -450.012 6.07773 -1.86225 
v -450.012 6.07773 -1.93407 
v -450.018 5.65299 -1.68491 
v -449.983 6.02954 -1.89983 
v -449.983 6.02954 -1.08375 
v -449.983 5.99848 -1.89983 
v -449.983 5.99848 -1.08375 
v -449.999 6.04856 -1.89983 
v -449.999 6.04856 -1.08375 
v -449.871 5.67239 -1.09659 
v -449.871 5.67239 -1.97801 
v -449.809 5.82001 -1.97801 
v -449.809 5.82001 -1.09659 
v -450.018 5.61124 -1.97801 
v -449.871 5.96762 -1.09659 
v -449.871 5.96762 -1.97801 
v -449.809 5.82001 -1.09659 
v -449.809 5.82001 -1.97801 
v -450.185 5.82001 -1.66474 
v -450.136 5.9381 -1.09659 
v -450.185 5.82001 -1.09659 
v -450.136 5.9381 -1.66474 
v -450.136 5.70191 -1.66474 
v -450.136 5.70191 -1.09659 
v -450.136 5.70191 -1.68491 
v -450.136 5.70191 -1.97801 
v -450.185 5.82001 -1.68491 
v -450.185 5.82001 -1.97801 
v -450.136 5.9381 -1.68491 
v -450.136 5.9381 -1.97801 
v -450.053 6.02954 -1.08375 
v -449.999 6.04856 -1.08375 
v -450.038 6.04856 -1.08375 
v -449.983 6.02954 -1.08375 
v -450.053 5.99848 -1.08375 
v -449.983 5.99848 -1.08375 
v -450.136 5.70191 -1.09659 
v -450.227 5.82001 -1.09659 
v -450.166 5.67239 -1.09659 
v -450.018 5.61124 -1.09659 
v -450.185 5.82001 -1.09659 
v -450.018 5.65299 -1.09659 
v -450.166 5.96762 -1.09659 
v -449.871 5.67239 -1.09659 
v -450.136 5.9381 -1.09659 
v -449.9 5.70191 -1.09659 
v -449.851 5.82001 -1.09659 
v -449.809 5.82001 -1.09659 
v -450.018 6.02877 -1.09659 
v -450.018 5.98702 -1.09659 
v -449.871 5.96762 -1.09659 
v -449.9 5.9381 -1.09659 
v -449.851 5.82001 -1.09659 
v -449.809 5.82001 -1.09659 
v -450.072 6.00365 -1.84854 
v -449.965 6.00365 -1.84854 
v -450.018 5.65299 -1.68491 
v -450.185 5.82001 -1.97801 
v -449.9 5.9381 -1.68491 
v -449.851 5.82001 -1.68491 
v -450.018 5.65299 -1.66474 
v -450.018 5.98702 -1.66474 
v -450.185 5.82001 -1.66474 
v -450.136 5.70191 -1.66474 
v -450.136 5.9381 -1.66474 
v -449.9 5.70191 -1.66474 
v -449.9 5.9381 -1.66474 
v -449.851 5.82001 -1.66474 
v -450.024 6.07773 -1.86225 
v -450.072 6.00365 -1.84854 
v -449.965 6.00365 -1.84854 
v -450.012 6.07773 -1.86225 
v -450.166 5.67239 -1.09659 
v -450.166 5.96762 -1.09659 
v -449.871 5.67239 -1.09659 
v -449.871 5.96762 -1.09659 
v -450.136 5.70191 -1.97801 
v -450.072 6.00365 -1.84854 
v -449.965 6.00365 -1.84854 
v -450.018 5.65299 -1.68491 
v -449.871 5.67239 -1.09659 
v -449.871 5.67239 -1.97801 
v -450.018 5.61124 -1.09659 
v -450.018 5.61124 -1.97801 
v -450.166 5.67239 -1.09659 
v -450.166 5.67239 -1.97801 
v -450.227 5.82001 -1.09659 
v -450.227 5.82001 -1.97801 
v -450.136 5.9381 -1.09659 
v -450.185 5.82001 -1.09659 
v -450.136 5.9381 -1.66474 
v -450.018 5.98702 -1.09659 
v -450.018 5.98702 -1.66474 
v -449.9 5.9381 -1.09659 
v -449.9 5.9381 -1.66474 
v -449.851 5.82001 -1.09659 
v -449.851 5.82001 -1.66474 
v -450.136 5.70191 -1.68491 
v -450.185 5.82001 -1.97801 
v -450.136 5.9381 -1.68491 
v -450.136 5.9381 -1.97801 
v -450.018 5.98702 -1.68491 
v -450.018 5.98702 -1.97801 
v -449.9 5.9381 -1.68491 
v -449.9 5.9381 -1.97801 
v -449.851 5.82001 -1.68491 
v -449.851 5.82001 -1.97801 
v -450.053 5.99848 -1.08375 
v -450.053 5.99848 -1.89983 
v -449.983 5.99848 -1.89983 
v -449.983 5.99848 -1.08375 
v -450.166 5.67239 -1.09659 
v -450.166 5.96762 -1.09659 
v -449.871 5.67239 -1.09659 
v -449.871 5.96762 -1.09659 
v -450.136 5.70191 -1.97801 
v -450.072 6.00365 -1.94777 
v -450.024 6.07773 -1.86225 
v -450.024 6.07773 -1.93407 
v -450.072 6.00365 -1.84854 
v -449.965 6.00365 -1.84854 
v -450.018 5.65299 -1.68491 
v -450.053 6.02954 -1.89983 
v -450.038 6.04856 -1.08375 
v -450.038 6.04856 -1.89983 
v -450.053 6.02954 -1.08375 
v -450.053 5.99848 -1.08375 
v -450.053 5.99848 -1.89983 
v -450.166 5.67239 -1.09659 
v -450.166 5.67239 -1.97801 
v -450.227 5.82001 -1.09659 
v -450.227 5.82001 -1.97801 
v -450.166 5.96762 -1.09659 
v -450.166 5.96762 -1.97801 
v -450.185 5.82001 -1.09659 
v -449.9 5.9381 -1.09659 
v -449.9 5.9381 -1.66474 
v -449.851 5.82001 -1.09659 
v -449.851 5.82001 -1.66474 
v -449.9 5.70191 -1.66474 
v -449.9 5.70191 -1.09659 
v -449.851 5.82001 -1.66474 
v -449.851 5.82001 -1.09659 
v -449.9 5.70191 -1.97801 
v -449.9 5.70191 -1.68491 
v -449.851 5.82001 -1.97801 
v -449.851 5.82001 -1.68491 
v -449.9 5.9381 -1.68491 
v -449.9 5.9381 -1.97801 
v -449.851 5.82001 -1.68491 
v -449.851 5.82001 -1.97801 

vn 0 0 -1 
vn 0 0 -1 
vn 0 0 -1 
vn 0 0 -1 
vn 0 0 -1 
vn 0 0 -1 
vn 0 0 -1 
vn 0 0 -1 
vn 0 0 -1 
vn 0 0 -1 
vn 0 0 -1 
vn 0 0 -1 
vn 0 0 -1 
vn 0 0 -1 
vn 0 0 -1 
vn 0 0 -1 
vn 0 0 -1 
vn 0 0 -1 
vn 0 0.181102 -0.984252 
vn 0 0.181102 -0.984252 
vn 0 0.181102 -0.984252 
vn 0 0.181102 -0.984252 
vn -0.84252 0.543307 0 
vn 0.84252 0.543307 0 
vn 0 0.779528 -0.629921 
vn 0 -0.779528 -0.629921 
vn -0.551181 0.551181 -0.629921 
vn -0.551181 -0.551181 -0.629921 
vn -0.779528 0 -0.629921 
vn 0.779528 0 -0.629921 
vn 0.551181 0.551181 -0.629921 
vn 0.551181 -0.551181 -0.629921 
vn 0 0 1 
vn 0 0 1 
vn 0 0 1 
vn 0 0 1 
vn 0 0 -1 
vn 0 1 0 
vn 0 1 0 
vn 0 1 0 
vn 0 1 0 
vn 0 1 0 
vn 0 1 0 
vn 0 1 0 
vn 0 1 0 
vn -0.84252 0.543307 0 
vn 0.84252 0.543307 0 
vn 0 0.779528 -0.629921 
vn -1 0 0 
vn -1 0 0 
vn -0.708661 0.708661 0 
vn -0.708661 0.708661 0 
vn 0 1 0 
vn 0 1 0 
vn 0.708661 0.708661 0 
vn 0.708661 0.708661 0 
vn 1 0 0 
vn 1 0 0 
vn 0.708661 -0.708661 0 
vn 0.708661 0.708661 0 
vn 0.708661 0.708661 0 
vn 0 1 0 
vn 0 1 0 
vn -0.708661 0.708661 0 
vn -0.708661 0.708661 0 
vn -1 0 0 
vn -1 0 0 
vn 0 0.779528 -0.629921 
vn -0.708661 0.708661 0 
vn 0 1 0 
vn -0.551181 0.551181 -0.629921 
vn -1 0 0 
vn -0.779528 0 -0.629921 
vn 0.551181 0.551181 -0.629921 
vn 0.708661 0.708661 0 
vn 0 0 1 
vn 0 0 1 
vn 0 0 1 
vn 0 0 1 
vn 0 0 -1 
vn -0.84252 0.543307 0 
vn 0.84252 0.543307 0 
vn 0.84252 0.543307 0 
vn 0.84252 0.543307 0 
vn 0.84252 0.543307 0 
vn 0 0.779528 -0.629921 
vn 0.944882 0.330709 0 
vn 0.944882 0.330709 0 
vn 1 0 0 
vn 1 0 0 
vn 0.779528 0.629921 0 
vn 0.779528 0.629921 0 
vn 0.708661 -0.708661 0 
vn 0.708661 -0.708661 0 
vn 1 0 0 
vn 1 0 0 
vn 0 -1 0 
vn 0.708661 0.708661 0 
vn 0.708661 0.708661 0 
vn 1 0 0 
vn 1 0 0 
vn 1 0 0 
vn 0.708661 -0.708661 0 
vn 1 0 0 
vn 0.708661 -0.708661 0 
vn 0.708661 0.708661 0 
vn 0.708661 0.708661 0 
vn 0.551181 0.551181 -0.629921 
vn 0.708661 0.708661 0 
vn 0.779528 0 -0.629921 
vn 1 0 0 
vn 0.551181 -0.551181 -0.629921 
vn 0.708661 -0.708661 0 
vn 0 0 1 
vn 0 0 1 
vn 0 0 1 
vn 0 0 1 
vn 0 0 1 
vn 0 0 1 
vn 0 0 1 
vn 0 0 1 
vn 0 0 1 
vn 0 0 1 
vn 0 0 1 
vn 0 0 1 
vn 0 0 1 
vn 0 0 1 
vn 0 0 1 
vn 0 0 1 
vn 0 0 1 
vn 0 0 1 
vn 0 0 1 
vn 0 0 1 
vn 0 0 1 
vn 0 0 1 
vn 0 0 1 
vn 0 0 1 
vn -0.84252 0.543307 0 
vn 0.84252 0.543307 0 
vn 0 0.779528 -0.629921 
vn 1 0 0 
vn -0.551181 -0.551181 -0.629921 
vn -0.779528 0 -0.629921 
vn 0 0 1 
vn 0 0 1 
vn 0 0 1 
vn 0 0 1 
vn 0 0 1 
vn 0 0 1 
vn 0 0 1 
vn 0 0 1 
vn 0 0.181102 0.984252 
vn 0 0.181102 0.984252 
vn 0 0.181102 0.984252 
vn 0 0.181102 0.984252 
vn 0 0 1 
vn 0 0 1 
vn 0 0 1 
vn 0 0 1 
vn 0 0 -1 
vn -0.84252 0.543307 0 
vn 0.84252 0.543307 0 
vn 0 0.779528 -0.629921 
vn 0.708661 -0.708661 0 
vn 0.708661 -0.708661 0 
vn 0 -1 0 
vn 0 -1 0 
vn -0.708661 -0.708661 0 
vn -0.708661 -0.708661 0 
vn -1 0 0 
vn -1 0 0 
vn 0.708661 -0.708661 0 
vn 1 0 0 
vn 0.708661 -0.708661 0 
vn 0 -1 0 
vn 0 -1 0 
vn -0.708661 -0.708661 0 
vn -0.708661 -0.708661 0 
vn -1 0 0 
vn -1 0 0 
vn 0.551181 0.551181 -0.629921 
vn 1 0 0 
vn 0.551181 -0.551181 -0.629921 
vn 0.708661 -0.708661 0 
vn 0 -0.779528 -0.629921 
vn 0 -1 0 
vn -0.551181 -0.551181 -0.629921 
vn -0.708661 -0.708661 0 
vn -0.779528 0 -0.629921 
vn -1 0 0 
vn 0 -1 0 
vn 0 -1 0 
vn 0 -1 0 
vn 0 -1 0 
vn 0 0 1 
vn 0 0 1 
vn 0 0 1 
vn 0 0 1 
vn 0 0 -1 
vn -0.84252 0.543307 0 
vn -0.84252 0.543307 0 
vn -0.84252 0.543307 0 
vn -0.84252 0.543307 0 
vn 0.84252 0.543307 0 
vn 0 0.779528 -0.629921 
vn -0.944882 0.330709 0 
vn -0.779528 0.629921 0 
vn -0.779528 0.629921 0 
vn -0.944882 0.330709 0 
vn -1 0 0 
vn -1 0 0 
vn -0.708661 -0.708661 0 
vn -0.708661 -0.708661 0 
vn -1 0 0 
vn -1 0 0 
vn -0.708661 0.708661 0 
vn -0.708661 0.708661 0 
vn 1 0 0 
vn -0.708661 -0.708661 0 
vn -0.708661 -0.708661 0 
vn -1 0 0 
vn -1 0 0 
vn -0.708661 0.708661 0 
vn -0.708661 0.708661 0 
vn -1 0 0 
vn -1 0 0 
vn -0.708661 0.708661 0 
vn -0.551181 0.551181 -0.629921 
vn -1 0 0 
vn -0.779528 0 -0.629921 
vn -0.551181 -0.551181 -0.629921 
vn -0.708661 -0.708661 0 
vn -0.779528 0 -0.629921 
vn -1 0 0 

vt 10 -13.0239 
vt 9.98155 -13.0215 
vt 10 -13.0292 
vt 9.98524 -13.0178 
vt 9.97912 -13.0031 
vt 9.9739 -13.0031 
vt 10.0148 -13.0178 
vt 10.0185 -13.0215 
vt 10.0261 -13.0031 
vt 10.0209 -13.0031 
vt 10.0185 -12.9846 
vt 10.0148 -12.9883 
vt 10 -12.977 
vt 10 -12.9822 
vt 9.98155 -12.9846 
vt 9.98524 -12.9883 
vt 9.97912 -13.0031 
vt 9.9739 -13.0031 
vt 10.0007 -12.9708 
vt 9.9933 -12.9801 
vt 10.0067 -12.9801 
vt 9.99927 -12.9708 
vt 10.0067 -12.9801 
vt 9.9933 -12.9801 
vt 10 -13.0239 
vt 10 -12.9822 
vt 9.98524 -13.0178 
vt 9.98524 -12.9883 
vt 9.97912 -13.0031 
vt 10.0209 -13.0031 
vt 10.0148 -13.0178 
vt 10.0148 -12.9883 
vt 10.0543 -13.0185 
vt 10.0543 -13.0185 
vt 10.0543 -12.9815 
vt 10.0543 -12.9815 
vt 9.94411 -13.0148 
vt 9.9496 -13.0007 
vt 9.95858 -13.0007 
vt 9.95858 -12.9993 
vt 9.9496 -12.9993 
vt 9.95388 -13.0024 
vt 10.0559 -13.0024 
vt 10.0559 -12.9976 
vt 9.95388 -12.9976 
vt 9.96029 -13.0067 
vt 9.96029 -12.9933 
vt 9.98075 -13 
vt 10.0543 -13.0261 
vt 9.94411 -13.0261 
vt 10.0543 -13.0185 
vt 9.94411 -13.0185 
vt 10.0543 -13 
vt 9.94411 -13 
vt 10.0543 -12.9815 
vt 9.94411 -12.9815 
vt 10.0543 -12.9739 
vt 10.0543 -13.0209 
vt 9.98327 -13.0148 
vt 9.98327 -13.0148 
vt 10.0543 -13.0148 
vt 9.98327 -13 
vt 10.0543 -13 
vt 9.98327 -12.9852 
vt 10.0543 -12.9852 
vt 9.98327 -12.9791 
vt 10.0543 -12.9791 
vt 9.98075 -13 
vt 9.94411 -12.9852 
vt 9.94411 -13 
vt 9.98075 -12.9852 
vt 9.94411 -12.9791 
vt 9.98075 -12.9791 
vt 9.98075 -13.0148 
vt 9.94411 -13.0148 
vt 9.94571 -13.0215 
vt 9.94571 -12.9846 
vt 9.94571 -13.0215 
vt 9.94571 -12.9846 
vt 10.0559 -13.0178 
vt 10.0397 -12.9801 
vt 10.0397 -12.9801 
vt 10.0521 -12.9801 
vt 10.0414 -12.9708 
vt 10.0504 -12.9708 
vt 10.0193 -13.0239 
vt 10.0461 -12.9769 
vt 9.94411 -12.9769 
vt 10.0461 -12.9808 
vt 9.94411 -12.9808 
vt 10.0461 -12.9745 
vt 9.94411 -12.9745 
vt 9.94571 -13.0215 
vt 10.0559 -13.0215 
vt 10.0559 -13.0031 
vt 9.94571 -13.0031 
vt 10.0559 -13.0292 
vt 9.94571 -12.9846 
vt 10.0559 -12.9846 
vt 9.94571 -13.0031 
vt 10.0559 -13.0031 
vt 10.0167 -13.0031 
vt 9.94571 -12.9883 
vt 9.94571 -13.0031 
vt 10.0167 -12.9883 
vt 10.0167 -13.0178 
vt 9.94571 -13.0178 
vt 10.0193 -13.0178 
vt 10.0559 -13.0178 
vt 10.0193 -13.0031 
vt 10.0559 -13.0031 
vt 10.0193 -12.9883 
vt 10.0559 -12.9883 
vt 9.99562 -12.9769 
vt 10.0024 -12.9745 
vt 9.99755 -12.9745 
vt 10.0044 -12.9769 
vt 9.99562 -12.9808 
vt 10.0044 -12.9808 
vt 9.98524 -13.0178 
vt 9.9739 -13.0031 
vt 9.98155 -13.0215 
vt 10 -13.0292 
vt 9.97912 -13.0031 
vt 10 -13.0239 
vt 9.98155 -12.9846 
vt 10.0185 -13.0215 
vt 9.98524 -12.9883 
vt 10.0148 -13.0178 
vt 10.0209 -13.0031 
vt 10.0261 -13.0031 
vt 10 -12.977 
vt 10 -12.9822 
vt 10.0185 -12.9846 
vt 10.0148 -12.9883 
vt 10.0209 -13.0031 
vt 10.0261 -13.0031 
vt 9.9933 -12.9801 
vt 10.0067 -12.9801 
vt 10 -13.0239 
vt 9.97912 -13.0031 
vt 10.0148 -12.9883 
vt 10.0209 -13.0031 
vt 10 -13.0239 
vt 10 -12.9822 
vt 9.97912 -13.0031 
vt 9.98524 -13.0178 
vt 9.98524 -12.9883 
vt 10.0148 -13.0178 
vt 10.0148 -12.9883 
vt 10.0209 -13.0031 
vt 9.99927 -12.9708 
vt 9.9933 -12.9801 
vt 10.0067 -12.9801 
vt 10.0007 -12.9708 
vt 9.94571 -13.0185 
vt 9.94571 -13.0185 
vt 9.94571 -12.9815 
vt 9.94571 -12.9815 
vt 10.0559 -13.0148 
vt 10.0397 -13.0067 
vt 10.0397 -12.9933 
vt 10.0193 -13 
vt 9.94571 -12.9815 
vt 10.0559 -12.9815 
vt 9.94571 -13 
vt 10.0559 -13 
vt 9.94571 -13.0185 
vt 10.0559 -13.0185 
vt 9.94571 -13.0261 
vt 10.0559 -13.0261 
vt 9.94571 -13.0148 
vt 9.94571 -13.0209 
vt 10.0167 -13.0148 
vt 9.94571 -13 
vt 10.0167 -13 
vt 9.94571 -12.9852 
vt 10.0167 -12.9852 
vt 9.94571 -12.9791 
vt 10.0167 -12.9791 
vt 10.0193 -13.0148 
vt 10.0559 -13.0209 
vt 10.0193 -13.0148 
vt 10.0559 -13.0148 
vt 10.0193 -13 
vt 10.0559 -13 
vt 10.0193 -12.9852 
vt 10.0559 -12.9852 
vt 10.0193 -12.9791 
vt 10.0559 -12.9791 
vt 9.94411 -13.0044 
vt 10.0461 -13.0044 
vt 10.0461 -12.9956 
vt 9.94411 -12.9956 
vt 10.0543 -13.0215 
vt 10.0543 -12.9846 
vt 10.0543 -13.0215 
vt 10.0543 -12.9846 
vt 9.94411 -13.0178 
vt 9.94789 -12.9801 
vt 9.95858 -12.9708 
vt 9.9496 -12.9708 
vt 9.96029 -12.9801 
vt 9.96029 -12.9801 
vt 9.98075 -13.0239 
vt 9.95388 -12.9769 
vt 10.0559 -12.9745 
vt 9.95388 -12.9745 
vt 10.0559 -12.9769 
vt 10.0559 -12.9808 
vt 9.95388 -12.9808 
vt 10.0543 -13.0215 
vt 9.94411 -13.0215 
vt 10.0543 -13.0031 
vt 9.94411 -13.0031 
vt 10.0543 -12.9846 
vt 9.94411 -12.9846 
vt 10.0543 -13.0031 
vt 10.0543 -12.9883 
vt 9.98327 -12.9883 
vt 10.0543 -13.0031 
vt 9.98327 -13.0031 
vt 9.98327 -13.0178 
vt 10.0543 -13.0178 
vt 9.98327 -13.0031 
vt 10.0543 -13.0031 
vt 9.94411 -13.0178 
vt 9.98075 -13.0178 
vt 9.94411 -13.0031 
vt 9.98075 -13.0031 
vt 9.98075 -12.9883 
vt 9.94411 -12.9883 
vt 9.98075 -13.0031 
vt 9.94411 -13.0031 

usemtl Meshpart6Mtl

f 245/245/245 246/246/246 247/247/247 
f 246/246/246 245/245/245 248/248/248 
f 249/249/249 246/246/246 248/248/248 
f 246/246/246 249/249/249 250/250/250 
f 247/247/247 251/251/251 245/245/245 
f 247/247/247 252/252/252 251/251/251 
f 253/253/253 251/251/251 252/252/252 
f 251/251/251 253/253/253 254/254/254 
f 255/255/255 254/254/254 253/253/253 
f 254/254/254 255/255/255 256/256/256 
f 257/257/257 256/256/256 255/255/255 
f 256/256/256 257/257/257 258/258/258 
f 259/259/259 258/258/258 257/257/257 
f 258/258/258 259/259/259 260/260/260 
f 259/259/259 261/261/261 260/260/260 
f 261/261/261 259/259/259 262/262/262 
f 263/263/263 264/264/264 265/265/265 
f 264/264/264 263/263/263 266/266/266 
f 269/269/269 270/270/270 271/271/271 
f 272/272/272 271/271/271 270/270/270 
f 271/271/271 272/272/272 273/273/273 
f 270/270/270 269/269/269 274/274/274 
f 274/274/274 269/269/269 275/275/275 
f 270/270/270 274/274/274 276/276/276 
f 282/282/282 283/283/283 284/284/284 
f 282/282/282 284/284/284 285/285/285 
f 286/286/286 287/287/287 288/288/288 
f 286/286/286 288/288/288 289/289/289 
f 296/296/296 295/295/295 297/297/297 
f 296/296/296 297/297/297 298/298/298 
f 298/298/298 297/297/297 299/299/299 
f 298/298/298 299/299/299 300/300/300 
f 304/304/304 305/305/305 306/306/306 
f 307/307/307 306/306/306 305/305/305 
f 306/306/306 307/307/307 308/308/308 
f 309/309/309 308/308/308 307/307/307 
f 312/312/312 313/313/313 314/314/314 
f 313/313/313 312/312/312 315/315/315 
f 314/314/314 318/318/318 312/312/312 
f 318/318/318 314/314/314 319/319/319 
f 326/326/326 327/327/327 328/328/328 
f 327/327/327 329/329/329 328/328/328 
f 331/331/331 332/332/332 333/333/333 
f 334/334/334 333/333/333 332/332/332 
f 332/332/332 331/331/331 335/335/335 
f 332/332/332 335/335/335 336/336/336 
f 337/337/337 338/338/338 339/339/339 
f 337/337/337 339/339/339 340/340/340 
f 344/344/344 343/343/343 342/342/342 
f 344/344/344 345/345/345 343/343/343 
f 346/346/346 347/347/347 348/348/348 
f 347/347/347 346/346/346 349/349/349 
f 348/348/348 350/350/350 346/346/346 
f 350/350/350 348/348/348 351/351/351 
f 352/352/352 353/353/353 354/354/354 
f 355/355/355 354/354/354 353/353/353 
f 354/354/354 355/355/355 356/356/356 
f 357/357/357 356/356/356 355/355/355 
f 358/358/358 359/359/359 360/360/360 
f 359/359/359 358/358/358 361/361/361 
f 361/361/361 358/358/358 362/362/362 
f 362/362/362 363/363/363 361/361/361 
f 364/364/364 365/365/365 366/366/366 
f 367/367/367 364/364/364 366/366/366 
f 365/365/365 364/364/364 368/368/368 
f 364/364/364 367/367/367 369/369/369 
f 370/370/370 365/365/365 368/368/368 
f 371/371/371 369/369/369 367/367/367 
f 368/368/368 372/372/372 370/370/370 
f 369/369/369 371/371/371 373/373/373 
f 371/371/371 374/374/374 373/373/373 
f 374/374/374 371/371/371 375/375/375 
f 376/376/376 370/370/370 372/372/372 
f 376/376/376 372/372/372 377/377/377 
f 377/377/377 378/378/378 376/376/376 
f 378/378/378 377/377/377 379/379/379 
f 380/380/380 378/378/378 379/379/379 
f 378/378/378 380/380/380 381/381/381 
f 388/388/388 389/389/389 390/390/390 
f 388/388/388 390/390/390 391/391/391 
f 390/390/390 389/389/389 392/392/392 
f 389/389/389 388/388/388 393/393/393 
f 389/389/389 393/393/393 394/394/394 
f 394/394/394 393/393/393 395/395/395 
f 396/396/396 397/397/397 398/398/398 
f 396/396/396 398/398/398 399/399/399 
f 410/410/410 409/409/409 408/408/408 
f 410/410/410 411/411/411 409/409/409 
f 412/412/412 411/411/411 410/410/410 
f 412/412/412 413/413/413 411/411/411 
f 418/418/418 419/419/419 416/416/416 
f 419/419/419 418/418/418 420/420/420 
f 420/420/420 421/421/421 419/419/419 
f 421/421/421 420/420/420 422/422/422 
f 427/427/427 428/428/428 429/429/429 
f 430/430/430 429/429/429 428/428/428 
f 429/429/429 430/430/430 431/431/431 
f 432/432/432 431/431/431 430/430/430 
f 435/435/435 436/436/436 437/437/437 
f 435/435/435 437/437/437 438/438/438 
f 444/444/444 445/445/445 446/446/446 
f 445/445/445 444/444/444 447/447/447 
f 450/450/450 451/451/451 452/452/452 
f 451/451/451 450/450/450 453/453/453 
f 450/450/450 454/454/454 453/453/453 
f 454/454/454 450/450/450 455/455/455 
f 458/458/458 457/457/457 456/456/456 
f 458/458/458 459/459/459 457/457/457 
f 460/460/460 459/459/459 458/458/458 
f 460/460/460 461/461/461 459/459/459 
f 464/464/464 465/465/465 463/463/463 
f 465/465/465 464/464/464 466/466/466 
f 468/468/468 469/469/469 467/467/467 
f 469/469/469 468/468/468 470/470/470 
f 471/471/471 472/472/472 473/473/473 
f 474/474/474 473/473/473 472/472/472 
f 475/475/475 476/476/476 477/477/477 
f 478/478/478 477/477/477 476/476/476 

g Meshpart7

v -449.932 5.56078 -1.60832 
v -450.104 5.56078 -1.60832 
v -449.932 5.54851 -1.63795 
v -450.104 5.54851 -1.63795 
v -449.932 5.51888 -1.65022 
v -450.104 5.51888 -1.65022 
v -449.932 5.48925 -1.63795 
v -450.104 5.48925 -1.63795 
v -449.887 5.35607 -0.793512 
v -450.149 5.15342 -0.581696 
v -450.149 5.35607 -0.793512 
v -449.887 5.15342 -0.581696 
v -450.149 4.93821 -0.49714 
v -449.887 4.93821 -0.49714 
v -450.149 4.70825 -0.547327 
v -449.887 4.70825 -0.547327 
v -450.104 5.54851 -1.57869 
v -449.932 5.56078 -1.60832 
v -450.104 5.56078 -1.60832 
v -449.932 5.54851 -1.63795 
v -449.932 5.54851 -1.57869 
v -450.104 5.54851 -1.63795 
v -450.149 5.64673 -0.305998 
v -449.887 5.35607 -0.793512 
v -450.149 5.35607 -0.793512 
v -449.887 5.64673 -0.305998 
v -450.149 5.39713 -0.102512 
v -449.887 4.76296 -0.0474567 
v -450.149 4.70825 -0.547327 
v -449.887 5.64673 -0.305998 
v -449.887 5.39713 -0.102512 
v -449.887 5.15342 -0.581696 
v -449.887 5.35607 -0.793512 
v -449.887 5.08742 -0.00761288 
v -449.887 4.93821 -0.49714 
v -449.887 4.76296 -0.0474567 
v -449.887 4.70825 -0.547327 
v -449.932 5.48925 -1.57869 
v -449.932 5.54851 -1.57869 
v -449.932 5.51888 -1.56642 
v -449.932 5.47698 -1.60832 
v -449.932 5.54851 -1.63795 
v -449.932 5.56078 -1.60832 
v -449.932 5.48925 -1.63795 
v -449.932 5.51888 -1.65022 
v -450.149 5.64673 -0.305998 
v -450.149 5.39713 -0.102512 
v -449.887 5.39713 -0.102512 
v -449.887 5.64673 -0.305998 
v -449.887 5.08742 -0.00761288 
v -450.149 5.08742 -0.00761288 
v -449.887 4.76296 -0.0474567 
v -450.149 4.76296 -0.0474567 
v -450.104 5.54851 -1.57869 
v -449.932 5.56078 -1.60832 
v -450.104 5.56078 -1.60832 
v -449.932 5.54851 -1.57869 
v -450.104 5.51888 -1.56642 
v -449.932 5.51888 -1.56642 
v -450.104 5.48925 -1.57869 
v -449.932 5.48925 -1.63795 
v -449.932 5.48925 -1.57869 
v -450.149 4.76296 -0.0474567 
v -450.149 4.70825 -0.547327 
v -449.887 4.70825 -0.547327 
v -449.887 4.76296 -0.0474567 
v -450.104 5.48925 -1.57869 
v -449.932 5.48925 -1.63795 
v -449.932 5.48925 -1.57869 
v -450.104 5.48925 -1.63795 
v -450.104 5.47698 -1.60832 
v -449.932 5.47698 -1.60832 
v -449.887 5.35607 -0.793512 
v -450.149 5.15342 -0.581696 
v -450.149 5.35607 -0.793512 
v -449.887 5.15342 -0.581696 
v -450.149 5.39713 -0.102512 
v -449.887 4.76296 -0.0474567 
v -450.149 4.70825 -0.547327 
v -449.887 5.35607 -0.793512 
v -450.149 4.93821 -0.49714 
v -450.149 4.76296 -0.0474567 
v -450.149 5.08742 -0.00761288 
v -450.149 4.70825 -0.547327 
v -450.149 5.15342 -0.581696 
v -450.149 5.39713 -0.102512 
v -450.149 5.64673 -0.305998 
v -450.149 5.35607 -0.793512 
v -450.104 5.54851 -1.63795 
v -450.104 5.48925 -1.63795 
v -450.104 5.47698 -1.60832 
v -450.104 5.51888 -1.65022 
v -450.104 5.54851 -1.57869 
v -450.104 5.56078 -1.60832 
v -450.104 5.48925 -1.57869 
v -450.104 5.51888 -1.56642 

vn 0 1 0 
vn 0 1 0 
vn 0 0.708661 -0.708661 
vn 0 0.708661 -0.708661 
vn 0 0 -1 
vn 0 0 -1 
vn 0 -0.708661 -0.708661 
vn 0 -0.708661 -0.708661 
vn 0 -0.724409 -0.692913 
vn 0 -0.559055 -0.826772 
vn 0 -0.724409 -0.692913 
vn 0 -0.559055 -0.826772 
vn 0 -0.0787402 -1 
vn 0 -0.0787402 -1 
vn 0 0.212598 -0.976378 
vn 0 0.212598 -0.976378 
vn 0 0.708661 0.708661 
vn 0 1 0 
vn 0 1 0 
vn 0 0.708661 -0.708661 
vn 0 0.708661 0.708661 
vn 0 0.708661 -0.708661 
vn 0 0.858268 -0.511811 
vn 0 0.858268 -0.511811 
vn 0 0.858268 -0.511811 
vn 0 0.858268 -0.511811 
vn 0 0.472441 0.88189 
vn 0 -0.11811 0.992126 
vn 0 -0.992126 0.110236 
vn 1 0 0 
vn 1 0 0 
vn 1 0 0 
vn 1 0 0 
vn 1 0 0 
vn 1 0 0 
vn 1 0 0 
vn 1 0 0 
vn 1 0 0 
vn 1 0 0 
vn 1 0 0 
vn 1 0 0 
vn 1 0 0 
vn 1 0 0 
vn 1 0 0 
vn 1 0 0 
vn 0 0.629921 0.771654 
vn 0 0.472441 0.88189 
vn 0 0.472441 0.88189 
vn 0 0.629921 0.771654 
vn 0 0.0866142 1 
vn 0 0.0866142 1 
vn 0 -0.11811 0.992126 
vn 0 -0.11811 0.992126 
vn 0 0.708661 0.708661 
vn 0 1 0 
vn 0 1 0 
vn 0 0.708661 0.708661 
vn 0 0 1 
vn 0 0 1 
vn 0 -0.708661 0.708661 
vn 0 -0.708661 -0.708661 
vn 0 -0.708661 0.708661 
vn 0 -0.992126 0.110236 
vn 0 -0.992126 0.110236 
vn 0 -0.992126 0.110236 
vn 0 -0.992126 0.110236 
vn 0 -0.708661 0.708661 
vn 0 -0.708661 -0.708661 
vn 0 -0.708661 0.708661 
vn 0 -0.708661 -0.708661 
vn 0 -1 0 
vn 0 -1 0 
vn 0 -0.724409 -0.692913 
vn 0 -0.559055 -0.826772 
vn 0 -0.724409 -0.692913 
vn 0 -0.559055 -0.826772 
vn 0 0.472441 0.88189 
vn 0 -0.11811 0.992126 
vn 0 -0.992126 0.110236 
vn 1 0 0 
vn -1 0 0 
vn -1 0 0 
vn -1 0 0 
vn -1 0 0 
vn -1 0 0 
vn -1 0 0 
vn -1 0 0 
vn -1 0 0 
vn -1 0 0 
vn -1 0 0 
vn -1 0 0 
vn -1 0 0 
vn -1 0 0 
vn -1 0 0 
vn -1 0 0 
vn -1 0 0 

vt 53.9892 -42.9521 
vt 54.0108 -42.9521 
vt 53.9892 -42.9536 
vt 54.0108 -42.9536 
vt 53.9892 -42.9573 
vt 54.0108 -42.9573 
vt 53.9892 -42.961 
vt 54.0108 -42.961 
vt 53.9836 -42.9777 
vt 54.0164 -43.003 
vt 54.0164 -42.9777 
vt 53.9836 -43.003 
vt 54.0164 -43.0299 
vt 53.9836 -43.0299 
vt 54.0164 -43.0587 
vt 53.9836 -43.0587 
vt 53.9063 -43.0108 
vt 53.9026 -42.9892 
vt 53.9026 -43.0108 
vt 53.8989 -42.9892 
vt 53.9063 -42.9892 
vt 53.8989 -43.0108 
vt 54.0654 -43.0164 
vt 54.0044 -42.9836 
vt 54.0044 -43.0164 
vt 54.0654 -42.9836 
vt 53.9092 -42.9725 
vt 53.9023 -43.0518 
vt 53.9648 -43.0587 
vt 53.9346 -42.9413 
vt 53.9092 -42.9725 
vt 53.9691 -43.003 
vt 53.9956 -42.9777 
vt 53.8973 -43.0113 
vt 53.9585 -43.0299 
vt 53.9023 -43.0518 
vt 53.9648 -43.0587 
vt 54.0937 -42.961 
vt 54.0937 -42.9536 
vt 54.0922 -42.9573 
vt 54.0974 -42.9626 
vt 54.1011 -42.9536 
vt 54.0974 -42.9521 
vt 54.1011 -42.961 
vt 54.1027 -42.9573 
vt 53.9836 -42.9413 
vt 53.9836 -42.9725 
vt 54.0164 -42.9725 
vt 54.0164 -42.9413 
vt 54.0164 -43.0113 
vt 53.9836 -43.0113 
vt 54.0164 -43.0518 
vt 53.9836 -43.0518 
vt 53.9892 -42.9536 
vt 54.0108 -42.9521 
vt 53.9892 -42.9521 
vt 54.0108 -42.9536 
vt 53.9892 -42.9573 
vt 54.0108 -42.9573 
vt 53.9892 -42.961 
vt 54.0108 -42.961 
vt 54.0108 -42.961 
vt 53.9023 -43.0164 
vt 53.9648 -43.0164 
vt 53.9648 -42.9836 
vt 53.9023 -42.9836 
vt 54.0937 -43.0108 
vt 54.1011 -42.9892 
vt 54.0937 -42.9892 
vt 54.1011 -43.0108 
vt 54.0974 -43.0108 
vt 54.0974 -42.9892 
vt 53.9956 -42.9836 
vt 53.9691 -43.0164 
vt 53.9956 -43.0164 
vt 53.9691 -42.9836 
vt 54.0908 -42.9725 
vt 54.0977 -43.0518 
vt 54.0352 -43.0587 
vt 54.0044 -42.9777 
vt 54.0415 -43.0299 
vt 54.0977 -43.0518 
vt 54.1027 -43.0113 
vt 54.0352 -43.0587 
vt 54.0309 -43.003 
vt 54.0908 -42.9725 
vt 54.0654 -42.9413 
vt 54.0044 -42.9777 
vt 53.8989 -42.9536 
vt 53.8989 -42.961 
vt 53.9026 -42.9626 
vt 53.8973 -42.9573 
vt 53.9063 -42.9536 
vt 53.9026 -42.9521 
vt 53.9063 -42.961 
vt 53.9078 -42.9573 

usemtl Meshpart5Mtl

f 483/483/483 482/482/482 481/481/481 
f 482/482/482 483/483/483 484/484/484 
f 485/485/485 484/484/484 483/483/483 
f 484/484/484 485/485/485 486/486/486 
f 490/490/490 491/491/491 488/488/488 
f 491/491/491 490/490/490 492/492/492 
f 491/491/491 492/492/492 493/493/493 
f 493/493/493 492/492/492 494/494/494 
f 495/495/495 496/496/496 497/497/497 
f 498/498/498 497/497/497 496/496/496 
f 496/496/496 495/495/495 499/499/499 
f 497/497/497 498/498/498 500/500/500 
f 501/501/501 502/502/502 503/503/503 
f 502/502/502 501/501/501 504/504/504 
f 508/508/508 509/509/509 510/510/510 
f 508/508/508 510/510/510 511/511/511 
f 512/512/512 510/510/510 509/509/509 
f 510/510/510 512/512/512 513/513/513 
f 514/514/514 513/513/513 512/512/512 
f 513/513/513 514/514/514 515/515/515 
f 516/516/516 517/517/517 518/518/518 
f 519/519/519 517/517/517 516/516/516 
f 519/519/519 520/520/520 517/517/517 
f 517/517/517 520/520/520 521/521/521 
f 522/522/522 520/520/520 519/519/519 
f 520/520/520 522/522/522 523/523/523 
f 524/524/524 525/525/525 526/526/526 
f 524/524/524 526/526/526 527/527/527 
f 525/525/525 528/528/528 526/526/526 
f 525/525/525 529/529/529 528/528/528 
f 529/529/529 530/530/530 528/528/528 
f 529/529/529 531/531/531 530/530/530 
f 536/536/536 535/535/535 532/532/532 
f 535/535/535 536/536/536 537/537/537 
f 538/538/538 537/537/537 536/536/536 
f 537/537/537 538/538/538 540/540/540 
f 541/541/541 542/542/542 543/543/543 
f 541/541/541 543/543/543 544/544/544 
f 549/549/549 547/547/547 545/545/545 
f 550/550/550 548/548/548 546/546/546 
f 547/547/547 549/549/549 550/550/550 
f 548/548/548 550/550/550 549/549/549 
f 551/551/551 552/552/552 553/553/553 
f 552/552/552 551/551/551 554/554/554 
f 559/559/559 560/560/560 561/561/561 
f 560/560/560 559/559/559 562/562/562 
f 561/561/561 563/563/563 559/559/559 
f 563/563/563 561/561/561 564/564/564 
f 565/565/565 563/563/563 564/564/564 
f 563/563/563 565/565/565 566/566/566 
f 567/567/567 568/568/568 569/569/569 
f 568/568/568 567/567/567 570/570/570 
f 571/571/571 567/567/567 569/569/569 
f 567/567/567 571/571/571 572/572/572 
f 571/571/571 569/569/569 573/573/573 
f 571/571/571 573/573/573 574/574/574 

g Meshpart8

v -450.088 5.63356 -1.58485 
v -449.948 5.63356 -1.58485 
v -450.088 5.5882 -1.58485 
v -449.948 5.5882 -1.58485 
v -450.066 6.05769 -1.02734 
v -449.795 5.81379 -0.984987 
v -449.945 5.99805 -1.08472 
v -450.092 5.60551 -1.08472 
v -450.092 5.99805 -1.08472 
v -449.945 5.60551 -1.08472 
v -449.945 5.58877 -1.65206 
v -450.092 5.58877 -1.65206 
v -449.945 5.52677 -1.68535 
v -450.092 5.52677 -1.68535 
v -450.092 5.36663 -1.68535 
v -449.945 5.36663 -1.68535 
v -449.795 5.81379 -1.13734 
v -450.018 5.59018 -0.984987 
v -450.018 5.59018 -1.13734 
v -450.018 6.03739 -0.984987 
v -450.242 5.81379 -1.13734 
v -449.971 6.05769 -1.09916 
v -450.084 6.00155 -1.11287 
v -450.066 6.05769 -1.09916 
v -449.953 6.00155 -1.11287 
v -450.176 5.65567 -1.13734 
v -449.86 5.65567 -1.13734 
v -450.018 5.59018 -1.13734 
v -450.176 5.9719 -1.13734 
v -450.242 5.81379 -1.13734 
v -449.86 5.9719 -1.13734 
v -449.795 5.81379 -1.13734 
v -450.018 6.03739 -1.13734 
v -450.066 6.05769 -1.09916 
v -450.066 6.05769 -1.02734 
v -449.971 6.05769 -1.02734 
v -449.971 6.05769 -1.09916 
v -450.102 5.82271 -0.666765 
v -449.945 5.94346 -0.792889 
v -450.092 5.94346 -0.792889 
v -449.935 5.82271 -0.666765 
v -449.945 5.99805 -0.918269 
v -450.114 5.71753 -0.546509 
v -450.092 5.99805 -0.918269 
v -450.092 5.99805 -1.08472 
v -449.945 5.99805 -1.08472 
v -449.922 5.71753 -0.546509 
v -450.127 5.61813 -0.284251 
v -449.909 5.61813 -0.284251 
v -450.092 5.60551 -1.08472 
v -449.945 5.60551 -1.08472 
v -449.945 5.60551 -1.59047 
v -450.092 5.60551 -1.59047 
v -449.945 5.58877 -1.65206 
v -450.092 5.58877 -1.65206 
v -449.945 5.52677 -1.68535 
v -449.86 5.9719 -1.13734 
v -449.86 5.9719 -0.984987 
v -450.018 6.03739 -1.13734 
v -450.018 6.03739 -0.984987 
v -450.176 5.9719 -1.13734 
v -450.176 5.9719 -0.984987 
v -450.088 5.63356 -1.58485 
v -450.088 5.63356 -1.07177 
v -449.948 5.63356 -1.07177 
v -449.948 5.63356 -1.58485 
v -450.066 6.05769 -1.02734 
v -450.102 5.82271 -0.666765 
v -450.114 5.71753 -0.546509 
v -449.953 6.00155 -1.01363 
v -449.953 6.00155 -1.11287 
v -449.971 6.05769 -1.02734 
v -449.971 6.05769 -1.09916 
v -449.935 5.82271 -0.666765 
v -449.945 5.60551 -1.08472 
v -449.945 5.94346 -0.792889 
v -449.945 5.99805 -0.918269 
v -449.945 5.99805 -1.08472 
v -449.909 5.36663 -0.749867 
v -449.922 5.71753 -0.546509 
v -449.909 5.61813 -0.284251 
v -449.945 5.36663 -1.08472 
v -449.945 5.60551 -1.59047 
v -449.945 5.36663 -1.68535 
v -449.945 5.52677 -1.68535 
v -449.945 5.58877 -1.65206 
v -449.86 5.65567 -0.984987 
v -449.86 5.65567 -1.13734 
v -449.795 5.81379 -1.13734 
v -449.795 5.81379 -0.984987 
v -450.018 5.59018 -1.13734 
v -449.86 5.9719 -1.13734 
v -449.86 5.9719 -0.984987 
v -449.948 5.63356 -1.58485 
v -449.948 5.63356 -1.07177 
v -449.948 5.5882 -1.58485 
v -449.948 5.5882 -1.07177 
v -450.066 6.05769 -1.02734 
v -450.084 6.00155 -1.01363 
v -449.971 6.05769 -1.02734 
v -450.066 6.05769 -1.02734 
v -449.953 6.00155 -1.01363 
v -450.176 5.65567 -0.984987 
v -450.176 5.9719 -0.984987 
v -450.242 5.81379 -0.984987 
v -449.86 5.65567 -0.984987 
v -450.018 5.59018 -0.984987 
v -449.86 5.9719 -0.984987 
v -449.795 5.81379 -0.984987 
v -450.018 6.03739 -0.984987 
v -450.127 5.36663 -0.749867 
v -450.092 5.36663 -1.08472 
v -449.945 5.36663 -1.08472 
v -449.909 5.36663 -0.749867 
v -450.092 5.36663 -1.68535 
v -449.945 5.36663 -1.68535 
v -449.86 5.65567 -0.984987 
v -449.86 5.65567 -1.13734 
v -450.018 5.59018 -0.984987 
v -450.018 5.59018 -1.13734 
v -450.176 5.65567 -0.984987 
v -450.176 5.65567 -1.13734 
v -450.066 6.05769 -1.02734 
v -450.102 5.82271 -0.666765 
v -450.114 5.71753 -0.546509 
v -450.084 6.00155 -1.11287 
v -450.066 6.05769 -1.02734 
v -450.066 6.05769 -1.09916 
v -450.084 6.00155 -1.01363 
v -449.945 5.99805 -1.08472 
v -450.092 5.60551 -1.08472 
v -449.945 5.52677 -1.68535 
v -450.092 5.60551 -1.08472 
v -450.092 5.99805 -0.918269 
v -450.092 5.99805 -1.08472 
v -450.092 5.94346 -0.792889 
v -450.102 5.82271 -0.666765 
v -450.127 5.36663 -0.749867 
v -450.114 5.71753 -0.546509 
v -450.127 5.61813 -0.284251 
v -450.092 5.36663 -1.08472 
v -450.092 5.60551 -1.59047 
v -450.092 5.36663 -1.68535 
v -450.092 5.52677 -1.68535 
v -450.092 5.58877 -1.65206 
v -450.018 5.59018 -1.13734 
v -450.176 5.65567 -0.984987 
v -450.176 5.65567 -1.13734 
v -450.242 5.81379 -0.984987 
v -450.242 5.81379 -1.13734 
v -450.176 5.9719 -1.13734 
v -450.176 5.9719 -0.984987 
v -450.088 5.63356 -1.58485 
v -450.088 5.5882 -1.07177 
v -450.088 5.63356 -1.07177 
v -450.088 5.5882 -1.58485 

vn 0 0 -1 
vn 0 0 -1 
vn 0 0 -1 
vn 0 0 -1 
vn 0 1 0 
vn 0 0 1 
vn 0 0 -1 
vn 0 0.708661 -0.708661 
vn 0 0 -1 
vn 0 0.708661 -0.708661 
vn 0 0.779528 -0.622047 
vn 0 0.779528 -0.622047 
vn 0 0.244094 -0.968504 
vn 0 0.244094 -0.968504 
vn 0 0 -1 
vn 0 0 -1 
vn 1 0 0 
vn 0 -1 0 
vn 0 -1 0 
vn 0 1 0 
vn -1 0 0 
vn 0 0.23622 -0.968504 
vn 0 0.23622 -0.968504 
vn 0 0.23622 -0.968504 
vn 0 0.23622 -0.968504 
vn 0 0 -1 
vn 0 0 -1 
vn 0 0 -1 
vn 0 0 -1 
vn 0 0 -1 
vn 0 0 -1 
vn 0 0 -1 
vn 0 0 -1 
vn 0 1 0 
vn 0 1 0 
vn 0 1 0 
vn 0 1 0 
vn 0 0.740157 0.677165 
vn 0 0.834646 0.559055 
vn 0 0.834646 0.559055 
vn 0 0.740157 0.677165 
vn 0 0.976378 0.204724 
vn 0 0.858268 0.511811 
vn 0 0.976378 0.204724 
vn 0 1 0 
vn 0 1 0 
vn 0 0.858268 0.511811 
vn 0 0.937008 0.354331 
vn 0 0.937008 0.354331 
vn 0 0.708661 -0.708661 
vn 0 0.708661 -0.708661 
vn 0 0.992126 -0.133858 
vn 0 0.992126 -0.133858 
vn 0 0.779528 -0.622047 
vn 0 0.779528 -0.622047 
vn 0 0.244094 -0.968504 
vn 0.708661 0.708661 0 
vn 0.708661 0.708661 0 
vn 0 1 0 
vn 0 1 0 
vn -0.708661 0.708661 0 
vn -0.708661 0.708661 0 
vn 0 1 0 
vn 0 1 0 
vn 0 1 0 
vn 0 1 0 
vn 0 1 0 
vn 0 0.740157 0.677165 
vn 0 0.858268 0.511811 
vn 0.952756 0.307087 0 
vn 0.952756 0.307087 0 
vn 0.952756 0.307087 0 
vn 0.952756 0.307087 0 
vn 1 0.0393701 -0.0393701 
vn 1 0.023622 -0.0393701 
vn 1 0.015748 -0.015748 
vn 1 0.015748 -0.015748 
vn 1 0.015748 -0.015748 
vn 1 0.0472441 -0.0629921 
vn 1 0.0629921 -0.0393701 
vn 1 0.0551181 -0.0314961 
vn 1 0.023622 -0.0393701 
vn 1 0 0 
vn 1 0 0 
vn 1 0 0 
vn 1 0 0 
vn 0.708661 -0.708661 0 
vn 0.708661 -0.708661 0 
vn 1 0 0 
vn 1 0 0 
vn 0 -1 0 
vn 0.708661 0.708661 0 
vn 0.708661 0.708661 0 
vn 1 0 0 
vn 1 0 0 
vn 1 0 0 
vn 1 0 0 
vn 0 1 0 
vn 0 0.23622 0.968504 
vn 0 0.23622 0.968504 
vn 0 0.23622 0.968504 
vn 0 0.23622 0.968504 
vn 0 0 1 
vn 0 0 1 
vn 0 0 1 
vn 0 0 1 
vn 0 0 1 
vn 0 0 1 
vn 0 0 1 
vn 0 0 1 
vn 0 -1 0 
vn 0 -1 0 
vn 0 -1 0 
vn 0 -1 0 
vn 0 -1 0 
vn 0 -1 0 
vn 0.708661 -0.708661 0 
vn 0.708661 -0.708661 0 
vn 0 -1 0 
vn 0 -1 0 
vn -0.708661 -0.708661 0 
vn -0.708661 -0.708661 0 
vn 0 1 0 
vn 0 0.740157 0.677165 
vn 0 0.858268 0.511811 
vn -0.952756 0.307087 0 
vn -0.952756 0.307087 0 
vn -0.952756 0.307087 0 
vn -0.952756 0.307087 0 
vn 0 0 -1 
vn 0 0.708661 -0.708661 
vn 0 0.244094 -0.968504 
vn -1 0.023622 -0.0393701 
vn -1 0.015748 -0.015748 
vn -1 0.015748 -0.015748 
vn -1 0.015748 -0.015748 
vn -1 0.0393701 -0.0393701 
vn -1 0.0472441 -0.0629921 
vn -1 0.0629921 -0.0393701 
vn -1 0.0551181 -0.0314961 
vn -1 0.023622 -0.0393701 
vn -1 0 0 
vn -1 0 0 
vn -1 0 0 
vn -1 0 0 
vn 0 -1 0 
vn -0.708661 -0.708661 0 
vn -0.708661 -0.708661 0 
vn -1 0 0 
vn -1 0 0 
vn -0.708661 0.708661 0 
vn -0.708661 0.708661 0 
vn -1 0 0 
vn -1 0 0 
vn -1 0 0 
vn -1 0 0 

vt 10.0087 -3.00982 
vt 9.99125 -3.00982 
vt 10.0087 -3.01549 
vt 9.99125 -3.01549 
vt 10.0059 -2.95681 
vt 9.97205 -2.9873 
vt 9.9908 -2.96426 
vt 10.0092 -3.01333 
vt 10.0092 -2.96426 
vt 9.9908 -3.01333 
vt 9.9908 -3.01542 
vt 10.0092 -3.01542 
vt 9.9908 -3.02317 
vt 10.0092 -3.02317 
vt 10.0092 -3.04319 
vt 9.9908 -3.04319 
vt 9.97205 -2.9873 
vt 10 -3.01525 
vt 10 -3.01525 
vt 10 -2.95935 
vt 10.028 -2.9873 
vt 9.99409 -2.95681 
vt 10.0082 -2.96383 
vt 10.0059 -2.95681 
vt 9.99184 -2.96383 
vt 10.0198 -3.00706 
vt 9.98024 -3.00706 
vt 10 -3.01525 
vt 10.0198 -2.96753 
vt 10.028 -2.9873 
vt 9.98024 -2.96753 
vt 9.97205 -2.9873 
vt 10 -2.95935 
vt 9.98571 -3.00591 
vt 9.99468 -3.00591 
vt 9.99468 -2.99409 
vt 9.98571 -2.99409 
vt 10.0398 -3.01047 
vt 10.024 -2.9908 
vt 10.024 -3.0092 
vt 10.0398 -2.98953 
vt 10.0083 -2.9908 
vt 10.0548 -3.01197 
vt 10.0083 -3.0092 
vt 9.98751 -3.0092 
vt 9.98751 -2.9908 
vt 10.0548 -2.98803 
vt 10.0876 -3.01361 
vt 10.0876 -2.98639 
vt 9.98751 -3.0092 
vt 9.98751 -2.9908 
vt 9.92429 -2.9908 
vt 9.92429 -3.0092 
vt 9.91659 -2.9908 
vt 9.91659 -3.0092 
vt 9.91243 -2.9908 
vt 9.98093 -2.98024 
vt 9.99998 -2.98024 
vt 9.98093 -3 
vt 9.99998 -3 
vt 9.98093 -3.01976 
vt 9.99998 -3.01976 
vt 9.92499 -3.00875 
vt 9.98913 -3.00875 
vt 9.98913 -2.99125 
vt 9.92499 -2.99125 
vt 10.0053 -2.95681 
vt 9.96025 -2.98618 
vt 9.94521 -2.99933 
vt 10.0036 -2.96383 
vt 10.016 -2.96383 
vt 10.0053 -2.95681 
vt 10.0143 -2.95681 
vt 9.96025 -2.98618 
vt 10.0125 -3.01333 
vt 9.97601 -2.97109 
vt 9.99168 -2.96426 
vt 10.0125 -2.96426 
vt 9.97063 -3.04319 
vt 9.94521 -2.99933 
vt 9.91243 -3.01175 
vt 10.0125 -3.04319 
vt 10.0757 -3.01333 
vt 10.0876 -3.04319 
vt 10.0876 -3.02317 
vt 10.0834 -3.01542 
vt 10 -3.00706 
vt 10.0191 -3.00706 
vt 10.0191 -2.9873 
vt 10 -2.9873 
vt 10.0191 -3.01525 
vt 10.0191 -2.96753 
vt 10 -2.96753 
vt 10.075 -3.00982 
vt 10.0109 -3.00982 
vt 10.075 -3.01549 
vt 10.0109 -3.01549 
vt 9.99409 -2.95681 
vt 9.99184 -2.96383 
vt 10.0059 -2.95681 
vt 9.99409 -2.95681 
vt 10.0082 -2.96383 
vt 9.98024 -3.00706 
vt 9.98024 -2.96753 
vt 9.97205 -2.9873 
vt 10.0198 -3.00706 
vt 10 -3.01525 
vt 10.0198 -2.96753 
vt 10.028 -2.9873 
vt 10 -2.95935 
vt 9.97063 -3.01361 
vt 10.0125 -3.0092 
vt 10.0125 -2.9908 
vt 9.97063 -2.98639 
vt 10.0876 -3.0092 
vt 10.0876 -2.9908 
vt 10 -2.98024 
vt 10.0191 -2.98024 
vt 10 -3 
vt 10.0191 -3 
vt 10 -3.01976 
vt 10.0191 -3.01976 
vt 9.99468 -2.95681 
vt 10.0398 -2.98618 
vt 10.0548 -2.99933 
vt 9.98399 -2.96383 
vt 9.99468 -2.95681 
vt 9.98571 -2.95681 
vt 9.9964 -2.96383 
vt 9.98751 -2.96426 
vt 9.98751 -3.01333 
vt 9.91243 -3.02317 
vt 9.98751 -3.01333 
vt 10.0083 -2.96426 
vt 9.98751 -2.96426 
vt 10.024 -2.97109 
vt 10.0398 -2.98618 
vt 10.0294 -3.04319 
vt 10.0548 -2.99933 
vt 10.0876 -3.01175 
vt 9.98751 -3.04319 
vt 9.92429 -3.01333 
vt 9.91243 -3.04319 
vt 9.91243 -3.02317 
vt 9.91659 -3.01542 
vt 9.98093 -3.01525 
vt 9.99998 -3.00706 
vt 9.98093 -3.00706 
vt 9.99998 -2.9873 
vt 9.98093 -2.9873 
vt 9.98093 -2.96753 
vt 9.99998 -2.96753 
vt 9.92499 -3.00982 
vt 9.98913 -3.01549 
vt 9.98913 -3.00982 
vt 9.92499 -3.01549 

usemtl Meshpart6Mtl

f 575/575/575 576/576/576 577/577/577 
f 577/577/577 576/576/576 578/578/578 
f 581/581/581 582/582/582 583/583/583 
f 582/582/582 581/581/581 584/584/584 
f 587/587/587 586/586/586 585/585/585 
f 586/586/586 587/587/587 588/588/588 
f 587/587/587 589/589/589 588/588/588 
f 589/589/589 587/587/587 590/590/590 
f 596/596/596 597/597/597 598/598/598 
f 597/597/597 596/596/596 599/599/599 
f 600/600/600 601/601/601 602/602/602 
f 601/601/601 600/600/600 603/603/603 
f 603/603/603 600/600/600 604/604/604 
f 603/603/603 605/605/605 601/601/601 
f 601/601/601 605/605/605 606/606/606 
f 605/605/605 603/603/603 607/607/607 
f 608/608/608 609/609/609 610/610/610 
f 608/608/608 610/610/610 611/611/611 
f 612/612/612 613/613/613 614/614/614 
f 613/613/613 612/612/612 615/615/615 
f 616/616/616 614/614/614 613/613/613 
f 617/617/617 615/615/615 612/612/612 
f 614/614/614 616/616/616 618/618/618 
f 619/619/619 618/618/618 616/616/616 
f 619/619/619 616/616/616 620/620/620 
f 615/615/615 617/617/617 621/621/621 
f 622/622/622 621/621/621 617/617/617 
f 621/621/621 622/622/622 623/623/623 
f 625/625/625 626/626/626 624/624/624 
f 627/627/627 624/624/624 626/626/626 
f 628/628/628 627/627/627 626/626/626 
f 627/627/627 628/628/628 629/629/629 
f 633/633/633 632/632/632 631/631/631 
f 634/634/634 632/632/632 633/633/633 
f 635/635/635 634/634/634 633/633/633 
f 636/636/636 634/634/634 635/635/635 
f 637/637/637 638/638/638 639/639/639 
f 637/637/637 639/639/639 640/640/640 
f 644/644/644 645/645/645 646/646/646 
f 645/645/645 647/647/647 646/646/646 
f 648/648/648 649/649/649 650/650/650 
f 649/649/649 651/651/651 650/650/650 
f 649/649/649 652/652/652 651/651/651 
f 653/653/653 649/649/649 648/648/648 
f 654/654/654 653/653/653 648/648/648 
f 653/653/653 654/654/654 655/655/655 
f 649/649/649 653/653/653 656/656/656 
f 656/656/656 657/657/657 649/649/649 
f 656/656/656 658/658/658 657/657/657 
f 657/657/657 658/658/658 659/659/659 
f 657/657/657 659/659/659 660/660/660 
f 661/661/661 662/662/662 663/663/663 
f 661/661/661 663/663/663 664/664/664 
f 664/664/664 663/663/663 666/666/666 
f 664/664/664 666/666/666 667/667/667 
f 668/668/668 669/669/669 670/670/670 
f 671/671/671 670/670/670 669/669/669 
f 673/673/673 674/674/674 675/675/675 
f 674/674/674 673/673/673 676/676/676 
f 677/677/677 678/678/678 679/679/679 
f 678/678/678 677/677/677 680/680/680 
f 680/680/680 677/677/677 681/681/681 
f 678/678/678 680/680/680 682/682/682 
f 682/682/682 680/680/680 683/683/683 
f 678/678/678 682/682/682 684/684/684 
f 685/685/685 686/686/686 687/687/687 
f 685/685/685 687/687/687 688/688/688 
f 689/689/689 687/687/687 686/686/686 
f 687/687/687 689/689/689 690/690/690 
f 693/693/693 692/692/692 691/691/691 
f 693/693/693 694/694/694 692/692/692 
f 695/695/695 694/694/694 693/693/693 
f 695/695/695 696/696/696 694/694/694 
f 700/700/700 701/701/701 702/702/702 
f 701/701/701 700/700/700 703/703/703 
f 707/707/707 708/708/708 709/709/709 
f 708/708/708 707/707/707 710/710/710 
f 710/710/710 707/707/707 711/711/711 
f 707/707/707 712/712/712 711/711/711 
f 711/711/711 712/712/712 713/713/713 
f 713/713/713 712/712/712 714/714/714 
f 712/712/712 707/707/707 715/715/715 
f 716/716/716 715/715/715 707/707/707 
f 715/715/715 716/716/716 717/717/717 
f 716/716/716 718/718/718 717/717/717 
f 718/718/718 716/716/716 719/719/719 
f 723/723/723 722/722/722 721/721/721 
f 723/723/723 724/724/724 722/722/722 
f 726/726/726 724/724/724 723/723/723 
f 726/726/726 725/725/725 724/724/724 
f 727/727/727 728/728/728 729/729/729 
f 728/728/728 727/727/727 730/730/730 

g Meshpart9

v -450.228 5.53199 -1.42767 
v -450.193 5.54401 -1.42178 
v -450.226 5.53025 -1.4335 
v -450.193 5.54401 -1.43357 
v -450.242 5.49719 -1.42767 
v -450.193 5.53809 -1.4358 
v -450.222 5.52611 -1.43579 
v -450.194 5.5324 -1.43336 
v -450.24 5.49719 -1.4335 
v -450.218 5.52212 -1.4333 
v -450.217 5.52052 -1.42767 
v -450.194 5.53002 -1.42767 
v -450.234 5.49719 -1.43579 
v -450.229 5.49719 -1.4333 
v -450.226 5.49719 -1.42767 
v -450.217 5.47386 -1.42767 
v -450.218 5.47226 -1.4333 
v -450.222 5.46827 -1.43579 
v -450.194 5.46199 -1.43336 
v -450.194 5.46436 -1.42767 
v -450.193 5.45629 -1.4358 
v -450.226 5.46413 -1.4335 
v -450.193 5.45037 -1.43357 
v -450.226 5.53025 -1.42184 
v -450.192 5.54657 -1.42767 
v -450.228 5.53199 -1.42767 
v -450.193 5.54401 -1.42178 
v -450.226 5.53025 -1.4335 
v -450.193 5.54401 -1.43357 
v -450.194 5.5324 -1.43336 
v -450.217 5.47386 -1.42767 
v -450.218 5.47226 -1.4333 
v -450.222 5.46827 -1.43579 
v -450.194 5.46199 -1.43336 
v -450.194 5.46436 -1.42767 
v -450.194 5.46199 -1.42199 
v -450.193 5.45037 -1.43357 
v -450.222 5.46827 -1.41955 
v -450.218 5.47226 -1.42205 
v -450.222 5.52611 -1.41955 
v -450.218 5.52212 -1.42205 
v -450.222 5.52611 -1.43579 
v -450.218 5.52212 -1.4333 
v -450.217 5.52052 -1.42767 
v -450.234 5.49719 -1.43579 
v -450.229 5.49719 -1.4333 
v -450.226 5.49719 -1.42767 
v -450.229 5.49719 -1.42205 
v -450.217 5.47386 -1.42767 
v -450.218 5.47226 -1.4333 
v -450.222 5.46827 -1.43579 
v -450.222 5.46827 -1.41955 
v -450.234 5.49719 -1.41955 
v -450.218 5.47226 -1.42205 
v -450.226 5.53025 -1.42184 
v -450.228 5.53199 -1.42767 
v -450.193 5.54401 -1.42178 
v -450.193 5.53809 -1.41955 
v -450.242 5.49719 -1.42767 
v -450.222 5.52611 -1.41955 
v -450.194 5.5324 -1.42199 
v -450.24 5.49719 -1.42184 
v -450.218 5.52212 -1.42205 
v -450.217 5.52052 -1.42767 
v -450.194 5.53002 -1.42767 
v -450.226 5.49719 -1.42767 
v -450.229 5.49719 -1.42205 
v -450.217 5.47386 -1.42767 
v -450.194 5.46436 -1.42767 
v -450.194 5.46199 -1.42199 
v -450.193 5.45037 -1.43357 
v -450.228 5.46239 -1.42767 
v -450.226 5.46413 -1.42184 
v -450.193 5.45037 -1.42178 
v -450.193 5.45629 -1.41955 
v -450.222 5.46827 -1.41955 
v -450.234 5.49719 -1.41955 
v -450.218 5.47226 -1.42205 
v -450.193 5.54401 -1.42178 
v -450.222 5.52611 -1.41955 
v -450.194 5.5324 -1.42199 
v -450.218 5.52212 -1.42205 
v -450.222 5.52611 -1.43579 
v -450.194 5.5324 -1.43336 
v -450.218 5.52212 -1.4333 
v -450.217 5.52052 -1.42767 
v -450.194 5.53002 -1.42767 
v -450.194 5.46199 -1.42199 
v -450.226 5.46413 -1.4335 
v -450.193 5.45037 -1.43357 
v -450.192 5.44781 -1.42767 
v -450.228 5.46239 -1.42767 
v -450.226 5.46413 -1.42184 
v -450.193 5.45037 -1.42178 
v -450.226 5.53025 -1.42184 
v -450.228 5.53199 -1.42767 
v -450.226 5.53025 -1.4335 
v -450.242 5.49719 -1.42767 
v -450.24 5.49719 -1.42184 
v -450.24 5.49719 -1.4335 
v -450.226 5.46413 -1.4335 
v -450.228 5.46239 -1.42767 
v -450.226 5.46413 -1.42184 

vn -0.708661 0.708661 0 
vn -0.299213 0.716535 0.629921 
vn -0.519685 0.527559 -0.669291 
vn -0.299213 0.716535 -0.629921 
vn -1 0 0 
vn -0.0393701 0.102362 -0.992126 
vn -0.0551181 0.0551181 -1 
vn 0.267717 -0.629921 -0.724409 
vn -0.740157 0 -0.669291 
vn 0.472441 -0.472441 -0.740157 
vn 0.708661 -0.700787 0 
vn 0.385827 -0.92126 0 
vn -0.0708661 0 -1 
vn 0.669291 0 -0.748031 
vn 1 0 0 
vn 0.708661 0.708661 0 
vn 0.472441 0.472441 -0.740157 
vn -0.0551181 -0.0551181 -1 
vn 0.267717 0.629921 -0.732283 
vn 0.385827 0.92126 0 
vn -0.0393701 -0.102362 -0.992126 
vn -0.519685 -0.527559 -0.669291 
vn -0.299213 -0.716535 -0.629921 
vn -0.519685 0.527559 0.669291 
vn -0.377953 0.929134 0 
vn -0.708661 0.708661 0 
vn -0.299213 0.716535 0.629921 
vn -0.519685 0.527559 -0.669291 
vn -0.299213 0.716535 -0.629921 
vn 0.267717 -0.629921 -0.724409 
vn 0.708661 0.708661 0 
vn 0.472441 0.472441 -0.740157 
vn -0.0551181 -0.0551181 -1 
vn 0.267717 0.629921 -0.732283 
vn 0.385827 0.92126 0 
vn 0.267717 0.629921 0.732283 
vn -0.299213 -0.716535 -0.629921 
vn -0.0551181 -0.0551181 1 
vn 0.472441 0.472441 0.740157 
vn -0.0551181 0.0551181 1 
vn 0.472441 -0.472441 0.740157 
vn -0.0551181 0.0551181 -1 
vn 0.472441 -0.472441 -0.740157 
vn 0.708661 -0.700787 0 
vn -0.0708661 0 -1 
vn 0.669291 0 -0.748031 
vn 1 0 0 
vn 0.669291 0 0.748031 
vn 0.708661 0.708661 0 
vn 0.472441 0.472441 -0.740157 
vn -0.0551181 -0.0551181 -1 
vn -0.0551181 -0.0551181 1 
vn -0.0708661 0 1 
vn 0.472441 0.472441 0.740157 
vn -0.519685 0.527559 0.669291 
vn -0.708661 0.708661 0 
vn -0.299213 0.716535 0.629921 
vn -0.0393701 0.102362 0.992126 
vn -1 0 0 
vn -0.0551181 0.0551181 1 
vn 0.267717 -0.629921 0.732283 
vn -0.740157 0 0.669291 
vn 0.472441 -0.472441 0.740157 
vn 0.708661 -0.700787 0 
vn 0.385827 -0.92126 0 
vn 1 0 0 
vn 0.669291 0 0.748031 
vn 0.708661 0.708661 0 
vn 0.385827 0.92126 0 
vn 0.267717 0.629921 0.732283 
vn -0.299213 -0.716535 -0.629921 
vn -0.708661 -0.708661 0 
vn -0.519685 -0.527559 0.669291 
vn -0.299213 -0.716535 0.629921 
vn -0.0393701 -0.102362 0.992126 
vn -0.0551181 -0.0551181 1 
vn -0.0708661 0 1 
vn 0.472441 0.472441 0.740157 
vn -0.299213 0.716535 0.629921 
vn -0.0551181 0.0551181 1 
vn 0.267717 -0.629921 0.732283 
vn 0.472441 -0.472441 0.740157 
vn -0.0551181 0.0551181 -1 
vn 0.267717 -0.629921 -0.724409 
vn 0.472441 -0.472441 -0.740157 
vn 0.708661 -0.700787 0 
vn 0.385827 -0.92126 0 
vn 0.267717 0.629921 0.732283 
vn -0.519685 -0.527559 -0.669291 
vn -0.299213 -0.716535 -0.629921 
vn -0.377953 -0.929134 0 
vn -0.708661 -0.708661 0 
vn -0.519685 -0.527559 0.669291 
vn -0.299213 -0.716535 0.629921 
vn -0.519685 0.527559 0.669291 
vn -0.708661 0.708661 0 
vn -0.519685 0.527559 -0.669291 
vn -1 0 0 
vn -0.740157 0 0.669291 
vn -0.740157 0 -0.669291 
vn -0.519685 -0.527559 -0.669291 
vn -0.708661 -0.708661 0 
vn -0.519685 -0.527559 0.669291 

vt 20.0013 -60.9957 
vt 19.9969 -60.9941 
vt 20.0011 -60.9959 
vt 19.9969 -60.9941 
vt 20.0031 -61 
vt 19.997 -60.9949 
vt 20.0006 -60.9964 
vt 19.997 -60.9956 
vt 20.0028 -61 
vt 20.0001 -60.9969 
vt 19.9999 -60.9971 
vt 19.9971 -60.9959 
vt 20.0021 -61 
vt 20.0014 -61 
vt 20.0011 -61 
vt 19.9999 -61.0029 
vt 20.0001 -61.0031 
vt 20.0006 -61.0036 
vt 19.997 -61.0044 
vt 19.9971 -61.0041 
vt 19.997 -61.0051 
vt 20.0011 -61.0041 
vt 19.9969 -61.0059 
vt 20.0007 -61.0011 
vt 20 -60.9969 
vt 20 -61.0013 
vt 20.0007 -60.9969 
vt 19.9993 -61.0011 
vt 19.9993 -60.9969 
vt 19.9993 -60.997 
vt 20 -60.9999 
vt 19.9993 -61.0001 
vt 19.999 -61.0006 
vt 19.9993 -60.997 
vt 20 -60.9971 
vt 20.0007 -60.997 
vt 19.9993 -60.9969 
vt 20.001 -61.0006 
vt 20.0007 -61.0001 
vt 19.999 -60.9964 
vt 19.9993 -60.9969 
vt 20.001 -60.9964 
vt 20.0007 -60.9969 
vt 20 -60.9971 
vt 20.001 -61 
vt 20.0007 -61 
vt 20 -61 
vt 19.9993 -61 
vt 20 -61.0029 
vt 20.0007 -61.0031 
vt 20.001 -61.0036 
vt 19.999 -61.0036 
vt 19.999 -61 
vt 19.9993 -61.0031 
vt 19.9989 -60.9959 
vt 19.9987 -60.9957 
vt 20.0031 -60.9941 
vt 20.003 -60.9949 
vt 19.9969 -61 
vt 19.9994 -60.9964 
vt 20.003 -60.9956 
vt 19.9972 -61 
vt 19.9999 -60.9969 
vt 20.0001 -60.9971 
vt 20.0029 -60.9959 
vt 19.9989 -61 
vt 19.9986 -61 
vt 20.0001 -61.0029 
vt 20.0029 -61.0041 
vt 20.003 -61.0044 
vt 20.0031 -61.0059 
vt 19.9987 -61.0043 
vt 19.9989 -61.0041 
vt 20.0031 -61.0059 
vt 20.003 -61.0051 
vt 19.9994 -61.0036 
vt 19.9979 -61 
vt 19.9999 -61.0031 
vt 19.9993 -60.9969 
vt 19.999 -61.0006 
vt 19.9993 -60.997 
vt 19.9993 -61.0001 
vt 20.001 -61.0006 
vt 20.0007 -60.997 
vt 20.0007 -61.0001 
vt 20 -60.9999 
vt 20 -60.9971 
vt 19.9993 -60.997 
vt 20.0007 -61.0011 
vt 20.0007 -60.9969 
vt 20 -60.9969 
vt 20 -61.0013 
vt 19.9993 -61.0011 
vt 19.9993 -60.9969 
vt 20.0007 -60.9959 
vt 20 -60.9957 
vt 19.9993 -60.9959 
vt 20 -61 
vt 20.0007 -61 
vt 19.9993 -61 
vt 19.9993 -61.0041 
vt 20 -61.0043 
vt 20.0007 -61.0041 

usemtl Meshpart5Mtl

f 736/736/736 733/733/733 734/734/734 
f 733/733/733 736/736/736 737/737/737 
f 738/738/738 737/737/737 736/736/736 
f 739/739/739 733/733/733 737/737/737 
f 737/737/737 738/738/738 740/740/740 
f 743/743/743 737/737/737 740/740/740 
f 739/739/739 737/737/737 743/743/743 
f 743/743/743 740/740/740 744/744/744 
f 747/747/747 743/743/743 744/744/744 
f 748/748/748 739/739/739 743/743/743 
f 743/743/743 747/747/747 748/748/748 
f 749/749/749 748/748/748 747/747/747 
f 748/748/748 749/749/749 751/751/751 
f 739/739/739 748/748/748 752/752/752 
f 751/751/751 752/752/752 748/748/748 
f 752/752/752 751/751/751 753/753/753 
f 754/754/754 755/755/755 756/756/756 
f 755/755/755 754/754/754 757/757/757 
f 755/755/755 758/758/758 756/756/756 
f 758/758/758 755/755/755 759/759/759 
f 764/764/764 762/762/762 761/761/761 
f 761/761/761 765/765/765 764/764/764 
f 761/761/761 766/766/766 765/765/765 
f 766/766/766 761/761/761 769/769/769 
f 774/774/774 776/776/776 773/773/773 
f 776/776/776 774/774/774 777/777/777 
f 778/778/778 774/774/774 771/771/771 
f 774/774/774 778/778/778 777/777/777 
f 779/779/779 776/776/776 777/777/777 
f 778/778/778 779/779/779 777/777/777 
f 776/776/776 779/779/779 780/780/780 
f 779/779/779 778/778/778 784/784/784 
f 785/785/785 788/788/788 787/787/787 
f 788/788/788 785/785/785 790/790/790 
f 790/790/790 791/791/791 788/788/788 
f 792/792/792 790/790/790 785/785/785 
f 791/791/791 790/790/790 793/793/793 
f 803/803/803 804/804/804 805/805/805 
f 803/803/803 805/805/805 806/806/806 
f 806/806/806 792/792/792 803/803/803 
f 806/806/806 805/805/805 800/800/800 
f 792/792/792 806/806/806 807/807/807 
f 790/790/790 792/792/792 807/807/807 
f 807/807/807 793/793/793 790/790/790 
f 793/793/793 807/807/807 797/797/797 
f 808/808/808 807/807/807 806/806/806 
f 806/806/806 800/800/800 808/808/808 
f 807/807/807 808/808/808 797/797/797 
f 816/816/816 811/811/811 812/812/812 
f 814/814/814 816/816/816 815/815/815 
f 811/811/811 816/816/816 817/817/817 
f 816/816/816 814/814/814 817/817/817 
f 819/819/819 820/820/820 821/821/821 
f 821/821/821 822/822/822 819/819/819 
f 821/821/821 823/823/823 822/822/822 
f 823/823/823 821/821/821 824/824/824 
f 828/828/828 825/825/825 826/826/826 
f 828/828/828 826/826/826 827/827/827 
f 825/825/825 828/828/828 829/829/829 
f 827/827/827 830/830/830 828/828/828 
f 831/831/831 828/828/828 830/830/830 
f 828/828/828 831/831/831 832/832/832 
f 828/828/828 832/832/832 833/833/833 
f 833/833/833 829/829/829 828/828/828 

g Meshpart10

v -450.165 5.54479 -1.47528 
v -450.165 5.44959 -1.47528 
v -450.146 5.54761 -1.4781 
v -450.146 5.44677 -1.4781 
v -450.146 5.49719 -1.49898 
v -450.165 5.49719 -1.49499 
v -450.165 5.54479 -1.38007 
v -450.146 5.54761 -1.37725 
v -450.146 5.5685 -1.42767 
v -450.165 5.56451 -1.42767 
v -450.165 5.54479 -1.47528 
v -450.146 5.54761 -1.4781 
v -450.165 5.54479 -1.38007 
v -450.165 5.49719 -1.36035 
v -450.146 5.49719 -1.35637 
v -450.165 5.44959 -1.38007 
v -450.146 5.54761 -1.37725 
v -450.146 5.44677 -1.37725 
v -450.165 5.44959 -1.38007 
v -450.146 5.44677 -1.37725 
v -450.146 5.42588 -1.42767 
v -450.165 5.42987 -1.42767 
v -450.165 5.44959 -1.47528 
v -450.146 5.44677 -1.4781 

vn -0.19685 0.692913 -0.692913 
vn -0.19685 -0.692913 -0.692913 
vn -0.19685 0.692913 -0.692913 
vn -0.19685 -0.692913 -0.692913 
vn -0.19685 0 -0.976378 
vn -0.19685 0 -0.976378 
vn -0.19685 0.692913 0.692913 
vn -0.19685 0.692913 0.692913 
vn -0.19685 0.976378 0 
vn -0.19685 0.976378 0 
vn -0.19685 0.692913 -0.692913 
vn -0.19685 0.692913 -0.692913 
vn -0.19685 0.692913 0.692913 
vn -0.19685 0 0.976378 
vn -0.19685 0 0.976378 
vn -0.19685 -0.692913 0.692913 
vn -0.19685 0.692913 0.692913 
vn -0.19685 -0.692913 0.692913 
vn -0.19685 -0.692913 0.692913 
vn -0.19685 -0.692913 0.692913 
vn -0.19685 -0.976378 0 
vn -0.19685 -0.976378 0 
vn -0.19685 -0.692913 -0.692913 
vn -0.19685 -0.692913 -0.692913 

vt 6.00122 -6.99405 
vt 6.00122 -7.00595 
vt 5.99878 -6.9937 
vt 5.99878 -7.0063 
vt 5.99878 -7 
vt 6.00122 -7 
vt 6.00595 -7.00122 
vt 6.0063 -6.99878 
vt 6 -6.99878 
vt 6 -7.00122 
vt 5.99405 -7.00122 
vt 5.9937 -6.99878 
vt 5.99878 -6.99405 
vt 5.99878 -7 
vt 6.00122 -7 
vt 5.99878 -7.00595 
vt 6.00122 -6.9937 
vt 6.00122 -7.0063 
vt 5.99405 -7.00122 
vt 5.9937 -6.99878 
vt 6 -6.99878 
vt 6 -7.00122 
vt 6.00595 -7.00122 
vt 6.0063 -6.99878 

usemtl Meshpart5Mtl

f 838/838/838 834/834/834 836/836/836 
f 835/835/835 838/838/838 837/837/837 
f 834/834/834 838/838/838 839/839/839 
f 835/835/835 839/839/839 838/838/838 
f 842/842/842 840/840/840 841/841/841 
f 840/840/840 842/842/842 843/843/843 
f 844/844/844 843/843/843 842/842/842 
f 844/844/844 842/842/842 845/845/845 
f 846/846/846 847/847/847 848/848/848 
f 849/849/849 848/848/848 847/847/847 
f 846/846/846 848/848/848 850/850/850 
f 848/848/848 849/849/849 851/851/851 
f 852/852/852 854/854/854 853/853/853 
f 852/852/852 855/855/855 854/854/854 
f 856/856/856 854/854/854 855/855/855 
f 854/854/854 856/856/856 857/857/857 

g Meshpart11

v -450.195 5.46009 -1.46478 
v -450.195 5.49719 -1.48015 
v -450.165 5.49719 -1.49499 
v -450.195 5.53429 -1.46478 
v -450.165 5.44959 -1.47528 
v -450.165 5.54479 -1.47528 
v -450.146 5.54761 -1.4781 
v -450.09 5.55322 -1.4837 
v -450.09 5.49719 -1.50691 
v -450.146 5.49719 -1.49898 
v -450.146 5.44677 -1.4781 
v -450.09 5.44117 -1.4837 
v -450.195 5.53429 -1.46478 
v -450.165 5.54479 -1.47528 
v -450.165 5.56451 -1.42767 
v -450.195 5.54966 -1.42767 
v -450.195 5.53429 -1.39057 
v -450.165 5.54479 -1.38007 
v -450.146 5.54761 -1.37725 
v -450.09 5.57642 -1.42767 
v -450.146 5.5685 -1.42767 
v -450.146 5.54761 -1.4781 
v -450.09 5.55322 -1.37165 
v -450.09 5.55322 -1.4837 
v -450.195 5.46009 -1.39057 
v -450.195 5.53429 -1.39057 
v -450.165 5.44959 -1.38007 
v -450.165 5.54479 -1.38007 
v -450.165 5.49719 -1.36035 
v -450.195 5.49719 -1.3752 
v -450.146 5.54761 -1.37725 
v -450.09 5.55322 -1.37165 
v -450.09 5.49719 -1.34844 
v -450.146 5.49719 -1.35637 
v -450.146 5.44677 -1.37725 
v -450.09 5.44117 -1.37165 
v -450.195 5.46009 -1.46478 
v -450.165 5.44959 -1.47528 
v -450.165 5.42987 -1.42767 
v -450.195 5.44472 -1.42767 
v -450.195 5.46009 -1.39057 
v -450.165 5.44959 -1.38007 
v -450.146 5.44677 -1.37725 
v -450.146 5.44677 -1.4781 
v -450.09 5.44117 -1.37165 
v -450.09 5.44117 -1.4837 
v -450.09 5.41796 -1.42767 
v -450.146 5.42588 -1.42767 
v -450.195 5.46009 -1.46478 
v -450.195 5.53429 -1.39057 
v -450.195 5.53429 -1.46478 
v -450.195 5.54966 -1.42767 
v -450.195 5.49719 -1.48015 
v -450.195 5.46009 -1.39057 
v -450.195 5.49719 -1.3752 
v -450.195 5.44472 -1.42767 

vn -0.440945 -0.629921 -0.629921 
vn -0.440945 0 -0.897638 
vn -0.440945 0 -0.897638 
vn -0.440945 0.629921 -0.629921 
vn -0.440945 -0.629921 -0.629921 
vn -0.440945 0.629921 -0.629921 
vn -0.141732 0.700787 -0.700787 
vn -0.141732 0.700787 -0.700787 
vn -0.141732 0 -0.992126 
vn -0.141732 0 -0.992126 
vn -0.141732 -0.700787 -0.700787 
vn -0.141732 -0.700787 -0.700787 
vn -0.440945 0.629921 -0.629921 
vn -0.440945 0.629921 -0.629921 
vn -0.440945 0.897638 0 
vn -0.440945 0.897638 0 
vn -0.440945 0.629921 0.629921 
vn -0.440945 0.629921 0.629921 
vn -0.141732 0.700787 0.700787 
vn -0.141732 0.992126 0 
vn -0.141732 0.992126 0 
vn -0.141732 0.700787 -0.700787 
vn -0.141732 0.700787 0.700787 
vn -0.141732 0.700787 -0.700787 
vn -0.440945 -0.629921 0.629921 
vn -0.440945 0.629921 0.629921 
vn -0.440945 -0.629921 0.629921 
vn -0.440945 0.629921 0.629921 
vn -0.440945 0 0.897638 
vn -0.440945 0 0.897638 
vn -0.141732 0.700787 0.700787 
vn -0.141732 0.700787 0.700787 
vn -0.141732 0 0.992126 
vn -0.141732 0 0.992126 
vn -0.141732 -0.700787 0.700787 
vn -0.141732 -0.700787 0.700787 
vn -0.440945 -0.629921 -0.629921 
vn -0.440945 -0.629921 -0.629921 
vn -0.440945 -0.897638 0 
vn -0.440945 -0.897638 0 
vn -0.440945 -0.629921 0.629921 
vn -0.440945 -0.629921 0.629921 
vn -0.141732 -0.700787 0.700787 
vn -0.141732 -0.700787 -0.700787 
vn -0.141732 -0.700787 0.700787 
vn -0.141732 -0.700787 -0.700787 
vn -0.141732 -0.992126 0 
vn -0.141732 -0.992126 0 
vn -1 0 0 
vn -1 0 0 
vn -1 0 0 
vn -1 0 0 
vn -1 0 0 
vn -1 0 0 
vn -1 0 0 
vn -1 0 0 

vt 16.0066 -25.0046 
vt 16.0066 -25 
vt 16.0028 -25 
vt 16.0066 -24.9954 
vt 16.0028 -25.006 
vt 16.0028 -24.994 
vt 16.0004 -24.9937 
vt 15.9934 -24.993 
vt 15.9934 -25 
vt 16.0004 -25 
vt 16.0004 -25.0063 
vt 15.9934 -25.007 
vt 15.9954 -25.0066 
vt 15.9941 -25.0028 
vt 16 -25.0028 
vt 16 -25.0066 
vt 16.0046 -25.0066 
vt 16.006 -25.0028 
vt 16.0063 -25.0004 
vt 16 -24.9934 
vt 16 -25.0004 
vt 15.9937 -25.0004 
vt 16.007 -24.9934 
vt 15.993 -24.9934 
vt 15.9934 -25.0046 
vt 15.9934 -24.9954 
vt 15.9972 -25.006 
vt 15.9972 -24.994 
vt 15.9972 -25 
vt 15.9934 -25 
vt 15.9996 -24.9937 
vt 16.0066 -24.993 
vt 16.0066 -25 
vt 15.9996 -25 
vt 15.9996 -25.0063 
vt 16.0066 -25.007 
vt 16.0046 -25.0066 
vt 16.006 -25.0028 
vt 16 -25.0028 
vt 16 -25.0066 
vt 15.9954 -25.0066 
vt 15.9941 -25.0028 
vt 15.9937 -25.0004 
vt 16.0063 -25.0004 
vt 15.993 -24.9934 
vt 16.007 -24.9934 
vt 16 -24.9934 
vt 16 -25.0004 
vt 15.9954 -25.0046 
vt 16.0046 -24.9954 
vt 15.9954 -24.9954 
vt 16 -24.9934 
vt 15.9934 -25 
vt 16.0046 -25.0046 
vt 16.0066 -25 
vt 16 -25.0066 

usemtl Meshpart6Mtl

f 858/858/858 859/859/859 860/860/860 
f 861/861/861 860/860/860 859/859/859 
f 860/860/860 862/862/862 858/858/858 
f 860/860/860 861/861/861 863/863/863 
f 866/866/866 864/864/864 865/865/865 
f 864/864/864 866/866/866 867/867/867 
f 866/866/866 868/868/868 867/867/867 
f 868/868/868 866/866/866 869/869/869 
f 872/872/872 871/871/871 870/870/870 
f 870/870/870 873/873/873 872/872/872 
f 874/874/874 872/872/872 873/873/873 
f 872/872/872 874/874/874 875/875/875 
f 876/876/876 877/877/877 878/878/878 
f 877/877/877 879/879/879 878/878/878 
f 877/877/877 876/876/876 880/880/880 
f 879/879/879 877/877/877 881/881/881 
f 886/886/886 882/882/882 884/884/884 
f 886/886/886 885/885/885 883/883/883 
f 882/882/882 886/886/886 887/887/887 
f 883/883/883 887/887/887 886/886/886 
f 888/888/888 890/890/890 889/889/889 
f 890/890/890 888/888/888 891/891/891 
f 892/892/892 890/890/890 891/891/891 
f 890/890/890 892/892/892 893/893/893 
f 896/896/896 894/894/894 895/895/895 
f 894/894/894 896/896/896 897/897/897 
f 898/898/898 897/897/897 896/896/896 
f 896/896/896 899/899/899 898/898/898 
f 900/900/900 904/904/904 902/902/902 
f 904/904/904 901/901/901 903/903/903 
f 904/904/904 900/900/900 905/905/905 
f 901/901/901 904/904/904 905/905/905 
f 906/906/906 907/907/907 908/908/908 
f 908/908/908 907/907/907 909/909/909 
f 906/906/906 908/908/908 910/910/910 
f 906/906/906 911/911/911 907/907/907 
f 907/907/907 911/911/911 912/912/912 
f 911/911/911 906/906/906 913/913/913 

