# This file is brought to you by Roblox Corporation
# Generated by Roblox Studio

mtllib Jump Pad.mtl

g Meshpart1

v -506.932 5.76469 3.05591 
v -506.353 5.20612 2.47715 
v -506.353 5.76469 2.47715 
v -506.932 5.20612 3.05591 
v -514.34 5.20612 3.05591 
v -514.918 5.76469 2.47715 
v -514.918 5.20612 2.47715 
v -514.34 5.76469 3.05591 
v -512.063 5.76469 3.05591 
v -514.34 5.76469 3.05591 
v -512.063 5.20612 3.05591 
v -514.34 5.20612 3.05591 
v -509.208 5.20612 3.05591 
v -509.208 5.76469 3.05591 
v -506.932 5.20612 3.05591 
v -506.932 5.76469 3.05591 
v -508.277 5.76469 1.6576 
v -508.277 5.20612 1.6576 
v -507.751 5.76469 1.13185 
v -507.751 5.20612 1.13185 
v -512.994 5.20612 1.6576 
v -512.994 5.76469 1.6576 
v -513.52 5.20612 1.13185 
v -513.52 5.76469 1.13185 
v -513.52 5.76469 -3.58546 
v -508.277 5.76469 -4.11121 
v -507.751 5.76469 -3.58546 
v -512.994 5.20612 1.6576 
v -508.277 5.20612 1.6576 
v -508.277 5.76469 1.6576 
v -512.994 5.76469 1.6576 
v -512.078 5.20612 -2.66901 
v -512.078 5.20612 0.215396 
v -509.193 5.20612 0.215396 
v -509.193 5.20612 -2.66901 
v -507.038 5.20612 2.37068 
v -507.038 5.20612 -4.82429 
v -514.233 5.20612 2.37068 
v -514.233 5.20612 -4.82429 
v -509.193 5.76469 -0.298611 
v -509.707 5.76469 0.215396 
v -511.564 5.76469 0.215396 
v -512.078 5.76469 -0.298611 
v -514.233 5.76469 -0.0276448 
v -507.038 5.76469 -0.0276448 
v -513.514 5.20612 -0.267477 
v -513.514 5.76469 -0.267477 
v -514.233 5.76469 -0.0276448 
v -514.233 5.20612 -0.0276448 
v -507.758 5.76469 -0.267477 
v -507.038 5.20612 -0.0276448 
v -507.038 5.76469 -0.0276448 
v -507.758 5.20612 -0.267477 
v -509.707 5.76469 -2.66901 
v -511.564 5.76469 -2.66901 
v -509.707 5.53544 -2.66901 
v -511.564 5.53544 -2.66901 
v -509.193 5.76469 -2.155 
v -509.707 5.53544 -2.66901 
v -509.193 5.53544 -2.155 
v -509.707 5.76469 -2.66901 
v -511.564 5.76469 -2.66901 
v -512.078 5.76469 -2.155 
v -512.078 5.53544 -2.155 
v -511.564 5.53544 -2.66901 
v -507.038 5.20612 -4.82429 
v -509.436 5.76469 -4.82429 
v -509.436 5.20612 -4.82429 
v -507.038 5.76469 -4.82429 
v -511.835 5.20612 -4.82429 
v -514.233 5.76469 -4.82429 
v -514.233 5.20612 -4.82429 
v -511.835 5.76469 -4.82429 
v -506.932 5.76469 3.05591 
v -514.918 5.76469 2.47715 
v -514.918 5.20612 -4.93076 
v -506.932 5.76469 -5.50953 
v -514.918 5.20612 0.200768 
v -514.918 5.76469 -2.65438 
v -506.353 5.20612 -2.65438 
v -506.353 5.76469 0.200768 
v -509.208 5.20612 -5.50953 
v -509.208 5.76469 -5.50953 
v -512.063 5.20612 -5.50953 
v -512.063 5.76469 -5.50953 
v -512.063 5.76469 3.05591 
v -512.063 5.20612 3.05591 
v -509.208 5.20612 3.05591 
v -509.208 5.76469 3.05591 
v -508.277 5.76469 1.6576 
v -507.751 5.20612 1.13185 
v -513.52 5.76469 1.13185 
v -513.52 5.76469 -3.58546 
v -512.994 5.20612 -4.11121 
v -512.994 5.76469 -4.11121 
v -508.277 5.76469 -4.11121 
v -507.751 5.76469 -3.58546 
v -512.078 5.20612 -2.66901 
v -512.078 5.20612 0.215396 
v -509.193 5.20612 0.215396 
v -507.038 5.20612 2.37068 
v -507.758 5.20612 -0.267477 
v -507.038 5.20612 -4.82429 
v -511.835 5.20612 2.37068 
v -509.676 5.20612 1.65118 
v -514.233 5.20612 2.37068 
v -509.436 5.20612 -4.82429 
v -514.233 5.20612 -2.42597 
v -513.514 5.20612 -2.18614 
v -514.233 5.20612 -4.82429 
v -511.595 5.20612 -4.1048 
v -508.83 5.76469 -3.03247 
v -507.751 5.76469 -3.58546 
v -508.123 5.76469 -3.73945 
v -509.193 5.76469 -2.155 
v -508.277 5.76469 -4.11121 
v -507.751 5.76469 1.13185 
v -509.707 5.76469 -2.66901 
v -511.564 5.76469 -2.66901 
v -509.193 5.76469 -0.298611 
v -512.994 5.76469 -4.11121 
v -508.83 5.76469 0.578856 
v -509.707 5.76469 0.215396 
v -508.123 5.76469 1.28584 
v -508.277 5.76469 1.6576 
v -512.994 5.76469 1.6576 
v -511.564 5.76469 0.215396 
v -512.441 5.76469 -3.03247 
v -512.078 5.76469 -2.155 
v -513.148 5.76469 -3.73945 
v -513.52 5.76469 -3.58546 
v -512.078 5.76469 -0.298611 
v -513.52 5.76469 1.13185 
v -512.441 5.76469 0.578856 
v -513.148 5.76469 1.28584 
v -514.233 5.76469 2.37068 
v -514.34 5.76469 3.05591 
v -512.063 5.76469 3.05591 
v -514.509 5.76469 2.64667 
v -514.918 5.76469 2.47715 
v -514.918 5.76469 0.200768 
v -514.233 5.76469 -0.0276448 
v -511.835 5.76469 2.37068 
v -514.918 5.76469 -2.65438 
v -514.233 5.76469 -2.42597 
v -513.514 5.76469 -0.267477 
v -513.514 5.76469 -2.18614 
v -514.233 5.76469 -4.82429 
v -509.436 5.76469 2.37068 
v -511.595 5.76469 1.65118 
v -509.676 5.76469 1.65118 
v -509.208 5.76469 3.05591 
v -507.038 5.76469 2.37068 
v -514.918 5.76469 -4.93076 
v -506.932 5.76469 3.05591 
v -514.509 5.76469 -5.10028 
v -514.34 5.76469 -5.50953 
v -512.063 5.76469 -5.50953 
v -511.835 5.76469 -4.82429 
v -509.208 5.76469 -5.50953 
v -506.762 5.76469 2.64667 
v -506.353 5.76469 2.47715 
v -506.353 5.76469 0.200768 
v -507.038 5.76469 -0.0276448 
v -507.038 5.76469 -2.42597 
v -506.353 5.76469 -2.65438 
v -507.758 5.76469 -2.18614 
v -507.758 5.76469 -0.267477 
v -507.038 5.76469 -4.82429 
v -506.353 5.76469 -4.93076 
v -506.762 5.76469 -5.10028 
v -506.932 5.76469 -5.50953 
v -509.436 5.76469 -4.82429 
v -509.676 5.76469 -4.1048 
v -511.595 5.76469 -4.1048 
v -506.932 5.76469 3.05591 
v -506.932 5.76469 -5.50953 
v -514.918 5.76469 2.47715 
v -514.918 5.76469 0.200768 
v -514.918 5.20612 2.47715 
v -514.918 5.20612 0.200768 
v -514.918 5.76469 -2.65438 
v -514.918 5.20612 -2.65438 
v -514.918 5.76469 -4.93076 
v -514.918 5.20612 -4.93076 
v -506.353 5.20612 -2.65438 
v -506.353 5.76469 0.200768 
v -513.52 5.20612 -3.58546 
v -513.52 5.20612 1.13185 
v -513.52 5.76469 1.13185 
v -513.52 5.76469 -3.58546 
v -512.078 5.20612 -2.66901 
v -512.078 5.20612 0.215396 
v -507.038 5.20612 2.37068 
v -507.038 5.20612 -4.82429 
v -511.835 5.20612 2.37068 
v -511.564 5.76469 -2.66901 
v -511.564 5.76469 0.215396 
v -511.835 5.76469 -4.82429 
v -511.595 5.20612 -4.1048 
v -511.835 5.76469 -4.82429 
v -511.835 5.20612 -4.82429 
v -511.595 5.76469 -4.1048 
v -511.595 5.20612 1.65118 
v -511.835 5.20612 2.37068 
v -511.595 5.76469 1.65118 
v -511.835 5.76469 2.37068 
v -509.193 5.53544 -0.298611 
v -509.193 5.76469 -2.155 
v -509.193 5.53544 -2.155 
v -509.193 5.76469 -0.298611 
v -507.038 5.20612 -0.0276448 
v -507.038 5.20612 2.37068 
v -507.038 5.76469 2.37068 
v -507.038 5.76469 -0.0276448 
v -507.038 5.20612 -4.82429 
v -507.038 5.20612 -2.42597 
v -507.038 5.76469 -2.42597 
v -507.038 5.76469 -4.82429 
v -514.918 5.76469 2.47715 
v -514.918 5.20612 -4.93076 
v -514.34 5.76469 -5.50953 
v -514.34 5.20612 -5.50953 
v -514.918 5.76469 -4.93076 
v -506.932 5.76469 -5.50953 
v -506.353 5.76469 -4.93076 
v -506.932 5.20612 -5.50953 
v -506.353 5.20612 -4.93076 
v -506.932 5.20612 -5.50953 
v -509.208 5.20612 -5.50953 
v -506.932 5.76469 -5.50953 
v -509.208 5.76469 -5.50953 
v -512.063 5.20612 -5.50953 
v -512.063 5.76469 -5.50953 
v -514.34 5.20612 -5.50953 
v -514.34 5.76469 -5.50953 
v -512.063 5.76469 3.05591 
v -508.277 5.76469 1.6576 
v -513.52 5.20612 -3.58546 
v -513.52 5.76469 -3.58546 
v -512.994 5.20612 -4.11121 
v -512.994 5.76469 -4.11121 
v -508.277 5.76469 -4.11121 
v -507.751 5.76469 -3.58546 
v -507.751 5.20612 -3.58546 
v -508.277 5.20612 -4.11121 
v -508.277 5.20612 -4.11121 
v -512.994 5.76469 -4.11121 
v -508.277 5.76469 -4.11121 
v -512.994 5.20612 -4.11121 
v -512.078 5.20612 -2.66901 
v -509.193 5.20612 0.215396 
v -509.193 5.20612 -2.66901 
v -507.038 5.20612 2.37068 
v -507.038 5.20612 -4.82429 
v -514.233 5.20612 2.37068 
v -514.233 5.20612 -4.82429 
v -509.193 5.76469 -2.155 
v -509.707 5.76469 -2.66901 
v -511.564 5.76469 -2.66901 
v -512.078 5.76469 -2.155 
v -513.514 5.76469 -2.18614 
v -513.514 5.20612 -2.18614 
v -514.233 5.20612 -2.42597 
v -514.233 5.76469 -2.42597 
v -507.038 5.20612 -2.42597 
v -507.758 5.20612 -2.18614 
v -507.038 5.76469 -2.42597 
v -507.758 5.76469 -2.18614 
v -511.564 5.53544 0.215396 
v -509.707 5.76469 0.215396 
v -509.707 5.53544 0.215396 
v -511.564 5.76469 0.215396 
v -509.193 5.53544 -0.298611 
v -509.707 5.53544 0.215396 
v -509.707 5.76469 0.215396 
v -509.193 5.76469 -0.298611 
v -512.078 5.76469 -0.298611 
v -511.564 5.76469 0.215396 
v -511.564 5.53544 0.215396 
v -512.078 5.53544 -0.298611 
v -511.835 5.76469 2.37068 
v -514.233 5.20612 2.37068 
v -514.233 5.76469 2.37068 
v -511.835 5.20612 2.37068 
v -507.038 5.76469 2.37068 
v -509.436 5.20612 2.37068 
v -509.436 5.76469 2.37068 
v -507.038 5.20612 2.37068 
v -506.932 5.76469 3.05591 
v -514.918 5.76469 2.47715 
v -514.918 5.20612 -4.93076 
v -506.932 5.76469 -5.50953 
v -514.918 5.20612 0.200768 
v -514.918 5.76469 -2.65438 
v -506.353 5.20612 -2.65438 
v -506.353 5.76469 0.200768 
v -509.208 5.20612 -5.50953 
v -509.208 5.76469 -5.50953 
v -512.063 5.20612 -5.50953 
v -512.063 5.76469 -5.50953 
v -512.063 5.76469 3.05591 
v -512.063 5.20612 3.05591 
v -509.208 5.20612 3.05591 
v -509.208 5.76469 3.05591 
v -508.277 5.76469 1.6576 
v -507.751 5.20612 1.13185 
v -513.52 5.76469 1.13185 
v -513.52 5.76469 -3.58546 
v -512.994 5.20612 -4.11121 
v -512.994 5.76469 -4.11121 
v -508.277 5.76469 -4.11121 
v -507.751 5.76469 -3.58546 
v -512.994 5.20612 -4.11121 
v -512.078 5.20612 -2.66901 
v -513.148 5.20612 -3.73945 
v -513.52 5.20612 -3.58546 
v -508.277 5.20612 -4.11121 
v -512.078 5.20612 0.215396 
v -513.52 5.20612 1.13185 
v -513.148 5.20612 1.28584 
v -512.994 5.20612 1.6576 
v -509.193 5.20612 0.215396 
v -508.277 5.20612 1.6576 
v -508.123 5.20612 1.28584 
v -507.751 5.20612 1.13185 
v -509.193 5.20612 -2.66901 
v -507.751 5.20612 -3.58546 
v -508.123 5.20612 -3.73945 
v -506.932 5.20612 3.05591 
v -507.038 5.20612 2.37068 
v -506.762 5.20612 2.64667 
v -506.353 5.20612 2.47715 
v -509.208 5.20612 3.05591 
v -506.353 5.20612 0.200768 
v -507.038 5.20612 -0.0276448 
v -509.436 5.20612 2.37068 
v -506.353 5.20612 -2.65438 
v -507.038 5.20612 -2.42597 
v -507.758 5.20612 -0.267477 
v -507.758 5.20612 -2.18614 
v -507.038 5.20612 -4.82429 
v -511.835 5.20612 2.37068 
v -509.676 5.20612 1.65118 
v -511.595 5.20612 1.65118 
v -512.063 5.20612 3.05591 
v -514.233 5.20612 2.37068 
v -506.353 5.20612 -4.93076 
v -514.34 5.20612 3.05591 
v -506.762 5.20612 -5.10028 
v -506.932 5.20612 -5.50953 
v -509.208 5.20612 -5.50953 
v -509.436 5.20612 -4.82429 
v -512.063 5.20612 -5.50953 
v -514.509 5.20612 2.64667 
v -514.918 5.20612 2.47715 
v -514.918 5.20612 0.200768 
v -514.233 5.20612 -0.0276448 
v -514.233 5.20612 -2.42597 
v -514.918 5.20612 -2.65438 
v -513.514 5.20612 -2.18614 
v -513.514 5.20612 -0.267477 
v -514.233 5.20612 -4.82429 
v -514.918 5.20612 -4.93076 
v -514.509 5.20612 -5.10028 
v -514.34 5.20612 -5.50953 
v -511.835 5.20612 -4.82429 
v -511.595 5.20612 -4.1048 
v -509.676 5.20612 -4.1048 
v -506.932 5.76469 3.05591 
v -506.932 5.76469 -5.50953 
v -506.353 5.76469 -2.65438 
v -506.353 5.20612 -4.93076 
v -506.353 5.76469 -4.93076 
v -506.353 5.20612 -2.65438 
v -506.353 5.76469 0.200768 
v -506.353 5.20612 0.200768 
v -506.353 5.76469 2.47715 
v -506.353 5.20612 2.47715 
v -508.277 5.76469 1.6576 
v -508.277 5.76469 -4.11121 
v -507.751 5.76469 -3.58546 
v -507.751 5.76469 1.13185 
v -507.751 5.20612 1.13185 
v -507.751 5.20612 -3.58546 
v -509.193 5.20612 0.215396 
v -509.193 5.20612 -2.66901 
v -507.038 5.20612 2.37068 
v -507.038 5.20612 -4.82429 
v -509.707 5.76469 -2.66901 
v -509.707 5.76469 0.215396 
v -509.676 5.76469 -4.1048 
v -509.436 5.20612 -4.82429 
v -509.436 5.76469 -4.82429 
v -509.676 5.20612 -4.1048 
v -509.676 5.76469 1.65118 
v -509.436 5.76469 2.37068 
v -509.676 5.20612 1.65118 
v -509.436 5.20612 2.37068 
v -512.078 5.53544 -0.298611 
v -512.078 5.53544 -2.155 
v -512.078 5.76469 -0.298611 
v -512.078 5.76469 -2.155 
v -514.233 5.76469 -4.82429 
v -514.233 5.76469 -2.42597 
v -514.233 5.20612 -2.42597 
v -514.233 5.20612 -4.82429 
v -514.233 5.76469 -0.0276448 
v -514.233 5.76469 2.37068 
v -514.233 5.20612 2.37068 
v -514.233 5.20612 -0.0276448 

vn 0.708661 0 0.708661 
vn 0.708661 0 0.708661 
vn 0.708661 0 0.708661 
vn 0.708661 0 0.708661 
vn -0.708661 0 0.708661 
vn -0.708661 0 0.708661 
vn -0.708661 0 0.708661 
vn -0.708661 0 0.708661 
vn 0 0 1 
vn 0 0 1 
vn 0 0 1 
vn 0 0 1 
vn 0 0 1 
vn 0 0 1 
vn 0 0 1 
vn 0 0 1 
vn 0.708661 0 0.708661 
vn 0.708661 0 0.708661 
vn 0.708661 0 0.708661 
vn 0.708661 0 0.708661 
vn -0.708661 0 0.708661 
vn -0.708661 0 0.708661 
vn -0.708661 0 0.708661 
vn -0.708661 0 0.708661 
vn -0.708661 0 -0.708661 
vn 0.708661 0 -0.708661 
vn 0.708661 0 -0.708661 
vn 0 0 1 
vn 0 0 1 
vn 0 0 1 
vn 0 0 1 
vn 0 -1 0 
vn 0 -1 0 
vn 0 -1 0 
vn 0 -1 0 
vn 0 -1 0 
vn 0 -1 0 
vn 0 -1 0 
vn 0 -1 0 
vn 0 1 0 
vn 0 1 0 
vn 0 1 0 
vn 0 1 0 
vn 0 1 0 
vn 0 1 0 
vn 0.314961 0 0.944882 
vn 0.314961 0 0.944882 
vn 0.314961 0 0.944882 
vn 0.314961 0 0.944882 
vn -0.314961 0 0.944882 
vn -0.314961 0 0.944882 
vn -0.314961 0 0.944882 
vn -0.314961 0 0.944882 
vn 0 0 1 
vn 0 0 1 
vn 0 0 1 
vn 0 0 1 
vn -0.708661 0 0.708661 
vn -0.708661 0 0.708661 
vn -0.708661 0 0.708661 
vn -0.708661 0 0.708661 
vn 0.708661 0 0.708661 
vn 0.708661 0 0.708661 
vn 0.708661 0 0.708661 
vn 0.708661 0 0.708661 
vn 0 0 1 
vn 0 0 1 
vn 0 0 1 
vn 0 0 1 
vn 0 0 1 
vn 0 0 1 
vn 0 0 1 
vn 0 0 1 
vn 0.708661 0 0.708661 
vn -0.708661 0 0.708661 
vn -0.708661 0 -0.708661 
vn 0.708661 0 -0.708661 
vn -1 0 0 
vn -1 0 0 
vn 1 0 0 
vn 1 0 0 
vn 0 0 -1 
vn 0 0 -1 
vn 0 0 -1 
vn 0 0 -1 
vn 0 0 1 
vn 0 0 1 
vn 0 0 1 
vn 0 0 1 
vn 0.708661 0 0.708661 
vn 0.708661 0 0.708661 
vn -0.708661 0 0.708661 
vn -0.708661 0 -0.708661 
vn -0.708661 0 -0.708661 
vn -0.708661 0 -0.708661 
vn 0.708661 0 -0.708661 
vn 0.708661 0 -0.708661 
vn 0 -1 0 
vn 0 -1 0 
vn 0 -1 0 
vn 0 -1 0 
vn 0 -1 0 
vn 0 -1 0 
vn 0 -1 0 
vn 0 -1 0 
vn 0 -1 0 
vn 0 -1 0 
vn 0 -1 0 
vn 0 -1 0 
vn 0 -1 0 
vn 0 -1 0 
vn 0 1 0 
vn 0 1 0 
vn 0 1 0 
vn 0 1 0 
vn 0 1 0 
vn 0 1 0 
vn 0 1 0 
vn 0 1 0 
vn 0 1 0 
vn 0 1 0 
vn 0 1 0 
vn 0 1 0 
vn 0 1 0 
vn 0 1 0 
vn 0 1 0 
vn 0 1 0 
vn 0 1 0 
vn 0 1 0 
vn 0 1 0 
vn 0 1 0 
vn 0 1 0 
vn 0 1 0 
vn 0 1 0 
vn 0 1 0 
vn 0 1 0 
vn 0 1 0 
vn 0 1 0 
vn 0 1 0 
vn 0 1 0 
vn 0 1 0 
vn 0 1 0 
vn 0 1 0 
vn 0 1 0 
vn 0 1 0 
vn 0 1 0 
vn 0 1 0 
vn 0 1 0 
vn 0 1 0 
vn 0 1 0 
vn 0 1 0 
vn 0 1 0 
vn 0 1 0 
vn 0 1 0 
vn 0 1 0 
vn 0 1 0 
vn 0 1 0 
vn 0 1 0 
vn 0 1 0 
vn 0 1 0 
vn 0 1 0 
vn 0 1 0 
vn 0 1 0 
vn 0 1 0 
vn 0 1 0 
vn 0 1 0 
vn 0 1 0 
vn 0 1 0 
vn 0 1 0 
vn 0 1 0 
vn 0 1 0 
vn 0 1 0 
vn 0 1 0 
vn 0 1 0 
vn 0 1 0 
vn 0.708661 0 0.708661 
vn 0.708661 0 -0.708661 
vn -1 0 0 
vn -1 0 0 
vn -1 0 0 
vn -1 0 0 
vn -1 0 0 
vn -1 0 0 
vn -1 0 0 
vn -1 0 0 
vn 1 0 0 
vn 1 0 0 
vn -1 0 0 
vn -1 0 0 
vn -1 0 0 
vn -1 0 0 
vn 0 -1 0 
vn 0 -1 0 
vn 0 -1 0 
vn 0 -1 0 
vn 0 -1 0 
vn 0 1 0 
vn 0 1 0 
vn 0 1 0 
vn -0.944882 0 0.314961 
vn -0.944882 0 0.314961 
vn -0.944882 0 0.314961 
vn -0.944882 0 0.314961 
vn -0.944882 0 -0.314961 
vn -0.944882 0 -0.314961 
vn -0.944882 0 -0.314961 
vn -0.944882 0 -0.314961 
vn -1 0 0 
vn -1 0 0 
vn -1 0 0 
vn -1 0 0 
vn -1 0 0 
vn -1 0 0 
vn -1 0 0 
vn -1 0 0 
vn -1 0 0 
vn -1 0 0 
vn -1 0 0 
vn -1 0 0 
vn -0.708661 0 0.708661 
vn -0.708661 0 -0.708661 
vn -0.708661 0 -0.708661 
vn -0.708661 0 -0.708661 
vn -0.708661 0 -0.708661 
vn 0.708661 0 -0.708661 
vn 0.708661 0 -0.708661 
vn 0.708661 0 -0.708661 
vn 0.708661 0 -0.708661 
vn 0 0 -1 
vn 0 0 -1 
vn 0 0 -1 
vn 0 0 -1 
vn 0 0 -1 
vn 0 0 -1 
vn 0 0 -1 
vn 0 0 -1 
vn 0 0 1 
vn 0.708661 0 0.708661 
vn -0.708661 0 -0.708661 
vn -0.708661 0 -0.708661 
vn -0.708661 0 -0.708661 
vn -0.708661 0 -0.708661 
vn 0.708661 0 -0.708661 
vn 0.708661 0 -0.708661 
vn 0.708661 0 -0.708661 
vn 0.708661 0 -0.708661 
vn 0 0 -1 
vn 0 0 -1 
vn 0 0 -1 
vn 0 0 -1 
vn 0 -1 0 
vn 0 -1 0 
vn 0 -1 0 
vn 0 -1 0 
vn 0 -1 0 
vn 0 -1 0 
vn 0 -1 0 
vn 0 1 0 
vn 0 1 0 
vn 0 1 0 
vn 0 1 0 
vn 0.314961 0 -0.944882 
vn 0.314961 0 -0.944882 
vn 0.314961 0 -0.944882 
vn 0.314961 0 -0.944882 
vn -0.314961 0 -0.944882 
vn -0.314961 0 -0.944882 
vn -0.314961 0 -0.944882 
vn -0.314961 0 -0.944882 
vn 0 0 -1 
vn 0 0 -1 
vn 0 0 -1 
vn 0 0 -1 
vn -0.708661 0 -0.708661 
vn -0.708661 0 -0.708661 
vn -0.708661 0 -0.708661 
vn -0.708661 0 -0.708661 
vn 0.708661 0 -0.708661 
vn 0.708661 0 -0.708661 
vn 0.708661 0 -0.708661 
vn 0.708661 0 -0.708661 
vn 0 0 -1 
vn 0 0 -1 
vn 0 0 -1 
vn 0 0 -1 
vn 0 0 -1 
vn 0 0 -1 
vn 0 0 -1 
vn 0 0 -1 
vn 0.708661 0 0.708661 
vn -0.708661 0 0.708661 
vn -0.708661 0 -0.708661 
vn 0.708661 0 -0.708661 
vn -1 0 0 
vn -1 0 0 
vn 1 0 0 
vn 1 0 0 
vn 0 0 -1 
vn 0 0 -1 
vn 0 0 -1 
vn 0 0 -1 
vn 0 0 1 
vn 0 0 1 
vn 0 0 1 
vn 0 0 1 
vn 0.708661 0 0.708661 
vn 0.708661 0 0.708661 
vn -0.708661 0 0.708661 
vn -0.708661 0 -0.708661 
vn -0.708661 0 -0.708661 
vn -0.708661 0 -0.708661 
vn 0.708661 0 -0.708661 
vn 0.708661 0 -0.708661 
vn 0 -1 0 
vn 0 -1 0 
vn 0 -1 0 
vn 0 -1 0 
vn 0 -1 0 
vn 0 -1 0 
vn 0 -1 0 
vn 0 -1 0 
vn 0 -1 0 
vn 0 -1 0 
vn 0 -1 0 
vn 0 -1 0 
vn 0 -1 0 
vn 0 -1 0 
vn 0 -1 0 
vn 0 -1 0 
vn 0 -1 0 
vn 0 -1 0 
vn 0 -1 0 
vn 0 -1 0 
vn 0 -1 0 
vn 0 -1 0 
vn 0 -1 0 
vn 0 -1 0 
vn 0 -1 0 
vn 0 -1 0 
vn 0 -1 0 
vn 0 -1 0 
vn 0 -1 0 
vn 0 -1 0 
vn 0 -1 0 
vn 0 -1 0 
vn 0 -1 0 
vn 0 -1 0 
vn 0 -1 0 
vn 0 -1 0 
vn 0 -1 0 
vn 0 -1 0 
vn 0 -1 0 
vn 0 -1 0 
vn 0 -1 0 
vn 0 -1 0 
vn 0 -1 0 
vn 0 -1 0 
vn 0 -1 0 
vn 0 -1 0 
vn 0 -1 0 
vn 0 -1 0 
vn 0 -1 0 
vn 0 -1 0 
vn 0 -1 0 
vn 0 -1 0 
vn 0 -1 0 
vn 0 -1 0 
vn 0 -1 0 
vn 0 -1 0 
vn 0.708661 0 0.708661 
vn 0.708661 0 -0.708661 
vn 1 0 0 
vn 1 0 0 
vn 1 0 0 
vn 1 0 0 
vn 1 0 0 
vn 1 0 0 
vn 1 0 0 
vn 1 0 0 
vn 0.708661 0 0.708661 
vn 0.708661 0 -0.708661 
vn 1 0 0 
vn 1 0 0 
vn 1 0 0 
vn 1 0 0 
vn 0 -1 0 
vn 0 -1 0 
vn 0 -1 0 
vn 0 -1 0 
vn 0 1 0 
vn 0 1 0 
vn 0.944882 0 0.314961 
vn 0.944882 0 0.314961 
vn 0.944882 0 0.314961 
vn 0.944882 0 0.314961 
vn 0.944882 0 -0.314961 
vn 0.944882 0 -0.314961 
vn 0.944882 0 -0.314961 
vn 0.944882 0 -0.314961 
vn 1 0 0 
vn 1 0 0 
vn 1 0 0 
vn 1 0 0 
vn 1 0 0 
vn 1 0 0 
vn 1 0 0 
vn 1 0 0 
vn 1 0 0 
vn 1 0 0 
vn 1 0 0 
vn 1 0 0 

vt 26.463 -50.9651 
vt 26.5353 -51.0349 
vt 26.5353 -50.9651 
vt 26.463 -51.0349 
vt 25.537 -51.0349 
vt 25.4647 -50.9651 
vt 25.4647 -51.0349 
vt 25.537 -50.9651 
vt 25.8216 -50.9651 
vt 25.537 -50.9651 
vt 25.8216 -51.0349 
vt 25.537 -51.0349 
vt 26.1784 -51.0349 
vt 26.1784 -50.9651 
vt 26.463 -51.0349 
vt 26.463 -50.9651 
vt 26.2948 -50.9651 
vt 26.2948 -51.0349 
vt 26.3606 -50.9651 
vt 26.3606 -51.0349 
vt 25.7052 -51.0349 
vt 25.7052 -50.9651 
vt 25.6394 -51.0349 
vt 25.6394 -50.9651 
vt 25.6394 -50.9651 
vt 26.2948 -50.9651 
vt 26.3606 -50.9651 
vt 25.7052 -51.0349 
vt 26.2948 -51.0349 
vt 26.2948 -50.9651 
vt 25.7052 -50.9651 
vt 25.8197 -51.0349 
vt 25.8197 -51.0349 
vt 26.1803 -51.0349 
vt 26.1803 -51.0349 
vt 26.4497 -51.0349 
vt 26.4497 -51.0349 
vt 25.5503 -51.0349 
vt 25.5503 -51.0349 
vt 26.1803 -50.9651 
vt 26.116 -50.9651 
vt 25.884 -50.9651 
vt 25.8197 -50.9651 
vt 25.5503 -50.9651 
vt 26.4497 -50.9651 
vt 25.6403 -51.0349 
vt 25.6403 -50.9651 
vt 25.5503 -50.9651 
vt 25.5503 -51.0349 
vt 26.3597 -50.9651 
vt 26.4497 -51.0349 
vt 26.4497 -50.9651 
vt 26.3597 -51.0349 
vt 26.116 -50.9651 
vt 25.884 -50.9651 
vt 26.116 -50.9937 
vt 25.884 -50.9937 
vt 26.1803 -50.9651 
vt 26.116 -50.9937 
vt 26.1803 -50.9937 
vt 26.116 -50.9651 
vt 25.884 -50.9651 
vt 25.8197 -50.9651 
vt 25.8197 -50.9937 
vt 25.884 -50.9937 
vt 26.4497 -51.0349 
vt 26.1499 -50.9651 
vt 26.1499 -51.0349 
vt 26.4497 -50.9651 
vt 25.8501 -51.0349 
vt 25.5503 -50.9651 
vt 25.5503 -51.0349 
vt 25.8501 -50.9651 
vt 25.4647 -51.463 
vt 25.537 -50.4647 
vt 26.463 -50.4647 
vt 26.5353 -51.463 
vt 25.8216 -50.4647 
vt 26.1784 -50.4647 
vt 26.1784 -51.5353 
vt 25.8216 -51.5353 
vt 26.5353 -51.1784 
vt 26.5353 -51.1784 
vt 26.5353 -50.8216 
vt 26.5353 -50.8216 
vt 25.4647 -50.8216 
vt 25.4647 -50.8216 
vt 25.4647 -51.1784 
vt 25.4647 -51.1784 
vt 25.6394 -51.2948 
vt 25.7052 -51.3605 
vt 25.7052 -50.6395 
vt 26.2948 -50.6395 
vt 26.3606 -50.7052 
vt 26.3606 -50.7052 
vt 26.3606 -51.2948 
vt 26.2948 -51.3605 
vt 26.1803 -50.8197 
vt 25.8197 -50.8197 
vt 25.8197 -51.1803 
vt 25.5503 -51.4497 
vt 25.8801 -51.3597 
vt 26.4497 -51.4497 
vt 25.5503 -50.8501 
vt 25.6403 -51.1199 
vt 25.5503 -50.5503 
vt 26.4497 -51.1499 
vt 26.1499 -50.5503 
vt 26.1199 -50.6403 
vt 26.4497 -50.5503 
vt 26.3597 -50.8801 
vt 26.2257 -51.2257 
vt 26.2948 -51.3605 
vt 26.3141 -51.3141 
vt 26.116 -51.1803 
vt 26.3606 -51.2948 
vt 25.7052 -51.3605 
vt 26.1803 -51.116 
vt 26.1803 -50.884 
vt 25.884 -51.1803 
vt 26.3606 -50.7052 
vt 25.7743 -51.2257 
vt 25.8197 -51.116 
vt 25.6859 -51.3141 
vt 25.6394 -51.2948 
vt 25.6394 -50.7052 
vt 25.8197 -50.884 
vt 26.2257 -50.7743 
vt 26.116 -50.8197 
vt 26.3141 -50.6859 
vt 26.2948 -50.6395 
vt 25.884 -50.8197 
vt 25.7052 -50.6395 
vt 25.7743 -50.7743 
vt 25.6859 -50.6859 
vt 25.5503 -50.5503 
vt 25.4647 -50.537 
vt 25.4647 -50.8216 
vt 25.5158 -50.5158 
vt 25.537 -50.4647 
vt 25.8216 -50.4647 
vt 25.8501 -50.5503 
vt 25.5503 -50.8501 
vt 26.1784 -50.4647 
vt 26.1499 -50.5503 
vt 25.8801 -50.6403 
vt 26.1199 -50.6403 
vt 26.4497 -50.5503 
vt 25.5503 -51.1499 
vt 25.6403 -50.8801 
vt 25.6403 -51.1199 
vt 25.4647 -51.1784 
vt 25.5503 -51.4497 
vt 26.463 -50.4647 
vt 25.4647 -51.463 
vt 26.4842 -50.5158 
vt 26.5353 -50.537 
vt 26.5353 -50.8216 
vt 26.4497 -50.8501 
vt 26.5353 -51.1784 
vt 25.5158 -51.4842 
vt 25.537 -51.5353 
vt 25.8216 -51.5353 
vt 25.8501 -51.4497 
vt 26.1499 -51.4497 
vt 26.1784 -51.5353 
vt 26.1199 -51.3597 
vt 25.8801 -51.3597 
vt 26.4497 -51.4497 
vt 26.463 -51.5353 
vt 26.4842 -51.4842 
vt 26.5353 -51.463 
vt 26.4497 -51.1499 
vt 26.3597 -51.1199 
vt 26.3597 -50.8801 
vt 26.5353 -50.9651 
vt 25.4647 -50.9651 
vt 26.463 -50.9651 
vt 26.1784 -50.9651 
vt 26.463 -51.0349 
vt 26.1784 -51.0349 
vt 25.8216 -50.9651 
vt 25.8216 -51.0349 
vt 25.537 -50.9651 
vt 25.537 -51.0349 
vt 25.8216 -51.0349 
vt 26.1784 -50.9651 
vt 25.7052 -51.0349 
vt 26.2948 -51.0349 
vt 26.2948 -50.9651 
vt 25.7052 -50.9651 
vt 25.8197 -51.0349 
vt 26.1803 -51.0349 
vt 26.4497 -51.0349 
vt 25.5503 -51.0349 
vt 26.4497 -51.0349 
vt 25.8197 -50.9651 
vt 26.1803 -50.9651 
vt 25.5503 -50.9651 
vt 25.6403 -51.0349 
vt 25.5503 -50.9651 
vt 25.5503 -51.0349 
vt 25.6403 -50.9651 
vt 26.3597 -51.0349 
vt 26.4497 -51.0349 
vt 26.3597 -50.9651 
vt 26.4497 -50.9651 
vt 26.116 -50.9937 
vt 25.884 -50.9651 
vt 25.884 -50.9937 
vt 26.116 -50.9651 
vt 26.1499 -51.0349 
vt 26.4497 -51.0349 
vt 26.4497 -50.9651 
vt 26.1499 -50.9651 
vt 25.5503 -51.0349 
vt 25.8501 -51.0349 
vt 25.8501 -50.9651 
vt 25.5503 -50.9651 
vt 26.5353 -50.9651 
vt 26.5353 -51.0349 
vt 26.463 -50.9651 
vt 26.463 -51.0349 
vt 26.5353 -50.9651 
vt 25.537 -50.9651 
vt 25.4647 -50.9651 
vt 25.537 -51.0349 
vt 25.4647 -51.0349 
vt 25.537 -51.0349 
vt 25.8216 -51.0349 
vt 25.537 -50.9651 
vt 25.8216 -50.9651 
vt 26.1784 -51.0349 
vt 26.1784 -50.9651 
vt 26.463 -51.0349 
vt 26.463 -50.9651 
vt 26.1784 -50.9651 
vt 25.7052 -50.9651 
vt 26.3606 -51.0349 
vt 26.3606 -50.9651 
vt 26.2948 -51.0349 
vt 26.2948 -50.9651 
vt 25.7052 -50.9651 
vt 25.6394 -50.9651 
vt 25.6394 -51.0349 
vt 25.7052 -51.0349 
vt 25.7052 -51.0349 
vt 26.2948 -50.9651 
vt 25.7052 -50.9651 
vt 26.2948 -51.0349 
vt 26.1803 -51.0349 
vt 25.8197 -51.0349 
vt 25.8197 -51.0349 
vt 25.5503 -51.0349 
vt 25.5503 -51.0349 
vt 26.4497 -51.0349 
vt 26.4497 -51.0349 
vt 25.8197 -50.9651 
vt 25.884 -50.9651 
vt 26.116 -50.9651 
vt 26.1803 -50.9651 
vt 26.3597 -50.9651 
vt 26.3597 -51.0349 
vt 26.4497 -51.0349 
vt 26.4497 -50.9651 
vt 25.5503 -51.0349 
vt 25.6403 -51.0349 
vt 25.5503 -50.9651 
vt 25.6403 -50.9651 
vt 26.116 -50.9937 
vt 25.884 -50.9651 
vt 25.884 -50.9937 
vt 26.116 -50.9651 
vt 25.8197 -50.9937 
vt 25.884 -50.9937 
vt 25.884 -50.9651 
vt 25.8197 -50.9651 
vt 26.1803 -50.9651 
vt 26.116 -50.9651 
vt 26.116 -50.9937 
vt 26.1803 -50.9937 
vt 26.1499 -50.9651 
vt 26.4497 -51.0349 
vt 26.4497 -50.9651 
vt 26.1499 -51.0349 
vt 25.5503 -50.9651 
vt 25.8501 -51.0349 
vt 25.8501 -50.9651 
vt 25.5503 -51.0349 
vt 26.5353 -51.463 
vt 26.463 -50.4647 
vt 25.537 -50.4647 
vt 25.4647 -51.463 
vt 26.1784 -50.4647 
vt 25.8216 -50.4647 
vt 25.8216 -51.5353 
vt 26.1784 -51.5353 
vt 25.4647 -51.1784 
vt 25.4647 -51.1784 
vt 25.4647 -50.8216 
vt 25.4647 -50.8216 
vt 26.5353 -50.8216 
vt 26.5353 -50.8216 
vt 26.5353 -51.1784 
vt 26.5353 -51.1784 
vt 26.3606 -51.2948 
vt 26.2948 -51.3605 
vt 26.2948 -50.6395 
vt 25.7052 -50.6395 
vt 25.6394 -50.7052 
vt 25.6394 -50.7052 
vt 25.6394 -51.2948 
vt 25.7052 -51.3605 
vt 25.6394 -50.7052 
vt 25.8197 -50.8197 
vt 25.6859 -50.6859 
vt 25.7052 -50.6395 
vt 25.6394 -51.2948 
vt 26.1803 -50.8197 
vt 26.2948 -50.6395 
vt 26.3141 -50.6859 
vt 26.3606 -50.7052 
vt 26.1803 -51.1803 
vt 26.3606 -51.2948 
vt 26.3141 -51.3141 
vt 26.2948 -51.3605 
vt 25.8197 -51.1803 
vt 25.7052 -51.3605 
vt 25.6859 -51.3141 
vt 26.5353 -51.463 
vt 26.4497 -51.4497 
vt 26.4842 -51.4842 
vt 26.463 -51.5353 
vt 26.5353 -51.1784 
vt 26.1784 -51.5353 
vt 26.1499 -51.4497 
vt 26.4497 -51.1499 
vt 25.8216 -51.5353 
vt 25.8501 -51.4497 
vt 26.1199 -51.3597 
vt 25.8801 -51.3597 
vt 25.5503 -51.4497 
vt 26.4497 -50.8501 
vt 26.3597 -51.1199 
vt 26.3597 -50.8801 
vt 26.5353 -50.8216 
vt 26.4497 -50.5503 
vt 25.537 -51.5353 
vt 26.5353 -50.537 
vt 25.5158 -51.4842 
vt 25.4647 -51.463 
vt 25.4647 -51.1784 
vt 25.5503 -51.1499 
vt 25.4647 -50.8216 
vt 26.4842 -50.5158 
vt 26.463 -50.4647 
vt 26.1784 -50.4647 
vt 26.1499 -50.5503 
vt 25.8501 -50.5503 
vt 25.8216 -50.4647 
vt 25.8801 -50.6403 
vt 26.1199 -50.6403 
vt 25.5503 -50.5503 
vt 25.537 -50.4647 
vt 25.5158 -50.5158 
vt 25.4647 -50.537 
vt 25.5503 -50.8501 
vt 25.6403 -50.8801 
vt 25.6403 -51.1199 
vt 25.4647 -50.9651 
vt 26.5353 -50.9651 
vt 26.1784 -50.9651 
vt 26.463 -51.0349 
vt 26.463 -50.9651 
vt 26.1784 -51.0349 
vt 25.8216 -50.9651 
vt 25.8216 -51.0349 
vt 25.537 -50.9651 
vt 25.537 -51.0349 
vt 25.6394 -50.9651 
vt 26.3606 -50.9651 
vt 26.2948 -50.9651 
vt 25.7052 -50.9651 
vt 25.7052 -51.0349 
vt 26.2948 -51.0349 
vt 25.8197 -51.0349 
vt 26.1803 -51.0349 
vt 25.5503 -51.0349 
vt 26.4497 -51.0349 
vt 26.1803 -50.9651 
vt 25.8197 -50.9651 
vt 26.3597 -50.9651 
vt 26.4497 -51.0349 
vt 26.4497 -50.9651 
vt 26.3597 -51.0349 
vt 25.6403 -50.9651 
vt 25.5503 -50.9651 
vt 25.6403 -51.0349 
vt 25.5503 -51.0349 
vt 25.884 -50.9937 
vt 26.116 -50.9937 
vt 25.884 -50.9651 
vt 26.116 -50.9651 
vt 26.4497 -50.9651 
vt 26.1499 -50.9651 
vt 26.1499 -51.0349 
vt 26.4497 -51.0349 
vt 25.8501 -50.9651 
vt 25.5503 -50.9651 
vt 25.5503 -51.0349 
vt 25.8501 -51.0349 

usemtl Meshpart1Mtl

f 1/1/1 2/2/2 3/3/3 
f 2/2/2 1/1/1 4/4/4 
f 5/5/5 6/6/6 7/7/7 
f 6/6/6 5/5/5 8/8/8 
f 9/9/9 10/10/10 11/11/11 
f 11/11/11 10/10/10 12/12/12 
f 13/13/13 9/9/9 11/11/11 
f 14/14/14 9/9/9 13/13/13 
f 15/15/15 14/14/14 13/13/13 
f 16/16/16 14/14/14 15/15/15 
f 17/17/17 18/18/18 19/19/19 
f 19/19/19 18/18/18 20/20/20 
f 21/21/21 22/22/22 23/23/23 
f 23/23/23 22/22/22 24/24/24 
f 28/28/28 29/29/29 30/30/30 
f 30/30/30 31/31/31 28/28/28 
f 46/46/46 47/47/47 48/48/48 
f 46/46/46 48/48/48 49/49/49 
f 50/50/50 51/51/51 52/52/52 
f 51/51/51 50/50/50 53/53/53 
f 54/54/54 55/55/55 56/56/56 
f 56/56/56 55/55/55 57/57/57 
f 58/58/58 59/59/59 60/60/60 
f 59/59/59 58/58/58 61/61/61 
f 62/62/62 63/63/63 64/64/64 
f 62/62/62 64/64/64 65/65/65 
f 66/66/66 67/67/67 68/68/68 
f 67/67/67 66/66/66 69/69/69 
f 70/70/70 71/71/71 72/72/72 
f 71/71/71 70/70/70 73/73/73 
f 112/112/112 113/113/113 114/114/114 
f 113/113/113 112/112/112 115/115/115 
f 116/116/116 114/114/114 113/113/113 
f 116/116/116 112/112/112 114/114/114 
f 113/113/113 115/115/115 117/117/117 
f 115/115/115 112/112/112 118/118/118 
f 112/112/112 116/116/116 118/118/118 
f 118/118/118 116/116/116 119/119/119 
f 120/120/120 117/117/117 115/115/115 
f 121/121/121 119/119/119 116/116/116 
f 122/122/122 117/117/117 120/120/120 
f 123/123/123 122/122/122 120/120/120 
f 117/117/117 122/122/122 124/124/124 
f 117/117/117 124/124/124 125/125/125 
f 122/122/122 125/125/125 124/124/124 
f 125/125/125 122/122/122 123/123/123 
f 125/125/125 123/123/123 126/126/126 
f 127/127/127 126/126/126 123/123/123 
f 121/121/121 128/128/128 119/119/119 
f 119/119/119 128/128/128 129/129/129 
f 128/128/128 121/121/121 130/130/130 
f 131/131/131 130/130/130 121/121/121 
f 131/131/131 128/128/128 130/130/130 
f 128/128/128 131/131/131 129/129/129 
f 129/129/129 131/131/131 132/132/132 
f 133/133/133 132/132/132 131/131/131 
f 132/132/132 134/134/134 127/127/127 
f 133/133/133 134/134/134 132/132/132 
f 134/134/134 126/126/126 127/127/127 
f 126/126/126 135/135/135 133/133/133 
f 134/134/134 133/133/133 135/135/135 
f 126/126/126 134/134/134 135/135/135 
f 136/136/136 137/137/137 138/138/138 
f 137/137/137 136/136/136 139/139/139 
f 140/140/140 137/137/137 139/139/139 
f 136/136/136 140/140/140 139/139/139 
f 140/140/140 136/136/136 141/141/141 
f 136/136/136 142/142/142 141/141/141 
f 136/136/136 138/138/138 143/143/143 
f 144/144/144 141/141/141 142/142/142 
f 144/144/144 142/142/142 145/145/145 
f 145/145/145 142/142/142 146/146/146 
f 145/145/145 146/146/146 147/147/147 
f 148/148/148 144/144/144 145/145/145 
f 138/138/138 149/149/149 143/143/143 
f 149/149/149 150/150/150 143/143/143 
f 150/150/150 149/149/149 151/151/151 
f 149/149/149 138/138/138 152/152/152 
f 153/153/153 149/149/149 152/152/152 
f 148/148/148 154/154/154 144/144/144 
f 155/155/155 153/153/153 152/152/152 
f 154/154/154 148/148/148 156/156/156 
f 157/157/157 154/154/154 156/156/156 
f 148/148/148 157/157/157 156/156/156 
f 157/157/157 148/148/148 158/158/158 
f 148/148/148 159/159/159 158/158/158 
f 160/160/160 158/158/158 159/159/159 
f 153/153/153 155/155/155 161/161/161 
f 155/155/155 162/162/162 161/161/161 
f 162/162/162 153/153/153 161/161/161 
f 153/153/153 162/162/162 163/163/163 
f 153/153/153 163/163/163 164/164/164 
f 163/163/163 165/165/165 164/164/164 
f 163/163/163 166/166/166 165/165/165 
f 164/164/164 165/165/165 167/167/167 
f 164/164/164 167/167/167 168/168/168 
f 166/166/166 169/169/169 165/165/165 
f 170/170/170 169/169/169 166/166/166 
f 169/169/169 170/170/170 171/171/171 
f 170/170/170 172/172/172 171/171/171 
f 172/172/172 169/169/169 171/171/171 
f 169/169/169 172/172/172 160/160/160 
f 169/169/169 160/160/160 173/173/173 
f 159/159/159 173/173/173 160/160/160 
f 159/159/159 174/174/174 173/173/173 
f 174/174/174 159/159/159 175/175/175 
f 178/178/178 179/179/179 180/180/180 
f 181/181/181 180/180/180 179/179/179 
f 179/179/179 182/182/182 181/181/181 
f 183/183/183 181/181/181 182/182/182 
f 182/182/182 184/184/184 183/183/183 
f 185/185/185 183/183/183 184/184/184 
f 188/188/188 189/189/189 190/190/190 
f 188/188/188 190/190/190 191/191/191 
f 200/200/200 201/201/201 202/202/202 
f 201/201/201 200/200/200 203/203/203 
f 204/204/204 205/205/205 206/206/206 
f 205/205/205 207/207/207 206/206/206 
f 208/208/208 209/209/209 210/210/210 
f 209/209/209 208/208/208 211/211/211 
f 212/212/212 213/213/213 214/214/214 
f 212/212/212 214/214/214 215/215/215 
f 216/216/216 217/217/217 218/218/218 
f 216/216/216 218/218/218 219/219/219 
f 221/221/221 222/222/222 223/223/223 
f 222/222/222 221/221/221 224/224/224 
f 225/225/225 226/226/226 227/227/227 
f 226/226/226 228/228/228 227/227/227 
f 229/229/229 230/230/230 231/231/231 
f 231/231/231 230/230/230 232/232/232 
f 230/230/230 233/233/233 232/232/232 
f 232/232/232 233/233/233 234/234/234 
f 233/233/233 235/235/235 234/234/234 
f 234/234/234 235/235/235 236/236/236 
f 239/239/239 240/240/240 241/241/241 
f 241/241/241 240/240/240 242/242/242 
f 243/243/243 244/244/244 245/245/245 
f 243/243/243 245/245/245 246/246/246 
f 247/247/247 248/248/248 249/249/249 
f 248/248/248 247/247/247 250/250/250 
f 262/262/262 263/263/263 264/264/264 
f 262/262/262 264/264/264 265/265/265 
f 266/266/266 267/267/267 268/268/268 
f 268/268/268 267/267/267 269/269/269 
f 270/270/270 271/271/271 272/272/272 
f 271/271/271 270/270/270 273/273/273 
f 274/274/274 275/275/275 276/276/276 
f 274/274/274 276/276/276 277/277/277 
f 278/278/278 279/279/279 280/280/280 
f 278/278/278 280/280/280 281/281/281 
f 282/282/282 283/283/283 284/284/284 
f 283/283/283 282/282/282 285/285/285 
f 286/286/286 287/287/287 288/288/288 
f 287/287/287 286/286/286 289/289/289 
f 314/314/314 315/315/315 316/316/316 
f 314/314/314 316/316/316 317/317/317 
f 315/315/315 317/317/317 316/316/316 
f 315/315/315 314/314/314 318/318/318 
f 319/319/319 317/317/317 315/315/315 
f 319/319/319 320/320/320 317/317/317 
f 320/320/320 319/319/319 321/321/321 
f 320/320/320 321/321/321 322/322/322 
f 319/319/319 322/322/322 321/321/321 
f 323/323/323 322/322/322 319/319/319 
f 315/315/315 323/323/323 319/319/319 
f 323/323/323 324/324/324 322/322/322 
f 324/324/324 323/323/323 325/325/325 
f 324/324/324 325/325/325 326/326/326 
f 323/323/323 326/326/326 325/325/325 
f 327/327/327 326/326/326 323/323/323 
f 323/323/323 315/315/315 327/327/327 
f 315/315/315 318/318/318 327/327/327 
f 327/327/327 328/328/328 326/326/326 
f 328/328/328 329/329/329 318/318/318 
f 318/318/318 329/329/329 327/327/327 
f 328/328/328 327/327/327 329/329/329 
f 330/330/330 331/331/331 332/332/332 
f 333/333/333 330/330/330 332/332/332 
f 331/331/331 333/333/333 332/332/332 
f 331/331/331 330/330/330 334/334/334 
f 333/333/333 331/331/331 335/335/335 
f 335/335/335 331/331/331 336/336/336 
f 331/331/331 334/334/334 337/337/337 
f 338/338/338 335/335/335 336/336/336 
f 338/338/338 336/336/336 339/339/339 
f 339/339/339 336/336/336 340/340/340 
f 339/339/339 340/340/340 341/341/341 
f 342/342/342 338/338/338 339/339/339 
f 343/343/343 337/337/337 334/334/334 
f 343/343/343 344/344/344 337/337/337 
f 344/344/344 343/343/343 345/345/345 
f 334/334/334 346/346/346 343/343/343 
f 347/347/347 343/343/343 346/346/346 
f 342/342/342 348/348/348 338/338/338 
f 349/349/349 347/347/347 346/346/346 
f 348/348/348 342/342/342 350/350/350 
f 351/351/351 348/348/348 350/350/350 
f 342/342/342 351/351/351 350/350/350 
f 351/351/351 342/342/342 352/352/352 
f 342/342/342 353/353/353 352/352/352 
f 353/353/353 354/354/354 352/352/352 
f 347/347/347 349/349/349 355/355/355 
f 349/349/349 356/356/356 355/355/355 
f 356/356/356 347/347/347 355/355/355 
f 347/347/347 356/356/356 357/357/357 
f 347/347/347 357/357/357 358/358/358 
f 357/357/357 359/359/359 358/358/358 
f 357/357/357 360/360/360 359/359/359 
f 358/358/358 359/359/359 361/361/361 
f 358/358/358 361/361/361 362/362/362 
f 363/363/363 359/359/359 360/360/360 
f 364/364/364 363/363/363 360/360/360 
f 363/363/363 364/364/364 365/365/365 
f 364/364/364 366/366/366 365/365/365 
f 366/366/366 363/363/363 365/365/365 
f 363/363/363 366/366/366 354/354/354 
f 363/363/363 354/354/354 367/367/367 
f 354/354/354 353/353/353 367/367/367 
f 353/353/353 368/368/368 367/367/367 
f 368/368/368 353/353/353 369/369/369 
f 372/372/372 373/373/373 374/374/374 
f 373/373/373 372/372/372 375/375/375 
f 376/376/376 375/375/375 372/372/372 
f 375/375/375 376/376/376 377/377/377 
f 378/378/378 377/377/377 376/376/376 
f 377/377/377 378/378/378 379/379/379 
f 382/382/382 383/383/383 384/384/384 
f 382/382/382 384/384/384 385/385/385 
f 392/392/392 393/393/393 394/394/394 
f 393/393/393 392/392/392 395/395/395 
f 396/396/396 397/397/397 398/398/398 
f 397/397/397 399/399/399 398/398/398 
f 400/400/400 401/401/401 402/402/402 
f 403/403/403 402/402/402 401/401/401 
f 404/404/404 405/405/405 406/406/406 
f 404/404/404 406/406/406 407/407/407 
f 408/408/408 409/409/409 410/410/410 
f 408/408/408 410/410/410 411/411/411 

g Meshpart2

v -514.424 5.35991 2.56175 
v -506.847 5.35991 2.56175 
v -506.847 5.64035 2.56175 
v -514.424 5.64035 2.56175 
v -506.847 5.64035 -5.01537 
v -514.424 5.64035 2.56175 
v -506.847 5.64035 2.56175 
v -514.424 5.64035 -5.01537 
v -514.424 5.35991 -5.01537 
v -514.424 5.35991 2.56175 
v -514.424 5.64035 2.56175 
v -514.424 5.64035 -5.01537 
v -506.847 5.35991 -5.01537 
v -514.424 5.64035 -5.01537 
v -506.847 5.64035 -5.01537 
v -514.424 5.35991 -5.01537 
v -506.847 5.35991 2.56175 
v -514.424 5.35991 -5.01537 
v -506.847 5.35991 -5.01537 
v -514.424 5.35991 2.56175 
v -506.847 5.35991 2.56175 
v -506.847 5.64035 -5.01537 
v -506.847 5.64035 2.56175 
v -506.847 5.35991 -5.01537 

vn 0 0 1 
vn 0 0 1 
vn 0 0 1 
vn 0 0 1 
vn 0 1 0 
vn 0 1 0 
vn 0 1 0 
vn 0 1 0 
vn -1 0 0 
vn -1 0 0 
vn -1 0 0 
vn -1 0 0 
vn 0 0 -1 
vn 0 0 -1 
vn 0 0 -1 
vn 0 0 -1 
vn 0 -1 0 
vn 0 -1 0 
vn 0 -1 0 
vn 0 -1 0 
vn 1 0 0 
vn 1 0 0 
vn 1 0 0 
vn 1 0 0 

vt -3.18401 2.09405 
vt -2.23687 2.09405 
vt -2.23687 2.1291 
vt -3.18401 2.1291 
vt -2.23687 1.63801 
vt -3.18401 2.58515 
vt -3.18401 1.63801 
vt -2.23687 2.58515 
vt -3.18401 2.09405 
vt -2.23687 2.09405 
vt -2.23687 2.1291 
vt -3.18401 2.1291 
vt -3.18401 2.09405 
vt -2.23687 2.1291 
vt -3.18401 2.1291 
vt -2.23687 2.09405 
vt -2.23687 1.63801 
vt -3.18401 2.58515 
vt -3.18401 1.63801 
vt -2.23687 2.58515 
vt -3.18401 2.09405 
vt -2.23687 2.1291 
vt -3.18401 2.1291 
vt -2.23687 2.09405 

usemtl Meshpart2Mtl

f 412/412/412 413/413/413 414/414/414 
f 414/414/414 415/415/415 412/412/412 
f 416/416/416 417/417/417 418/418/418 
f 417/417/417 416/416/416 419/419/419 
f 420/420/420 421/421/421 422/422/422 
f 420/420/420 422/422/422 423/423/423 
f 424/424/424 425/425/425 426/426/426 
f 425/425/425 424/424/424 427/427/427 
f 428/428/428 429/429/429 430/430/430 
f 429/429/429 428/428/428 431/431/431 
f 432/432/432 433/433/433 434/434/434 
f 433/433/433 432/432/432 435/435/435 

g Meshpart3

v -506.266 5.95901 -3.7289 
v -506.266 5.14536 -3.7289 
v -506.266 5.95901 2.5289 
v -506.266 5.14536 2.5289 
v -506.932 5.14536 3.19457 
v -506.932 5.95901 3.19457 
v -507.189 5.14536 3.19457 
v -507.189 5.95901 3.19457 
v -508.112 5.14536 3.19457 
v -508.112 5.95901 3.19457 
v -515.005 5.95901 -3.7289 
v -515.005 5.14536 -3.7289 
v -515.005 5.14536 2.5289 
v -515.005 5.95901 2.5289 
v -514.339 5.14536 3.19457 
v -514.339 5.95901 3.19457 
v -514.082 5.14536 3.19457 
v -514.082 5.95901 3.19457 
v -513.16 5.14536 3.19457 
v -513.16 5.95901 3.19457 
v -510.006 5.83686 2.13102 
v -511.265 5.73949 2.13102 
v -510.006 5.73949 2.13102 
v -511.265 5.83686 2.13102 
v -507.189 5.14536 -4.65163 
v -513.16 5.14536 -4.65163 
v -507.189 5.95901 -4.65163 
v -513.16 5.95901 -4.65163 
v -512.734 5.83686 -1.22681 
v -513.993 5.73949 -0.597009 
v -512.734 5.73949 -1.22681 
v -513.993 5.83686 -0.597009 
v -507.278 5.73949 -0.597009 
v -508.537 5.83686 -1.22681 
v -508.537 5.73949 -1.22681 
v -507.278 5.83686 -0.597009 
v -506.266 5.95901 -3.7289 
v -507.189 5.95901 -3.7289 
v -506.266 5.14536 -3.7289 
v -507.189 5.14536 -3.7289 
v -514.082 5.95901 -3.7289 
v -515.005 5.14536 -3.7289 
v -514.082 5.14536 -3.7289 
v -515.005 5.95901 -3.7289 
v -507.189 5.95901 -4.65163 
v -508.112 5.95901 -4.65163 
v -507.189 5.14536 -4.65163 
v -508.112 5.14536 -4.65163 
v -513.16 5.95901 -4.65163 
v -514.082 5.14536 -4.65163 
v -513.16 5.14536 -4.65163 
v -514.082 5.95901 -4.65163 
v -506.266 5.14536 -4.98251 
v -506.266 5.95901 -3.7289 
v -506.932 5.95901 -5.64818 
v -508.112 5.14536 -5.64818 
v -508.112 5.95901 -5.64818 
v -506.266 5.95901 2.5289 
v -506.266 5.95901 1.27529 
v -506.266 5.14536 1.27529 
v -506.932 5.14536 3.19457 
v -508.112 5.14536 3.19457 
v -508.112 5.95901 3.19457 
v -515.005 5.14536 -4.98251 
v -515.005 5.95901 -3.7289 
v -514.339 5.14536 -5.64818 
v -514.339 5.95901 -5.64818 
v -513.16 5.95901 -5.64818 
v -515.005 5.14536 2.5289 
v -515.005 5.95901 1.27529 
v -515.005 5.14536 1.27529 
v -515.005 5.95901 2.5289 
v -514.339 5.14536 3.19457 
v -514.339 5.95901 3.19457 
v -513.16 5.14536 3.19457 
v -513.16 5.95901 3.19457 
v -510.006 5.83686 -4.58463 
v -511.265 5.83686 -4.58463 
v -510.006 5.83686 2.13102 
v -511.265 5.83686 2.13102 
v -507.278 5.83686 -1.8566 
v -507.278 5.83686 -0.597009 
v -513.993 5.83686 -0.597009 
v -513.993 5.83686 -1.8566 
v -507.189 5.14536 -4.65163 
v -508.112 5.14536 2.19802 
v -514.082 5.14536 1.27529 
v -513.16 5.14536 2.19802 
v -506.266 5.95901 -3.7289 
v -506.266 5.95901 -4.65163 
v -507.189 5.95901 -3.7289 
v -507.189 5.95901 -4.65163 
v -506.266 5.95901 -4.98251 
v -506.932 5.95901 -5.64818 
v -507.189 5.95901 -5.64818 
v -508.112 5.95901 -5.64818 
v -508.112 5.95901 -4.65163 
v -506.266 5.95901 1.27529 
v -507.189 5.95901 1.27529 
v -506.266 5.95901 2.19802 
v -507.189 5.95901 2.19802 
v -506.266 5.95901 2.5289 
v -506.932 5.95901 3.19457 
v -507.189 5.95901 3.19457 
v -508.112 5.95901 3.19457 
v -508.112 5.95901 2.19802 
v -514.082 5.95901 -3.7289 
v -514.082 5.95901 -4.65163 
v -515.005 5.95901 -4.65163 
v -515.005 5.95901 -3.7289 
v -515.005 5.95901 -4.98251 
v -514.339 5.95901 -5.64818 
v -514.082 5.95901 -5.64818 
v -513.16 5.95901 -5.64818 
v -513.16 5.95901 -4.65163 
v -514.082 5.95901 1.27529 
v -515.005 5.95901 2.19802 
v -514.082 5.95901 2.19802 
v -515.005 5.95901 1.27529 
v -515.005 5.95901 2.5289 
v -514.339 5.95901 3.19457 
v -514.082 5.95901 3.19457 
v -513.16 5.95901 3.19457 
v -513.16 5.95901 2.19802 
v -510.636 5.83686 0.871424 
v -511.265 5.83686 2.13102 
v -510.006 5.83686 2.13102 
v -510.636 5.83686 -3.32504 
v -510.006 5.83686 -4.58463 
v -511.265 5.83686 -4.58463 
v -512.734 5.83686 -1.22681 
v -513.993 5.83686 -1.8566 
v -513.993 5.83686 -0.597009 
v -508.537 5.83686 -1.22681 
v -507.278 5.83686 -0.597009 
v -507.278 5.83686 -1.8566 
v -508.112 5.14536 -5.64818 
v -508.112 5.95901 -5.64818 
v -508.112 5.14536 3.19457 
v -508.112 5.95901 3.19457 
v -515.005 5.14536 -4.65163 
v -515.005 5.95901 -4.65163 
v -515.005 5.14536 -4.98251 
v -515.005 5.95901 -3.7289 
v -515.005 5.14536 -3.7289 
v -515.005 5.95901 -4.98251 
v -514.339 5.14536 -5.64818 
v -514.339 5.95901 -5.64818 
v -515.005 5.95901 2.19802 
v -515.005 5.14536 2.19802 
v -515.005 5.14536 2.5289 
v -515.005 5.95901 1.27529 
v -515.005 5.14536 1.27529 
v -515.005 5.95901 2.5289 
v -514.339 5.95901 3.19457 
v -513.993 5.83686 -0.597009 
v -513.993 5.73949 -1.8566 
v -513.993 5.73949 -0.597009 
v -513.993 5.83686 -1.8566 
v -507.189 5.14536 -4.65163 
v -507.189 5.14536 1.27529 
v -507.189 5.95901 -4.65163 
v -507.189 5.95901 1.27529 
v -510.636 5.83686 -3.32504 
v -511.265 5.83686 -4.58463 
v -510.636 5.73949 -3.32504 
v -511.265 5.73949 -4.58463 
v -511.265 5.83686 2.13102 
v -510.636 5.73949 0.871424 
v -511.265 5.73949 2.13102 
v -510.636 5.83686 0.871424 
v -508.112 5.14536 -5.64818 
v -508.112 5.14536 -4.65163 
v -508.112 5.95901 -5.64818 
v -508.112 5.95901 -4.65163 
v -508.112 5.14536 3.19457 
v -508.112 5.95901 3.19457 
v -508.112 5.14536 2.19802 
v -508.112 5.95901 2.19802 
v -507.189 5.14536 -3.7289 
v -507.189 5.95901 -4.65163 
v -507.189 5.14536 -4.65163 
v -507.189 5.95901 -3.7289 
v -507.189 5.14536 1.27529 
v -507.189 5.14536 2.19802 
v -507.189 5.95901 2.19802 
v -507.189 5.95901 1.27529 
v -506.266 5.14536 -4.98251 
v -506.266 5.95901 -4.98251 
v -506.932 5.14536 -5.64818 
v -506.932 5.95901 -5.64818 
v -507.189 5.14536 -5.64818 
v -507.189 5.95901 -5.64818 
v -508.112 5.14536 -5.64818 
v -508.112 5.95901 -5.64818 
v -506.266 5.95901 1.27529 
v -506.266 5.14536 1.27529 
v -515.005 5.14536 -4.98251 
v -515.005 5.95901 -4.98251 
v -514.339 5.14536 -5.64818 
v -514.339 5.95901 -5.64818 
v -514.082 5.14536 -5.64818 
v -514.082 5.95901 -5.64818 
v -513.16 5.14536 -5.64818 
v -513.16 5.95901 -5.64818 
v -510.006 5.73949 -4.58463 
v -511.265 5.73949 -4.58463 
v -510.006 5.83686 -4.58463 
v -511.265 5.83686 -4.58463 
v -507.189 5.14536 1.27529 
v -508.112 5.14536 2.19802 
v -507.189 5.95901 1.27529 
v -512.734 5.73949 -1.22681 
v -513.993 5.73949 -1.8566 
v -512.734 5.83686 -1.22681 
v -513.993 5.83686 -1.8566 
v -508.537 5.83686 -1.22681 
v -507.278 5.83686 -1.8566 
v -507.278 5.73949 -1.8566 
v -508.537 5.73949 -1.22681 
v -506.266 5.95901 1.27529 
v -506.266 5.14536 1.27529 
v -507.189 5.95901 1.27529 
v -507.189 5.14536 1.27529 
v -514.082 5.95901 1.27529 
v -514.082 5.14536 1.27529 
v -515.005 5.14536 1.27529 
v -515.005 5.95901 1.27529 
v -507.189 5.95901 2.19802 
v -507.189 5.14536 2.19802 
v -508.112 5.95901 2.19802 
v -508.112 5.14536 2.19802 
v -513.16 5.95901 2.19802 
v -513.16 5.14536 2.19802 
v -514.082 5.14536 2.19802 
v -514.082 5.95901 2.19802 
v -506.266 5.14536 -4.98251 
v -506.266 5.95901 -3.7289 
v -506.266 5.14536 -3.7289 
v -508.112 5.14536 -5.64818 
v -506.266 5.95901 2.5289 
v -506.266 5.14536 2.5289 
v -506.266 5.14536 1.27529 
v -506.932 5.14536 3.19457 
v -508.112 5.14536 3.19457 
v -515.005 5.14536 -4.98251 
v -515.005 5.95901 -3.7289 
v -515.005 5.14536 -3.7289 
v -514.339 5.14536 -5.64818 
v -513.16 5.14536 -5.64818 
v -513.16 5.95901 -5.64818 
v -515.005 5.14536 2.5289 
v -515.005 5.95901 1.27529 
v -515.005 5.14536 1.27529 
v -515.005 5.95901 2.5289 
v -514.339 5.14536 3.19457 
v -514.339 5.95901 3.19457 
v -513.16 5.14536 3.19457 
v -513.16 5.95901 3.19457 
v -506.266 5.14536 -3.7289 
v -507.189 5.14536 -4.65163 
v -506.266 5.14536 -4.65163 
v -507.189 5.14536 -3.7289 
v -506.266 5.14536 -4.98251 
v -506.932 5.14536 -5.64818 
v -507.189 5.14536 -5.64818 
v -508.112 5.14536 -4.65163 
v -508.112 5.14536 -5.64818 
v -506.266 5.14536 1.27529 
v -506.266 5.14536 2.19802 
v -507.189 5.14536 2.19802 
v -507.189 5.14536 1.27529 
v -506.266 5.14536 2.5289 
v -506.932 5.14536 3.19457 
v -507.189 5.14536 3.19457 
v -508.112 5.14536 2.19802 
v -508.112 5.14536 3.19457 
v -515.005 5.14536 -3.7289 
v -514.082 5.14536 -4.65163 
v -514.082 5.14536 -3.7289 
v -515.005 5.14536 -4.65163 
v -515.005 5.14536 -4.98251 
v -514.339 5.14536 -5.64818 
v -514.082 5.14536 -5.64818 
v -513.16 5.14536 -4.65163 
v -513.16 5.14536 -5.64818 
v -514.082 5.14536 1.27529 
v -514.082 5.14536 2.19802 
v -515.005 5.14536 1.27529 
v -515.005 5.14536 2.19802 
v -515.005 5.14536 2.5289 
v -514.339 5.14536 3.19457 
v -514.082 5.14536 3.19457 
v -513.16 5.14536 2.19802 
v -513.16 5.14536 3.19457 
v -506.266 5.95901 -4.65163 
v -506.266 5.14536 -4.98251 
v -506.266 5.95901 -4.98251 
v -506.266 5.14536 -4.65163 
v -506.266 5.95901 -3.7289 
v -506.266 5.14536 -3.7289 
v -506.932 5.95901 -5.64818 
v -506.266 5.95901 2.5289 
v -506.266 5.14536 2.5289 
v -506.266 5.95901 2.19802 
v -506.266 5.14536 2.19802 
v -506.266 5.95901 1.27529 
v -506.266 5.14536 1.27529 
v -513.16 5.14536 -5.64818 
v -513.16 5.95901 -5.64818 
v -507.278 5.83686 -1.8566 
v -507.278 5.83686 -0.597009 
v -507.278 5.73949 -0.597009 
v -507.278 5.73949 -1.8566 
v -513.16 5.14536 -4.65163 
v -514.082 5.95901 -3.7289 
v -513.16 5.95901 -4.65163 
v -510.636 5.83686 -3.32504 
v -510.006 5.73949 -4.58463 
v -510.006 5.83686 -4.58463 
v -510.636 5.73949 -3.32504 
v -510.636 5.83686 0.871424 
v -510.006 5.83686 2.13102 
v -510.006 5.73949 2.13102 
v -510.636 5.73949 0.871424 
v -513.16 5.95901 -5.64818 
v -513.16 5.95901 -4.65163 
v -513.16 5.14536 -4.65163 
v -513.16 5.14536 -5.64818 
v -513.16 5.95901 3.19457 
v -513.16 5.14536 2.19802 
v -513.16 5.95901 2.19802 
v -513.16 5.14536 3.19457 
v -514.082 5.95901 -3.7289 
v -514.082 5.14536 -3.7289 
v -514.082 5.95901 -4.65163 
v -514.082 5.14536 -4.65163 
v -514.082 5.95901 1.27529 
v -514.082 5.95901 2.19802 
v -514.082 5.14536 1.27529 
v -514.082 5.14536 2.19802 

vn 1 0 0 
vn 1 0 0 
vn 0.92126 0 0.385827 
vn 0.92126 0 0.385827 
vn 0.385827 0 0.92126 
vn 0.385827 0 0.92126 
vn 0 0 1 
vn 0 0 1 
vn 0 0 1 
vn 0 0 1 
vn -1 0 0 
vn -1 0 0 
vn -0.92126 0 0.385827 
vn -0.92126 0 0.385827 
vn -0.385827 0 0.92126 
vn -0.385827 0 0.92126 
vn 0 0 1 
vn 0 0 1 
vn 0 0 1 
vn 0 0 1 
vn 0 0 1 
vn 0 0 1 
vn 0 0 1 
vn 0 0 1 
vn 0 -1 0 
vn 0 -1 0 
vn 0 1 0 
vn 0 1 0 
vn 0.448819 0 0.897638 
vn 0.448819 0 0.897638 
vn 0.448819 0 0.897638 
vn 0.448819 0 0.897638 
vn -0.448819 0 0.897638 
vn -0.448819 0 0.897638 
vn -0.448819 0 0.897638 
vn -0.448819 0 0.897638 
vn 0 0 1 
vn 0 0 1 
vn 0 0 1 
vn 0 0 1 
vn 0 0 1 
vn 0 0 1 
vn 0 0 1 
vn 0 0 1 
vn 0 0 1 
vn 0 0 1 
vn 0 0 1 
vn 0 0 1 
vn 0 0 1 
vn 0 0 1 
vn 0 0 1 
vn 0 0 1 
vn 0.92126 0 -0.385827 
vn 1 0 0 
vn 0.385827 0 -0.92126 
vn 0 0 -1 
vn 0 0 -1 
vn 0.92126 0 0.385827 
vn 1 0 0 
vn 1 0 0 
vn 0.385827 0 0.92126 
vn 0 0 1 
vn 0 0 1 
vn -0.92126 0 -0.385827 
vn -1 0 0 
vn -0.385827 0 -0.92126 
vn -0.385827 0 -0.92126 
vn 0 0 -1 
vn -0.92126 0 0.385827 
vn -1 0 0 
vn -1 0 0 
vn -0.92126 0 0.385827 
vn -0.385827 0 0.92126 
vn -0.385827 0 0.92126 
vn 0 0 1 
vn 0 0 1 
vn 0 0 -1 
vn 0 0 -1 
vn 0 0 1 
vn 0 0 1 
vn 1 0 0 
vn 1 0 0 
vn -1 0 0 
vn -1 0 0 
vn 0 -1 0 
vn 0 -1 0 
vn 0 -1 0 
vn 0 -1 0 
vn 0 1 0 
vn 0 1 0 
vn 0 1 0 
vn 0 1 0 
vn 0 1 0 
vn 0 1 0 
vn 0 1 0 
vn 0 1 0 
vn 0 1 0 
vn 0 1 0 
vn 0 1 0 
vn 0 1 0 
vn 0 1 0 
vn 0 1 0 
vn 0 1 0 
vn 0 1 0 
vn 0 1 0 
vn 0 1 0 
vn 0 1 0 
vn 0 1 0 
vn 0 1 0 
vn 0 1 0 
vn 0 1 0 
vn 0 1 0 
vn 0 1 0 
vn 0 1 0 
vn 0 1 0 
vn 0 1 0 
vn 0 1 0 
vn 0 1 0 
vn 0 1 0 
vn 0 1 0 
vn 0 1 0 
vn 0 1 0 
vn 0 1 0 
vn 0 1 0 
vn 0 1 0 
vn 0 1 0 
vn 0 1 0 
vn 0 1 0 
vn 0 1 0 
vn 0 1 0 
vn 0 1 0 
vn 0 1 0 
vn 0 1 0 
vn 0 1 0 
vn 0 1 0 
vn 0 1 0 
vn 0 0 -1 
vn 0 0 -1 
vn 0 0 1 
vn 0 0 1 
vn -1 0 0 
vn -1 0 0 
vn -0.92126 0 -0.385827 
vn -1 0 0 
vn -1 0 0 
vn -0.92126 0 -0.385827 
vn -0.385827 0 -0.92126 
vn -0.385827 0 -0.92126 
vn -1 0 0 
vn -1 0 0 
vn -0.92126 0 0.385827 
vn -1 0 0 
vn -1 0 0 
vn -0.92126 0 0.385827 
vn -0.385827 0 0.92126 
vn -1 0 0 
vn -1 0 0 
vn -1 0 0 
vn -1 0 0 
vn 0 -1 0 
vn 0 -1 0 
vn 0 1 0 
vn 0 1 0 
vn -0.897638 0 0.448819 
vn -0.897638 0 0.448819 
vn -0.897638 0 0.448819 
vn -0.897638 0 0.448819 
vn -0.897638 0 -0.448819 
vn -0.897638 0 -0.448819 
vn -0.897638 0 -0.448819 
vn -0.897638 0 -0.448819 
vn -1 0 0 
vn -1 0 0 
vn -1 0 0 
vn -1 0 0 
vn -1 0 0 
vn -1 0 0 
vn -1 0 0 
vn -1 0 0 
vn -1 0 0 
vn -1 0 0 
vn -1 0 0 
vn -1 0 0 
vn -1 0 0 
vn -1 0 0 
vn -1 0 0 
vn -1 0 0 
vn 0.92126 0 -0.385827 
vn 0.92126 0 -0.385827 
vn 0.385827 0 -0.92126 
vn 0.385827 0 -0.92126 
vn 0 0 -1 
vn 0 0 -1 
vn 0 0 -1 
vn 0 0 -1 
vn 1 0 0 
vn 1 0 0 
vn -0.92126 0 -0.385827 
vn -0.92126 0 -0.385827 
vn -0.385827 0 -0.92126 
vn -0.385827 0 -0.92126 
vn 0 0 -1 
vn 0 0 -1 
vn 0 0 -1 
vn 0 0 -1 
vn 0 0 -1 
vn 0 0 -1 
vn 0 0 -1 
vn 0 0 -1 
vn 0 -1 0 
vn 0 -1 0 
vn 0 1 0 
vn 0.448819 0 -0.897638 
vn 0.448819 0 -0.897638 
vn 0.448819 0 -0.897638 
vn 0.448819 0 -0.897638 
vn -0.448819 0 -0.897638 
vn -0.448819 0 -0.897638 
vn -0.448819 0 -0.897638 
vn -0.448819 0 -0.897638 
vn 0 0 -1 
vn 0 0 -1 
vn 0 0 -1 
vn 0 0 -1 
vn 0 0 -1 
vn 0 0 -1 
vn 0 0 -1 
vn 0 0 -1 
vn 0 0 -1 
vn 0 0 -1 
vn 0 0 -1 
vn 0 0 -1 
vn 0 0 -1 
vn 0 0 -1 
vn 0 0 -1 
vn 0 0 -1 
vn 0.92126 0 -0.385827 
vn 1 0 0 
vn 1 0 0 
vn 0 0 -1 
vn 0.92126 0 0.385827 
vn 0.92126 0 0.385827 
vn 1 0 0 
vn 0.385827 0 0.92126 
vn 0 0 1 
vn -0.92126 0 -0.385827 
vn -1 0 0 
vn -1 0 0 
vn -0.385827 0 -0.92126 
vn 0 0 -1 
vn 0 0 -1 
vn -0.92126 0 0.385827 
vn -1 0 0 
vn -1 0 0 
vn -0.92126 0 0.385827 
vn -0.385827 0 0.92126 
vn -0.385827 0 0.92126 
vn 0 0 1 
vn 0 0 1 
vn 0 -1 0 
vn 0 -1 0 
vn 0 -1 0 
vn 0 -1 0 
vn 0 -1 0 
vn 0 -1 0 
vn 0 -1 0 
vn 0 -1 0 
vn 0 -1 0 
vn 0 -1 0 
vn 0 -1 0 
vn 0 -1 0 
vn 0 -1 0 
vn 0 -1 0 
vn 0 -1 0 
vn 0 -1 0 
vn 0 -1 0 
vn 0 -1 0 
vn 0 -1 0 
vn 0 -1 0 
vn 0 -1 0 
vn 0 -1 0 
vn 0 -1 0 
vn 0 -1 0 
vn 0 -1 0 
vn 0 -1 0 
vn 0 -1 0 
vn 0 -1 0 
vn 0 -1 0 
vn 0 -1 0 
vn 0 -1 0 
vn 0 -1 0 
vn 0 -1 0 
vn 0 -1 0 
vn 0 -1 0 
vn 0 -1 0 
vn 1 0 0 
vn 0.92126 0 -0.385827 
vn 0.92126 0 -0.385827 
vn 1 0 0 
vn 1 0 0 
vn 1 0 0 
vn 0.385827 0 -0.92126 
vn 0.92126 0 0.385827 
vn 0.92126 0 0.385827 
vn 1 0 0 
vn 1 0 0 
vn 1 0 0 
vn 1 0 0 
vn 0 0 -1 
vn 0 0 -1 
vn 1 0 0 
vn 1 0 0 
vn 1 0 0 
vn 1 0 0 
vn 0 -1 0 
vn 0 1 0 
vn 0 1 0 
vn 0.897638 0 0.448819 
vn 0.897638 0 0.448819 
vn 0.897638 0 0.448819 
vn 0.897638 0 0.448819 
vn 0.897638 0 -0.448819 
vn 0.897638 0 -0.448819 
vn 0.897638 0 -0.448819 
vn 0.897638 0 -0.448819 
vn 1 0 0 
vn 1 0 0 
vn 1 0 0 
vn 1 0 0 
vn 1 0 0 
vn 1 0 0 
vn 1 0 0 
vn 1 0 0 
vn 1 0 0 
vn 1 0 0 
vn 1 0 0 
vn 1 0 0 
vn 1 0 0 
vn 1 0 0 
vn 1 0 0 
vn 1 0 0 

vt 34.5462 -60.9491 
vt 34.5462 -61.0509 
vt 34.5462 -60.9491 
vt 34.5462 -61.0509 
vt 34.463 -61.0509 
vt 34.463 -60.9491 
vt 34.4308 -61.0509 
vt 34.4308 -60.9491 
vt 34.3155 -61.0509 
vt 34.3155 -60.9491 
vt 33.4538 -60.9491 
vt 33.4538 -61.0509 
vt 33.4538 -61.0509 
vt 33.4538 -60.9491 
vt 33.537 -61.0509 
vt 33.537 -60.9491 
vt 33.5692 -61.0509 
vt 33.5692 -60.9491 
vt 33.6845 -61.0509 
vt 33.6845 -60.9491 
vt 34.0787 -60.9644 
vt 33.9213 -60.9766 
vt 34.0787 -60.9766 
vt 33.9213 -60.9644 
vt 34.4308 -61.0509 
vt 33.6845 -61.0509 
vt 34.4308 -60.9491 
vt 33.6845 -60.9491 
vt 33.7377 -60.9644 
vt 33.5803 -60.9766 
vt 33.7377 -60.9766 
vt 33.5803 -60.9644 
vt 34.4197 -60.9766 
vt 34.2623 -60.9644 
vt 34.2623 -60.9766 
vt 34.4197 -60.9644 
vt 34.5462 -60.9491 
vt 34.4308 -60.9491 
vt 34.5462 -61.0509 
vt 34.4308 -61.0509 
vt 33.5692 -60.9491 
vt 33.4538 -61.0509 
vt 33.5692 -61.0509 
vt 33.4538 -60.9491 
vt 34.4308 -60.9491 
vt 34.3155 -60.9491 
vt 34.4308 -61.0509 
vt 34.3155 -61.0509 
vt 33.6845 -60.9491 
vt 33.5692 -61.0509 
vt 33.6845 -61.0509 
vt 33.5692 -60.9491 
vt 34.4695 -61.5462 
vt 34.3128 -61.5462 
vt 34.5527 -61.463 
vt 34.5527 -61.3155 
vt 34.5527 -61.3155 
vt 33.5305 -61.5462 
vt 33.6872 -61.5462 
vt 33.6872 -61.5462 
vt 33.4473 -61.463 
vt 33.4473 -61.3155 
vt 33.4473 -61.3155 
vt 34.4695 -60.4538 
vt 34.3128 -60.4538 
vt 34.5527 -60.537 
vt 34.5527 -60.537 
vt 34.5527 -60.6845 
vt 33.5305 -60.4538 
vt 33.6872 -60.4538 
vt 33.6872 -60.4538 
vt 33.5305 -60.4538 
vt 33.4473 -60.537 
vt 33.4473 -60.537 
vt 33.4473 -60.6845 
vt 33.4473 -60.6845 
vt 34.4197 -61.0787 
vt 34.4197 -60.9213 
vt 33.5803 -61.0787 
vt 33.5803 -60.9213 
vt 34.0787 -61.4197 
vt 33.9213 -61.4197 
vt 33.9213 -60.5803 
vt 34.0787 -60.5803 
vt 34.4281 -61.4308 
vt 33.5719 -61.3155 
vt 33.6872 -60.5692 
vt 33.5719 -60.6845 
vt 34.3128 -61.5462 
vt 34.4281 -61.5462 
vt 34.3128 -61.4308 
vt 34.4281 -61.4308 
vt 34.4695 -61.5462 
vt 34.5527 -61.463 
vt 34.5527 -61.4308 
vt 34.5527 -61.3155 
vt 34.4281 -61.3155 
vt 33.6872 -61.5462 
vt 33.6872 -61.4308 
vt 33.5719 -61.5462 
vt 33.5719 -61.4308 
vt 33.5305 -61.5462 
vt 33.4473 -61.463 
vt 33.4473 -61.4308 
vt 33.4473 -61.3155 
vt 33.5719 -61.3155 
vt 34.3128 -60.5692 
vt 34.4281 -60.5692 
vt 34.4281 -60.4538 
vt 34.3128 -60.4538 
vt 34.4695 -60.4538 
vt 34.5527 -60.537 
vt 34.5527 -60.5692 
vt 34.5527 -60.6845 
vt 34.4281 -60.6845 
vt 33.6872 -60.5692 
vt 33.5719 -60.4538 
vt 33.5719 -60.5692 
vt 33.6872 -60.4538 
vt 33.5305 -60.4538 
vt 33.4473 -60.537 
vt 33.4473 -60.5692 
vt 33.4473 -60.6845 
vt 33.5719 -60.6845 
vt 33.7377 -61 
vt 33.5803 -60.9213 
vt 33.5803 -61.0787 
vt 34.2623 -61 
vt 34.4197 -61.0787 
vt 34.4197 -60.9213 
vt 34 -60.7377 
vt 34.0787 -60.5803 
vt 33.9213 -60.5803 
vt 34 -61.2623 
vt 33.9213 -61.4197 
vt 34.0787 -61.4197 
vt 33.4473 -61.0509 
vt 33.4473 -60.9491 
vt 34.5527 -61.0509 
vt 34.5527 -60.9491 
vt 33.5719 -61.0509 
vt 33.5719 -60.9491 
vt 33.5305 -61.0509 
vt 33.6872 -60.9491 
vt 33.6872 -61.0509 
vt 33.5305 -60.9491 
vt 33.4473 -61.0509 
vt 33.4473 -60.9491 
vt 34.4281 -60.9491 
vt 34.4281 -61.0509 
vt 34.4695 -61.0509 
vt 34.3128 -60.9491 
vt 34.3128 -61.0509 
vt 34.4695 -60.9491 
vt 34.5527 -60.9491 
vt 34.0787 -60.9644 
vt 33.9213 -60.9766 
vt 34.0787 -60.9766 
vt 33.9213 -60.9644 
vt 33.5719 -61.0509 
vt 34.3128 -61.0509 
vt 33.5719 -60.9491 
vt 34.3128 -60.9491 
vt 33.7377 -60.9644 
vt 33.5803 -60.9644 
vt 33.7377 -60.9766 
vt 33.5803 -60.9766 
vt 34.4197 -60.9644 
vt 34.2623 -60.9766 
vt 34.4197 -60.9766 
vt 34.2623 -60.9644 
vt 33.4473 -61.0509 
vt 33.5719 -61.0509 
vt 33.4473 -60.9491 
vt 33.5719 -60.9491 
vt 34.5527 -61.0509 
vt 34.5527 -60.9491 
vt 34.4281 -61.0509 
vt 34.4281 -60.9491 
vt 33.6872 -61.0509 
vt 33.5719 -60.9491 
vt 33.5719 -61.0509 
vt 33.6872 -60.9491 
vt 34.3128 -61.0509 
vt 34.4281 -61.0509 
vt 34.4281 -60.9491 
vt 34.3128 -60.9491 
vt 33.4538 -61.0509 
vt 33.4538 -60.9491 
vt 33.537 -61.0509 
vt 33.537 -60.9491 
vt 33.5692 -61.0509 
vt 33.5692 -60.9491 
vt 33.6845 -61.0509 
vt 33.6845 -60.9491 
vt 33.4538 -60.9491 
vt 33.4538 -61.0509 
vt 34.5462 -61.0509 
vt 34.5462 -60.9491 
vt 34.463 -61.0509 
vt 34.463 -60.9491 
vt 34.4308 -61.0509 
vt 34.4308 -60.9491 
vt 34.3155 -61.0509 
vt 34.3155 -60.9491 
vt 33.9213 -60.9766 
vt 34.0787 -60.9766 
vt 33.9213 -60.9644 
vt 34.0787 -60.9644 
vt 33.5692 -61.0509 
vt 33.6845 -61.0509 
vt 33.5692 -60.9491 
vt 34.2623 -60.9766 
vt 34.4197 -60.9766 
vt 34.2623 -60.9644 
vt 34.4197 -60.9644 
vt 33.7377 -60.9644 
vt 33.5803 -60.9644 
vt 33.5803 -60.9766 
vt 33.7377 -60.9766 
vt 33.4538 -60.9491 
vt 33.4538 -61.0509 
vt 33.5692 -60.9491 
vt 33.5692 -61.0509 
vt 34.4308 -60.9491 
vt 34.4308 -61.0509 
vt 34.5462 -61.0509 
vt 34.5462 -60.9491 
vt 33.5692 -60.9491 
vt 33.5692 -61.0509 
vt 33.6845 -60.9491 
vt 33.6845 -61.0509 
vt 34.3155 -60.9491 
vt 34.3155 -61.0509 
vt 34.4308 -61.0509 
vt 34.4308 -60.9491 
vt 33.5305 -61.5462 
vt 33.6872 -61.5462 
vt 33.6872 -61.5462 
vt 33.4473 -61.3155 
vt 34.4695 -61.5462 
vt 34.4695 -61.5462 
vt 34.3128 -61.5462 
vt 34.5527 -61.463 
vt 34.5527 -61.3155 
vt 33.5305 -60.4538 
vt 33.6872 -60.4538 
vt 33.6872 -60.4538 
vt 33.4473 -60.537 
vt 33.4473 -60.6845 
vt 33.4473 -60.6845 
vt 34.4695 -60.4538 
vt 34.3128 -60.4538 
vt 34.3128 -60.4538 
vt 34.4695 -60.4538 
vt 34.5527 -60.537 
vt 34.5527 -60.537 
vt 34.5527 -60.6845 
vt 34.5527 -60.6845 
vt 33.6872 -61.5462 
vt 33.5719 -61.4308 
vt 33.5719 -61.5462 
vt 33.6872 -61.4308 
vt 33.5305 -61.5462 
vt 33.4473 -61.463 
vt 33.4473 -61.4308 
vt 33.5719 -61.3155 
vt 33.4473 -61.3155 
vt 34.3128 -61.5462 
vt 34.4281 -61.5462 
vt 34.4281 -61.4308 
vt 34.3128 -61.4308 
vt 34.4695 -61.5462 
vt 34.5527 -61.463 
vt 34.5527 -61.4308 
vt 34.4281 -61.3155 
vt 34.5527 -61.3155 
vt 33.6872 -60.4538 
vt 33.5719 -60.5692 
vt 33.6872 -60.5692 
vt 33.5719 -60.4538 
vt 33.5305 -60.4538 
vt 33.4473 -60.537 
vt 33.4473 -60.5692 
vt 33.5719 -60.6845 
vt 33.4473 -60.6845 
vt 34.3128 -60.5692 
vt 34.4281 -60.5692 
vt 34.3128 -60.4538 
vt 34.4281 -60.4538 
vt 34.4695 -60.4538 
vt 34.5527 -60.537 
vt 34.5527 -60.5692 
vt 34.4281 -60.6845 
vt 34.5527 -60.6845 
vt 34.4281 -60.9491 
vt 34.4695 -61.0509 
vt 34.4695 -60.9491 
vt 34.4281 -61.0509 
vt 34.3128 -60.9491 
vt 34.3128 -61.0509 
vt 34.5527 -60.9491 
vt 33.5305 -60.9491 
vt 33.5305 -61.0509 
vt 33.5719 -60.9491 
vt 33.5719 -61.0509 
vt 33.6872 -60.9491 
vt 33.6872 -61.0509 
vt 34.5527 -61.0509 
vt 34.5527 -60.9491 
vt 34.0787 -60.9644 
vt 33.9213 -60.9644 
vt 33.9213 -60.9766 
vt 34.0787 -60.9766 
vt 34.4281 -61.0509 
vt 34.3128 -60.9491 
vt 34.4281 -60.9491 
vt 34.2623 -60.9644 
vt 34.4197 -60.9766 
vt 34.4197 -60.9644 
vt 34.2623 -60.9766 
vt 33.7377 -60.9644 
vt 33.5803 -60.9644 
vt 33.5803 -60.9766 
vt 33.7377 -60.9766 
vt 34.5527 -60.9491 
vt 34.4281 -60.9491 
vt 34.4281 -61.0509 
vt 34.5527 -61.0509 
vt 33.4473 -60.9491 
vt 33.5719 -61.0509 
vt 33.5719 -60.9491 
vt 33.4473 -61.0509 
vt 34.3128 -60.9491 
vt 34.3128 -61.0509 
vt 34.4281 -60.9491 
vt 34.4281 -61.0509 
vt 33.6872 -60.9491 
vt 33.5719 -60.9491 
vt 33.6872 -61.0509 
vt 33.5719 -61.0509 

usemtl Meshpart3Mtl

f 438/438/438 440/440/440 439/439/439 
f 440/440/440 438/438/438 441/441/441 
f 441/441/441 442/442/442 440/440/440 
f 442/442/442 441/441/441 443/443/443 
f 442/442/442 443/443/443 444/444/444 
f 443/443/443 445/445/445 444/444/444 
f 450/450/450 449/449/449 448/448/448 
f 449/449/449 450/450/450 451/451/451 
f 452/452/452 451/451/451 450/450/450 
f 452/452/452 453/453/453 451/451/451 
f 454/454/454 453/453/453 452/452/452 
f 454/454/454 455/455/455 453/453/453 
f 456/456/456 457/457/457 458/458/458 
f 457/457/457 456/456/456 459/459/459 
f 464/464/464 465/465/465 466/466/466 
f 465/465/465 464/464/464 467/467/467 
f 468/468/468 469/469/469 470/470/470 
f 469/469/469 468/468/468 471/471/471 
f 472/472/472 473/473/473 474/474/474 
f 474/474/474 473/473/473 475/475/475 
f 476/476/476 477/477/477 478/478/478 
f 477/477/477 476/476/476 479/479/479 
f 480/480/480 481/481/481 482/482/482 
f 482/482/482 481/481/481 483/483/483 
f 484/484/484 485/485/485 486/486/486 
f 485/485/485 484/484/484 487/487/487 
f 524/524/524 525/525/525 526/526/526 
f 525/525/525 527/527/527 526/526/526 
f 528/528/528 527/527/527 525/525/525 
f 529/529/529 527/527/527 528/528/528 
f 527/527/527 529/529/529 530/530/530 
f 530/530/530 531/531/531 527/527/527 
f 527/527/527 531/531/531 532/532/532 
f 533/533/533 534/534/534 535/535/535 
f 535/535/535 534/534/534 536/536/536 
f 536/536/536 537/537/537 535/535/535 
f 536/536/536 538/538/538 537/537/537 
f 538/538/538 536/536/536 539/539/539 
f 539/539/539 536/536/536 540/540/540 
f 536/536/536 541/541/541 540/540/540 
f 542/542/542 543/543/543 544/544/544 
f 542/542/542 544/544/544 545/545/545 
f 543/543/543 546/546/546 544/544/544 
f 543/543/543 547/547/547 546/546/546 
f 547/547/547 543/543/543 548/548/548 
f 543/543/543 549/549/549 548/548/548 
f 549/549/549 543/543/543 550/550/550 
f 551/551/551 552/552/552 553/553/553 
f 552/552/552 551/551/551 554/554/554 
f 555/555/555 553/553/553 552/552/552 
f 556/556/556 553/553/553 555/555/555 
f 553/553/553 556/556/556 557/557/557 
f 558/558/558 553/553/553 557/557/557 
f 558/558/558 559/559/559 553/553/553 
f 560/560/560 561/561/561 562/562/562 
f 563/563/563 564/564/564 565/565/565 
f 566/566/566 567/567/567 568/568/568 
f 569/569/569 570/570/570 571/571/571 
f 576/576/576 577/577/577 578/578/578 
f 576/576/576 579/579/579 577/577/577 
f 580/580/580 579/579/579 576/576/576 
f 578/578/578 577/577/577 581/581/581 
f 584/584/584 585/585/585 586/586/586 
f 585/585/585 584/584/584 587/587/587 
f 588/588/588 585/585/585 587/587/587 
f 586/586/586 589/589/589 584/584/584 
f 591/591/591 592/592/592 593/593/593 
f 592/592/592 591/591/591 594/594/594 
f 599/599/599 600/600/600 601/601/601 
f 602/602/602 601/601/601 600/600/600 
f 603/603/603 604/604/604 605/605/605 
f 604/604/604 603/603/603 606/606/606 
f 607/607/607 608/608/608 609/609/609 
f 608/608/608 610/610/610 609/609/609 
f 611/611/611 612/612/612 613/613/613 
f 613/613/613 612/612/612 614/614/614 
f 615/615/615 616/616/616 617/617/617 
f 616/616/616 615/615/615 618/618/618 
f 619/619/619 620/620/620 621/621/621 
f 619/619/619 621/621/621 622/622/622 
f 624/624/624 623/623/623 625/625/625 
f 626/626/626 624/624/624 625/625/625 
f 626/626/626 625/625/625 627/627/627 
f 626/626/626 627/627/627 628/628/628 
f 629/629/629 628/628/628 627/627/627 
f 628/628/628 629/629/629 630/630/630 
f 635/635/635 633/633/633 634/634/634 
f 635/635/635 634/634/634 636/636/636 
f 635/635/635 636/636/636 637/637/637 
f 638/638/638 637/637/637 636/636/636 
f 638/638/638 639/639/639 637/637/637 
f 639/639/639 638/638/638 640/640/640 
f 641/641/641 642/642/642 643/643/643 
f 643/643/643 642/642/642 644/644/644 
f 648/648/648 649/649/649 650/650/650 
f 650/650/650 649/649/649 651/651/651 
f 652/652/652 653/653/653 654/654/654 
f 654/654/654 655/655/655 652/652/652 
f 656/656/656 657/657/657 658/658/658 
f 657/657/657 659/659/659 658/658/658 
f 660/660/660 661/661/661 662/662/662 
f 660/660/660 662/662/662 663/663/663 
f 664/664/664 665/665/665 666/666/666 
f 665/665/665 667/667/667 666/666/666 
f 668/668/668 669/669/669 670/670/670 
f 668/668/668 670/670/670 671/671/671 
f 695/695/695 696/696/696 697/697/697 
f 696/696/696 695/695/695 698/698/698 
f 697/697/697 696/696/696 699/699/699 
f 696/696/696 700/700/700 699/699/699 
f 700/700/700 696/696/696 701/701/701 
f 702/702/702 701/701/701 696/696/696 
f 701/701/701 702/702/702 703/703/703 
f 704/704/704 705/705/705 706/706/706 
f 704/704/704 706/706/706 707/707/707 
f 708/708/708 706/706/706 705/705/705 
f 706/706/706 708/708/708 709/709/709 
f 706/706/706 709/709/709 710/710/710 
f 706/706/706 710/710/710 711/711/711 
f 710/710/710 712/712/712 711/711/711 
f 713/713/713 714/714/714 715/715/715 
f 714/714/714 713/713/713 716/716/716 
f 714/714/714 716/716/716 717/717/717 
f 717/717/717 718/718/718 714/714/714 
f 719/719/719 714/714/714 718/718/718 
f 719/719/719 720/720/720 714/714/714 
f 720/720/720 719/719/719 721/721/721 
f 722/722/722 723/723/723 724/724/724 
f 723/723/723 725/725/725 724/724/724 
f 723/723/723 726/726/726 725/725/725 
f 726/726/726 723/723/723 727/727/727 
f 723/723/723 728/728/728 727/727/727 
f 729/729/729 728/728/728 723/723/723 
f 729/729/729 730/730/730 728/728/728 
f 731/731/731 732/732/732 733/733/733 
f 732/732/732 731/731/731 734/734/734 
f 735/735/735 734/734/734 731/731/731 
f 734/734/734 735/735/735 736/736/736 
f 738/738/738 739/739/739 740/740/740 
f 740/740/740 739/739/739 741/741/741 
f 742/742/742 740/740/740 741/741/741 
f 742/742/742 741/741/741 743/743/743 
f 746/746/746 747/747/747 748/748/748 
f 746/746/746 748/748/748 749/749/749 
f 753/753/753 754/754/754 755/755/755 
f 754/754/754 753/753/753 756/756/756 
f 757/757/757 758/758/758 759/759/759 
f 757/757/757 759/759/759 760/760/760 
f 761/761/761 762/762/762 763/763/763 
f 761/761/761 763/763/763 764/764/764 
f 765/765/765 766/766/766 767/767/767 
f 766/766/766 765/765/765 768/768/768 
f 769/769/769 770/770/770 771/771/771 
f 771/771/771 770/770/770 772/772/772 
f 773/773/773 774/774/774 775/775/775 
f 774/774/774 776/776/776 775/775/775 

g Meshpart4

v -510.633 5.57699 -5.60263 
v -510.65 5.61235 -5.49839 
v -510.616 5.57187 -5.5975 
v -510.615 5.61235 -5.49839 
v -510.633 5.47464 -5.64503 
v -510.609 5.59493 -5.50003 
v -510.609 5.5597 -5.58534 
v -510.616 5.57818 -5.50194 
v -510.616 5.47464 -5.63778 
v -510.616 5.54796 -5.5736 
v -510.633 5.54326 -5.5689 
v -510.633 5.5712 -5.50272 
v -510.609 5.47464 -5.62057 
v -510.616 5.47464 -5.60396 
v -510.633 5.47464 -5.59732 
v -510.633 5.40601 -5.5689 
v -510.616 5.40132 -5.5736 
v -510.609 5.38958 -5.58534 
v -510.616 5.3711 -5.50194 
v -510.633 5.37808 -5.50272 
v -510.609 5.35434 -5.50003 
v -510.616 5.37741 -5.5975 
v -510.615 5.33693 -5.49839 
v -510.65 5.57187 -5.5975 
v -510.633 5.61987 -5.49784 
v -510.633 5.57699 -5.60263 
v -510.65 5.61235 -5.49839 
v -510.616 5.57187 -5.5975 
v -510.615 5.61235 -5.49839 
v -510.616 5.57818 -5.50194 
v -510.633 5.40601 -5.5689 
v -510.616 5.40132 -5.5736 
v -510.609 5.38958 -5.58534 
v -510.616 5.3711 -5.50194 
v -510.633 5.37808 -5.50272 
v -510.649 5.3711 -5.50194 
v -510.615 5.33693 -5.49839 
v -510.657 5.38958 -5.58534 
v -510.649 5.40132 -5.5736 
v -510.657 5.5597 -5.58534 
v -510.649 5.54796 -5.5736 
v -510.609 5.5597 -5.58534 
v -510.616 5.54796 -5.5736 
v -510.633 5.54326 -5.5689 
v -510.609 5.47464 -5.62057 
v -510.616 5.47464 -5.60396 
v -510.633 5.47464 -5.59732 
v -510.649 5.47464 -5.60396 
v -510.633 5.40601 -5.5689 
v -510.616 5.40132 -5.5736 
v -510.609 5.38958 -5.58534 
v -510.657 5.38958 -5.58534 
v -510.657 5.47464 -5.62057 
v -510.649 5.40132 -5.5736 
v -510.65 5.57187 -5.5975 
v -510.633 5.57699 -5.60263 
v -510.65 5.61235 -5.49839 
v -510.657 5.59493 -5.50003 
v -510.633 5.47464 -5.64503 
v -510.657 5.5597 -5.58534 
v -510.649 5.57818 -5.50194 
v -510.65 5.47464 -5.63778 
v -510.649 5.54796 -5.5736 
v -510.633 5.54326 -5.5689 
v -510.633 5.5712 -5.50272 
v -510.633 5.47464 -5.59732 
v -510.649 5.47464 -5.60396 
v -510.633 5.40601 -5.5689 
v -510.633 5.37808 -5.50272 
v -510.649 5.3711 -5.50194 
v -510.615 5.33693 -5.49839 
v -510.633 5.37228 -5.60263 
v -510.65 5.37741 -5.5975 
v -510.65 5.33693 -5.49839 
v -510.657 5.35434 -5.50003 
v -510.657 5.38958 -5.58534 
v -510.657 5.47464 -5.62057 
v -510.649 5.40132 -5.5736 
v -510.65 5.61235 -5.49839 
v -510.657 5.5597 -5.58534 
v -510.649 5.57818 -5.50194 
v -510.649 5.54796 -5.5736 
v -510.609 5.5597 -5.58534 
v -510.616 5.57818 -5.50194 
v -510.616 5.54796 -5.5736 
v -510.633 5.54326 -5.5689 
v -510.633 5.5712 -5.50272 
v -510.649 5.3711 -5.50194 
v -510.616 5.37741 -5.5975 
v -510.615 5.33693 -5.49839 
v -510.633 5.3294 -5.49784 
v -510.633 5.37228 -5.60263 
v -510.65 5.37741 -5.5975 
v -510.65 5.33693 -5.49839 
v -510.65 5.57187 -5.5975 
v -510.633 5.57699 -5.60263 
v -510.616 5.57187 -5.5975 
v -510.633 5.47464 -5.64503 
v -510.65 5.47464 -5.63778 
v -510.616 5.47464 -5.63778 
v -510.616 5.37741 -5.5975 
v -510.633 5.37228 -5.60263 
v -510.65 5.37741 -5.5975 

vn 0 0.708661 -0.708661 
vn -0.629921 0.716535 -0.299213 
vn 0.669291 0.527559 -0.519685 
vn 0.629921 0.716535 -0.299213 
vn 0 0 -1 
vn 0.992126 0.102362 -0.0393701 
vn 1 0.0551181 -0.0551181 
vn 0.724409 -0.629921 0.267717 
vn 0.669291 0 -0.740157 
vn 0.740157 -0.472441 0.472441 
vn 0 -0.700787 0.708661 
vn 0 -0.92126 0.385827 
vn 1 0 -0.0708661 
vn 0.748031 0 0.669291 
vn 0 0 1 
vn 0 0.708661 0.708661 
vn 0.740157 0.472441 0.472441 
vn 1 -0.0551181 -0.0551181 
vn 0.732283 0.629921 0.267717 
vn 0 0.92126 0.385827 
vn 0.992126 -0.102362 -0.0393701 
vn 0.669291 -0.527559 -0.519685 
vn 0.629921 -0.716535 -0.299213 
vn -0.669291 0.527559 -0.519685 
vn 0 0.929134 -0.377953 
vn 0 0.708661 -0.708661 
vn -0.629921 0.716535 -0.299213 
vn 0.669291 0.527559 -0.519685 
vn 0.629921 0.716535 -0.299213 
vn 0.724409 -0.629921 0.267717 
vn 0 0.708661 0.708661 
vn 0.740157 0.472441 0.472441 
vn 1 -0.0551181 -0.0551181 
vn 0.732283 0.629921 0.267717 
vn 0 0.92126 0.385827 
vn -0.732283 0.629921 0.267717 
vn 0.629921 -0.716535 -0.299213 
vn -1 -0.0551181 -0.0551181 
vn -0.740157 0.472441 0.472441 
vn -1 0.0551181 -0.0551181 
vn -0.740157 -0.472441 0.472441 
vn 1 0.0551181 -0.0551181 
vn 0.740157 -0.472441 0.472441 
vn 0 -0.700787 0.708661 
vn 1 0 -0.0708661 
vn 0.748031 0 0.669291 
vn 0 0 1 
vn -0.748031 0 0.669291 
vn 0 0.708661 0.708661 
vn 0.740157 0.472441 0.472441 
vn 1 -0.0551181 -0.0551181 
vn -1 -0.0551181 -0.0551181 
vn -1 0 -0.0708661 
vn -0.740157 0.472441 0.472441 
vn -0.669291 0.527559 -0.519685 
vn 0 0.708661 -0.708661 
vn -0.629921 0.716535 -0.299213 
vn -0.992126 0.102362 -0.0393701 
vn 0 0 -1 
vn -1 0.0551181 -0.0551181 
vn -0.732283 -0.629921 0.267717 
vn -0.669291 0 -0.740157 
vn -0.740157 -0.472441 0.472441 
vn 0 -0.700787 0.708661 
vn 0 -0.92126 0.385827 
vn 0 0 1 
vn -0.748031 0 0.669291 
vn 0 0.708661 0.708661 
vn 0 0.92126 0.385827 
vn -0.732283 0.629921 0.267717 
vn 0.629921 -0.716535 -0.299213 
vn 0 -0.708661 -0.708661 
vn -0.669291 -0.527559 -0.519685 
vn -0.629921 -0.716535 -0.299213 
vn -0.992126 -0.102362 -0.0393701 
vn -1 -0.0551181 -0.0551181 
vn -1 0 -0.0708661 
vn -0.740157 0.472441 0.472441 
vn -0.629921 0.716535 -0.299213 
vn -1 0.0551181 -0.0551181 
vn -0.732283 -0.629921 0.267717 
vn -0.740157 -0.472441 0.472441 
vn 1 0.0551181 -0.0551181 
vn 0.724409 -0.629921 0.267717 
vn 0.740157 -0.472441 0.472441 
vn 0 -0.700787 0.708661 
vn 0 -0.92126 0.385827 
vn -0.732283 0.629921 0.267717 
vn 0.669291 -0.527559 -0.519685 
vn 0.629921 -0.716535 -0.299213 
vn 0 -0.929134 -0.377953 
vn 0 -0.708661 -0.708661 
vn -0.669291 -0.527559 -0.519685 
vn -0.629921 -0.716535 -0.299213 
vn -0.669291 0.527559 -0.519685 
vn 0 0.708661 -0.708661 
vn 0.669291 0.527559 -0.519685 
vn 0 0 -1 
vn -0.669291 0 -0.740157 
vn 0.669291 0 -0.740157 
vn 0.669291 -0.527559 -0.519685 
vn 0 -0.708661 -0.708661 
vn -0.669291 -0.527559 -0.519685 

vt 46.0039 -0.987206 
vt 45.9909 -0.982786 
vt 46.0033 -0.987846 
vt 45.9909 -0.982786 
vt 46.0092 -1 
vt 45.9911 -0.984963 
vt 46.0017 -0.989368 
vt 45.9913 -0.987057 
vt 46.0083 -1 
vt 46.0003 -0.990835 
vt 45.9997 -0.991422 
vt 45.9914 -0.98793 
vt 46.0061 -1 
vt 46.0041 -1 
vt 46.0032 -1 
vt 45.9997 -1.00858 
vt 46.0003 -1.00916 
vt 46.0017 -1.01063 
vt 45.9913 -1.01294 
vt 45.9914 -1.01207 
vt 45.9911 -1.01504 
vt 46.0033 -1.01215 
vt 45.9909 -1.01721 
vt 46.0021 -1.00326 
vt 46 -0.990801 
vt 46 -1.0039 
vt 46.0022 -0.99087 
vt 45.9979 -1.00326 
vt 45.9978 -0.99087 
vt 45.9979 -0.991314 
vt 46 -0.999683 
vt 45.9979 -1.00027 
vt 45.997 -1.00174 
vt 45.9979 -0.991314 
vt 46 -0.99141 
vt 46.0021 -0.991314 
vt 45.9978 -0.99087 
vt 46.003 -1.00174 
vt 46.0021 -1.00027 
vt 45.997 -0.989368 
vt 45.9979 -0.990835 
vt 46.003 -0.989368 
vt 46.0021 -0.990835 
vt 46 -0.991422 
vt 46.003 -1 
vt 46.0021 -1 
vt 46 -1 
vt 45.9979 -1 
vt 46 -1.00858 
vt 46.0021 -1.00916 
vt 46.003 -1.01063 
vt 45.997 -1.01063 
vt 45.997 -1 
vt 45.9979 -1.00916 
vt 45.9967 -0.987846 
vt 45.9961 -0.987206 
vt 46.0091 -0.982786 
vt 46.0089 -0.984963 
vt 45.9908 -1 
vt 45.9983 -0.989368 
vt 46.0087 -0.987057 
vt 45.9917 -1 
vt 45.9997 -0.990835 
vt 46.0003 -0.991422 
vt 46.0086 -0.98793 
vt 45.9968 -1 
vt 45.9959 -1 
vt 46.0003 -1.00858 
vt 46.0086 -1.01207 
vt 46.0087 -1.01294 
vt 46.0091 -1.01721 
vt 45.9961 -1.01279 
vt 45.9967 -1.01215 
vt 46.0091 -1.01721 
vt 46.0089 -1.01504 
vt 45.9983 -1.01063 
vt 45.9939 -1 
vt 45.9997 -1.00916 
vt 45.9978 -0.99087 
vt 45.997 -1.00174 
vt 45.9979 -0.991314 
vt 45.9979 -1.00027 
vt 46.003 -1.00174 
vt 46.0021 -0.991314 
vt 46.0021 -1.00027 
vt 46 -0.999683 
vt 46 -0.99141 
vt 45.9979 -0.991314 
vt 46.0021 -1.00326 
vt 46.0022 -0.99087 
vt 46 -0.990801 
vt 46 -1.0039 
vt 45.9979 -1.00326 
vt 45.9978 -0.99087 
vt 46.0021 -0.987846 
vt 46 -0.987206 
vt 45.9979 -0.987846 
vt 46 -1 
vt 46.0021 -1 
vt 45.9979 -1 
vt 45.9979 -1.01215 
vt 46 -1.01279 
vt 46.0021 -1.01215 

usemtl Meshpart3Mtl

f 782/782/782 779/779/779 780/780/780 
f 779/779/779 782/782/782 783/783/783 
f 784/784/784 783/783/783 782/782/782 
f 785/785/785 779/779/779 783/783/783 
f 783/783/783 784/784/784 786/786/786 
f 789/789/789 783/783/783 786/786/786 
f 785/785/785 783/783/783 789/789/789 
f 789/789/789 786/786/786 790/790/790 
f 793/793/793 789/789/789 790/790/790 
f 794/794/794 785/785/785 789/789/789 
f 789/789/789 793/793/793 794/794/794 
f 795/795/795 794/794/794 793/793/793 
f 794/794/794 795/795/795 797/797/797 
f 785/785/785 794/794/794 798/798/798 
f 797/797/797 798/798/798 794/794/794 
f 798/798/798 797/797/797 799/799/799 
f 800/800/800 801/801/801 802/802/802 
f 801/801/801 800/800/800 803/803/803 
f 801/801/801 804/804/804 802/802/802 
f 804/804/804 801/801/801 805/805/805 
f 810/810/810 808/808/808 807/807/807 
f 807/807/807 811/811/811 810/810/810 
f 807/807/807 812/812/812 811/811/811 
f 812/812/812 807/807/807 815/815/815 
f 820/820/820 822/822/822 819/819/819 
f 822/822/822 820/820/820 823/823/823 
f 824/824/824 820/820/820 817/817/817 
f 820/820/820 824/824/824 823/823/823 
f 825/825/825 822/822/822 823/823/823 
f 824/824/824 825/825/825 823/823/823 
f 822/822/822 825/825/825 826/826/826 
f 825/825/825 824/824/824 830/830/830 
f 831/831/831 834/834/834 833/833/833 
f 834/834/834 831/831/831 836/836/836 
f 836/836/836 837/837/837 834/834/834 
f 838/838/838 836/836/836 831/831/831 
f 837/837/837 836/836/836 839/839/839 
f 849/849/849 850/850/850 851/851/851 
f 849/849/849 851/851/851 852/852/852 
f 852/852/852 838/838/838 849/849/849 
f 852/852/852 851/851/851 846/846/846 
f 838/838/838 852/852/852 853/853/853 
f 836/836/836 838/838/838 853/853/853 
f 853/853/853 839/839/839 836/836/836 
f 839/839/839 853/853/853 843/843/843 
f 854/854/854 853/853/853 852/852/852 
f 852/852/852 846/846/846 854/854/854 
f 853/853/853 854/854/854 843/843/843 
f 862/862/862 857/857/857 858/858/858 
f 860/860/860 862/862/862 861/861/861 
f 857/857/857 862/862/862 863/863/863 
f 862/862/862 860/860/860 863/863/863 
f 865/865/865 866/866/866 867/867/867 
f 867/867/867 868/868/868 865/865/865 
f 867/867/867 869/869/869 868/868/868 
f 869/869/869 867/867/867 870/870/870 
f 874/874/874 871/871/871 872/872/872 
f 874/874/874 872/872/872 873/873/873 
f 871/871/871 874/874/874 875/875/875 
f 873/873/873 876/876/876 874/874/874 
f 877/877/877 874/874/874 876/876/876 
f 874/874/874 877/877/877 878/878/878 
f 874/874/874 878/878/878 879/879/879 
f 879/879/879 875/875/875 874/874/874 

