# This file is brought to you by Roblox Corporation
# Generated by Roblox Studio

mtllib Elixir.mtl

g Meshpart1

v -260.263 6.44317 0.4359 
v -260.336 6.00267 0.355128 
v -260.185 6.42953 0.246216 
v -260.291 6.00267 0.246216 
v -260.269 6.50114 0.41939 
v -260.199 6.48869 0.246216 
v -260.336 6.00267 0.137304 
v -260.269 6.50114 0.0730418 
v -260.263 6.44317 0.0565318 
v -260.61 6.56128 0.0730418 
v -260.269 6.50114 0.0730418 
v -260.44 6.53121 0.00130983 
v -260.199 6.48869 0.246216 
v -260.681 6.57374 0.246216 
v -260.61 6.56128 0.41939 
v -260.269 6.50114 0.41939 
v -260.44 6.53121 0.491122 
v -260.445 6.00267 0.40024 
v -260.263 6.44317 0.4359 
v -260.45 6.47611 0.51447 
v -260.336 6.00267 0.355128 
v -260.554 6.00267 0.355128 
v -260.269 6.50114 0.41939 
v -260.44 6.53121 0.491122 
v -260.61 6.56128 0.41939 
v -260.636 6.50905 0.4359 
v -260.554 6.00267 0.355128 
v -260.61 6.56128 0.41939 
v -260.554 6.00267 0.137304 
v -260.61 6.56128 0.0730418 
v -260.636 6.50905 0.0565318 
v -260.714 6.52269 0.246216 
v -260.599 6.00267 0.246216 
v -260.681 6.57374 0.246216 
v -260.636 6.50905 0.4359 
v -260.445 6.00267 0.0921918 
v -260.445 6.00267 0.40024 
v -260.599 6.00267 0.246216 
v -260.554 6.00267 0.355128 
v -260.554 6.00267 0.137304 
v -260.291 6.00267 0.246216 
v -260.336 6.00267 0.355128 
v -260.336 6.00267 0.137304 
v -260.336 6.00267 0.137304 
v -260.269 6.50114 0.0730418 
v -260.263 6.44317 0.0565318 
v -260.445 6.00267 0.0921918 
v -260.45 6.47611 -0.0220382 
v -260.44 6.53121 0.00130983 
v -260.554 6.00267 0.137304 
v -260.61 6.56128 0.0730418 
v -260.636 6.50905 0.0565318 

vn 0.700787 0.00787402 0.708661 
vn 0.677165 -0.23622 0.692913 
vn 1 -0.015748 0 
vn 0.968504 -0.23622 0 
vn 0.708661 0.267717 0.653543 
vn 0.976378 0.220472 0 
vn 0.677165 -0.23622 -0.692913 
vn 0.708661 0.267717 -0.653543 
vn 0.700787 0.00787402 -0.708661 
vn 0.173228 0.984252 0 
vn 0.173228 0.984252 0 
vn 0.173228 0.984252 0 
vn 0.173228 0.984252 0 
vn 0.173228 0.984252 0 
vn 0.173228 0.984252 0 
vn 0.173228 0.984252 0 
vn 0.173228 0.984252 0 
vn -0.023622 -0.23622 0.968504 
vn 0.700787 0.00787402 0.708661 
vn 0 0.0708661 1 
vn 0.677165 -0.23622 0.692913 
vn -0.700787 -0.220472 0.677165 
vn 0.708661 0.267717 0.653543 
vn 0.0629921 0.377953 0.92126 
vn -0.574803 0.496063 0.653543 
vn -0.700787 0.141732 0.700787 
vn -0.700787 -0.220472 0.677165 
vn -0.574803 0.496063 0.653543 
vn -0.700787 -0.220472 -0.677165 
vn -0.574803 0.496063 -0.653543 
vn -0.700787 0.141732 -0.700787 
vn -0.984252 0.173228 0 
vn -0.976378 -0.220472 0 
vn -0.84252 0.543307 0 
vn -0.700787 0.141732 0.700787 
vn 0 -1 0 
vn 0 -1 0 
vn 0 -1 0 
vn 0 -1 0 
vn 0 -1 0 
vn 0 -1 0 
vn 0 -1 0 
vn 0 -1 0 
vn 0.677165 -0.23622 -0.692913 
vn 0.708661 0.267717 -0.653543 
vn 0.700787 0.00787402 -0.708661 
vn -0.023622 -0.23622 -0.968504 
vn 0 0.0708661 -1 
vn 0.0629921 0.377953 -0.92126 
vn -0.700787 -0.220472 -0.677165 
vn -0.574803 0.496063 -0.653543 
vn -0.700787 0.141732 -0.700787 

vt 29.9763 -60.9806 
vt 29.9864 -61.0357 
vt 30 -60.9823 
vt 30 -61.0357 
vt 29.9784 -60.9734 
vt 30 -60.9749 
vt 30.0136 -61.0357 
vt 30.0216 -60.9734 
vt 30.0237 -60.9806 
vt 30.0201 -61.0216 
vt 29.9775 -61.0216 
vt 29.9988 -61.0306 
vt 29.9686 -61 
vt 30.0289 -61 
vt 30.0201 -60.9784 
vt 29.9775 -60.9784 
vt 29.9988 -60.9694 
vt 30.0006 -61.0357 
vt 30.0233 -60.9806 
vt 30 -60.9765 
vt 30.0142 -61.0357 
vt 29.987 -61.0357 
vt 30.0225 -60.9734 
vt 30.0012 -60.9696 
vt 29.9799 -60.9659 
vt 29.9767 -60.9724 
vt 30.0136 -61.0357 
vt 30.0216 -60.9659 
vt 29.9864 -61.0357 
vt 29.9784 -60.9659 
vt 29.9763 -60.9724 
vt 30 -60.9707 
vt 30 -61.0357 
vt 30 -60.9643 
vt 30.0237 -60.9724 
vt 30.0006 -61.0193 
vt 30.0006 -60.9807 
vt 29.9814 -61 
vt 29.987 -60.9864 
vt 29.987 -61.0136 
vt 30.0199 -61 
vt 30.0142 -60.9864 
vt 30.0142 -61.0136 
vt 29.9858 -61.0357 
vt 29.9775 -60.9734 
vt 29.9767 -60.9806 
vt 29.9994 -61.0357 
vt 30 -60.9765 
vt 29.9988 -60.9696 
vt 30.013 -61.0357 
vt 30.0201 -60.9659 
vt 30.0233 -60.9724 

usemtl Meshpart1Mtl

f 2/2/2 3/3/3 1/1/1 
f 3/3/3 2/2/2 4/4/4 
f 3/3/3 5/5/5 1/1/1 
f 5/5/5 3/3/3 6/6/6 
f 7/7/7 3/3/3 4/4/4 
f 3/3/3 8/8/8 6/6/6 
f 7/7/7 9/9/9 3/3/3 
f 8/8/8 3/3/3 9/9/9 
f 10/10/10 11/11/11 12/12/12 
f 11/11/11 10/10/10 13/13/13 
f 14/14/14 13/13/13 10/10/10 
f 13/13/13 14/14/14 15/15/15 
f 13/13/13 15/15/15 16/16/16 
f 16/16/16 15/15/15 17/17/17 
f 18/18/18 19/19/19 20/20/20 
f 19/19/19 18/18/18 21/21/21 
f 20/20/20 22/22/22 18/18/18 
f 20/20/20 19/19/19 23/23/23 
f 20/20/20 23/23/23 24/24/24 
f 25/25/25 20/20/20 24/24/24 
f 20/20/20 25/25/25 26/26/26 
f 22/22/22 20/20/20 26/26/26 
f 29/29/29 32/32/32 31/31/31 
f 32/32/32 30/30/30 31/31/31 
f 32/32/32 29/29/29 33/33/33 
f 30/30/30 32/32/32 34/34/34 
f 28/28/28 34/34/34 32/32/32 
f 32/32/32 33/33/33 27/27/27 
f 32/32/32 35/35/35 28/28/28 
f 32/32/32 27/27/27 35/35/35 
f 36/36/36 37/37/37 38/38/38 
f 38/38/38 37/37/37 39/39/39 
f 36/36/36 38/38/38 40/40/40 
f 36/36/36 41/41/41 37/37/37 
f 37/37/37 41/41/41 42/42/42 
f 41/41/41 36/36/36 43/43/43 
f 47/47/47 46/46/46 44/44/44 
f 48/48/48 45/45/45 46/46/46 
f 46/46/46 47/47/47 48/48/48 
f 45/45/45 48/48/48 49/49/49 
f 50/50/50 48/48/48 47/47/47 
f 51/51/51 49/49/49 48/48/48 
f 48/48/48 50/50/50 52/52/52 
f 48/48/48 52/52/52 51/51/51 

g Meshpart2

v -259.963 5.46822 0.246216 
v -260.104 5.46822 0.586762 
v -259.856 5.24737 0.246216 
v -260.104 5.46822 -0.0943302 
v -260.028 5.24737 0.662652 
v -260.028 5.24737 -0.17022 
v -260.785 5.46822 0.586762 
v -260.028 5.02653 -0.17022 
v -259.856 5.02653 0.246216 
v -260.093 4.85343 -0.105872 
v -260.028 5.02653 0.662652 
v -260.093 4.85343 0.598304 
v -259.947 4.85343 0.246216 
v -260.186 4.69825 -0.0127962 
v -260.186 4.69825 0.505228 
v -260.078 4.69825 0.246216 
v -260.445 5.46822 -0.235388 
v -260.445 5.46822 0.72782 
v -259.963 5.46822 0.246216 
v -260.104 5.46822 0.586762 
v -260.445 5.24737 0.835146 
v -260.104 5.46822 -0.0943302 
v -260.445 5.24737 -0.342714 
v -260.926 5.46822 0.246216 
v -260.785 5.46822 0.586762 
v -260.785 5.46822 -0.0943302 
v -260.445 5.46822 0.72782 
v -260.104 5.46822 0.586762 
v -260.445 5.24737 0.835146 
v -260.104 5.46822 -0.0943302 
v -260.028 5.24737 0.662652 
v -260.785 5.46822 0.586762 
v -260.861 5.24737 0.662652 
v -260.861 5.02653 0.662652 
v -260.445 5.02653 0.835146 
v -260.028 5.02653 0.662652 
v -260.093 4.85343 0.598304 
v -260.186 4.69825 0.505228 
v -260.445 4.85343 0.744144 
v -260.797 4.85343 0.598304 
v -260.704 4.69825 0.505228 
v -260.445 4.69825 0.612516 
v -260.926 5.46822 0.246216 
v -260.785 5.46822 0.586762 
v -260.785 5.46822 -0.0943302 
v -261.034 5.24737 0.246216 
v -260.861 5.24737 0.662652 
v -260.861 5.24737 -0.17022 
v -261.034 5.02653 0.246216 
v -260.861 5.02653 0.662652 
v -260.861 5.02653 -0.17022 
v -260.797 4.85343 -0.105872 
v -260.797 4.85343 0.598304 
v -260.943 4.85343 0.246216 
v -260.704 4.69825 0.505228 
v -260.811 4.69825 0.246216 
v -260.704 4.69825 -0.0127962 
v -260.861 5.02653 0.662652 
v -260.445 5.02653 0.835146 
v -260.861 5.02653 -0.17022 
v -260.445 5.02653 -0.342714 
v -260.028 5.02653 -0.17022 
v -260.186 4.69825 -0.0127962 
v -260.186 4.69825 0.505228 
v -260.078 4.69825 0.246216 
v -260.704 4.69825 0.505228 
v -260.445 4.69825 0.612516 
v -260.445 4.59877 0.44154 
v -260.307 4.59877 0.38433 
v -260.811 4.69825 0.246216 
v -260.704 4.69825 -0.0127962 
v -260.583 4.59877 0.38433 
v -260.64 4.59877 0.246216 
v -260.445 4.69825 -0.120084 
v -260.445 4.57091 0.246216 
v -260.583 4.59877 0.108102 
v -260.445 4.59877 0.0508918 
v -260.307 4.59877 0.108102 
v -260.249 4.59877 0.246216 
v -260.445 5.46822 -0.235388 
v -260.104 5.46822 -0.0943302 
v -260.028 5.24737 -0.17022 
v -260.445 5.24737 -0.342714 
v -260.785 5.46822 -0.0943302 
v -260.861 5.24737 -0.17022 
v -260.861 5.02653 -0.17022 
v -260.445 5.02653 -0.342714 
v -260.797 4.85343 -0.105872 
v -260.028 5.02653 -0.17022 
v -260.093 4.85343 -0.105872 
v -260.445 4.85343 -0.251712 
v -260.186 4.69825 -0.0127962 
v -260.186 4.69825 0.505228 
v -260.704 4.69825 -0.0127962 
v -260.64 4.59877 0.246216 
v -260.445 4.69825 -0.120084 

vn 0.566929 0.826772 0 
vn 0.401575 0.826772 0.401575 
vn 0.976378 0.220472 0 
vn 0.401575 0.826772 -0.401575 
vn 0.692913 0.220472 0.692913 
vn 0.692913 0.220472 -0.692913 
vn -0.401575 0.826772 0.401575 
vn 0.685039 -0.23622 -0.685039 
vn 0.968504 -0.23622 0 
vn 0.590551 -0.551181 -0.590551 
vn 0.685039 -0.23622 0.685039 
vn 0.590551 -0.551181 0.590551 
vn 0.834646 -0.551181 0 
vn 0.464567 -0.755906 -0.464567 
vn 0.464567 -0.755906 0.464567 
vn 0.661417 -0.755906 0 
vn 0 0.826772 -0.566929 
vn 0 0.826772 0.566929 
vn 0.566929 0.826772 0 
vn 0.401575 0.826772 0.401575 
vn 0 0.220472 0.976378 
vn 0.401575 0.826772 -0.401575 
vn 0 0.220472 -0.976378 
vn -0.566929 0.826772 0 
vn -0.401575 0.826772 0.401575 
vn -0.401575 0.826772 -0.401575 
vn 0 0.826772 0.566929 
vn 0.401575 0.826772 0.401575 
vn 0 0.220472 0.976378 
vn 0.401575 0.826772 -0.401575 
vn 0.692913 0.220472 0.692913 
vn -0.401575 0.826772 0.401575 
vn -0.692913 0.220472 0.692913 
vn -0.685039 -0.23622 0.685039 
vn 0 -0.23622 0.968504 
vn 0.685039 -0.23622 0.685039 
vn 0.590551 -0.551181 0.590551 
vn 0.464567 -0.755906 0.464567 
vn 0 -0.551181 0.834646 
vn -0.590551 -0.551181 0.590551 
vn -0.464567 -0.755906 0.464567 
vn 0 -0.755906 0.661417 
vn -0.566929 0.826772 0 
vn -0.401575 0.826772 0.401575 
vn -0.401575 0.826772 -0.401575 
vn -0.976378 0.220472 0 
vn -0.692913 0.220472 0.692913 
vn -0.692913 0.220472 -0.692913 
vn -0.968504 -0.23622 0 
vn -0.685039 -0.23622 0.685039 
vn -0.685039 -0.23622 -0.685039 
vn -0.590551 -0.551181 -0.590551 
vn -0.590551 -0.551181 0.590551 
vn -0.834646 -0.551181 0 
vn -0.464567 -0.755906 0.464567 
vn -0.661417 -0.755906 0 
vn -0.464567 -0.755906 -0.464567 
vn -0.685039 -0.23622 0.685039 
vn 0 -0.23622 0.968504 
vn -0.685039 -0.23622 -0.685039 
vn 0 -0.23622 -0.968504 
vn 0.685039 -0.23622 -0.685039 
vn 0.464567 -0.755906 -0.464567 
vn 0.464567 -0.755906 0.464567 
vn 0.661417 -0.755906 0 
vn -0.464567 -0.755906 0.464567 
vn 0 -0.755906 0.661417 
vn 0 -0.929134 0.362205 
vn 0.259843 -0.929134 0.259843 
vn -0.661417 -0.755906 0 
vn -0.464567 -0.755906 -0.464567 
vn -0.259843 -0.929134 0.259843 
vn -0.362205 -0.929134 0 
vn 0 -0.755906 -0.661417 
vn 0 -1 0 
vn -0.259843 -0.929134 -0.259843 
vn 0 -0.929134 -0.362205 
vn 0.259843 -0.929134 -0.259843 
vn 0.362205 -0.929134 0 
vn 0 0.826772 -0.566929 
vn 0.401575 0.826772 -0.401575 
vn 0.692913 0.220472 -0.692913 
vn 0 0.220472 -0.976378 
vn -0.401575 0.826772 -0.401575 
vn -0.692913 0.220472 -0.692913 
vn -0.685039 -0.23622 -0.685039 
vn 0 -0.23622 -0.968504 
vn -0.590551 -0.551181 -0.590551 
vn 0.685039 -0.23622 -0.685039 
vn 0.590551 -0.551181 -0.590551 
vn 0 -0.551181 -0.834646 
vn 0.464567 -0.755906 -0.464567 
vn 0.464567 -0.755906 0.464567 
vn -0.464567 -0.755906 -0.464567 
vn -0.362205 -0.929134 0 
vn 0 -0.755906 -0.661417 

vt -0.712696 2.67647 
vt -0.755264 2.67647 
vt -0.712696 2.64887 
vt -0.670128 2.67647 
vt -0.764751 2.64887 
vt -0.660642 2.64887 
vt -0.755264 2.67647 
vt -0.660642 2.62126 
vt -0.712696 2.62126 
vt -0.668685 2.59963 
vt -0.764751 2.62126 
vt -0.756707 2.59963 
vt -0.712696 2.59963 
vt -0.68032 2.58023 
vt -0.745073 2.58023 
vt -0.712696 2.58023 
vt -0.712696 2.56019 
vt -0.712696 2.68059 
vt -0.772897 2.62039 
vt -0.755264 2.66296 
vt -0.712696 2.69401 
vt -0.755264 2.57782 
vt -0.712696 2.54678 
vt -0.652496 2.62039 
vt -0.670128 2.66296 
vt -0.670128 2.57782 
vt -0.712696 2.67647 
vt -0.670128 2.67647 
vt -0.712696 2.64887 
vt -0.670128 2.67647 
vt -0.660642 2.64887 
vt -0.755264 2.67647 
vt -0.764751 2.64887 
vt -0.764751 2.62126 
vt -0.712696 2.62126 
vt -0.660642 2.62126 
vt -0.668685 2.59963 
vt -0.68032 2.58023 
vt -0.712696 2.59963 
vt -0.756707 2.59963 
vt -0.745073 2.58023 
vt -0.712696 2.58023 
vt -0.712696 2.67647 
vt -0.670128 2.67647 
vt -0.755264 2.67647 
vt -0.712696 2.64887 
vt -0.660642 2.64887 
vt -0.764751 2.64887 
vt -0.712696 2.62126 
vt -0.660642 2.62126 
vt -0.764751 2.62126 
vt -0.756707 2.59963 
vt -0.668685 2.59963 
vt -0.712696 2.59963 
vt -0.68032 2.58023 
vt -0.712696 2.58023 
vt -0.745073 2.58023 
vt -0.764751 2.67245 
vt -0.712696 2.69401 
vt -0.764751 2.56834 
vt -0.712696 2.54678 
vt -0.660642 2.56834 
vt -0.68032 2.58802 
vt -0.68032 2.65277 
vt -0.666909 2.62039 
vt -0.745073 2.65277 
vt -0.712696 2.66618 
vt -0.712696 2.64481 
vt -0.695432 2.63766 
vt -0.758484 2.62039 
vt -0.745073 2.58802 
vt -0.72996 2.63766 
vt -0.737112 2.62039 
vt -0.712696 2.5746 
vt -0.712696 2.62039 
vt -0.72996 2.60313 
vt -0.712696 2.59598 
vt -0.695432 2.60313 
vt -0.688281 2.62039 
vt -0.712696 2.67647 
vt -0.755264 2.67647 
vt -0.764751 2.64887 
vt -0.712696 2.64887 
vt -0.670128 2.67647 
vt -0.660642 2.64887 
vt -0.660642 2.62126 
vt -0.712696 2.62126 
vt -0.668685 2.59963 
vt -0.764751 2.62126 
vt -0.756707 2.59963 
vt -0.712696 2.59963 
vt -0.745073 2.58023 
vt -0.745073 2.58023 
vt -0.68032 2.58023 
vt -0.688281 2.56779 
vt -0.712696 2.58023 

usemtl Meshpart2Mtl

f 54/54/54 55/55/55 53/53/53 
f 56/56/56 53/53/53 55/55/55 
f 55/55/55 54/54/54 57/57/57 
f 58/58/58 56/56/56 55/55/55 
f 61/61/61 60/60/60 58/58/58 
f 58/58/58 55/55/55 61/61/61 
f 61/61/61 62/62/62 60/60/60 
f 63/63/63 61/61/61 55/55/55 
f 55/55/55 57/57/57 63/63/63 
f 61/61/61 63/63/63 64/64/64 
f 62/62/62 61/61/61 65/65/65 
f 64/64/64 65/65/65 61/61/61 
f 65/65/65 66/66/66 62/62/62 
f 65/65/65 64/64/64 67/67/67 
f 66/66/66 65/65/65 68/68/68 
f 68/68/68 65/65/65 67/67/67 
f 69/69/69 70/70/70 71/71/71 
f 71/71/71 70/70/70 72/72/72 
f 69/69/69 71/71/71 74/74/74 
f 69/69/69 76/76/76 70/70/70 
f 70/70/70 76/76/76 77/77/77 
f 76/76/76 69/69/69 78/78/78 
f 81/81/81 80/80/80 79/79/79 
f 81/81/81 83/83/83 80/80/80 
f 84/84/84 81/81/81 79/79/79 
f 81/81/81 84/84/84 85/85/85 
f 86/86/86 81/81/81 85/85/85 
f 86/86/86 87/87/87 81/81/81 
f 87/87/87 83/83/83 81/81/81 
f 87/87/87 88/88/88 83/83/83 
f 87/87/87 89/89/89 88/88/88 
f 89/89/89 87/87/87 91/91/91 
f 91/91/91 90/90/90 89/89/89 
f 92/92/92 91/91/91 87/87/87 
f 87/87/87 86/86/86 92/92/92 
f 91/91/91 92/92/92 93/93/93 
f 90/90/90 91/91/91 94/94/94 
f 93/93/93 94/94/94 91/91/91 
f 98/98/98 96/96/96 95/95/95 
f 97/97/97 98/98/98 95/95/95 
f 96/96/96 98/98/98 99/99/99 
f 98/98/98 97/97/97 100/100/100 
f 101/101/101 99/99/99 98/98/98 
f 99/99/99 101/101/101 102/102/102 
f 103/103/103 98/98/98 100/100/100 
f 98/98/98 103/103/103 101/101/101 
f 104/104/104 101/101/101 103/103/103 
f 101/101/101 105/105/105 102/102/102 
f 105/105/105 101/101/101 106/106/106 
f 101/101/101 104/104/104 106/106/106 
f 106/106/106 107/107/107 105/105/105 
f 107/107/107 106/106/106 108/108/108 
f 109/109/109 106/106/106 104/104/104 
f 106/106/106 109/109/109 108/108/108 
f 120/120/120 116/116/116 119/119/119 
f 118/118/118 120/120/120 119/119/119 
f 116/116/116 120/120/120 121/121/121 
f 120/120/120 118/118/118 124/124/124 
f 125/125/125 118/118/118 122/122/122 
f 118/118/118 125/125/125 124/124/124 
f 123/123/123 125/125/125 122/122/122 
f 120/120/120 124/124/124 127/127/127 
f 124/124/124 125/125/125 127/127/127 
f 121/121/121 120/120/120 127/127/127 
f 125/125/125 123/123/123 128/128/128 
f 125/125/125 128/128/128 127/127/127 
f 128/128/128 123/123/123 129/129/129 
f 123/123/123 126/126/126 129/129/129 
f 128/128/128 129/129/129 127/127/127 
f 115/115/115 129/129/129 126/126/126 
f 129/129/129 130/130/130 127/127/127 
f 129/129/129 115/115/115 130/130/130 
f 131/131/131 121/121/121 127/127/127 
f 130/130/130 131/131/131 127/127/127 
f 115/115/115 131/131/131 130/130/130 
f 131/131/131 116/116/116 121/121/121 
f 115/115/115 117/117/117 131/131/131 
f 116/116/116 131/131/131 117/117/117 
f 133/133/133 135/135/135 132/132/132 
f 135/135/135 133/133/133 134/134/134 
f 132/132/132 135/135/135 136/136/136 
f 136/136/136 135/135/135 137/137/137 
f 137/137/137 139/139/139 138/138/138 
f 137/137/137 135/135/135 139/139/139 
f 139/139/139 140/140/140 138/138/138 
f 135/135/135 141/141/141 139/139/139 
f 135/135/135 134/134/134 141/141/141 
f 142/142/142 139/139/139 141/141/141 
f 140/140/140 139/139/139 143/143/143 
f 139/139/139 142/142/142 143/143/143 
f 142/142/142 144/144/144 143/143/143 
f 143/143/143 146/146/146 140/140/140 
f 146/146/146 143/143/143 148/148/148 
f 143/143/143 144/144/144 148/148/148 

g Meshpart3

v -260.445 6.00972 0.578754 
v -260.21 6.00972 0.481356 
v -260.193 6.0754 0.498316 
v -260.088 6.0754 0.246216 
v -260.112 6.00972 0.246216 
v -260.194 6.26168 0.497282 
v -260.21 6.00972 0.0110758 
v -260.228 6.31286 0.463358 
v -260.445 6.31286 0.553302 
v -260.09 6.26168 0.246216 
v -260.138 6.31286 0.246216 
v -260.228 6.31286 0.0290738 
v -260.194 6.26168 -0.00485018 
v -260.193 6.0754 -0.00588417 
v -260.445 6.00972 -0.0863222 
v -260.445 6.31286 -0.0608702 
v -260.287 5.79183 0.40376 
v -260.287 5.97217 0.403974 
v -260.222 5.97217 0.246216 
v -260.222 5.79183 0.246216 
v -260.287 5.79183 0.0886718 
v -260.287 5.97217 0.0884578 
v -260.076 5.71393 0.246216 
v -260.184 5.71393 0.507086 
v -260.184 5.71393 -0.0146542 
v -259.887 5.52048 0.246216 
v -260.051 5.52048 -0.147964 
v -259.763 5.26486 0.246216 
v -260.051 5.52048 0.640396 
v -259.963 5.26486 0.72824 
v -259.963 5.26486 -0.235808 
v -260.927 5.26486 0.72824 
v -259.963 5.00923 0.72824 
v -259.763 5.00923 0.246216 
v -260.037 4.80887 0.653756 
v -260.145 4.62924 0.546022 
v -259.868 4.80887 0.246216 
v -260.037 4.80887 -0.161324 
v -260.869 4.62924 0.246216 
v -260.021 4.62924 0.246216 
v -260.145 4.62924 -0.0535902 
v -260.445 4.62924 -0.177774 
v -259.963 5.00923 -0.235808 
v -260.662 6.31286 0.0290738 
v -260.228 6.31286 0.0290738 
v -260.445 6.31286 -0.0608702 
v -260.662 6.31286 0.463358 
v -260.752 6.31286 0.246216 
v -260.228 6.31286 0.463358 
v -260.445 6.31286 0.553302 
v -260.138 6.31286 0.246216 
v -260.445 6.00972 0.578754 
v -260.112 6.00972 0.246216 
v -260.445 6.31286 0.553302 
v -260.445 6.31286 -0.0608702 
v -260.287 5.79183 0.40376 
v -260.445 5.79183 0.469016 
v -260.602 5.79183 0.40376 
v -260.445 5.71393 0.615142 
v -260.667 5.79183 0.246216 
v -260.222 5.79183 0.246216 
v -260.706 5.71393 0.507086 
v -260.287 5.79183 0.0886718 
v -260.076 5.71393 0.246216 
v -260.184 5.71393 0.507086 
v -260.445 5.79183 0.0234158 
v -260.602 5.79183 0.0886718 
v -260.445 5.71393 -0.12271 
v -260.814 5.71393 0.246216 
v -260.706 5.71393 -0.0146542 
v -260.184 5.71393 -0.0146542 
v -260.697 6.0754 0.498316 
v -260.445 6.0754 0.60274 
v -260.696 6.26168 0.497282 
v -260.68 6.00972 0.481356 
v -260.445 6.00972 0.578754 
v -260.21 6.00972 0.481356 
v -260.193 6.0754 0.498316 
v -260.194 6.26168 0.497282 
v -260.445 6.26168 0.601276 
v -260.228 6.31286 0.463358 
v -260.445 6.31286 0.553302 
v -260.662 6.31286 0.463358 
v -260.287 5.79183 0.40376 
v -260.445 5.97217 0.46932 
v -260.445 5.79183 0.469016 
v -260.287 5.97217 0.403974 
v -260.602 5.79183 0.40376 
v -260.602 5.97217 0.403974 
v -260.445 5.71393 0.615142 
v -260.706 5.71393 0.507086 
v -260.184 5.71393 0.507086 
v -260.445 5.52048 0.80367 
v -260.839 5.52048 0.640396 
v -260.051 5.52048 0.640396 
v -260.445 5.26486 0.9279 
v -259.963 5.26486 0.72824 
v -260.927 5.26486 0.72824 
v -260.445 5.00923 0.9279 
v -259.963 5.00923 0.72824 
v -260.927 5.00923 0.72824 
v -260.852 4.80887 0.653756 
v -260.037 4.80887 0.653756 
v -260.445 4.80887 0.822566 
v -260.744 4.62924 0.546022 
v -260.445 4.62924 0.670206 
v -260.145 4.62924 0.546022 
v -260.697 6.0754 0.498316 
v -260.696 6.26168 0.497282 
v -260.68 6.00972 0.481356 
v -260.445 6.00972 0.578754 
v -260.801 6.0754 0.246216 
v -260.777 6.00972 0.246216 
v -260.68 6.00972 0.0110758 
v -260.697 6.0754 -0.00588417 
v -260.445 6.31286 0.553302 
v -260.662 6.31286 0.463358 
v -260.8 6.26168 0.246216 
v -260.752 6.31286 0.246216 
v -260.662 6.31286 0.0290738 
v -260.696 6.26168 -0.00485018 
v -260.445 6.00972 -0.0863222 
v -260.445 6.31286 -0.0608702 
v -260.287 5.97217 0.403974 
v -260.602 5.79183 0.40376 
v -260.602 5.97217 0.403974 
v -260.668 5.97217 0.246216 
v -260.667 5.79183 0.246216 
v -260.706 5.71393 0.507086 
v -260.602 5.79183 0.0886718 
v -260.602 5.97217 0.0884578 
v -260.814 5.71393 0.246216 
v -260.706 5.71393 -0.0146542 
v -261.002 5.52048 0.246216 
v -260.839 5.52048 0.640396 
v -260.839 5.52048 -0.147964 
v -261.126 5.26486 0.246216 
v -260.927 5.26486 0.72824 
v -260.927 5.00923 0.72824 
v -261.126 5.00923 0.246216 
v -260.852 4.80887 0.653756 
v -261.021 4.80887 0.246216 
v -260.744 4.62924 0.546022 
v -260.445 4.62924 0.670206 
v -260.869 4.62924 0.246216 
v -260.744 4.62924 -0.0535902 
v -260.445 4.62924 -0.177774 
v -260.852 4.80887 -0.161324 
v -260.927 5.00923 -0.235808 
v -260.927 5.26486 -0.235808 
v -259.963 5.00923 0.72824 
v -260.927 5.00923 0.72824 
v -260.744 4.62924 0.546022 
v -260.445 4.62924 0.670206 
v -260.145 4.62924 0.546022 
v -260.869 4.62924 0.246216 
v -260.605 4.51409 0.406084 
v -260.445 4.51409 0.472302 
v -260.671 4.51409 0.246216 
v -260.285 4.51409 0.406084 
v -260.445 4.48185 0.246216 
v -260.605 4.51409 0.0863478 
v -260.219 4.51409 0.246216 
v -260.021 4.62924 0.246216 
v -260.744 4.62924 -0.0535902 
v -260.445 4.51409 0.0201298 
v -260.285 4.51409 0.0863478 
v -260.145 4.62924 -0.0535902 
v -260.445 4.62924 -0.177774 
v -260.927 5.00923 -0.235808 
v -259.963 5.00923 -0.235808 
v -260.21 6.00972 0.481356 
v -260.222 5.97217 0.246216 
v -260.112 6.00972 0.246216 
v -260.21 6.00972 0.0110758 
v -260.287 5.97217 0.403974 
v -260.287 5.97217 0.0884578 
v -260.445 5.97217 0.46932 
v -260.445 5.97217 0.0231118 
v -260.445 6.00972 0.578754 
v -260.445 6.00972 -0.0863222 
v -260.68 6.00972 0.481356 
v -260.68 6.00972 0.0110758 
v -260.602 5.97217 0.403974 
v -260.602 5.97217 0.0884578 
v -260.668 5.97217 0.246216 
v -260.777 6.00972 0.246216 
v -260.68 6.00972 0.0110758 
v -260.697 6.0754 -0.00588417 
v -260.21 6.00972 0.0110758 
v -260.228 6.31286 0.0290738 
v -260.662 6.31286 0.0290738 
v -260.696 6.26168 -0.00485018 
v -260.194 6.26168 -0.00485018 
v -260.193 6.0754 -0.00588417 
v -260.445 6.0754 -0.110308 
v -260.445 6.00972 -0.0863222 
v -260.445 6.26168 -0.108844 
v -260.445 6.31286 -0.0608702 
v -260.287 5.97217 0.403974 
v -260.287 5.79183 0.0886718 
v -260.287 5.97217 0.0884578 
v -260.445 5.97217 0.0231118 
v -260.445 5.79183 0.0234158 
v -260.602 5.79183 0.0886718 
v -260.602 5.97217 0.0884578 
v -260.445 5.71393 -0.12271 
v -260.706 5.71393 -0.0146542 
v -260.839 5.52048 -0.147964 
v -260.445 5.52048 -0.311238 
v -260.184 5.71393 -0.0146542 
v -260.445 5.26486 -0.435468 
v -260.051 5.52048 -0.147964 
v -259.963 5.26486 -0.235808 
v -260.037 4.80887 -0.161324 
v -260.869 4.62924 0.246216 
v -260.744 4.62924 -0.0535902 
v -260.145 4.62924 -0.0535902 
v -260.445 4.62924 -0.177774 
v -260.445 4.80887 -0.330134 
v -260.852 4.80887 -0.161324 
v -260.445 5.00923 -0.435468 
v -260.927 5.00923 -0.235808 
v -260.927 5.26486 -0.235808 
v -259.963 5.00923 -0.235808 

vn 0 -0.346457 0.937008 
vn 0.661417 -0.346457 0.661417 
vn 0.700787 -0.165354 0.700787 
vn 0.984252 -0.165354 0 
vn 0.937008 -0.346457 0 
vn 0.661417 0.362205 0.661417 
vn 0.661417 -0.346457 -0.661417 
vn 0.519685 0.685039 0.519685 
vn 0 0.685039 0.732283 
vn 0.929134 0.362205 0 
vn 0.732283 0.685039 0 
vn 0.519685 0.685039 -0.519685 
vn 0.661417 0.362205 -0.661417 
vn 0.700787 -0.165354 -0.700787 
vn 0 -0.346457 -0.937008 
vn 0 0.685039 -0.732283 
vn 0.559055 0.614173 0.559055 
vn 0.708661 0 0.708661 
vn 1 0 0 
vn 0.795276 0.614173 0 
vn 0.559055 0.614173 -0.559055 
vn 0.708661 0 -0.708661 
vn 0.614173 0.787402 0 
vn 0.440945 0.787402 0.440945 
vn 0.440945 0.787402 -0.440945 
vn 0.826772 0.566929 0 
vn 0.582677 0.566929 -0.582677 
vn 0.976378 0.220472 0 
vn 0.582677 0.566929 0.582677 
vn 0.692913 0.220472 0.692913 
vn 0.692913 0.220472 -0.692913 
vn -0.692913 0.220472 0.692913 
vn 0.685039 -0.23622 0.685039 
vn 0.968504 -0.23622 0 
vn 0.590551 -0.551181 0.590551 
vn 0.464567 -0.755906 0.464567 
vn 0.834646 -0.551181 0 
vn 0.590551 -0.551181 -0.590551 
vn -0.661417 -0.755906 0 
vn 0.661417 -0.755906 0 
vn 0.464567 -0.755906 -0.464567 
vn 0 -0.755906 -0.661417 
vn 0.685039 -0.23622 -0.685039 
vn 0 1 0 
vn 0 1 0 
vn 0 1 0 
vn 0 1 0 
vn 0 1 0 
vn 0 1 0 
vn 0 1 0 
vn 0 1 0 
vn 0 -0.346457 0.937008 
vn 0.937008 -0.346457 0 
vn 0 0.685039 0.732283 
vn 0 0.685039 -0.732283 
vn 0.559055 0.614173 0.559055 
vn 0 0.614173 0.795276 
vn -0.559055 0.614173 0.559055 
vn 0 0.787402 0.614173 
vn -0.795276 0.614173 0 
vn 0.795276 0.614173 0 
vn -0.440945 0.787402 0.440945 
vn 0.559055 0.614173 -0.559055 
vn 0.614173 0.787402 0 
vn 0.440945 0.787402 0.440945 
vn 0 0.614173 -0.795276 
vn -0.559055 0.614173 -0.559055 
vn 0 0.787402 -0.614173 
vn -0.614173 0.787402 0 
vn -0.440945 0.787402 -0.440945 
vn 0.440945 0.787402 -0.440945 
vn -0.700787 -0.165354 0.700787 
vn 0 -0.165354 0.984252 
vn -0.661417 0.362205 0.661417 
vn -0.661417 -0.346457 0.661417 
vn 0 -0.346457 0.937008 
vn 0.661417 -0.346457 0.661417 
vn 0.700787 -0.165354 0.700787 
vn 0.661417 0.362205 0.661417 
vn 0 0.362205 0.929134 
vn 0.519685 0.685039 0.519685 
vn 0 0.685039 0.732283 
vn -0.519685 0.685039 0.519685 
vn 0.559055 0.614173 0.559055 
vn 0 0 1 
vn 0 0.614173 0.795276 
vn 0.708661 0 0.708661 
vn -0.559055 0.614173 0.559055 
vn -0.708661 0 0.708661 
vn 0 0.787402 0.614173 
vn -0.440945 0.787402 0.440945 
vn 0.440945 0.787402 0.440945 
vn 0 0.566929 0.826772 
vn -0.582677 0.566929 0.582677 
vn 0.582677 0.566929 0.582677 
vn 0 0.220472 0.976378 
vn 0.692913 0.220472 0.692913 
vn -0.692913 0.220472 0.692913 
vn 0 -0.23622 0.968504 
vn 0.685039 -0.23622 0.685039 
vn -0.685039 -0.23622 0.685039 
vn -0.590551 -0.551181 0.590551 
vn 0.590551 -0.551181 0.590551 
vn 0 -0.551181 0.834646 
vn -0.464567 -0.755906 0.464567 
vn 0 -0.755906 0.661417 
vn 0.464567 -0.755906 0.464567 
vn -0.700787 -0.165354 0.700787 
vn -0.661417 0.362205 0.661417 
vn -0.661417 -0.346457 0.661417 
vn 0 -0.346457 0.937008 
vn -0.984252 -0.165354 0 
vn -0.937008 -0.346457 0 
vn -0.661417 -0.346457 -0.661417 
vn -0.700787 -0.165354 -0.700787 
vn 0 0.685039 0.732283 
vn -0.519685 0.685039 0.519685 
vn -0.929134 0.362205 0 
vn -0.732283 0.685039 0 
vn -0.519685 0.685039 -0.519685 
vn -0.661417 0.362205 -0.661417 
vn 0 -0.346457 -0.937008 
vn 0 0.685039 -0.732283 
vn 0.708661 0 0.708661 
vn -0.559055 0.614173 0.559055 
vn -0.708661 0 0.708661 
vn -1 0 0 
vn -0.795276 0.614173 0 
vn -0.440945 0.787402 0.440945 
vn -0.559055 0.614173 -0.559055 
vn -0.708661 0 -0.708661 
vn -0.614173 0.787402 0 
vn -0.440945 0.787402 -0.440945 
vn -0.826772 0.566929 0 
vn -0.582677 0.566929 0.582677 
vn -0.582677 0.566929 -0.582677 
vn -0.976378 0.220472 0 
vn -0.692913 0.220472 0.692913 
vn -0.685039 -0.23622 0.685039 
vn -0.968504 -0.23622 0 
vn -0.590551 -0.551181 0.590551 
vn -0.834646 -0.551181 0 
vn -0.464567 -0.755906 0.464567 
vn 0 -0.755906 0.661417 
vn -0.661417 -0.755906 0 
vn -0.464567 -0.755906 -0.464567 
vn 0 -0.755906 -0.661417 
vn -0.590551 -0.551181 -0.590551 
vn -0.685039 -0.23622 -0.685039 
vn -0.692913 0.220472 -0.692913 
vn 0.685039 -0.23622 0.685039 
vn -0.685039 -0.23622 0.685039 
vn -0.464567 -0.755906 0.464567 
vn 0 -0.755906 0.661417 
vn 0.464567 -0.755906 0.464567 
vn -0.661417 -0.755906 0 
vn -0.259843 -0.929134 0.259843 
vn 0 -0.929134 0.362205 
vn -0.362205 -0.929134 0 
vn 0.259843 -0.929134 0.259843 
vn 0 -1 0 
vn -0.259843 -0.929134 -0.259843 
vn 0.362205 -0.929134 0 
vn 0.661417 -0.755906 0 
vn -0.464567 -0.755906 -0.464567 
vn 0 -0.929134 -0.362205 
vn 0.259843 -0.929134 -0.259843 
vn 0.464567 -0.755906 -0.464567 
vn 0 -0.755906 -0.661417 
vn -0.685039 -0.23622 -0.685039 
vn 0.685039 -0.23622 -0.685039 
vn 0.228346 -0.944882 0.228346 
vn 0.322835 -0.944882 0 
vn 0.322835 -0.944882 0 
vn 0.228346 -0.944882 -0.228346 
vn 0.228346 -0.944882 0.228346 
vn 0.228346 -0.944882 -0.228346 
vn 0 -0.944882 0.322835 
vn 0 -0.944882 -0.322835 
vn 0 -0.944882 0.322835 
vn 0 -0.944882 -0.322835 
vn -0.228346 -0.944882 0.228346 
vn -0.228346 -0.944882 -0.228346 
vn -0.228346 -0.944882 0.228346 
vn -0.228346 -0.944882 -0.228346 
vn -0.322835 -0.944882 0 
vn -0.322835 -0.944882 0 
vn -0.661417 -0.346457 -0.661417 
vn -0.700787 -0.165354 -0.700787 
vn 0.661417 -0.346457 -0.661417 
vn 0.519685 0.685039 -0.519685 
vn -0.519685 0.685039 -0.519685 
vn -0.661417 0.362205 -0.661417 
vn 0.661417 0.362205 -0.661417 
vn 0.700787 -0.165354 -0.700787 
vn 0 -0.165354 -0.984252 
vn 0 -0.346457 -0.937008 
vn 0 0.362205 -0.929134 
vn 0 0.685039 -0.732283 
vn 0.708661 0 0.708661 
vn 0.559055 0.614173 -0.559055 
vn 0.708661 0 -0.708661 
vn 0 0 -1 
vn 0 0.614173 -0.795276 
vn -0.559055 0.614173 -0.559055 
vn -0.708661 0 -0.708661 
vn 0 0.787402 -0.614173 
vn -0.440945 0.787402 -0.440945 
vn -0.582677 0.566929 -0.582677 
vn 0 0.566929 -0.826772 
vn 0.440945 0.787402 -0.440945 
vn 0 0.220472 -0.976378 
vn 0.582677 0.566929 -0.582677 
vn 0.692913 0.220472 -0.692913 
vn 0.590551 -0.551181 -0.590551 
vn -0.661417 -0.755906 0 
vn -0.464567 -0.755906 -0.464567 
vn 0.464567 -0.755906 -0.464567 
vn 0 -0.755906 -0.661417 
vn 0 -0.551181 -0.834646 
vn -0.590551 -0.551181 -0.590551 
vn 0 -0.23622 -0.968504 
vn -0.685039 -0.23622 -0.685039 
vn -0.692913 0.220472 -0.692913 
vn 0.685039 -0.23622 -0.685039 

vt 0.869161 -0.256568 
vt 0.881336 -0.256568 
vt 0.879216 -0.248358 
vt 0.910729 -0.248358 
vt 0.910729 -0.256568 
vt 0.879345 -0.225073 
vt 0.940121 -0.256568 
vt 0.883586 -0.218675 
vt 0.872343 -0.218675 
vt 0.910729 -0.225073 
vt 0.910729 -0.218675 
vt 0.937871 -0.218675 
vt 0.942112 -0.225073 
vt 0.942241 -0.248358 
vt 0.952296 -0.256568 
vt 0.949114 -0.218675 
vt 0.891036 -0.283804 
vt 0.891009 -0.261262 
vt 0.910729 -0.261262 
vt 0.910729 -0.283804 
vt 0.930422 -0.283804 
vt 0.930448 -0.261262 
vt 0.910729 -0.293541 
vt 0.87812 -0.293541 
vt 0.943337 -0.293541 
vt 0.910729 -0.317722 
vt 0.960001 -0.317722 
vt 0.910729 -0.349676 
vt 0.861456 -0.317722 
vt 0.850476 -0.349676 
vt 0.970982 -0.349676 
vt 0.850476 -0.349676 
vt 0.850476 -0.381629 
vt 0.910729 -0.381629 
vt 0.859786 -0.406674 
vt 0.873253 -0.429128 
vt 0.910729 -0.406674 
vt 0.961671 -0.406674 
vt 0.910729 -0.429128 
vt 0.910729 -0.429128 
vt 0.948204 -0.429128 
vt 0.963727 -0.429128 
vt 0.970982 -0.381629 
vt 0.937871 -0.360256 
vt 0.883586 -0.360256 
vt 0.910729 -0.371499 
vt 0.937871 -0.305971 
vt 0.949114 -0.333113 
vt 0.883586 -0.305971 
vt 0.910729 -0.294728 
vt 0.872343 -0.333113 
vt 0.910729 -0.291546 
vt 0.869161 -0.333113 
vt 0.910729 -0.294728 
vt 0.910729 -0.371499 
vt 0.891036 -0.31342 
vt 0.910729 -0.305263 
vt 0.930422 -0.31342 
vt 0.910729 -0.286998 
vt 0.938579 -0.333113 
vt 0.882879 -0.333113 
vt 0.943337 -0.300505 
vt 0.891036 -0.352806 
vt 0.864613 -0.333113 
vt 0.87812 -0.300505 
vt 0.910729 -0.360963 
vt 0.930422 -0.352806 
vt 0.910729 -0.379229 
vt 0.956844 -0.333113 
vt 0.943337 -0.365722 
vt 0.87812 -0.365722 
vt 0.879216 -0.248358 
vt 0.910729 -0.248358 
vt 0.879345 -0.225073 
vt 0.881336 -0.256568 
vt 0.910729 -0.256568 
vt 0.940121 -0.256568 
vt 0.942241 -0.248358 
vt 0.942112 -0.225073 
vt 0.910729 -0.225073 
vt 0.937871 -0.218675 
vt 0.910729 -0.218675 
vt 0.883586 -0.218675 
vt 0.930422 -0.283804 
vt 0.910729 -0.261262 
vt 0.910729 -0.283804 
vt 0.930448 -0.261262 
vt 0.891036 -0.283804 
vt 0.891009 -0.261262 
vt 0.910729 -0.293541 
vt 0.87812 -0.293541 
vt 0.943337 -0.293541 
vt 0.910729 -0.317722 
vt 0.861456 -0.317722 
vt 0.960001 -0.317722 
vt 0.910729 -0.349676 
vt 0.970982 -0.349676 
vt 0.850476 -0.349676 
vt 0.910729 -0.381629 
vt 0.970982 -0.381629 
vt 0.850476 -0.381629 
vt 0.859786 -0.406674 
vt 0.961671 -0.406674 
vt 0.910729 -0.406674 
vt 0.873253 -0.429128 
vt 0.910729 -0.429128 
vt 0.948204 -0.429128 
vt 0.942241 -0.248358 
vt 0.942112 -0.225073 
vt 0.940121 -0.256568 
vt 0.952296 -0.256568 
vt 0.910729 -0.248358 
vt 0.910729 -0.256568 
vt 0.881336 -0.256568 
vt 0.879216 -0.248358 
vt 0.949114 -0.218675 
vt 0.937871 -0.218675 
vt 0.910729 -0.225073 
vt 0.910729 -0.218675 
vt 0.883586 -0.218675 
vt 0.879345 -0.225073 
vt 0.869161 -0.256568 
vt 0.872343 -0.218675 
vt 0.930448 -0.261262 
vt 0.930422 -0.283804 
vt 0.930448 -0.261262 
vt 0.910729 -0.261262 
vt 0.910729 -0.283804 
vt 0.943337 -0.293541 
vt 0.891036 -0.283804 
vt 0.891009 -0.261262 
vt 0.910729 -0.293541 
vt 0.87812 -0.293541 
vt 0.910729 -0.317722 
vt 0.960001 -0.317722 
vt 0.861456 -0.317722 
vt 0.910729 -0.349676 
vt 0.970982 -0.349676 
vt 0.970982 -0.381629 
vt 0.910729 -0.381629 
vt 0.961671 -0.406674 
vt 0.910729 -0.406674 
vt 0.948204 -0.429128 
vt 0.963727 -0.429128 
vt 0.910729 -0.429128 
vt 0.873253 -0.429128 
vt 0.85773 -0.429128 
vt 0.859786 -0.406674 
vt 0.850476 -0.381629 
vt 0.850476 -0.349676 
vt 0.970982 -0.27286 
vt 0.850476 -0.27286 
vt 0.873253 -0.295638 
vt 0.910729 -0.280115 
vt 0.948204 -0.295638 
vt 0.85773 -0.333113 
vt 0.890745 -0.31313 
vt 0.910729 -0.304853 
vt 0.882468 -0.333113 
vt 0.930712 -0.31313 
vt 0.910729 -0.333113 
vt 0.890745 -0.353097 
vt 0.938989 -0.333113 
vt 0.963727 -0.333113 
vt 0.873253 -0.370589 
vt 0.910729 -0.361374 
vt 0.930712 -0.353097 
vt 0.948204 -0.370589 
vt 0.910729 -0.386112 
vt 0.850476 -0.393366 
vt 0.970982 -0.393366 
vt 0.940121 -0.303721 
vt 0.938617 -0.333113 
vt 0.952296 -0.333113 
vt 0.940121 -0.362506 
vt 0.930448 -0.313394 
vt 0.930448 -0.352833 
vt 0.910729 -0.305225 
vt 0.910729 -0.361001 
vt 0.910729 -0.291546 
vt 0.910729 -0.374681 
vt 0.881336 -0.303721 
vt 0.881336 -0.362506 
vt 0.891009 -0.313394 
vt 0.891009 -0.352833 
vt 0.882841 -0.333113 
vt 0.869161 -0.333113 
vt 0.940121 -0.256568 
vt 0.942241 -0.248358 
vt 0.881336 -0.256568 
vt 0.883586 -0.218675 
vt 0.937871 -0.218675 
vt 0.942112 -0.225073 
vt 0.879345 -0.225073 
vt 0.879216 -0.248358 
vt 0.910729 -0.248358 
vt 0.910729 -0.256568 
vt 0.910729 -0.225073 
vt 0.910729 -0.218675 
vt 0.891009 -0.261262 
vt 0.891036 -0.283804 
vt 0.891009 -0.261262 
vt 0.910729 -0.261262 
vt 0.910729 -0.283804 
vt 0.930422 -0.283804 
vt 0.930448 -0.261262 
vt 0.910729 -0.293541 
vt 0.943337 -0.293541 
vt 0.960001 -0.317722 
vt 0.910729 -0.317722 
vt 0.87812 -0.293541 
vt 0.910729 -0.349676 
vt 0.861456 -0.317722 
vt 0.850476 -0.349676 
vt 0.859786 -0.406674 
vt 0.963727 -0.429128 
vt 0.948204 -0.429128 
vt 0.873253 -0.429128 
vt 0.910729 -0.429128 
vt 0.910729 -0.406674 
vt 0.961671 -0.406674 
vt 0.910729 -0.381629 
vt 0.970982 -0.381629 
vt 0.970982 -0.349676 
vt 0.850476 -0.381629 

usemtl Meshpart3Mtl

f 150/150/150 152/152/152 151/151/151 
f 152/152/152 150/150/150 153/153/153 
f 152/152/152 154/154/154 151/151/151 
f 155/155/155 152/152/152 153/153/153 
f 158/158/158 156/156/156 154/154/154 
f 154/154/154 152/152/152 158/158/158 
f 156/156/156 158/158/158 159/159/159 
f 158/158/158 160/160/160 159/159/159 
f 160/160/160 158/158/158 161/161/161 
f 152/152/152 161/161/161 158/158/158 
f 161/161/161 152/152/152 162/162/162 
f 162/162/162 152/152/152 155/155/155 
f 167/167/167 166/166/166 165/165/165 
f 168/168/168 167/167/167 165/165/165 
f 169/169/169 167/167/167 168/168/168 
f 167/167/167 169/169/169 170/170/170 
f 173/173/173 171/171/171 174/174/174 
f 175/175/175 173/173/173 174/174/174 
f 172/172/172 174/174/174 171/171/171 
f 175/175/175 174/174/174 176/176/176 
f 174/174/174 172/172/172 177/177/177 
f 177/177/177 176/176/176 174/174/174 
f 176/176/176 177/177/177 178/178/178 
f 179/179/179 175/175/175 176/176/176 
f 176/176/176 178/178/178 181/181/181 
f 181/181/181 182/182/182 176/176/176 
f 179/179/179 176/176/176 182/182/182 
f 182/182/182 181/181/181 183/183/183 
f 183/183/183 185/185/185 182/182/182 
f 185/185/185 183/183/183 184/184/184 
f 186/186/186 182/182/182 185/185/185 
f 188/188/188 185/185/185 184/184/184 
f 189/189/189 185/185/185 188/188/188 
f 185/185/185 189/189/189 186/186/186 
f 182/182/182 186/186/186 191/191/191 
f 182/182/182 191/191/191 179/179/179 
f 192/192/192 193/193/193 194/194/194 
f 193/193/193 192/192/192 195/195/195 
f 195/195/195 192/192/192 196/196/196 
f 193/193/193 195/195/195 197/197/197 
f 197/197/197 195/195/195 198/198/198 
f 193/193/193 197/197/197 199/199/199 
f 206/206/206 207/207/207 205/205/205 
f 207/207/207 204/204/204 205/205/205 
f 207/207/207 206/206/206 210/210/210 
f 204/204/204 212/212/212 209/209/209 
f 211/211/211 209/209/209 212/212/212 
f 204/204/204 207/207/207 213/213/213 
f 212/212/212 204/204/204 213/213/213 
f 216/216/216 215/215/215 214/214/214 
f 211/211/211 216/216/216 214/214/214 
f 215/215/215 217/217/217 208/208/208 
f 217/217/217 206/206/206 208/208/208 
f 217/217/217 210/210/210 206/206/206 
f 217/217/217 215/215/215 218/218/218 
f 216/216/216 218/218/218 215/215/215 
f 216/216/216 211/211/211 219/219/219 
f 211/211/211 212/212/212 219/219/219 
f 220/220/220 221/221/221 222/222/222 
f 223/223/223 221/221/221 220/220/220 
f 221/221/221 223/223/223 224/224/224 
f 224/224/224 225/225/225 221/221/221 
f 226/226/226 221/221/221 225/225/225 
f 227/227/227 221/221/221 226/226/226 
f 221/221/221 227/227/227 228/228/228 
f 221/221/221 228/228/228 222/222/222 
f 228/228/228 227/227/227 229/229/229 
f 228/228/228 229/229/229 230/230/230 
f 231/231/231 228/228/228 230/230/230 
f 228/228/228 231/231/231 222/222/222 
f 232/232/232 233/233/233 234/234/234 
f 233/233/233 232/232/232 235/235/235 
f 236/236/236 234/234/234 233/233/233 
f 236/236/236 233/233/233 237/237/237 
f 241/241/241 240/240/240 238/238/238 
f 239/239/239 241/241/241 238/238/238 
f 241/241/241 239/239/239 242/242/242 
f 241/241/241 243/243/243 240/240/240 
f 244/244/244 243/243/243 241/241/241 
f 242/242/242 244/244/244 241/241/241 
f 244/244/244 245/245/245 243/243/243 
f 244/244/244 242/242/242 246/246/246 
f 247/247/247 245/245/245 244/244/244 
f 247/247/247 248/248/248 245/245/245 
f 249/249/249 244/244/244 246/246/246 
f 249/249/249 247/247/247 244/244/244 
f 247/247/247 249/249/249 250/250/250 
f 247/247/247 251/251/251 248/248/248 
f 250/250/250 252/252/252 247/247/247 
f 251/251/251 247/247/247 252/252/252 
f 252/252/252 250/250/250 253/253/253 
f 253/253/253 254/254/254 252/252/252 
f 252/252/252 255/255/255 251/251/251 
f 255/255/255 252/252/252 254/254/254 
f 260/260/260 258/258/258 256/256/256 
f 257/257/257 260/260/260 256/256/256 
f 261/261/261 258/258/258 260/260/260 
f 260/260/260 262/262/262 261/261/261 
f 262/262/262 260/260/260 263/263/263 
f 266/266/266 257/257/257 265/265/265 
f 265/265/265 267/267/267 266/266/266 
f 260/260/260 257/257/257 266/266/266 
f 268/268/268 266/266/266 267/267/267 
f 269/269/269 260/260/260 266/266/266 
f 266/266/266 268/268/268 269/269/269 
f 269/269/269 263/263/263 260/260/260 
f 275/275/275 273/273/273 274/274/274 
f 273/273/273 275/275/275 276/276/276 
f 278/278/278 275/275/275 279/279/279 
f 275/275/275 278/278/278 276/276/276 
f 282/282/282 277/277/277 280/280/280 
f 281/281/281 282/282/282 280/280/280 
f 282/282/282 283/283/283 277/277/277 
f 282/282/282 281/281/281 284/284/284 
f 284/284/284 285/285/285 282/282/282 
f 285/285/285 283/283/283 282/282/282 
f 283/283/283 285/285/285 286/286/286 
f 286/286/286 288/288/288 287/287/287 
f 288/288/288 286/286/286 285/285/285 
f 288/288/288 289/289/289 287/287/287 
f 289/289/289 288/288/288 290/290/290 
f 290/290/290 291/291/291 289/289/289 
f 291/291/291 290/290/290 293/293/293 
f 290/290/290 294/294/294 293/293/293 
f 294/294/294 290/290/290 296/296/296 
f 288/288/288 296/296/296 290/290/290 
f 296/296/296 288/288/288 297/297/297 
f 285/285/285 297/297/297 288/288/288 
f 297/297/297 285/285/285 298/298/298 
f 285/285/285 284/284/284 298/298/298 
f 302/302/302 301/301/301 305/305/305 
f 304/304/304 305/305/305 301/301/301 
f 306/306/306 302/302/302 305/305/305 
f 305/305/305 304/304/304 307/307/307 
f 308/308/308 302/302/302 306/306/306 
f 302/302/302 308/308/308 303/303/303 
f 306/306/306 305/305/305 309/309/309 
f 305/305/305 307/307/307 309/309/309 
f 308/308/308 306/306/306 309/309/309 
f 304/304/304 310/310/310 307/307/307 
f 307/307/307 310/310/310 309/309/309 
f 311/311/311 308/308/308 309/309/309 
f 303/303/303 308/308/308 312/312/312 
f 312/312/312 308/308/308 311/311/311 
f 304/304/304 313/313/313 310/310/310 
f 310/310/310 314/314/314 309/309/309 
f 315/315/315 311/311/311 309/309/309 
f 315/315/315 312/312/312 311/311/311 
f 314/314/314 315/315/315 309/309/309 
f 312/312/312 315/315/315 316/316/316 
f 317/317/317 315/315/315 314/314/314 
f 310/310/310 317/317/317 314/314/314 
f 315/315/315 317/317/317 316/316/316 
f 317/317/317 310/310/310 313/313/313 
f 320/320/320 321/321/321 322/322/322 
f 323/323/323 322/322/322 321/321/321 
f 321/321/321 320/320/320 324/324/324 
f 323/323/323 321/321/321 325/325/325 
f 320/320/320 326/326/326 324/324/324 
f 327/327/327 323/323/323 325/325/325 
f 326/326/326 320/320/320 328/328/328 
f 323/323/323 327/327/327 329/329/329 
f 330/330/330 326/326/326 328/328/328 
f 331/331/331 329/329/329 327/327/327 
f 326/326/326 330/330/330 332/332/332 
f 331/331/331 327/327/327 333/333/333 
f 330/330/330 334/334/334 332/332/332 
f 334/334/334 331/331/331 333/333/333 
f 334/334/334 330/330/330 335/335/335 
f 331/331/331 334/334/334 335/335/335 
f 338/338/338 344/344/344 343/343/343 
f 344/344/344 342/342/342 343/343/343 
f 341/341/341 344/344/344 337/337/337 
f 344/344/344 338/338/338 345/345/345 
f 344/344/344 336/336/336 337/337/337 
f 336/336/336 344/344/344 345/345/345 
f 342/342/342 344/344/344 346/346/346 
f 344/344/344 341/341/341 346/346/346 
f 346/346/346 339/339/339 342/342/342 
f 346/346/346 341/341/341 340/340/340 
f 339/339/339 346/346/346 347/347/347 
f 340/340/340 347/347/347 346/346/346 
f 349/349/349 351/351/351 350/350/350 
f 351/351/351 349/349/349 352/352/352 
f 353/353/353 351/351/351 352/352/352 
f 351/351/351 353/353/353 354/354/354 
f 355/355/355 358/358/358 356/356/356 
f 356/356/356 358/358/358 357/357/357 
f 359/359/359 358/358/358 355/355/355 
f 358/358/358 360/360/360 357/357/357 
f 358/358/358 359/359/359 361/361/361 
f 361/361/361 360/360/360 358/358/358 
f 360/360/360 361/361/361 362/362/362 
f 368/368/368 366/366/366 367/367/367 
f 365/365/365 368/368/368 367/367/367 
f 363/363/363 366/366/366 368/368/368 
f 368/368/368 365/365/365 369/369/369 
f 370/370/370 363/363/363 368/368/368 
f 369/369/369 370/370/370 368/368/368 
f 370/370/370 369/369/369 371/371/371 
f 372/372/372 370/370/370 371/371/371 
f 357/357/357 360/360/360 372/372/372 
f 372/372/372 360/360/360 370/370/370 
f 363/363/363 370/370/370 373/373/373 
f 360/360/360 373/373/373 370/370/370 
f 360/360/360 362/362/362 373/373/373 

