# This file is brought to you by Roblox Corporation
# Generated by Roblox Studio

mtllib Fists.mtl

g Rightarmwrapped1

v -68.5771 1.88863 -1.7653 
v -68.8058 0.100365 -3.53829 
v -68.806 1.88834 -3.53856 
v -68.577 0.100658 -1.76503 
v -68.8847 -0.00565571 -3.5281 
v -68.8983 0.100341 -3.63325 
v -68.8058 0.100365 -3.53829 
v -68.806 1.88834 -3.53856 
v -68.8985 1.88831 -3.63353 
v -68.8849 1.99434 -3.5284 
v -68.6558 -0.00536221 -1.75483 
v -68.577 0.100658 -1.76503 
v -68.6422 0.100669 -1.64971 
v -68.6424 1.88864 -1.64998 
v -68.5771 1.88863 -1.7653 
v -68.656 1.99464 -1.75514 
v -68.8058 0.100365 -3.53829 
v -68.6558 -0.00536221 -1.75483 
v -68.8847 -0.00565571 -3.5281 
v -68.577 0.100658 -1.76503 
v -68.5771 1.88863 -1.7653 
v -68.8849 1.99434 -3.5284 
v -68.656 1.99464 -1.75514 
v -68.806 1.88834 -3.53856 
v -68.6422 0.100669 -1.64971 
v -74.4352 0.100186 -0.901991 
v -74.4487 -0.00584555 -1.00712 
v -68.6558 -0.00536221 -1.75483 
v -68.656 1.99464 -1.75514 
v -74.4489 1.99415 -1.00742 
v -74.4353 1.88816 -0.902263 
v -68.6424 1.88864 -1.64998 
v -74.4353 1.88816 -0.902263 
v -68.6422 0.100669 -1.64971 
v -68.6424 1.88864 -1.64998 
v -74.4352 0.100186 -0.901991 
v -74.6776 -0.00613904 -2.78038 
v -68.8847 -0.00565571 -3.5281 
v -68.6558 -0.00536221 -1.75483 
v -74.4487 -0.00584555 -1.00712 
v -74.7567 1.88784 -2.77049 
v -74.5276 0.100162 -0.996954 
v -74.5278 1.88813 -0.997226 
v -74.7565 0.0998684 -2.77022 
v -74.6776 -0.00613904 -2.78038 
v -74.7565 0.0998684 -2.77022 
v -74.6912 0.0998575 -2.88554 
v -74.6914 1.88783 -2.88581 
v -74.7567 1.88784 -2.77049 
v -74.6778 1.99386 -2.78068 
v -74.4487 -0.00584555 -1.00712 
v -74.4352 0.100186 -0.901991 
v -74.5276 0.100162 -0.996954 
v -74.5278 1.88813 -0.997226 
v -74.4353 1.88816 -0.902263 
v -74.4489 1.99415 -1.00742 
v -74.5276 0.100162 -0.996954 
v -74.7565 0.0998684 -2.77022 
v -74.6776 -0.00613904 -2.78038 
v -74.4487 -0.00584555 -1.00712 
v -74.7567 1.88784 -2.77049 
v -74.5278 1.88813 -0.997226 
v -74.4489 1.99415 -1.00742 
v -74.6778 1.99386 -2.78068 
v -74.6912 0.0998575 -2.88554 
v -68.8983 0.100341 -3.63325 
v -68.8847 -0.00565571 -3.5281 
v -74.6776 -0.00613904 -2.78038 
v -74.6778 1.99386 -2.78068 
v -68.8849 1.99434 -3.5284 
v -68.8985 1.88831 -3.63353 
v -74.6914 1.88783 -2.88581 
v -68.8985 1.88831 -3.63353 
v -74.6912 0.0998575 -2.88554 
v -74.6914 1.88783 -2.88581 
v -68.8983 0.100341 -3.63325 
v -74.4489 1.99415 -1.00742 
v -68.656 1.99464 -1.75514 
v -68.8849 1.99434 -3.5284 
v -74.6778 1.99386 -2.78068 

vn 0.952756 0.267717 0.149606 
vn 0.88189 -0.267717 -0.385827 
vn 0.88189 0.267717 -0.385827 
vn 0.952756 -0.267717 0.149606 
vn 0.393701 -0.834646 -0.377953 
vn 0.322835 -0.330709 -0.889764 
vn 0.88189 -0.267717 -0.385827 
vn 0.88189 0.267717 -0.385827 
vn 0.322835 0.330709 -0.889764 
vn 0.393701 0.834646 -0.377953 
vn 0.472441 -0.834646 0.267717 
vn 0.952756 -0.267717 0.149606 
vn 0.543307 -0.330709 0.771654 
vn 0.543307 0.330709 0.771654 
vn 0.952756 0.267717 0.149606 
vn 0.472441 0.834646 0.267717 
vn 0.88189 -0.267717 -0.385827 
vn 0.472441 -0.834646 0.267717 
vn 0.393701 -0.834646 -0.377953 
vn 0.952756 -0.267717 0.149606 
vn 0.952756 0.267717 0.149606 
vn 0.393701 0.834646 -0.377953 
vn 0.472441 0.834646 0.267717 
vn 0.88189 0.267717 -0.385827 
vn 0.543307 -0.330709 0.771654 
vn -0.322835 -0.330709 0.889764 
vn -0.393701 -0.834646 0.377953 
vn 0.472441 -0.834646 0.267717 
vn 0.472441 0.834646 0.267717 
vn -0.393701 0.834646 0.377953 
vn -0.322835 0.330709 0.889764 
vn 0.543307 0.330709 0.771654 
vn -0.322835 0.330709 0.889764 
vn 0.543307 -0.330709 0.771654 
vn 0.543307 0.330709 0.771654 
vn -0.322835 -0.330709 0.889764 
vn -0.472441 -0.834646 -0.267717 
vn 0.393701 -0.834646 -0.377953 
vn 0.472441 -0.834646 0.267717 
vn -0.393701 -0.834646 0.377953 
vn -0.952756 0.267717 -0.149606 
vn -0.88189 -0.267717 0.385827 
vn -0.88189 0.267717 0.385827 
vn -0.952756 -0.267717 -0.149606 
vn -0.472441 -0.834646 -0.267717 
vn -0.952756 -0.267717 -0.149606 
vn -0.543307 -0.330709 -0.771654 
vn -0.543307 0.330709 -0.771654 
vn -0.952756 0.267717 -0.149606 
vn -0.472441 0.834646 -0.267717 
vn -0.393701 -0.834646 0.377953 
vn -0.322835 -0.330709 0.889764 
vn -0.88189 -0.267717 0.385827 
vn -0.88189 0.267717 0.385827 
vn -0.322835 0.330709 0.889764 
vn -0.393701 0.834646 0.377953 
vn -0.88189 -0.267717 0.385827 
vn -0.952756 -0.267717 -0.149606 
vn -0.472441 -0.834646 -0.267717 
vn -0.393701 -0.834646 0.377953 
vn -0.952756 0.267717 -0.149606 
vn -0.88189 0.267717 0.385827 
vn -0.393701 0.834646 0.377953 
vn -0.472441 0.834646 -0.267717 
vn -0.543307 -0.330709 -0.771654 
vn 0.322835 -0.330709 -0.889764 
vn 0.393701 -0.834646 -0.377953 
vn -0.472441 -0.834646 -0.267717 
vn -0.472441 0.834646 -0.267717 
vn 0.393701 0.834646 -0.377953 
vn 0.322835 0.330709 -0.889764 
vn -0.543307 0.330709 -0.771654 
vn 0.322835 0.330709 -0.889764 
vn -0.543307 -0.330709 -0.771654 
vn -0.543307 0.330709 -0.771654 
vn 0.322835 -0.330709 -0.889764 
vn -0.393701 0.834646 0.377953 
vn 0.472441 0.834646 0.267717 
vn 0.393701 0.834646 -0.377953 
vn -0.472441 0.834646 -0.267717 

vt 62.1117 -48.8883 
vt 61.8883 -49.1117 
vt 62.1117 -49.1117 
vt 61.8883 -48.8883 
vt 61.875 -49.1117 
vt 61.8883 -49.125 
vt 61.8883 -49.1117 
vt 62.1117 -49.1117 
vt 62.1117 -49.125 
vt 62.125 -49.1117 
vt 61.875 -48.8883 
vt 61.8883 -48.8883 
vt 61.8883 -48.875 
vt 62.1117 -48.875 
vt 62.1117 -48.8883 
vt 62.125 -48.8883 
vt 61.8883 -49.1117 
vt 61.875 -48.8883 
vt 61.875 -49.1117 
vt 61.8883 -48.8883 
vt 62.1117 -48.8883 
vt 62.125 -49.1117 
vt 62.125 -48.8883 
vt 62.1117 -49.1117 
vt 61.6349 -48.8883 
vt 62.3651 -48.8883 
vt 62.3651 -48.875 
vt 61.6349 -48.875 
vt 61.6349 -49.125 
vt 62.3651 -49.125 
vt 62.3651 -49.1117 
vt 61.6349 -49.1117 
vt 62.3651 -49.1117 
vt 61.6349 -48.8883 
vt 61.6349 -49.1117 
vt 62.3651 -48.8883 
vt 61.6349 -49.1117 
vt 62.3651 -49.1117 
vt 62.3651 -48.8883 
vt 61.6349 -48.8883 
vt 61.8883 -49.1117 
vt 62.1117 -48.8883 
vt 61.8883 -48.8883 
vt 62.1117 -49.1117 
vt 62.125 -49.1117 
vt 62.1117 -49.1117 
vt 62.1117 -49.125 
vt 61.8883 -49.125 
vt 61.8883 -49.1117 
vt 61.875 -49.1117 
vt 62.125 -48.8883 
vt 62.1117 -48.875 
vt 62.1117 -48.8883 
vt 61.8883 -48.8883 
vt 61.8883 -48.875 
vt 61.875 -48.8883 
vt 62.1117 -48.8883 
vt 62.1117 -49.1117 
vt 62.125 -49.1117 
vt 62.125 -48.8883 
vt 61.8883 -49.1117 
vt 61.8883 -48.8883 
vt 61.875 -48.8883 
vt 61.875 -49.1117 
vt 61.6349 -48.8883 
vt 62.3651 -48.8883 
vt 62.3651 -48.875 
vt 61.6349 -48.875 
vt 61.6349 -49.125 
vt 62.3651 -49.125 
vt 62.3651 -49.1117 
vt 61.6349 -49.1117 
vt 62.3651 -49.1117 
vt 61.6349 -48.8883 
vt 61.6349 -49.1117 
vt 62.3651 -48.8883 
vt 62.3651 -48.8883 
vt 61.6349 -48.8883 
vt 61.6349 -49.1117 
vt 62.3651 -49.1117 

usemtl Rightarmwrapped1Mtl

f 1/1/1 2/2/2 3/3/3 
f 2/2/2 1/1/1 4/4/4 
f 5/5/5 6/6/6 7/7/7 
f 6/6/6 8/8/8 7/7/7 
f 8/8/8 6/6/6 9/9/9 
f 9/9/9 10/10/10 8/8/8 
f 11/11/11 12/12/12 13/13/13 
f 14/14/14 13/13/13 12/12/12 
f 12/12/12 15/15/15 14/14/14 
f 16/16/16 14/14/14 15/15/15 
f 17/17/17 18/18/18 19/19/19 
f 18/18/18 17/17/17 20/20/20 
f 21/21/21 22/22/22 23/23/23 
f 22/22/22 21/21/21 24/24/24 
f 25/25/25 26/26/26 27/27/27 
f 25/25/25 27/27/27 28/28/28 
f 29/29/29 30/30/30 31/31/31 
f 29/29/29 31/31/31 32/32/32 
f 33/33/33 34/34/34 35/35/35 
f 34/34/34 33/33/33 36/36/36 
f 37/37/37 38/38/38 39/39/39 
f 37/37/37 39/39/39 40/40/40 
f 41/41/41 42/42/42 43/43/43 
f 42/42/42 41/41/41 44/44/44 
f 45/45/45 46/46/46 47/47/47 
f 48/48/48 47/47/47 46/46/46 
f 46/46/46 49/49/49 48/48/48 
f 50/50/50 48/48/48 49/49/49 
f 51/51/51 52/52/52 53/53/53 
f 54/54/54 53/53/53 52/52/52 
f 52/52/52 55/55/55 54/54/54 
f 56/56/56 54/54/54 55/55/55 
f 57/57/57 58/58/58 59/59/59 
f 59/59/59 60/60/60 57/57/57 
f 61/61/61 62/62/62 63/63/63 
f 63/63/63 64/64/64 61/61/61 
f 65/65/65 66/66/66 67/67/67 
f 65/65/65 67/67/67 68/68/68 
f 69/69/69 70/70/70 71/71/71 
f 69/69/69 71/71/71 72/72/72 
f 73/73/73 74/74/74 75/75/75 
f 74/74/74 73/73/73 76/76/76 
f 77/77/77 78/78/78 79/79/79 
f 77/77/77 79/79/79 80/80/80 

g Leftarmwrapped1

v -67.2375 1.88346 1.8297 
v -67.3699 0.0900182 3.60727 
v -67.2393 0.0954974 1.82408 
v -67.3681 1.87798 3.61289 
v -67.4569 0.0897909 3.70719 
v -67.4493 -0.0158975 3.60113 
v -67.3699 0.0900182 3.60727 
v -67.2393 0.0954974 1.82408 
v -67.3187 -0.0104184 1.81794 
v -67.3109 0.0959198 1.71254 
v -67.4551 1.87775 3.71282 
v -67.3681 1.87798 3.61289 
v -67.4473 1.98409 3.60742 
v -67.3167 1.98957 1.82423 
v -67.2375 1.88346 1.8297 
v -67.3091 1.88388 1.71817 
v -67.3699 0.0900182 3.60727 
v -67.4551 1.87775 3.71282 
v -67.4569 0.0897909 3.70719 
v -67.3681 1.87798 3.61289 
v -67.2375 1.88346 1.8297 
v -67.3109 0.0959198 1.71254 
v -67.3091 1.88388 1.71817 
v -67.2393 0.0954974 1.82408 
v -67.4473 1.98409 3.60742 
v -73.2726 1.99126 3.18103 
v -73.2805 1.88492 3.28643 
v -67.4551 1.87775 3.71282 
v -67.3091 1.88388 1.71817 
v -73.1345 1.89105 1.29178 
v -73.1421 1.99674 1.39784 
v -67.3167 1.98957 1.82423 
v -73.1421 1.99674 1.39784 
v -67.4473 1.98409 3.60742 
v -67.3167 1.98957 1.82423 
v -73.2726 1.99126 3.18103 
v -73.2823 0.0969585 3.2808 
v -67.4569 0.0897909 3.70719 
v -67.4551 1.87775 3.71282 
v -73.2805 1.88492 3.28643 
v -73.2233 0.10286 1.38608 
v -73.3521 1.88534 3.17489 
v -73.2215 1.89082 1.3917 
v -73.3538 0.0973809 3.16927 
v -73.2823 0.0969585 3.2808 
v -73.3538 0.0973809 3.16927 
v -73.2746 -0.00873005 3.17474 
v -73.1441 -0.00325084 1.39155 
v -73.2233 0.10286 1.38608 
v -73.1363 0.103087 1.28615 
v -73.2805 1.88492 3.28643 
v -73.2726 1.99126 3.18103 
v -73.3521 1.88534 3.17489 
v -73.2215 1.89082 1.3917 
v -73.1421 1.99674 1.39784 
v -73.1345 1.89105 1.29178 
v -73.3521 1.88534 3.17489 
v -73.3538 0.0973809 3.16927 
v -73.2823 0.0969585 3.2808 
v -73.2805 1.88492 3.28643 
v -73.2233 0.10286 1.38608 
v -73.2215 1.89082 1.3917 
v -73.1345 1.89105 1.29178 
v -73.1363 0.103087 1.28615 
v -73.2746 -0.00873005 3.17474 
v -67.4493 -0.0158975 3.60113 
v -67.4569 0.0897909 3.70719 
v -73.2823 0.0969585 3.2808 
v -73.1363 0.103087 1.28615 
v -67.3109 0.0959198 1.71254 
v -67.3187 -0.0104184 1.81794 
v -73.1441 -0.00325084 1.39155 
v -67.3187 -0.0104184 1.81794 
v -73.2746 -0.00873005 3.17474 
v -73.1441 -0.00325084 1.39155 
v -67.4493 -0.0158975 3.60113 
v -73.1345 1.89105 1.29178 
v -67.3091 1.88388 1.71817 
v -67.3109 0.0959198 1.71254 
v -73.1363 0.103087 1.28615 

vn 0.944882 0.267717 -0.204724 
vn 0.897638 -0.275591 0.338583 
vn 0.944882 -0.267717 -0.204724 
vn 0.905512 0.267717 0.338583 
vn 0.370079 -0.330709 0.866142 
vn 0.409449 -0.84252 0.354331 
vn 0.897638 -0.275591 0.338583 
vn 0.944882 -0.267717 -0.204724 
vn 0.456693 -0.834646 -0.299213 
vn 0.496063 -0.322835 -0.80315 
vn 0.377953 0.322835 0.866142 
vn 0.905512 0.267717 0.338583 
vn 0.409449 0.834646 0.362205 
vn 0.456693 0.84252 -0.291339 
vn 0.944882 0.267717 -0.204724 
vn 0.496063 0.330709 -0.80315 
vn 0.897638 -0.275591 0.338583 
vn 0.377953 0.322835 0.866142 
vn 0.370079 -0.330709 0.866142 
vn 0.905512 0.267717 0.338583 
vn 0.944882 0.267717 -0.204724 
vn 0.496063 -0.322835 -0.80315 
vn 0.496063 0.330709 -0.80315 
vn 0.944882 -0.267717 -0.204724 
vn 0.409449 0.834646 0.362205 
vn -0.456693 0.834646 0.299213 
vn -0.496063 0.322835 0.80315 
vn 0.377953 0.322835 0.866142 
vn 0.496063 0.330709 -0.80315 
vn -0.370079 0.330709 -0.866142 
vn -0.409449 0.84252 -0.354331 
vn 0.456693 0.84252 -0.291339 
vn -0.409449 0.84252 -0.354331 
vn 0.409449 0.834646 0.362205 
vn 0.456693 0.84252 -0.291339 
vn -0.456693 0.834646 0.299213 
vn -0.496063 -0.330709 0.80315 
vn 0.370079 -0.330709 0.866142 
vn 0.377953 0.322835 0.866142 
vn -0.496063 0.322835 0.80315 
vn -0.905512 -0.267717 -0.338583 
vn -0.944882 0.267717 0.204724 
vn -0.897638 0.275591 -0.338583 
vn -0.944882 -0.267717 0.204724 
vn -0.496063 -0.330709 0.80315 
vn -0.944882 -0.267717 0.204724 
vn -0.456693 -0.84252 0.291339 
vn -0.409449 -0.834646 -0.362205 
vn -0.905512 -0.267717 -0.338583 
vn -0.377953 -0.322835 -0.866142 
vn -0.496063 0.322835 0.80315 
vn -0.456693 0.834646 0.299213 
vn -0.944882 0.267717 0.204724 
vn -0.897638 0.275591 -0.338583 
vn -0.409449 0.84252 -0.354331 
vn -0.370079 0.330709 -0.866142 
vn -0.944882 0.267717 0.204724 
vn -0.944882 -0.267717 0.204724 
vn -0.496063 -0.330709 0.80315 
vn -0.496063 0.322835 0.80315 
vn -0.905512 -0.267717 -0.338583 
vn -0.897638 0.275591 -0.338583 
vn -0.370079 0.330709 -0.866142 
vn -0.377953 -0.322835 -0.866142 
vn -0.456693 -0.84252 0.291339 
vn 0.409449 -0.84252 0.354331 
vn 0.370079 -0.330709 0.866142 
vn -0.496063 -0.330709 0.80315 
vn -0.377953 -0.322835 -0.866142 
vn 0.496063 -0.322835 -0.80315 
vn 0.456693 -0.834646 -0.299213 
vn -0.409449 -0.834646 -0.362205 
vn 0.456693 -0.834646 -0.299213 
vn -0.456693 -0.84252 0.291339 
vn -0.409449 -0.834646 -0.362205 
vn 0.409449 -0.84252 0.354331 
vn -0.370079 0.330709 -0.866142 
vn 0.496063 0.330709 -0.80315 
vn 0.496063 -0.322835 -0.80315 
vn -0.377953 -0.322835 -0.866142 

vt 10.1117 -16.8883 
vt 9.88825 -17.1117 
vt 10.1117 -17.1117 
vt 9.88825 -16.8883 
vt 9.875 -17.1117 
vt 9.88825 -17.125 
vt 9.88825 -17.1117 
vt 10.1117 -17.1117 
vt 10.1117 -17.125 
vt 10.125 -17.1117 
vt 9.875 -16.8883 
vt 9.88825 -16.8883 
vt 9.88825 -16.875 
vt 10.1117 -16.875 
vt 10.1117 -16.8883 
vt 10.125 -16.8883 
vt 9.88825 -17.1117 
vt 9.875 -16.8883 
vt 9.875 -17.1117 
vt 9.88825 -16.8883 
vt 10.1117 -16.8883 
vt 10.125 -17.1117 
vt 10.125 -16.8883 
vt 10.1117 -17.1117 
vt 9.63494 -16.8883 
vt 10.3651 -16.8883 
vt 10.3651 -16.875 
vt 9.63494 -16.875 
vt 9.63494 -17.125 
vt 10.3651 -17.125 
vt 10.3651 -17.1117 
vt 9.63494 -17.1117 
vt 10.3651 -17.1117 
vt 9.63494 -16.8883 
vt 9.63494 -17.1117 
vt 10.3651 -16.8883 
vt 9.63494 -17.1117 
vt 10.3651 -17.1117 
vt 10.3651 -16.8883 
vt 9.63494 -16.8883 
vt 9.88825 -17.1117 
vt 10.1117 -16.8883 
vt 9.88825 -16.8883 
vt 10.1117 -17.1117 
vt 10.125 -17.1117 
vt 10.1117 -17.1117 
vt 10.1117 -17.125 
vt 9.88825 -17.125 
vt 9.88825 -17.1117 
vt 9.875 -17.1117 
vt 10.125 -16.8883 
vt 10.1117 -16.875 
vt 10.1117 -16.8883 
vt 9.88825 -16.8883 
vt 9.88825 -16.875 
vt 9.875 -16.8883 
vt 10.1117 -16.8883 
vt 10.1117 -17.1117 
vt 10.125 -17.1117 
vt 10.125 -16.8883 
vt 9.88825 -17.1117 
vt 9.88825 -16.8883 
vt 9.875 -16.8883 
vt 9.875 -17.1117 
vt 9.63494 -16.8883 
vt 10.3651 -16.8883 
vt 10.3651 -16.875 
vt 9.63494 -16.875 
vt 9.63494 -17.125 
vt 10.3651 -17.125 
vt 10.3651 -17.1117 
vt 9.63494 -17.1117 
vt 10.3651 -17.1117 
vt 9.63494 -16.8883 
vt 9.63494 -17.1117 
vt 10.3651 -16.8883 
vt 10.3651 -16.8883 
vt 9.63494 -16.8883 
vt 9.63494 -17.1117 
vt 10.3651 -17.1117 

usemtl Rightarmwrapped1Mtl

f 81/81/81 82/82/82 83/83/83 
f 82/82/82 81/81/81 84/84/84 
f 85/85/85 86/86/86 87/87/87 
f 86/86/86 88/88/88 87/87/87 
f 88/88/88 86/86/86 89/89/89 
f 89/89/89 90/90/90 88/88/88 
f 91/91/91 92/92/92 93/93/93 
f 94/94/94 93/93/93 92/92/92 
f 92/92/92 95/95/95 94/94/94 
f 96/96/96 94/94/94 95/95/95 
f 97/97/97 98/98/98 99/99/99 
f 98/98/98 97/97/97 100/100/100 
f 101/101/101 102/102/102 103/103/103 
f 102/102/102 101/101/101 104/104/104 
f 105/105/105 106/106/106 107/107/107 
f 105/105/105 107/107/107 108/108/108 
f 109/109/109 110/110/110 111/111/111 
f 109/109/109 111/111/111 112/112/112 
f 113/113/113 114/114/114 115/115/115 
f 114/114/114 113/113/113 116/116/116 
f 117/117/117 118/118/118 119/119/119 
f 117/117/117 119/119/119 120/120/120 
f 121/121/121 122/122/122 123/123/123 
f 122/122/122 121/121/121 124/124/124 
f 125/125/125 126/126/126 127/127/127 
f 128/128/128 127/127/127 126/126/126 
f 126/126/126 129/129/129 128/128/128 
f 130/130/130 128/128/128 129/129/129 
f 131/131/131 132/132/132 133/133/133 
f 134/134/134 133/133/133 132/132/132 
f 132/132/132 135/135/135 134/134/134 
f 136/136/136 134/134/134 135/135/135 
f 137/137/137 138/138/138 139/139/139 
f 139/139/139 140/140/140 137/137/137 
f 141/141/141 142/142/142 143/143/143 
f 143/143/143 144/144/144 141/141/141 
f 145/145/145 146/146/146 147/147/147 
f 145/145/145 147/147/147 148/148/148 
f 149/149/149 150/150/150 151/151/151 
f 149/149/149 151/151/151 152/152/152 
f 153/153/153 154/154/154 155/155/155 
f 154/154/154 153/153/153 156/156/156 
f 157/157/157 158/158/158 159/159/159 
f 157/157/157 159/159/159 160/160/160 

g Leftarm1

v -72.8906 6.10949 1.32631 
v -71.3423 7.97777 0.615015 
v -71.9967 6.51032 -0.169363 
v -72.2363 7.57694 2.11069 
v -67.2872 3.35739 1.80045 
v -67.5268 4.424 4.0805 
v -68.1812 2.95655 3.29612 
v -66.6329 4.82483 2.58482 
v -67.5504 4.55279 4.1009 
v -67.6422 4.44201 4.14307 
v -67.5268 4.424 4.0805 
v -68.1812 2.95655 3.29612 
v -68.2966 2.97457 3.3587 
v -68.2824 2.91132 3.22351 
v -66.6565 4.95363 2.60523 
v -66.6329 4.82483 2.58482 
v -66.6423 4.89038 2.47004 
v -67.2966 3.42293 1.68566 
v -67.2872 3.35739 1.80045 
v -67.3884 3.31216 1.72783 
v -72.1351 7.62216 2.1833 
v -72.2363 7.57694 2.11069 
v -72.2269 7.51139 2.22547 
v -72.8812 6.04394 1.4411 
v -72.8906 6.10949 1.32631 
v -72.867 5.9807 1.3059 
v -71.2411 8.023 0.687626 
v -71.2269 7.95975 0.552436 
v -71.3423 7.97777 0.615015 
v -71.9967 6.51032 -0.169363 
v -71.8813 6.49231 -0.231942 
v -71.9731 6.38153 -0.189767 
v -67.5268 4.424 4.0805 
v -66.6329 4.82483 2.58482 
v -66.6565 4.95363 2.60523 
v -67.5504 4.55279 4.1009 
v -67.2872 3.35739 1.80045 
v -68.2824 2.91132 3.22351 
v -67.3884 3.31216 1.72783 
v -68.1812 2.95655 3.29612 
v -71.3423 7.97777 0.615015 
v -72.2363 7.57694 2.11069 
v -72.1351 7.62216 2.1833 
v -71.2411 8.023 0.687626 
v -72.8906 6.10949 1.32631 
v -71.9967 6.51032 -0.169363 
v -71.9731 6.38153 -0.189767 
v -72.867 5.9807 1.3059 
v -66.6423 4.89038 2.47004 
v -71.2269 7.95975 0.552436 
v -71.2411 8.023 0.687626 
v -66.6565 4.95363 2.60523 
v -67.3884 3.31216 1.72783 
v -71.9731 6.38153 -0.189767 
v -71.8813 6.49231 -0.231942 
v -67.2966 3.42293 1.68566 
v -72.2269 7.51139 2.22547 
v -67.6422 4.44201 4.14307 
v -67.5504 4.55279 4.1009 
v -72.1351 7.62216 2.1833 
v -72.867 5.9807 1.3059 
v -68.2824 2.91132 3.22351 
v -68.2966 2.97457 3.3587 
v -72.8812 6.04394 1.4411 
v -68.2966 2.97457 3.3587 
v -72.2269 7.51139 2.22547 
v -72.8812 6.04394 1.4411 
v -67.6422 4.44201 4.14307 
v -71.9731 6.38153 -0.189767 
v -67.3884 3.31216 1.72783 
v -68.2824 2.91132 3.22351 
v -72.867 5.9807 1.3059 
v -71.8813 6.49231 -0.231942 
v -66.6423 4.89038 2.47004 
v -67.2966 3.42293 1.68566 
v -71.2269 7.95975 0.552436 
v -72.1351 7.62216 2.1833 
v -67.5504 4.55279 4.1009 
v -66.6565 4.95363 2.60523 
v -71.2411 8.023 0.687626 

vn -0.96063 0.204724 -0.19685 
vn -0.488189 0.771654 -0.409449 
vn -0.685039 0.322835 -0.645669 
vn -0.76378 0.645669 0.0393701 
vn 0.76378 -0.645669 -0.0393701 
vn 0.685039 -0.322835 0.645669 
vn 0.488189 -0.771654 0.409449 
vn 0.96063 -0.204724 0.19685 
vn 0.488189 0.385827 0.787402 
vn 0.0393701 -0.149606 0.984252 
vn 0.685039 -0.322835 0.645669 
vn 0.488189 -0.771654 0.409449 
vn -0.19685 -0.685039 0.700787 
vn -0.125984 -0.992126 0.0472441 
vn 0.811024 0.535433 0.23622 
vn 0.96063 -0.204724 0.19685 
vn 0.88189 0.228346 -0.417323 
vn 0.645669 -0.307087 -0.700787 
vn 0.76378 -0.645669 -0.0393701 
vn 0.19685 -0.84252 -0.496063 
vn -0.19685 0.84252 0.496063 
vn -0.76378 0.645669 0.0393701 
vn -0.645669 0.307087 0.700787 
vn -0.88189 -0.228346 0.417323 
vn -0.96063 0.204724 -0.19685 
vn -0.811024 -0.535433 -0.23622 
vn 0.125984 0.992126 -0.0472441 
vn 0.19685 0.685039 -0.700787 
vn -0.488189 0.771654 -0.409449 
vn -0.685039 0.322835 -0.645669 
vn -0.0393701 0.149606 -0.984252 
vn -0.488189 -0.385827 -0.787402 
vn 0.685039 -0.322835 0.645669 
vn 0.96063 -0.204724 0.19685 
vn 0.811024 0.535433 0.23622 
vn 0.488189 0.385827 0.787402 
vn 0.76378 -0.645669 -0.0393701 
vn -0.125984 -0.992126 0.0472441 
vn 0.19685 -0.84252 -0.496063 
vn 0.488189 -0.771654 0.409449 
vn -0.488189 0.771654 -0.409449 
vn -0.76378 0.645669 0.0393701 
vn -0.19685 0.84252 0.496063 
vn 0.125984 0.992126 -0.0472441 
vn -0.96063 0.204724 -0.19685 
vn -0.685039 0.322835 -0.645669 
vn -0.488189 -0.385827 -0.787402 
vn -0.811024 -0.535433 -0.23622 
vn 0.88189 0.228346 -0.417323 
vn 0.19685 0.685039 -0.700787 
vn 0.125984 0.992126 -0.0472441 
vn 0.811024 0.535433 0.23622 
vn 0.19685 -0.84252 -0.496063 
vn -0.488189 -0.385827 -0.787402 
vn -0.0393701 0.149606 -0.984252 
vn 0.645669 -0.307087 -0.700787 
vn -0.645669 0.307087 0.700787 
vn 0.0393701 -0.149606 0.984252 
vn 0.488189 0.385827 0.787402 
vn -0.19685 0.84252 0.496063 
vn -0.811024 -0.535433 -0.23622 
vn -0.125984 -0.992126 0.0472441 
vn -0.19685 -0.685039 0.700787 
vn -0.88189 -0.228346 0.417323 
vn -0.19685 -0.685039 0.700787 
vn -0.645669 0.307087 0.700787 
vn -0.88189 -0.228346 0.417323 
vn 0.0393701 -0.149606 0.984252 
vn -0.488189 -0.385827 -0.787402 
vn 0.19685 -0.84252 -0.496063 
vn -0.125984 -0.992126 0.0472441 
vn -0.811024 -0.535433 -0.23622 
vn -0.0393701 0.149606 -0.984252 
vn 0.88189 0.228346 -0.417323 
vn 0.645669 -0.307087 -0.700787 
vn 0.19685 0.685039 -0.700787 
vn -0.19685 0.84252 0.496063 
vn 0.488189 0.385827 0.787402 
vn 0.811024 0.535433 0.23622 
vn 0.125984 0.992126 -0.0472441 

vt 0.528205 0.019678 
vt 0.634188 0.13059 
vt 0.528205 0.13059 
vt 0.634188 0.019678 
vt 0.634188 0.481216 
vt 0.528205 0.370304 
vt 0.634188 0.370304 
vt 0.528205 0.481216 
vt 0.528205 0.370304 
vt 0.528205 0.370304 
vt 0.528205 0.370304 
vt 0.634188 0.370304 
vt 0.634188 0.370304 
vt 0.634188 0.370304 
vt 0.528205 0.481216 
vt 0.528205 0.481216 
vt 0.528205 0.481216 
vt 0.634188 0.481216 
vt 0.634188 0.481216 
vt 0.634188 0.481216 
vt 0.634188 0.019678 
vt 0.634188 0.019678 
vt 0.634188 0.019678 
vt 0.528205 0.019678 
vt 0.528205 0.019678 
vt 0.528205 0.019678 
vt 0.634188 0.13059 
vt 0.634188 0.13059 
vt 0.634188 0.13059 
vt 0.528205 0.13059 
vt 0.528205 0.13059 
vt 0.528205 0.13059 
vt 0.528205 0.370304 
vt 0.528205 0.481216 
vt 0.528205 0.481216 
vt 0.528205 0.370304 
vt 0.634188 0.481216 
vt 0.634188 0.370304 
vt 0.634188 0.481216 
vt 0.634188 0.370304 
vt 0.634188 0.13059 
vt 0.634188 0.019678 
vt 0.634188 0.019678 
vt 0.634188 0.13059 
vt 0.528205 0.019678 
vt 0.528205 0.13059 
vt 0.528205 0.13059 
vt 0.528205 0.019678 
vt 0.634188 0.363148 
vt 0.634188 0.137746 
vt 0.634188 0.137746 
vt 0.634188 0.363148 
vt 0.97265 0.363148 
vt 0.97265 0.137746 
vt 0.97265 0.137746 
vt 0.97265 0.363148 
vt 0.747009 0.137746 
vt 0.747009 0.363148 
vt 0.747009 0.363148 
vt 0.747009 0.137746 
vt 0.859829 0.137746 
vt 0.859829 0.363148 
vt 0.859829 0.363148 
vt 0.859829 0.137746 
vt 0.859829 0.363148 
vt 0.753846 0.137746 
vt 0.859829 0.137746 
vt 0.753846 0.363148 
vt 0.97265 0.137746 
vt 0.97265 0.363148 
vt 0.866667 0.363148 
vt 0.866667 0.137746 
vt 0.528205 0.137746 
vt 0.634188 0.363148 
vt 0.528205 0.363148 
vt 0.634188 0.137746 
vt 0.747009 0.137746 
vt 0.747009 0.363148 
vt 0.641026 0.363148 
vt 0.641026 0.137746 

usemtl Leftarm1Mtl

f 161/161/161 162/162/162 163/163/163 
f 162/162/162 161/161/161 164/164/164 
f 165/165/165 166/166/166 167/167/167 
f 166/166/166 165/165/165 168/168/168 
f 169/169/169 170/170/170 171/171/171 
f 170/170/170 172/172/172 171/171/171 
f 172/172/172 170/170/170 173/173/173 
f 173/173/173 174/174/174 172/172/172 
f 175/175/175 176/176/176 177/177/177 
f 178/178/178 177/177/177 176/176/176 
f 176/176/176 179/179/179 178/178/178 
f 180/180/180 178/178/178 179/179/179 
f 181/181/181 182/182/182 183/183/183 
f 184/184/184 183/183/183 182/182/182 
f 182/182/182 185/185/185 184/184/184 
f 186/186/186 184/184/184 185/185/185 
f 187/187/187 188/188/188 189/189/189 
f 190/190/190 189/189/189 188/188/188 
f 188/188/188 191/191/191 190/190/190 
f 192/192/192 190/190/190 191/191/191 
f 193/193/193 194/194/194 195/195/195 
f 193/193/193 195/195/195 196/196/196 
f 197/197/197 198/198/198 199/199/199 
f 198/198/198 197/197/197 200/200/200 
f 201/201/201 202/202/202 203/203/203 
f 201/201/201 203/203/203 204/204/204 
f 205/205/205 206/206/206 207/207/207 
f 207/207/207 208/208/208 205/205/205 
f 209/209/209 210/210/210 211/211/211 
f 209/209/209 211/211/211 212/212/212 
f 213/213/213 214/214/214 215/215/215 
f 213/213/213 215/215/215 216/216/216 
f 217/217/217 218/218/218 219/219/219 
f 217/217/217 219/219/219 220/220/220 
f 221/221/221 222/222/222 223/223/223 
f 221/221/221 223/223/223 224/224/224 
f 225/225/225 226/226/226 227/227/227 
f 226/226/226 225/225/225 228/228/228 
f 229/229/229 230/230/230 231/231/231 
f 229/229/229 231/231/231 232/232/232 
f 233/233/233 234/234/234 235/235/235 
f 234/234/234 233/233/233 236/236/236 
f 237/237/237 238/238/238 239/239/239 
f 237/237/237 239/239/239 240/240/240 

g Leftarm2

v -72.8954 6.11051 1.32533 
v -71.3448 7.98163 0.612968 
v -72.0001 6.51194 -0.172591 
v -72.2401 7.58016 2.11088 
v -67.2834 3.35416 1.80025 
v -67.5234 4.42239 4.08372 
v -68.1787 2.95269 3.29817 
v -66.6281 4.82381 2.58581 
v -67.548 4.55472 4.10484 
v -67.642 4.44127 4.148 
v -67.5234 4.42239 4.08372 
v -68.1787 2.95269 3.29817 
v -68.2976 2.97114 3.3622 
v -68.283 2.90636 3.22374 
v -66.6524 4.9563 2.60641 
v -66.6281 4.82381 2.58581 
v -66.6379 4.89152 2.46795 
v -67.2934 3.4214 1.68216 
v -67.2834 3.35416 1.80025 
v -67.3875 3.30795 1.72535 
v -72.136 7.62637 2.18578 
v -72.2401 7.58016 2.11088 
v -72.2301 7.51292 2.22898 
v -72.8856 6.0428 1.44318 
v -72.8954 6.11051 1.32533 
v -72.8711 5.97802 1.30472 
v -71.2405 8.02796 0.68739 
v -71.2259 7.96318 0.548932 
v -71.3448 7.98163 0.612968 
v -72.0001 6.51194 -0.172591 
v -71.8815 6.49305 -0.236863 
v -71.9755 6.3796 -0.193704 
v -67.5234 4.42239 4.08372 
v -66.6281 4.82381 2.58581 
v -66.6524 4.9563 2.60641 
v -67.548 4.55472 4.10484 
v -67.2834 3.35416 1.80025 
v -68.283 2.90636 3.22374 
v -67.3875 3.30795 1.72535 
v -68.1787 2.95269 3.29817 
v -71.3448 7.98163 0.612968 
v -72.2401 7.58016 2.11088 
v -72.136 7.62637 2.18578 
v -71.2405 8.02796 0.68739 
v -72.8954 6.11051 1.32533 
v -72.0001 6.51194 -0.172591 
v -71.9755 6.3796 -0.193704 
v -72.8711 5.97802 1.30472 
v -66.6379 4.89152 2.46795 
v -71.2259 7.96318 0.548932 
v -71.2405 8.02796 0.68739 
v -66.6524 4.9563 2.60641 
v -67.3875 3.30795 1.72535 
v -71.9755 6.3796 -0.193704 
v -71.8815 6.49305 -0.236863 
v -67.2934 3.4214 1.68216 
v -72.2301 7.51292 2.22898 
v -67.642 4.44127 4.148 
v -67.548 4.55472 4.10484 
v -72.136 7.62637 2.18578 
v -72.8711 5.97802 1.30472 
v -68.283 2.90636 3.22374 
v -68.2976 2.97114 3.3622 
v -72.8856 6.0428 1.44318 
v -68.2976 2.97114 3.3622 
v -72.2301 7.51292 2.22898 
v -72.8856 6.0428 1.44318 
v -67.642 4.44127 4.148 
v -71.9755 6.3796 -0.193704 
v -67.3875 3.30795 1.72535 
v -68.283 2.90636 3.22374 
v -72.8711 5.97802 1.30472 
v -71.8815 6.49305 -0.236863 
v -66.6379 4.89152 2.46795 
v -67.2934 3.4214 1.68216 
v -71.2259 7.96318 0.548932 
v -72.136 7.62637 2.18578 
v -67.548 4.55472 4.10484 
v -66.6524 4.9563 2.60641 
v -71.2405 8.02796 0.68739 

vn -0.96063 0.204724 -0.19685 
vn -0.488189 0.771654 -0.409449 
vn -0.685039 0.322835 -0.645669 
vn -0.76378 0.645669 0.0393701 
vn 0.76378 -0.645669 -0.0393701 
vn 0.685039 -0.322835 0.645669 
vn 0.488189 -0.771654 0.409449 
vn 0.96063 -0.204724 0.19685 
vn 0.488189 0.385827 0.787402 
vn 0.0393701 -0.149606 0.984252 
vn 0.685039 -0.322835 0.645669 
vn 0.488189 -0.771654 0.409449 
vn -0.19685 -0.685039 0.700787 
vn -0.125984 -0.992126 0.0472441 
vn 0.811024 0.535433 0.23622 
vn 0.96063 -0.204724 0.19685 
vn 0.88189 0.228346 -0.417323 
vn 0.645669 -0.307087 -0.700787 
vn 0.76378 -0.645669 -0.0393701 
vn 0.19685 -0.84252 -0.496063 
vn -0.19685 0.84252 0.496063 
vn -0.76378 0.645669 0.0393701 
vn -0.645669 0.307087 0.700787 
vn -0.88189 -0.228346 0.417323 
vn -0.96063 0.204724 -0.19685 
vn -0.811024 -0.535433 -0.23622 
vn 0.125984 0.992126 -0.0472441 
vn 0.19685 0.685039 -0.700787 
vn -0.488189 0.771654 -0.409449 
vn -0.685039 0.322835 -0.645669 
vn -0.0393701 0.149606 -0.984252 
vn -0.488189 -0.385827 -0.787402 
vn 0.685039 -0.322835 0.645669 
vn 0.96063 -0.204724 0.19685 
vn 0.811024 0.535433 0.23622 
vn 0.488189 0.385827 0.787402 
vn 0.76378 -0.645669 -0.0393701 
vn -0.125984 -0.992126 0.0472441 
vn 0.19685 -0.84252 -0.496063 
vn 0.488189 -0.771654 0.409449 
vn -0.488189 0.771654 -0.409449 
vn -0.76378 0.645669 0.0393701 
vn -0.19685 0.84252 0.496063 
vn 0.125984 0.992126 -0.0472441 
vn -0.96063 0.204724 -0.19685 
vn -0.685039 0.322835 -0.645669 
vn -0.488189 -0.385827 -0.787402 
vn -0.811024 -0.535433 -0.23622 
vn 0.88189 0.228346 -0.417323 
vn 0.19685 0.685039 -0.700787 
vn 0.125984 0.992126 -0.0472441 
vn 0.811024 0.535433 0.23622 
vn 0.19685 -0.84252 -0.496063 
vn -0.488189 -0.385827 -0.787402 
vn -0.0393701 0.149606 -0.984252 
vn 0.645669 -0.307087 -0.700787 
vn -0.645669 0.307087 0.700787 
vn 0.0393701 -0.149606 0.984252 
vn 0.488189 0.385827 0.787402 
vn -0.19685 0.84252 0.496063 
vn -0.811024 -0.535433 -0.23622 
vn -0.125984 -0.992126 0.0472441 
vn -0.19685 -0.685039 0.700787 
vn -0.88189 -0.228346 0.417323 
vn -0.19685 -0.685039 0.700787 
vn -0.645669 0.307087 0.700787 
vn -0.88189 -0.228346 0.417323 
vn 0.0393701 -0.149606 0.984252 
vn -0.488189 -0.385827 -0.787402 
vn 0.19685 -0.84252 -0.496063 
vn -0.125984 -0.992126 0.0472441 
vn -0.811024 -0.535433 -0.23622 
vn -0.0393701 0.149606 -0.984252 
vn 0.88189 0.228346 -0.417323 
vn 0.645669 -0.307087 -0.700787 
vn 0.19685 0.685039 -0.700787 
vn -0.19685 0.84252 0.496063 
vn 0.488189 0.385827 0.787402 
vn 0.811024 0.535433 0.23622 
vn 0.125984 0.992126 -0.0472441 

vt 0.528205 0.019678 
vt 0.634188 0.13059 
vt 0.528205 0.13059 
vt 0.634188 0.019678 
vt 0.634188 0.481216 
vt 0.528205 0.370304 
vt 0.634188 0.370304 
vt 0.528205 0.481216 
vt 0.528205 0.370304 
vt 0.528205 0.370304 
vt 0.528205 0.370304 
vt 0.634188 0.370304 
vt 0.634188 0.370304 
vt 0.634188 0.370304 
vt 0.528205 0.481216 
vt 0.528205 0.481216 
vt 0.528205 0.481216 
vt 0.634188 0.481216 
vt 0.634188 0.481216 
vt 0.634188 0.481216 
vt 0.634188 0.019678 
vt 0.634188 0.019678 
vt 0.634188 0.019678 
vt 0.528205 0.019678 
vt 0.528205 0.019678 
vt 0.528205 0.019678 
vt 0.634188 0.13059 
vt 0.634188 0.13059 
vt 0.634188 0.13059 
vt 0.528205 0.13059 
vt 0.528205 0.13059 
vt 0.528205 0.13059 
vt 0.528205 0.370304 
vt 0.528205 0.481216 
vt 0.528205 0.481216 
vt 0.528205 0.370304 
vt 0.634188 0.481216 
vt 0.634188 0.370304 
vt 0.634188 0.481216 
vt 0.634188 0.370304 
vt 0.634188 0.13059 
vt 0.634188 0.019678 
vt 0.634188 0.019678 
vt 0.634188 0.13059 
vt 0.528205 0.019678 
vt 0.528205 0.13059 
vt 0.528205 0.13059 
vt 0.528205 0.019678 
vt 0.634188 0.363148 
vt 0.634188 0.137746 
vt 0.634188 0.137746 
vt 0.634188 0.363148 
vt 0.97265 0.363148 
vt 0.97265 0.137746 
vt 0.97265 0.137746 
vt 0.97265 0.363148 
vt 0.747009 0.137746 
vt 0.747009 0.363148 
vt 0.747009 0.363148 
vt 0.747009 0.137746 
vt 0.859829 0.137746 
vt 0.859829 0.363148 
vt 0.859829 0.363148 
vt 0.859829 0.137746 
vt 0.859829 0.363148 
vt 0.753846 0.137746 
vt 0.859829 0.137746 
vt 0.753846 0.363148 
vt 0.97265 0.137746 
vt 0.97265 0.363148 
vt 0.866667 0.363148 
vt 0.866667 0.137746 
vt 0.528205 0.137746 
vt 0.634188 0.363148 
vt 0.528205 0.363148 
vt 0.634188 0.137746 
vt 0.747009 0.137746 
vt 0.747009 0.363148 
vt 0.641026 0.363148 
vt 0.641026 0.137746 

usemtl Leftarm2Mtl

f 241/241/241 242/242/242 243/243/243 
f 242/242/242 241/241/241 244/244/244 
f 245/245/245 246/246/246 247/247/247 
f 246/246/246 245/245/245 248/248/248 
f 249/249/249 250/250/250 251/251/251 
f 250/250/250 252/252/252 251/251/251 
f 252/252/252 250/250/250 253/253/253 
f 253/253/253 254/254/254 252/252/252 
f 255/255/255 256/256/256 257/257/257 
f 258/258/258 257/257/257 256/256/256 
f 256/256/256 259/259/259 258/258/258 
f 260/260/260 258/258/258 259/259/259 
f 261/261/261 262/262/262 263/263/263 
f 264/264/264 263/263/263 262/262/262 
f 262/262/262 265/265/265 264/264/264 
f 266/266/266 264/264/264 265/265/265 
f 267/267/267 268/268/268 269/269/269 
f 270/270/270 269/269/269 268/268/268 
f 268/268/268 271/271/271 270/270/270 
f 272/272/272 270/270/270 271/271/271 
f 273/273/273 274/274/274 275/275/275 
f 273/273/273 275/275/275 276/276/276 
f 277/277/277 278/278/278 279/279/279 
f 278/278/278 277/277/277 280/280/280 
f 281/281/281 282/282/282 283/283/283 
f 281/281/281 283/283/283 284/284/284 
f 285/285/285 286/286/286 287/287/287 
f 287/287/287 288/288/288 285/285/285 
f 289/289/289 290/290/290 291/291/291 
f 289/289/289 291/291/291 292/292/292 
f 293/293/293 294/294/294 295/295/295 
f 293/293/293 295/295/295 296/296/296 
f 297/297/297 298/298/298 299/299/299 
f 297/297/297 299/299/299 300/300/300 
f 301/301/301 302/302/302 303/303/303 
f 301/301/301 303/303/303 304/304/304 
f 305/305/305 306/306/306 307/307/307 
f 306/306/306 305/305/305 308/308/308 
f 309/309/309 310/310/310 311/311/311 
f 309/309/309 311/311/311 312/312/312 
f 313/313/313 314/314/314 315/315/315 
f 314/314/314 313/313/313 316/316/316 
f 317/317/317 318/318/318 319/319/319 
f 317/317/317 319/319/319 320/320/320 

g Rightarm1

v -73.0387 5.95424 -0.132922 
v -72.9456 3.75569 1.11265 
v -72.4598 5.43722 1.47783 
v -73.5244 4.27271 -0.4981 
v -67.022 4.36539 -0.820259 
v -68.0866 3.20088 -2.79619 
v -67.6008 4.88241 -2.43101 
v -67.5078 2.68387 -1.18544 
v -68.1875 3.11539 -2.78739 
v -68.193 3.24574 -2.86124 
v -68.0866 3.20088 -2.79619 
v -67.6008 4.88241 -2.43101 
v -67.7072 4.92727 -2.49606 
v -67.6441 4.99631 -2.3789 
v -67.6087 2.59837 -1.17664 
v -67.5078 2.68387 -1.18544 
v -67.5455 2.66741 -1.05948 
v -67.0598 4.34894 -0.6943 
v -67.022 4.36539 -0.820259 
v -67.0653 4.4793 -0.768153 
v -73.4812 4.15881 -0.550206 
v -73.5244 4.27271 -0.4981 
v -73.4867 4.28917 -0.62406 
v -73.0009 5.97069 -0.258882 
v -73.0387 5.95424 -0.132922 
v -72.9378 6.03973 -0.141723 
v -72.9024 3.64179 1.06054 
v -72.8392 3.71084 1.1777 
v -72.9456 3.75569 1.11265 
v -72.4598 5.43722 1.47783 
v -72.3535 5.39236 1.54288 
v -72.359 5.52272 1.46903 
v -68.0866 3.20088 -2.79619 
v -67.6087 2.59837 -1.17664 
v -68.1875 3.11539 -2.78739 
v -67.5078 2.68387 -1.18544 
v -67.022 4.36539 -0.820259 
v -67.6441 4.99631 -2.3789 
v -67.0653 4.4793 -0.768153 
v -67.6008 4.88241 -2.43101 
v -72.9456 3.75569 1.11265 
v -73.5244 4.27271 -0.4981 
v -73.4812 4.15881 -0.550206 
v -72.9024 3.64179 1.06054 
v -73.0387 5.95424 -0.132922 
v -72.4598 5.43722 1.47783 
v -72.359 5.52272 1.46903 
v -72.9378 6.03973 -0.141723 
v -67.5455 2.66741 -1.05948 
v -72.8392 3.71084 1.1777 
v -72.9024 3.64179 1.06054 
v -67.6087 2.59837 -1.17664 
v -67.0653 4.4793 -0.768153 
v -72.359 5.52272 1.46903 
v -72.3535 5.39236 1.54288 
v -67.0598 4.34894 -0.6943 
v -73.4867 4.28917 -0.62406 
v -68.193 3.24574 -2.86124 
v -68.1875 3.11539 -2.78739 
v -73.4812 4.15881 -0.550206 
v -72.9378 6.03973 -0.141723 
v -67.6441 4.99631 -2.3789 
v -67.7072 4.92727 -2.49606 
v -73.0009 5.97069 -0.258882 
v -67.7072 4.92727 -2.49606 
v -73.4867 4.28917 -0.62406 
v -73.0009 5.97069 -0.258882 
v -68.193 3.24574 -2.86124 
v -72.359 5.52272 1.46903 
v -67.0653 4.4793 -0.768153 
v -67.6441 4.99631 -2.3789 
v -72.9378 6.03973 -0.141723 
v -72.3535 5.39236 1.54288 
v -67.5455 2.66741 -1.05948 
v -67.0598 4.34894 -0.6943 
v -72.8392 3.71084 1.1777 
v -73.4812 4.15881 -0.550206 
v -68.1875 3.11539 -2.78739 
v -67.6087 2.59837 -1.17664 
v -72.9024 3.64179 1.06054 

vn -0.850394 0.496063 0.165354 
vn -0.826772 -0.165354 0.543307 
vn -0.677165 0.338583 0.653543 
vn -1 -0.00787402 0.0551181 
vn 1 0.00787402 -0.0551181 
vn 0.677165 -0.338583 -0.653543 
vn 0.826772 0.165354 -0.543307 
vn 0.850394 -0.496063 -0.165354 
vn 0.0629921 -0.771654 -0.629921 
vn 0.0314961 -0.141732 -0.992126 
vn 0.677165 -0.338583 -0.653543 
vn 0.826772 0.165354 -0.543307 
vn 0.212598 0.472441 -0.858268 
vn 0.519685 0.80315 -0.291339 
vn 0.275591 -0.96063 -0.0472441 
vn 0.850394 -0.496063 -0.165354 
vn 0.574803 -0.629921 0.519685 
vn 0.755906 -0.015748 0.653543 
vn 1 0.00787402 -0.0551181 
vn 0.732283 0.614173 0.299213 
vn -0.732283 -0.614173 -0.299213 
vn -1 -0.00787402 0.0551181 
vn -0.755906 0.015748 -0.653543 
vn -0.574803 0.629921 -0.519685 
vn -0.850394 0.496063 0.165354 
vn -0.275591 0.96063 0.0472441 
vn -0.519685 -0.80315 0.291339 
vn -0.212598 -0.472441 0.858268 
vn -0.826772 -0.165354 0.543307 
vn -0.677165 0.338583 0.653543 
vn -0.0314961 0.141732 0.992126 
vn -0.0629921 0.771654 0.629921 
vn 0.677165 -0.338583 -0.653543 
vn 0.275591 -0.96063 -0.0472441 
vn 0.0629921 -0.771654 -0.629921 
vn 0.850394 -0.496063 -0.165354 
vn 1 0.00787402 -0.0551181 
vn 0.519685 0.80315 -0.291339 
vn 0.732283 0.614173 0.299213 
vn 0.826772 0.165354 -0.543307 
vn -0.826772 -0.165354 0.543307 
vn -1 -0.00787402 0.0551181 
vn -0.732283 -0.614173 -0.299213 
vn -0.519685 -0.80315 0.291339 
vn -0.850394 0.496063 0.165354 
vn -0.677165 0.338583 0.653543 
vn -0.0629921 0.771654 0.629921 
vn -0.275591 0.96063 0.0472441 
vn 0.574803 -0.629921 0.519685 
vn -0.212598 -0.472441 0.858268 
vn -0.519685 -0.80315 0.291339 
vn 0.275591 -0.96063 -0.0472441 
vn 0.732283 0.614173 0.299213 
vn -0.0629921 0.771654 0.629921 
vn -0.0314961 0.141732 0.992126 
vn 0.755906 -0.015748 0.653543 
vn -0.755906 0.015748 -0.653543 
vn 0.0314961 -0.141732 -0.992126 
vn 0.0629921 -0.771654 -0.629921 
vn -0.732283 -0.614173 -0.299213 
vn -0.275591 0.96063 0.0472441 
vn 0.519685 0.80315 -0.291339 
vn 0.212598 0.472441 -0.858268 
vn -0.574803 0.629921 -0.519685 
vn 0.212598 0.472441 -0.858268 
vn -0.755906 0.015748 -0.653543 
vn -0.574803 0.629921 -0.519685 
vn 0.0314961 -0.141732 -0.992126 
vn -0.0629921 0.771654 0.629921 
vn 0.732283 0.614173 0.299213 
vn 0.519685 0.80315 -0.291339 
vn -0.275591 0.96063 0.0472441 
vn -0.0314961 0.141732 0.992126 
vn 0.574803 -0.629921 0.519685 
vn 0.755906 -0.015748 0.653543 
vn -0.212598 -0.472441 0.858268 
vn -0.732283 -0.614173 -0.299213 
vn 0.0629921 -0.771654 -0.629921 
vn 0.275591 -0.96063 -0.0472441 
vn -0.519685 -0.80315 0.291339 

vt 0.37265 0.019678 
vt 0.478632 0.13059 
vt 0.37265 0.13059 
vt 0.478632 0.019678 
vt 0.478632 0.481216 
vt 0.37265 0.370304 
vt 0.478632 0.370304 
vt 0.37265 0.481216 
vt 0.37265 0.370304 
vt 0.37265 0.370304 
vt 0.37265 0.370304 
vt 0.478632 0.370304 
vt 0.478632 0.370304 
vt 0.478632 0.370304 
vt 0.37265 0.481216 
vt 0.37265 0.481216 
vt 0.37265 0.481216 
vt 0.478632 0.481216 
vt 0.478632 0.481216 
vt 0.478632 0.481216 
vt 0.478632 0.019678 
vt 0.478632 0.019678 
vt 0.478632 0.019678 
vt 0.37265 0.019678 
vt 0.37265 0.019678 
vt 0.37265 0.019678 
vt 0.478632 0.13059 
vt 0.478632 0.13059 
vt 0.478632 0.13059 
vt 0.37265 0.13059 
vt 0.37265 0.13059 
vt 0.37265 0.13059 
vt 0.37265 0.370304 
vt 0.37265 0.481216 
vt 0.37265 0.370304 
vt 0.37265 0.481216 
vt 0.478632 0.481216 
vt 0.478632 0.370304 
vt 0.478632 0.481216 
vt 0.478632 0.370304 
vt 0.478632 0.13059 
vt 0.478632 0.019678 
vt 0.478632 0.019678 
vt 0.478632 0.13059 
vt 0.37265 0.019678 
vt 0.37265 0.13059 
vt 0.37265 0.13059 
vt 0.37265 0.019678 
vt 0.478632 0.363148 
vt 0.478632 0.137746 
vt 0.478632 0.137746 
vt 0.478632 0.363148 
vt 0.365812 0.363148 
vt 0.365812 0.137746 
vt 0.365812 0.137746 
vt 0.365812 0.363148 
vt 0.140171 0.137746 
vt 0.140171 0.363148 
vt 0.140171 0.363148 
vt 0.140171 0.137746 
vt 0.252991 0.137746 
vt 0.252991 0.363148 
vt 0.252991 0.363148 
vt 0.252991 0.137746 
vt 0.252991 0.363148 
vt 0.147009 0.137746 
vt 0.252991 0.137746 
vt 0.147009 0.363148 
vt 0.365812 0.137746 
vt 0.365812 0.363148 
vt 0.259829 0.363148 
vt 0.259829 0.137746 
vt 0.37265 0.137746 
vt 0.478632 0.363148 
vt 0.37265 0.363148 
vt 0.478632 0.137746 
vt 0.140171 0.137746 
vt 0.140171 0.363148 
vt 0.034188 0.363148 
vt 0.034188 0.137746 

usemtl Leftarm1Mtl

f 321/321/321 322/322/322 323/323/323 
f 322/322/322 321/321/321 324/324/324 
f 325/325/325 326/326/326 327/327/327 
f 326/326/326 325/325/325 328/328/328 
f 329/329/329 330/330/330 331/331/331 
f 330/330/330 332/332/332 331/331/331 
f 332/332/332 330/330/330 333/333/333 
f 333/333/333 334/334/334 332/332/332 
f 335/335/335 336/336/336 337/337/337 
f 338/338/338 337/337/337 336/336/336 
f 336/336/336 339/339/339 338/338/338 
f 340/340/340 338/338/338 339/339/339 
f 341/341/341 342/342/342 343/343/343 
f 344/344/344 343/343/343 342/342/342 
f 342/342/342 345/345/345 344/344/344 
f 346/346/346 344/344/344 345/345/345 
f 347/347/347 348/348/348 349/349/349 
f 350/350/350 349/349/349 348/348/348 
f 348/348/348 351/351/351 350/350/350 
f 352/352/352 350/350/350 351/351/351 
f 353/353/353 354/354/354 355/355/355 
f 354/354/354 353/353/353 356/356/356 
f 357/357/357 358/358/358 359/359/359 
f 358/358/358 357/357/357 360/360/360 
f 361/361/361 362/362/362 363/363/363 
f 363/363/363 364/364/364 361/361/361 
f 365/365/365 366/366/366 367/367/367 
f 367/367/367 368/368/368 365/365/365 
f 369/369/369 370/370/370 371/371/371 
f 369/369/369 371/371/371 372/372/372 
f 373/373/373 374/374/374 375/375/375 
f 373/373/373 375/375/375 376/376/376 
f 377/377/377 378/378/378 379/379/379 
f 377/377/377 379/379/379 380/380/380 
f 381/381/381 382/382/382 383/383/383 
f 381/381/381 383/383/383 384/384/384 
f 385/385/385 386/386/386 387/387/387 
f 386/386/386 385/385/385 388/388/388 
f 389/389/389 390/390/390 391/391/391 
f 389/389/389 391/391/391 392/392/392 
f 393/393/393 394/394/394 395/395/395 
f 394/394/394 393/393/393 396/396/396 
f 397/397/397 398/398/398 399/399/399 
f 397/397/397 399/399/399 400/400/400 

g Rightarm2

v -73.0429 5.95672 -0.132095 
v -72.9498 3.75487 1.11537 
v -72.4632 5.43891 1.48109 
v -73.5294 4.27267 -0.497825 
v -67.017 4.36543 -0.820535 
v -68.0832 3.19919 -2.79945 
v -67.5967 4.88323 -2.43372 
v -67.5035 2.68139 -1.18626 
v -68.1871 3.11153 -2.79053 
v -68.1928 3.24503 -2.8662 
v -68.0832 3.19919 -2.79945 
v -67.5967 4.88323 -2.43372 
v -67.7062 4.92963 -2.50035 
v -67.6415 5.00033 -2.38036 
v -67.6073 2.59356 -1.17687 
v -67.5035 2.68139 -1.18626 
v -67.5426 2.66426 -1.05688 
v -67.056 4.34886 -0.691032 
v -67.017 4.36543 -0.820535 
v -67.0616 4.48237 -0.766657 
v -73.4848 4.15574 -0.551702 
v -73.5294 4.27267 -0.497825 
v -73.4905 4.28924 -0.627327 
v -73.0038 5.97384 -0.26148 
v -73.0429 5.95672 -0.132095 
v -72.9392 6.04454 -0.141487 
v -72.905 3.63777 1.062 
v -72.8403 3.70847 1.18199 
v -72.9498 3.75487 1.11537 
v -72.4632 5.43891 1.48109 
v -72.3536 5.39307 1.54784 
v -72.3593 5.52657 1.47218 
v -68.0832 3.19919 -2.79945 
v -67.6073 2.59356 -1.17687 
v -68.1871 3.11153 -2.79053 
v -67.5035 2.68139 -1.18626 
v -67.017 4.36543 -0.820535 
v -67.6415 5.00033 -2.38036 
v -67.0616 4.48237 -0.766657 
v -67.5967 4.88323 -2.43372 
v -72.9498 3.75487 1.11537 
v -73.5294 4.27267 -0.497825 
v -73.4848 4.15574 -0.551702 
v -72.905 3.63777 1.062 
v -73.0429 5.95672 -0.132095 
v -72.4632 5.43891 1.48109 
v -72.3593 5.52657 1.47218 
v -72.9392 6.04454 -0.141487 
v -67.5426 2.66426 -1.05688 
v -72.8403 3.70847 1.18199 
v -72.905 3.63777 1.062 
v -67.6073 2.59356 -1.17687 
v -67.0616 4.48237 -0.766657 
v -72.3593 5.52657 1.47218 
v -72.3536 5.39307 1.54784 
v -67.056 4.34886 -0.691032 
v -73.4905 4.28924 -0.627327 
v -68.1928 3.24503 -2.8662 
v -68.1871 3.11153 -2.79053 
v -73.4848 4.15574 -0.551702 
v -72.9392 6.04454 -0.141487 
v -67.6415 5.00033 -2.38036 
v -67.7062 4.92963 -2.50035 
v -73.0038 5.97384 -0.26148 
v -67.7062 4.92963 -2.50035 
v -73.4905 4.28924 -0.627327 
v -73.0038 5.97384 -0.26148 
v -68.1928 3.24503 -2.8662 
v -72.3593 5.52657 1.47218 
v -67.0616 4.48237 -0.766657 
v -67.6415 5.00033 -2.38036 
v -72.9392 6.04454 -0.141487 
v -72.3536 5.39307 1.54784 
v -67.5426 2.66426 -1.05688 
v -67.056 4.34886 -0.691032 
v -72.8403 3.70847 1.18199 
v -73.4848 4.15574 -0.551702 
v -68.1871 3.11153 -2.79053 
v -67.6073 2.59356 -1.17687 
v -72.905 3.63777 1.062 

vn -0.850394 0.496063 0.165354 
vn -0.826772 -0.165354 0.543307 
vn -0.677165 0.338583 0.653543 
vn -1 -0.00787402 0.0551181 
vn 1 0.00787402 -0.0551181 
vn 0.677165 -0.338583 -0.653543 
vn 0.826772 0.165354 -0.543307 
vn 0.850394 -0.496063 -0.165354 
vn 0.0629921 -0.771654 -0.629921 
vn 0.0314961 -0.141732 -0.992126 
vn 0.677165 -0.338583 -0.653543 
vn 0.826772 0.165354 -0.543307 
vn 0.212598 0.472441 -0.858268 
vn 0.519685 0.80315 -0.291339 
vn 0.275591 -0.96063 -0.0472441 
vn 0.850394 -0.496063 -0.165354 
vn 0.574803 -0.629921 0.519685 
vn 0.755906 -0.015748 0.653543 
vn 1 0.00787402 -0.0551181 
vn 0.732283 0.614173 0.299213 
vn -0.732283 -0.614173 -0.299213 
vn -1 -0.00787402 0.0551181 
vn -0.755906 0.015748 -0.653543 
vn -0.574803 0.629921 -0.519685 
vn -0.850394 0.496063 0.165354 
vn -0.275591 0.96063 0.0472441 
vn -0.519685 -0.80315 0.291339 
vn -0.212598 -0.472441 0.858268 
vn -0.826772 -0.165354 0.543307 
vn -0.677165 0.338583 0.653543 
vn -0.0314961 0.141732 0.992126 
vn -0.0629921 0.771654 0.629921 
vn 0.677165 -0.338583 -0.653543 
vn 0.275591 -0.96063 -0.0472441 
vn 0.0629921 -0.771654 -0.629921 
vn 0.850394 -0.496063 -0.165354 
vn 1 0.00787402 -0.0551181 
vn 0.519685 0.80315 -0.291339 
vn 0.732283 0.614173 0.299213 
vn 0.826772 0.165354 -0.543307 
vn -0.826772 -0.165354 0.543307 
vn -1 -0.00787402 0.0551181 
vn -0.732283 -0.614173 -0.299213 
vn -0.519685 -0.80315 0.291339 
vn -0.850394 0.496063 0.165354 
vn -0.677165 0.338583 0.653543 
vn -0.0629921 0.771654 0.629921 
vn -0.275591 0.96063 0.0472441 
vn 0.574803 -0.629921 0.519685 
vn -0.212598 -0.472441 0.858268 
vn -0.519685 -0.80315 0.291339 
vn 0.275591 -0.96063 -0.0472441 
vn 0.732283 0.614173 0.299213 
vn -0.0629921 0.771654 0.629921 
vn -0.0314961 0.141732 0.992126 
vn 0.755906 -0.015748 0.653543 
vn -0.755906 0.015748 -0.653543 
vn 0.0314961 -0.141732 -0.992126 
vn 0.0629921 -0.771654 -0.629921 
vn -0.732283 -0.614173 -0.299213 
vn -0.275591 0.96063 0.0472441 
vn 0.519685 0.80315 -0.291339 
vn 0.212598 0.472441 -0.858268 
vn -0.574803 0.629921 -0.519685 
vn 0.212598 0.472441 -0.858268 
vn -0.755906 0.015748 -0.653543 
vn -0.574803 0.629921 -0.519685 
vn 0.0314961 -0.141732 -0.992126 
vn -0.0629921 0.771654 0.629921 
vn 0.732283 0.614173 0.299213 
vn 0.519685 0.80315 -0.291339 
vn -0.275591 0.96063 0.0472441 
vn -0.0314961 0.141732 0.992126 
vn 0.574803 -0.629921 0.519685 
vn 0.755906 -0.015748 0.653543 
vn -0.212598 -0.472441 0.858268 
vn -0.732283 -0.614173 -0.299213 
vn 0.0629921 -0.771654 -0.629921 
vn 0.275591 -0.96063 -0.0472441 
vn -0.519685 -0.80315 0.291339 

vt 0.37265 0.019678 
vt 0.478632 0.13059 
vt 0.37265 0.13059 
vt 0.478632 0.019678 
vt 0.478632 0.481216 
vt 0.37265 0.370304 
vt 0.478632 0.370304 
vt 0.37265 0.481216 
vt 0.37265 0.370304 
vt 0.37265 0.370304 
vt 0.37265 0.370304 
vt 0.478632 0.370304 
vt 0.478632 0.370304 
vt 0.478632 0.370304 
vt 0.37265 0.481216 
vt 0.37265 0.481216 
vt 0.37265 0.481216 
vt 0.478632 0.481216 
vt 0.478632 0.481216 
vt 0.478632 0.481216 
vt 0.478632 0.019678 
vt 0.478632 0.019678 
vt 0.478632 0.019678 
vt 0.37265 0.019678 
vt 0.37265 0.019678 
vt 0.37265 0.019678 
vt 0.478632 0.13059 
vt 0.478632 0.13059 
vt 0.478632 0.13059 
vt 0.37265 0.13059 
vt 0.37265 0.13059 
vt 0.37265 0.13059 
vt 0.37265 0.370304 
vt 0.37265 0.481216 
vt 0.37265 0.370304 
vt 0.37265 0.481216 
vt 0.478632 0.481216 
vt 0.478632 0.370304 
vt 0.478632 0.481216 
vt 0.478632 0.370304 
vt 0.478632 0.13059 
vt 0.478632 0.019678 
vt 0.478632 0.019678 
vt 0.478632 0.13059 
vt 0.37265 0.019678 
vt 0.37265 0.13059 
vt 0.37265 0.13059 
vt 0.37265 0.019678 
vt 0.478632 0.363148 
vt 0.478632 0.137746 
vt 0.478632 0.137746 
vt 0.478632 0.363148 
vt 0.365812 0.363148 
vt 0.365812 0.137746 
vt 0.365812 0.137746 
vt 0.365812 0.363148 
vt 0.140171 0.137746 
vt 0.140171 0.363148 
vt 0.140171 0.363148 
vt 0.140171 0.137746 
vt 0.252991 0.137746 
vt 0.252991 0.363148 
vt 0.252991 0.363148 
vt 0.252991 0.137746 
vt 0.252991 0.363148 
vt 0.147009 0.137746 
vt 0.252991 0.137746 
vt 0.147009 0.363148 
vt 0.365812 0.137746 
vt 0.365812 0.363148 
vt 0.259829 0.363148 
vt 0.259829 0.137746 
vt 0.37265 0.137746 
vt 0.478632 0.363148 
vt 0.37265 0.363148 
vt 0.478632 0.137746 
vt 0.140171 0.137746 
vt 0.140171 0.363148 
vt 0.034188 0.363148 
vt 0.034188 0.137746 

usemtl Leftarm2Mtl

f 401/401/401 402/402/402 403/403/403 
f 402/402/402 401/401/401 404/404/404 
f 405/405/405 406/406/406 407/407/407 
f 406/406/406 405/405/405 408/408/408 
f 409/409/409 410/410/410 411/411/411 
f 410/410/410 412/412/412 411/411/411 
f 412/412/412 410/410/410 413/413/413 
f 413/413/413 414/414/414 412/412/412 
f 415/415/415 416/416/416 417/417/417 
f 418/418/418 417/417/417 416/416/416 
f 416/416/416 419/419/419 418/418/418 
f 420/420/420 418/418/418 419/419/419 
f 421/421/421 422/422/422 423/423/423 
f 424/424/424 423/423/423 422/422/422 
f 422/422/422 425/425/425 424/424/424 
f 426/426/426 424/424/424 425/425/425 
f 427/427/427 428/428/428 429/429/429 
f 430/430/430 429/429/429 428/428/428 
f 428/428/428 431/431/431 430/430/430 
f 432/432/432 430/430/430 431/431/431 
f 433/433/433 434/434/434 435/435/435 
f 434/434/434 433/433/433 436/436/436 
f 437/437/437 438/438/438 439/439/439 
f 438/438/438 437/437/437 440/440/440 
f 441/441/441 442/442/442 443/443/443 
f 443/443/443 444/444/444 441/441/441 
f 445/445/445 446/446/446 447/447/447 
f 447/447/447 448/448/448 445/445/445 
f 449/449/449 450/450/450 451/451/451 
f 449/449/449 451/451/451 452/452/452 
f 453/453/453 454/454/454 455/455/455 
f 453/453/453 455/455/455 456/456/456 
f 457/457/457 458/458/458 459/459/459 
f 457/457/457 459/459/459 460/460/460 
f 461/461/461 462/462/462 463/463/463 
f 461/461/461 463/463/463 464/464/464 
f 465/465/465 466/466/466 467/467/467 
f 466/466/466 465/465/465 468/468/468 
f 469/469/469 470/470/470 471/471/471 
f 469/469/469 471/471/471 472/472/472 
f 473/473/473 474/474/474 475/475/475 
f 474/474/474 473/473/473 476/476/476 
f 477/477/477 478/478/478 479/479/479 
f 477/477/477 479/479/479 480/480/480 

