# This file is brought to you by Roblox Corporation
# Generated by Roblox Studio

mtllib Molotov.mtl

g Meshpart1

v -329.133 7.27431 -0.342438 
v -329.313 7.03499 -0.23877 
v -329.313 7.27431 -0.446106 
v -329.105 7.27431 -0.23877 
v -329.133 7.27431 -0.135102 
v -329.313 7.27431 -0.0314335 
v -329.596 4.70219 0.251378 
v -329.116 4.07676 -0.579756 
v -329.313 4.23145 -0.749764 
v -329.51 4.07676 -0.579756 
v -329.568 4.23145 -0.681304 
v -329.654 4.07676 -0.435638 
v -329.596 4.46729 -0.728918 
v -329.755 4.23145 -0.494266 
v -329.824 4.23145 -0.23877 
v -329.706 4.07676 -0.23877 
v -329.654 4.07676 -0.0419015 
v -329.755 4.23145 0.0167265 
v -329.879 4.46729 -0.23877 
v -329.803 4.46729 -0.521756 
v -329.596 4.70219 -0.728918 
v -329.568 4.23145 0.203764 
v -329.596 4.46729 0.251378 
v -329.803 4.70219 0.0442165 
v -329.803 4.46729 0.0442165 
v -329.879 4.70219 -0.23877 
v -329.879 5.72972 -0.23877 
v -329.803 5.72972 0.0442165 
v -329.803 4.70219 -0.521756 
v -329.803 5.72972 -0.521756 
v -329.596 5.72972 -0.728918 
v -329.313 5.96462 -0.804744 
v -329.596 5.96462 -0.728918 
v -329.803 5.96462 -0.521756 
v -329.879 5.96462 -0.23877 
v -329.696 6.27307 -0.460222 
v -329.534 6.27307 -0.622334 
v -329.803 5.96462 0.0442165 
v -329.596 5.72972 0.251378 
v -329.696 6.27307 -0.0173175 
v -329.596 5.96462 0.251378 
v -329.534 6.27307 0.144794 
v -329.444 6.47237 -0.0108275 
v -329.756 6.27307 -0.23877 
v -329.541 6.47237 -0.107168 
v -329.541 6.47237 -0.370372 
v -329.576 6.47237 -0.23877 
v -329.473 6.72624 -0.146034 
v -329.444 6.47237 -0.466712 
v -329.473 6.72624 -0.331506 
v -329.498 6.72624 -0.23877 
v -329.527 6.98011 -0.23877 
v -329.498 6.98011 -0.131736 
v -329.498 6.98011 -0.345804 
v -329.405 6.72624 -0.0781455 
v -329.42 6.98011 -0.0533795 
v -329.405 6.72624 -0.399394 
v -329.42 6.98011 -0.42416 
v -329.313 6.72624 -0.424242 
v -329.446 6.99446 -0.469726 
v -329.446 7.25996 -0.469726 
v -329.544 7.25996 -0.372114 
v -329.544 6.99446 -0.372114 
v -329.579 7.25996 -0.23877 
v -329.579 6.99446 -0.23877 
v -329.544 7.25996 -0.105426 
v -329.544 6.99446 -0.105426 
v -329.446 7.25996 -0.00781353 
v -329.446 6.99446 -0.00781353 
v -329.209 7.27431 -0.0592115 
v -329.082 7.25996 -0.105426 
v -329.133 7.27431 -0.135102 
v -329.179 7.25996 -0.00781353 
v -329.046 7.25996 -0.23877 
v -329.313 7.25996 0.0279165 
v -329.105 7.27431 -0.23877 
v -329.313 7.27431 -0.0314335 
v -329.133 7.27431 -0.342438 
v -329.416 7.27431 -0.0592115 
v -329.082 7.25996 -0.372114 
v -329.446 7.25996 -0.00781353 
v -329.179 7.25996 -0.469726 
v -329.492 7.27431 -0.135102 
v -329.209 7.27431 -0.418328 
v -329.544 7.25996 -0.105426 
v -329.313 7.25996 -0.505455 
v -329.579 7.25996 -0.23877 
v -329.313 7.27431 -0.446106 
v -329.52 7.27431 -0.23877 
v -329.416 7.27431 -0.418328 
v -329.492 7.27431 -0.342438 
v -329.446 7.25996 -0.469726 
v -329.544 7.25996 -0.372114 
v -329.133 7.27431 -0.342438 
v -329.209 7.27431 -0.418328 
v -329.313 7.03499 -0.23877 
v -329.416 7.27431 -0.418328 
v -329.133 7.27431 -0.135102 
v -329.492 7.27431 -0.342438 
v -329.209 7.27431 -0.0592115 
v -329.492 7.27431 -0.135102 
v -329.416 7.27431 -0.0592115 
v -328.929 6.27307 -0.0173175 
v -329.091 6.27307 0.144794 
v -329.313 5.96462 -0.804744 
v -329.879 5.96462 -0.23877 
v -329.696 6.27307 -0.460222 
v -329.534 6.27307 -0.622334 
v -328.929 6.27307 -0.460222 
v -329.091 6.27307 -0.622334 
v -329.181 6.47237 -0.466712 
v -329.696 6.27307 -0.0173175 
v -329.534 6.27307 0.144794 
v -329.313 6.27307 0.204132 
v -329.444 6.47237 -0.0108275 
v -329.541 6.47237 -0.107168 
v -329.541 6.47237 -0.370372 
v -329.576 6.47237 -0.23877 
v -329.444 6.47237 -0.466712 
v -329.085 6.47237 -0.370372 
v -329.049 6.47237 -0.23877 
v -329.152 6.72624 -0.146034 
v -329.085 6.47237 -0.107168 
v -329.181 6.47237 -0.0108275 
v -329.313 7.03499 -0.23877 
v -329.133 7.27431 -0.135102 
v -329.209 7.27431 -0.0592115 
v -329.313 7.27431 -0.0314335 
v -329.416 7.27431 -0.0592115 
v -329.116 4.07676 -0.579756 
v -329.057 4.23145 -0.681304 
v -329.03 4.46729 -0.728918 
v -329.313 4.46729 -0.804744 
v -329.313 4.23145 -0.749764 
v -329.313 4.07676 -0.632506 
v -329.51 4.07676 -0.579756 
v -329.568 4.23145 -0.681304 
v -329.596 4.46729 -0.728918 
v -329.313 4.70219 -0.804744 
v -329.654 4.07676 -0.0419015 
v -329.803 4.46729 -0.521756 
v -329.596 4.70219 -0.728918 
v -329.313 5.72972 -0.804744 
v -329.803 4.70219 0.0442165 
v -329.803 5.72972 0.0442165 
v -329.596 5.72972 -0.728918 
v -329.313 5.96462 -0.804744 
v -329.596 5.96462 -0.728918 
v -329.803 5.96462 -0.521756 
v -329.534 6.27307 -0.622334 
v -329.03 5.72972 -0.728918 
v -329.03 5.96462 -0.728918 
v -328.823 5.96462 -0.521756 
v -328.929 6.27307 -0.460222 
v -329.091 6.27307 -0.622334 
v -329.181 6.47237 -0.466712 
v -329.03 4.70219 -0.728918 
v -329.313 6.27307 -0.681672 
v -329.576 6.47237 -0.23877 
v -329.444 6.47237 -0.466712 
v -329.527 6.98011 -0.23877 
v -329.405 6.72624 -0.399394 
v -329.42 6.98011 -0.42416 
v -329.313 6.98011 -0.45284 
v -329.313 6.72624 -0.424242 
v -329.313 6.47237 -0.501974 
v -329.22 6.72624 -0.399394 
v -329.206 6.98011 -0.42416 
v -329.099 6.98011 -0.23877 
v -329.049 6.47237 -0.23877 
v -329.206 6.98011 -0.0533795 
v -329.446 6.99446 -0.469726 
v -329.446 7.25996 -0.469726 
v -329.313 6.99446 -0.505455 
v -329.313 7.25996 -0.505455 
v -329.179 6.99446 -0.469726 
v -329.179 7.25996 -0.469726 
v -329.313 7.03499 -0.23877 
v -329.313 7.27431 -0.446106 
v -329.492 7.27431 -0.342438 
v -329.52 7.27431 -0.23877 
v -329.313 7.27431 -0.0314335 
v -329.492 7.27431 -0.135102 
v -329.03 5.96462 0.251378 
v -328.823 5.72972 0.0442165 
v -328.823 5.96462 0.0442165 
v -329.03 5.72972 0.251378 
v -328.747 5.96462 -0.23877 
v -328.929 6.27307 -0.0173175 
v -328.823 4.70219 0.0442165 
v -328.823 4.46729 0.0442165 
v -328.747 4.46729 -0.23877 
v -329.03 4.70219 0.251378 
v -329.091 6.27307 0.144794 
v -329.03 4.46729 0.251378 
v -328.87 4.23145 0.0167265 
v -329.057 4.23145 0.203764 
v -328.972 4.07676 -0.0419015 
v -328.802 4.23145 -0.23877 
v -328.919 4.07676 -0.23877 
v -329.116 4.07676 0.102216 
v -328.972 4.07676 -0.435638 
v -328.87 4.23145 -0.494266 
v -329.116 4.07676 -0.579756 
v -329.057 4.23145 -0.681304 
v -329.03 4.46729 -0.728918 
v -329.313 4.23145 -0.749764 
v -329.313 5.96462 -0.804744 
v -329.03 5.72972 -0.728918 
v -329.03 5.96462 -0.728918 
v -328.823 5.96462 -0.521756 
v -328.929 6.27307 -0.460222 
v -329.091 6.27307 -0.622334 
v -328.823 5.72972 -0.521756 
v -329.181 6.47237 -0.466712 
v -329.03 4.70219 -0.728918 
v -328.823 4.70219 -0.521756 
v -328.747 5.72972 -0.23877 
v -328.747 4.70219 -0.23877 
v -328.823 4.46729 -0.521756 
v -329.313 6.72624 -0.0532975 
v -329.313 6.72624 -0.424242 
v -329.22 6.72624 -0.399394 
v -329.206 6.98011 -0.42416 
v -329.127 6.98011 -0.345804 
v -329.152 6.72624 -0.331506 
v -329.099 6.98011 -0.23877 
v -329.085 6.47237 -0.370372 
v -329.127 6.72624 -0.23877 
v -328.87 6.27307 -0.23877 
v -329.049 6.47237 -0.23877 
v -329.152 6.72624 -0.146034 
v -329.127 6.98011 -0.131736 
v -329.085 6.47237 -0.107168 
v -329.181 6.47237 -0.0108275 
v -329.22 6.72624 -0.0781455 
v -329.206 6.98011 -0.0533795 
v -329.313 7.25996 -0.505455 
v -329.179 6.99446 -0.469726 
v -329.179 7.25996 -0.469726 
v -329.082 6.99446 -0.372114 
v -329.082 7.25996 -0.372114 
v -329.046 6.99446 -0.23877 
v -329.046 7.25996 -0.23877 
v -329.082 6.99446 -0.105426 
v -329.082 7.25996 -0.105426 
v -329.313 7.25996 0.0279165 
v -329.179 6.99446 -0.00781353 
v -329.179 7.25996 -0.00781353 
v -329.313 4.07676 -0.632506 
v -329.706 4.07676 -0.23877 
v -329.654 4.07676 -0.435638 
v -329.51 4.07676 -0.579756 
v -329.313 4.07676 0.154966 
v -329.654 4.07676 -0.0419015 
v -329.51 4.07676 0.102216 
v -328.919 4.07676 -0.23877 
v -329.116 4.07676 0.102216 
v -328.972 4.07676 -0.0419015 
v -328.972 4.07676 -0.435638 
v -329.116 4.07676 -0.579756 
v -328.87 4.23145 0.0167265 
v -329.057 4.23145 0.203764 
v -328.972 4.07676 -0.0419015 
v -328.919 4.07676 -0.23877 
v -329.116 4.07676 0.102216 
v -328.972 4.07676 -0.435638 
v -328.87 4.23145 -0.494266 
v -329.116 4.07676 -0.579756 
v -329.313 4.23145 0.272224 
v -329.51 4.07676 0.102216 
v -329.057 4.23145 -0.681304 
v -329.313 4.23145 -0.749764 
v -329.51 4.07676 -0.579756 
v -329.568 4.23145 -0.681304 
v -329.654 4.07676 -0.435638 
v -329.755 4.23145 -0.494266 
v -329.824 4.23145 -0.23877 
v -329.654 4.07676 -0.0419015 
v -329.755 4.23145 0.0167265 
v -329.568 4.23145 0.203764 
v -329.313 7.25996 -0.505455 
v -329.579 7.25996 -0.23877 
v -329.082 6.99446 -0.372114 
v -329.498 6.98011 -0.131736 
v -329.579 6.99446 -0.23877 
v -329.527 6.98011 -0.23877 
v -329.498 6.98011 -0.345804 
v -329.544 6.99446 -0.105426 
v -329.544 6.99446 -0.372114 
v -329.446 6.99446 -0.00781353 
v -329.42 6.98011 -0.42416 
v -329.42 6.98011 -0.0533795 
v -329.446 6.99446 -0.469726 
v -329.313 6.99446 0.0279165 
v -329.313 6.99446 -0.505455 
v -329.313 6.98011 -0.0246995 
v -329.313 6.98011 -0.45284 
v -329.206 6.98011 -0.0533795 
v -329.206 6.98011 -0.42416 
v -329.179 6.99446 -0.00781353 
v -329.179 6.99446 -0.469726 
v -329.082 6.99446 -0.105426 
v -329.127 6.98011 -0.345804 
v -329.127 6.98011 -0.131736 
v -329.082 6.99446 -0.372114 
v -329.046 6.99446 -0.23877 
v -329.099 6.98011 -0.23877 
v -329.209 7.27431 -0.418328 
v -329.313 7.03499 -0.23877 
v -329.313 7.27431 -0.446106 
v -329.416 7.27431 -0.418328 
v -329.03 5.96462 0.251378 
v -328.823 5.72972 0.0442165 
v -329.03 5.72972 0.251378 
v -328.823 4.70219 0.0442165 
v -329.03 4.70219 0.251378 
v -329.313 5.96462 0.327204 
v -329.313 5.72972 0.327204 
v -329.091 6.27307 0.144794 
v -329.03 4.46729 0.251378 
v -329.313 4.70219 0.327204 
v -329.313 4.46729 0.327204 
v -329.596 4.70219 0.251378 
v -329.057 4.23145 0.203764 
v -329.116 4.07676 0.102216 
v -329.313 4.23145 0.272224 
v -329.313 4.07676 0.154966 
v -329.51 4.07676 0.102216 
v -329.654 4.07676 -0.0419015 
v -329.568 4.23145 0.203764 
v -329.596 4.46729 0.251378 
v -329.803 4.70219 0.0442165 
v -329.803 5.72972 0.0442165 
v -329.596 5.72972 0.251378 
v -329.696 6.27307 -0.0173175 
v -329.596 5.96462 0.251378 
v -329.534 6.27307 0.144794 
v -329.313 6.27307 0.204132 
v -329.444 6.47237 -0.0108275 
v -329.527 6.98011 -0.23877 
v -329.405 6.72624 -0.0781455 
v -329.42 6.98011 -0.0533795 
v -329.313 6.98011 -0.0246995 
v -329.313 6.72624 -0.0532975 
v -329.049 6.47237 -0.23877 
v -329.181 6.47237 -0.0108275 
v -329.22 6.72624 -0.0781455 
v -329.206 6.98011 -0.0533795 
v -329.313 6.47237 0.0244345 
v -329.544 7.25996 -0.105426 
v -329.544 6.99446 -0.105426 
v -329.446 7.25996 -0.00781353 
v -329.082 6.99446 -0.105426 
v -329.446 6.99446 -0.00781353 
v -329.082 7.25996 -0.105426 
v -329.313 7.25996 0.0279165 
v -329.179 6.99446 -0.00781353 
v -329.313 6.99446 0.0279165 
v -329.179 7.25996 -0.00781353 

vn -0.653543 0.653543 0.377953 
vn 0 1 0 
vn 0 0.653543 0.755906 
vn -0.755906 0.653543 0 
vn -0.653543 0.653543 -0.377953 
vn 0 0.653543 -0.755906 
vn -0.496063 0 0.866142 
vn 0.401575 -0.606299 -0.692913 
vn 0 -0.409449 -0.913386 
vn -0.401575 -0.606299 -0.692913 
vn -0.456693 -0.409449 -0.787402 
vn -0.692913 -0.606299 -0.401575 
vn -0.496063 -0.110236 -0.858268 
vn -0.787402 -0.409449 -0.456693 
vn -0.913386 -0.409449 0 
vn -0.795276 -0.606299 0 
vn -0.692913 -0.606299 0.401575 
vn -0.787402 -0.409449 0.456693 
vn -0.992126 -0.110236 0 
vn -0.858268 -0.110236 -0.496063 
vn -0.496063 0 -0.866142 
vn -0.456693 -0.409449 0.787402 
vn -0.496063 -0.110236 0.858268 
vn -0.905512 0 0.417323 
vn -0.858268 -0.110236 0.496063 
vn -1 0 0 
vn -1 0 0 
vn -0.905512 0 0.417323 
vn -0.866142 0 -0.496063 
vn -0.866142 0 -0.496063 
vn -0.496063 0 -0.866142 
vn 0 0.181102 -0.984252 
vn -0.488189 0.181102 -0.850394 
vn -0.850394 0.181102 -0.488189 
vn -0.984252 0.181102 0 
vn -0.740157 0.511811 -0.425197 
vn -0.425197 0.511811 -0.740157 
vn -0.850394 0.181102 0.488189 
vn -0.496063 0 0.866142 
vn -0.740157 0.511811 0.425197 
vn -0.488189 0.181102 0.850394 
vn -0.425197 0.511811 0.740157 
vn -0.433071 0.511811 0.748031 
vn -0.858268 0.511811 0 
vn -0.748031 0.511811 0.433071 
vn -0.748031 0.511811 -0.433071 
vn -0.858268 0.511811 0 
vn -0.858268 0.0944882 0.496063 
vn -0.433071 0.511811 -0.748031 
vn -0.858268 0.0944882 -0.496063 
vn -0.992126 0.0944882 0 
vn -0.992126 -0.110236 0 
vn -0.858268 -0.110236 0.496063 
vn -0.858268 -0.110236 -0.496063 
vn -0.496063 0.0944882 0.858268 
vn -0.496063 -0.110236 0.858268 
vn -0.496063 0.0944882 -0.858268 
vn -0.496063 -0.110236 -0.858268 
vn 0 0.0944882 -0.992126 
vn -0.496063 0 -0.866142 
vn -0.496063 0 -0.866142 
vn -0.866142 0 -0.496063 
vn -0.866142 0 -0.496063 
vn -1 0 0 
vn -1 0 0 
vn -0.866142 0 0.496063 
vn -0.866142 0 0.496063 
vn -0.496063 0 0.866142 
vn -0.496063 0 0.866142 
vn 0.11811 0.968504 0.204724 
vn 0.204724 0.968504 0.11811 
vn 0.204724 0.968504 0.11811 
vn 0.11811 0.968504 0.204724 
vn 0.23622 0.968504 0 
vn 0 0.968504 0.23622 
vn 0.23622 0.968504 0 
vn 0 0.968504 0.23622 
vn 0.204724 0.968504 -0.11811 
vn -0.11811 0.968504 0.204724 
vn 0.204724 0.968504 -0.11811 
vn -0.11811 0.968504 0.204724 
vn 0.11811 0.968504 -0.204724 
vn -0.204724 0.968504 0.11811 
vn 0.11811 0.968504 -0.204724 
vn -0.204724 0.968504 0.11811 
vn 0 0.968504 -0.23622 
vn -0.23622 0.968504 0 
vn 0 0.968504 -0.23622 
vn -0.23622 0.968504 0 
vn -0.11811 0.968504 -0.204724 
vn -0.204724 0.968504 -0.11811 
vn -0.11811 0.968504 -0.204724 
vn -0.204724 0.968504 -0.11811 
vn -0.653543 0.653543 0.377953 
vn -0.377953 0.653543 0.653543 
vn 0 1 0 
vn 0.377953 0.653543 0.653543 
vn -0.653543 0.653543 -0.377953 
vn 0.653543 0.653543 0.377953 
vn -0.377953 0.653543 -0.653543 
vn 0.653543 0.653543 -0.377953 
vn 0.377953 0.653543 -0.653543 
vn 0.740157 0.511811 0.425197 
vn 0.425197 0.511811 0.740157 
vn 0 0.181102 -0.984252 
vn -0.984252 0.181102 0 
vn -0.740157 0.511811 -0.425197 
vn -0.425197 0.511811 -0.740157 
vn 0.740157 0.511811 -0.425197 
vn 0.425197 0.511811 -0.740157 
vn 0.433071 0.511811 -0.748031 
vn -0.740157 0.511811 0.425197 
vn -0.425197 0.511811 0.740157 
vn 0 0.511811 0.858268 
vn -0.433071 0.511811 0.748031 
vn -0.748031 0.511811 0.433071 
vn -0.748031 0.511811 -0.433071 
vn -0.858268 0.511811 0 
vn -0.433071 0.511811 -0.748031 
vn 0.748031 0.511811 -0.433071 
vn 0.858268 0.511811 0 
vn 0.858268 0.0944882 0.496063 
vn 0.748031 0.511811 0.433071 
vn 0.433071 0.511811 0.748031 
vn 0 1 0 
vn -0.653543 0.653543 -0.377953 
vn -0.377953 0.653543 -0.653543 
vn 0 0.653543 -0.755906 
vn 0.377953 0.653543 -0.653543 
vn 0.401575 -0.606299 -0.692913 
vn 0.456693 -0.409449 -0.787402 
vn 0.496063 -0.110236 -0.858268 
vn 0 -0.110236 -0.992126 
vn 0 -0.409449 -0.913386 
vn 0 -0.606299 -0.795276 
vn -0.401575 -0.606299 -0.692913 
vn -0.456693 -0.409449 -0.787402 
vn -0.496063 -0.110236 -0.858268 
vn 0 0 -1 
vn -0.692913 -0.606299 0.401575 
vn -0.858268 -0.110236 -0.496063 
vn -0.496063 0 -0.866142 
vn 0 0 -1 
vn -0.905512 0 0.417323 
vn -0.905512 0 0.417323 
vn -0.496063 0 -0.866142 
vn 0 0.181102 -0.984252 
vn -0.488189 0.181102 -0.850394 
vn -0.850394 0.181102 -0.488189 
vn -0.425197 0.511811 -0.740157 
vn 0.496063 0 -0.866142 
vn 0.488189 0.181102 -0.850394 
vn 0.850394 0.181102 -0.488189 
vn 0.740157 0.511811 -0.425197 
vn 0.425197 0.511811 -0.740157 
vn 0.433071 0.511811 -0.748031 
vn 0.496063 0 -0.866142 
vn 0 0.511811 -0.858268 
vn -0.858268 0.511811 0 
vn -0.433071 0.511811 -0.748031 
vn -0.992126 -0.110236 0 
vn -0.496063 0.0944882 -0.858268 
vn -0.496063 -0.110236 -0.858268 
vn 0 -0.110236 -0.992126 
vn 0 0.0944882 -0.992126 
vn 0 0.511811 -0.858268 
vn 0.496063 0.0944882 -0.858268 
vn 0.496063 -0.110236 -0.858268 
vn 0.992126 -0.110236 0 
vn 0.858268 0.511811 0 
vn 0.496063 -0.110236 0.858268 
vn -0.496063 0 -0.866142 
vn -0.496063 0 -0.866142 
vn 0 0 -1 
vn 0 0 -1 
vn 0.496063 0 -0.866142 
vn 0.496063 0 -0.866142 
vn 0 1 0 
vn 0 0.653543 0.755906 
vn 0.653543 0.653543 0.377953 
vn 0.755906 0.653543 0 
vn 0 0.653543 -0.755906 
vn 0.653543 0.653543 -0.377953 
vn 0.488189 0.181102 0.850394 
vn 0.905512 0 0.417323 
vn 0.850394 0.181102 0.488189 
vn 0.496063 0 0.866142 
vn 0.984252 0.181102 0 
vn 0.740157 0.511811 0.425197 
vn 0.905512 0 0.417323 
vn 0.858268 -0.110236 0.496063 
vn 0.992126 -0.110236 0 
vn 0.496063 0 0.866142 
vn 0.425197 0.511811 0.740157 
vn 0.496063 -0.110236 0.858268 
vn 0.787402 -0.409449 0.456693 
vn 0.456693 -0.409449 0.787402 
vn 0.692913 -0.606299 0.401575 
vn 0.913386 -0.409449 0 
vn 0.795276 -0.606299 0 
vn 0.401575 -0.606299 0.692913 
vn 0.692913 -0.606299 -0.401575 
vn 0.787402 -0.409449 -0.456693 
vn 0.401575 -0.606299 -0.692913 
vn 0.456693 -0.409449 -0.787402 
vn 0.496063 -0.110236 -0.858268 
vn 0 -0.409449 -0.913386 
vn 0 0.181102 -0.984252 
vn 0.496063 0 -0.866142 
vn 0.488189 0.181102 -0.850394 
vn 0.850394 0.181102 -0.488189 
vn 0.740157 0.511811 -0.425197 
vn 0.425197 0.511811 -0.740157 
vn 0.866142 0 -0.496063 
vn 0.433071 0.511811 -0.748031 
vn 0.496063 0 -0.866142 
vn 0.866142 0 -0.496063 
vn 1 0 0 
vn 1 0 0 
vn 0.858268 -0.110236 -0.496063 
vn 0 0.0944882 0.992126 
vn 0 0.0944882 -0.992126 
vn 0.496063 0.0944882 -0.858268 
vn 0.496063 -0.110236 -0.858268 
vn 0.858268 -0.110236 -0.496063 
vn 0.858268 0.0944882 -0.496063 
vn 0.992126 -0.110236 0 
vn 0.748031 0.511811 -0.433071 
vn 0.992126 0.0944882 0 
vn 0.858268 0.511811 0 
vn 0.858268 0.511811 0 
vn 0.858268 0.0944882 0.496063 
vn 0.858268 -0.110236 0.496063 
vn 0.748031 0.511811 0.433071 
vn 0.433071 0.511811 0.748031 
vn 0.496063 0.0944882 0.858268 
vn 0.496063 -0.110236 0.858268 
vn 0 0 -1 
vn 0.496063 0 -0.866142 
vn 0.496063 0 -0.866142 
vn 0.866142 0 -0.496063 
vn 0.866142 0 -0.496063 
vn 1 0 0 
vn 1 0 0 
vn 0.866142 0 0.496063 
vn 0.866142 0 0.496063 
vn 0 0 1 
vn 0.496063 0 0.866142 
vn 0.496063 0 0.866142 
vn 0 -1 0 
vn 0 -1 0 
vn 0 -1 0 
vn 0 -1 0 
vn 0 -1 0 
vn 0 -1 0 
vn 0 -1 0 
vn 0 -1 0 
vn 0 -1 0 
vn 0 -1 0 
vn 0 -1 0 
vn 0 -1 0 
vn 0.787402 -0.409449 0.456693 
vn 0.456693 -0.409449 0.787402 
vn 0.692913 -0.606299 0.401575 
vn 0.795276 -0.606299 0 
vn 0.401575 -0.606299 0.692913 
vn 0.692913 -0.606299 -0.401575 
vn 0.787402 -0.409449 -0.456693 
vn 0.401575 -0.606299 -0.692913 
vn 0 -0.409449 0.913386 
vn -0.401575 -0.606299 0.692913 
vn 0.456693 -0.409449 -0.787402 
vn 0 -0.409449 -0.913386 
vn -0.401575 -0.606299 -0.692913 
vn -0.456693 -0.409449 -0.787402 
vn -0.692913 -0.606299 -0.401575 
vn -0.787402 -0.409449 -0.456693 
vn -0.913386 -0.409449 0 
vn -0.692913 -0.606299 0.401575 
vn -0.787402 -0.409449 0.456693 
vn -0.456693 -0.409449 0.787402 
vn 0 0 -1 
vn -1 0 0 
vn 0.866142 0 -0.496063 
vn -0.228346 -0.968504 0.133858 
vn -0.259843 -0.968504 0 
vn -0.259843 -0.968504 0 
vn -0.228346 -0.968504 -0.133858 
vn -0.228346 -0.968504 0.133858 
vn -0.228346 -0.968504 -0.133858 
vn -0.133858 -0.968504 0.228346 
vn -0.133858 -0.968504 -0.228346 
vn -0.133858 -0.968504 0.228346 
vn -0.133858 -0.968504 -0.228346 
vn 0 -0.968504 0.259843 
vn 0 -0.968504 -0.259843 
vn 0 -0.968504 0.259843 
vn 0 -0.968504 -0.259843 
vn 0.133858 -0.968504 0.228346 
vn 0.133858 -0.968504 -0.228346 
vn 0.133858 -0.968504 0.228346 
vn 0.133858 -0.968504 -0.228346 
vn 0.228346 -0.968504 0.133858 
vn 0.228346 -0.968504 -0.133858 
vn 0.228346 -0.968504 0.133858 
vn 0.228346 -0.968504 -0.133858 
vn 0.259843 -0.968504 0 
vn 0.259843 -0.968504 0 
vn -0.377953 0.653543 0.653543 
vn 0 1 0 
vn 0 0.653543 0.755906 
vn 0.377953 0.653543 0.653543 
vn 0.488189 0.181102 0.850394 
vn 0.905512 0 0.417323 
vn 0.496063 0 0.866142 
vn 0.905512 0 0.417323 
vn 0.496063 0 0.866142 
vn 0 0.181102 0.984252 
vn 0 0 1 
vn 0.425197 0.511811 0.740157 
vn 0.496063 -0.110236 0.858268 
vn 0 0 1 
vn 0 -0.110236 0.992126 
vn -0.496063 0 0.866142 
vn 0.456693 -0.409449 0.787402 
vn 0.401575 -0.606299 0.692913 
vn 0 -0.409449 0.913386 
vn 0 -0.606299 0.795276 
vn -0.401575 -0.606299 0.692913 
vn -0.692913 -0.606299 0.401575 
vn -0.456693 -0.409449 0.787402 
vn -0.496063 -0.110236 0.858268 
vn -0.905512 0 0.417323 
vn -0.905512 0 0.417323 
vn -0.496063 0 0.866142 
vn -0.740157 0.511811 0.425197 
vn -0.488189 0.181102 0.850394 
vn -0.425197 0.511811 0.740157 
vn 0 0.511811 0.858268 
vn -0.433071 0.511811 0.748031 
vn -0.992126 -0.110236 0 
vn -0.496063 0.0944882 0.858268 
vn -0.496063 -0.110236 0.858268 
vn 0 -0.110236 0.992126 
vn 0 0.0944882 0.992126 
vn 0.858268 0.511811 0 
vn 0.433071 0.511811 0.748031 
vn 0.496063 0.0944882 0.858268 
vn 0.496063 -0.110236 0.858268 
vn 0 0.511811 0.858268 
vn -0.866142 0 0.496063 
vn -0.866142 0 0.496063 
vn -0.496063 0 0.866142 
vn 0.866142 0 0.496063 
vn -0.496063 0 0.866142 
vn 0.866142 0 0.496063 
vn 0 0 1 
vn 0.496063 0 0.866142 
vn 0 0 1 
vn 0.496063 0 0.866142 

vt 1.30144 0.386364 
vt 1.3144 0.356449 
vt 1.28848 0.386364 
vt 1.3144 0.386364 
vt 1.32736 0.386364 
vt 1.34032 0.386364 
vt 1.37567 0.0648493 
vt 1.27178 -0.01333 
vt 1.25053 0.00600648 
vt 1.27178 -0.01333 
vt 1.25908 0.00600648 
vt 1.28979 -0.01333 
vt 1.25313 0.0354865 
vt 1.28246 0.00600648 
vt 1.3144 0.00600648 
vt 1.3144 -0.01333 
vt 1.33901 -0.01333 
vt 1.34634 0.00600648 
vt 1.3144 0.0354865 
vt 1.27903 0.0354865 
vt 1.25313 0.0648493 
vt 1.36972 0.00600648 
vt 1.37567 0.0354865 
vt 1.34977 0.0648493 
vt 1.34977 0.0354865 
vt 1.3144 0.0648493 
vt 1.3144 0.19329 
vt 1.34977 0.19329 
vt 1.27903 0.0648493 
vt 1.27903 0.19329 
vt 1.25313 0.19329 
vt 1.24365 0.222653 
vt 1.25313 0.222653 
vt 1.27903 0.222653 
vt 1.3144 0.222653 
vt 1.28672 0.261208 
vt 1.26646 0.261208 
vt 1.34977 0.222653 
vt 1.37567 0.19329 
vt 1.34208 0.261208 
vt 1.37567 0.222653 
vt 1.36235 0.261208 
vt 1.34289 0.286121 
vt 1.3144 0.261208 
vt 1.33085 0.286121 
vt 1.29795 0.286121 
vt 1.3144 0.286121 
vt 1.32599 0.317855 
vt 1.28591 0.286121 
vt 1.30281 0.317855 
vt 1.3144 0.317855 
vt 1.3144 0.349589 
vt 1.32778 0.349589 
vt 1.30102 0.349589 
vt 1.33448 0.317855 
vt 1.33758 0.349589 
vt 1.29432 0.317855 
vt 1.29123 0.349589 
vt 1.29122 0.317855 
vt 1.28553 0.351382 
vt 1.28553 0.38457 
vt 1.29773 0.38457 
vt 1.29773 0.351382 
vt 1.3144 0.38457 
vt 1.3144 0.351382 
vt 1.33107 0.38457 
vt 1.33107 0.351382 
vt 1.34327 0.38457 
vt 1.34327 0.351382 
vt 1.32736 0.164072 
vt 1.34327 0.169849 
vt 1.33685 0.173559 
vt 1.33107 0.157648 
vt 1.34774 0.186517 
vt 1.3144 0.153181 
vt 1.34032 0.186517 
vt 1.3144 0.1606 
vt 1.33685 0.199476 
vt 1.30144 0.164072 
vt 1.34327 0.203185 
vt 1.29773 0.157648 
vt 1.33107 0.215387 
vt 1.29196 0.173559 
vt 1.32736 0.208962 
vt 1.28553 0.169849 
vt 1.3144 0.219853 
vt 1.28107 0.186517 
vt 1.3144 0.212434 
vt 1.28848 0.186517 
vt 1.30144 0.208962 
vt 1.29196 0.199476 
vt 1.29773 0.215387 
vt 1.28553 0.203185 
vt 1.33685 0.199476 
vt 1.32736 0.208962 
vt 1.3144 0.186517 
vt 1.30144 0.208962 
vt 1.33685 0.173559 
vt 1.29196 0.199476 
vt 1.32736 0.164072 
vt 1.29196 0.173559 
vt 1.30144 0.164072 
vt 1.36235 0.158836 
vt 1.34208 0.138572 
vt 1.3144 0.257264 
vt 1.24365 0.186517 
vt 1.26646 0.214199 
vt 1.28672 0.234463 
vt 1.36235 0.214199 
vt 1.34208 0.234463 
vt 1.33085 0.21501 
vt 1.26646 0.158836 
vt 1.28672 0.138572 
vt 1.3144 0.131154 
vt 1.29795 0.158024 
vt 1.28591 0.170067 
vt 1.28591 0.202967 
vt 1.2815 0.186517 
vt 1.29795 0.21501 
vt 1.34289 0.202967 
vt 1.3473 0.186517 
vt 1.33448 0.174925 
vt 1.34289 0.170067 
vt 1.33085 0.158024 
vt 1.3144 0.356449 
vt 1.29196 0.386364 
vt 1.30144 0.386364 
vt 1.3144 0.386364 
vt 1.32736 0.386364 
vt 1.28979 -0.01333 
vt 1.28246 0.00600648 
vt 1.27903 0.0354865 
vt 1.3144 0.0354865 
vt 1.3144 0.00600648 
vt 1.3144 -0.01333 
vt 1.33901 -0.01333 
vt 1.34634 0.00600648 
vt 1.34977 0.0354865 
vt 1.3144 0.0648493 
vt 1.35703 -0.01333 
vt 1.37567 0.0354865 
vt 1.34977 0.0648493 
vt 1.3144 0.19329 
vt 1.37567 0.0648493 
vt 1.37567 0.19329 
vt 1.34977 0.19329 
vt 1.3144 0.222653 
vt 1.34977 0.222653 
vt 1.37567 0.222653 
vt 1.34208 0.261208 
vt 1.27903 0.19329 
vt 1.27903 0.222653 
vt 1.25313 0.222653 
vt 1.26646 0.261208 
vt 1.28672 0.261208 
vt 1.29795 0.286121 
vt 1.27903 0.0648493 
vt 1.3144 0.261208 
vt 1.3473 0.286121 
vt 1.33085 0.286121 
vt 1.34116 0.349589 
vt 1.32599 0.317855 
vt 1.32778 0.349589 
vt 1.3144 0.349589 
vt 1.3144 0.317855 
vt 1.3144 0.286121 
vt 1.30281 0.317855 
vt 1.30102 0.349589 
vt 1.28764 0.349589 
vt 1.2815 0.286121 
vt 1.30102 0.349589 
vt 1.33107 0.351382 
vt 1.33107 0.38457 
vt 1.3144 0.351382 
vt 1.3144 0.38457 
vt 1.29773 0.351382 
vt 1.29773 0.38457 
vt 1.3144 0.356449 
vt 1.34032 0.386364 
vt 1.32736 0.386364 
vt 1.3144 0.386364 
vt 1.28848 0.386364 
vt 1.30144 0.386364 
vt 1.25313 0.222653 
vt 1.27903 0.19329 
vt 1.27903 0.222653 
vt 1.25313 0.19329 
vt 1.3144 0.222653 
vt 1.28672 0.261208 
vt 1.27903 0.0648493 
vt 1.27903 0.0354865 
vt 1.3144 0.0354865 
vt 1.25313 0.0648493 
vt 1.26646 0.261208 
vt 1.25313 0.0354865 
vt 1.28246 0.00600648 
vt 1.25908 0.00600648 
vt 1.28979 -0.01333 
vt 1.3144 0.00600648 
vt 1.3144 -0.01333 
vt 1.27178 -0.01333 
vt 1.33901 -0.01333 
vt 1.34634 0.00600648 
vt 1.35703 -0.01333 
vt 1.36972 0.00600648 
vt 1.37567 0.0354865 
vt 1.37828 0.00600648 
vt 1.38515 0.222653 
vt 1.37567 0.19329 
vt 1.37567 0.222653 
vt 1.34977 0.222653 
vt 1.34208 0.261208 
vt 1.36235 0.261208 
vt 1.34977 0.19329 
vt 1.34289 0.286121 
vt 1.37567 0.0648493 
vt 1.34977 0.0648493 
vt 1.3144 0.19329 
vt 1.3144 0.0648493 
vt 1.34977 0.0354865 
vt 1.29122 0.317855 
vt 1.33759 0.317855 
vt 1.33448 0.317855 
vt 1.33758 0.349589 
vt 1.32778 0.349589 
vt 1.32599 0.317855 
vt 1.3144 0.349589 
vt 1.33085 0.286121 
vt 1.3144 0.317855 
vt 1.3144 0.261208 
vt 1.3144 0.286121 
vt 1.30281 0.317855 
vt 1.30102 0.349589 
vt 1.29795 0.286121 
vt 1.28591 0.286121 
vt 1.29432 0.317855 
vt 1.29123 0.349589 
vt 1.34774 0.38457 
vt 1.34327 0.351382 
vt 1.34327 0.38457 
vt 1.33107 0.351382 
vt 1.33107 0.38457 
vt 1.3144 0.351382 
vt 1.3144 0.38457 
vt 1.29773 0.351382 
vt 1.29773 0.38457 
vt 1.28107 0.38457 
vt 1.28553 0.351382 
vt 1.28553 0.38457 
vt 1.3144 0.235734 
vt 1.36362 0.186517 
vt 1.35703 0.211126 
vt 1.33901 0.22914 
vt 1.3144 0.1373 
vt 1.35703 0.161909 
vt 1.33901 0.143894 
vt 1.26518 0.186517 
vt 1.28979 0.143894 
vt 1.27178 0.161909 
vt 1.27178 0.211126 
vt 1.28979 0.22914 
vt 1.25908 0.15458 
vt 1.28246 0.1312 
vt 1.27178 0.161909 
vt 1.26518 0.186517 
vt 1.28979 0.143894 
vt 1.27178 0.211126 
vt 1.25908 0.218454 
vt 1.28979 0.22914 
vt 1.3144 0.122643 
vt 1.33901 0.143894 
vt 1.28246 0.241834 
vt 1.3144 0.250391 
vt 1.33901 0.22914 
vt 1.34634 0.241834 
vt 1.35703 0.211126 
vt 1.36972 0.218454 
vt 1.37828 0.186517 
vt 1.35703 0.161909 
vt 1.36972 0.15458 
vt 1.34634 0.1312 
vt 1.3144 0.219853 
vt 1.34774 0.186517 
vt 1.28553 0.203185 
vt 1.33758 0.173138 
vt 1.34774 0.186517 
vt 1.34116 0.186517 
vt 1.33758 0.199896 
vt 1.34327 0.169849 
vt 1.34327 0.203185 
vt 1.33107 0.157648 
vt 1.32778 0.209691 
vt 1.32778 0.163343 
vt 1.33107 0.215387 
vt 1.3144 0.153181 
vt 1.3144 0.219853 
vt 1.3144 0.159758 
vt 1.3144 0.213276 
vt 1.30102 0.163343 
vt 1.30102 0.209691 
vt 1.29773 0.157648 
vt 1.29773 0.215387 
vt 1.28553 0.169849 
vt 1.29123 0.199896 
vt 1.29123 0.173138 
vt 1.28553 0.203185 
vt 1.28107 0.186517 
vt 1.28764 0.186517 
vt 1.32736 0.386364 
vt 1.3144 0.356449 
vt 1.3144 0.386364 
vt 1.30144 0.386364 
vt 1.34977 0.222653 
vt 1.37567 0.19329 
vt 1.34977 0.19329 
vt 1.37567 0.0648493 
vt 1.34977 0.0648493 
vt 1.3144 0.222653 
vt 1.3144 0.19329 
vt 1.34208 0.261208 
vt 1.34977 0.0354865 
vt 1.3144 0.0648493 
vt 1.3144 0.0354865 
vt 1.27903 0.0648493 
vt 1.34634 0.00600648 
vt 1.33901 -0.01333 
vt 1.3144 0.00600648 
vt 1.3144 -0.01333 
vt 1.28979 -0.01333 
vt 1.27178 -0.01333 
vt 1.28246 0.00600648 
vt 1.27903 0.0354865 
vt 1.25313 0.0648493 
vt 1.25313 0.19329 
vt 1.27903 0.19329 
vt 1.26646 0.261208 
vt 1.27903 0.222653 
vt 1.28672 0.261208 
vt 1.3144 0.261208 
vt 1.29795 0.286121 
vt 1.28764 0.349589 
vt 1.30281 0.317855 
vt 1.30102 0.349589 
vt 1.3144 0.349589 
vt 1.3144 0.317855 
vt 1.3473 0.286121 
vt 1.33085 0.286121 
vt 1.32599 0.317855 
vt 1.32778 0.349589 
vt 1.3144 0.286121 
vt 1.28553 0.38457 
vt 1.28553 0.351382 
vt 1.29773 0.38457 
vt 1.34327 0.351382 
vt 1.29773 0.351382 
vt 1.34327 0.38457 
vt 1.3144 0.38457 
vt 1.33107 0.351382 
vt 1.3144 0.351382 
vt 1.33107 0.38457 

usemtl Meshpart1Mtl

f 4/4/4 1/1/1 2/2/2 
f 5/5/5 4/4/4 2/2/2 
f 14/14/14 13/13/13 11/11/11 
f 15/15/15 14/14/14 12/12/12 
f 16/16/16 15/15/15 12/12/12 
f 17/17/17 15/15/15 16/16/16 
f 15/15/15 17/17/17 18/18/18 
f 15/15/15 19/19/19 14/14/14 
f 18/18/18 19/19/19 15/15/15 
f 13/13/13 14/14/14 20/20/20 
f 19/19/19 20/20/20 14/14/14 
f 13/13/13 20/20/20 21/21/21 
f 23/23/23 18/18/18 22/22/22 
f 24/24/24 23/23/23 7/7/7 
f 25/25/25 18/18/18 23/23/23 
f 23/23/23 24/24/24 25/25/25 
f 19/19/19 18/18/18 25/25/25 
f 26/26/26 25/25/25 24/24/24 
f 25/25/25 26/26/26 19/19/19 
f 24/24/24 27/27/27 26/26/26 
f 24/24/24 28/28/28 27/27/27 
f 29/29/29 19/19/19 26/26/26 
f 19/19/19 29/29/29 20/20/20 
f 20/20/20 29/29/29 21/21/21 
f 26/26/26 30/30/30 29/29/29 
f 26/26/26 27/27/27 30/30/30 
f 31/31/31 21/21/21 29/29/29 
f 29/29/29 30/30/30 31/31/31 
f 31/31/31 30/30/30 33/33/33 
f 27/27/27 34/34/34 30/30/30 
f 30/30/30 34/34/34 33/33/33 
f 35/35/35 34/34/34 27/27/27 
f 28/28/28 35/35/35 27/27/27 
f 34/34/34 36/36/36 33/33/33 
f 35/35/35 36/36/36 34/34/34 
f 33/33/33 36/36/36 37/37/37 
f 38/38/38 35/35/35 28/28/28 
f 39/39/39 38/38/38 28/28/28 
f 40/40/40 35/35/35 38/38/38 
f 38/38/38 39/39/39 41/41/41 
f 41/41/41 40/40/40 38/38/38 
f 40/40/40 41/41/41 42/42/42 
f 35/35/35 40/40/40 44/44/44 
f 36/36/36 35/35/35 44/44/44 
f 45/45/45 44/44/44 40/40/40 
f 44/44/44 46/46/46 36/36/36 
f 44/44/44 45/45/45 47/47/47 
f 46/46/46 44/44/44 47/47/47 
f 43/43/43 48/48/48 45/45/45 
f 48/48/48 47/47/47 45/45/45 
f 47/47/47 50/50/50 46/46/46 
f 46/46/46 50/50/50 49/49/49 
f 47/47/47 48/48/48 51/51/51 
f 50/50/50 47/47/47 51/51/51 
f 48/48/48 52/52/52 51/51/51 
f 52/52/52 50/50/50 51/51/51 
f 52/52/52 48/48/48 53/53/53 
f 50/50/50 52/52/52 54/54/54 
f 55/55/55 53/53/53 48/48/48 
f 48/48/48 43/43/43 55/55/55 
f 53/53/53 55/55/55 56/56/56 
f 54/54/54 57/57/57 50/50/50 
f 49/49/49 50/50/50 57/57/57 
f 57/57/57 54/54/54 58/58/58 
f 60/60/60 62/62/62 61/61/61 
f 62/62/62 60/60/60 63/63/63 
f 63/63/63 64/64/64 62/62/62 
f 64/64/64 63/63/63 65/65/65 
f 65/65/65 66/66/66 64/64/64 
f 66/66/66 65/65/65 67/67/67 
f 67/67/67 68/68/68 66/66/66 
f 68/68/68 67/67/67 69/69/69 
f 70/70/70 71/71/71 72/72/72 
f 71/71/71 70/70/70 73/73/73 
f 74/74/74 72/72/72 71/71/71 
f 70/70/70 75/75/75 73/73/73 
f 72/72/72 74/74/74 76/76/76 
f 75/75/75 70/70/70 77/77/77 
f 74/74/74 78/78/78 76/76/76 
f 79/79/79 75/75/75 77/77/77 
f 74/74/74 80/80/80 78/78/78 
f 75/75/75 79/79/79 81/81/81 
f 82/82/82 78/78/78 80/80/80 
f 83/83/83 81/81/81 79/79/79 
f 78/78/78 82/82/82 84/84/84 
f 81/81/81 83/83/83 85/85/85 
f 86/86/86 84/84/84 82/82/82 
f 83/83/83 87/87/87 85/85/85 
f 84/84/84 86/86/86 88/88/88 
f 87/87/87 83/83/83 89/89/89 
f 90/90/90 88/88/88 86/86/86 
f 91/91/91 87/87/87 89/89/89 
f 86/86/86 92/92/92 90/90/90 
f 87/87/87 91/91/91 93/93/93 
f 93/93/93 90/90/90 92/92/92 
f 90/90/90 93/93/93 91/91/91 
f 94/94/94 95/95/95 96/96/96 
f 97/97/97 99/99/99 96/96/96 
f 100/100/100 98/98/98 96/96/96 
f 101/101/101 102/102/102 96/96/96 
f 111/111/111 109/109/109 110/110/110 
f 112/112/112 113/113/113 115/115/115 
f 115/115/115 116/116/116 112/112/112 
f 107/107/107 117/117/117 108/108/108 
f 108/108/108 117/117/117 119/119/119 
f 109/109/109 111/111/111 120/120/120 
f 123/123/123 104/104/104 103/103/103 
f 104/104/104 123/123/123 124/124/124 
f 128/128/128 127/127/127 125/125/125 
f 129/129/129 128/128/128 125/125/125 
f 131/131/131 133/133/133 132/132/132 
f 134/134/134 131/131/131 130/130/130 
f 131/131/131 134/134/134 133/133/133 
f 130/130/130 135/135/135 134/134/134 
f 136/136/136 134/134/134 135/135/135 
f 134/134/134 136/136/136 137/137/137 
f 137/137/137 133/133/133 134/134/134 
f 133/133/133 137/137/137 138/138/138 
f 133/133/133 138/138/138 139/139/139 
f 138/138/138 142/142/142 139/139/139 
f 143/143/143 139/139/139 142/142/142 
f 142/142/142 146/146/146 143/143/143 
f 143/143/143 146/146/146 147/147/147 
f 146/146/146 148/148/148 147/147/147 
f 148/148/148 150/150/150 147/147/147 
f 151/151/151 143/143/143 152/152/152 
f 143/143/143 147/147/147 152/152/152 
f 139/139/139 143/143/143 151/151/151 
f 147/147/147 155/155/155 152/152/152 
f 151/151/151 157/157/157 139/139/139 
f 133/133/133 139/139/139 157/157/157 
f 132/132/132 133/133/133 157/157/157 
f 147/147/147 150/150/150 158/158/158 
f 155/155/155 147/147/147 158/158/158 
f 158/158/158 156/156/156 155/155/155 
f 150/150/150 160/160/160 158/158/158 
f 164/164/164 162/162/162 163/163/163 
f 162/162/162 164/164/164 165/165/165 
f 160/160/160 162/162/162 166/166/166 
f 166/166/166 162/162/162 165/165/165 
f 158/158/158 160/160/160 166/166/166 
f 165/165/165 164/164/164 167/167/167 
f 167/167/167 166/166/166 165/165/165 
f 156/156/156 158/158/158 166/166/166 
f 166/166/166 167/167/167 156/156/156 
f 167/167/167 164/164/164 168/168/168 
f 172/172/172 173/173/173 174/174/174 
f 174/174/174 173/173/173 175/175/175 
f 175/175/175 176/176/176 174/174/174 
f 176/176/176 175/175/175 177/177/177 
f 180/180/180 181/181/181 178/178/178 
f 181/181/181 183/183/183 178/178/178 
f 184/184/184 185/185/185 186/186/186 
f 185/185/185 184/184/184 187/187/187 
f 188/188/188 189/189/189 186/186/186 
f 184/184/184 186/186/186 189/189/189 
f 190/190/190 191/191/191 192/192/192 
f 193/193/193 191/191/191 190/190/190 
f 194/194/194 184/184/184 189/189/189 
f 191/191/191 193/193/193 195/195/195 
f 195/195/195 196/196/196 191/191/191 
f 196/196/196 192/192/192 191/191/191 
f 196/196/196 195/195/195 197/197/197 
f 192/192/192 196/196/196 199/199/199 
f 198/198/198 199/199/199 196/196/196 
f 199/199/199 198/198/198 200/200/200 
f 202/202/202 199/199/199 200/200/200 
f 203/203/203 192/192/192 199/199/199 
f 199/199/199 202/202/202 203/203/203 
f 203/203/203 205/205/205 206/206/206 
f 209/209/209 210/210/210 211/211/211 
f 210/210/210 212/212/212 211/211/211 
f 212/212/212 210/210/210 213/213/213 
f 214/214/214 209/209/209 211/211/211 
f 188/188/188 211/211/211 212/212/212 
f 188/188/188 214/214/214 211/211/211 
f 216/216/216 209/209/209 214/214/214 
f 214/214/214 217/217/217 216/216/216 
f 188/188/188 218/218/218 214/214/214 
f 218/218/218 217/217/217 214/214/214 
f 206/206/206 216/216/216 217/217/217 
f 218/218/218 219/219/219 217/217/217 
f 220/220/220 206/206/206 217/217/217 
f 219/219/219 220/220/220 217/217/217 
f 206/206/206 220/220/220 203/203/203 
f 219/219/219 192/192/192 220/220/220 
f 192/192/192 203/203/203 220/220/220 
f 185/185/185 219/219/219 218/218/218 
f 185/185/185 190/190/190 219/219/219 
f 190/190/190 192/192/192 219/219/219 
f 186/186/186 185/185/185 218/218/218 
f 186/186/186 218/218/218 188/188/188 
f 225/225/225 223/223/223 224/224/224 
f 223/223/223 225/225/225 226/226/226 
f 226/226/226 215/215/215 223/223/223 
f 227/227/227 226/226/226 225/225/225 
f 215/215/215 226/226/226 228/228/228 
f 226/226/226 227/227/227 229/229/229 
f 212/212/212 228/228/228 230/230/230 
f 230/230/230 188/188/188 212/212/212 
f 189/189/189 188/188/188 230/230/230 
f 228/228/228 226/226/226 231/231/231 
f 229/229/229 231/231/231 226/226/226 
f 231/231/231 230/230/230 228/228/228 
f 229/229/229 227/227/227 232/232/232 
f 232/232/232 231/231/231 229/229/229 
f 233/233/233 232/232/232 227/227/227 
f 234/234/234 230/230/230 231/231/231 
f 230/230/230 234/234/234 189/189/189 
f 231/231/231 232/232/232 234/234/234 
f 235/235/235 234/234/234 232/232/232 
f 232/232/232 233/233/233 236/236/236 
f 236/236/236 235/235/235 232/232/232 
f 237/237/237 236/236/236 233/233/233 
f 239/239/239 240/240/240 241/241/241 
f 242/242/242 241/241/241 240/240/240 
f 241/241/241 242/242/242 243/243/243 
f 244/244/244 243/243/243 242/242/242 
f 243/243/243 244/244/244 245/245/245 
f 246/246/246 245/245/245 244/244/244 
f 245/245/245 246/246/246 248/248/248 
f 249/249/249 248/248/248 246/246/246 
f 250/250/250 251/251/251 252/252/252 
f 250/250/250 252/252/252 253/253/253 
f 251/251/251 250/250/250 254/254/254 
f 251/251/251 254/254/254 255/255/255 
f 255/255/255 254/254/254 256/256/256 
f 257/257/257 254/254/254 250/250/250 
f 254/254/254 257/257/257 258/258/258 
f 258/258/258 257/257/257 259/259/259 
f 257/257/257 250/250/250 260/260/260 
f 260/260/260 250/250/250 261/261/261 
f 263/263/263 264/264/264 262/262/262 
f 264/264/264 263/263/263 266/266/266 
f 269/269/269 268/268/268 267/267/267 
f 268/268/268 269/269/269 272/272/272 
f 276/276/276 275/275/275 274/274/274 
f 275/275/275 276/276/276 277/277/277 
f 271/271/271 280/280/280 279/279/279 
f 280/280/280 271/271/271 281/281/281 
f 285/285/285 286/286/286 287/287/287 
f 286/286/286 288/288/288 287/287/287 
f 286/286/286 285/285/285 289/289/289 
f 286/286/286 290/290/290 288/288/288 
f 285/285/285 291/291/291 289/289/289 
f 290/290/290 292/292/292 288/288/288 
f 285/285/285 293/293/293 291/291/291 
f 290/290/290 294/294/294 292/292/292 
f 295/295/295 291/291/291 293/293/293 
f 296/296/296 292/292/292 294/294/294 
f 295/295/295 293/293/293 297/297/297 
f 292/292/292 296/296/296 298/298/298 
f 299/299/299 295/295/295 297/297/297 
f 296/296/296 300/300/300 298/298/298 
f 295/295/295 299/299/299 301/301/301 
f 300/300/300 296/296/296 302/302/302 
f 299/299/299 303/303/303 301/301/301 
f 302/302/302 304/304/304 300/300/300 
f 303/303/303 299/299/299 305/305/305 
f 302/302/302 306/306/306 304/304/304 
f 305/305/305 307/307/307 303/303/303 
f 307/307/307 304/304/304 306/306/306 
f 305/305/305 308/308/308 307/307/307 
f 304/304/304 307/307/307 308/308/308 
f 309/309/309 311/311/311 310/310/310 
f 311/311/311 312/312/312 310/310/310 
f 318/318/318 315/315/315 313/313/313 
f 315/315/315 318/318/318 319/319/319 
f 318/318/318 313/313/313 320/320/320 
f 322/322/322 321/321/321 317/317/317 
f 321/321/321 322/322/322 323/323/323 
f 324/324/324 323/323/323 322/322/322 
f 323/323/323 325/325/325 321/321/321 
f 327/327/327 326/326/326 325/325/325 
f 325/325/325 323/323/323 327/327/327 
f 326/326/326 327/327/327 328/328/328 
f 327/327/327 329/329/329 328/328/328 
f 331/331/331 329/329/329 327/327/327 
f 323/323/323 331/331/331 327/327/327 
f 332/332/332 331/331/331 323/323/323 
f 323/323/323 324/324/324 332/332/332 
f 319/319/319 337/337/337 335/335/335 
f 337/337/337 319/319/319 318/318/318 
f 318/318/318 338/338/338 337/337/337 
f 338/338/338 318/318/318 339/339/339 
f 320/320/320 339/339/339 318/318/318 
f 339/339/339 340/340/340 338/338/338 
f 343/343/343 342/342/342 344/344/344 
f 344/344/344 342/342/342 345/345/345 
f 339/339/339 320/320/320 347/347/347 
f 344/344/344 348/348/348 349/349/349 
f 348/348/348 344/344/344 345/345/345 
f 350/350/350 347/347/347 348/348/348 
f 347/347/347 350/350/350 339/339/339 
f 345/345/345 350/350/350 348/348/348 
f 340/340/340 339/339/339 350/350/350 
f 342/342/342 350/350/350 345/345/345 
f 350/350/350 342/342/342 340/340/340 
f 353/353/353 355/355/355 357/357/357 
f 357/357/357 355/355/355 359/359/359 
f 357/357/357 359/359/359 360/360/360 
f 360/360/360 359/359/359 358/358/358 

g Meshpart2

v -329.803 5.72983 0.044297 
v -329.596 4.7023 0.251459 
v -329.596 5.72983 0.251459 
v -329.803 4.7023 0.044297 
v -329.03 4.7023 0.251459 
v -329.03 5.72983 0.251459 
v -328.823 4.7023 0.044297 
v -328.823 5.72983 0.044297 
v -329.596 4.7023 0.251459 
v -329.596 5.72983 0.251459 
v -329.313 4.7023 0.327285 
v -329.313 5.72983 0.327285 
v -329.03 4.7023 0.251459 
v -329.03 5.72983 0.251459 

vn -0.708661 0 0.708661 
vn -0.496063 0 0.866142 
vn -0.496063 0 0.866142 
vn -0.708661 0 0.708661 
vn 0.496063 0 0.866142 
vn 0.496063 0 0.866142 
vn 0.708661 0 0.708661 
vn 0.708661 0 0.708661 
vn -0.496063 0 0.866142 
vn -0.496063 0 0.866142 
vn 0 0 1 
vn 0 0 1 
vn 0.496063 0 0.866142 
vn 0.496063 0 0.866142 

vt 5.98231 -12.9358 
vt 6.00821 -13.0642 
vt 6.00821 -12.9358 
vt 5.98231 -13.0642 
vt 5.99179 -13.0642 
vt 5.99179 -12.9358 
vt 6.01769 -13.0642 
vt 6.01769 -12.9358 
vt 5.96463 -13.0642 
vt 5.96463 -12.9358 
vt 6 -13.0642 
vt 6 -12.9358 
vt 6.03537 -13.0642 
vt 6.03537 -12.9358 

usemtl Meshpart2Mtl

f 361/361/361 362/362/362 363/363/363 
f 362/362/362 361/361/361 364/364/364 
f 367/367/367 366/366/366 365/365/365 
f 366/366/366 367/367/367 368/368/368 
f 371/371/371 370/370/370 369/369/369 
f 370/370/370 371/371/371 372/372/372 
f 373/373/373 372/372/372 371/371/371 
f 372/372/372 373/373/373 374/374/374 

g Meshpart3

v -330 6.30999 0.58076 
v -330.164 6.28768 0.264593 
v -329.879 6.16311 0.327603 
v -329.652 6.25158 0.529205 
v -330 6.30999 0.58076 
v -329.879 6.16311 0.327603 
v -330.164 6.28768 0.264593 
v -329.917 6.21548 0.0176357 
v -329.879 6.16311 0.327603 
v -329.6 6.19317 0.181175 
v -329.652 6.25158 0.529205 
v -329.879 6.16311 0.327603 
v -329.917 6.21548 0.0176357 
v -329.6 6.19317 0.181175 
v -329.879 6.16311 0.327603 
v -329.399 7.62546 -0.0760768 
v -329.4 7.43031 -0.352703 
v -329.545 7.56237 -0.208115 
v -329.228 7.47416 -0.246564 
v -329.751 7.51919 -0.00151764 
v -329.399 7.62546 -0.0760768 
v -329.545 7.56237 -0.208115 
v -329.631 7.57742 0.155947 
v -329.4 7.43031 -0.352703 
v -329.138 7.21748 -0.328067 
v -329.343 7.21748 -0.432611 
v -329.228 7.47416 -0.246564 
v -329.138 7.21748 -0.328067 
v -329.343 6.94931 -0.432611 
v -329.343 7.21748 -0.432611 
v -329.138 6.94931 -0.328067 
v -329.331 7.46028 0.0278945 
v -329.228 7.47416 -0.246564 
v -329.399 7.62546 -0.0760768 
v -329.228 7.35935 -0.0747918 
v -329.138 7.21748 -0.328067 
v -329.228 7.47416 -0.246564 
v -329.174 7.21748 -0.100641 
v -329.228 7.35935 -0.0747918 
v -329.399 7.62546 -0.0760768 
v -329.631 7.57742 0.155947 
v -329.331 7.46028 0.0278945 
v -329.497 7.42498 0.193348 
v -329.174 6.94931 -0.100641 
v -329.138 6.94931 -0.328067 
v -329.174 7.21748 -0.100641 
v -329.138 7.21748 -0.328067 
v -329.904 6.89736 0.151193 
v -330 6.30999 0.58076 
v -329.808 6.91809 0.332901 
v -330.164 6.28768 0.264593 
v -329.808 6.91809 0.332901 
v -329.751 7.51919 -0.00151764 
v -329.631 7.57742 0.155947 
v -329.631 7.57742 0.155947 
v -329.808 6.91809 0.332901 
v -329.497 7.42498 0.193348 
v -329.61 6.86507 0.306839 
v -329.808 6.91809 0.332901 
v -329.652 6.25158 0.529205 
v -329.61 6.86507 0.306839 
v -330 6.30999 0.58076 
v -329.343 7.21748 -0.432611 
v -329.506 6.94931 -0.269799 
v -329.506 7.21748 -0.269799 
v -329.343 6.94931 -0.432611 
v -329.343 7.21748 -0.432611 
v -329.506 7.28839 -0.246531 
v -329.4 7.43031 -0.352703 
v -329.506 7.21748 -0.269799 
v -329.567 7.35819 -0.185746 
v -329.4 7.43031 -0.352703 
v -329.506 7.28839 -0.246531 
v -329.545 7.56237 -0.208115 
v -329.751 7.51919 -0.00151764 
v -329.691 7.33076 -0.0614355 
v -329.904 6.89736 0.151193 
v -329.766 6.83105 0.0128304 
v -329.917 6.21548 0.0176357 
v -330.164 6.28768 0.264593 
v -329.497 7.42498 0.193348 
v -329.61 6.86507 0.306839 
v -329.534 7.27253 0.0589979 
v -329.584 6.81075 0.109025 
v -329.652 6.25158 0.529205 
v -329.6 6.19317 0.181175 
v -329.402 6.94931 -0.0646289 
v -329.174 6.94931 -0.100641 
v -329.402 7.21748 -0.0646289 
v -329.174 7.21748 -0.100641 
v -329.174 7.21748 -0.100641 
v -329.4 7.24453 -0.074773 
v -329.402 7.21748 -0.0646289 
v -329.228 7.35935 -0.0747918 
v -329.435 7.2951 -0.0398843 
v -329.331 7.46028 0.0278945 
v -329.497 7.42498 0.193348 
v -329.534 7.27253 0.0589979 
v -329.534 7.27253 0.0589979 
v -329.766 6.83105 0.0128304 
v -329.691 7.33076 -0.0614355 
v -329.584 6.81075 0.109025 
v -329.917 6.21548 0.0176357 
v -329.6 6.19317 0.181175 
v -329.435 7.2951 -0.0398843 
v -329.228 7.35935 -0.0747918 
v -329.331 7.46028 0.0278945 
v -329.4 7.24453 -0.074773 
v -329.506 7.21748 -0.269799 
v -329.506 6.94931 -0.269799 
v -329.402 6.94931 -0.0646289 
v -329.402 7.21748 -0.0646289 
v -329.506 7.21748 -0.269799 
v -329.4 7.24453 -0.074773 
v -329.506 7.28839 -0.246531 
v -329.691 7.33076 -0.0614355 
v -329.567 7.35819 -0.185746 
v -329.534 7.27253 0.0589979 
v -329.435 7.2951 -0.0398843 
v -329.567 7.35819 -0.185746 
v -329.4 7.24453 -0.074773 
v -329.435 7.2951 -0.0398843 
v -329.506 7.28839 -0.246531 

vn -0.259843 -0.88189 0.385827 
vn -0.417323 -0.905512 0.0944882 
vn -0.141732 -0.976378 0.141732 
vn 0.0629921 -0.937008 0.338583 
vn -0.259843 -0.88189 0.385827 
vn -0.141732 -0.976378 0.141732 
vn -0.417323 -0.905512 0.0944882 
vn -0.181102 -0.976378 -0.141732 
vn -0.141732 -0.976378 0.141732 
vn 0.110236 -0.992126 0.00787402 
vn 0.0629921 -0.937008 0.338583 
vn -0.141732 -0.976378 0.141732 
vn -0.181102 -0.976378 -0.141732 
vn 0.110236 -0.992126 0.00787402 
vn -0.141732 -0.976378 0.141732 
vn -0.0866142 0.929134 -0.362205 
vn 0.299213 0.622047 -0.724409 
vn -0.0787402 0.929134 -0.362205 
vn 0.291339 0.629921 -0.716535 
vn -0.661417 0.716535 0.212598 
vn -0.0866142 0.929134 -0.362205 
vn -0.0787402 0.929134 -0.362205 
vn -0.637795 0.748031 0.181102 
vn 0.299213 0.622047 -0.724409 
vn 0.440945 0.19685 -0.874016 
vn 0.440945 0.212598 -0.874016 
vn 0.291339 0.629921 -0.716535 
vn 0.440945 0.19685 -0.874016 
vn 0.456693 0 -0.889764 
vn 0.440945 0.212598 -0.874016 
vn 0.456693 0 -0.889764 
vn 0.669291 0.566929 0.480315 
vn 0.874016 0.409449 0.251969 
vn 0.661417 0.566929 0.488189 
vn 0.88189 0.401575 0.244094 
vn 0.976378 0.133858 0.165354 
vn 0.874016 0.409449 0.251969 
vn 0.976378 0.15748 0.165354 
vn 0.88189 0.401575 0.244094 
vn 0.661417 0.566929 0.488189 
vn 0.354331 0.464567 0.811024 
vn 0.669291 0.566929 0.480315 
vn 0.291339 0.401575 0.866142 
vn 0.984252 0 0.15748 
vn 0.984252 0 0.15748 
vn 0.976378 0.15748 0.165354 
vn 0.976378 0.133858 0.165354 
vn -0.826772 0.377953 0.425197 
vn -0.818898 0.417323 0.393701 
vn -0.826772 0.377953 0.425197 
vn -0.818898 0.417323 0.393701 
vn -0.826772 0.377953 0.425197 
vn -0.661417 0.716535 0.212598 
vn -0.637795 0.748031 0.181102 
vn 0.354331 0.464567 0.811024 
vn 0.149606 0.267717 0.952756 
vn 0.291339 0.401575 0.866142 
vn 0.149606 0.267717 0.952756 
vn 0.149606 0.267717 0.952756 
vn 0.19685 0.322835 0.929134 
vn 0.149606 0.267717 0.952756 
vn 0.19685 0.322835 0.929134 
vn -0.716535 0.0393701 -0.692913 
vn -0.708661 0 -0.708661 
vn -0.716535 0.0551181 -0.692913 
vn -0.708661 0 -0.708661 
vn -0.716535 0.0393701 -0.692913 
vn -0.716535 0.0551181 -0.692913 
vn -0.716535 0.0472441 -0.692913 
vn -0.716535 0.0551181 -0.692913 
vn -0.708661 0 -0.708661 
vn -0.716535 0.0472441 -0.692913 
vn -0.716535 0.0551181 -0.692913 
vn -0.708661 0 -0.708661 
vn -0.708661 0 -0.708661 
vn -0.708661 0 -0.708661 
vn -0.692913 0.0787402 -0.716535 
vn -0.692913 0.0866142 -0.716535 
vn -0.669291 0.15748 -0.724409 
vn -0.669291 0.15748 -0.724409 
vn 0.826772 -0.448819 0.346457 
vn 0.992126 -0.0787402 0.102362 
vn 0.889764 -0.370079 0.267717 
vn 0.992126 -0.0708661 0.102362 
vn 0.992126 -0.015748 0.141732 
vn 0.992126 -0.015748 0.141732 
vn 0.15748 0 0.984252 
vn 0.15748 0 0.984252 
vn 0.133858 -0.0314961 0.992126 
vn 0.133858 -0.023622 0.992126 
vn 0.133858 -0.023622 0.992126 
vn 0.188976 -0.244094 0.952756 
vn 0.133858 -0.0314961 0.992126 
vn 0.204724 -0.283465 0.937008 
vn 0.464567 -0.551181 0.692913 
vn 0.480315 -0.559055 0.677165 
vn 0.826772 -0.448819 0.346457 
vn 0.889764 -0.370079 0.267717 
vn 0.259843 -0.645669 -0.716535 
vn 0.472441 -0.141732 -0.866142 
vn 0.212598 -0.700787 -0.677165 
vn 0.472441 -0.141732 -0.866142 
vn 0.448819 -0.11811 -0.88189 
vn 0.448819 -0.11811 -0.88189 
vn 0.464567 -0.551181 0.692913 
vn 0.204724 -0.283465 0.937008 
vn 0.480315 -0.559055 0.677165 
vn 0.188976 -0.244094 0.952756 
vn -0.88189 -0.023622 0.464567 
vn -0.889764 0 0.456693 
vn -0.889764 0 0.456693 
vn -0.88189 -0.023622 0.464567 
vn -0.88189 -0.023622 0.464567 
vn -0.834646 -0.370079 0.409449 
vn -0.826772 -0.401575 0.393701 
vn 0.212598 -0.700787 -0.677165 
vn -0.409449 -0.913386 -0.0472441 
vn 0.259843 -0.645669 -0.716535 
vn -0.425197 -0.905512 -0.0314961 
vn -0.409449 -0.913386 -0.0472441 
vn -0.834646 -0.370079 0.409449 
vn -0.425197 -0.905512 -0.0314961 
vn -0.826772 -0.401575 0.393701 

vt 0.342967 0.952478 
vt 0.383732 0.951571 
vt 0.450433 0.983517 
vt 0.44969 0.950103 
vt 0.342967 0.952478 
vt 0.450433 0.983517 
vt 0.383732 0.951571 
vt 0.515648 0.948635 
vt 0.450433 0.983517 
vt 0.556412 0.947729 
vt 0.44969 0.950103 
vt 0.450433 0.983517 
vt 0.515648 0.948635 
vt 0.556412 0.947729 
vt 0.450433 0.983517 
vt 0.554585 0.404408 
vt 0.640974 0.458623 
vt 0.556293 0.427967 
vt 0.654067 0.438963 
vt 0.454525 0.467766 
vt 0.554585 0.404408 
vt 0.556293 0.427967 
vt 0.440255 0.448943 
vt 0.640974 0.458623 
vt 0.719157 0.521434 
vt 0.693501 0.527335 
vt 0.654067 0.438963 
vt 0.719157 0.521434 
vt 0.715742 0.624026 
vt 0.693501 0.527335 
vt 0.741397 0.618124 
vt 0.559056 0.466087 
vt 0.654067 0.438963 
vt 0.554585 0.404408 
vt 0.619789 0.490434 
vt 0.719157 0.521434 
vt 0.654067 0.438963 
vt 0.65199 0.536883 
vt 0.619789 0.490434 
vt 0.554585 0.404408 
vt 0.440255 0.448943 
vt 0.559056 0.466087 
vt 0.477616 0.498222 
vt 0.674231 0.633574 
vt 0.741397 0.618124 
vt 0.65199 0.536883 
vt 0.719157 0.521434 
vt 0.428225 0.709883 
vt 0.342967 0.952478 
vt 0.404703 0.707425 
vt 0.383732 0.951571 
vt 0.404703 0.707425 
vt 0.454525 0.467766 
vt 0.440255 0.448943 
vt 0.440255 0.448943 
vt 0.404703 0.707425 
vt 0.477616 0.498222 
vt 0.46618 0.713412 
vt 0.404703 0.707425 
vt 0.44969 0.950103 
vt 0.46618 0.713412 
vt 0.342967 0.952478 
vt 0.693501 0.527335 
vt 0.63272 0.643122 
vt 0.61048 0.546431 
vt 0.715742 0.624026 
vt 0.693501 0.527335 
vt 0.598604 0.522246 
vt 0.640974 0.458623 
vt 0.61048 0.546431 
vt 0.56182 0.504207 
vt 0.640974 0.458623 
vt 0.598604 0.522246 
vt 0.556293 0.427967 
vt 0.454525 0.467766 
vt 0.500706 0.528678 
vt 0.428225 0.709883 
vt 0.504278 0.717561 
vt 0.515648 0.948635 
vt 0.383732 0.951571 
vt 0.477616 0.498222 
vt 0.46618 0.713412 
vt 0.514977 0.547501 
vt 0.527764 0.719868 
vt 0.44969 0.950103 
vt 0.556412 0.947729 
vt 0.607065 0.649023 
vt 0.674231 0.633574 
vt 0.584824 0.552333 
vt 0.65199 0.536883 
vt 0.65199 0.536883 
vt 0.585511 0.541906 
vt 0.584824 0.552333 
vt 0.619789 0.490434 
vt 0.563528 0.527766 
vt 0.559056 0.466087 
vt 0.477616 0.498222 
vt 0.514977 0.547501 
vt 0.514977 0.547501 
vt 0.504278 0.717561 
vt 0.500706 0.528678 
vt 0.527764 0.719868 
vt 0.515648 0.948635 
vt 0.556412 0.947729 
vt 0.563528 0.527766 
vt 0.619789 0.490434 
vt 0.559056 0.466087 
vt 0.585511 0.541906 
vt 0.61048 0.546431 
vt 0.63272 0.643122 
vt 0.607065 0.649023 
vt 0.584824 0.552333 
vt 0.61048 0.546431 
vt 0.585511 0.541906 
vt 0.598604 0.522246 
vt 0.500706 0.528678 
vt 0.56182 0.504207 
vt 0.514977 0.547501 
vt 0.563528 0.527766 
vt 0.56182 0.504207 
vt 0.585511 0.541906 
vt 0.563528 0.527766 
vt 0.598604 0.522246 

usemtl Meshpart3Mtl

f 375/375/375 376/376/376 377/377/377 
f 378/378/378 379/379/379 380/380/380 
f 381/381/381 382/382/382 383/383/383 
f 384/384/384 385/385/385 386/386/386 
f 387/387/387 388/388/388 389/389/389 
f 390/390/390 391/391/391 392/392/392 
f 391/391/391 390/390/390 393/393/393 
f 394/394/394 395/395/395 396/396/396 
f 395/395/395 394/394/394 397/397/397 
f 398/398/398 399/399/399 400/400/400 
f 399/399/399 398/398/398 401/401/401 
f 402/402/402 403/403/403 404/404/404 
f 403/403/403 402/402/402 405/405/405 
f 406/406/406 407/407/407 408/408/408 
f 407/407/407 406/406/406 409/409/409 
f 410/410/410 411/411/411 412/412/412 
f 412/412/412 411/411/411 413/413/413 
f 414/414/414 415/415/415 416/416/416 
f 416/416/416 415/415/415 417/417/417 
f 418/418/418 419/419/419 420/420/420 
f 419/419/419 421/421/421 420/420/420 
f 422/422/422 423/423/423 424/424/424 
f 423/423/423 422/422/422 425/425/425 
f 426/426/426 427/427/427 422/422/422 
f 427/427/427 426/426/426 428/428/428 
f 429/429/429 430/430/430 431/431/431 
f 431/431/431 430/430/430 432/432/432 
f 433/433/433 434/434/434 435/435/435 
f 434/434/434 433/433/433 436/436/436 
f 437/437/437 438/438/438 439/439/439 
f 438/438/438 437/437/437 440/440/440 
f 441/441/441 442/442/442 443/443/443 
f 442/442/442 441/441/441 444/444/444 
f 445/445/445 446/446/446 447/447/447 
f 446/446/446 445/445/445 448/448/448 
f 445/445/445 449/449/449 448/448/448 
f 449/449/449 445/445/445 450/450/450 
f 450/450/450 451/451/451 449/449/449 
f 451/451/451 450/450/450 452/452/452 
f 453/453/453 451/451/451 452/452/452 
f 451/451/451 453/453/453 454/454/454 
f 455/455/455 456/456/456 457/457/457 
f 457/457/457 456/456/456 458/458/458 
f 459/459/459 458/458/458 456/456/456 
f 458/458/458 459/459/459 460/460/460 
f 461/461/461 462/462/462 463/463/463 
f 462/462/462 464/464/464 463/463/463 
f 465/465/465 466/466/466 467/467/467 
f 466/466/466 465/465/465 468/468/468 
f 469/469/469 470/470/470 471/471/471 
f 469/469/469 471/471/471 472/472/472 
f 473/473/473 474/474/474 475/475/475 
f 474/474/474 473/473/473 476/476/476 
f 476/476/476 477/477/477 474/474/474 
f 477/477/477 476/476/476 478/478/478 
f 479/479/479 480/480/480 481/481/481 
f 480/480/480 479/479/479 482/482/482 
f 483/483/483 484/484/484 485/485/485 
f 483/483/483 485/485/485 486/486/486 
f 487/487/487 486/486/486 488/488/488 
f 488/488/488 489/489/489 487/487/487 
f 490/490/490 491/491/491 492/492/492 
f 491/491/491 493/493/493 492/492/492 
f 494/494/494 495/495/495 496/496/496 
f 495/495/495 494/494/494 497/497/497 

