# This file is brought to you by Roblox Corporation
# Generated by Roblox Studio

mtllib part4.mtl

g Meshpart41

v -50.0057 9.05353 -0.0551404 
v -50.0909 9.05235 -0.0267264 
v -50.0057 9.05353 0.0536736 
v -50.0909 9.05235 0.0252616 
v -50.1867 9.05158 -0.000732424 
v -49.6948 9.05353 -0.0552964 
v -49.6092 9.05225 0.0252856 
v -49.6092 9.05225 -0.0267504 
v -49.5133 9.05146 -0.000732424 
v -49.6948 9.05353 0.0538316 
v -49.85 8.40313 0.181898 
v -49.85 7.99073 0.0719436 
v -49.7321 7.99073 -0.000732424 
v -49.2884 8.33311 -0.000732424 
v -49.85 8.40313 0.181898 
v -49.968 7.99073 -0.000732424 
v -49.85 7.99073 0.0719436 
v -50.4117 8.33311 -0.000732424 
v -49.85 8.40313 0.181898 
v -49.5133 9.05146 -0.000732424 
v -49.6092 9.05225 0.0252856 
v -49.2884 8.33311 -0.000732424 
v -49.6948 9.05353 0.0538316 
v -49.85 10.1479 -0.000732424 
v -49.5331 9.17428 -0.000732424 
v -49.85 8.40313 0.181898 
v -50.1867 9.05158 -0.000732424 
v -50.4117 8.33311 -0.000732424 
v -50.0909 9.05235 0.0252616 
v -50.0057 9.05353 0.0536736 
v -49.85 10.1479 -0.000732424 
v -50.1671 9.1739 -0.000732424 
v -49.85 7.99073 0.0719436 
v -49.85 7.99073 -0.0734084 
v -49.7321 7.99073 -0.000732424 
v -49.968 7.99073 -0.000732424 
v -50.0057 9.05353 -0.0551404 
v -50.0057 9.05353 0.0536736 
v -50.1671 9.1739 -0.000732424 
v -49.5331 9.17428 -0.000732424 
v -49.6948 9.05353 0.0538316 
v -49.6948 9.05353 -0.0552964 
v -49.85 8.40313 -0.183362 
v -49.7321 7.99073 -0.000732424 
v -49.85 7.99073 -0.0734084 
v -49.2884 8.33311 -0.000732424 
v -50.4117 8.33311 -0.000732424 
v -49.85 8.40313 -0.183362 
v -49.968 7.99073 -0.000732424 
v -49.85 7.99073 -0.0734084 
v -49.85 8.40313 -0.183362 
v -49.5133 9.05146 -0.000732424 
v -49.2884 8.33311 -0.000732424 
v -49.6092 9.05225 -0.0267504 
v -49.6948 9.05353 -0.0552964 
v -49.85 10.1479 -0.000732424 
v -49.5331 9.17428 -0.000732424 
v -49.85 10.1479 -0.000732424 
v -49.85 8.40313 -0.183362 
v -50.0057 9.05353 -0.0551404 
v -50.1671 9.1739 -0.000732424 
v -50.0909 9.05235 -0.0267264 
v -50.1867 9.05158 -0.000732424 
v -50.4117 8.33311 -0.000732424 

vn -0.015748 1 0 
vn -0.015748 1 0 
vn -0.015748 1 0 
vn -0.015748 1 0 
vn -0.015748 1 0 
vn 0.015748 1 0 
vn 0.015748 1 0 
vn 0.015748 1 0 
vn 0.015748 1 0 
vn 0.015748 1 0 
vn 0.307087 -0.314961 0.897638 
vn 0.307087 -0.314961 0.897638 
vn 0.307087 -0.314961 0.897638 
vn 0.307087 -0.314961 0.897638 
vn -0.307087 -0.314961 0.897638 
vn -0.307087 -0.314961 0.897638 
vn -0.307087 -0.314961 0.897638 
vn -0.307087 -0.314961 0.897638 
vn 0.314961 0.102362 0.944882 
vn 0.314961 0.102362 0.944882 
vn 0.314961 0.102362 0.944882 
vn 0.314961 0.102362 0.944882 
vn 0.314961 0.102362 0.944882 
vn 0.314961 0.102362 0.944882 
vn 0.314961 0.102362 0.944882 
vn -0.314961 0.102362 0.944882 
vn -0.314961 0.102362 0.944882 
vn -0.314961 0.102362 0.944882 
vn -0.314961 0.102362 0.944882 
vn -0.314961 0.102362 0.944882 
vn -0.314961 0.102362 0.944882 
vn -0.314961 0.102362 0.944882 
vn 0 -1 0 
vn 0 -1 0 
vn 0 -1 0 
vn 0 -1 0 
vn -0.598425 -0.80315 0 
vn -0.598425 -0.80315 0 
vn -0.598425 -0.80315 0 
vn 0.598425 -0.80315 0 
vn 0.598425 -0.80315 0 
vn 0.598425 -0.80315 0 
vn 0.307087 -0.314961 -0.897638 
vn 0.307087 -0.314961 -0.897638 
vn 0.307087 -0.314961 -0.897638 
vn 0.307087 -0.314961 -0.897638 
vn -0.307087 -0.314961 -0.897638 
vn -0.307087 -0.314961 -0.897638 
vn -0.307087 -0.314961 -0.897638 
vn -0.307087 -0.314961 -0.897638 
vn 0.314961 0.102362 -0.944882 
vn 0.314961 0.102362 -0.944882 
vn 0.314961 0.102362 -0.944882 
vn 0.314961 0.102362 -0.944882 
vn 0.314961 0.102362 -0.944882 
vn 0.314961 0.102362 -0.944882 
vn 0.314961 0.102362 -0.944882 
vn -0.314961 0.102362 -0.944882 
vn -0.314961 0.102362 -0.944882 
vn -0.314961 0.102362 -0.944882 
vn -0.314961 0.102362 -0.944882 
vn -0.314961 0.102362 -0.944882 
vn -0.314961 0.102362 -0.944882 
vn -0.314961 0.102362 -0.944882 

vt 28.0195 -57.0068 
vt 28.0301 -57.0033 
vt 28.0195 -56.9932 
vt 28.0301 -56.9967 
vt 28.0421 -57 
vt 27.9806 -57.0068 
vt 27.9699 -56.9967 
vt 27.9699 -57.0033 
vt 27.9579 -57 
vt 27.9806 -56.9932 
vt 28 -57.0833 
vt 28 -57.1348 
vt 28.0147 -57.1348 
vt 28.0702 -57.092 
vt 28 -57.0833 
vt 27.9853 -57.1348 
vt 28 -57.1348 
vt 27.9298 -57.092 
vt 28 -57.0833 
vt 28.0421 -57.0022 
vt 28.0301 -57.0021 
vt 28.0702 -57.092 
vt 28.0194 -57.002 
vt 28 -56.8652 
vt 28.0396 -56.9869 
vt 28 -57.0833 
vt 27.9579 -57.0022 
vt 27.9298 -57.092 
vt 27.9699 -57.0021 
vt 27.9805 -57.002 
vt 28 -56.8652 
vt 27.9604 -56.9869 
vt 28 -56.9909 
vt 28 -57.0091 
vt 28.0147 -57 
vt 27.9853 -57 
vt 27.9805 -57.0068 
vt 27.9805 -56.9932 
vt 27.9604 -57 
vt 28.0396 -57 
vt 28.0194 -56.9932 
vt 28.0194 -57.0068 
vt 28 -57.0833 
vt 27.9853 -57.1348 
vt 28 -57.1348 
vt 27.9298 -57.092 
vt 28.0702 -57.092 
vt 28 -57.0833 
vt 28.0147 -57.1348 
vt 28 -57.1348 
vt 28 -57.0833 
vt 27.9579 -57.0022 
vt 27.9298 -57.092 
vt 27.9699 -57.0021 
vt 27.9806 -57.002 
vt 28 -56.8652 
vt 27.9604 -56.9869 
vt 28 -56.8652 
vt 28 -57.0833 
vt 28.0195 -57.002 
vt 28.0396 -56.9869 
vt 28.0301 -57.0021 
vt 28.0421 -57.0022 
vt 28.0702 -57.092 

usemtl Meshpart41Mtl

f 1/1/1 2/2/2 3/3/3 
f 2/2/2 4/4/4 3/3/3 
f 2/2/2 5/5/5 4/4/4 
f 6/6/6 7/7/7 8/8/8 
f 9/9/9 8/8/8 7/7/7 
f 7/7/7 6/6/6 10/10/10 
f 11/11/11 12/12/12 13/13/13 
f 13/13/13 14/14/14 11/11/11 
f 15/15/15 16/16/16 17/17/17 
f 16/16/16 15/15/15 18/18/18 
f 19/19/19 20/20/20 21/21/21 
f 20/20/20 19/19/19 22/22/22 
f 19/19/19 21/21/21 23/23/23 
f 24/24/24 19/19/19 23/23/23 
f 23/23/23 25/25/25 24/24/24 
f 26/26/26 27/27/27 28/28/28 
f 27/27/27 26/26/26 29/29/29 
f 29/29/29 26/26/26 30/30/30 
f 26/26/26 31/31/31 30/30/30 
f 32/32/32 30/30/30 31/31/31 
f 33/33/33 34/34/34 35/35/35 
f 34/34/34 33/33/33 36/36/36 
f 37/37/37 38/38/38 39/39/39 
f 40/40/40 41/41/41 42/42/42 
f 43/43/43 44/44/44 45/45/45 
f 44/44/44 43/43/43 46/46/46 
f 47/47/47 48/48/48 49/49/49 
f 49/49/49 48/48/48 50/50/50 
f 51/51/51 52/52/52 53/53/53 
f 52/52/52 51/51/51 54/54/54 
f 51/51/51 55/55/55 54/54/54 
f 51/51/51 56/56/56 55/55/55 
f 57/57/57 55/55/55 56/56/56 
f 58/58/58 59/59/59 60/60/60 
f 60/60/60 61/61/61 58/58/58 
f 59/59/59 62/62/62 60/60/60 
f 59/59/59 63/63/63 62/62/62 
f 63/63/63 59/59/59 64/64/64 

