# 106702607873813

mtllib part1.mtl

g Meshpart11

v -49.6604 0.220136 -0.189664 
v -49.5818 0.220136 0.000192 
v -49.8503 -0.148136 0.000192 
v -49.6604 0.220136 0.190048 
v -49.78 8.06664 -0.070084 
v -49.7065 7.8303 -0.14356 
v -49.647 7.8303 0.000192 
v -49.7509 8.06664 0.000192 
v -49.78 8.06664 0.070468 
v -49.7065 7.8303 0.143944 
v -49.8503 7.8303 0.203488 
v -49.85 8.94794 -0.1303 
v -49.7027 8.58341 -0.12783 
v -49.85 8.94794 -0.1303 
v -49.85 8.94794 0.00272 
v -49.7027 8.58341 0.00272 
v -49.5547 8.36731 -0.101058 
v -49.5547 8.36731 0.00272 
v -49.85 8.94794 0.1303 
v -49.85 8.94794 -0.00272 
v -49.7027 8.58341 0.12783 
v -49.7027 8.58341 -0.00272 
v -49.85 8.94794 0.1303 
v -49.5547 8.36731 0.10106 
v -49.5547 8.36731 -0.00272 
v -49.85 8.40841 0.273748 
v -49.85 7.90828 -0.055882 
v -49.85 7.90828 -0.055882 
v -49.7156 8.09091 -0.061906 
v -49.7156 8.08959 0.00272 
v -49.85 7.90828 0.00272 
v -49.5547 8.36731 0.00272 
v -49.5547 8.36731 -0.101058 
v -49.7156 8.08959 -0.00272 
v -49.85 7.90828 0.055882 
v -49.85 7.90828 -0.00272 
v -49.7156 8.09091 0.061906 
v -49.5547 8.36731 -0.00272 
v -49.5547 8.36731 0.10106 
v -49.7065 7.8303 -0.14356 
v -49.766 7.6703 -0.084074 
v -49.647 7.8303 0.000192 
v -49.7311 7.6703 0.000192 
v -49.766 7.6703 0.084458 
v -49.7065 7.8303 0.143944 
v -49.5818 0.220136 0.000192 
v -49.7513 0.407018 0.099212 
v -49.6604 0.220136 0.190048 
v -49.7103 0.407018 0.000192 
v -49.7513 0.407018 -0.098828 
v -49.6604 0.220136 -0.189664 
v -49.8503 -0.148136 0.000192 
v -49.6604 0.220136 0.190048 
v -49.8503 0.220136 0.26869 
v -50.0401 0.220136 0.190048 
v -49.9206 8.06664 0.070468 
v -49.78 8.06664 0.070468 
v -49.994 7.8303 0.143944 
v -49.7065 7.8303 0.143944 
v -49.8503 7.8303 0.203488 
v -49.8503 8.06664 0.099576 
v -49.85 8.94794 0.00272 
v -49.5547 8.36731 0.00272 
v -49.85 8.94794 0.1303 
v -50.1454 8.36731 0.10106 
v -49.9974 8.58341 0.12783 
v -49.85 8.40841 0.273748 
v -49.85 8.94794 0.1303 
v -50.1454 8.36731 0.10106 
v -49.7027 8.58341 0.12783 
v -49.85 8.40841 0.273748 
v -49.5547 8.36731 0.10106 
v -49.85 8.94794 0.1303 
v -49.85 7.90828 0.055882 
v -49.85 8.40841 0.273748 
v -49.9844 8.09091 0.061906 
v -50.1454 8.36731 0.10106 
v -49.7156 8.09091 0.061906 
v -49.5547 8.36731 0.10106 
v -49.766 7.6703 0.084458 
v -49.7065 7.8303 0.143944 
v -49.8503 7.8303 0.203488 
v -49.8503 7.6703 0.119362 
v -49.9346 7.6703 0.084458 
v -49.994 7.8303 0.143944 
v -49.7513 0.407018 0.099212 
v -49.6604 0.220136 0.190048 
v -49.8503 0.220136 0.26869 
v -49.8503 0.407018 0.140228 
v -49.9493 0.407018 0.099212 
v -50.0401 0.220136 0.190048 
v -49.8503 -0.148136 0.000192 
v -49.8503 0.220136 0.26869 
v -50.0401 0.220136 -0.189664 
v -50.0401 0.220136 0.190048 
v -50.1188 0.220136 0.000192 
v -49.9206 8.06664 -0.070084 
v -49.994 7.8303 -0.14356 
v -50.0536 7.8303 0.000192 
v -49.9497 8.06664 0.000192 
v -49.9206 8.06664 0.070468 
v -49.994 7.8303 0.143944 
v -49.8503 7.8303 0.203488 
v -49.9974 8.58341 -0.12783 
v -49.85 8.94794 0.00272 
v -49.85 8.94794 -0.1303 
v -49.9974 8.58341 0.00272 
v -50.1454 8.36731 -0.101058 
v -50.1454 8.36731 0.00272 
v -49.85 8.94794 -0.00272 
v -49.9974 8.58341 0.12783 
v -49.85 8.94794 0.1303 
v -49.9974 8.58341 -0.00272 
v -50.1454 8.36731 0.10106 
v -50.1454 8.36731 -0.00272 
v -49.85 7.90828 -0.055882 
v -49.85 7.90828 -0.055882 
v -49.9844 8.08959 0.00272 
v -49.9844 8.09091 -0.061906 
v -49.85 7.90828 0.00272 
v -50.1454 8.36731 0.00272 
v -50.1454 8.36731 -0.101058 
v -49.9844 8.08959 -0.00272 
v -49.85 7.90828 0.055882 
v -49.9844 8.09091 0.061906 
v -49.85 7.90828 -0.00272 
v -50.1454 8.36731 -0.00272 
v -50.1454 8.36731 0.10106 
v -49.9346 7.6703 -0.084074 
v -49.994 7.8303 -0.14356 
v -50.0536 7.8303 0.000192 
v -49.9695 7.6703 0.000192 
v -49.9346 7.6703 0.084458 
v -49.994 7.8303 0.143944 
v -49.6604 0.220136 0.190048 
v -49.9493 0.407018 0.099212 
v -50.0401 0.220136 0.190048 
v -50.1188 0.220136 0.000192 
v -49.9903 0.407018 0.000192 
v -49.9493 0.407018 -0.098828 
v -50.0401 0.220136 -0.189664 
v -49.6604 0.220136 -0.189664 
v -49.5818 0.220136 0.000192 
v -49.8503 -0.148136 0.000192 
v -49.8503 0.220136 -0.268306 
v -50.0401 0.220136 -0.189664 
v -49.8503 8.06664 -0.099192 
v -49.8503 7.8303 -0.203102 
v -49.9206 8.06664 -0.070084 
v -49.78 8.06664 -0.070084 
v -49.994 7.8303 -0.14356 
v -49.7065 7.8303 -0.14356 
v -49.85 8.94794 0.00272 
v -49.85 8.94794 -0.1303 
v -50.1454 8.36731 -0.101058 
v -49.5547 8.36731 -0.101058 
v -49.5547 8.36731 0.00272 
v -49.9974 8.58341 -0.12783 
v -49.85 8.94794 -0.1303 
v -49.85 8.40841 -0.273748 
v -50.1454 8.36731 -0.101058 
v -49.7027 8.58341 -0.12783 
v -49.5547 8.36731 -0.101058 
v -49.85 8.40841 -0.273748 
v -49.85 8.94794 -0.1303 
v -49.85 7.90828 -0.055882 
v -49.9844 8.09091 -0.061906 
v -49.85 8.40841 -0.273748 
v -50.1454 8.36731 -0.101058 
v -49.7156 8.09091 -0.061906 
v -49.5547 8.36731 -0.101058 
v -49.7065 7.8303 -0.14356 
v -49.766 7.6703 -0.084074 
v -49.8503 7.8303 -0.203102 
v -49.8503 7.6703 -0.118978 
v -49.9346 7.6703 -0.084074 
v -49.994 7.8303 -0.14356 
v -49.7513 0.407018 -0.098828 
v -49.6604 0.220136 -0.189664 
v -49.8503 0.220136 -0.268306 
v -49.8503 0.407018 -0.139844 
v -49.9493 0.407018 -0.098828 
v -50.0401 0.220136 -0.189664 

vn 0.574803 -0.590551 -0.574803 
vn 0.811024 -0.590551 0 
vn 0 -1 0 
vn 0.574803 -0.590551 0.574803 
vn 0.645669 0.401575 -0.645669 
vn 0.645669 0.401575 -0.645669 
vn 0.913386 0.401575 0 
vn 0.913386 0.401575 0 
vn 0.645669 0.401575 0.645669 
vn 0.645669 0.401575 0.645669 
vn 0 0.401575 0.913386 
vn -0.929134 0.377953 0 
vn 0.88189 0.472441 0 
vn 0.929134 0.377953 0 
vn 0.929134 0.377953 0 
vn 0.88189 0.472441 0 
vn 0.826772 0.566929 0 
vn 0.826772 0.566929 0 
vn -0.929134 0.377953 0 
vn 0.929134 0.377953 0 
vn 0.88189 0.472441 0 
vn 0.88189 0.472441 0 
vn 0.929134 0.377953 0 
vn 0.826772 0.566929 0 
vn 0.826772 0.566929 0 
vn -0.527559 0.23622 0.818898 
vn 0 -0.401575 -0.913386 
vn 0.80315 -0.590551 -0.00787402 
vn 0.834646 -0.543307 -0.00787402 
vn 0.834646 -0.551181 -0.00787402 
vn 0.80315 -0.590551 -0.00787402 
vn 0.866142 -0.503937 0 
vn 0.866142 -0.503937 0 
vn 0.834646 -0.551181 0.00787402 
vn 0.80315 -0.590551 0.00787402 
vn 0.80315 -0.590551 0.00787402 
vn 0.834646 -0.543307 0.00787402 
vn 0.866142 -0.503937 0.00787402 
vn 0.866142 -0.503937 0.00787402 
vn 0.622047 -0.464567 -0.629921 
vn 0.622047 -0.464567 -0.629921 
vn 0.88189 -0.464567 0 
vn 0.88189 -0.464567 0 
vn 0.622047 -0.464567 0.622047 
vn 0.622047 -0.464567 0.622047 
vn 0.826772 0.566929 0 
vn 0.582677 0.566929 0.582677 
vn 0.582677 0.566929 0.582677 
vn 0.826772 0.566929 0 
vn 0.582677 0.566929 -0.582677 
vn 0.582677 0.566929 -0.582677 
vn 0 -1 0 
vn 0.574803 -0.590551 0.574803 
vn 0 -0.590551 0.811024 
vn -0.574803 -0.590551 0.574803 
vn -0.645669 0.401575 0.645669 
vn 0.645669 0.401575 0.645669 
vn -0.645669 0.401575 0.645669 
vn 0.645669 0.401575 0.645669 
vn 0 0.401575 0.913386 
vn 0 0.401575 0.913386 
vn -0.929134 0.377953 0 
vn 0.826772 0.566929 0 
vn -0.929134 0.377953 0 
vn -0.826772 0.566929 0 
vn -0.535433 0.228346 0.811024 
vn -0.527559 0.23622 0.818898 
vn -0.543307 0.212598 0.811024 
vn -0.511811 0.251969 0.818898 
vn 0.535433 0.228346 0.811024 
vn 0.527559 0.23622 0.818898 
vn 0.511811 0.251969 0.818898 
vn 0.543307 0.212598 0.811024 
vn 0 -0.401575 0.913386 
vn 0 -0.401575 0.913386 
vn -0.440945 -0.362205 0.818898 
vn -0.433071 -0.370079 0.826772 
vn 0.440945 -0.362205 0.818898 
vn 0.433071 -0.370079 0.826772 
vn 0.622047 -0.464567 0.622047 
vn 0.622047 -0.464567 0.622047 
vn 0 -0.464567 0.88189 
vn 0 -0.464567 0.88189 
vn -0.622047 -0.464567 0.622047 
vn -0.622047 -0.464567 0.622047 
vn 0.582677 0.566929 0.582677 
vn 0.582677 0.566929 0.582677 
vn 0 0.566929 0.826772 
vn 0 0.566929 0.826772 
vn -0.582677 0.566929 0.582677 
vn -0.582677 0.566929 0.582677 
vn 0 -1 0 
vn 0 -0.590551 0.811024 
vn -0.574803 -0.590551 -0.574803 
vn -0.574803 -0.590551 0.574803 
vn -0.811024 -0.590551 0 
vn -0.645669 0.401575 -0.645669 
vn -0.645669 0.401575 -0.645669 
vn -0.913386 0.401575 0 
vn -0.913386 0.401575 0 
vn -0.645669 0.401575 0.645669 
vn -0.645669 0.401575 0.645669 
vn 0 0.401575 0.913386 
vn -0.88189 0.472441 0 
vn -0.929134 0.377953 0 
vn -0.929134 0.377953 0 
vn -0.88189 0.472441 0 
vn -0.826772 0.566929 0 
vn -0.826772 0.566929 0 
vn -0.929134 0.377953 0 
vn -0.88189 0.472441 0 
vn -0.929134 0.377953 0 
vn -0.88189 0.472441 0 
vn -0.826772 0.566929 0 
vn -0.826772 0.566929 0 
vn 0 -0.401575 -0.913386 
vn -0.80315 -0.590551 -0.00787402 
vn -0.834646 -0.551181 -0.00787402 
vn -0.834646 -0.543307 -0.00787402 
vn -0.80315 -0.590551 -0.00787402 
vn -0.866142 -0.503937 0 
vn -0.866142 -0.503937 0 
vn -0.834646 -0.551181 0.00787402 
vn -0.80315 -0.590551 0.00787402 
vn -0.834646 -0.543307 0.00787402 
vn -0.80315 -0.590551 0.00787402 
vn -0.866142 -0.503937 0.00787402 
vn -0.866142 -0.503937 0.00787402 
vn -0.622047 -0.464567 -0.629921 
vn -0.622047 -0.464567 -0.629921 
vn -0.88189 -0.464567 0 
vn -0.88189 -0.464567 0 
vn -0.622047 -0.464567 0.622047 
vn -0.622047 -0.464567 0.622047 
vn 0.582677 0.566929 0.582677 
vn -0.582677 0.566929 0.582677 
vn -0.582677 0.566929 0.582677 
vn -0.826772 0.566929 0 
vn -0.826772 0.566929 0 
vn -0.582677 0.566929 -0.582677 
vn -0.582677 0.566929 -0.582677 
vn 0.574803 -0.590551 -0.574803 
vn 0.811024 -0.590551 0 
vn 0 -1 0 
vn 0 -0.590551 -0.811024 
vn -0.574803 -0.590551 -0.574803 
vn 0 0.401575 -0.913386 
vn 0 0.401575 -0.913386 
vn -0.645669 0.401575 -0.645669 
vn 0.645669 0.401575 -0.645669 
vn -0.645669 0.401575 -0.645669 
vn 0.645669 0.401575 -0.645669 
vn -0.929134 0.377953 0 
vn -0.929134 0.377953 0 
vn -0.826772 0.566929 0 
vn 0.826772 0.566929 0 
vn 0.826772 0.566929 0 
vn -0.535433 0.228346 -0.811024 
vn -0.543307 0.212598 -0.811024 
vn -0.527559 0.23622 -0.818898 
vn -0.511811 0.251969 -0.818898 
vn 0.535433 0.228346 -0.811024 
vn 0.511811 0.251969 -0.818898 
vn 0.527559 0.23622 -0.818898 
vn 0.543307 0.212598 -0.811024 
vn 0 -0.401575 -0.913386 
vn -0.440945 -0.362205 -0.818898 
vn 0 -0.401575 -0.913386 
vn -0.433071 -0.370079 -0.826772 
vn 0.440945 -0.362205 -0.818898 
vn 0.433071 -0.370079 -0.826772 
vn 0.622047 -0.464567 -0.629921 
vn 0.622047 -0.464567 -0.629921 
vn 0 -0.464567 -0.88189 
vn 0 -0.464567 -0.88189 
vn -0.622047 -0.464567 -0.629921 
vn -0.622047 -0.464567 -0.629921 
vn 0.582677 0.566929 -0.582677 
vn 0.582677 0.566929 -0.582677 
vn 0 0.566929 -0.826772 
vn 0 0.566929 -0.826772 
vn -0.582677 0.566929 -0.582677 
vn -0.582677 0.566929 -0.582677 

vt 56.0237 -55.5225 
vt 56 -55.5225 
vt 56 -55.5685 
vt 55.9762 -55.5225 
vt 56.0088 -54.5417 
vt 56.0179 -54.5712 
vt 56 -54.5712 
vt 56 -54.5417 
vt 55.9912 -54.5417 
vt 55.982 -54.5712 
vt 55.9746 -54.5712 
vt 56.0163 -54.4315 
vt 56.016 -54.4771 
vt 56.0163 -54.4315 
vt 55.9997 -54.4315 
vt 55.9997 -54.4771 
vt 56.0126 -54.5041 
vt 55.9997 -54.5041 
vt 55.9837 -54.4315 
vt 56.0003 -54.4315 
vt 55.984 -54.4771 
vt 56.0003 -54.4771 
vt 55.9837 -54.4315 
vt 55.9874 -54.5041 
vt 56.0003 -54.5041 
vt 55.9658 -54.4989 
vt 56.007 -54.5615 
vt 56.007 -54.5615 
vt 56.0077 -54.5386 
vt 55.9997 -54.5388 
vt 55.9997 -54.5615 
vt 55.9997 -54.5041 
vt 56.0126 -54.5041 
vt 56.0003 -54.5388 
vt 55.993 -54.5615 
vt 56.0003 -54.5615 
vt 55.9923 -54.5386 
vt 56.0003 -54.5041 
vt 55.9874 -54.5041 
vt 56.0179 -54.5712 
vt 56.0105 -54.5912 
vt 56 -54.5712 
vt 56 -54.5912 
vt 55.9894 -54.5912 
vt 55.982 -54.5712 
vt 56 -55.5225 
vt 55.9876 -55.4991 
vt 55.9762 -55.5225 
vt 56 -55.4991 
vt 56.0124 -55.4991 
vt 56.0237 -55.5225 
vt 56 -55.5685 
vt 56.0237 -55.5225 
vt 56 -55.5225 
vt 55.9762 -55.5225 
vt 55.9912 -54.5417 
vt 56.0088 -54.5417 
vt 55.982 -54.5712 
vt 56.0179 -54.5712 
vt 56 -54.5712 
vt 56 -54.5417 
vt 56 -54.4315 
vt 56.0369 -54.5041 
vt 56 -54.4315 
vt 55.9631 -54.5041 
vt 55.9816 -54.4771 
vt 56 -54.4989 
vt 56 -54.4315 
vt 55.9631 -54.5041 
vt 56.0184 -54.4771 
vt 56 -54.4989 
vt 56.0369 -54.5041 
vt 56 -54.4315 
vt 56 -54.5615 
vt 56 -54.4989 
vt 55.9832 -54.5386 
vt 55.9631 -54.5041 
vt 56.0168 -54.5386 
vt 56.0369 -54.5041 
vt 56.0105 -54.5912 
vt 56.0179 -54.5712 
vt 56 -54.5712 
vt 56 -54.5912 
vt 55.9894 -54.5912 
vt 55.982 -54.5712 
vt 56.0123 -55.4991 
vt 56.0237 -55.5225 
vt 56 -55.5225 
vt 56 -55.4991 
vt 55.9876 -55.4991 
vt 55.9762 -55.5225 
vt 56 -55.5685 
vt 56.0336 -55.5225 
vt 55.9763 -55.5225 
vt 56.0238 -55.5225 
vt 56 -55.5225 
vt 55.9912 -54.5417 
vt 55.9821 -54.5712 
vt 56 -54.5712 
vt 56 -54.5417 
vt 56.0088 -54.5417 
vt 56.018 -54.5712 
vt 56.0254 -54.5712 
vt 55.984 -54.4771 
vt 56.0003 -54.4315 
vt 55.9837 -54.4315 
vt 56.0003 -54.4771 
vt 55.9874 -54.5041 
vt 56.0003 -54.5041 
vt 55.9997 -54.4315 
vt 56.016 -54.4771 
vt 56.0163 -54.4315 
vt 55.9997 -54.4771 
vt 56.0126 -54.5041 
vt 55.9997 -54.5041 
vt 55.993 -54.5615 
vt 55.993 -54.5615 
vt 56.0003 -54.5388 
vt 55.9923 -54.5386 
vt 56.0003 -54.5615 
vt 56.0003 -54.5041 
vt 55.9874 -54.5041 
vt 55.9997 -54.5388 
vt 56.007 -54.5615 
vt 56.0077 -54.5386 
vt 55.9997 -54.5615 
vt 55.9997 -54.5041 
vt 56.0126 -54.5041 
vt 55.9895 -54.5912 
vt 55.9821 -54.5712 
vt 56 -54.5712 
vt 56 -54.5912 
vt 56.0106 -54.5912 
vt 56.018 -54.5712 
vt 56.0238 -55.5225 
vt 56.0124 -55.4991 
vt 56.0238 -55.5225 
vt 56 -55.5225 
vt 56 -55.4991 
vt 55.9876 -55.4991 
vt 55.9763 -55.5225 
vt 55.9763 -55.5225 
vt 55.9665 -55.5225 
vt 56 -55.5685 
vt 56 -55.5225 
vt 56.0238 -55.5225 
vt 56 -54.5417 
vt 56 -54.5712 
vt 56.0088 -54.5417 
vt 55.9912 -54.5417 
vt 56.018 -54.5712 
vt 55.9821 -54.5712 
vt 56 -54.4315 
vt 56 -54.4315 
vt 56.0369 -54.5041 
vt 55.9631 -54.5041 
vt 55.9631 -54.5041 
vt 56.0184 -54.4771 
vt 56 -54.4315 
vt 56 -54.4989 
vt 56.0369 -54.5041 
vt 55.9816 -54.4771 
vt 55.9631 -54.5041 
vt 56 -54.4989 
vt 56 -54.4315 
vt 56 -54.5615 
vt 56.0168 -54.5386 
vt 56 -54.4989 
vt 56.0369 -54.5041 
vt 55.9832 -54.5386 
vt 55.9631 -54.5041 
vt 55.9821 -54.5712 
vt 55.9895 -54.5912 
vt 56 -54.5712 
vt 56 -54.5912 
vt 56.0106 -54.5912 
vt 56.018 -54.5712 
vt 55.9877 -55.4991 
vt 55.9763 -55.5225 
vt 56 -55.5225 
vt 56 -55.4991 
vt 56.0124 -55.4991 
vt 56.0238 -55.5225 

usemtl Meshpart11Mtl

f 1/1/1 2/2/2 3/3/3 
f 2/2/2 4/4/4 3/3/3 
f 5/5/5 7/7/7 6/6/6 
f 7/7/7 5/5/5 8/8/8 
f 9/9/9 7/7/7 8/8/8 
f 7/7/7 9/9/9 10/10/10 
f 13/13/13 14/14/14 15/15/15 
f 13/13/13 15/15/15 16/16/16 
f 17/17/17 13/13/13 16/16/16 
f 17/17/17 16/16/16 18/18/18 
f 20/20/20 21/21/21 22/22/22 
f 21/21/21 20/20/20 23/23/23 
f 24/24/24 22/22/22 21/21/21 
f 22/22/22 24/24/24 25/25/25 
f 28/28/28 29/29/29 30/30/30 
f 28/28/28 30/30/30 31/31/31 
f 29/29/29 32/32/32 30/30/30 
f 29/29/29 33/33/33 32/32/32 
f 34/34/34 35/35/35 36/36/36 
f 35/35/35 34/34/34 37/37/37 
f 38/38/38 37/37/37 34/34/34 
f 37/37/37 38/38/38 39/39/39 
f 42/42/42 41/41/41 40/40/40 
f 41/41/41 42/42/42 43/43/43 
f 42/42/42 44/44/44 43/43/43 
f 44/44/44 42/42/42 45/45/45 
f 46/46/46 47/47/47 48/48/48 
f 47/47/47 46/46/46 49/49/49 
f 50/50/50 49/49/49 46/46/46 
f 51/51/51 50/50/50 46/46/46 
f 53/53/53 54/54/54 52/52/52 
f 54/54/54 55/55/55 52/52/52 
f 60/60/60 56/56/56 58/58/58 
f 59/59/59 57/57/57 60/60/60 
f 56/56/56 60/60/60 61/61/61 
f 60/60/60 57/57/57 61/61/61 
f 66/66/66 67/67/67 68/68/68 
f 69/69/69 67/67/67 66/66/66 
f 70/70/70 71/71/71 72/72/72 
f 73/73/73 71/71/71 70/70/70 
f 74/74/74 75/75/75 76/76/76 
f 76/76/76 75/75/75 77/77/77 
f 78/78/78 75/75/75 74/74/74 
f 79/79/79 75/75/75 78/78/78 
f 82/82/82 80/80/80 81/81/81 
f 80/80/80 82/82/82 83/83/83 
f 83/83/83 82/82/82 84/84/84 
f 84/84/84 82/82/82 85/85/85 
f 88/88/88 87/87/87 86/86/86 
f 88/88/88 86/86/86 89/89/89 
f 90/90/90 88/88/88 89/89/89 
f 88/88/88 90/90/90 91/91/91 
f 96/96/96 94/94/94 92/92/92 
f 95/95/95 96/96/96 92/92/92 
f 99/99/99 97/97/97 98/98/98 
f 97/97/97 99/99/99 100/100/100 
f 100/100/100 99/99/99 101/101/101 
f 102/102/102 101/101/101 99/99/99 
f 104/104/104 105/105/105 106/106/106 
f 105/105/105 104/104/104 107/107/107 
f 108/108/108 107/107/107 104/104/104 
f 107/107/107 108/108/108 109/109/109 
f 110/110/110 111/111/111 112/112/112 
f 111/111/111 110/110/110 113/113/113 
f 113/113/113 114/114/114 111/111/111 
f 114/114/114 113/113/113 115/115/115 
f 117/117/117 118/118/118 119/119/119 
f 118/118/118 117/117/117 120/120/120 
f 121/121/121 119/119/119 118/118/118 
f 119/119/119 121/121/121 122/122/122 
f 123/123/123 124/124/124 125/125/125 
f 124/124/124 123/123/123 126/126/126 
f 125/125/125 127/127/127 123/123/123 
f 127/127/127 125/125/125 128/128/128 
f 130/130/130 129/129/129 131/131/131 
f 129/129/129 132/132/132 131/131/131 
f 133/133/133 131/131/131 132/132/132 
f 131/131/131 133/133/133 134/134/134 
f 138/138/138 137/137/137 136/136/136 
f 138/138/138 136/136/136 139/139/139 
f 140/140/140 138/138/138 139/139/139 
f 138/138/138 140/140/140 141/141/141 
f 145/145/145 142/142/142 144/144/144 
f 146/146/146 145/145/145 144/144/144 
f 147/147/147 148/148/148 149/149/149 
f 150/150/150 148/148/148 147/147/147 
f 148/148/148 151/151/151 149/149/149 
f 148/148/148 150/150/150 152/152/152 
f 158/158/158 159/159/159 160/160/160 
f 161/161/161 158/158/158 160/160/160 
f 162/162/162 163/163/163 164/164/164 
f 165/165/165 162/162/162 164/164/164 
f 166/166/166 167/167/167 168/168/168 
f 167/167/167 169/169/169 168/168/168 
f 170/170/170 166/166/166 168/168/168 
f 171/171/171 170/170/170 168/168/168 
f 172/172/172 173/173/173 174/174/174 
f 174/174/174 173/173/173 175/175/175 
f 176/176/176 174/174/174 175/175/175 
f 174/174/174 176/176/176 177/177/177 
f 180/180/180 178/178/178 179/179/179 
f 178/178/178 180/180/180 181/181/181 
f 181/181/181 180/180/180 182/182/182 
f 182/182/182 180/180/180 183/183/183 

