# This file is brought to you by Roblox Corporation
# Generated by Roblox Studio

mtllib part2.mtl

g Meshpart21

v -49.8495 0.538957 0.136944 
v -49.9422 0.441127 0.0929301 
v -49.9462 0.538957 0.0969061 
v -49.8495 0.343297 0.163448 
v -49.965 0.343297 0.115648 
v -49.9862 0.538957 0.000244146 
v -50.0128 0.343297 0.000244146 
v -49.9806 0.441127 0.000244146 
v -49.8495 0.538957 -0.136454 
v -49.9422 0.441127 -0.0924399 
v -49.965 0.343297 -0.115158 
v -49.9462 0.538957 -0.0964159 
v -49.944 0.737665 0.105966 
v -49.8495 0.568393 0.13856 
v -49.9368 0.645329 0.0914801 
v -49.9831 0.713145 0.00794815 
v -49.9481 0.557793 0.0961821 
v -49.8495 0.678471 -0.130668 
v -49.9481 0.506609 -0.10843 
v -49.9368 0.600017 -0.0896539 
v -49.944 0.688627 -0.0900679 
v -49.9889 0.532201 -0.00612385 
v -49.9729 0.622673 0.000912146 
v -49.8494 0.866077 0.144768 
v -49.8494 0.866077 -0.13855 
v -49.75 0.838607 0.103276 
v -49.75 0.838607 -0.0970579 
v -49.7209 0.743307 0.129962 
v -49.753 0.663425 0.100422 
v -49.6687 0.728897 0.00310815 
v -49.7088 0.827229 0.00310815 
v -49.713 0.652371 0.00310815 
v -49.753 0.663425 -0.0942039 
v -49.7209 0.743307 -0.123744 
v -49.7528 7.66852 -0.0959899 
v -49.6687 7.58052 0.00213615 
v -49.7212 7.54931 -0.12403 
v -49.7134 7.69194 -0.00131185 
v -49.6928 7.46909 0.00558415 
v -49.7382 7.44208 -0.103628 
v -49.7382 7.49611 0.114798 
v -49.8478 7.43088 -0.148866 
v -49.7212 7.61173 0.128302 
v -49.8478 7.5073 0.160034 
v -49.7528 7.71536 0.0933681 
v -49.9823 7.69194 -0.00131185 
v -49.9324 7.40318 -0.0898559 
v -49.8478 7.51216 -0.159254 
v -49.9591 7.51216 -0.113156 
v -50.0052 7.51216 -0.00186785 
v -49.8478 7.29421 -0.140322 
v -49.9462 7.29421 -0.0996019 
v -49.9869 7.29421 -0.00129585 
v -49.9674 7.40318 -0.00529985 
v -49.9324 7.40318 0.0792561 
v -49.9462 7.29421 0.0970121 
v -49.9591 7.51216 0.109422 
v -49.8478 7.29421 0.137732 
v -49.8478 7.51216 0.155518 
v -49.9654 7.27696 0.00199215 
v -49.9485 7.38167 0.101396 
v -49.9308 7.26486 0.0862701 
v -49.9893 7.39594 0.00199215 
v -49.9485 7.38167 -0.0974119 
v -49.9308 7.26486 -0.0822859 
v -49.9687 7.16554 0.00199215 
v -49.9339 7.1534 0.0865741 
v -49.9339 7.1534 -0.0825919 
v -49.7512 7.31277 -0.0974119 
v -49.766 7.09477 -0.0825919 
v -49.7658 7.00409 -0.0858359 
v -49.6927 6.94592 -7.18543e-05 
v -49.7388 6.92068 -0.113344 
v -49.7309 7.0232 -7.18543e-05 
v -49.7658 7.00409 0.0856921 
v -49.7388 6.92068 0.1132 
v -49.7292 6.82735 -7.18543e-05 
v -49.7643 6.80808 -0.0865899 
v -49.7643 6.80808 0.0864461 
v -49.9342 6.91182 -0.0858359 
v -49.9342 6.71499 0.0864461 
v -49.7658 7.00409 0.0856921 
v -49.9342 6.91182 -0.0858359 
v -49.9236 6.8194 -0.0750679 
v -49.969 6.89271 -7.18543e-05 
v -49.9342 6.71499 -0.0865899 
v -49.9541 6.80269 -7.18543e-05 
v -49.9694 6.69571 -7.18543e-05 
v -49.9342 6.71499 0.0864461 
v -49.9236 6.8194 0.0749241 
v -49.9342 6.91182 0.0856921 
v -49.9485 7.38167 0.101396 
v -49.7512 7.31277 0.101394 
v -49.7208 7.19154 0.12928 
v -49.766 7.09477 0.0865741 
v -49.7103 7.2985 0.00199215 
v -49.6685 7.17326 0.00199215 
v -49.7312 7.08263 0.00199215 
v -49.766 7.09477 -0.0825919 
v -49.7208 7.19154 -0.125298 
v -49.7512 7.31277 -0.0974119 
v -49.8478 7.51216 -0.159254 
v -49.7366 7.51216 -0.113156 
v -49.8478 7.29421 -0.140322 
v -49.7495 7.29421 -0.0996019 
v -49.7201 7.40318 -0.13301 
v -49.8478 7.29421 0.137732 
v -49.8478 7.51216 0.155518 
v -49.7495 7.29421 0.0970121 
v -49.7366 7.51216 0.109422 
v -49.7201 7.40318 0.12241 
v -49.6672 7.40318 -0.00529985 
v -49.7088 7.29421 -0.00129585 
v -49.6905 7.51216 -0.00186785 
v -49.8478 7.43088 -0.148866 
v -49.9317 7.55985 -0.0813979 
v -49.9575 7.44208 -0.103628 
v -49.9429 7.66852 -0.0959899 
v -50.0029 7.46909 0.00558415 
v -49.8478 7.5073 0.160034 
v -49.9664 7.58052 0.00213615 
v -49.9575 7.49611 0.114798 
v -49.9823 7.69194 -0.00131185 
v -49.9429 7.71536 0.0933681 
v -49.9317 7.60118 0.0856701 
v -49.9646 0.810667 0.00310815 
v -49.9488 0.893547 0.103276 
v -49.9301 0.801127 0.0870981 
v -49.99 0.904925 0.00311015 
v -49.9488 0.893547 -0.0970579 
v -49.8494 0.866077 0.144768 
v -49.9301 0.801127 -0.0808799 
v -49.9861 0.727853 0.00311015 
v -49.8494 0.866077 -0.13855 
v -49.9461 0.716799 0.100422 
v -49.9461 0.716799 -0.0942039 
v -49.7088 0.827229 0.00310815 
v -49.753 0.663425 -0.0942039 
v -49.7178 0.656891 0.137702 
v -49.7551 0.737665 0.105966 
v -49.716 0.713145 0.00794815 
v -49.944 0.737665 0.105966 
v -49.6632 0.622673 0.000912146 
v -49.7551 0.688627 -0.0900679 
v -49.751 0.557793 0.0961821 
v -49.8495 0.568393 0.13856 
v -49.7102 0.532201 -0.00612385 
v -49.7178 0.588454 -0.135876 
v -49.751 0.506609 -0.10843 
v -49.8495 0.574283 -0.192536 
v -49.8495 0.678471 -0.130668 
v -49.9481 0.506609 -0.10843 
v -49.7096 0.441127 0.140232 
v -49.7529 0.538957 0.0969061 
v -49.8495 0.538957 0.136944 
v -49.6516 0.441127 0.000244146 
v -49.7128 0.538957 0.000244146 
v -49.7341 0.343297 0.115648 
v -49.8495 0.343297 0.163448 
v -49.6863 0.343297 0.000244146 
v -49.7529 0.538957 -0.0964159 
v -49.7341 0.343297 -0.115158 
v -49.7096 0.441127 -0.139742 
v -49.8495 0.538957 0.136944 
v -49.7128 0.538957 0.000244146 
v -49.6863 0.343297 0.000244146 
v -49.9862 0.538957 0.000244146 
v -50.0128 0.343297 0.000244146 
v -49.7569 0.441127 -0.0924399 
v -49.7341 0.343297 -0.115158 
v -49.7529 0.538957 -0.0964159 
v -49.8495 0.343297 -0.162958 
v -49.8495 0.538957 -0.136454 
v -49.8495 0.441127 -0.130832 
v -49.9422 0.441127 -0.0924399 
v -49.965 0.343297 -0.115158 
v -49.9462 0.538957 -0.0964159 
v -49.7551 0.688627 -0.0900679 
v -49.7623 0.600017 -0.0896539 
v -49.8495 0.678471 -0.130668 
v -49.751 0.506609 -0.10843 
v -49.8495 0.590633 -0.12717 
v -49.8495 0.496009 -0.150806 
v -49.9481 0.506609 -0.10843 
v -49.9368 0.600017 -0.0896539 
v -49.944 0.688627 -0.0900679 
v -49.9488 0.893547 0.103276 
v -49.9727 0.812881 0.129962 
v -49.8494 0.866077 0.144768 
v -49.9461 0.716799 0.100422 
v -49.9861 0.727853 0.00311015 
v -49.8468 0.778093 0.182506 
v -49.8496 0.690111 0.14073 
v -49.75 0.838607 0.103276 
v -49.7209 0.743307 0.129962 
v -49.753 0.663425 0.100422 
v -49.7088 0.827229 0.00310815 
v -49.753 0.663425 -0.0942039 
v -49.7382 7.49611 0.114798 
v -49.7212 7.61173 0.128302 
v -49.8478 7.5073 0.160034 
v -49.7528 7.71536 0.0933681 
v -50.0029 7.46909 0.00558415 
v -49.9575 7.49611 0.114798 
v -49.8478 7.62465 0.180562 
v -49.8478 7.72506 0.132584 
v -49.9429 7.71536 0.0933681 
v -49.9745 7.61173 0.128302 
v -49.9324 7.40318 -0.0898559 
v -49.8478 7.40318 -0.12488 
v -49.8478 7.51216 -0.159254 
v -49.9591 7.51216 -0.113156 
v -49.7633 7.40318 -0.0898559 
v -49.7366 7.51216 -0.113156 
v -49.8478 7.29421 -0.140322 
v -49.9462 7.29421 -0.0996019 
v -49.7495 7.29421 -0.0996019 
v -49.9869 7.29421 -0.00129585 
v -49.9485 7.38167 -0.0974119 
v -49.9308 7.26486 -0.0822859 
v -49.9687 7.16554 0.00199215 
v -49.8498 7.34722 -0.138586 
v -49.9339 7.1534 -0.0825919 
v -49.8471 7.23565 -0.117194 
v -49.85 7.12408 -0.117626 
v -49.7512 7.31277 -0.0974119 
v -49.766 7.09477 -0.0825919 
v -49.7635 7.20644 -0.0822859 
v -49.7658 7.00409 0.0856921 
v -49.7388 6.92068 0.1132 
v -49.85 6.95795 0.121218 
v -49.7643 6.80808 0.0864461 
v -49.85 6.85975 0.160118 
v -49.8493 6.76153 0.122282 
v -49.9342 6.91182 0.0856921 
v -49.9612 6.79881 0.1132 
v -49.9342 6.71499 0.0864461 
v -49.7658 7.00409 -0.0858359 
v -49.7764 6.90009 -0.0750699 
v -49.7658 7.00409 0.0856921 
v -49.85 6.95795 -0.121362 
v -49.7643 6.80808 -0.0865899 
v -49.85 6.85975 -0.106134 
v -49.9342 6.91182 -0.0858359 
v -49.8493 6.76153 -0.122426 
v -49.9236 6.8194 -0.0750679 
v -49.9342 6.71499 -0.0865899 
v -49.9342 6.71499 0.0864461 
v -50.0258 7.29804 0.00199215 
v -49.9485 7.38167 0.101396 
v -49.9735 7.27976 0.12928 
v -49.8498 7.34722 0.14257 
v -49.9339 7.1534 0.0865741 
v -49.9687 7.16554 0.00199215 
v -49.8471 7.23565 0.182006 
v -49.85 7.12408 0.12161 
v -49.7512 7.31277 0.101394 
v -49.7208 7.19154 0.12928 
v -49.766 7.09477 0.0865741 
v -49.9591 7.51216 0.109422 
v -49.9462 7.29421 0.0970121 
v -49.9756 7.40318 0.12241 
v -49.8478 7.40318 0.17531 
v -49.8478 7.29421 0.137732 
v -49.8478 7.51216 0.155518 
v -49.7495 7.29421 0.0970121 
v -49.7366 7.51216 0.109422 
v -49.7201 7.40318 0.12241 
v -49.8478 7.43088 -0.148866 
v -49.7382 7.44208 -0.103628 
v -49.764 7.55985 -0.0813979 
v -49.8478 7.55129 -0.115998 
v -49.9317 7.55985 -0.0813979 
v -49.8478 7.65882 -0.135208 
v -49.7528 7.66852 -0.0959899 
v -49.7134 7.69194 -0.00131185 
v -49.9575 7.44208 -0.103628 
v -49.9429 7.66852 -0.0959899 
v -50.0029 7.46909 0.00558415 
v -49.9823 7.69194 -0.00131185 
v -49.9488 0.893547 -0.0970579 
v -49.9301 0.801127 -0.0808799 
v -49.9861 0.727853 0.00311015 
v -49.8494 0.866077 -0.13855 
v -49.9461 0.716799 -0.0942039 
v -49.7088 0.827229 0.00310815 
v -49.753 0.663425 0.100422 
v -49.8468 0.778093 -0.11567 
v -49.8496 0.690111 -0.134512 
v -49.75 0.838607 -0.0970579 
v -49.753 0.663425 -0.0942039 
v -49.7634 0.755061 -0.0808799 
v -49.7178 0.656891 0.137702 
v -49.7551 0.737665 0.105966 
v -49.8495 0.671065 0.194362 
v -49.8495 0.747821 0.146566 
v -49.944 0.737665 0.105966 
v -49.751 0.557793 0.0961821 
v -49.8495 0.568393 0.13856 
v -49.9481 0.557793 0.0961821 
v -50.0359 0.622673 0.000912146 
v -49.9813 0.656891 0.137702 
v -49.7096 0.441127 0.140232 
v -49.7529 0.538957 0.0969061 
v -49.8495 0.441127 0.198216 
v -49.8495 0.538957 0.136944 
v -49.9462 0.538957 0.0969061 
v -49.7341 0.343297 0.115648 
v -49.8495 0.343297 0.163448 
v -49.6863 0.343297 0.000244146 
v -49.965 0.343297 0.115648 
v -49.9895 0.441127 0.140232 
v -49.7569 0.441127 0.0929301 
v -49.8495 0.538957 0.136944 
v -49.7529 0.538957 0.0969061 
v -49.7128 0.538957 0.000244146 
v -49.8495 0.343297 0.163448 
v -49.7341 0.343297 0.115648 
v -49.6863 0.343297 0.000244146 
v -49.7185 0.441127 0.000244146 
v -49.7569 0.441127 -0.0924399 
v -49.7341 0.343297 -0.115158 
v -49.7529 0.538957 -0.0964159 
v -49.8495 0.538957 -0.136454 
v -49.7551 0.737665 0.105966 
v -49.944 0.737665 0.105966 
v -49.7623 0.645329 0.0914801 
v -49.716 0.713145 0.00794815 
v -49.8495 0.568393 0.13856 
v -49.751 0.557793 0.0961821 
v -49.7262 0.622673 0.000912146 
v -49.7551 0.688627 -0.0900679 
v -49.7102 0.532201 -0.00612385 
v -49.7623 0.600017 -0.0896539 
v -49.8495 0.678471 -0.130668 
v -49.751 0.506609 -0.10843 
v -49.9481 0.506609 -0.10843 
v -49.99 0.904925 0.00311015 
v -50.0248 0.827291 0.00311015 
v -49.9488 0.893547 0.103276 
v -49.9488 0.893547 -0.0970579 
v -49.9727 0.812881 0.129962 
v -49.8494 0.866077 0.144768 
v -49.9727 0.812881 -0.123744 
v -49.8494 0.866077 -0.13855 
v -49.9461 0.716799 0.100422 
v -49.9861 0.727853 0.00311015 
v -49.9461 0.716799 -0.0942039 
v -49.7088 0.827229 0.00310815 
v -49.753 0.663425 -0.0942039 
v -49.8478 7.43088 -0.148866 
v -49.9429 7.66852 -0.0959899 
v -49.9575 7.44208 -0.103628 
v -49.8478 7.5073 0.160034 
v -49.9745 7.54931 -0.12403 
v -50.0029 7.46909 0.00558415 
v -50.027 7.58052 0.00213615 
v -49.9823 7.69194 -0.00131185 
v -49.9575 7.49611 0.114798 
v -49.9429 7.71536 0.0933681 
v -49.9745 7.61173 0.128302 
v -49.8478 7.51216 -0.159254 
v -49.7633 7.40318 -0.0898559 
v -49.7366 7.51216 -0.113156 
v -49.8478 7.29421 -0.140322 
v -49.7495 7.29421 -0.0996019 
v -49.7088 7.29421 -0.00129585 
v -49.6905 7.51216 -0.00186785 
v -49.7283 7.40318 -0.00529985 
v -49.8478 7.29421 0.137732 
v -49.8478 7.51216 0.155518 
v -49.7633 7.40318 0.0792561 
v -49.7495 7.29421 0.0970121 
v -49.7366 7.51216 0.109422 
v -49.9485 7.38167 0.101396 
v -49.7512 7.31277 0.101394 
v -49.7635 7.20644 0.0862701 
v -49.7103 7.2985 0.00199215 
v -49.766 7.09477 0.0865741 
v -49.7512 7.31277 -0.0974119 
v -49.7289 7.19435 0.00199215 
v -49.7312 7.08263 0.00199215 
v -49.766 7.09477 -0.0825919 
v -49.7635 7.20644 -0.0822859 
v -49.7658 7.00409 0.0856921 
v -49.9342 6.91182 -0.0858359 
v -49.9342 6.91182 0.0856921 
v -49.9612 6.79881 -0.113344 
v -49.9342 6.71499 -0.0865899 
v -49.969 6.89271 -7.18543e-05 
v -49.9612 6.79881 0.1132 
v -49.9342 6.71499 0.0864461 
v -50.0073 6.77357 -7.18543e-05 
v -49.9694 6.69571 -7.18543e-05 
v -49.7459 6.9168 -7.18543e-05 
v -49.7658 7.00409 -0.0858359 
v -49.7764 6.90009 -0.0750699 
v -49.7309 7.0232 -7.18543e-05 
v -49.7658 7.00409 0.0856921 
v -49.7292 6.82735 -7.18543e-05 
v -49.7764 6.90009 0.0749241 
v -49.7643 6.80808 -0.0865899 
v -49.7643 6.80808 0.0864461 
v -49.9342 6.91182 -0.0858359 
v -49.9342 6.71499 0.0864461 
v -49.9893 7.39594 0.00199215 
v -50.0258 7.29804 0.00199215 
v -49.9485 7.38167 0.101396 
v -49.9485 7.38167 -0.0974119 
v -49.9735 7.27976 0.12928 
v -49.9735 7.27976 -0.125298 
v -49.9339 7.1534 0.0865741 
v -49.9687 7.16554 0.00199215 
v -49.9339 7.1534 -0.0825919 
v -49.8471 7.23565 0.182006 
v -49.766 7.09477 -0.0825919 
v -49.7512 7.31277 -0.0974119 
v -49.8471 7.23565 -0.178022 
v -49.9591 7.51216 -0.113156 
v -49.8478 7.51216 -0.159254 
v -49.9756 7.40318 -0.13301 
v -50.0285 7.40318 -0.00529985 
v -50.0052 7.51216 -0.00186785 
v -49.9462 7.29421 -0.0996019 
v -49.8478 7.29421 -0.140322 
v -49.9869 7.29421 -0.00129585 
v -49.9591 7.51216 0.109422 
v -49.9462 7.29421 0.0970121 
v -49.9756 7.40318 0.12241 
v -49.8478 7.29421 0.137732 
v -49.8478 7.51216 0.155518 
v -49.8478 7.43088 -0.148866 
v -49.7382 7.44208 -0.103628 
v -49.764 7.55985 -0.0813979 
v -49.6928 7.46909 0.00558415 
v -49.7293 7.58052 0.00213615 
v -49.7528 7.66852 -0.0959899 
v -49.7382 7.49611 0.114798 
v -49.7134 7.69194 -0.00131185 
v -49.764 7.60118 0.0856701 
v -49.7528 7.71536 0.0933681 
v -49.8478 7.5073 0.160034 
v -49.9823 7.69194 -0.00131185 
v -49.8494 0.866077 0.144768 
v -49.8494 0.866077 -0.13855 
v -49.75 0.838607 0.103276 
v -49.7634 0.755061 0.0870981 
v -49.7088 0.827229 0.00310815 
v -49.753 0.663425 0.100422 
v -49.75 0.838607 -0.0970579 
v -49.7289 0.745521 0.00310815 
v -49.713 0.652371 0.00310815 
v -49.753 0.663425 -0.0942039 
v -49.7634 0.755061 -0.0808799 
v -49.944 0.737665 0.105966 
v -49.8495 0.568393 0.13856 
v -49.9481 0.557793 0.0961821 
v -49.944 0.688627 -0.0900679 
v -49.9481 0.506609 -0.10843 
v -49.9813 0.588454 -0.135876 
v -49.9889 0.532201 -0.00612385 
v -50.0359 0.622673 0.000912146 
v -49.9831 0.713145 0.00794815 
v -49.9813 0.656891 0.137702 
v -49.8495 0.538957 0.136944 
v -49.9462 0.538957 0.0969061 
v -49.8495 0.343297 0.163448 
v -49.965 0.343297 0.115648 
v -49.9895 0.441127 0.140232 
v -50.0475 0.441127 0.000244146 
v -50.0128 0.343297 0.000244146 
v -49.9862 0.538957 0.000244146 
v -49.965 0.343297 -0.115158 
v -49.9462 0.538957 -0.0964159 
v -49.9895 0.441127 -0.139742 
v -49.7569 0.441127 0.0929301 
v -49.8495 0.538957 0.136944 
v -49.7529 0.538957 0.0969061 
v -49.8495 0.441127 0.13132 
v -49.9422 0.441127 0.0929301 
v -49.9462 0.538957 0.0969061 
v -49.8495 0.343297 0.163448 
v -49.7341 0.343297 0.115648 
v -49.6863 0.343297 0.000244146 
v -49.965 0.343297 0.115648 
v -50.0128 0.343297 0.000244146 
v -49.7551 0.737665 0.105966 
v -49.8495 0.654713 0.128994 
v -49.8495 0.747821 0.146566 
v -49.944 0.737665 0.105966 
v -49.7623 0.645329 0.0914801 
v -49.8495 0.568393 0.13856 
v -49.9368 0.645329 0.0914801 
v -49.751 0.557793 0.0961821 
v -49.9481 0.557793 0.0961821 
v -49.9488 0.893547 -0.0970579 
v -49.9727 0.812881 -0.123744 
v -49.8494 0.866077 -0.13855 
v -49.9861 0.727853 0.00311015 
v -49.9461 0.716799 -0.0942039 
v -49.8468 0.778093 -0.176288 
v -49.8496 0.690111 -0.134512 
v -49.75 0.838607 -0.0970579 
v -49.753 0.663425 0.100422 
v -49.7088 0.827229 0.00310815 
v -49.753 0.663425 -0.0942039 
v -49.7209 0.743307 -0.123744 
v -49.7528 7.66852 -0.0959899 
v -49.7212 7.54931 -0.12403 
v -49.7134 7.69194 -0.00131185 
v -49.7382 7.44208 -0.103628 
v -49.8478 7.53638 -0.176288 
v -49.8478 7.65882 -0.135208 
v -49.8478 7.43088 -0.148866 
v -49.9429 7.66852 -0.0959899 
v -49.9575 7.44208 -0.103628 
v -49.9745 7.54931 -0.12403 
v -50.0029 7.46909 0.00558415 
v -49.9823 7.69194 -0.00131185 
v -49.9324 7.40318 0.0792561 
v -49.9462 7.29421 0.0970121 
v -49.9591 7.51216 0.109422 
v -49.8478 7.29421 0.137732 
v -49.8478 7.51216 0.155518 
v -49.8478 7.40318 0.114282 
v -49.7633 7.40318 0.0792561 
v -49.7495 7.29421 0.0970121 
v -49.7366 7.51216 0.109422 
v -49.9485 7.38167 0.101396 
v -49.9308 7.26486 0.0862701 
v -49.8498 7.34722 0.14257 
v -49.9687 7.16554 0.00199215 
v -49.9339 7.1534 0.0865741 
v -49.8471 7.23565 0.121178 
v -49.7512 7.31277 0.101394 
v -49.85 7.12408 0.12161 
v -49.7635 7.20644 0.0862701 
v -49.766 7.09477 0.0865741 
v -49.7658 7.00409 -0.0858359 
v -49.7388 6.92068 -0.113344 
v -49.7658 7.00409 0.0856921 
v -49.85 6.95795 -0.121362 
v -49.7643 6.80808 -0.0865899 
v -49.85 6.85975 -0.160264 
v -49.9342 6.91182 -0.0858359 
v -49.8493 6.76153 -0.122426 
v -49.9612 6.79881 -0.113344 
v -49.9342 6.71499 -0.0865899 
v -49.9342 6.71499 0.0864461 
v -49.7658 7.00409 0.0856921 
v -49.7764 6.90009 0.0749241 
v -49.85 6.95795 0.121218 
v -49.7643 6.80808 0.0864461 
v -49.9342 6.71499 0.0864461 
v -49.9236 6.8194 0.0749241 
v -49.9342 6.91182 0.0856921 
v -49.8493 6.76153 0.122282 
v -49.85 6.85975 0.10599 
v -50.0258 7.29804 0.00199215 
v -49.9485 7.38167 -0.0974119 
v -49.9735 7.27976 -0.125298 
v -49.8498 7.34722 -0.138586 
v -49.9687 7.16554 0.00199215 
v -49.9339 7.1534 -0.0825919 
v -49.766 7.09477 -0.0825919 
v -49.7208 7.19154 -0.125298 
v -49.7512 7.31277 -0.0974119 
v -49.85 7.12408 -0.117626 
v -49.8471 7.23565 -0.178022 
v -49.9591 7.51216 -0.113156 
v -49.8478 7.51216 -0.159254 
v -49.8478 7.40318 -0.18591 
v -49.7366 7.51216 -0.113156 
v -49.9756 7.40318 -0.13301 
v -50.0052 7.51216 -0.00186785 
v -49.9462 7.29421 -0.0996019 
v -49.8478 7.29421 -0.140322 
v -49.7495 7.29421 -0.0996019 
v -49.9869 7.29421 -0.00129585 
v -49.7201 7.40318 -0.13301 
v -49.7382 7.49611 0.114798 
v -50.0029 7.46909 0.00558415 
v -49.764 7.60118 0.0856701 
v -49.7528 7.71536 0.0933681 
v -49.8478 7.5073 0.160034 
v -49.9575 7.49611 0.114798 
v -49.8478 7.60974 0.12027 
v -49.8478 7.72506 0.132584 
v -49.9429 7.71536 0.0933681 
v -49.9317 7.60118 0.0856701 
v -49.9488 0.893547 0.103276 
v -49.9301 0.801127 0.0870981 
v -49.8494 0.866077 0.144768 
v -49.9861 0.727853 0.00311015 
v -49.9461 0.716799 0.100422 
v -49.8468 0.778093 0.121888 
v -49.75 0.838607 0.103276 
v -49.8496 0.690111 0.14073 
v -49.7634 0.755061 0.0870981 
v -49.7088 0.827229 0.00310815 
v -49.753 0.663425 0.100422 
v -49.753 0.663425 -0.0942039 
v -49.6632 0.622673 0.000912146 
v -49.7551 0.688627 -0.0900679 
v -49.7178 0.588454 -0.135876 
v -49.751 0.506609 -0.10843 
v -49.8495 0.574283 -0.192536 
v -49.8495 0.678471 -0.130668 
v -49.8495 0.496009 -0.150806 
v -49.944 0.688627 -0.0900679 
v -49.9481 0.506609 -0.10843 
v -49.9813 0.588454 -0.135876 
v -50.0359 0.622673 0.000912146 
v -49.8495 0.538957 0.136944 
v -49.7128 0.538957 0.000244146 
v -49.6863 0.343297 0.000244146 
v -49.7529 0.538957 -0.0964159 
v -49.7341 0.343297 -0.115158 
v -49.7096 0.441127 -0.139742 
v -50.0128 0.343297 0.000244146 
v -49.9862 0.538957 0.000244146 
v -49.965 0.343297 -0.115158 
v -49.9462 0.538957 -0.0964159 
v -49.9895 0.441127 -0.139742 
v -49.8495 0.441127 -0.197728 
v -49.8495 0.343297 -0.162958 
v -49.8495 0.538957 -0.136454 

vn 0 0.0551181 -1 
vn 0.700787 -0.133858 -0.700787 
vn 0.708661 0.0551181 -0.708661 
vn 0 -0.314961 -0.952756 
vn 0.669291 -0.314961 -0.669291 
vn 1 0.0551181 0 
vn 0.952756 -0.314961 0 
vn 0.992126 -0.133858 0 
vn 0 0.0551181 1 
vn 0.700787 -0.133858 0.700787 
vn 0.669291 -0.314961 0.669291 
vn 0.708661 0.0551181 0.708661 
vn 0.645669 0.165354 -0.748031 
vn 0 -0.110236 -0.992126 
vn 0.716535 0.023622 -0.700787 
vn 0.984252 0.11811 -0.102362 
vn 0.76378 -0.133858 -0.637795 
vn 0 0.0393701 1 
vn 0.629921 -0.228346 0.740157 
vn 0.700787 -0.0866142 0.700787 
vn 0.755906 0.0629921 0.645669 
vn 0.976378 -0.181102 0.11811 
vn 1 -0.0314961 0.00787402 
vn 0.0393701 0.393701 0.92126 
vn 0.0393701 0.393701 -0.92126 
vn 0.677165 0.385827 0.629921 
vn 0.677165 0.385827 -0.629921 
vn 0.700787 -0.0629921 0.708661 
vn 0.590551 -0.480315 0.653543 
vn 1 -0.0866142 0 
vn 0.929134 0.377953 0 
vn 0.866142 -0.503937 0 
vn 0.590551 -0.480315 -0.653543 
vn 0.700787 -0.0629921 -0.708661 
vn 0.645669 0.330709 -0.685039 
vn 1 0.0787402 -0.015748 
vn 0.700787 0.0314961 -0.708661 
vn 0.929134 0.370079 -0.0393701 
vn 0.976378 -0.212598 0 
vn 0.685039 -0.23622 -0.685039 
vn 0.692913 -0.181102 0.692913 
vn 0 -0.251969 -0.968504 
vn 0.716535 0.125984 0.692913 
vn 0 -0.173228 0.984252 
vn 0.661417 0.409449 0.622047 
vn -0.929134 0.370079 -0.0393701 
vn 0.700787 0.0866142 0.708661 
vn 0 0.299213 0.952756 
vn 0.677165 0.307087 0.669291 
vn 0.944882 0.330709 -0.00787402 
vn 0 -0.141732 0.992126 
vn 0.700787 -0.149606 0.692913 
vn 0.984252 -0.173228 -0.00787402 
vn 1 0.0866142 0.00787402 
vn 0.708661 0.0787402 -0.700787 
vn 0.685039 -0.204724 -0.700787 
vn 0.661417 0.346457 -0.669291 
vn 0 -0.212598 -0.976378 
vn 0 0.354331 -0.937008 
vn 0.992126 0.0944882 0 
vn 0.76378 0.19685 -0.614173 
vn 0.716535 0.0944882 -0.685039 
vn 0.984252 0.19685 0 
vn 0.76378 0.19685 0.614173 
vn 0.716535 0.0944882 0.685039 
vn 1 -0.0314961 0 
vn 0.669291 -0.023622 -0.740157 
vn 0.669291 -0.023622 0.740157 
vn -0.622047 0.181102 0.76378 
vn -0.748031 0.015748 0.661417 
vn 0.606299 0.417323 -0.669291 
vn 0.992126 0.11811 0 
vn 0.685039 0.0787402 -0.724409 
vn 0.897638 0.440945 0 
vn 0.606299 0.417323 0.669291 
vn 0.685039 0.0787402 0.724409 
vn 0.952756 -0.291339 0 
vn 0.708661 -0.314961 -0.629921 
vn 0.708661 -0.314961 0.629921 
vn -0.708661 0.322835 -0.622047 
vn -0.614173 -0.409449 0.677165 
vn -0.795276 0.141732 -0.590551 
vn 0.598425 0.15748 0.787402 
vn 0.716535 -0.00787402 0.692913 
vn 0.984252 0.165354 0 
vn 0.795276 -0.149606 0.590551 
vn 1 -0.00787402 0 
vn 0.992126 -0.141732 0 
vn 0.795276 -0.149606 -0.590551 
vn 0.716535 -0.00787402 -0.692913 
vn 0.598425 0.15748 -0.787402 
vn -0.653543 0.346457 0.669291 
vn 0.685039 0.322835 0.653543 
vn 0.685039 -0.125984 0.716535 
vn 0.543307 -0.535433 0.645669 
vn 0.944882 0.314961 0 
vn 0.984252 -0.15748 0 
vn 0.818898 -0.566929 0 
vn 0.543307 -0.535433 -0.645669 
vn 0.685039 -0.125984 -0.716535 
vn 0.685039 0.322835 -0.653543 
vn 0 0.23622 -0.968504 
vn 0.692913 0.228346 -0.685039 
vn 0 -0.385827 -0.92126 
vn 0.661417 -0.377953 -0.653543 
vn 0.700787 -0.0708661 -0.708661 
vn 0 -0.322835 0.944882 
vn 0 0.181102 0.984252 
vn 0.661417 -0.338583 0.669291 
vn 0.692913 0.188976 0.700787 
vn 0.708661 -0.0708661 0.700787 
vn 1 -0.0708661 -0.00787402 
vn 0.937008 -0.354331 0.00787402 
vn 0.976378 0.204724 0.00787402 
vn 0 -0.259843 0.968504 
vn 0.692913 -0.0708661 0.716535 
vn 0.622047 -0.275591 0.732283 
vn 0.740157 0.165354 0.653543 
vn 0.944882 -0.307087 0.11811 
vn 0 -0.362205 -0.929134 
vn 0.992126 -0.0944882 0.023622 
vn 0.724409 -0.346457 -0.598425 
vn 0.984252 0.133858 -0.0787402 
vn 0.661417 0.11811 -0.740157 
vn 0.716535 -0.11811 -0.692913 
vn 1 0.023622 0 
vn 0.748031 0.259843 -0.614173 
vn 0.708661 0.023622 -0.700787 
vn 0.968504 0.259843 0 
vn 0.748031 0.259843 0.614173 
vn 0.133858 0.251969 -0.96063 
vn 0.708661 0.023622 0.700787 
vn 0.968504 -0.251969 0 
vn 0.133858 0.251969 0.96063 
vn 0.629921 -0.23622 -0.740157 
vn 0.629921 -0.23622 0.740157 
vn -0.968504 0.23622 0 
vn -0.748031 -0.181102 0.637795 
vn 0.724409 0.0393701 0.692913 
vn 0.637795 0.519685 0.566929 
vn 0.858268 0.503937 -0.0551181 
vn -0.637795 0.519685 0.566929 
vn 1 0.023622 0 
vn 0.582677 0.503937 -0.629921 
vn 0.606299 -0.472441 0.637795 
vn 0 -0.480315 0.88189 
vn 0.88189 -0.464567 0.0472441 
vn 0.716535 0.00787402 -0.692913 
vn 0.653543 -0.464567 -0.598425 
vn 0 -0.00787402 -1 
vn 0 0.511811 -0.858268 
vn -0.653543 -0.464567 -0.598425 
vn 0.700787 0.102362 0.700787 
vn 0.598425 0.527559 0.598425 
vn 0 0.527559 0.850394 
vn 0.992126 0.102362 0 
vn 0.850394 0.527559 0 
vn 0.669291 -0.338583 0.669291 
vn 0 -0.338583 0.944882 
vn 0.944882 -0.338583 0 
vn 0.598425 0.527559 -0.598425 
vn 0.669291 -0.338583 -0.669291 
vn 0.700787 0.102362 -0.700787 
vn 0 0.0551181 -1 
vn -1 0.0551181 0 
vn -0.952756 -0.314961 0 
vn 1 0.0551181 0 
vn 0.952756 -0.314961 0 
vn -0.700787 -0.133858 0.700787 
vn -0.669291 -0.314961 0.669291 
vn -0.708661 0.0551181 0.708661 
vn 0 -0.314961 0.952756 
vn 0 0.0551181 1 
vn 0 -0.133858 0.992126 
vn 0.700787 -0.133858 0.700787 
vn 0.669291 -0.314961 0.669291 
vn 0.708661 0.0551181 0.708661 
vn -0.755906 0.0629921 0.645669 
vn -0.700787 -0.0866142 0.700787 
vn 0 0.0393701 1 
vn -0.629921 -0.228346 0.740157 
vn 0 -0.11811 0.992126 
vn 0 -0.244094 0.968504 
vn 0.629921 -0.228346 0.740157 
vn 0.700787 -0.0866142 0.700787 
vn 0.755906 0.0629921 0.645669 
vn -0.629921 0.401575 0.661417 
vn -0.700787 0.0314961 0.716535 
vn 0.0393701 0.393701 0.92126 
vn -0.685039 -0.377953 0.622047 
vn -0.929134 -0.362205 0 
vn 0 -0.015748 1 
vn -0.0629921 -0.425197 0.905512 
vn 0.677165 0.385827 0.629921 
vn 0.700787 -0.0629921 0.708661 
vn 0.590551 -0.480315 0.653543 
vn 0.929134 0.377953 0 
vn 0.590551 -0.480315 -0.653543 
vn 0.692913 -0.181102 0.692913 
vn 0.716535 0.125984 0.692913 
vn 0 -0.173228 0.984252 
vn 0.661417 0.409449 0.622047 
vn -0.976378 -0.212598 0 
vn -0.692913 -0.181102 0.692913 
vn 0 0.141732 0.992126 
vn 0 0.433071 0.905512 
vn -0.661417 0.409449 0.622047 
vn -0.716535 0.125984 0.692913 
vn 0.700787 0.0866142 0.708661 
vn 0 0.0866142 1 
vn 0 0.299213 0.952756 
vn 0.677165 0.307087 0.669291 
vn -0.700787 0.0866142 0.708661 
vn -0.677165 0.307087 0.669291 
vn 0 -0.141732 0.992126 
vn 0.700787 -0.149606 0.692913 
vn -0.700787 -0.149606 0.692913 
vn 0.984252 -0.173228 -0.00787402 
vn 0.76378 0.19685 0.614173 
vn 0.716535 0.0944882 0.685039 
vn 1 -0.0314961 0 
vn 0.141732 0.188976 0.968504 
vn 0.669291 -0.023622 0.740157 
vn 0.023622 0.0944882 0.992126 
vn -0.0787402 0 1 
vn -0.622047 0.181102 0.76378 
vn -0.748031 0.015748 0.661417 
vn -0.692913 0.0944882 0.716535 
vn 0.606299 0.417323 0.669291 
vn 0.685039 0.0787402 0.724409 
vn -0.0787402 0.370079 0.929134 
vn 0.708661 -0.314961 0.629921 
vn 0 0.00787402 1 
vn 0.0708661 -0.354331 0.929134 
vn -0.708661 0.322835 0.622047 
vn -0.692913 -0.0708661 0.724409 
vn -0.614173 -0.409449 0.677165 
vn -0.795276 0.141732 0.590551 
vn -0.716535 0 0.700787 
vn -0.795276 0.141732 -0.590551 
vn -0.19685 0.149606 0.968504 
vn -0.590551 -0.173228 0.787402 
vn 0.00787402 -0.00787402 1 
vn 0.598425 0.15748 0.787402 
vn 0.19685 -0.15748 0.968504 
vn 0.716535 -0.00787402 0.692913 
vn 0.795276 -0.149606 0.590551 
vn 0.795276 -0.149606 -0.590551 
vn -1 0.00787402 0 
vn -0.653543 0.346457 0.669291 
vn -0.708661 -0.015748 0.708661 
vn 0.023622 0.330709 0.944882 
vn -0.685039 -0.417323 0.598425 
vn -0.92126 -0.393701 0 
vn -0.00787402 -0.0629921 1 
vn -0.0944882 -0.472441 0.874016 
vn 0.685039 0.322835 0.653543 
vn 0.685039 -0.125984 0.716535 
vn 0.543307 -0.535433 0.645669 
vn -0.692913 0.188976 0.700787 
vn -0.661417 -0.338583 0.669291 
vn -0.708661 -0.0708661 0.700787 
vn 0 -0.0708661 1 
vn 0 -0.322835 0.944882 
vn 0 0.181102 0.984252 
vn 0.661417 -0.338583 0.669291 
vn 0.692913 0.188976 0.700787 
vn 0.708661 -0.0708661 0.700787 
vn 0 -0.259843 0.968504 
vn -0.622047 -0.275591 0.732283 
vn -0.692913 -0.0708661 0.716535 
vn 0 -0.0629921 1 
vn 0.692913 -0.0708661 0.716535 
vn 0 0.173228 0.984252 
vn -0.740157 0.165354 0.653543 
vn -0.984252 0.133858 -0.0787402 
vn 0.622047 -0.275591 0.732283 
vn 0.740157 0.165354 0.653543 
vn 0.944882 -0.307087 0.11811 
vn 0.984252 0.133858 -0.0787402 
vn 0.748031 0.259843 0.614173 
vn 0.708661 0.023622 0.700787 
vn 0.968504 -0.251969 0 
vn 0.133858 0.251969 0.96063 
vn 0.629921 -0.23622 0.740157 
vn -0.968504 0.23622 0 
vn -0.748031 -0.181102 -0.637795 
vn 0 0.023622 1 
vn -0.110236 -0.204724 0.976378 
vn -0.622047 0.244094 0.748031 
vn -0.748031 -0.181102 0.637795 
vn -0.708661 0.023622 0.700787 
vn 0.724409 0.0393701 0.692913 
vn 0.637795 0.519685 0.566929 
vn 0 0.0551181 1 
vn 0 0.527559 0.850394 
vn -0.637795 0.519685 0.566929 
vn 0.606299 -0.472441 0.637795 
vn 0 -0.480315 0.88189 
vn -0.606299 -0.472441 0.637795 
vn -1 0.023622 0 
vn -0.724409 0.0393701 0.692913 
vn 0.700787 0.102362 0.700787 
vn 0.598425 0.527559 0.598425 
vn 0 0.102362 0.992126 
vn 0 0.527559 0.850394 
vn -0.598425 0.527559 0.598425 
vn 0.669291 -0.338583 0.669291 
vn 0 -0.338583 0.944882 
vn 0.944882 -0.338583 0 
vn -0.669291 -0.338583 0.669291 
vn -0.700787 0.102362 0.700787 
vn -0.700787 -0.133858 -0.700787 
vn 0 0.0551181 -1 
vn -0.708661 0.0551181 -0.708661 
vn -1 0.0551181 0 
vn 0 -0.314961 -0.952756 
vn -0.669291 -0.314961 -0.669291 
vn -0.952756 -0.314961 0 
vn -0.992126 -0.133858 0 
vn -0.700787 -0.133858 0.700787 
vn -0.669291 -0.314961 0.669291 
vn -0.708661 0.0551181 0.708661 
vn 0 0.0551181 1 
vn -0.645669 0.165354 -0.748031 
vn 0.645669 0.165354 -0.748031 
vn -0.716535 0.023622 -0.700787 
vn -0.984252 0.11811 -0.102362 
vn 0 -0.110236 -0.992126 
vn -0.76378 -0.133858 -0.637795 
vn -1 -0.0314961 0.00787402 
vn -0.755906 0.0629921 0.645669 
vn -0.976378 -0.181102 0.11811 
vn -0.700787 -0.0866142 0.700787 
vn 0 0.0393701 1 
vn -0.629921 -0.228346 0.740157 
vn 0.629921 -0.228346 0.740157 
vn -0.913386 0.409449 0 
vn -1 0.0472441 0 
vn -0.629921 0.401575 0.661417 
vn -0.629921 0.401575 -0.661417 
vn -0.700787 0.0314961 0.716535 
vn 0.0393701 0.393701 0.92126 
vn -0.700787 0.0314961 -0.716535 
vn 0.0393701 0.393701 -0.92126 
vn -0.685039 -0.377953 0.622047 
vn -0.929134 -0.362205 0 
vn -0.685039 -0.377953 -0.622047 
vn 0.929134 0.377953 0 
vn 0.590551 -0.480315 -0.653543 
vn 0 -0.251969 -0.968504 
vn -0.645669 0.330709 -0.685039 
vn -0.685039 -0.23622 -0.685039 
vn 0 -0.173228 0.984252 
vn -0.700787 0.0314961 -0.708661 
vn -0.976378 -0.212598 0 
vn -1 0.0787402 -0.015748 
vn -0.929134 0.370079 -0.0393701 
vn -0.692913 -0.181102 0.692913 
vn -0.661417 0.409449 0.622047 
vn -0.716535 0.125984 0.692913 
vn 0 0.299213 0.952756 
vn -0.700787 0.0866142 0.708661 
vn -0.677165 0.307087 0.669291 
vn 0 -0.141732 0.992126 
vn -0.700787 -0.149606 0.692913 
vn -0.984252 -0.173228 -0.00787402 
vn -0.944882 0.330709 -0.00787402 
vn -1 0.0866142 0.00787402 
vn 0 -0.212598 -0.976378 
vn 0 0.354331 -0.937008 
vn -0.708661 0.0787402 -0.700787 
vn -0.685039 -0.204724 -0.700787 
vn -0.661417 0.346457 -0.669291 
vn 0.76378 0.19685 -0.614173 
vn -0.622047 0.181102 -0.76378 
vn -0.692913 0.0944882 -0.716535 
vn -0.984252 0.173228 0 
vn -0.748031 0.015748 -0.661417 
vn -0.622047 0.181102 0.76378 
vn -0.992126 0.0944882 0 
vn -1 0.023622 0 
vn -0.748031 0.015748 0.661417 
vn -0.692913 0.0944882 0.716535 
vn 0.606299 0.417323 0.669291 
vn -0.708661 0.322835 -0.622047 
vn -0.708661 0.322835 0.622047 
vn -0.692913 -0.0708661 -0.724409 
vn -0.614173 -0.409449 -0.677165 
vn -0.952756 0.307087 0 
vn -0.692913 -0.0708661 0.724409 
vn -0.614173 -0.409449 0.677165 
vn -0.992126 -0.110236 0 
vn -0.897638 -0.440945 0 
vn -1 0 0 
vn -0.795276 0.141732 0.590551 
vn -0.716535 0 0.700787 
vn -0.992126 0.141732 0 
vn -0.795276 0.141732 -0.590551 
vn -0.984252 -0.181102 0 
vn -0.716535 0 -0.700787 
vn -0.590551 -0.173228 0.787402 
vn -0.590551 -0.173228 -0.787402 
vn 0.598425 0.15748 0.787402 
vn 0.795276 -0.149606 -0.590551 
vn -0.937008 0.346457 0 
vn -1 0.00787402 0 
vn -0.653543 0.346457 0.669291 
vn -0.653543 0.346457 -0.669291 
vn -0.708661 -0.015748 0.708661 
vn -0.708661 -0.015748 -0.708661 
vn -0.685039 -0.417323 0.598425 
vn -0.92126 -0.393701 0 
vn -0.685039 -0.417323 -0.598425 
vn -0.00787402 -0.0629921 1 
vn 0.543307 -0.535433 -0.645669 
vn 0.685039 0.322835 -0.653543 
vn -0.00787402 -0.0629921 -1 
vn -0.692913 0.228346 -0.685039 
vn 0 0.23622 -0.968504 
vn -0.700787 -0.0708661 -0.708661 
vn -1 -0.0708661 -0.00787402 
vn -0.976378 0.204724 0.00787402 
vn -0.661417 -0.377953 -0.653543 
vn 0 -0.385827 -0.92126 
vn -0.937008 -0.354331 0.00787402 
vn -0.692913 0.188976 0.700787 
vn -0.661417 -0.338583 0.669291 
vn -0.708661 -0.0708661 0.700787 
vn 0 -0.322835 0.944882 
vn 0 0.181102 0.984252 
vn 0 -0.259843 0.968504 
vn -0.622047 -0.275591 0.732283 
vn -0.692913 -0.0708661 0.716535 
vn -0.944882 -0.307087 0.11811 
vn -0.992126 -0.0944882 0.023622 
vn -0.740157 0.165354 0.653543 
vn -0.724409 -0.346457 -0.598425 
vn -0.984252 0.133858 -0.0787402 
vn -0.716535 -0.11811 -0.692913 
vn -0.661417 0.11811 -0.740157 
vn 0 -0.362205 -0.929134 
vn 0.984252 0.133858 -0.0787402 
vn 0.133858 0.251969 -0.96063 
vn 0.133858 0.251969 0.96063 
vn -0.622047 0.244094 -0.748031 
vn -0.708661 0.023622 -0.700787 
vn -0.968504 0.23622 0 
vn -0.748031 -0.181102 -0.637795 
vn -0.622047 0.244094 0.748031 
vn -1 0.023622 0 
vn -0.984252 -0.165354 0 
vn -0.748031 -0.181102 0.637795 
vn -0.708661 0.023622 0.700787 
vn -0.637795 0.519685 0.566929 
vn 0 -0.480315 0.88189 
vn -0.606299 -0.472441 0.637795 
vn -0.582677 0.503937 -0.629921 
vn -0.653543 -0.464567 -0.598425 
vn -0.716535 0.00787402 -0.692913 
vn -0.88189 -0.464567 0.0472441 
vn -1 0.023622 0 
vn -0.858268 0.503937 -0.0551181 
vn -0.724409 0.0393701 0.692913 
vn 0 0.527559 0.850394 
vn -0.598425 0.527559 0.598425 
vn 0 -0.338583 0.944882 
vn -0.669291 -0.338583 0.669291 
vn -0.700787 0.102362 0.700787 
vn -0.992126 0.102362 0 
vn -0.944882 -0.338583 0 
vn -0.850394 0.527559 0 
vn -0.669291 -0.338583 -0.669291 
vn -0.598425 0.527559 -0.598425 
vn -0.700787 0.102362 -0.700787 
vn -0.700787 -0.133858 -0.700787 
vn 0 0.0551181 -1 
vn -0.708661 0.0551181 -0.708661 
vn 0 -0.133858 -0.992126 
vn 0.700787 -0.133858 -0.700787 
vn 0.708661 0.0551181 -0.708661 
vn 0 -0.314961 -0.952756 
vn -0.669291 -0.314961 -0.669291 
vn -0.952756 -0.314961 0 
vn 0.669291 -0.314961 -0.669291 
vn 0.952756 -0.314961 0 
vn -0.645669 0.165354 -0.748031 
vn 0 0.0472441 -1 
vn 0 0.188976 -0.984252 
vn 0.645669 0.165354 -0.748031 
vn -0.716535 0.023622 -0.700787 
vn 0 -0.110236 -0.992126 
vn 0.716535 0.023622 -0.700787 
vn -0.76378 -0.133858 -0.637795 
vn 0.76378 -0.133858 -0.637795 
vn -0.629921 0.401575 -0.661417 
vn -0.700787 0.0314961 -0.716535 
vn 0.0393701 0.393701 -0.92126 
vn -0.929134 -0.362205 0 
vn -0.685039 -0.377953 -0.622047 
vn 0 -0.015748 -1 
vn -0.0629921 -0.425197 -0.905512 
vn 0.677165 0.385827 -0.629921 
vn 0.590551 -0.480315 0.653543 
vn 0.929134 0.377953 0 
vn 0.590551 -0.480315 -0.653543 
vn 0.700787 -0.0629921 -0.708661 
vn 0.645669 0.330709 -0.685039 
vn 0.700787 0.0314961 -0.708661 
vn 0.929134 0.370079 -0.0393701 
vn 0.685039 -0.23622 -0.685039 
vn 0 0.015748 -1 
vn 0 0.314961 -0.944882 
vn 0 -0.251969 -0.968504 
vn -0.645669 0.330709 -0.685039 
vn -0.685039 -0.23622 -0.685039 
vn -0.700787 0.0314961 -0.708661 
vn -0.976378 -0.212598 0 
vn -0.929134 0.370079 -0.0393701 
vn 0.708661 0.0787402 -0.700787 
vn 0.685039 -0.204724 -0.700787 
vn 0.661417 0.346457 -0.669291 
vn 0 -0.212598 -0.976378 
vn 0 0.354331 -0.937008 
vn 0 0.0787402 -1 
vn -0.708661 0.0787402 -0.700787 
vn -0.685039 -0.204724 -0.700787 
vn -0.661417 0.346457 -0.669291 
vn 0.76378 0.19685 -0.614173 
vn 0.716535 0.0944882 -0.685039 
vn 0.141732 0.188976 -0.968504 
vn 1 -0.0314961 0 
vn 0.669291 -0.023622 -0.740157 
vn 0.023622 0.0944882 -0.992126 
vn -0.622047 0.181102 -0.76378 
vn -0.0787402 0 -1 
vn -0.692913 0.0944882 -0.716535 
vn -0.748031 0.015748 -0.661417 
vn 0.606299 0.417323 -0.669291 
vn 0.685039 0.0787402 -0.724409 
vn 0.606299 0.417323 0.669291 
vn -0.0787402 0.370079 -0.929134 
vn 0.708661 -0.314961 -0.629921 
vn 0 0.00787402 -1 
vn -0.708661 0.322835 -0.622047 
vn 0.0708661 -0.354331 -0.929134 
vn -0.692913 -0.0708661 -0.724409 
vn -0.614173 -0.409449 -0.677165 
vn -0.614173 -0.409449 0.677165 
vn -0.795276 0.141732 -0.590551 
vn -0.716535 0 -0.700787 
vn -0.19685 0.149606 -0.968504 
vn -0.590551 -0.173228 -0.787402 
vn 0.795276 -0.149606 -0.590551 
vn 0.716535 -0.00787402 -0.692913 
vn 0.598425 0.15748 -0.787402 
vn 0.19685 -0.15748 -0.968504 
vn 0.00787402 -0.00787402 -1 
vn -1 0.00787402 0 
vn -0.653543 0.346457 -0.669291 
vn -0.708661 -0.015748 -0.708661 
vn 0.023622 0.330709 -0.944882 
vn -0.92126 -0.393701 0 
vn -0.685039 -0.417323 -0.598425 
vn 0.543307 -0.535433 -0.645669 
vn 0.685039 -0.125984 -0.716535 
vn 0.685039 0.322835 -0.653543 
vn -0.0944882 -0.472441 -0.874016 
vn -0.00787402 -0.0629921 -1 
vn -0.692913 0.228346 -0.685039 
vn 0 0.23622 -0.968504 
vn 0 -0.0708661 -1 
vn 0.692913 0.228346 -0.685039 
vn -0.700787 -0.0708661 -0.708661 
vn -0.976378 0.204724 0.00787402 
vn -0.661417 -0.377953 -0.653543 
vn 0 -0.385827 -0.92126 
vn 0.661417 -0.377953 -0.653543 
vn -0.937008 -0.354331 0.00787402 
vn 0.700787 -0.0708661 -0.708661 
vn -0.724409 -0.346457 -0.598425 
vn 0.944882 -0.307087 0.11811 
vn -0.716535 -0.11811 -0.692913 
vn -0.661417 0.11811 -0.740157 
vn 0 -0.362205 -0.929134 
vn 0.724409 -0.346457 -0.598425 
vn 0 -0.125984 -0.992126 
vn 0 0.102362 -0.992126 
vn 0.661417 0.11811 -0.740157 
vn 0.716535 -0.11811 -0.692913 
vn 0.748031 0.259843 -0.614173 
vn 0.708661 0.023622 -0.700787 
vn 0.133858 0.251969 -0.96063 
vn 0.968504 -0.251969 0 
vn 0.629921 -0.23622 -0.740157 
vn 0 0.023622 -1 
vn -0.622047 0.244094 -0.748031 
vn -0.110236 -0.204724 -0.976378 
vn -0.708661 0.023622 -0.700787 
vn -0.968504 0.23622 0 
vn -0.748031 -0.181102 -0.637795 
vn -0.748031 -0.181102 0.637795 
vn 1 0.023622 0 
vn 0.582677 0.503937 -0.629921 
vn 0.716535 0.00787402 -0.692913 
vn 0.653543 -0.464567 -0.598425 
vn 0 -0.00787402 -1 
vn 0 0.511811 -0.858268 
vn 0 -0.472441 -0.88189 
vn -0.582677 0.503937 -0.629921 
vn -0.653543 -0.464567 -0.598425 
vn -0.716535 0.00787402 -0.692913 
vn -1 0.023622 0 
vn 0 0.527559 0.850394 
vn 0.850394 0.527559 0 
vn 0.944882 -0.338583 0 
vn 0.598425 0.527559 -0.598425 
vn 0.669291 -0.338583 -0.669291 
vn 0.700787 0.102362 -0.700787 
vn -0.944882 -0.338583 0 
vn -0.850394 0.527559 0 
vn -0.669291 -0.338583 -0.669291 
vn -0.598425 0.527559 -0.598425 
vn -0.700787 0.102362 -0.700787 
vn 0 0.102362 -0.992126 
vn 0 -0.338583 -0.944882 
vn 0 0.527559 -0.850394 

vt 3.98291 -57.4369 
vt 3.98841 -57.4491 
vt 3.98792 -57.4369 
vt 3.9796 -57.4614 
vt 3.98557 -57.4614 
vt 4 -57.4369 
vt 4 -57.4614 
vt 4 -57.4491 
vt 4.01709 -57.4369 
vt 4.01159 -57.4491 
vt 4.01443 -57.4614 
vt 4.01208 -57.4369 
vt 3.98678 -57.4121 
vt 3.98271 -57.4332 
vt 3.9886 -57.4236 
vt 3.99904 -57.4151 
vt 3.98801 -57.4345 
vt 4.01636 -57.4195 
vt 4.01358 -57.4409 
vt 4.01124 -57.4293 
vt 4.01129 -57.4182 
vt 4.0008 -57.4377 
vt 3.99992 -57.4264 
vt 3.98193 -57.396 
vt 4.01735 -57.396 
vt 3.98712 -57.3994 
vt 4.01216 -57.3994 
vt 3.98379 -57.4114 
vt 3.98748 -57.4213 
vt 3.99964 -57.4132 
vt 3.99964 -57.4009 
vt 3.99964 -57.4227 
vt 4.01181 -57.4213 
vt 4.0155 -57.4114 
vt 4.01203 -56.5457 
vt 3.99976 -56.5567 
vt 4.01553 -56.5606 
vt 4.00019 -56.5428 
vt 3.99933 -56.5706 
vt 4.01298 -56.574 
vt 3.98568 -56.5673 
vt 4.01864 -56.5754 
vt 3.98399 -56.5528 
vt 3.98003 -56.5659 
vt 3.98836 -56.5399 
vt 4.00019 -56.5428 
vt 4.01126 -56.5789 
vt 4.01994 -56.5653 
vt 4.01417 -56.5653 
vt 4.00026 -56.5653 
vt 4.01757 -56.5925 
vt 4.01248 -56.5925 
vt 4.00019 -56.5925 
vt 4.00069 -56.5789 
vt 3.99012 -56.5789 
vt 3.9879 -56.5925 
vt 3.98635 -56.5653 
vt 3.98281 -56.5925 
vt 3.98059 -56.5653 
vt 3.99978 -56.5947 
vt 3.98736 -56.5816 
vt 3.98925 -56.5962 
vt 3.99978 -56.5798 
vt 4.01221 -56.5816 
vt 4.01032 -56.5962 
vt 3.99978 -56.6086 
vt 3.98921 -56.6101 
vt 4.01035 -56.6101 
vt 4.01221 -56.5902 
vt 4.01035 -56.6174 
vt 4.01076 -56.6288 
vt 4.00004 -56.636 
vt 4.0142 -56.6392 
vt 4.00004 -56.6264 
vt 3.98932 -56.6288 
vt 3.98588 -56.6392 
vt 4.00004 -56.6509 
vt 4.01085 -56.6533 
vt 3.98922 -56.6533 
vt 4.01076 -56.6403 
vt 3.98922 -56.6649 
vt 3.98932 -56.6288 
vt 4.01076 -56.6403 
vt 4.00941 -56.6518 
vt 4.00004 -56.6427 
vt 4.01085 -56.6649 
vt 4.00004 -56.6539 
vt 4.00004 -56.6673 
vt 3.98922 -56.6649 
vt 3.99066 -56.6518 
vt 3.98932 -56.6403 
vt 3.98736 -56.5816 
vt 3.98736 -56.5902 
vt 3.98387 -56.6053 
vt 3.98921 -56.6174 
vt 3.99978 -56.592 
vt 3.99978 -56.6076 
vt 3.99978 -56.6189 
vt 4.01035 -56.6174 
vt 4.01569 -56.6053 
vt 4.01221 -56.5902 
vt 4.01994 -56.5653 
vt 4.01417 -56.5653 
vt 4.01757 -56.5925 
vt 4.01248 -56.5925 
vt 4.01666 -56.5789 
vt 3.98281 -56.5925 
vt 3.98059 -56.5653 
vt 3.9879 -56.5925 
vt 3.98635 -56.5653 
vt 3.98473 -56.5789 
vt 4.00069 -56.5789 
vt 4.00019 -56.5925 
vt 4.00026 -56.5653 
vt 4.01864 -56.5754 
vt 4.01021 -56.5593 
vt 4.01298 -56.574 
vt 4.01203 -56.5457 
vt 3.99933 -56.5706 
vt 3.98003 -56.5659 
vt 3.99976 -56.5567 
vt 3.98568 -56.5673 
vt 4.00019 -56.5428 
vt 3.98836 -56.5399 
vt 3.98932 -56.5541 
vt 3.99964 -57.4029 
vt 3.98712 -57.3926 
vt 3.98914 -57.4041 
vt 3.99964 -57.3912 
vt 4.01216 -57.3926 
vt 3.98193 -57.396 
vt 4.01014 -57.4041 
vt 3.99964 -57.4133 
vt 4.01735 -57.396 
vt 3.98748 -57.4147 
vt 4.01181 -57.4147 
vt 3.99964 -57.4009 
vt 4.01181 -57.4213 
vt 3.98282 -57.4222 
vt 3.98678 -57.4121 
vt 3.99904 -57.4151 
vt 3.98678 -57.4121 
vt 3.99992 -57.4264 
vt 4.01129 -57.4182 
vt 3.98801 -57.4345 
vt 3.98271 -57.4332 
vt 4.0008 -57.4377 
vt 4.01701 -57.4307 
vt 4.01358 -57.4409 
vt 4.0241 -57.4325 
vt 4.01636 -57.4195 
vt 4.01358 -57.4409 
vt 3.9825 -57.4491 
vt 3.98792 -57.4369 
vt 3.98291 -57.4369 
vt 4 -57.4491 
vt 4 -57.4369 
vt 3.98557 -57.4614 
vt 3.9796 -57.4614 
vt 4 -57.4614 
vt 4.01208 -57.4369 
vt 4.01443 -57.4614 
vt 4.0175 -57.4491 
vt 4 -57.4369 
vt 4.01709 -57.4369 
vt 4.0204 -57.4614 
vt 3.98291 -57.4369 
vt 3.9796 -57.4614 
vt 4.01159 -57.4491 
vt 4.01443 -57.4614 
vt 4.01208 -57.4369 
vt 4 -57.4614 
vt 4 -57.4369 
vt 4 -57.4491 
vt 3.98841 -57.4491 
vt 3.98557 -57.4614 
vt 3.98792 -57.4369 
vt 4.0118 -57.4182 
vt 4.01091 -57.4293 
vt 4 -57.4195 
vt 4.01232 -57.4409 
vt 4 -57.4304 
vt 4 -57.4423 
vt 3.98768 -57.4409 
vt 3.98909 -57.4293 
vt 3.9882 -57.4182 
vt 3.98759 -57.3926 
vt 3.98461 -57.4027 
vt 4.00002 -57.396 
vt 3.98793 -57.4147 
vt 3.98293 -57.4133 
vt 4.00035 -57.407 
vt 4 -57.418 
vt 4.01244 -57.3994 
vt 4.01609 -57.4114 
vt 4.01207 -57.4213 
vt 4.01759 -57.4009 
vt 4.01207 -57.4213 
vt 4.01392 -56.5673 
vt 4.01604 -56.5528 
vt 4.00021 -56.5659 
vt 4.01209 -56.5399 
vt 3.98083 -56.5706 
vt 3.98651 -56.5673 
vt 4.00021 -56.5512 
vt 4.00021 -56.5386 
vt 3.98833 -56.5399 
vt 3.98438 -56.5528 
vt 3.98964 -56.5789 
vt 4.00021 -56.5789 
vt 4.00021 -56.5653 
vt 3.9863 -56.5653 
vt 4.01078 -56.5789 
vt 4.01412 -56.5653 
vt 4.00021 -56.5925 
vt 3.98792 -56.5925 
vt 4.0125 -56.5925 
vt 3.98283 -56.5925 
vt 3.98763 -56.5816 
vt 3.98985 -56.5962 
vt 3.98511 -56.6086 
vt 3.99997 -56.5859 
vt 3.98946 -56.6101 
vt 4.0003 -56.5998 
vt 3.99995 -56.6138 
vt 4.0123 -56.5902 
vt 4.01044 -56.6174 
vt 4.01076 -56.6035 
vt 4.01047 -56.6288 
vt 4.01384 -56.6392 
vt 3.99995 -56.6345 
vt 4.01065 -56.6533 
vt 3.99994 -56.6468 
vt 4.00003 -56.6591 
vt 3.98942 -56.6403 
vt 3.98604 -56.6544 
vt 3.98942 -56.6649 
vt 4.01047 -56.6288 
vt 4.00915 -56.6418 
vt 4.01047 -56.6288 
vt 3.99995 -56.6345 
vt 4.01065 -56.6533 
vt 3.99994 -56.6468 
vt 3.98942 -56.6403 
vt 4.00003 -56.6591 
vt 3.99074 -56.6518 
vt 3.98942 -56.6649 
vt 3.98942 -56.6649 
vt 3.97797 -56.592 
vt 3.98763 -56.5816 
vt 3.98451 -56.5943 
vt 3.99997 -56.5859 
vt 3.98946 -56.6101 
vt 3.98511 -56.6086 
vt 4.0003 -56.5998 
vt 3.99995 -56.6138 
vt 4.0123 -56.5902 
vt 4.01609 -56.6053 
vt 4.01044 -56.6174 
vt 3.9863 -56.5653 
vt 3.98792 -56.5925 
vt 3.98425 -56.5789 
vt 4.00021 -56.5789 
vt 4.00021 -56.5925 
vt 4.00021 -56.5653 
vt 4.0125 -56.5925 
vt 4.01412 -56.5653 
vt 4.01618 -56.5789 
vt 4.00021 -56.5754 
vt 4.01392 -56.574 
vt 4.01069 -56.5593 
vt 4.00021 -56.5604 
vt 3.98973 -56.5593 
vt 4.00021 -56.5469 
vt 4.01209 -56.5457 
vt 4.01701 -56.5428 
vt 3.98651 -56.574 
vt 3.98833 -56.5457 
vt 3.98083 -56.5706 
vt 3.98341 -56.5428 
vt 3.98759 -57.3926 
vt 3.98993 -57.4041 
vt 3.98293 -57.4133 
vt 4.00002 -57.396 
vt 3.98793 -57.4147 
vt 4.01759 -57.4009 
vt 4.01207 -57.4213 
vt 4.00035 -57.407 
vt 4 -57.418 
vt 4.01244 -57.3994 
vt 4.01207 -57.4213 
vt 4.01077 -57.4099 
vt 4.01647 -57.4222 
vt 4.0118 -57.4121 
vt 4 -57.4204 
vt 4 -57.4108 
vt 3.9882 -57.4121 
vt 4.01232 -57.4345 
vt 4 -57.4332 
vt 3.98768 -57.4345 
vt 3.97671 -57.4264 
vt 3.98353 -57.4222 
vt 4.0175 -57.4491 
vt 4.01208 -57.4369 
vt 4 -57.4491 
vt 4 -57.4369 
vt 3.98792 -57.4369 
vt 4.01443 -57.4614 
vt 4 -57.4614 
vt 4.0204 -57.4614 
vt 3.98557 -57.4614 
vt 3.9825 -57.4491 
vt 4.01159 -57.4491 
vt 4.01709 -57.4369 
vt 4.01208 -57.4369 
vt 4 -57.4369 
vt 4.0204 -57.4614 
vt 4.01443 -57.4614 
vt 4 -57.4614 
vt 4 -57.4491 
vt 3.98841 -57.4491 
vt 3.98557 -57.4614 
vt 3.98792 -57.4369 
vt 3.98291 -57.4369 
vt 4.01322 -57.4121 
vt 4.01322 -57.4121 
vt 4.0114 -57.4236 
vt 4.00096 -57.4151 
vt 4.01729 -57.4332 
vt 4.01199 -57.4345 
vt 4.00008 -57.4264 
vt 3.98871 -57.4182 
vt 3.9992 -57.4377 
vt 3.98876 -57.4293 
vt 3.98364 -57.4195 
vt 3.98642 -57.4409 
vt 3.98642 -57.4409 
vt 4.00036 -57.3912 
vt 4.00036 -57.4009 
vt 4.01288 -57.3926 
vt 3.98784 -57.3926 
vt 4.01621 -57.4027 
vt 4.01807 -57.396 
vt 3.9845 -57.4027 
vt 3.98265 -57.396 
vt 4.01252 -57.4147 
vt 4.00036 -57.4133 
vt 3.98819 -57.4147 
vt 4.00036 -57.4009 
vt 3.98819 -57.4213 
vt 3.98136 -56.5754 
vt 3.98797 -56.5457 
vt 3.98702 -56.574 
vt 4.01997 -56.5659 
vt 3.98447 -56.5606 
vt 4.00067 -56.5706 
vt 4.00024 -56.5567 
vt 3.99981 -56.5428 
vt 4.01432 -56.5673 
vt 4.01164 -56.5399 
vt 4.01601 -56.5528 
vt 3.98006 -56.5653 
vt 3.98874 -56.5789 
vt 3.98583 -56.5653 
vt 3.98243 -56.5925 
vt 3.98752 -56.5925 
vt 3.99981 -56.5925 
vt 3.99974 -56.5653 
vt 3.99931 -56.5789 
vt 4.01719 -56.5925 
vt 4.01941 -56.5653 
vt 4.00988 -56.5789 
vt 4.0121 -56.5925 
vt 4.01365 -56.5653 
vt 4.01264 -56.5816 
vt 4.01264 -56.5902 
vt 4.01075 -56.6035 
vt 4.00022 -56.592 
vt 4.01079 -56.6174 
vt 3.98779 -56.5902 
vt 4.00022 -56.605 
vt 4.00022 -56.6189 
vt 3.98965 -56.6174 
vt 3.98968 -56.6035 
vt 4.01068 -56.6288 
vt 3.98924 -56.6403 
vt 4.01068 -56.6403 
vt 3.9858 -56.6544 
vt 3.98915 -56.6649 
vt 3.99996 -56.6427 
vt 4.01412 -56.6544 
vt 4.01078 -56.6649 
vt 3.99996 -56.6576 
vt 3.99996 -56.6673 
vt 3.99996 -56.6397 
vt 3.98924 -56.6288 
vt 3.99059 -56.6418 
vt 3.99996 -56.6264 
vt 4.01068 -56.6288 
vt 3.99996 -56.6509 
vt 4.00934 -56.6418 
vt 3.98915 -56.6533 
vt 4.01078 -56.6533 
vt 3.98924 -56.6403 
vt 4.01078 -56.6649 
vt 4.00022 -56.5798 
vt 4.00022 -56.592 
vt 4.01264 -56.5816 
vt 3.98779 -56.5816 
vt 4.01613 -56.5943 
vt 3.98431 -56.5943 
vt 4.01079 -56.6101 
vt 4.00022 -56.6086 
vt 3.98965 -56.6101 
vt 4.02272 -56.5998 
vt 3.98965 -56.6174 
vt 3.98779 -56.5902 
vt 3.97772 -56.5998 
vt 3.98583 -56.5653 
vt 3.98006 -56.5653 
vt 3.98334 -56.5789 
vt 3.99931 -56.5789 
vt 3.99974 -56.5653 
vt 3.98752 -56.5925 
vt 3.98243 -56.5925 
vt 3.99981 -56.5925 
vt 4.01365 -56.5653 
vt 4.0121 -56.5925 
vt 4.01527 -56.5789 
vt 4.01719 -56.5925 
vt 4.01941 -56.5653 
vt 3.98136 -56.5754 
vt 3.98702 -56.574 
vt 3.98979 -56.5593 
vt 4.00067 -56.5706 
vt 4.00024 -56.5567 
vt 3.98797 -56.5457 
vt 4.01432 -56.5673 
vt 3.99981 -56.5428 
vt 4.01068 -56.5541 
vt 4.01164 -56.5399 
vt 4.01997 -56.5659 
vt 3.99981 -56.5428 
vt 4.01807 -57.396 
vt 3.98265 -57.396 
vt 4.01288 -57.3994 
vt 4.01086 -57.4099 
vt 4.00036 -57.4009 
vt 4.01252 -57.4213 
vt 3.98784 -57.3994 
vt 4.00036 -57.4111 
vt 4.00036 -57.4227 
vt 3.98819 -57.4213 
vt 3.98986 -57.4099 
vt 4.01322 -57.4121 
vt 4.01729 -57.4332 
vt 4.01199 -57.4345 
vt 3.98871 -57.4182 
vt 3.98642 -57.4409 
vt 3.98299 -57.4307 
vt 3.9992 -57.4377 
vt 4.00008 -57.4264 
vt 4.00096 -57.4151 
vt 4.01718 -57.4222 
vt 4.01709 -57.4369 
vt 4.01208 -57.4369 
vt 4.0204 -57.4614 
vt 4.01443 -57.4614 
vt 4.0175 -57.4491 
vt 4 -57.4491 
vt 4 -57.4614 
vt 4 -57.4369 
vt 3.98557 -57.4614 
vt 3.98792 -57.4369 
vt 3.9825 -57.4491 
vt 3.98841 -57.4491 
vt 4 -57.4369 
vt 3.98792 -57.4369 
vt 4 -57.4491 
vt 4.01159 -57.4491 
vt 4.01208 -57.4369 
vt 4 -57.4614 
vt 3.98557 -57.4614 
vt 3.9796 -57.4614 
vt 4.01443 -57.4614 
vt 4.0204 -57.4614 
vt 3.9882 -57.4121 
vt 4 -57.4224 
vt 4 -57.4108 
vt 4.0118 -57.4121 
vt 3.98909 -57.4236 
vt 4 -57.4332 
vt 4.01091 -57.4236 
vt 3.98768 -57.4345 
vt 4.01232 -57.4345 
vt 4.01241 -57.3926 
vt 4.01539 -57.4027 
vt 3.99998 -57.396 
vt 4.01707 -57.4133 
vt 4.01207 -57.4147 
vt 3.99965 -57.407 
vt 4 -57.418 
vt 3.98756 -57.3994 
vt 3.98793 -57.4213 
vt 3.98241 -57.4009 
vt 3.98793 -57.4213 
vt 3.98391 -57.4114 
vt 3.98791 -56.5457 
vt 3.98396 -56.5606 
vt 3.98299 -56.5428 
vt 3.98608 -56.574 
vt 3.99979 -56.5622 
vt 3.99979 -56.5469 
vt 3.99979 -56.5754 
vt 4.01167 -56.5457 
vt 4.01349 -56.574 
vt 4.01562 -56.5606 
vt 4.01917 -56.5706 
vt 4.01659 -56.5428 
vt 4.01036 -56.5789 
vt 4.01208 -56.5925 
vt 4.0137 -56.5653 
vt 3.99979 -56.5925 
vt 3.99979 -56.5653 
vt 3.99979 -56.5789 
vt 3.98922 -56.5789 
vt 3.9875 -56.5925 
vt 3.98588 -56.5653 
vt 4.01237 -56.5816 
vt 4.01015 -56.5962 
vt 4.00003 -56.5859 
vt 4.01489 -56.6086 
vt 4.01054 -56.6101 
vt 3.9997 -56.5998 
vt 3.9877 -56.5902 
vt 4.00005 -56.6138 
vt 3.98924 -56.6035 
vt 3.98956 -56.6174 
vt 3.98953 -56.6288 
vt 3.98616 -56.6392 
vt 3.98953 -56.6288 
vt 4.00005 -56.6345 
vt 3.98935 -56.6533 
vt 4.00006 -56.6468 
vt 4.01058 -56.6403 
vt 3.99997 -56.6591 
vt 4.01396 -56.6544 
vt 4.01058 -56.6649 
vt 4.01058 -56.6649 
vt 3.98953 -56.6288 
vt 3.99085 -56.6418 
vt 4.00005 -56.6345 
vt 3.98935 -56.6533 
vt 4.01058 -56.6649 
vt 4.00926 -56.6518 
vt 4.01058 -56.6403 
vt 3.99997 -56.6591 
vt 4.00006 -56.6468 
vt 4.02203 -56.592 
vt 4.01237 -56.5816 
vt 4.01549 -56.5943 
vt 4.00003 -56.5859 
vt 4.01489 -56.6086 
vt 4.01054 -56.6101 
vt 3.98956 -56.6174 
vt 3.98391 -56.6053 
vt 3.9877 -56.5902 
vt 4.00005 -56.6138 
vt 3.9997 -56.5998 
vt 4.0137 -56.5653 
vt 3.99979 -56.5653 
vt 3.99979 -56.5789 
vt 3.98588 -56.5653 
vt 4.01575 -56.5789 
vt 4.01946 -56.5653 
vt 4.01208 -56.5925 
vt 3.99979 -56.5925 
vt 3.9875 -56.5925 
vt 4.01717 -56.5925 
vt 3.98382 -56.5789 
vt 3.98608 -56.5673 
vt 4.01917 -56.5706 
vt 3.98931 -56.5541 
vt 3.98791 -56.5399 
vt 3.99979 -56.5659 
vt 4.01349 -56.5673 
vt 3.99979 -56.5531 
vt 3.99979 -56.5386 
vt 4.01167 -56.5399 
vt 4.01027 -56.5541 
vt 4.01241 -57.3926 
vt 4.01007 -57.4041 
vt 3.99998 -57.396 
vt 4.01707 -57.4133 
vt 4.01207 -57.4147 
vt 3.99965 -57.407 
vt 3.98756 -57.3994 
vt 4 -57.418 
vt 3.98923 -57.4099 
vt 3.98241 -57.4009 
vt 3.98793 -57.4213 
vt 3.98793 -57.4213 
vt 3.97671 -57.4264 
vt 3.9882 -57.4182 
vt 3.98353 -57.4307 
vt 3.98768 -57.4409 
vt 4 -57.4325 
vt 4 -57.4195 
vt 4 -57.4423 
vt 4.0118 -57.4182 
vt 4.01232 -57.4409 
vt 4.01647 -57.4307 
vt 4.02329 -57.4264 
vt 4 -57.4369 
vt 3.98291 -57.4369 
vt 3.9796 -57.4614 
vt 3.98792 -57.4369 
vt 3.98557 -57.4614 
vt 3.9825 -57.4491 
vt 4.0204 -57.4614 
vt 4.01709 -57.4369 
vt 4.01443 -57.4614 
vt 4.01208 -57.4369 
vt 4.0175 -57.4491 
vt 4 -57.4491 
vt 4 -57.4614 
vt 4 -57.4369 

usemtl Meshpart21Mtl

f 6/6/6 3/3/3 2/2/2 
f 7/7/7 2/2/2 5/5/5 
f 8/8/8 6/6/6 2/2/2 
f 2/2/2 7/7/7 8/8/8 
f 11/11/11 10/10/10 7/7/7 
f 10/10/10 8/8/8 7/7/7 
f 10/10/10 6/6/6 8/8/8 
f 6/6/6 10/10/10 12/12/12 
f 16/16/16 13/13/13 15/15/15 
f 19/19/19 20/20/20 22/22/22 
f 20/20/20 21/21/21 23/23/23 
f 20/20/20 23/23/23 22/22/22 
f 21/21/21 16/16/16 23/23/23 
f 22/22/22 23/23/23 17/17/17 
f 23/23/23 16/16/16 15/15/15 
f 23/23/23 15/15/15 17/17/17 
f 30/30/30 26/26/26 28/28/28 
f 29/29/29 30/30/30 28/28/28 
f 26/26/26 30/30/30 31/31/31 
f 30/30/30 27/27/27 31/31/31 
f 30/30/30 29/29/29 32/32/32 
f 33/33/33 30/30/30 32/32/32 
f 27/27/27 30/30/30 34/34/34 
f 30/30/30 33/33/33 34/34/34 
f 35/35/35 36/36/36 37/37/37 
f 36/36/36 35/35/35 38/38/38 
f 39/39/39 37/37/37 36/36/36 
f 37/37/37 39/39/39 40/40/40 
f 36/36/36 41/41/41 39/39/39 
f 41/41/41 36/36/36 43/43/43 
f 38/38/38 43/43/43 36/36/36 
f 43/43/43 38/38/38 45/45/45 
f 50/50/50 47/47/47 49/49/49 
f 52/52/52 47/47/47 53/53/53 
f 47/47/47 54/54/54 53/53/53 
f 47/47/47 50/50/50 54/54/54 
f 55/55/55 53/53/53 54/54/54 
f 54/54/54 50/50/50 55/55/55 
f 53/53/53 55/55/55 56/56/56 
f 50/50/50 57/57/57 55/55/55 
f 60/60/60 61/61/61 62/62/62 
f 61/61/61 60/60/60 63/63/63 
f 64/64/64 63/63/63 60/60/60 
f 65/65/65 64/64/64 60/60/60 
f 62/62/62 66/66/66 60/60/60 
f 65/65/65 60/60/60 66/66/66 
f 66/66/66 62/62/62 67/67/67 
f 68/68/68 65/65/65 66/66/66 
f 71/71/71 72/72/72 73/73/73 
f 72/72/72 71/71/71 74/74/74 
f 75/75/75 72/72/72 74/74/74 
f 72/72/72 75/75/75 76/76/76 
f 77/77/77 73/73/73 72/72/72 
f 76/76/76 77/77/77 72/72/72 
f 73/73/73 77/77/77 78/78/78 
f 77/77/77 76/76/76 79/79/79 
f 85/85/85 84/84/84 83/83/83 
f 87/87/87 86/86/86 84/84/84 
f 84/84/84 85/85/85 87/87/87 
f 86/86/86 87/87/87 88/88/88 
f 88/88/88 87/87/87 89/89/89 
f 87/87/87 85/85/85 90/90/90 
f 87/87/87 90/90/90 89/89/89 
f 85/85/85 91/91/91 90/90/90 
f 94/94/94 96/96/96 93/93/93 
f 97/97/97 94/94/94 95/95/95 
f 96/96/96 94/94/94 97/97/97 
f 97/97/97 95/95/95 98/98/98 
f 99/99/99 97/97/97 98/98/98 
f 100/100/100 96/96/96 97/97/97 
f 97/97/97 99/99/99 100/100/100 
f 96/96/96 100/100/100 101/101/101 
f 109/109/109 112/112/112 111/111/111 
f 112/112/112 110/110/110 111/111/111 
f 112/112/112 109/109/109 113/113/113 
f 105/105/105 112/112/112 113/113/113 
f 112/112/112 105/105/105 106/106/106 
f 103/103/103 112/112/112 106/106/106 
f 110/110/110 112/112/112 114/114/114 
f 112/112/112 103/103/103 114/114/114 
f 117/117/117 116/116/116 119/119/119 
f 116/116/116 121/121/121 119/119/119 
f 116/116/116 118/118/118 121/121/121 
f 119/119/119 121/121/121 122/122/122 
f 118/118/118 123/123/123 121/121/121 
f 121/121/121 123/123/123 125/125/125 
f 123/123/123 124/124/124 125/125/125 
f 121/121/121 125/125/125 122/122/122 
f 126/126/126 127/127/127 128/128/128 
f 127/127/127 126/126/126 129/129/129 
f 130/130/130 129/129/129 126/126/126 
f 132/132/132 130/130/130 126/126/126 
f 128/128/128 133/133/133 126/126/126 
f 132/132/132 126/126/126 133/133/133 
f 133/133/133 128/128/128 135/135/135 
f 136/136/136 132/132/132 133/133/133 
f 139/139/139 141/141/141 140/140/140 
f 141/141/141 139/139/139 143/143/143 
f 143/143/143 144/144/144 141/141/141 
f 145/145/145 143/143/143 139/139/139 
f 143/143/143 145/145/145 147/147/147 
f 147/147/147 148/148/148 143/143/143 
f 144/144/144 143/143/143 148/148/148 
f 148/148/148 147/147/147 149/149/149 
f 156/156/156 154/154/154 153/153/153 
f 154/154/154 156/156/156 157/157/157 
f 158/158/158 156/156/156 153/153/153 
f 156/156/156 158/158/158 160/160/160 
f 156/156/156 161/161/161 157/157/157 
f 162/162/162 156/156/156 160/160/160 
f 161/161/161 156/156/156 163/163/163 
f 156/156/156 162/162/162 163/163/163 
f 172/172/172 170/170/170 169/169/169 
f 173/173/173 169/169/169 171/171/171 
f 172/172/172 169/169/169 174/174/174 
f 169/169/169 173/173/173 174/174/174 
f 175/175/175 172/172/172 174/174/174 
f 175/175/175 174/174/174 173/173/173 
f 172/172/172 175/175/175 176/176/176 
f 175/175/175 173/173/173 177/177/177 
f 180/180/180 179/179/179 178/178/178 
f 182/182/182 181/181/181 179/179/179 
f 179/179/179 180/180/180 182/182/182 
f 181/181/181 182/182/182 183/183/183 
f 184/184/184 183/183/183 182/182/182 
f 185/185/185 182/182/182 180/180/180 
f 184/184/184 182/182/182 185/185/185 
f 185/185/185 180/180/180 186/186/186 
f 188/188/188 189/189/189 187/187/187 
f 190/190/190 192/192/192 188/188/188 
f 188/188/188 192/192/192 189/189/189 
f 190/190/190 193/193/193 192/192/192 
f 192/192/192 194/194/194 189/189/189 
f 193/193/193 195/195/195 192/192/192 
f 195/195/195 194/194/194 192/192/192 
f 193/193/193 196/196/196 195/195/195 
f 199/199/199 200/200/200 201/201/201 
f 200/200/200 202/202/202 205/205/205 
f 201/201/201 200/200/200 205/205/205 
f 205/205/205 202/202/202 206/206/206 
f 207/207/207 205/205/205 206/206/206 
f 208/208/208 201/201/201 205/205/205 
f 205/205/205 207/207/207 208/208/208 
f 201/201/201 208/208/208 204/204/204 
f 209/209/209 210/210/210 211/211/211 
f 211/211/211 212/212/212 209/209/209 
f 213/213/213 211/211/211 210/210/210 
f 211/211/211 213/213/213 214/214/214 
f 209/209/209 215/215/215 210/210/210 
f 215/215/215 213/213/213 210/210/210 
f 215/215/215 209/209/209 216/216/216 
f 215/215/215 217/217/217 213/213/213 
f 222/222/222 219/219/219 220/220/220 
f 223/223/223 224/224/224 220/220/220 
f 220/220/220 224/224/224 222/222/222 
f 223/223/223 225/225/225 224/224/224 
f 224/224/224 226/226/226 222/222/222 
f 224/224/224 228/228/228 226/226/226 
f 225/225/225 228/228/228 224/224/224 
f 225/225/225 227/227/227 228/228/228 
f 231/231/231 230/230/230 229/229/229 
f 233/233/233 232/232/232 230/230/230 
f 230/230/230 231/231/231 233/233/233 
f 232/232/232 233/233/233 234/234/234 
f 235/235/235 233/233/233 231/231/231 
f 233/233/233 235/235/235 236/236/236 
f 236/236/236 234/234/234 233/233/233 
f 234/234/234 236/236/236 237/237/237 
f 241/241/241 239/239/239 238/238/238 
f 239/239/239 241/241/241 243/243/243 
f 243/243/243 242/242/242 239/239/239 
f 244/244/244 243/243/243 241/241/241 
f 242/242/242 243/243/243 245/245/245 
f 243/243/243 244/244/244 246/246/246 
f 246/246/246 245/245/245 243/243/243 
f 245/245/245 246/246/246 247/247/247 
f 251/251/251 252/252/252 250/250/250 
f 253/253/253 255/255/255 251/251/251 
f 251/251/251 255/255/255 252/252/252 
f 256/256/256 255/255/255 253/253/253 
f 255/255/255 257/257/257 252/252/252 
f 256/256/256 258/258/258 255/255/255 
f 258/258/258 257/257/257 255/255/255 
f 256/256/256 259/259/259 258/258/258 
f 261/261/261 263/263/263 262/262/262 
f 263/263/263 260/260/260 262/262/262 
f 264/264/264 263/263/263 261/261/261 
f 260/260/260 263/263/263 265/265/265 
f 266/266/266 263/263/263 264/264/264 
f 263/263/263 267/267/267 265/265/265 
f 263/263/263 266/266/266 268/268/268 
f 268/268/268 267/267/267 263/263/263 
f 269/269/269 270/270/270 271/271/271 
f 269/269/269 271/271/271 272/272/272 
f 273/273/273 269/269/269 272/272/272 
f 271/271/271 274/274/274 272/272/272 
f 273/273/273 272/272/272 274/274/274 
f 274/274/274 271/271/271 275/275/275 
f 269/269/269 273/273/273 277/277/277 
f 273/273/273 274/274/274 278/278/278 
f 284/284/284 281/281/281 282/282/282 
f 285/285/285 288/288/288 282/282/282 
f 282/282/282 288/288/288 284/284/284 
f 285/285/285 289/289/289 288/288/288 
f 288/288/288 290/290/290 284/284/284 
f 290/290/290 288/288/288 292/292/292 
f 289/289/289 292/292/292 288/288/288 
f 289/289/289 291/291/291 292/292/292 
f 293/293/293 294/294/294 295/295/295 
f 295/295/295 294/294/294 296/296/296 
f 297/297/297 295/295/295 296/296/296 
f 295/295/295 298/298/298 293/293/293 
f 298/298/298 295/295/295 299/299/299 
f 295/295/295 300/300/300 299/299/299 
f 300/300/300 295/295/295 302/302/302 
f 295/295/295 297/297/297 302/302/302 
f 303/303/303 304/304/304 305/305/305 
f 305/305/305 304/304/304 306/306/306 
f 307/307/307 305/305/305 306/306/306 
f 305/305/305 308/308/308 303/303/303 
f 308/308/308 305/305/305 309/309/309 
f 309/309/309 305/305/305 311/311/311 
f 311/311/311 305/305/305 312/312/312 
f 305/305/305 307/307/307 312/312/312 
f 316/316/316 313/313/313 315/315/315 
f 313/313/313 319/319/319 318/318/318 
f 319/319/319 313/313/313 320/320/320 
f 313/313/313 316/316/316 320/320/320 
f 321/321/321 319/319/319 320/320/320 
f 316/316/316 321/321/321 320/320/320 
f 319/319/319 321/321/321 322/322/322 
f 321/321/321 316/316/316 323/323/323 
f 328/328/328 327/327/327 325/325/325 
f 327/327/327 328/328/328 331/331/331 
f 331/331/331 330/330/330 327/327/327 
f 332/332/332 331/331/331 328/328/328 
f 330/330/330 331/331/331 333/333/333 
f 331/331/331 332/332/332 334/334/334 
f 334/334/334 333/333/333 331/331/331 
f 333/333/333 334/334/334 336/336/336 
f 338/338/338 339/339/339 340/340/340 
f 341/341/341 339/339/339 338/338/338 
f 339/339/339 342/342/342 340/340/340 
f 339/339/339 341/341/341 344/344/344 
f 339/339/339 346/346/346 342/342/342 
f 346/346/346 339/339/339 347/347/347 
f 348/348/348 347/347/347 339/339/339 
f 344/344/344 348/348/348 339/339/339 
f 356/356/356 355/355/355 353/353/353 
f 357/357/357 352/352/352 355/355/355 
f 355/355/355 356/356/356 357/357/357 
f 352/352/352 357/357/357 358/358/358 
f 359/359/359 357/357/357 356/356/356 
f 357/357/357 359/359/359 361/361/361 
f 358/358/358 361/361/361 360/360/360 
f 361/361/361 358/358/358 357/357/357 
f 367/367/367 363/363/363 366/366/366 
f 363/363/363 368/368/368 364/364/364 
f 363/363/363 367/367/367 369/369/369 
f 368/368/368 363/363/363 369/369/369 
f 372/372/372 367/367/367 373/373/373 
f 367/367/367 372/372/372 369/369/369 
f 372/372/372 368/368/368 369/369/369 
f 368/368/368 372/372/372 374/374/374 
f 378/378/378 377/377/377 376/376/376 
f 381/381/381 379/379/379 377/377/377 
f 377/377/377 378/378/378 381/381/381 
f 379/379/379 381/381/381 382/382/382 
f 381/381/381 383/383/383 382/382/382 
f 384/384/384 378/378/378 380/380/380 
f 378/378/378 384/384/384 381/381/381 
f 383/383/383 381/381/381 384/384/384 
f 386/386/386 388/388/388 390/390/390 
f 390/390/390 391/391/391 387/387/387 
f 388/388/388 393/393/393 390/390/390 
f 391/391/391 390/390/390 393/393/393 
f 388/388/388 389/389/389 393/393/393 
f 393/393/393 392/392/392 391/391/391 
f 389/389/389 394/394/394 393/393/393 
f 392/392/392 393/393/393 394/394/394 
f 395/395/395 396/396/396 397/397/397 
f 396/396/396 395/395/395 398/398/398 
f 395/395/395 399/399/399 398/398/398 
f 397/397/397 400/400/400 395/395/395 
f 399/399/399 395/395/395 401/401/401 
f 400/400/400 401/401/401 395/395/395 
f 400/400/400 397/397/397 402/402/402 
f 401/401/401 400/400/400 403/403/403 
f 406/406/406 407/407/407 408/408/408 
f 409/409/409 407/407/407 406/406/406 
f 407/407/407 410/410/410 408/408/408 
f 407/407/407 409/409/409 411/411/411 
f 407/407/407 412/412/412 410/410/410 
f 412/412/412 407/407/407 413/413/413 
f 414/414/414 413/413/413 407/407/407 
f 411/411/411 414/414/414 407/407/407 
f 422/422/422 419/419/419 421/421/421 
f 419/419/419 422/422/422 423/423/423 
f 421/421/421 424/424/424 422/422/422 
f 424/424/424 426/426/426 422/422/422 
f 423/423/423 422/422/422 427/427/427 
f 428/428/428 422/422/422 426/426/426 
f 422/422/422 428/428/428 429/429/429 
f 422/422/422 429/429/429 427/427/427 
f 435/435/435 434/434/434 433/433/433 
f 434/434/434 435/435/435 436/436/436 
f 436/436/436 437/437/437 434/434/434 
f 438/438/438 436/436/436 435/435/435 
f 437/437/437 436/436/436 439/439/439 
f 440/440/440 439/439/439 436/436/436 
f 436/436/436 438/438/438 440/440/440 
f 439/439/439 440/440/440 441/441/441 
f 448/448/448 447/447/447 446/446/446 
f 451/451/451 449/449/449 447/447/447 
f 447/447/447 448/448/448 451/451/451 
f 449/449/449 451/451/451 452/452/452 
f 451/451/451 453/453/453 452/452/452 
f 454/454/454 448/448/448 450/450/450 
f 448/448/448 454/454/454 451/451/451 
f 453/453/453 451/451/451 454/454/454 
f 461/461/461 460/460/460 459/459/459 
f 462/462/462 458/458/458 460/460/460 
f 460/460/460 461/461/461 462/462/462 
f 457/457/457 462/462/462 461/461/461 
f 458/458/458 462/462/462 463/463/463 
f 462/462/462 457/457/457 464/464/464 
f 464/464/464 463/463/463 462/462/462 
f 463/463/463 464/464/464 455/455/455 
f 470/470/470 468/468/468 469/469/469 
f 470/470/470 469/469/469 466/466/466 
f 468/468/468 470/470/470 471/471/471 
f 472/472/472 470/470/470 466/466/466 
f 473/473/473 471/471/471 470/470/470 
f 474/474/474 470/470/470 472/472/472 
f 475/475/475 473/473/473 470/470/470 
f 470/470/470 474/474/474 475/475/475 
f 476/476/476 477/477/477 478/478/478 
f 477/477/477 476/476/476 479/479/479 
f 480/480/480 477/477/477 479/479/479 
f 477/477/477 480/480/480 481/481/481 
f 476/476/476 482/482/482 479/479/479 
f 479/479/479 482/482/482 480/480/480 
f 482/482/482 476/476/476 483/483/483 
f 480/480/480 482/482/482 485/485/485 
f 487/487/487 488/488/488 489/489/489 
f 489/489/489 488/488/488 490/490/490 
f 488/488/488 487/487/487 491/491/491 
f 491/491/491 492/492/492 488/488/488 
f 490/490/490 488/488/488 493/493/493 
f 488/488/488 492/492/492 493/493/493 
f 492/492/492 491/491/491 494/494/494 
f 493/493/493 492/492/492 495/495/495 
f 498/498/498 497/497/497 496/496/496 
f 501/501/501 500/500/500 497/497/497 
f 497/497/497 498/498/498 501/501/501 
f 500/500/500 501/501/501 502/502/502 
f 503/503/503 501/501/501 498/498/498 
f 501/501/501 503/503/503 507/507/507 
f 502/502/502 507/507/507 506/506/506 
f 507/507/507 502/502/502 501/501/501 
f 512/512/512 508/508/508 509/509/509 
f 512/512/512 509/509/509 511/511/511 
f 508/508/508 512/512/512 513/513/513 
f 512/512/512 511/511/511 514/514/514 
f 515/515/515 513/513/513 512/512/512 
f 516/516/516 512/512/512 514/514/514 
f 512/512/512 516/516/516 517/517/517 
f 512/512/512 517/517/517 515/515/515 
f 520/520/520 523/523/523 521/521/521 
f 524/524/524 520/520/520 522/522/522 
f 525/525/525 523/523/523 520/520/520 
f 520/520/520 524/524/524 525/525/525 
f 526/526/526 523/523/523 525/525/525 
f 524/524/524 526/526/526 525/525/525 
f 523/523/523 526/526/526 527/527/527 
f 528/528/528 526/526/526 524/524/524 
f 531/531/531 530/530/530 529/529/529 
f 530/530/530 531/531/531 534/534/534 
f 534/534/534 533/533/533 530/530/530 
f 535/535/535 534/534/534 531/531/531 
f 533/533/533 534/534/534 536/536/536 
f 534/534/534 535/535/535 537/537/537 
f 537/537/537 536/536/536 534/534/534 
f 536/536/536 537/537/537 538/538/538 
f 540/540/540 542/542/542 539/539/539 
f 542/542/542 540/540/540 544/544/544 
f 544/544/544 540/540/540 543/543/543 
f 545/545/545 542/542/542 544/544/544 
f 544/544/544 543/543/543 546/546/546 
f 547/547/547 544/544/544 546/546/546 
f 544/544/544 547/547/547 545/545/545 
f 547/547/547 546/546/546 548/548/548 
f 550/550/550 551/551/551 552/552/552 
f 554/554/554 555/555/555 557/557/557 
f 555/555/555 556/556/556 558/558/558 
f 558/558/558 557/557/557 555/555/555 
f 552/552/552 558/558/558 556/556/556 
f 557/557/557 558/558/558 553/553/553 
f 558/558/558 552/552/552 551/551/551 
f 551/551/551 553/553/553 558/558/558 
f 562/562/562 561/561/561 560/560/560 
f 568/568/568 566/566/566 565/565/565 
f 569/569/569 567/567/567 566/566/566 
f 566/566/566 568/568/568 569/569/569 
f 567/567/567 569/569/569 562/562/562 
f 564/564/564 569/569/569 568/568/568 
f 561/561/561 562/562/562 569/569/569 
f 569/569/569 564/564/564 561/561/561 
f 570/570/570 571/571/571 572/572/572 
f 573/573/573 572/572/572 571/571/571 
f 570/570/570 572/572/572 574/574/574 
f 572/572/572 576/576/576 574/574/574 
f 576/576/576 572/572/572 577/577/577 
f 572/572/572 578/578/578 577/577/577 
f 572/572/572 580/580/580 578/578/578 
f 572/572/572 573/573/573 580/580/580 
f 585/585/585 583/583/583 581/581/581 
f 587/587/587 584/584/584 583/583/583 
f 583/583/583 585/585/585 587/587/587 
f 584/584/584 587/587/587 588/588/588 
f 588/588/588 587/587/587 589/589/589 
f 589/589/589 587/587/587 590/590/590 
f 587/587/587 585/585/585 590/590/590 
f 590/590/590 585/585/585 586/586/586 
f 593/593/593 592/592/592 591/591/591 
f 592/592/592 593/593/593 596/596/596 
f 596/596/596 595/595/595 592/592/592 
f 597/597/597 596/596/596 593/593/593 
f 595/595/595 596/596/596 598/598/598 
f 596/596/596 597/597/597 599/599/599 
f 599/599/599 598/598/598 596/596/596 
f 598/598/598 599/599/599 601/601/601 
f 607/607/607 604/604/604 605/605/605 
f 607/607/607 605/605/605 606/606/606 
f 604/604/604 607/607/607 608/608/608 
f 607/607/607 606/606/606 609/609/609 
f 610/610/610 608/608/608 607/607/607 
f 611/611/611 607/607/607 609/609/609 
f 607/607/607 611/611/611 612/612/612 
f 607/607/607 612/612/612 610/610/610 
f 625/625/625 622/622/622 624/624/624 
f 625/625/625 624/624/624 623/623/623 
f 622/622/622 625/625/625 626/626/626 
f 625/625/625 618/618/618 626/626/626 
f 625/625/625 619/619/619 618/618/618 
f 625/625/625 617/617/617 619/619/619 
f 623/623/623 627/627/627 625/625/625 
f 617/617/617 625/625/625 627/627/627 

