# This file is brought to you by Roblox Corporation
# Generated by Roblox Studio

mtllib part3.mtl

g Meshpart31

v -49.766 7.67021 0.0845101 
v -49.7513 0.406934 0.0992641 
v -49.7102 0.406934 0.000244139 
v -49.7311 7.67021 0.000244139 
v -49.766 7.67021 -0.0840219 
v -49.7513 0.406934 -0.0987759 
v -49.9345 7.67021 0.0845101 
v -49.9493 0.406934 0.0992641 
v -49.8503 0.406934 0.14028 
v -49.8503 7.67021 0.119414 
v -49.766 7.67021 0.0845101 
v -49.7513 0.406934 0.0992641 
v -49.9345 7.67021 0.0845101 
v -49.9493 0.406934 0.0992641 
v -49.9903 0.406934 0.000244139 
v -49.9694 7.67021 0.000244139 
v -49.9345 7.67021 -0.0840219 
v -49.9493 0.406934 -0.0987759 
v -49.9345 7.67021 -0.0840219 
v -49.9493 0.406934 -0.0987759 
v -49.8503 0.406934 -0.139792 
v -49.8503 7.67021 -0.118926 
v -49.766 7.67021 -0.0840219 
v -49.7513 0.406934 -0.0987759 

vn 0.708661 0 0.708661 
vn 0.732283 0 0.677165 
vn 1 0 -0.0393701 
vn 1 0 0 
vn 0.708661 0 -0.708661 
vn 0.677165 0 -0.732283 
vn -0.708661 0 0.708661 
vn -0.677165 0 0.732283 
vn 0.0393701 0 1 
vn 0 0 1 
vn 0.708661 0 0.708661 
vn 0.732283 0 0.677165 
vn -0.708661 0 0.708661 
vn -0.677165 0 0.732283 
vn -1 0 0.0393701 
vn -1 0 0 
vn -0.708661 0 -0.708661 
vn -0.732283 0 -0.677165 
vn -0.708661 0 -0.708661 
vn -0.732283 0 -0.677165 
vn -0.0393701 0 -1 
vn 0 0 -1 
vn 0.708661 0 -0.708661 
vn 0.677165 0 -0.732283 

vt 17.9895 -14.546 
vt 17.9876 -15.454 
vt 18 -15.454 
vt 18 -14.546 
vt 18.0105 -14.546 
vt 18.0124 -15.454 
vt 17.9895 -14.546 
vt 17.9876 -15.454 
vt 18 -15.454 
vt 18 -14.546 
vt 18.0105 -14.546 
vt 18.0124 -15.454 
vt 18.0105 -14.546 
vt 18.0124 -15.454 
vt 18 -15.454 
vt 18 -14.546 
vt 17.9895 -14.546 
vt 17.9876 -15.454 
vt 18.0105 -14.546 
vt 18.0124 -15.454 
vt 18 -15.454 
vt 18 -14.546 
vt 17.9895 -14.546 
vt 17.9876 -15.454 

usemtl Meshpart31Mtl

f 3/3/3 1/1/1 2/2/2 
f 1/1/1 3/3/3 4/4/4 
f 3/3/3 5/5/5 4/4/4 
f 5/5/5 3/3/3 6/6/6 
f 7/7/7 8/8/8 9/9/9 
f 9/9/9 10/10/10 7/7/7 
f 9/9/9 11/11/11 10/10/10 
f 11/11/11 9/9/9 12/12/12 
f 13/13/13 15/15/15 14/14/14 
f 15/15/15 13/13/13 16/16/16 
f 17/17/17 15/15/15 16/16/16 
f 17/17/17 18/18/18 15/15/15 
f 19/19/19 21/21/21 20/20/20 
f 21/21/21 19/19/19 22/22/22 
f 23/23/23 21/21/21 22/22/22 
f 21/21/21 23/23/23 24/24/24 

