# This file is brought to you by Roblox Corporation
# Generated by Roblox Studio

mtllib Slingshot.mtl

g Sphere1

v -179.596 6.82292 0.145504 
v -179.517 7.16443 0.099748 
v -179.921 7.03943 0.333016 
v -179.892 7.16443 0.316268 
v -179.892 6.91443 0.316268 
v -179.815 6.82292 0.141834 
v -179.896 6.91443 0.0933915 
v -179.707 6.82292 0.0793301 
v -179.815 6.82292 0.141834 
v -179.708 6.91443 -0.0148686 
v -179.709 7.03943 -0.0493475 
v -179.925 7.03943 0.0756601 
v -179.708 7.16443 -0.0148686 
v -179.896 7.16443 0.0933915 
v -179.815 7.25593 0.141834 
v -179.707 7.25593 0.0793301 
v -179.513 7.16443 0.322624 
v -179.517 7.16443 0.099748 
v -179.596 7.25593 0.145504 
v -179.594 7.25593 0.274182 
v -179.705 7.28943 0.208008 
v -179.708 7.16443 -0.0148686 
v -179.517 7.16443 0.099748 
v -179.596 7.25593 0.145504 
v -179.707 7.25593 0.0793301 
v -179.705 7.28943 0.208008 
v -179.701 7.16443 0.430884 
v -179.594 7.25593 0.274182 
v -179.702 7.25593 0.336686 
v -179.705 7.28943 0.208008 
v -179.513 7.16443 0.322624 
v -179.701 7.16443 0.430884 
v -179.892 7.16443 0.316268 
v -179.813 7.25593 0.270512 
v -179.702 7.25593 0.336686 
v -179.705 7.28943 0.208008 
v -179.896 7.16443 0.0933915 
v -179.892 7.16443 0.316268 
v -179.813 7.25593 0.270512 
v -179.815 7.25593 0.141834 
v -179.705 7.28943 0.208008 
v -179.896 7.16443 0.0933915 
v -179.815 7.25593 0.141834 
v -179.707 7.25593 0.0793301 
v -179.705 7.28943 0.208008 
v -179.596 6.82292 0.145504 
v -179.594 6.82292 0.274182 
v -179.513 6.91443 0.322624 
v -179.517 6.91443 0.099748 
v -179.488 7.03943 0.0830001 
v -179.484 7.03943 0.340356 
v -179.513 7.16443 0.322624 
v -179.517 7.16443 0.099748 
v -179.708 6.91443 -0.0148686 
v -179.709 7.03943 -0.0493475 
v -179.708 7.16443 -0.0148686 
v -179.517 6.91443 0.099748 
v -179.517 7.16443 0.099748 
v -179.594 6.82292 0.274182 
v -179.513 6.91443 0.322624 
v -179.517 6.91443 0.099748 
v -179.488 7.03943 0.0830001 
v -179.513 7.16443 0.322624 
v -179.701 7.16443 0.430884 
v -179.594 7.25593 0.274182 
v -179.702 7.25593 0.336686 
v -179.513 7.16443 0.322624 
v -179.484 7.03943 0.340356 
v -179.7 7.03943 0.465363 
v -179.513 6.91443 0.322624 
v -179.701 6.91443 0.430884 
v -179.702 6.82292 0.336686 
v -179.594 6.82292 0.274182 
v -179.705 6.78943 0.208008 
v -179.596 6.82292 0.145504 
v -179.594 6.82292 0.274182 
v -179.513 6.91443 0.322624 
v -179.517 6.91443 0.099748 
v -179.708 6.91443 -0.0148686 
v -179.517 6.91443 0.099748 
v -179.596 6.82292 0.145504 
v -179.707 6.82292 0.0793301 
v -179.705 6.78943 0.208008 
v -179.701 6.91443 0.430884 
v -179.702 6.82292 0.336686 
v -179.594 6.82292 0.274182 
v -179.705 6.78943 0.208008 
v -179.701 6.91443 0.430884 
v -179.813 6.82292 0.270512 
v -179.702 6.82292 0.336686 
v -179.705 6.78943 0.208008 
v -179.892 6.91443 0.316268 
v -179.896 6.91443 0.0933915 
v -179.892 6.91443 0.316268 
v -179.813 6.82292 0.270512 
v -179.815 6.82292 0.141834 
v -179.705 6.78943 0.208008 
v -179.707 6.82292 0.0793301 
v -179.815 6.82292 0.141834 
v -179.705 6.78943 0.208008 
v -179.701 7.16443 0.430884 
v -179.701 6.91443 0.430884 
v -179.701 6.91443 0.430884 
v -179.892 6.91443 0.316268 
v -179.921 7.03943 0.333016 
v -179.7 7.03943 0.465363 
v -179.701 7.16443 0.430884 
v -179.892 7.16443 0.316268 
v -179.702 7.25593 0.336686 
v -179.896 7.16443 0.0933915 
v -179.892 7.16443 0.316268 
v -179.925 7.03943 0.0756601 
v -179.896 6.91443 0.0933915 
v -179.892 6.91443 0.316268 

vn 0.480315 -0.826772 -0.275591 
vn 0.76378 0.464567 -0.440945 
vn -0.866142 0 0.503937 
vn -0.76378 0.464567 0.440945 
vn -0.76378 -0.464567 0.440945 
vn -0.480315 -0.834646 -0.267717 
vn -0.771654 -0.480315 -0.425197 
vn 0.00787402 -0.834646 -0.551181 
vn -0.480315 -0.834646 -0.267717 
vn 0.015748 -0.480315 -0.88189 
vn 0.015748 0 -1 
vn -0.874016 0 -0.488189 
vn 0.015748 0.480315 -0.88189 
vn -0.771654 0.480315 -0.425197 
vn -0.480315 0.834646 -0.267717 
vn 0.00787402 0.834646 -0.551181 
vn 0.771654 0.480315 0.425197 
vn 0.76378 0.464567 -0.440945 
vn 0.480315 0.826772 -0.275591 
vn 0.480315 0.834646 0.267717 
vn 0 1 0 
vn 0.015748 0.480315 -0.88189 
vn 0.76378 0.464567 -0.440945 
vn 0.480315 0.826772 -0.275591 
vn 0.00787402 0.834646 -0.551181 
vn 0 1 0 
vn -0.015748 0.480315 0.88189 
vn 0.480315 0.834646 0.267717 
vn -0.00787402 0.834646 0.551181 
vn 0 1 0 
vn 0.771654 0.480315 0.425197 
vn -0.015748 0.480315 0.88189 
vn -0.76378 0.464567 0.440945 
vn -0.480315 0.826772 0.283465 
vn -0.00787402 0.834646 0.551181 
vn 0 1 0 
vn -0.771654 0.480315 -0.425197 
vn -0.76378 0.464567 0.440945 
vn -0.480315 0.826772 0.283465 
vn -0.480315 0.834646 -0.267717 
vn 0 1 0 
vn -0.771654 0.480315 -0.425197 
vn -0.480315 0.834646 -0.267717 
vn 0.00787402 0.834646 -0.551181 
vn 0 1 0 
vn 0.480315 -0.826772 -0.275591 
vn 0.480315 -0.834646 0.267717 
vn 0.771654 -0.480315 0.425197 
vn 0.76378 -0.464567 -0.440945 
vn 0.866142 0 -0.496063 
vn 0.874016 0 0.488189 
vn 0.771654 0.480315 0.425197 
vn 0.76378 0.464567 -0.440945 
vn 0.015748 -0.480315 -0.88189 
vn 0.015748 0 -1 
vn 0.015748 0.480315 -0.88189 
vn 0.76378 -0.464567 -0.440945 
vn 0.76378 0.464567 -0.440945 
vn 0.480315 -0.834646 0.267717 
vn 0.771654 -0.480315 0.425197 
vn 0.76378 -0.464567 -0.440945 
vn 0.866142 0 -0.496063 
vn 0.771654 0.480315 0.425197 
vn -0.015748 0.480315 0.88189 
vn 0.480315 0.834646 0.267717 
vn -0.00787402 0.834646 0.551181 
vn 0.771654 0.480315 0.425197 
vn 0.874016 0 0.488189 
vn -0.015748 0 1 
vn 0.771654 -0.480315 0.425197 
vn -0.015748 -0.480315 0.88189 
vn -0.00787402 -0.834646 0.551181 
vn 0.480315 -0.834646 0.267717 
vn 0 -1 0 
vn 0.480315 -0.826772 -0.275591 
vn 0.480315 -0.834646 0.267717 
vn 0.771654 -0.480315 0.425197 
vn 0.76378 -0.464567 -0.440945 
vn 0.015748 -0.480315 -0.88189 
vn 0.76378 -0.464567 -0.440945 
vn 0.480315 -0.826772 -0.275591 
vn 0.00787402 -0.834646 -0.551181 
vn 0 -1 0 
vn -0.015748 -0.480315 0.88189 
vn -0.00787402 -0.834646 0.551181 
vn 0.480315 -0.834646 0.267717 
vn 0 -1 0 
vn -0.015748 -0.480315 0.88189 
vn -0.480315 -0.826772 0.283465 
vn -0.00787402 -0.834646 0.551181 
vn 0 -1 0 
vn -0.76378 -0.464567 0.440945 
vn -0.771654 -0.480315 -0.425197 
vn -0.76378 -0.464567 0.440945 
vn -0.480315 -0.826772 0.283465 
vn -0.480315 -0.834646 -0.267717 
vn 0 -1 0 
vn 0.00787402 -0.834646 -0.551181 
vn -0.480315 -0.834646 -0.267717 
vn 0 -1 0 
vn -0.015748 0.480315 0.88189 
vn -0.015748 -0.480315 0.88189 
vn -0.015748 -0.480315 0.88189 
vn -0.76378 -0.464567 0.440945 
vn -0.866142 0 0.503937 
vn -0.015748 0 1 
vn -0.015748 0.480315 0.88189 
vn -0.76378 0.464567 0.440945 
vn -0.00787402 0.834646 0.551181 
vn -0.771654 0.480315 -0.425197 
vn -0.76378 0.464567 0.440945 
vn -0.874016 0 -0.488189 
vn -0.771654 -0.480315 -0.425197 
vn -0.76378 -0.464567 0.440945 

vt 47.9844 -29.0271 
vt 47.9729 -28.9844 
vt 48.0312 -29 
vt 48.0271 -28.9844 
vt 48.0271 -29.0156 
vt 48.0078 -29.0271 
vt 48.0135 -29.0156 
vt 47.9922 -29.0271 
vt 48.0078 -29.0271 
vt 47.9865 -29.0156 
vt 47.9844 -29 
vt 48.0156 -29 
vt 47.9865 -28.9844 
vt 48.0135 -28.9844 
vt 48.0078 -28.9729 
vt 47.9922 -28.9729 
vt 48.0244 -28.9865 
vt 48 -28.9729 
vt 48 -28.9844 
vt 48.0141 -28.9922 
vt 48 -29 
vt 47.9756 -28.9865 
vt 48 -28.9729 
vt 48 -28.9844 
vt 47.9859 -28.9922 
vt 48 -29 
vt 48.0244 -29.0135 
vt 48.0141 -28.9922 
vt 48.0141 -29.0078 
vt 48 -29 
vt 48.0244 -28.9865 
vt 48.0244 -29.0135 
vt 48 -29.0271 
vt 48 -29.0156 
vt 48.0141 -29.0078 
vt 48 -29 
vt 47.9756 -29.0135 
vt 48 -29.0271 
vt 48 -29.0156 
vt 47.9859 -29.0078 
vt 48 -29 
vt 47.9756 -29.0135 
vt 47.9859 -29.0078 
vt 47.9859 -28.9922 
vt 48 -29 
vt 48 -29.0271 
vt 47.9859 -29.0271 
vt 47.9756 -29.0156 
vt 48 -29.0156 
vt 48 -29 
vt 47.9719 -29 
vt 47.9756 -28.9844 
vt 48 -28.9844 
vt 48.0244 -29.0156 
vt 48.0281 -29 
vt 48.0244 -28.9844 
vt 48 -29.0156 
vt 48 -28.9844 
vt 48.0078 -29.0271 
vt 48.0135 -29.0156 
vt 48.0271 -29.0156 
vt 48.0312 -29 
vt 48.0135 -28.9844 
vt 47.9865 -28.9844 
vt 48.0078 -28.9729 
vt 47.9922 -28.9729 
vt 48.0135 -28.9844 
vt 48.0156 -29 
vt 47.9844 -29 
vt 48.0135 -29.0156 
vt 47.9865 -29.0156 
vt 47.9922 -29.0271 
vt 48.0078 -29.0271 
vt 48 -29 
vt 48 -28.9844 
vt 47.9859 -28.9922 
vt 47.9756 -28.9865 
vt 48 -28.9729 
vt 48.0244 -28.9865 
vt 48 -28.9729 
vt 48 -28.9844 
vt 48.0141 -28.9922 
vt 48 -29 
vt 47.9756 -29.0135 
vt 47.9859 -29.0078 
vt 47.9859 -28.9922 
vt 48 -29 
vt 47.9756 -29.0135 
vt 48 -29.0156 
vt 47.9859 -29.0078 
vt 48 -29 
vt 48 -29.0271 
vt 48.0244 -29.0135 
vt 48 -29.0271 
vt 48 -29.0156 
vt 48.0141 -29.0078 
vt 48 -29 
vt 48.0141 -28.9922 
vt 48.0141 -29.0078 
vt 48 -29 
vt 48.0244 -28.9844 
vt 48.0244 -29.0156 
vt 48.0244 -29.0156 
vt 48 -29.0156 
vt 48 -29 
vt 48.0281 -29 
vt 48.0244 -28.9844 
vt 48 -28.9844 
vt 48.0141 -28.9729 
vt 47.9756 -28.9844 
vt 48 -28.9844 
vt 47.9719 -29 
vt 47.9756 -29.0156 
vt 48 -29.0156 

usemtl Sphere1Mtl

f 7/7/7 8/8/8 9/9/9 
f 8/8/8 7/7/7 10/10/10 
f 7/7/7 11/11/11 10/10/10 
f 12/12/12 11/11/11 7/7/7 
f 12/12/12 13/13/13 11/11/11 
f 13/13/13 12/12/12 14/14/14 
f 15/15/15 13/13/13 14/14/14 
f 13/13/13 15/15/15 16/16/16 
f 19/19/19 17/17/17 18/18/18 
f 17/17/17 19/19/19 20/20/20 
f 19/19/19 21/21/21 20/20/20 
f 23/23/23 22/22/22 24/24/24 
f 24/24/24 22/22/22 25/25/25 
f 25/25/25 26/26/26 24/24/24 
f 28/28/28 30/30/30 29/29/29 
f 33/33/33 32/32/32 34/34/34 
f 34/34/34 32/32/32 35/35/35 
f 35/35/35 36/36/36 34/34/34 
f 39/39/39 37/37/37 38/38/38 
f 37/37/37 39/39/39 40/40/40 
f 39/39/39 41/41/41 40/40/40 
f 43/43/43 45/45/45 44/44/44 
f 50/50/50 48/48/48 49/49/49 
f 48/48/48 50/50/50 51/51/51 
f 51/51/51 50/50/50 52/52/52 
f 50/50/50 53/53/53 52/52/52 
f 54/54/54 55/55/55 50/50/50 
f 56/56/56 50/50/50 55/55/55 
f 57/57/57 54/54/54 50/50/50 
f 50/50/50 56/56/56 58/58/58 
f 64/64/64 65/65/65 66/66/66 
f 65/65/65 64/64/64 67/67/67 
f 64/64/64 68/68/68 67/67/67 
f 69/69/69 68/68/68 64/64/64 
f 69/69/69 70/70/70 68/68/68 
f 71/71/71 70/70/70 69/69/69 
f 72/72/72 70/70/70 71/71/71 
f 70/70/70 72/72/72 73/73/73 
f 74/74/74 75/75/75 76/76/76 
f 75/75/75 77/77/77 76/76/76 
f 78/78/78 77/77/77 75/75/75 
f 81/81/81 79/79/79 80/80/80 
f 79/79/79 81/81/81 82/82/82 
f 83/83/83 82/82/82 81/81/81 
f 87/87/87 86/86/86 85/85/85 
f 88/88/88 89/89/89 90/90/90 
f 91/91/91 90/90/90 89/89/89 
f 89/89/89 88/88/88 92/92/92 
f 93/93/93 95/95/95 94/94/94 
f 96/96/96 95/95/95 93/93/93 
f 97/97/97 95/95/95 96/96/96 
f 100/100/100 99/99/99 98/98/98 
f 103/103/103 105/105/105 104/104/104 
f 105/105/105 103/103/103 106/106/106 
f 107/107/107 105/105/105 106/106/106 
f 105/105/105 107/107/107 108/108/108 
f 110/110/110 105/105/105 111/111/111 
f 105/105/105 110/110/110 112/112/112 
f 113/113/113 105/105/105 112/112/112 
f 105/105/105 113/113/113 114/114/114 

g Meshpart1

v -179.849 4.85235 0.0633264 
v -179.849 5.56904 0.0633264 
v -179.909 4.85235 0.207214 
v -179.909 5.56904 0.207214 
v -179.849 4.85235 0.351102 
v -179.849 5.56904 0.351102 
v -179.502 5.56904 0.207214 
v -179.706 5.56904 0.00372635 
v -179.706 5.56904 0.410702 
v -179.562 5.56904 0.0633264 
v -179.562 5.56904 0.351102 
v -179.909 5.56904 0.207214 
v -179.849 5.56904 0.351102 
v -179.849 5.56904 0.0633264 
v -179.562 5.56904 0.0633264 
v -179.562 4.85235 0.0633264 
v -179.706 4.85235 0.00372635 
v -179.706 5.56904 0.00372635 
v -179.849 4.85235 0.0633264 
v -179.849 5.56904 0.0633264 
v -179.562 5.56904 0.0633264 
v -179.562 4.85235 0.0633264 
v -179.502 5.56904 0.207214 
v -179.502 4.85235 0.207214 
v -179.562 5.56904 0.351102 
v -179.562 4.85235 0.351102 
v -179.706 4.85235 0.410702 
v -179.706 4.85235 0.00372635 
v -179.502 4.85235 0.207214 
v -179.562 4.85235 0.0633264 
v -179.562 4.85235 0.351102 
v -179.909 4.85235 0.207214 
v -179.849 4.85235 0.0633264 
v -179.849 4.85235 0.351102 
v -179.562 5.56904 0.351102 
v -179.562 4.85235 0.351102 
v -179.706 5.56904 0.410702 
v -179.706 4.85235 0.410702 
v -179.849 4.85235 0.351102 
v -179.849 5.56904 0.351102 

vn -0.708661 0 -0.708661 
vn -0.708661 0 -0.708661 
vn -1 0 0 
vn -1 0 0 
vn -0.708661 0 0.708661 
vn -0.708661 0 0.708661 
vn 0 1 0 
vn 0 1 0 
vn 0 1 0 
vn 0 1 0 
vn 0 1 0 
vn 0 1 0 
vn 0 1 0 
vn 0 1 0 
vn 0.708661 0 -0.708661 
vn 0.708661 0 -0.708661 
vn 0 0 -1 
vn 0 0 -1 
vn -0.708661 0 -0.708661 
vn -0.708661 0 -0.708661 
vn 0.708661 0 -0.708661 
vn 0.708661 0 -0.708661 
vn 1 0 0 
vn 1 0 0 
vn 0.708661 0 0.708661 
vn 0.708661 0 0.708661 
vn 0 -1 0 
vn 0 -1 0 
vn 0 -1 0 
vn 0 -1 0 
vn 0 -1 0 
vn 0 -1 0 
vn 0 -1 0 
vn 0 -1 0 
vn 0.708661 0 0.708661 
vn 0.708661 0 0.708661 
vn 0 0 1 
vn 0 0 1 
vn -0.708661 0 0.708661 
vn -0.708661 0 0.708661 

vt 53.982 -27.0448 
vt 53.982 -26.9552 
vt 54 -27.0448 
vt 54 -26.9552 
vt 54.018 -27.0448 
vt 54.018 -26.9552 
vt 54.0254 -27 
vt 54 -26.9746 
vt 54 -27.0254 
vt 54.018 -26.982 
vt 54.018 -27.018 
vt 53.9746 -27 
vt 53.982 -27.018 
vt 53.982 -26.982 
vt 53.982 -26.9552 
vt 53.982 -27.0448 
vt 54 -27.0448 
vt 54 -26.9552 
vt 54.018 -27.0448 
vt 54.018 -26.9552 
vt 54.018 -26.9552 
vt 54.018 -27.0448 
vt 54 -26.9552 
vt 54 -27.0448 
vt 53.982 -26.9552 
vt 53.982 -27.0448 
vt 54 -27.0254 
vt 54 -26.9746 
vt 53.9746 -27 
vt 53.982 -26.982 
vt 53.982 -27.018 
vt 54.0254 -27 
vt 54.018 -26.982 
vt 54.018 -27.018 
vt 54.018 -26.9552 
vt 54.018 -27.0448 
vt 54 -26.9552 
vt 54 -27.0448 
vt 53.982 -27.0448 
vt 53.982 -26.9552 

usemtl Meshpart1Mtl

f 117/117/117 116/116/116 115/115/115 
f 117/117/117 118/118/118 116/116/116 
f 119/119/119 118/118/118 117/117/117 
f 119/119/119 120/120/120 118/118/118 
f 121/121/121 122/122/122 123/123/123 
f 122/122/122 121/121/121 124/124/124 
f 121/121/121 123/123/123 125/125/125 
f 122/122/122 126/126/126 123/123/123 
f 123/123/123 126/126/126 127/127/127 
f 126/126/126 122/122/122 128/128/128 
f 129/129/129 130/130/130 131/131/131 
f 131/131/131 132/132/132 129/129/129 
f 132/132/132 131/131/131 133/133/133 
f 133/133/133 134/134/134 132/132/132 
f 137/137/137 136/136/136 135/135/135 
f 137/137/137 138/138/138 136/136/136 
f 139/139/139 138/138/138 137/137/137 
f 139/139/139 140/140/140 138/138/138 
f 141/141/141 142/142/142 143/143/143 
f 143/143/143 142/142/142 144/144/144 
f 141/141/141 143/143/143 145/145/145 
f 141/141/141 146/146/146 142/142/142 
f 142/142/142 146/146/146 147/147/147 
f 146/146/146 141/141/141 148/148/148 
f 151/151/151 150/150/150 149/149/149 
f 150/150/150 151/151/151 152/152/152 
f 154/154/154 152/152/152 151/151/151 
f 152/152/152 154/154/154 153/153/153 

g Meshpart2

v -179.706 5.76996 0.0420943 
v -179.706 4.68255 0.0778844 
v -179.797 4.68255 0.115764 
v -179.706 5.76996 0.372334 
v -179.706 4.68255 0.336544 
v -179.822 5.76996 0.323972 
v -179.797 4.68255 0.298664 
v -179.822 4.75007 0.323972 
v -179.871 5.76996 0.207214 
v -179.871 4.75007 0.207214 
v -179.835 4.68255 0.207214 
v -179.822 5.76996 0.0904564 
v -179.822 4.75007 0.0904564 
v -178.893 7.45919 0.142334 
v -178.872 7.49787 0.163576 
v -178.92 7.45919 0.207214 
v -178.89 7.49787 0.207214 
v -178.872 7.49787 0.250852 
v -178.893 7.45919 0.272094 
v -180.627 7.49787 0.250852 
v -180.583 7.49787 0.268928 
v -180.648 7.45919 0.272094 
v -180.675 7.45919 0.207214 
v -180.645 7.49787 0.207214 
v -180.627 7.49787 0.163576 
v -180.648 7.45919 0.142334 
v -178.763 7.45919 0.142334 
v -178.893 7.31085 0.142334 
v -178.893 7.45919 0.142334 
v -178.909 7.10679 0.138738 
v -178.92 7.31085 0.207214 
v -178.92 7.45919 0.207214 
v -178.937 7.11476 0.207214 
v -178.893 7.31085 0.272094 
v -178.893 7.45919 0.272094 
v -178.909 7.10679 0.27569 
v -179.01 6.74623 0.207214 
v -178.983 6.73089 0.13375 
v -178.983 6.73089 0.280678 
v -179.092 6.42524 0.116802 
v -179.229 6.18553 0.0975164 
v -179.115 6.45518 0.207214 
v -179.246 6.22779 0.207214 
v -179.092 6.42524 0.297626 
v -179.189 6.08351 0.0520784 
v -179.401 6.05386 0.207214 
v -179.229 6.18553 0.316912 
v -179.189 6.08351 0.36235 
v -179.388 6.00649 0.325974 
v -179.388 6.00649 0.0884544 
v -179.504 5.79833 0.0302844 
v -179.525 5.97406 0.207214 
v -179.706 5.635 0.332322 
v -179.706 5.635 0.0821064 
v -180.088 5.77781 0.325974 
v -180.088 5.77781 0.0884544 
v -180.101 5.73044 0.207214 
v -180.279 5.93923 0.207214 
v -180.263 5.98149 0.0975164 
v -180.45 6.25075 0.207214 
v -180.427 6.28069 0.116802 
v -180.263 5.98149 0.316912 
v -180.581 6.64152 0.207214 
v -180.427 6.28069 0.297626 
v -180.222 6.08351 0.36235 
v -180.554 6.65685 0.280678 
v -180.491 6.69387 0.311108 
v -180.633 7.06829 0.27569 
v -180.66 7.06032 0.207214 
v -180.675 7.31085 0.207214 
v -180.554 6.65685 0.13375 
v -180.633 7.06829 0.138738 
v -180.491 6.69387 0.10332 
v -180.648 7.31085 0.142334 
v -180.675 7.45919 0.207214 
v -180.648 7.45919 0.272094 
v -180.648 7.45919 0.142334 
v -180.648 7.31085 0.272094 
v -178.828 7.49787 0.268928 
v -178.766 7.49787 0.207214 
v -178.872 7.49787 0.250852 
v -178.784 7.49787 0.250852 
v -178.872 7.49787 0.163576 
v -178.89 7.49787 0.207214 
v -178.828 7.49787 0.1455 
v -178.784 7.49787 0.163576 
v -180.583 7.49787 0.1455 
v -180.645 7.49787 0.207214 
v -180.539 7.49787 0.163576 
v -180.627 7.49787 0.163576 
v -180.539 7.49787 0.250852 
v -180.521 7.49787 0.207214 
v -180.583 7.49787 0.268928 
v -180.627 7.49787 0.250852 
v -178.893 7.45919 0.142334 
v -178.828 7.49787 0.1455 
v -178.89 7.49787 0.207214 
v -178.763 7.45919 0.142334 
v -178.893 7.45919 0.272094 
v -178.736 7.45919 0.207214 
v -178.784 7.49787 0.250852 
v -178.763 7.45919 0.272094 
v -180.583 7.49787 0.268928 
v -180.648 7.45919 0.272094 
v -180.518 7.45919 0.272094 
v -180.675 7.45919 0.207214 
v -180.491 7.45919 0.207214 
v -180.521 7.49787 0.207214 
v -180.627 7.49787 0.163576 
v -180.648 7.45919 0.142334 
v -180.518 7.45919 0.142334 
v -180.583 7.45919 0.11546 
v -179.229 6.18553 0.0975164 
v -179.246 6.22779 0.207214 
v -179.401 6.05386 0.207214 
v -179.229 6.18553 0.316912 
v -179.189 6.08351 0.36235 
v -179.388 6.00649 0.325974 
v -179.519 5.92259 0.332322 
v -179.504 5.79833 0.384144 
v -179.388 6.00649 0.0884544 
v -179.519 5.92259 0.0821064 
v -179.504 5.79833 0.0302844 
v -179.525 5.97406 0.207214 
v -179.706 5.88352 0.0821064 
v -179.706 5.88352 0.332322 
v -179.706 5.93499 0.207214 
v -179.886 5.97406 0.207214 
v -179.892 5.92259 0.332322 
v -179.892 5.92259 0.0821064 
v -180.01 6.05386 0.207214 
v -180.023 6.00649 0.0884544 
v -180.222 6.08351 0.0520784 
v -180.182 6.18553 0.0975164 
v -180.222 6.08351 0.36235 
v -180.023 6.00649 0.325974 
v -179.589 5.76996 0.0904564 
v -179.589 4.75007 0.0904564 
v -179.706 4.75007 0.0420943 
v -179.54 5.76996 0.207214 
v -179.706 5.76996 0.0420943 
v -179.614 4.68255 0.115764 
v -179.706 4.68255 0.0778844 
v -179.797 4.68255 0.115764 
v -179.871 5.76996 0.207214 
v -179.822 5.76996 0.0904564 
v -179.822 4.75007 0.0904564 
v -178.893 7.45919 0.142334 
v -178.872 7.49787 0.163576 
v -178.828 7.45919 0.11546 
v -178.828 7.49787 0.1455 
v -178.784 7.49787 0.163576 
v -178.763 7.45919 0.142334 
v -180.491 7.45919 0.207214 
v -180.627 7.49787 0.163576 
v -180.539 7.49787 0.163576 
v -180.648 7.45919 0.142334 
v -180.518 7.45919 0.142334 
v -180.583 7.45919 0.11546 
v -180.583 7.49787 0.1455 
v -178.763 7.45919 0.142334 
v -178.763 7.31085 0.142334 
v -178.828 7.31085 0.11546 
v -178.828 7.45919 0.11546 
v -178.844 7.08754 0.110374 
v -178.893 7.31085 0.142334 
v -178.893 7.45919 0.142334 
v -178.909 7.10679 0.138738 
v -178.983 6.73089 0.13375 
v -178.778 7.06829 0.138738 
v -178.92 6.69387 0.10332 
v -178.857 6.65685 0.13375 
v -178.83 6.64152 0.207214 
v -179.038 6.35297 0.0793523 
v -179.092 6.42524 0.116802 
v -178.984 6.28069 0.116802 
v -179.229 6.18553 0.0975164 
v -179.246 6.22779 0.207214 
v -179.189 6.08351 0.0520784 
v -178.984 6.28069 0.297626 
v -179.323 5.77781 0.325974 
v -179.148 5.98149 0.0975164 
v -179.31 5.73044 0.207214 
v -179.323 5.77781 0.0884544 
v -179.355 5.89215 0.0392624 
v -179.388 6.00649 0.0884544 
v -179.519 5.92259 0.0821064 
v -179.504 5.79833 0.0302844 
v -179.525 5.97406 0.207214 
v -179.706 5.88352 0.0821064 
v -179.706 5.75926 0.0302844 
v -179.892 5.92259 0.0821064 
v -179.49 5.67407 0.0821064 
v -179.706 5.635 0.0821064 
v -179.922 5.67407 0.0821064 
v -179.907 5.79833 0.0302844 
v -180.088 5.77781 0.0884544 
v -180.056 5.89215 0.0392624 
v -180.101 5.73044 0.207214 
v -180.263 5.98149 0.0975164 
v -180.023 6.00649 0.0884544 
v -180.222 6.08351 0.0520784 
v -180.182 6.18553 0.0975164 
v -180.427 6.28069 0.116802 
v -180.373 6.35297 0.0793523 
v -180.581 6.64152 0.207214 
v -180.319 6.42524 0.116802 
v -180.554 6.65685 0.13375 
v -180.633 7.06829 0.138738 
v -180.491 6.69387 0.10332 
v -180.428 6.73089 0.13375 
v -180.567 7.08754 0.110374 
v -180.648 7.31085 0.142334 
v -180.502 7.10679 0.138738 
v -180.648 7.45919 0.142334 
v -180.583 7.31085 0.11546 
v -180.583 7.45919 0.11546 
v -180.518 7.31085 0.142334 
v -180.518 7.45919 0.142334 
v -179.589 5.76996 0.0904564 
v -179.589 4.75007 0.0904564 
v -179.54 5.76996 0.207214 
v -179.706 5.76996 0.0420943 
v -179.54 4.75007 0.207214 
v -179.589 5.76996 0.323972 
v -179.614 4.68255 0.115764 
v -179.706 4.68255 0.0778844 
v -179.576 4.68255 0.207214 
v -179.614 4.68255 0.298664 
v -179.589 4.75007 0.323972 
v -179.706 5.76996 0.372334 
v -179.706 4.68255 0.336544 
v -178.784 7.49787 0.163576 
v -178.763 7.45919 0.142334 
v -178.736 7.45919 0.207214 
v -178.766 7.49787 0.207214 
v -178.784 7.49787 0.250852 
v -178.763 7.45919 0.272094 
v -180.583 7.49787 0.268928 
v -180.539 7.49787 0.250852 
v -180.518 7.45919 0.272094 
v -180.491 7.45919 0.207214 
v -180.521 7.49787 0.207214 
v -180.539 7.49787 0.163576 
v -180.518 7.45919 0.142334 
v -178.763 7.45919 0.142334 
v -178.763 7.31085 0.142334 
v -178.736 7.45919 0.207214 
v -178.736 7.31085 0.207214 
v -178.763 7.45919 0.272094 
v -178.763 7.31085 0.272094 
v -178.778 7.06829 0.27569 
v -178.983 6.73089 0.280678 
v -178.92 6.69387 0.311108 
v -178.751 7.06032 0.207214 
v -178.857 6.65685 0.280678 
v -178.778 7.06829 0.138738 
v -178.92 6.69387 0.10332 
v -178.857 6.65685 0.13375 
v -178.83 6.64152 0.207214 
v -178.984 6.28069 0.116802 
v -178.984 6.28069 0.297626 
v -179.189 6.08351 0.36235 
v -178.961 6.25075 0.207214 
v -179.148 5.98149 0.316912 
v -179.323 5.77781 0.325974 
v -179.148 5.98149 0.0975164 
v -179.132 5.93923 0.207214 
v -179.31 5.73044 0.207214 
v -179.323 5.77781 0.0884544 
v -179.886 5.97406 0.207214 
v -180.01 6.05386 0.207214 
v -179.706 5.635 0.332322 
v -179.706 5.635 0.0821064 
v -180.023 6.00649 0.0884544 
v -180.182 6.18553 0.0975164 
v -180.222 6.08351 0.36235 
v -180.023 6.00649 0.325974 
v -180.182 6.18553 0.316912 
v -180.165 6.22779 0.207214 
v -180.319 6.42524 0.297626 
v -180.319 6.42524 0.116802 
v -180.296 6.45518 0.207214 
v -180.428 6.73089 0.280678 
v -180.428 6.73089 0.13375 
v -180.502 7.10679 0.138738 
v -180.401 6.74623 0.207214 
v -180.648 7.45919 0.272094 
v -180.648 7.45919 0.142334 
v -180.518 7.45919 0.272094 
v -180.518 7.31085 0.142334 
v -180.518 7.45919 0.142334 
v -180.474 7.11476 0.207214 
v -180.491 7.31085 0.207214 
v -180.491 7.45919 0.207214 
v -180.518 7.31085 0.272094 
v -180.502 7.10679 0.27569 
v -179.614 4.68255 0.298664 
v -179.614 4.68255 0.115764 
v -179.576 4.68255 0.207214 
v -179.797 4.68255 0.298664 
v -179.706 4.68255 0.336544 
v -179.797 4.68255 0.115764 
v -179.706 4.68255 0.0778844 
v -179.835 4.68255 0.207214 
v -178.828 7.49787 0.1455 
v -178.89 7.49787 0.207214 
v -178.893 7.45919 0.272094 
v -179.323 5.77781 0.325974 
v -179.31 5.73044 0.207214 
v -179.323 5.77781 0.0884544 
v -179.504 5.79833 0.0302844 
v -179.49 5.67407 0.332322 
v -179.706 5.635 0.332322 
v -179.483 5.6226 0.207214 
v -179.706 5.58353 0.207214 
v -179.49 5.67407 0.0821064 
v -179.922 5.67407 0.332322 
v -179.706 5.635 0.0821064 
v -179.922 5.67407 0.0821064 
v -179.928 5.6226 0.207214 
v -180.088 5.77781 0.325974 
v -180.088 5.77781 0.0884544 
v -180.101 5.73044 0.207214 
v -179.589 5.76996 0.0904564 
v -179.589 5.76996 0.323972 
v -179.706 4.68255 0.0778844 
v -179.614 4.68255 0.298664 
v -179.589 4.75007 0.323972 
v -179.706 5.76996 0.372334 
v -179.706 4.75007 0.372334 
v -179.706 4.68255 0.336544 
v -179.822 5.76996 0.323972 
v -179.797 4.68255 0.298664 
v -179.822 4.75007 0.323972 
v -179.871 5.76996 0.207214 
v -178.872 7.49787 0.250852 
v -178.893 7.45919 0.272094 
v -178.828 7.45919 0.298968 
v -178.828 7.49787 0.268928 
v -178.784 7.49787 0.250852 
v -178.763 7.45919 0.272094 
v -180.627 7.49787 0.250852 
v -180.583 7.45919 0.298968 
v -180.583 7.49787 0.268928 
v -180.539 7.49787 0.250852 
v -180.648 7.45919 0.272094 
v -180.518 7.45919 0.272094 
v -180.491 7.45919 0.207214 
v -180.627 7.49787 0.163576 
v -180.648 7.45919 0.142334 
v -178.763 7.45919 0.142334 
v -178.763 7.45919 0.272094 
v -178.893 7.31085 0.272094 
v -178.893 7.45919 0.272094 
v -178.828 7.31085 0.298968 
v -178.828 7.45919 0.298968 
v -178.909 7.10679 0.27569 
v -178.763 7.31085 0.272094 
v -178.844 7.08754 0.304054 
v -178.778 7.06829 0.27569 
v -178.983 6.73089 0.280678 
v -178.92 6.69387 0.311108 
v -178.857 6.65685 0.280678 
v -178.83 6.64152 0.207214 
v -178.984 6.28069 0.116802 
v -179.246 6.22779 0.207214 
v -179.092 6.42524 0.297626 
v -179.038 6.35297 0.335076 
v -179.229 6.18553 0.316912 
v -178.984 6.28069 0.297626 
v -179.189 6.08351 0.36235 
v -179.388 6.00649 0.325974 
v -179.148 5.98149 0.316912 
v -179.355 5.89215 0.375166 
v -179.519 5.92259 0.332322 
v -179.323 5.77781 0.325974 
v -179.504 5.79833 0.384144 
v -179.31 5.73044 0.207214 
v -179.323 5.77781 0.0884544 
v -179.525 5.97406 0.207214 
v -179.706 5.88352 0.332322 
v -179.892 5.92259 0.332322 
v -179.706 5.75926 0.384144 
v -179.907 5.79833 0.384144 
v -179.49 5.67407 0.332322 
v -179.706 5.635 0.332322 
v -179.922 5.67407 0.332322 
v -180.088 5.77781 0.325974 
v -180.088 5.77781 0.0884544 
v -180.101 5.73044 0.207214 
v -180.023 6.00649 0.0884544 
v -180.427 6.28069 0.116802 
v -180.263 5.98149 0.316912 
v -180.581 6.64152 0.207214 
v -180.056 5.89215 0.375166 
v -180.427 6.28069 0.297626 
v -180.222 6.08351 0.36235 
v -180.023 6.00649 0.325974 
v -180.182 6.18553 0.316912 
v -180.373 6.35297 0.335076 
v -180.554 6.65685 0.280678 
v -180.319 6.42524 0.297626 
v -180.491 6.69387 0.311108 
v -180.428 6.73089 0.280678 
v -180.633 7.06829 0.27569 
v -180.567 7.08754 0.304054 
v -180.428 6.73089 0.13375 
v -180.648 7.45919 0.272094 
v -180.648 7.45919 0.142334 
v -180.648 7.31085 0.272094 
v -180.583 7.45919 0.298968 
v -180.583 7.31085 0.298968 
v -180.518 7.45919 0.272094 
v -180.491 7.45919 0.207214 
v -180.518 7.31085 0.272094 
v -180.502 7.10679 0.27569 

vn 0 0 -1 
vn 0 -0.464567 -0.88189 
vn -0.622047 -0.464567 -0.622047 
vn 0 0 1 
vn 0 -0.464567 0.88189 
vn -0.708661 0 0.708661 
vn -0.622047 -0.464567 0.622047 
vn -0.685039 -0.228346 0.685039 
vn -1 0 0 
vn -0.976378 -0.228346 0 
vn -0.88189 -0.464567 0 
vn -0.708661 0 -0.708661 
vn -0.685039 -0.228346 -0.685039 
vn -0.559055 0.614173 -0.559055 
vn -0.559055 0.614173 -0.559055 
vn -0.787402 0.614173 0 
vn -0.787402 0.614173 0 
vn -0.559055 0.614173 0.559055 
vn -0.559055 0.614173 0.559055 
vn -0.559055 0.614173 0.559055 
vn 0 0.614173 0.787402 
vn -0.559055 0.614173 0.559055 
vn -0.787402 0.614173 0 
vn -0.787402 0.614173 0 
vn -0.559055 0.614173 -0.559055 
vn -0.559055 0.614173 -0.559055 
vn 0.708661 0 -0.708661 
vn -0.700787 0.0314961 -0.708661 
vn -0.708661 0 -0.708661 
vn -0.692913 0.110236 -0.708661 
vn -1 0.0472441 0 
vn -1 0 0 
vn -0.992126 0.141732 0 
vn -0.700787 0.0314961 0.708661 
vn -0.708661 0 0.708661 
vn -0.692913 0.110236 0.708661 
vn -0.96063 0.267717 0 
vn -0.677165 0.212598 -0.700787 
vn -0.677165 0.212598 0.700787 
vn -0.637795 0.338583 -0.692913 
vn -0.559055 0.448819 -0.692913 
vn -0.905512 0.417323 0 
vn -0.811024 0.582677 0 
vn -0.637795 0.338583 0.692913 
vn 0.0944882 0.0314961 -0.992126 
vn -0.653543 0.755906 0 
vn -0.559055 0.448819 0.692913 
vn 0.0944882 0.0314961 0.992126 
vn -0.440945 0.559055 0.700787 
vn -0.440945 0.559055 -0.700787 
vn 0.0472441 -0.0314961 -1 
vn -0.385827 0.92126 0 
vn 0 -0.724409 0.685039 
vn 0 -0.724409 -0.685039 
vn -0.503937 -0.559055 0.661417 
vn -0.503937 -0.559055 -0.661417 
vn -0.645669 -0.76378 0 
vn -0.818898 -0.574803 0 
vn -0.637795 -0.417323 -0.645669 
vn -0.913386 -0.401575 0 
vn -0.708661 -0.275591 -0.645669 
vn -0.637795 -0.417323 0.645669 
vn -0.968504 -0.251969 0 
vn -0.708661 -0.275591 0.645669 
vn -0.0944882 0.0314961 0.992126 
vn -0.716535 -0.173228 0.677165 
vn -0.0393701 0.0314961 1 
vn -0.716535 -0.0787402 0.692913 
vn -0.992126 -0.125984 0 
vn -1 -0.0314961 0 
vn -0.716535 -0.173228 -0.677165 
vn -0.716535 -0.0787402 -0.692913 
vn -0.0393701 0.0314961 -1 
vn -0.716535 -0.015748 -0.700787 
vn -1 0 0 
vn -0.708661 0 0.708661 
vn -0.708661 0 -0.708661 
vn -0.716535 -0.015748 0.700787 
vn 0 1 0 
vn 0 1 0 
vn 0 1 0 
vn 0 1 0 
vn 0 1 0 
vn 0 1 0 
vn 0 1 0 
vn 0 1 0 
vn 0 1 0 
vn 0 1 0 
vn 0 1 0 
vn 0 1 0 
vn 0 1 0 
vn 0 1 0 
vn 0 1 0 
vn 0 1 0 
vn -0.559055 0.614173 -0.559055 
vn 0 0.614173 -0.787402 
vn -0.787402 0.614173 0 
vn 0.559055 0.614173 -0.559055 
vn -0.559055 0.614173 0.559055 
vn 0.787402 0.614173 0 
vn 0.559055 0.614173 0.559055 
vn 0.559055 0.614173 0.559055 
vn 0 0.614173 0.787402 
vn -0.559055 0.614173 0.559055 
vn 0.559055 0.614173 0.559055 
vn -0.787402 0.614173 0 
vn 0.787402 0.614173 0 
vn 0.787402 0.614173 0 
vn -0.559055 0.614173 -0.559055 
vn -0.559055 0.614173 -0.559055 
vn 0.559055 0.614173 -0.559055 
vn 0 0.614173 -0.787402 
vn -0.559055 0.448819 -0.692913 
vn -0.811024 0.582677 0 
vn -0.653543 0.755906 0 
vn -0.559055 0.448819 0.692913 
vn 0.0944882 0.0314961 0.992126 
vn -0.440945 0.559055 0.700787 
vn -0.244094 0.645669 0.724409 
vn 0.0472441 -0.0314961 1 
vn -0.440945 0.559055 -0.700787 
vn -0.244094 0.645669 -0.724409 
vn 0.0472441 -0.0314961 -1 
vn -0.385827 0.92126 0 
vn 0 0.677165 -0.732283 
vn 0 0.677165 0.732283 
vn 0 1 0 
vn 0.385827 0.92126 0 
vn 0.244094 0.645669 0.724409 
vn 0.244094 0.645669 -0.724409 
vn 0.653543 0.755906 0 
vn 0.440945 0.559055 -0.700787 
vn -0.0944882 0.0314961 -0.992126 
vn 0.559055 0.448819 -0.692913 
vn -0.0944882 0.0314961 0.992126 
vn 0.440945 0.559055 0.700787 
vn 0.708661 0 -0.708661 
vn 0.685039 -0.228346 -0.685039 
vn 0 -0.228346 -0.976378 
vn 1 0 0 
vn 0 0 -1 
vn 0.622047 -0.464567 -0.622047 
vn 0 -0.464567 -0.88189 
vn -0.622047 -0.464567 -0.622047 
vn -1 0 0 
vn -0.708661 0 -0.708661 
vn -0.685039 -0.228346 -0.685039 
vn -0.559055 0.614173 -0.559055 
vn -0.559055 0.614173 -0.559055 
vn 0 0.614173 -0.787402 
vn 0 0.614173 -0.787402 
vn 0.559055 0.614173 -0.559055 
vn 0.559055 0.614173 -0.559055 
vn 0.787402 0.614173 0 
vn -0.559055 0.614173 -0.559055 
vn 0.559055 0.614173 -0.559055 
vn -0.559055 0.614173 -0.559055 
vn 0.559055 0.614173 -0.559055 
vn 0 0.614173 -0.787402 
vn 0 0.614173 -0.787402 
vn 0.708661 0 -0.708661 
vn 0.716535 -0.015748 -0.700787 
vn 0.00787402 0.00787402 -1 
vn 0 0 -1 
vn 0.015748 0.015748 -1 
vn -0.700787 0.0314961 -0.708661 
vn -0.708661 0 -0.708661 
vn -0.692913 0.110236 -0.708661 
vn -0.677165 0.212598 -0.700787 
vn 0.716535 -0.0787402 -0.692913 
vn 0.0393701 0.0314961 -1 
vn 0.716535 -0.173228 -0.677165 
vn 0.968504 -0.251969 0 
vn 0.0787402 0.0551181 -0.992126 
vn -0.637795 0.338583 -0.692913 
vn 0.708661 -0.275591 -0.645669 
vn -0.559055 0.448819 -0.692913 
vn -0.811024 0.582677 0 
vn 0.0944882 0.0314961 -0.992126 
vn 0.708661 -0.275591 0.645669 
vn 0.503937 -0.559055 0.661417 
vn 0.637795 -0.417323 -0.645669 
vn 0.645669 -0.76378 0 
vn 0.503937 -0.559055 -0.661417 
vn 0.0866142 -0.00787402 -1 
vn -0.440945 0.559055 -0.700787 
vn -0.244094 0.645669 -0.724409 
vn 0.0472441 -0.0314961 -1 
vn -0.385827 0.92126 0 
vn 0 0.677165 -0.732283 
vn 0 -0.0472441 -1 
vn 0.244094 0.645669 -0.724409 
vn 0.275591 -0.677165 -0.677165 
vn 0 -0.724409 -0.685039 
vn -0.275591 -0.677165 -0.677165 
vn -0.0472441 -0.0314961 -1 
vn -0.503937 -0.559055 -0.661417 
vn -0.0866142 -0.00787402 -1 
vn -0.645669 -0.76378 0 
vn -0.637795 -0.417323 -0.645669 
vn 0.440945 0.559055 -0.700787 
vn -0.0944882 0.0314961 -0.992126 
vn 0.559055 0.448819 -0.692913 
vn -0.708661 -0.275591 -0.645669 
vn -0.0787402 0.0551181 -0.992126 
vn -0.968504 -0.251969 0 
vn 0.637795 0.338583 -0.692913 
vn -0.716535 -0.173228 -0.677165 
vn -0.716535 -0.0787402 -0.692913 
vn -0.0393701 0.0314961 -1 
vn 0.677165 0.212598 -0.700787 
vn -0.015748 0.015748 -1 
vn -0.716535 -0.015748 -0.700787 
vn 0.692913 0.110236 -0.708661 
vn -0.708661 0 -0.708661 
vn -0.00787402 0.00787402 -1 
vn 0 0 -1 
vn 0.700787 0.0314961 -0.708661 
vn 0.708661 0 -0.708661 
vn 0.708661 0 -0.708661 
vn 0.685039 -0.228346 -0.685039 
vn 1 0 0 
vn 0 0 -1 
vn 0.976378 -0.228346 0 
vn 0.708661 0 0.708661 
vn 0.622047 -0.464567 -0.622047 
vn 0 -0.464567 -0.88189 
vn 0.88189 -0.464567 0 
vn 0.622047 -0.464567 0.622047 
vn 0.685039 -0.228346 0.685039 
vn 0 0 1 
vn 0 -0.464567 0.88189 
vn 0.559055 0.614173 -0.559055 
vn 0.559055 0.614173 -0.559055 
vn 0.787402 0.614173 0 
vn 0.787402 0.614173 0 
vn 0.559055 0.614173 0.559055 
vn 0.559055 0.614173 0.559055 
vn 0 0.614173 0.787402 
vn 0.559055 0.614173 0.559055 
vn 0.559055 0.614173 0.559055 
vn 0.787402 0.614173 0 
vn 0.787402 0.614173 0 
vn 0.559055 0.614173 -0.559055 
vn 0.559055 0.614173 -0.559055 
vn 0.708661 0 -0.708661 
vn 0.716535 -0.015748 -0.700787 
vn 1 0 0 
vn 1 -0.0314961 0 
vn 0.708661 0 0.708661 
vn 0.716535 -0.015748 0.700787 
vn 0.716535 -0.0787402 0.692913 
vn -0.677165 0.212598 0.700787 
vn 0.0393701 0.0314961 1 
vn 0.992126 -0.125984 0 
vn 0.716535 -0.173228 0.677165 
vn 0.716535 -0.0787402 -0.692913 
vn 0.0393701 0.0314961 -1 
vn 0.716535 -0.173228 -0.677165 
vn 0.968504 -0.251969 0 
vn 0.708661 -0.275591 -0.645669 
vn 0.708661 -0.275591 0.645669 
vn 0.0944882 0.0314961 0.992126 
vn 0.913386 -0.401575 0 
vn 0.637795 -0.417323 0.645669 
vn 0.503937 -0.559055 0.661417 
vn 0.637795 -0.417323 -0.645669 
vn 0.818898 -0.574803 0 
vn 0.645669 -0.76378 0 
vn 0.503937 -0.559055 -0.661417 
vn 0.385827 0.92126 0 
vn 0.653543 0.755906 0 
vn 0 -0.724409 0.685039 
vn 0 -0.724409 -0.685039 
vn 0.440945 0.559055 -0.700787 
vn 0.559055 0.448819 -0.692913 
vn -0.0944882 0.0314961 0.992126 
vn 0.440945 0.559055 0.700787 
vn 0.559055 0.448819 0.692913 
vn 0.811024 0.582677 0 
vn 0.637795 0.338583 0.692913 
vn 0.637795 0.338583 -0.692913 
vn 0.905512 0.417323 0 
vn 0.677165 0.212598 0.700787 
vn 0.677165 0.212598 -0.700787 
vn 0.692913 0.110236 -0.708661 
vn 0.96063 0.267717 0 
vn -0.708661 0 0.708661 
vn -0.708661 0 -0.708661 
vn 0.708661 0 0.708661 
vn 0.700787 0.0314961 -0.708661 
vn 0.708661 0 -0.708661 
vn 0.992126 0.141732 0 
vn 1 0.0472441 0 
vn 1 0 0 
vn 0.700787 0.0314961 0.708661 
vn 0.692913 0.110236 0.708661 
vn 0 -1 0 
vn 0 -1 0 
vn 0 -1 0 
vn 0 -1 0 
vn 0 -1 0 
vn 0 -1 0 
vn 0 -1 0 
vn 0 -1 0 
vn 0 0.614173 -0.787402 
vn -0.787402 0.614173 0 
vn -0.559055 0.614173 0.559055 
vn 0.503937 -0.559055 0.661417 
vn 0.645669 -0.76378 0 
vn 0.503937 -0.559055 -0.661417 
vn 0.0472441 -0.0314961 -1 
vn 0.275591 -0.677165 0.677165 
vn 0 -0.724409 0.685039 
vn 0.354331 -0.937008 0 
vn 0 -1 0 
vn 0.275591 -0.677165 -0.677165 
vn -0.275591 -0.677165 0.677165 
vn 0 -0.724409 -0.685039 
vn -0.275591 -0.677165 -0.677165 
vn -0.354331 -0.937008 0 
vn -0.503937 -0.559055 0.661417 
vn -0.503937 -0.559055 -0.661417 
vn -0.645669 -0.76378 0 
vn 0.708661 0 -0.708661 
vn 0.708661 0 0.708661 
vn 0 -0.464567 -0.88189 
vn 0.622047 -0.464567 0.622047 
vn 0.685039 -0.228346 0.685039 
vn 0 0 1 
vn 0 -0.228346 0.976378 
vn 0 -0.464567 0.88189 
vn -0.708661 0 0.708661 
vn -0.622047 -0.464567 0.622047 
vn -0.685039 -0.228346 0.685039 
vn -1 0 0 
vn -0.559055 0.614173 0.559055 
vn -0.559055 0.614173 0.559055 
vn 0 0.614173 0.787402 
vn 0 0.614173 0.787402 
vn 0.559055 0.614173 0.559055 
vn 0.559055 0.614173 0.559055 
vn -0.559055 0.614173 0.559055 
vn 0 0.614173 0.787402 
vn 0 0.614173 0.787402 
vn 0.559055 0.614173 0.559055 
vn -0.559055 0.614173 0.559055 
vn 0.559055 0.614173 0.559055 
vn 0.787402 0.614173 0 
vn -0.559055 0.614173 -0.559055 
vn -0.559055 0.614173 -0.559055 
vn 0.708661 0 -0.708661 
vn 0.708661 0 0.708661 
vn -0.700787 0.0314961 0.708661 
vn -0.708661 0 0.708661 
vn 0.00787402 0.00787402 1 
vn 0 0 1 
vn -0.692913 0.110236 0.708661 
vn 0.716535 -0.015748 0.700787 
vn 0.015748 0.015748 1 
vn 0.716535 -0.0787402 0.692913 
vn -0.677165 0.212598 0.700787 
vn 0.0393701 0.0314961 1 
vn 0.716535 -0.173228 0.677165 
vn 0.968504 -0.251969 0 
vn 0.708661 -0.275591 -0.645669 
vn -0.811024 0.582677 0 
vn -0.637795 0.338583 0.692913 
vn 0.0787402 0.0551181 0.992126 
vn -0.559055 0.448819 0.692913 
vn 0.708661 -0.275591 0.645669 
vn 0.0944882 0.0314961 0.992126 
vn -0.440945 0.559055 0.700787 
vn 0.637795 -0.417323 0.645669 
vn 0.0866142 -0.00787402 1 
vn -0.244094 0.645669 0.724409 
vn 0.503937 -0.559055 0.661417 
vn 0.0472441 -0.0314961 1 
vn 0.645669 -0.76378 0 
vn 0.503937 -0.559055 -0.661417 
vn -0.385827 0.92126 0 
vn 0 0.677165 0.732283 
vn 0.244094 0.645669 0.724409 
vn 0 -0.0472441 1 
vn -0.0472441 -0.0314961 1 
vn 0.275591 -0.677165 0.677165 
vn 0 -0.724409 0.685039 
vn -0.275591 -0.677165 0.677165 
vn -0.503937 -0.559055 0.661417 
vn -0.503937 -0.559055 -0.661417 
vn -0.645669 -0.76378 0 
vn 0.440945 0.559055 -0.700787 
vn -0.708661 -0.275591 -0.645669 
vn -0.637795 -0.417323 0.645669 
vn -0.968504 -0.251969 0 
vn -0.0866142 -0.00787402 1 
vn -0.708661 -0.275591 0.645669 
vn -0.0944882 0.0314961 0.992126 
vn 0.440945 0.559055 0.700787 
vn 0.559055 0.448819 0.692913 
vn -0.0787402 0.0551181 0.992126 
vn -0.716535 -0.173228 0.677165 
vn 0.637795 0.338583 0.692913 
vn -0.0393701 0.0314961 1 
vn 0.677165 0.212598 0.700787 
vn -0.716535 -0.0787402 0.692913 
vn -0.015748 0.015748 1 
vn 0.677165 0.212598 -0.700787 
vn -0.708661 0 0.708661 
vn -0.708661 0 -0.708661 
vn -0.716535 -0.015748 0.700787 
vn 0 0 1 
vn -0.00787402 0.00787402 1 
vn 0.708661 0 0.708661 
vn 1 0 0 
vn 0.700787 0.0314961 0.708661 
vn 0.692913 0.110236 0.708661 

vt 1.97936 -59.04 
vt 1.98383 -59.176 
vt 1.98857 -59.176 
vt 2.02064 -59.04 
vt 2.01617 -59.176 
vt 2.01459 -59.04 
vt 2.01143 -59.176 
vt 2.01459 -59.1675 
vt 2 -59.04 
vt 2 -59.1675 
vt 2 -59.176 
vt 1.98541 -59.04 
vt 1.98541 -59.1675 
vt 1.99189 -58.8289 
vt 1.99455 -58.824 
vt 2 -58.8289 
vt 2 -58.824 
vt 2.00545 -58.824 
vt 2.00811 -58.8289 
vt 2.00545 -58.824 
vt 2.00771 -58.824 
vt 2.00811 -58.8289 
vt 2 -58.8289 
vt 2 -58.824 
vt 1.99455 -58.824 
vt 1.99189 -58.8289 
vt 1.99189 -58.8289 
vt 1.99189 -58.8474 
vt 1.99189 -58.8289 
vt 1.99144 -58.8729 
vt 2 -58.8474 
vt 2 -58.8289 
vt 2 -58.8719 
vt 2.00811 -58.8474 
vt 2.00811 -58.8289 
vt 2.00856 -58.8729 
vt 2 -58.918 
vt 1.99082 -58.9199 
vt 2.00918 -58.9199 
vt 1.9887 -58.9581 
vt 1.98629 -58.9881 
vt 2 -58.9544 
vt 2 -58.9828 
vt 2.0113 -58.9581 
vt 1.98061 -59.0008 
vt 2 -59.0045 
vt 2.01371 -58.9881 
vt 2.01939 -59.0008 
vt 2.01484 -59.0105 
vt 1.98515 -59.0105 
vt 1.97788 -59.0365 
vt 2 -59.0145 
vt 2.01564 -59.0569 
vt 1.98436 -59.0569 
vt 2.01484 -59.0391 
vt 1.98515 -59.0391 
vt 2 -59.045 
vt 2 -59.0189 
vt 1.98629 -59.0136 
vt 2 -58.9799 
vt 1.9887 -58.9762 
vt 2.01371 -59.0136 
vt 2 -58.9311 
vt 2.0113 -58.9762 
vt 2.01939 -59.0008 
vt 2.00918 -58.9292 
vt 2.01299 -58.9245 
vt 2.00856 -58.8777 
vt 2 -58.8787 
vt 2 -58.8474 
vt 1.99082 -58.9292 
vt 1.99144 -58.8777 
vt 1.98701 -58.9245 
vt 1.99189 -58.8474 
vt 2 -58.8289 
vt 2.00811 -58.8289 
vt 1.99189 -58.8289 
vt 2.00811 -58.8474 
vt 2.1097 -59.0077 
vt 2.11741 -59 
vt 2.10424 -59.0055 
vt 2.11515 -59.0055 
vt 2.10424 -58.9945 
vt 2.10198 -59 
vt 2.1097 -58.9923 
vt 2.11515 -58.9945 
vt 1.8903 -58.9923 
vt 1.88259 -59 
vt 1.89576 -58.9945 
vt 1.88485 -58.9945 
vt 1.89576 -59.0055 
vt 1.89802 -59 
vt 1.8903 -59.0077 
vt 1.88485 -59.0055 
vt 2.10159 -58.9919 
vt 2.1097 -58.9923 
vt 2.10198 -59 
vt 2.11781 -58.9919 
vt 2.10159 -59.0081 
vt 2.12117 -59 
vt 2.11515 -59.0055 
vt 2.11781 -59.0081 
vt 1.8903 -59.0077 
vt 1.88219 -59.0081 
vt 1.89841 -59.0081 
vt 1.87883 -59 
vt 1.90177 -59 
vt 1.89802 -59 
vt 1.88485 -58.9945 
vt 1.88219 -58.9919 
vt 1.89841 -58.9919 
vt 1.8903 -58.9885 
vt 2.05956 -58.9863 
vt 2.05748 -59 
vt 2.03808 -59 
vt 2.05956 -59.0137 
vt 2.0646 -59.0194 
vt 2.03974 -59.0148 
vt 2.02336 -59.0156 
vt 2.02518 -59.0221 
vt 2.03974 -58.9852 
vt 2.02336 -58.9844 
vt 2.02518 -58.9779 
vt 2.02261 -59 
vt 2 -58.9844 
vt 2 -59.0156 
vt 2 -59 
vt 1.97739 -59 
vt 1.97664 -59.0156 
vt 1.97664 -58.9844 
vt 1.96192 -59 
vt 1.96026 -58.9852 
vt 1.9354 -58.9806 
vt 1.94044 -58.9863 
vt 1.9354 -59.0194 
vt 1.96026 -59.0148 
vt 1.98541 -59.04 
vt 1.98541 -59.1675 
vt 2 -59.1675 
vt 1.97936 -59.04 
vt 2 -59.04 
vt 1.98857 -59.176 
vt 2 -59.176 
vt 2.01143 -59.176 
vt 2.02064 -59.04 
vt 2.01459 -59.04 
vt 2.01459 -59.1675 
vt 1.89841 -58.8289 
vt 1.89576 -58.824 
vt 1.8903 -58.8289 
vt 1.8903 -58.824 
vt 1.88485 -58.824 
vt 1.88219 -58.8289 
vt 2.09823 -58.8289 
vt 2.11515 -58.824 
vt 2.10424 -58.824 
vt 2.11781 -58.8289 
vt 2.10159 -58.8289 
vt 2.1097 -58.8289 
vt 2.1097 -58.824 
vt 1.88219 -58.8289 
vt 1.88219 -58.8474 
vt 1.8903 -58.8474 
vt 1.8903 -58.8289 
vt 1.89228 -58.8753 
vt 1.89841 -58.8474 
vt 1.89841 -58.8289 
vt 1.90049 -58.8729 
vt 1.90974 -58.9199 
vt 1.88407 -58.8777 
vt 1.90181 -58.9245 
vt 1.89388 -58.9292 
vt 1.8906 -58.9311 
vt 1.91658 -58.9672 
vt 1.92337 -58.9581 
vt 1.90979 -58.9762 
vt 1.94044 -58.9881 
vt 1.94252 -58.9828 
vt 1.9354 -59.0008 
vt 1.90979 -58.9762 
vt 1.95224 -59.0391 
vt 1.93036 -59.0136 
vt 1.95058 -59.045 
vt 1.95224 -59.0391 
vt 1.95625 -59.0248 
vt 1.96026 -59.0105 
vt 1.97664 -59.021 
vt 1.97482 -59.0365 
vt 1.97739 -59.0145 
vt 2 -59.0258 
vt 2 -59.0414 
vt 2.02336 -59.021 
vt 1.973 -59.052 
vt 2 -59.0569 
vt 2.027 -59.052 
vt 2.02518 -59.0365 
vt 2.04776 -59.0391 
vt 2.04375 -59.0248 
vt 2.04942 -59.045 
vt 2.06964 -59.0136 
vt 2.03974 -59.0105 
vt 2.0646 -59.0008 
vt 2.05956 -58.9881 
vt 2.09021 -58.9762 
vt 2.08342 -58.9672 
vt 2.1094 -58.9311 
vt 2.07663 -58.9581 
vt 2.10612 -58.9292 
vt 2.11594 -58.8777 
vt 2.09819 -58.9245 
vt 2.09026 -58.9199 
vt 2.10772 -58.8753 
vt 2.11781 -58.8474 
vt 2.09951 -58.8729 
vt 2.11781 -58.8289 
vt 2.1097 -58.8474 
vt 2.1097 -58.8289 
vt 2.10159 -58.8474 
vt 2.10159 -58.8289 
vt 2.01459 -59.04 
vt 2.01459 -59.1675 
vt 2 -59.04 
vt 2.02064 -59.04 
vt 2 -59.1675 
vt 1.98541 -59.04 
vt 2.01143 -59.176 
vt 2.01617 -59.176 
vt 2 -59.176 
vt 1.98857 -59.176 
vt 1.98541 -59.1675 
vt 1.97936 -59.04 
vt 1.98383 -59.176 
vt 2.00545 -58.824 
vt 2.00811 -58.8289 
vt 2 -58.8289 
vt 2 -58.824 
vt 1.99455 -58.824 
vt 1.99189 -58.8289 
vt 1.99229 -58.824 
vt 1.99455 -58.824 
vt 1.99189 -58.8289 
vt 2 -58.8289 
vt 2 -58.824 
vt 2.00545 -58.824 
vt 2.00811 -58.8289 
vt 2.00811 -58.8289 
vt 2.00811 -58.8474 
vt 2 -58.8289 
vt 2 -58.8474 
vt 1.99189 -58.8289 
vt 1.99189 -58.8474 
vt 1.99144 -58.8777 
vt 1.99082 -58.9199 
vt 1.98701 -58.9245 
vt 2 -58.8787 
vt 1.99082 -58.9292 
vt 2.00856 -58.8777 
vt 2.01299 -58.9245 
vt 2.00918 -58.9292 
vt 2 -58.9311 
vt 2.0113 -58.9762 
vt 1.9887 -58.9762 
vt 1.98061 -59.0008 
vt 2 -58.9799 
vt 1.98629 -59.0136 
vt 1.98515 -59.0391 
vt 2.01371 -59.0136 
vt 2 -59.0189 
vt 2 -59.045 
vt 2.01484 -59.0391 
vt 2 -59.0145 
vt 2 -59.0045 
vt 1.98436 -59.0569 
vt 2.01564 -59.0569 
vt 2.01484 -59.0105 
vt 2.01371 -58.9881 
vt 1.98061 -59.0008 
vt 1.98515 -59.0105 
vt 1.98629 -58.9881 
vt 2 -58.9828 
vt 1.9887 -58.9581 
vt 2.0113 -58.9581 
vt 2 -58.9544 
vt 1.99082 -58.9199 
vt 2.00918 -58.9199 
vt 2.00856 -58.8729 
vt 2 -58.918 
vt 1.99189 -58.8289 
vt 2.00811 -58.8289 
vt 1.99189 -58.8289 
vt 2.00811 -58.8474 
vt 2.00811 -58.8289 
vt 2 -58.8719 
vt 2 -58.8474 
vt 2 -58.8289 
vt 1.99189 -58.8474 
vt 1.99144 -58.8729 
vt 1.98857 -59.0114 
vt 1.98857 -58.9886 
vt 1.98383 -59 
vt 2.01143 -59.0114 
vt 2 -59.0162 
vt 2.01143 -58.9886 
vt 2 -58.9838 
vt 2.01617 -59 
vt 1.8903 -58.9923 
vt 1.89802 -59 
vt 1.89841 -59.0081 
vt 1.95224 -59.0148 
vt 1.95058 -59 
vt 1.95224 -58.9852 
vt 1.97482 -58.9779 
vt 1.973 -59.0156 
vt 2 -59.0156 
vt 1.97225 -59 
vt 2 -59 
vt 1.973 -58.9844 
vt 2.027 -59.0156 
vt 2 -58.9844 
vt 2.027 -58.9844 
vt 2.02775 -59 
vt 2.04776 -59.0148 
vt 2.04776 -58.9852 
vt 2.04942 -59 
vt 2.01459 -59.04 
vt 2.01459 -59.04 
vt 2 -59.176 
vt 2.01143 -59.176 
vt 2.01459 -59.1675 
vt 2 -59.04 
vt 2 -59.1675 
vt 2 -59.176 
vt 1.98541 -59.04 
vt 1.98857 -59.176 
vt 1.98541 -59.1675 
vt 1.97936 -59.04 
vt 2.10424 -58.824 
vt 2.10159 -58.8289 
vt 2.1097 -58.8289 
vt 2.1097 -58.824 
vt 2.11515 -58.824 
vt 2.11781 -58.8289 
vt 1.88485 -58.824 
vt 1.8903 -58.8289 
vt 1.8903 -58.824 
vt 1.89576 -58.824 
vt 1.88219 -58.8289 
vt 1.89841 -58.8289 
vt 1.90177 -58.8289 
vt 1.88485 -58.824 
vt 1.88219 -58.8289 
vt 2.11781 -58.8289 
vt 2.11781 -58.8289 
vt 2.10159 -58.8474 
vt 2.10159 -58.8289 
vt 2.1097 -58.8474 
vt 2.1097 -58.8289 
vt 2.09951 -58.8729 
vt 2.11781 -58.8474 
vt 2.10772 -58.8753 
vt 2.11594 -58.8777 
vt 2.09026 -58.9199 
vt 2.09819 -58.9245 
vt 2.10612 -58.9292 
vt 2.1094 -58.9311 
vt 2.09021 -58.9762 
vt 2.05748 -58.9828 
vt 2.07663 -58.9581 
vt 2.08342 -58.9672 
vt 2.05956 -58.9881 
vt 2.09021 -58.9762 
vt 2.0646 -59.0008 
vt 2.03974 -59.0105 
vt 2.06964 -59.0136 
vt 2.04375 -59.0248 
vt 2.02336 -59.021 
vt 2.04776 -59.0391 
vt 2.02518 -59.0365 
vt 2.04942 -59.045 
vt 2.04776 -59.0391 
vt 2.02261 -59.0145 
vt 2 -59.0258 
vt 1.97664 -59.021 
vt 2 -59.0414 
vt 1.97482 -59.0365 
vt 2.027 -59.052 
vt 2 -59.0569 
vt 1.973 -59.052 
vt 1.95224 -59.0391 
vt 1.95224 -59.0391 
vt 1.95058 -59.045 
vt 1.96026 -59.0105 
vt 1.90979 -58.9762 
vt 1.93036 -59.0136 
vt 1.8906 -58.9311 
vt 1.95625 -59.0248 
vt 1.90979 -58.9762 
vt 1.9354 -59.0008 
vt 1.96026 -59.0105 
vt 1.94044 -58.9881 
vt 1.91658 -58.9672 
vt 1.89388 -58.9292 
vt 1.92337 -58.9581 
vt 1.90181 -58.9245 
vt 1.90974 -58.9199 
vt 1.88407 -58.8777 
vt 1.89228 -58.8753 
vt 1.90974 -58.9199 
vt 1.88219 -58.8289 
vt 1.88219 -58.8289 
vt 1.88219 -58.8474 
vt 1.8903 -58.8289 
vt 1.8903 -58.8474 
vt 1.89841 -58.8289 
vt 1.90177 -58.8289 
vt 1.89841 -58.8474 
vt 1.90049 -58.8729 

usemtl Meshpart2Mtl

f 163/163/163 162/162/162 160/160/160 
f 164/164/164 161/161/161 162/162/162 
f 162/162/162 163/163/163 164/164/164 
f 161/161/161 164/164/164 165/165/165 
f 165/165/165 164/164/164 157/157/157 
f 166/166/166 164/164/164 163/163/163 
f 164/164/164 167/167/167 157/157/157 
f 164/164/164 166/166/166 167/167/167 
f 170/170/170 169/169/169 168/168/168 
f 169/169/169 170/170/170 171/171/171 
f 170/170/170 172/172/172 171/171/171 
f 172/172/172 170/170/170 173/173/173 
f 174/174/174 177/177/177 176/176/176 
f 177/177/177 174/174/174 178/178/178 
f 179/179/179 177/177/177 178/178/178 
f 177/177/177 179/179/179 180/180/180 
f 185/185/185 183/183/183 182/182/182 
f 185/185/185 186/186/186 183/183/183 
f 187/187/187 182/182/182 184/184/184 
f 182/182/182 187/187/187 185/185/185 
f 188/188/188 186/186/186 185/185/185 
f 185/185/185 187/187/187 188/188/188 
f 188/188/188 189/189/189 186/186/186 
f 190/190/190 188/188/188 187/187/187 
f 184/184/184 191/191/191 187/187/187 
f 187/187/187 191/191/191 190/190/190 
f 191/191/191 184/184/184 192/192/192 
f 193/193/193 190/190/190 191/191/191 
f 196/196/196 192/192/192 194/194/194 
f 192/192/192 196/196/196 191/191/191 
f 191/191/191 196/196/196 193/193/193 
f 194/194/194 197/197/197 196/196/196 
f 197/197/197 194/194/194 195/195/195 
f 198/198/198 193/193/193 196/196/196 
f 196/196/196 197/197/197 198/198/198 
f 195/195/195 200/200/200 197/197/197 
f 201/201/201 198/198/198 197/197/197 
f 201/201/201 197/197/197 200/200/200 
f 203/203/203 201/201/201 200/200/200 
f 200/200/200 195/195/195 204/204/204 
f 212/212/212 210/210/210 211/211/211 
f 212/212/212 211/211/211 209/209/209 
f 210/210/210 212/212/212 213/213/213 
f 214/214/214 213/213/213 212/212/212 
f 213/213/213 214/214/214 215/215/215 
f 214/214/214 212/212/212 216/216/216 
f 209/209/209 216/216/216 212/212/212 
f 217/217/217 215/215/215 214/214/214 
f 216/216/216 218/218/218 214/214/214 
f 217/217/217 214/214/214 218/218/218 
f 218/218/218 220/220/220 217/217/217 
f 220/220/220 222/222/222 223/223/223 
f 220/220/220 223/223/223 217/217/217 
f 222/222/222 224/224/224 223/223/223 
f 223/223/223 225/225/225 217/217/217 
f 215/215/215 217/217/217 225/225/225 
f 225/225/225 223/223/223 226/226/226 
f 224/224/224 226/226/226 223/223/223 
f 226/226/226 224/224/224 228/228/228 
f 229/229/229 228/228/228 224/224/224 
f 224/224/224 230/230/230 229/229/229 
f 228/228/228 229/229/229 231/231/231 
f 230/230/230 224/224/224 232/232/232 
f 222/222/222 232/232/232 224/224/224 
f 233/233/233 234/234/234 235/235/235 
f 234/234/234 233/233/233 236/236/236 
f 234/234/234 237/237/237 235/235/235 
f 235/235/235 237/237/237 238/238/238 
f 234/234/234 239/239/239 237/237/237 
f 239/239/239 234/234/234 240/240/240 
f 241/241/241 242/242/242 243/243/243 
f 242/242/242 241/241/241 244/244/244 
f 245/245/245 243/243/243 242/242/242 
f 243/243/243 245/245/245 246/246/246 
f 245/245/245 242/242/242 247/247/247 
f 247/247/247 242/242/242 248/248/248 
f 269/269/269 273/273/273 272/272/272 
f 269/269/269 275/275/275 276/276/276 
f 278/278/278 269/269/269 276/276/276 
f 273/273/273 269/269/269 278/278/278 
f 278/278/278 276/276/276 279/279/279 
f 278/278/278 280/280/280 273/273/273 
f 281/281/281 278/278/278 279/279/279 
f 280/280/280 278/278/278 281/281/281 
f 281/281/281 279/279/279 282/282/282 
f 282/282/282 280/280/280 281/281/281 
f 280/280/280 282/282/282 283/283/283 
f 282/282/282 279/279/279 284/284/284 
f 285/285/285 283/283/283 282/282/282 
f 282/282/282 284/284/284 285/285/285 
f 285/285/285 284/284/284 286/286/286 
f 283/283/283 285/285/285 290/290/290 
f 291/291/291 292/292/292 293/293/293 
f 293/293/293 295/295/295 291/291/291 
f 293/293/293 292/292/292 296/296/296 
f 296/296/296 297/297/297 293/293/293 
f 298/298/298 293/293/293 297/297/297 
f 293/293/293 298/298/298 301/301/301 
f 301/301/301 300/300/300 295/295/295 
f 295/295/295 293/293/293 301/301/301 
f 302/302/302 303/303/303 304/304/304 
f 304/304/304 303/303/303 305/305/305 
f 306/306/306 304/304/304 305/305/305 
f 304/304/304 306/306/306 307/307/307 
f 311/311/311 309/309/309 313/313/313 
f 313/313/313 310/310/310 312/312/312 
f 313/313/313 309/309/309 314/314/314 
f 310/310/310 313/313/313 314/314/314 
f 315/315/315 316/316/316 317/317/317 
f 317/317/317 318/318/318 315/315/315 
f 316/316/316 319/319/319 317/317/317 
f 318/318/318 317/317/317 320/320/320 
f 320/320/320 321/321/321 318/318/318 
f 317/317/317 322/322/322 320/320/320 
f 322/322/322 317/317/317 319/319/319 
f 319/319/319 323/323/323 322/322/322 
f 319/319/319 316/316/316 324/324/324 
f 324/324/324 325/325/325 319/319/319 
f 323/323/323 319/319/319 325/325/325 
f 325/325/325 324/324/324 326/326/326 
f 326/326/326 328/328/328 325/325/325 
f 325/325/325 329/329/329 323/323/323 
f 329/329/329 325/325/325 328/328/328 
f 328/328/328 326/326/326 330/330/330 
f 328/328/328 331/331/331 329/329/329 
f 331/331/331 328/328/328 333/333/333 
f 330/330/330 333/333/333 328/328/328 
f 333/333/333 330/330/330 336/336/336 
f 336/336/336 339/339/339 333/333/333 
f 339/339/339 336/336/336 338/338/338 
f 340/340/340 333/333/333 339/339/339 
f 333/333/333 340/340/340 331/331/331 
f 339/339/339 341/341/341 340/340/340 
f 338/338/338 342/342/342 339/339/339 
f 341/341/341 339/339/339 342/342/342 
f 342/342/342 344/344/344 341/341/341 
f 344/344/344 342/342/342 345/345/345 
f 342/342/342 338/338/338 347/347/347 
f 347/347/347 345/345/345 342/342/342 
f 345/345/345 347/347/347 348/348/348 
f 349/349/349 345/345/345 348/348/348 
f 345/345/345 349/349/349 350/350/350 
f 350/350/350 344/344/344 345/345/345 
f 344/344/344 350/350/350 346/346/346 
f 351/351/351 350/350/350 349/349/349 
f 352/352/352 346/346/346 350/350/350 
f 350/350/350 351/351/351 352/352/352 
f 354/354/354 352/352/352 351/351/351 
f 346/346/346 352/352/352 355/355/355 
f 352/352/352 354/354/354 356/356/356 
f 356/356/356 355/355/355 352/352/352 
f 355/355/355 356/356/356 357/357/357 
f 358/358/358 356/356/356 354/354/354 
f 359/359/359 357/357/357 356/356/356 
f 356/356/356 358/358/358 359/359/359 
f 357/357/357 359/359/359 361/361/361 
f 362/362/362 359/359/359 358/358/358 
f 359/359/359 362/362/362 364/364/364 
f 363/363/363 364/364/364 362/362/362 
f 364/364/364 361/361/361 359/359/359 
f 361/361/361 364/364/364 365/365/365 
f 364/364/364 363/363/363 366/366/366 
f 366/366/366 365/365/365 364/364/364 
f 367/367/367 366/366/366 363/363/363 
f 365/365/365 366/366/366 368/368/368 
f 367/367/367 369/369/369 370/370/370 
f 366/366/366 367/367/367 370/370/370 
f 370/370/370 368/368/368 366/366/366 
f 370/370/370 369/369/369 371/371/371 
f 371/371/371 372/372/372 370/370/370 
f 368/368/368 370/370/370 372/372/372 
f 372/372/372 371/371/371 373/373/373 
f 376/376/376 375/375/375 374/374/374 
f 376/376/376 378/378/378 375/375/375 
f 379/379/379 378/378/378 376/376/376 
f 378/378/378 380/380/380 375/375/375 
f 380/380/380 378/378/378 382/382/382 
f 378/378/378 383/383/383 382/382/382 
f 379/379/379 384/384/384 378/378/378 
f 383/383/383 378/378/378 384/384/384 
f 389/389/389 388/388/388 387/387/387 
f 390/390/390 389/389/389 387/387/387 
f 391/391/391 389/389/389 390/390/390 
f 389/389/389 391/391/391 392/392/392 
f 396/396/396 394/394/394 395/395/395 
f 394/394/394 396/396/396 397/397/397 
f 397/397/397 396/396/396 398/398/398 
f 396/396/396 399/399/399 398/398/398 
f 402/402/402 401/401/401 400/400/400 
f 402/402/402 403/403/403 401/401/401 
f 404/404/404 403/403/403 402/402/402 
f 404/404/404 405/405/405 403/403/403 
f 406/406/406 403/403/403 405/405/405 
f 403/403/403 406/406/406 409/409/409 
f 410/410/410 409/409/409 406/406/406 
f 411/411/411 403/403/403 409/409/409 
f 403/403/403 411/411/411 401/401/401 
f 409/409/409 413/413/413 411/411/411 
f 409/409/409 410/410/410 414/414/414 
f 413/413/413 409/409/409 414/414/414 
f 414/414/414 415/415/415 413/413/413 
f 416/416/416 414/414/414 410/410/410 
f 414/414/414 416/416/416 418/418/418 
f 415/415/415 414/414/414 418/418/418 
f 419/419/419 418/418/418 416/416/416 
f 418/418/418 421/421/421 415/415/415 
f 418/418/418 419/419/419 422/422/422 
f 421/421/421 418/418/418 422/422/422 
f 420/420/420 422/422/422 419/419/419 
f 422/422/422 420/420/420 423/423/423 
f 422/422/422 424/424/424 421/421/421 
f 424/424/424 422/422/422 423/423/423 
f 430/430/430 426/426/426 429/429/429 
f 432/432/432 426/426/426 433/433/433 
f 433/433/433 426/426/426 434/434/434 
f 426/426/426 430/430/430 434/434/434 
f 435/435/435 433/433/433 434/434/434 
f 436/436/436 434/434/434 430/430/430 
f 435/435/435 434/434/434 437/437/437 
f 434/434/434 436/436/436 437/437/437 
f 438/438/438 435/435/435 437/437/437 
f 439/439/439 437/437/437 436/436/436 
f 437/437/437 439/439/439 441/441/441 
f 440/440/440 441/441/441 439/439/439 
f 438/438/438 437/437/437 441/441/441 
f 445/445/445 447/447/447 440/440/440 
f 445/445/445 446/446/446 448/448/448 
f 447/447/447 445/445/445 448/448/448 
f 449/449/449 448/448/448 446/446/446 
f 441/441/441 440/440/440 447/447/447 
f 448/448/448 449/449/449 450/450/450 
f 444/444/444 450/450/450 449/449/449 
f 450/450/450 447/447/447 448/448/448 
f 451/451/451 441/441/441 447/447/447 
f 450/450/450 451/451/451 447/447/447 
f 451/451/451 438/438/438 441/441/441 
f 452/452/452 453/453/453 454/454/454 
f 453/453/453 452/452/452 455/455/455 
f 455/455/455 452/452/452 456/456/456 
f 457/457/457 453/453/453 455/455/455 
f 453/453/453 457/457/457 458/458/458 
f 457/457/457 455/455/455 459/459/459 
f 469/469/469 463/463/463 467/467/467 
f 463/463/463 469/469/469 464/464/464 
f 469/469/469 465/465/465 464/464/464 
f 467/467/467 470/470/470 469/469/469 
f 470/470/470 467/467/467 468/468/468 
f 465/465/465 469/469/469 471/471/471 
f 470/470/470 471/471/471 469/469/469 
f 472/472/472 470/470/470 468/468/468 
f 471/471/471 470/470/470 473/473/473 
f 470/470/470 474/474/474 473/473/473 
f 470/470/470 472/472/472 475/475/475 
f 470/470/470 475/475/475 474/474/474 
f 476/476/476 475/475/475 472/472/472 
f 475/475/475 477/477/477 474/474/474 
f 475/475/475 478/478/478 477/477/477 
f 475/475/475 476/476/476 478/478/478 
f 484/484/484 483/483/483 480/480/480 
f 485/485/485 482/482/482 483/483/483 
f 483/483/483 484/484/484 485/485/485 
f 482/482/482 485/485/485 486/486/486 
f 487/487/487 485/485/485 484/484/484 
f 485/485/485 488/488/488 486/486/486 
f 485/485/485 487/487/487 489/489/489 
f 489/489/489 488/488/488 485/485/485 
f 493/493/493 491/491/491 492/492/492 
f 491/491/491 493/493/493 494/494/494 
f 495/495/495 494/494/494 493/493/493 
f 493/493/493 496/496/496 495/495/495 
f 497/497/497 498/498/498 499/499/499 
f 500/500/500 499/499/499 498/498/498 
f 498/498/498 497/497/497 501/501/501 
f 498/498/498 502/502/502 500/500/500 
f 510/510/510 509/509/509 508/508/508 
f 509/509/509 510/510/510 511/511/511 
f 512/512/512 510/510/510 508/508/508 
f 513/513/513 511/511/511 510/510/510 
f 511/511/511 513/513/513 507/507/507 
f 514/514/514 513/513/513 510/510/510 
f 510/510/510 512/512/512 514/514/514 
f 513/513/513 514/514/514 515/515/515 
f 512/512/512 516/516/516 514/514/514 
f 514/514/514 517/517/517 515/515/515 
f 517/517/517 514/514/514 516/516/516 
f 518/518/518 515/515/515 517/517/517 
f 516/516/516 522/522/522 517/517/517 
f 523/523/523 517/517/517 522/522/522 
f 517/517/517 523/523/523 518/518/518 
f 522/522/522 524/524/524 523/523/523 
f 525/525/525 518/518/518 523/523/523 
f 526/526/526 523/523/523 524/524/524 
f 523/523/523 526/526/526 525/525/525 
f 526/526/526 524/524/524 527/527/527 
f 528/528/528 525/525/525 526/526/526 
f 529/529/529 526/526/526 527/527/527 
f 528/528/528 526/526/526 529/529/529 
f 530/530/530 529/529/529 527/527/527 
f 531/531/531 528/528/528 529/529/529 
f 530/530/530 532/532/532 529/529/529 
f 532/532/532 531/531/531 529/529/529 
f 536/536/536 532/532/532 530/530/530 
f 532/532/532 536/536/536 538/538/538 
f 536/536/536 537/537/537 539/539/539 
f 536/536/536 539/539/539 538/538/538 
f 538/538/538 540/540/540 532/532/532 
f 532/532/532 540/540/540 531/531/531 
f 540/540/540 538/538/538 541/541/541 
f 538/538/538 542/542/542 541/541/541 
f 538/538/538 539/539/539 542/542/542 
f 539/539/539 543/543/543 542/542/542 
f 550/550/550 548/548/548 543/543/543 
f 543/543/543 539/539/539 550/550/550 
f 537/537/537 550/550/550 539/539/539 
f 548/548/548 550/550/550 552/552/552 
f 551/551/551 548/548/548 552/552/552 
f 550/550/550 537/537/537 553/553/553 
f 553/553/553 552/552/552 550/550/550 
f 552/552/552 553/553/553 554/554/554 
f 551/551/551 552/552/552 555/555/555 
f 555/555/555 552/552/552 554/554/554 
f 556/556/556 551/551/551 555/555/555 
f 555/555/555 554/554/554 557/557/557 
f 556/556/556 555/555/555 558/558/558 
f 558/558/558 555/555/555 557/557/557 
f 558/558/558 557/557/557 559/559/559 
f 560/560/560 556/556/556 558/558/558 
f 561/561/561 558/558/558 559/559/559 
f 558/558/558 561/561/561 560/560/560 
f 563/563/563 565/565/565 566/566/566 
f 565/565/565 560/560/560 561/561/561 
f 566/566/566 565/565/565 567/567/567 
f 561/561/561 567/567/567 565/565/565 
f 566/566/566 567/567/567 568/568/568 
f 568/568/568 567/567/567 570/570/570 
f 571/571/571 570/570/570 567/567/567 
f 567/567/567 561/561/561 571/571/571 
f 559/559/559 571/571/571 561/561/561 

g Meshpart3

v -178.706 7.39088 0.208191 
v -178.742 7.4029 0.202297 
v -178.708 7.38914 0.214021 
v -178.742 7.4029 0.214085 
v -178.692 7.35608 0.208191 
v -178.741 7.39698 0.216313 
v -178.712 7.385 0.216311 
v -178.74 7.39128 0.213873 
v -178.694 7.35608 0.214021 
v -178.716 7.38101 0.213817 
v -178.718 7.37941 0.208191 
v -178.74 7.38891 0.208191 
v -178.7 7.35608 0.216311 
v -178.706 7.35608 0.213817 
v -178.708 7.35608 0.208191 
v -178.718 7.33275 0.208191 
v -178.716 7.33115 0.213817 
v -178.712 7.32716 0.216311 
v -178.74 7.32088 0.213873 
v -178.74 7.32325 0.208191 
v -178.741 7.31518 0.216313 
v -178.708 7.32302 0.214021 
v -178.742 7.30926 0.214085 
v -178.708 7.38914 0.202361 
v -178.742 7.40546 0.208191 
v -178.706 7.39088 0.208191 
v -178.742 7.4029 0.202297 
v -178.708 7.38914 0.214021 
v -178.742 7.4029 0.214085 
v -178.74 7.39128 0.213873 
v -178.718 7.33275 0.208191 
v -178.716 7.33115 0.213817 
v -178.712 7.32716 0.216311 
v -178.74 7.32088 0.213873 
v -178.74 7.32325 0.208191 
v -178.74 7.32088 0.202509 
v -178.742 7.30926 0.214085 
v -178.712 7.32716 0.200071 
v -178.716 7.33115 0.202565 
v -178.712 7.385 0.200071 
v -178.716 7.38101 0.202565 
v -178.712 7.385 0.216311 
v -178.716 7.38101 0.213817 
v -178.718 7.37941 0.208191 
v -178.7 7.35608 0.216311 
v -178.706 7.35608 0.213817 
v -178.708 7.35608 0.208191 
v -178.706 7.35608 0.202565 
v -178.718 7.33275 0.208191 
v -178.716 7.33115 0.213817 
v -178.712 7.32716 0.216311 
v -178.712 7.32716 0.200071 
v -178.7 7.35608 0.200071 
v -178.716 7.33115 0.202565 
v -178.708 7.38914 0.202361 
v -178.706 7.39088 0.208191 
v -178.742 7.4029 0.202297 
v -178.741 7.39698 0.200069 
v -178.692 7.35608 0.208191 
v -178.712 7.385 0.200071 
v -178.74 7.39128 0.202509 
v -178.694 7.35608 0.202361 
v -178.716 7.38101 0.202565 
v -178.718 7.37941 0.208191 
v -178.74 7.38891 0.208191 
v -178.708 7.35608 0.208191 
v -178.706 7.35608 0.202565 
v -178.718 7.33275 0.208191 
v -178.74 7.32325 0.208191 
v -178.74 7.32088 0.202509 
v -178.742 7.30926 0.214085 
v -178.706 7.32128 0.208191 
v -178.708 7.32302 0.202361 
v -178.742 7.30926 0.202297 
v -178.741 7.31518 0.200069 
v -178.712 7.32716 0.200071 
v -178.7 7.35608 0.200071 
v -178.716 7.33115 0.202565 
v -178.742 7.4029 0.202297 
v -178.712 7.385 0.200071 
v -178.74 7.39128 0.202509 
v -178.716 7.38101 0.202565 
v -178.712 7.385 0.216311 
v -178.74 7.39128 0.213873 
v -178.716 7.38101 0.213817 
v -178.718 7.37941 0.208191 
v -178.74 7.38891 0.208191 
v -178.74 7.32088 0.202509 
v -178.708 7.32302 0.214021 
v -178.742 7.30926 0.214085 
v -178.742 7.3067 0.208191 
v -178.706 7.32128 0.208191 
v -178.708 7.32302 0.202361 
v -178.742 7.30926 0.202297 
v -178.708 7.38914 0.202361 
v -178.706 7.39088 0.208191 
v -178.708 7.38914 0.214021 
v -178.692 7.35608 0.208191 
v -178.694 7.35608 0.202361 
v -178.694 7.35608 0.214021 
v -178.708 7.32302 0.214021 
v -178.706 7.32128 0.208191 
v -178.708 7.32302 0.202361 

vn 0.708661 0.708661 0 
vn 0.299213 0.716535 -0.629921 
vn 0.519685 0.527559 0.669291 
vn 0.299213 0.716535 0.629921 
vn 1 0 0 
vn 0.0393701 0.102362 0.992126 
vn 0.0551181 0.0551181 1 
vn -0.267717 -0.629921 0.724409 
vn 0.740157 0 0.669291 
vn -0.472441 -0.472441 0.740157 
vn -0.708661 -0.700787 0 
vn -0.385827 -0.92126 0 
vn 0.0708661 0 1 
vn -0.669291 0 0.748031 
vn -1 0 0 
vn -0.708661 0.708661 0 
vn -0.472441 0.472441 0.740157 
vn 0.0551181 -0.0551181 1 
vn -0.267717 0.629921 0.732283 
vn -0.385827 0.92126 0 
vn 0.0393701 -0.102362 0.992126 
vn 0.519685 -0.527559 0.669291 
vn 0.299213 -0.716535 0.629921 
vn 0.519685 0.527559 -0.669291 
vn 0.377953 0.929134 0 
vn 0.708661 0.708661 0 
vn 0.299213 0.716535 -0.629921 
vn 0.519685 0.527559 0.669291 
vn 0.299213 0.716535 0.629921 
vn -0.267717 -0.629921 0.724409 
vn -0.708661 0.708661 0 
vn -0.472441 0.472441 0.740157 
vn 0.0551181 -0.0551181 1 
vn -0.267717 0.629921 0.732283 
vn -0.385827 0.92126 0 
vn -0.267717 0.629921 -0.732283 
vn 0.299213 -0.716535 0.629921 
vn 0.0551181 -0.0551181 -1 
vn -0.472441 0.472441 -0.740157 
vn 0.0551181 0.0551181 -1 
vn -0.472441 -0.472441 -0.740157 
vn 0.0551181 0.0551181 1 
vn -0.472441 -0.472441 0.740157 
vn -0.708661 -0.700787 0 
vn 0.0708661 0 1 
vn -0.669291 0 0.748031 
vn -1 0 0 
vn -0.669291 0 -0.748031 
vn -0.708661 0.708661 0 
vn -0.472441 0.472441 0.740157 
vn 0.0551181 -0.0551181 1 
vn 0.0551181 -0.0551181 -1 
vn 0.0708661 0 -1 
vn -0.472441 0.472441 -0.740157 
vn 0.519685 0.527559 -0.669291 
vn 0.708661 0.708661 0 
vn 0.299213 0.716535 -0.629921 
vn 0.0393701 0.102362 -0.992126 
vn 1 0 0 
vn 0.0551181 0.0551181 -1 
vn -0.267717 -0.629921 -0.732283 
vn 0.740157 0 -0.669291 
vn -0.472441 -0.472441 -0.740157 
vn -0.708661 -0.700787 0 
vn -0.385827 -0.92126 0 
vn -1 0 0 
vn -0.669291 0 -0.748031 
vn -0.708661 0.708661 0 
vn -0.385827 0.92126 0 
vn -0.267717 0.629921 -0.732283 
vn 0.299213 -0.716535 0.629921 
vn 0.708661 -0.708661 0 
vn 0.519685 -0.527559 -0.669291 
vn 0.299213 -0.716535 -0.629921 
vn 0.0393701 -0.102362 -0.992126 
vn 0.0551181 -0.0551181 -1 
vn 0.0708661 0 -1 
vn -0.472441 0.472441 -0.740157 
vn 0.299213 0.716535 -0.629921 
vn 0.0551181 0.0551181 -1 
vn -0.267717 -0.629921 -0.732283 
vn -0.472441 -0.472441 -0.740157 
vn 0.0551181 0.0551181 1 
vn -0.267717 -0.629921 0.724409 
vn -0.472441 -0.472441 0.740157 
vn -0.708661 -0.700787 0 
vn -0.385827 -0.92126 0 
vn -0.267717 0.629921 -0.732283 
vn 0.519685 -0.527559 0.669291 
vn 0.299213 -0.716535 0.629921 
vn 0.377953 -0.929134 0 
vn 0.708661 -0.708661 0 
vn 0.519685 -0.527559 -0.669291 
vn 0.299213 -0.716535 -0.629921 
vn 0.519685 0.527559 -0.669291 
vn 0.708661 0.708661 0 
vn 0.519685 0.527559 0.669291 
vn 1 0 0 
vn 0.740157 0 -0.669291 
vn 0.740157 0 0.669291 
vn 0.519685 -0.527559 0.669291 
vn 0.708661 -0.708661 0 
vn 0.519685 -0.527559 -0.669291 

vt 52.0013 -26.9956 
vt 51.9969 -26.9941 
vt 52.0011 -26.9959 
vt 51.9969 -26.9941 
vt 52.0031 -27 
vt 51.997 -26.9949 
vt 52.0006 -26.9964 
vt 51.997 -26.9956 
vt 52.0028 -27 
vt 52.0001 -26.9969 
vt 51.9999 -26.9971 
vt 51.9971 -26.9959 
vt 52.0021 -27 
vt 52.0014 -27 
vt 52.0011 -27 
vt 51.9999 -27.0029 
vt 52.0001 -27.0031 
vt 52.0006 -27.0036 
vt 51.997 -27.0044 
vt 51.9971 -27.0041 
vt 51.997 -27.0051 
vt 52.0011 -27.0041 
vt 51.9969 -27.0059 
vt 52.0007 -27.0011 
vt 52 -26.9969 
vt 52 -27.0013 
vt 52.0007 -26.9969 
vt 51.9993 -27.0011 
vt 51.9993 -26.9969 
vt 51.9993 -26.997 
vt 52 -26.9999 
vt 51.9993 -27.0001 
vt 51.999 -27.0006 
vt 51.9993 -26.997 
vt 52 -26.9971 
vt 52.0007 -26.997 
vt 51.9993 -26.9969 
vt 52.001 -27.0006 
vt 52.0007 -27.0001 
vt 51.999 -26.9964 
vt 51.9993 -26.9969 
vt 52.001 -26.9964 
vt 52.0007 -26.9969 
vt 52 -26.9971 
vt 52.001 -27 
vt 52.0007 -27 
vt 52 -27 
vt 51.9993 -27 
vt 52 -27.0029 
vt 52.0007 -27.0031 
vt 52.001 -27.0036 
vt 51.999 -27.0036 
vt 51.999 -27 
vt 51.9993 -27.0031 
vt 51.9989 -26.9959 
vt 51.9987 -26.9956 
vt 52.0031 -26.9941 
vt 52.003 -26.9949 
vt 51.9969 -27 
vt 51.9994 -26.9964 
vt 52.003 -26.9956 
vt 51.9972 -27 
vt 51.9999 -26.9969 
vt 52.0001 -26.9971 
vt 52.0029 -26.9959 
vt 51.9989 -27 
vt 51.9986 -27 
vt 52.0001 -27.0029 
vt 52.0029 -27.0041 
vt 52.003 -27.0044 
vt 52.0031 -27.0059 
vt 51.9987 -27.0044 
vt 51.9989 -27.0041 
vt 52.0031 -27.0059 
vt 52.003 -27.0051 
vt 51.9994 -27.0036 
vt 51.9979 -27 
vt 51.9999 -27.0031 
vt 51.9993 -26.9969 
vt 51.999 -27.0006 
vt 51.9993 -26.997 
vt 51.9993 -27.0001 
vt 52.001 -27.0006 
vt 52.0007 -26.997 
vt 52.0007 -27.0001 
vt 52 -26.9999 
vt 52 -26.9971 
vt 51.9993 -26.997 
vt 52.0007 -27.0011 
vt 52.0007 -26.9969 
vt 52 -26.9969 
vt 52 -27.0013 
vt 51.9993 -27.0011 
vt 51.9993 -26.9969 
vt 52.0007 -26.9959 
vt 52 -26.9956 
vt 51.9993 -26.9959 
vt 52 -27 
vt 52.0007 -27 
vt 51.9993 -27 
vt 51.9993 -27.0041 
vt 52 -27.0044 
vt 52.0007 -27.0041 

usemtl Meshpart2Mtl

f 577/577/577 574/574/574 575/575/575 
f 574/574/574 577/577/577 578/578/578 
f 579/579/579 578/578/578 577/577/577 
f 580/580/580 574/574/574 578/578/578 
f 578/578/578 579/579/579 581/581/581 
f 584/584/584 578/578/578 581/581/581 
f 580/580/580 578/578/578 584/584/584 
f 584/584/584 581/581/581 585/585/585 
f 588/588/588 584/584/584 585/585/585 
f 589/589/589 580/580/580 584/584/584 
f 584/584/584 588/588/588 589/589/589 
f 590/590/590 589/589/589 588/588/588 
f 589/589/589 590/590/590 592/592/592 
f 580/580/580 589/589/589 593/593/593 
f 592/592/592 593/593/593 589/589/589 
f 593/593/593 592/592/592 594/594/594 
f 595/595/595 596/596/596 597/597/597 
f 596/596/596 595/595/595 598/598/598 
f 596/596/596 599/599/599 597/597/597 
f 599/599/599 596/596/596 600/600/600 
f 605/605/605 603/603/603 602/602/602 
f 602/602/602 606/606/606 605/605/605 
f 602/602/602 607/607/607 606/606/606 
f 607/607/607 602/602/602 610/610/610 
f 615/615/615 617/617/617 614/614/614 
f 617/617/617 615/615/615 618/618/618 
f 619/619/619 615/615/615 612/612/612 
f 615/615/615 619/619/619 618/618/618 
f 620/620/620 617/617/617 618/618/618 
f 619/619/619 620/620/620 618/618/618 
f 617/617/617 620/620/620 621/621/621 
f 620/620/620 619/619/619 625/625/625 
f 626/626/626 629/629/629 628/628/628 
f 629/629/629 626/626/626 631/631/631 
f 631/631/631 632/632/632 629/629/629 
f 633/633/633 631/631/631 626/626/626 
f 632/632/632 631/631/631 634/634/634 
f 644/644/644 645/645/645 646/646/646 
f 644/644/644 646/646/646 647/647/647 
f 647/647/647 633/633/633 644/644/644 
f 647/647/647 646/646/646 641/641/641 
f 633/633/633 647/647/647 648/648/648 
f 631/631/631 633/633/633 648/648/648 
f 648/648/648 634/634/634 631/631/631 
f 634/634/634 648/648/648 638/638/638 
f 649/649/649 648/648/648 647/647/647 
f 647/647/647 641/641/641 649/649/649 
f 648/648/648 649/649/649 638/638/638 
f 657/657/657 652/652/652 653/653/653 
f 655/655/655 657/657/657 656/656/656 
f 652/652/652 657/657/657 658/658/658 
f 657/657/657 655/655/655 658/658/658 
f 660/660/660 661/661/661 662/662/662 
f 662/662/662 663/663/663 660/660/660 
f 662/662/662 664/664/664 663/663/663 
f 664/664/664 662/662/662 665/665/665 
f 669/669/669 666/666/666 667/667/667 
f 669/669/669 667/667/667 668/668/668 
f 666/666/666 669/669/669 670/670/670 
f 668/668/668 671/671/671 669/669/669 
f 672/672/672 669/669/669 671/671/671 
f 669/669/669 672/672/672 673/673/673 
f 669/669/669 673/673/673 674/674/674 
f 674/674/674 670/670/670 669/669/669 

