# This file is brought to you by Roblox Corporation
# Generated by Roblox Studio

mtllib Scythe.mtl

g Meshpart1

v -209.915 9.00175 0.844282 
v -209.975 8.63669 0.844282 
v -209.915 8.55036 0.844282 
v -209.975 9.00175 0.844282 
v -209.855 8.63669 0.844282 
v -209.855 9.00175 0.844282 
v -209.761 9.11196 0.99123 
v -209.761 8.22928 0.99123 
v -210.115 8.29956 0.99123 
v -210.024 8.22928 1.10018 
v -210.057 8.29956 1.13283 
v -210.115 9.04168 0.99123 
v -209.915 8.29956 1.19148 
v -209.915 8.22928 1.14531 
v -209.806 8.22928 1.10018 
v -210.057 9.04168 1.13283 
v -210.024 9.11196 1.10018 
v -209.915 9.04168 1.19148 
v -209.915 9.11196 1.14531 
v -209.806 9.11196 1.10018 
v -209.773 8.29956 1.13283 
v -209.773 9.04168 1.13283 
v -209.761 9.11196 0.99123 
v -209.915 9.11196 0.837146 
v -210.069 9.11196 0.99123 
v -210.024 9.11196 0.882276 
v -209.806 9.11196 0.882276 
v -209.915 9.11196 1.14531 
v -209.806 9.11196 1.10018 
v -210.024 9.11196 1.10018 
v -209.855 9.00175 0.844282 
v -209.855 9.00175 0.712876 
v -209.915 9.00175 0.712876 
v -209.855 8.98479 0.57296 
v -209.915 9.00175 0.844282 
v -209.975 9.00175 0.712876 
v -209.975 9.00175 0.844282 
v -209.915 8.98479 0.57296 
v -209.855 8.97207 0.471204 
v -209.975 8.98479 0.57296 
v -209.915 8.97207 0.471204 
v -209.855 8.95617 0.361676 
v -209.975 8.97207 0.471204 
v -209.915 8.95617 0.361676 
v -209.855 8.89875 -0.0322763 
v -209.975 8.95617 0.361676 
v -209.915 8.89875 -0.0322763 
v -209.855 8.80954 -0.426228 
v -209.975 8.89875 -0.0322763 
v -209.915 8.80954 -0.426228 
v -209.855 8.65691 -0.981816 
v -209.975 8.80954 -0.426228 
v -209.915 8.65691 -0.981816 
v -209.855 8.48943 -1.40792 
v -209.975 8.65691 -0.981816 
v -209.915 8.48943 -1.40792 
v -209.855 8.26472 -1.82978 
v -209.975 8.48943 -1.40792 
v -209.915 8.26472 -1.82978 
v -209.855 7.97429 -2.26437 
v -209.975 8.26472 -1.82978 
v -209.915 7.97429 -2.26437 
v -209.975 7.97429 -2.26437 
v -209.855 7.58635 -2.69895 
v -209.975 7.58635 -2.69895 
v -209.915 7.58635 -2.69895 
v -209.915 7.07529 -3.07417 
v -209.915 9.00175 0.844282 
v -209.761 9.11196 0.99123 
v -209.915 8.97207 0.471204 
v -209.915 8.89875 -0.0322763 
v -209.915 8.65691 -0.981816 
v -209.915 8.26472 -1.82978 
v -209.855 7.97429 -2.26437 
v -209.975 8.26472 -1.82978 
v -209.915 7.97429 -2.26437 
v -209.915 7.58635 -2.69895 
v -209.855 7.33125 -2.90458 
v -209.761 8.22928 0.99123 
v -209.915 8.22928 0.837146 
v -209.975 9.00175 0.712876 
v -209.975 8.63669 0.712876 
v -209.975 8.63669 0.844282 
v -209.975 9.00175 0.844282 
v -209.975 8.98479 0.57296 
v -209.975 8.61973 0.57296 
v -209.975 8.97207 0.471204 
v -209.975 8.53811 0.471204 
v -209.975 8.95617 0.361676 
v -209.975 8.43742 0.361676 
v -209.975 8.89875 -0.0322763 
v -209.975 8.41799 -0.0322763 
v -209.975 8.80954 -0.426228 
v -209.975 8.36676 -0.426228 
v -209.975 8.65691 -0.981816 
v -209.975 8.23854 -0.981816 
v -209.975 8.48943 -1.40792 
v -209.975 8.10923 -1.40792 
v -209.975 8.26472 -1.82978 
v -209.975 7.93115 -1.82978 
v -209.975 7.97429 -2.26437 
v -209.975 7.7181 -2.26437 
v -209.975 7.58635 -2.69895 
v -209.975 7.44145 -2.69895 
v -209.975 7.33125 -2.90458 
v -209.975 7.16162 -3.01795 
v -209.915 8.45178 0.471204 
v -209.915 8.28043 -0.426228 
v -209.915 8.0229 -1.40792 
v -209.915 7.35512 -2.69895 
v -209.975 8.63669 0.712876 
v -209.975 8.61973 0.57296 
v -209.915 8.55036 0.712876 
v -209.975 8.63669 0.844282 
v -209.915 8.55036 0.844282 
v -209.915 8.5334 0.57296 
v -209.975 8.53811 0.471204 
v -209.915 8.45178 0.471204 
v -209.975 8.43742 0.361676 
v -209.915 8.35109 0.361676 
v -209.975 8.41799 -0.0322763 
v -209.915 8.33166 -0.0322763 
v -209.975 8.36676 -0.426228 
v -209.915 8.28043 -0.426228 
v -209.975 8.23854 -0.981816 
v -209.915 8.15221 -0.981816 
v -209.975 8.10923 -1.40792 
v -209.915 8.0229 -1.40792 
v -209.975 7.93115 -1.82978 
v -209.915 7.84482 -1.82978 
v -209.975 7.7181 -2.26437 
v -209.915 7.63177 -2.26437 
v -209.975 7.44145 -2.69895 
v -209.915 7.35512 -2.69895 
v -209.975 7.16162 -3.01795 
v -210.057 9.04168 0.84963 
v -210.057 8.29956 0.84963 
v -210.115 8.29956 0.99123 
v -210.024 8.22928 0.882276 
v -210.069 8.22928 0.99123 
v -209.915 8.22928 0.837146 
v -210.024 8.22928 1.10018 
v -210.057 8.29956 1.13283 
v -210.115 9.04168 0.99123 
v -209.915 8.22928 1.14531 
v -210.057 9.04168 1.13283 
v -210.024 9.11196 0.882276 
v -210.069 9.11196 0.99123 
v -209.915 9.11196 0.837146 
v -210.024 9.11196 1.10018 
v -209.855 7.16162 -3.01795 
v -209.915 7.33125 -2.90458 
v -209.855 7.33125 -2.90458 
v -209.975 7.16162 -3.01795 
v -209.915 7.07529 -3.07417 
v -209.975 7.33125 -2.90458 
v -209.761 9.11196 0.99123 
v -209.855 7.58635 -2.69895 
v -209.975 7.58635 -2.69895 
v -209.915 7.58635 -2.69895 
v -209.855 7.33125 -2.90458 
v -209.915 7.33125 -2.90458 
v -209.975 7.33125 -2.90458 
v -209.761 8.22928 0.99123 
v -210.057 9.04168 0.84963 
v -210.057 8.29956 0.84963 
v -210.115 8.29956 0.99123 
v -209.915 9.04168 0.790976 
v -210.024 8.22928 0.882276 
v -209.915 8.29956 0.790976 
v -209.915 8.22928 0.837146 
v -209.806 8.22928 0.882276 
v -210.115 9.04168 0.99123 
v -210.024 9.11196 0.882276 
v -209.915 9.11196 0.837146 
v -209.806 9.11196 0.882276 
v -209.915 9.11196 1.14531 
v -209.715 8.29956 0.99123 
v -209.773 8.29956 0.84963 
v -209.773 9.04168 0.84963 
v -209.761 8.22928 0.99123 
v -210.069 8.22928 0.99123 
v -209.915 8.22928 0.837146 
v -210.024 8.22928 0.882276 
v -209.806 8.22928 0.882276 
v -209.915 8.22928 1.14531 
v -210.024 8.22928 1.10018 
v -209.806 8.22928 1.10018 
v -209.855 8.63669 0.712876 
v -209.915 8.5334 0.57296 
v -209.855 8.43742 0.361676 
v -209.915 8.28043 -0.426228 
v -209.855 8.10923 -1.40792 
v -209.915 7.63177 -2.26437 
v -209.855 7.44145 -2.69895 
v -209.915 7.35512 -2.69895 
v -209.855 7.16162 -3.01795 
v -209.915 7.07529 -3.07417 
v -209.975 8.63669 0.844282 
v -209.915 8.5334 0.57296 
v -209.975 8.43742 0.361676 
v -209.975 8.10923 -1.40792 
v -209.915 7.63177 -2.26437 
v -209.975 7.44145 -2.69895 
v -209.915 7.35512 -2.69895 
v -209.975 7.16162 -3.01795 
v -209.915 7.07529 -3.07417 
v -209.915 7.07529 -3.07417 
v -209.915 9.00175 0.844282 
v -209.761 9.11196 0.99123 
v -209.915 8.97207 0.471204 
v -209.915 8.89875 -0.0322763 
v -209.915 8.65691 -0.981816 
v -209.915 8.26472 -1.82978 
v -209.915 7.97429 -2.26437 
v -209.915 7.58635 -2.69895 
v -209.761 8.22928 0.99123 
v -209.915 8.22928 0.837146 
v -209.975 8.10923 -1.40792 
v -209.855 8.98479 0.57296 
v -209.855 8.63669 0.712876 
v -209.855 8.61973 0.57296 
v -209.855 9.00175 0.712876 
v -209.855 9.00175 0.844282 
v -209.855 8.63669 0.844282 
v -209.855 8.97207 0.471204 
v -209.855 8.53811 0.471204 
v -209.855 8.95617 0.361676 
v -209.855 8.43742 0.361676 
v -209.855 8.89875 -0.0322763 
v -209.855 8.41799 -0.0322763 
v -209.855 8.80954 -0.426228 
v -209.855 8.36676 -0.426228 
v -209.855 8.65691 -0.981816 
v -209.855 8.23854 -0.981816 
v -209.855 8.48943 -1.40792 
v -209.855 8.10923 -1.40792 
v -209.855 8.26472 -1.82978 
v -209.855 7.93115 -1.82978 
v -209.855 7.97429 -2.26437 
v -209.855 7.7181 -2.26437 
v -209.855 7.58635 -2.69895 
v -209.855 7.44145 -2.69895 
v -209.855 7.33125 -2.90458 
v -209.855 7.16162 -3.01795 
v -209.855 8.63669 0.712876 
v -209.855 8.63669 0.844282 
v -209.915 8.55036 0.844282 
v -209.915 8.55036 0.712876 
v -209.855 8.61973 0.57296 
v -209.915 8.5334 0.57296 
v -209.855 8.53811 0.471204 
v -209.915 8.45178 0.471204 
v -209.855 8.43742 0.361676 
v -209.915 8.35109 0.361676 
v -209.855 8.41799 -0.0322763 
v -209.915 8.33166 -0.0322763 
v -209.855 8.36676 -0.426228 
v -209.915 8.28043 -0.426228 
v -209.855 8.23854 -0.981816 
v -209.915 8.15221 -0.981816 
v -209.855 8.10923 -1.40792 
v -209.915 8.0229 -1.40792 
v -209.855 7.93115 -1.82978 
v -209.915 7.84482 -1.82978 
v -209.855 7.7181 -2.26437 
v -209.915 7.63177 -2.26437 
v -209.855 7.44145 -2.69895 
v -209.915 7.35512 -2.69895 
v -209.855 7.16162 -3.01795 
v -209.915 8.22928 0.837146 
v -209.806 8.22928 0.882276 
v -209.806 8.22928 1.10018 
v -209.915 9.11196 0.837146 
v -209.806 9.11196 0.882276 
v -209.915 9.11196 1.14531 
v -209.806 9.11196 1.10018 
v -209.773 8.29956 1.13283 
v -209.773 9.04168 1.13283 
v -209.715 8.29956 0.99123 
v -209.761 8.22928 0.99123 
v -209.715 9.04168 0.99123 
v -209.761 9.11196 0.99123 
v -209.773 8.29956 0.84963 
v -209.773 9.04168 0.84963 

vn 0 0 1 
vn 0 0 1 
vn 0 0 1 
vn 0 0 1 
vn 0 0 1 
vn 0 0 1 
vn 0 1 0 
vn 0 -1 0 
vn -0.96063 -0.267717 0 
vn -0.590551 -0.551181 0.590551 
vn -0.685039 -0.267717 0.677165 
vn -0.96063 0.267717 0 
vn 0 -0.267717 0.96063 
vn 0 -0.551181 0.834646 
vn 0.590551 -0.551181 0.590551 
vn -0.685039 0.267717 0.677165 
vn -0.590551 0.551181 0.590551 
vn 0 0.267717 0.96063 
vn 0 0.551181 0.834646 
vn 0.590551 0.551181 0.590551 
vn 0.685039 -0.267717 0.677165 
vn 0.685039 0.267717 0.677165 
vn 0 1 0 
vn 0 1 0 
vn 0 1 0 
vn 0 1 0 
vn 0 1 0 
vn 0 1 0 
vn 0 1 0 
vn 0 1 0 
vn 0 1 0 
vn 0 1 -0.0629921 
vn 0 1 -0.0629921 
vn 0 0.992126 -0.11811 
vn 0 1 0 
vn 0 1 -0.0629921 
vn 0 1 0 
vn 0 0.992126 -0.11811 
vn 0 0.992126 -0.133858 
vn 0 0.992126 -0.11811 
vn 0 0.992126 -0.133858 
vn 0 0.992126 -0.141732 
vn 0 0.992126 -0.133858 
vn 0 0.992126 -0.141732 
vn 0 0.984252 -0.181102 
vn 0 0.992126 -0.141732 
vn 0 0.984252 -0.181102 
vn 0 0.968504 -0.244094 
vn 0 0.984252 -0.181102 
vn 0 0.968504 -0.244094 
vn 0 0.952756 -0.314961 
vn 0 0.968504 -0.244094 
vn 0 0.952756 -0.314961 
vn 0 0.905512 -0.417323 
vn 0 0.952756 -0.314961 
vn 0 0.905512 -0.417323 
vn 0 0.858268 -0.511811 
vn 0 0.905512 -0.417323 
vn 0 0.858268 -0.511811 
vn 0 0.787402 -0.614173 
vn 0 0.858268 -0.511811 
vn 0 0.787402 -0.614173 
vn 0 0.787402 -0.614173 
vn 0 0.692913 -0.724409 
vn 0 0.692913 -0.724409 
vn 0 0.692913 -0.724409 
vn 0 0.551181 -0.834646 
vn 0 0 1 
vn 0 1 0 
vn 0 0.992126 -0.133858 
vn 0 0.984252 -0.181102 
vn 0 0.952756 -0.314961 
vn 0 0.858268 -0.511811 
vn 0 0.787402 -0.614173 
vn 0 0.858268 -0.511811 
vn 0 0.787402 -0.614173 
vn 0 0.692913 -0.724409 
vn 0 0.629921 -0.779528 
vn 0 -1 0 
vn 0 -1 0 
vn -1 0 0 
vn -1 0 0 
vn -1 0 0 
vn -1 0 0 
vn -1 0 0 
vn -1 0 0 
vn -1 0 0 
vn -1 0 0 
vn -1 0 0 
vn -1 0 0 
vn -1 0 0 
vn -1 0 0 
vn -1 0 0 
vn -1 0 0 
vn -1 0 0 
vn -1 0 0 
vn -1 0 0 
vn -1 0 0 
vn -1 0 0 
vn -1 0 0 
vn -1 0 0 
vn -1 0 0 
vn -1 0 0 
vn -1 0 0 
vn -1 0 0 
vn -1 0 0 
vn 0.732283 -0.511811 0.448819 
vn 0.818898 -0.566929 0.102362 
vn 0.80315 -0.559055 0.204724 
vn 0.692913 -0.582677 0.433071 
vn -0.818898 -0.566929 0.0314961 
vn -0.80315 -0.559055 0.204724 
vn -0.818898 -0.566929 0.0314961 
vn -0.826772 -0.566929 0 
vn -0.826772 -0.566929 0 
vn -0.787402 -0.543307 0.275591 
vn -0.740157 -0.511811 0.433071 
vn -0.732283 -0.511811 0.448819 
vn -0.787402 -0.543307 0.291339 
vn -0.80315 -0.559055 0.19685 
vn -0.818898 -0.566929 0.0472441 
vn -0.818898 -0.566929 0.0551181 
vn -0.818898 -0.566929 0.102362 
vn -0.818898 -0.566929 0.102362 
vn -0.811024 -0.559055 0.149606 
vn -0.811024 -0.559055 0.149606 
vn -0.80315 -0.559055 0.19685 
vn -0.80315 -0.559055 0.204724 
vn -0.795276 -0.551181 0.244094 
vn -0.795276 -0.551181 0.251969 
vn -0.787402 -0.543307 0.291339 
vn -0.779528 -0.543307 0.314961 
vn -0.732283 -0.559055 0.385827 
vn -0.692913 -0.582677 0.433071 
vn -0.637795 -0.598425 0.480315 
vn -0.685039 0.267717 -0.677165 
vn -0.685039 -0.267717 -0.677165 
vn -0.96063 -0.267717 0 
vn -0.590551 -0.551181 -0.590551 
vn -0.834646 -0.551181 0 
vn 0 -0.551181 -0.834646 
vn -0.590551 -0.551181 0.590551 
vn -0.685039 -0.267717 0.677165 
vn -0.96063 0.267717 0 
vn 0 -0.551181 0.834646 
vn -0.685039 0.267717 0.677165 
vn -0.590551 0.551181 -0.590551 
vn -0.834646 0.551181 0 
vn 0 0.551181 -0.834646 
vn -0.590551 0.551181 0.590551 
vn 0 0.551181 -0.834646 
vn 0 0.551181 -0.834646 
vn 0 0.551181 -0.834646 
vn 0 0.551181 -0.834646 
vn 0 0.551181 -0.834646 
vn 0 0.551181 -0.834646 
vn 0 1 0 
vn 0 0.692913 -0.724409 
vn 0 0.692913 -0.724409 
vn 0 0.692913 -0.724409 
vn 0 0.629921 -0.779528 
vn 0 0.629921 -0.779528 
vn 0 0.629921 -0.779528 
vn 0 -1 0 
vn -0.685039 0.267717 -0.677165 
vn -0.685039 -0.267717 -0.677165 
vn -0.96063 -0.267717 0 
vn 0 0.267717 -0.96063 
vn -0.590551 -0.551181 -0.590551 
vn 0 -0.267717 -0.96063 
vn 0 -0.551181 -0.834646 
vn 0.590551 -0.551181 -0.590551 
vn -0.96063 0.267717 0 
vn -0.590551 0.551181 -0.590551 
vn 0 0.551181 -0.834646 
vn 0.590551 0.551181 -0.590551 
vn 0 0.551181 0.834646 
vn 0.96063 -0.267717 0 
vn 0.685039 -0.267717 -0.677165 
vn 0.685039 0.267717 -0.677165 
vn 0 -1 0 
vn 0 -1 0 
vn 0 -1 0 
vn 0 -1 0 
vn 0 -1 0 
vn 0 -1 0 
vn 0 -1 0 
vn 0 -1 0 
vn 0.818898 -0.566929 0.0314961 
vn 0.787402 -0.543307 0.275591 
vn 0.787402 -0.543307 0.291339 
vn 0.818898 -0.566929 0.102362 
vn 0.80315 -0.559055 0.19685 
vn 0.779528 -0.543307 0.314961 
vn 0.732283 -0.559055 0.385827 
vn 0.692913 -0.582677 0.433071 
vn 0.637795 -0.598425 0.480315 
vn 0.637795 -0.598425 0.480315 
vn -0.826772 -0.566929 0 
vn -0.787402 -0.543307 0.275591 
vn -0.787402 -0.543307 0.291339 
vn -0.80315 -0.559055 0.19685 
vn -0.779528 -0.543307 0.314961 
vn -0.732283 -0.559055 0.385827 
vn -0.692913 -0.582677 0.433071 
vn -0.637795 -0.598425 0.480315 
vn -0.637795 -0.598425 0.480315 
vn 0 0.551181 -0.834646 
vn 0 0 1 
vn 0 1 0 
vn 0 0.992126 -0.133858 
vn 0 0.984252 -0.181102 
vn 0 0.952756 -0.314961 
vn 0 0.858268 -0.511811 
vn 0 0.787402 -0.614173 
vn 0 0.692913 -0.724409 
vn 0 -1 0 
vn 0 -1 0 
vn -1 0 0 
vn 1 0 0 
vn 1 0 0 
vn 1 0 0 
vn 1 0 0 
vn 1 0 0 
vn 1 0 0 
vn 1 0 0 
vn 1 0 0 
vn 1 0 0 
vn 1 0 0 
vn 1 0 0 
vn 1 0 0 
vn 1 0 0 
vn 1 0 0 
vn 1 0 0 
vn 1 0 0 
vn 1 0 0 
vn 1 0 0 
vn 1 0 0 
vn 1 0 0 
vn 1 0 0 
vn 1 0 0 
vn 1 0 0 
vn 1 0 0 
vn 1 0 0 
vn 1 0 0 
vn 0.818898 -0.566929 0.0314961 
vn 0.826772 -0.566929 0 
vn 0.826772 -0.566929 0 
vn 0.818898 -0.566929 0.0314961 
vn 0.80315 -0.559055 0.204724 
vn 0.787402 -0.543307 0.275591 
vn 0.740157 -0.511811 0.433071 
vn 0.732283 -0.511811 0.448819 
vn 0.787402 -0.543307 0.291339 
vn 0.80315 -0.559055 0.19685 
vn 0.818898 -0.566929 0.0472441 
vn 0.818898 -0.566929 0.0551181 
vn 0.818898 -0.566929 0.102362 
vn 0.818898 -0.566929 0.102362 
vn 0.811024 -0.559055 0.149606 
vn 0.811024 -0.559055 0.149606 
vn 0.80315 -0.559055 0.19685 
vn 0.80315 -0.559055 0.204724 
vn 0.795276 -0.551181 0.244094 
vn 0.795276 -0.551181 0.251969 
vn 0.787402 -0.543307 0.291339 
vn 0.779528 -0.543307 0.314961 
vn 0.732283 -0.559055 0.385827 
vn 0.692913 -0.582677 0.433071 
vn 0.637795 -0.598425 0.480315 
vn 0 -0.551181 -0.834646 
vn 0.590551 -0.551181 -0.590551 
vn 0.590551 -0.551181 0.590551 
vn 0 0.551181 -0.834646 
vn 0.590551 0.551181 -0.590551 
vn 0 0.551181 0.834646 
vn 0.590551 0.551181 0.590551 
vn 0.685039 -0.267717 0.677165 
vn 0.685039 0.267717 0.677165 
vn 0.96063 -0.267717 0 
vn 0.834646 -0.551181 0 
vn 0.96063 0.267717 0 
vn 0.834646 0.551181 0 
vn 0.685039 -0.267717 -0.677165 
vn 0.685039 0.267717 -0.677165 

vt 60 -24.8865 
vt 59.9925 -24.9321 
vt 60 -24.9429 
vt 59.9925 -24.8865 
vt 60.0075 -24.9321 
vt 60.0075 -24.8865 
vt 60.0193 -24.8727 
vt 60.0193 -24.983 
vt 59.975 -24.9743 
vt 59.9864 -24.983 
vt 59.9823 -24.9743 
vt 59.975 -24.8815 
vt 60 -24.9743 
vt 60 -24.983 
vt 60.0136 -24.983 
vt 59.9823 -24.8815 
vt 59.9864 -24.8727 
vt 60 -24.8815 
vt 60 -24.8727 
vt 60.0136 -24.8727 
vt 60.0177 -24.9743 
vt 60.0177 -24.8815 
vt 59.7584 -25.0193 
vt 59.7777 -25 
vt 59.7584 -24.9807 
vt 59.772 -24.9864 
vt 59.772 -25.0136 
vt 59.7392 -25 
vt 59.7448 -25.0136 
vt 59.7448 -24.9864 
vt 59.7768 -25.0075 
vt 59.7932 -25.0075 
vt 59.7932 -25 
vt 59.8107 -25.0075 
vt 59.7768 -25 
vt 59.7932 -24.9925 
vt 59.7768 -24.9925 
vt 59.8107 -25 
vt 59.8234 -25.0075 
vt 59.8107 -24.9925 
vt 59.8234 -25 
vt 59.8371 -25.0075 
vt 59.8234 -24.9925 
vt 59.8371 -25 
vt 59.8864 -25.0075 
vt 59.8371 -24.9925 
vt 59.8864 -25 
vt 59.9356 -25.0075 
vt 59.8864 -24.9925 
vt 59.9356 -25 
vt 60.0051 -25.0075 
vt 59.9356 -24.9925 
vt 60.0051 -25 
vt 60.0583 -25.0075 
vt 60.0051 -24.9925 
vt 60.0583 -25 
vt 60.1111 -25.0075 
vt 60.0583 -24.9925 
vt 60.1111 -25 
vt 60.1654 -25.0075 
vt 60.1111 -24.9925 
vt 60.1654 -25 
vt 60.1654 -24.9925 
vt 60.2197 -25.0075 
vt 60.2197 -24.9925 
vt 60.2197 -25 
vt 59.7334 -25.1273 
vt 60.2232 -24.8865 
vt 60.2416 -24.8727 
vt 60.1766 -24.8902 
vt 60.1136 -24.8994 
vt 59.9949 -24.9296 
vt 59.8889 -24.9786 
vt 59.8346 -25.0149 
vt 59.8889 -24.9786 
vt 59.8346 -25.0149 
vt 59.7803 -25.0634 
vt 59.7546 -25.0953 
vt 60.2416 -24.983 
vt 60.2223 -24.983 
vt 60.2068 -24.8865 
vt 60.2068 -24.9321 
vt 60.2232 -24.9321 
vt 60.2232 -24.8865 
vt 60.1893 -24.8886 
vt 60.1893 -24.9342 
vt 60.1766 -24.8902 
vt 60.1766 -24.9444 
vt 60.1629 -24.8922 
vt 60.1629 -24.957 
vt 60.1136 -24.8994 
vt 60.1136 -24.9595 
vt 60.0644 -24.9105 
vt 60.0644 -24.9659 
vt 59.9949 -24.9296 
vt 59.9949 -24.9819 
vt 59.9417 -24.9505 
vt 59.9417 -24.9981 
vt 59.8889 -24.9786 
vt 59.8889 -25.0203 
vt 59.8346 -25.0149 
vt 59.8346 -25.0469 
vt 59.7803 -25.0634 
vt 59.7803 -25.0815 
vt 59.7546 -25.0953 
vt 59.7404 -25.1165 
vt 60.1766 -24.9552 
vt 60.0644 -24.9767 
vt 59.9417 -25.0088 
vt 59.7803 -25.0923 
vt 60.2068 -24.9321 
vt 60.1893 -24.9342 
vt 60.2068 -24.9429 
vt 60.2232 -24.9321 
vt 60.2232 -24.9429 
vt 60.1893 -24.945 
vt 60.1766 -24.9444 
vt 60.1766 -24.9552 
vt 60.1629 -24.957 
vt 60.1629 -24.9678 
vt 60.1136 -24.9595 
vt 60.1136 -24.9702 
vt 60.0644 -24.9659 
vt 60.0644 -24.9767 
vt 59.9949 -24.9819 
vt 59.9949 -24.9927 
vt 59.9417 -24.9981 
vt 59.9417 -25.0088 
vt 59.8889 -25.0203 
vt 59.8889 -25.0311 
vt 59.8346 -25.0469 
vt 59.8346 -25.0577 
vt 59.7803 -25.0815 
vt 59.7803 -25.0923 
vt 59.7404 -25.1165 
vt 60.2239 -24.8815 
vt 60.2239 -24.9743 
vt 60.2416 -24.9743 
vt 60.228 -24.983 
vt 60.2416 -24.983 
vt 60.2223 -24.983 
vt 60.2552 -24.983 
vt 60.2593 -24.9743 
vt 60.2416 -24.8815 
vt 60.2608 -24.983 
vt 60.2593 -24.8815 
vt 60.228 -24.8727 
vt 60.2416 -24.8727 
vt 60.2223 -24.8727 
vt 60.2552 -24.8727 
vt 59.9925 -25.1165 
vt 60 -25.0953 
vt 59.9925 -25.0953 
vt 60.0075 -25.1165 
vt 60 -25.1273 
vt 60.0075 -25.0953 
vt 59.9807 -24.8727 
vt 59.9925 -25.0634 
vt 60.0075 -25.0634 
vt 60 -25.0634 
vt 59.9925 -25.0953 
vt 60 -25.0953 
vt 60.0075 -25.0953 
vt 59.9807 -24.983 
vt 60.0177 -24.8815 
vt 60.0177 -24.9743 
vt 60.025 -24.9743 
vt 60 -24.8815 
vt 60.0136 -24.983 
vt 60 -24.9743 
vt 60 -24.983 
vt 59.9864 -24.983 
vt 60.025 -24.8815 
vt 60.0136 -24.8727 
vt 60 -24.8727 
vt 59.9864 -24.8727 
vt 60 -24.8727 
vt 59.975 -24.9743 
vt 59.9823 -24.9743 
vt 59.9823 -24.8815 
vt 60.2416 -25.0193 
vt 60.2416 -24.9807 
vt 60.2223 -25 
vt 60.228 -24.9864 
vt 60.228 -25.0136 
vt 60.2608 -25 
vt 60.2552 -24.9864 
vt 60.2552 -25.0136 
vt 60.2068 -25.0075 
vt 60.1893 -25 
vt 60.1629 -25.0075 
vt 60.0644 -25 
vt 59.9417 -25.0075 
vt 59.8346 -25 
vt 59.7803 -25.0075 
vt 59.7803 -25 
vt 59.7404 -25.0075 
vt 59.7334 -25 
vt 60.2232 -24.9925 
vt 60.1893 -25 
vt 60.1629 -24.9925 
vt 59.9417 -24.9925 
vt 59.8346 -25 
vt 59.7803 -24.9925 
vt 59.7803 -25 
vt 59.7404 -24.9925 
vt 59.7334 -25 
vt 60.2666 -25.1273 
vt 59.7768 -24.8865 
vt 59.7584 -24.8727 
vt 59.8234 -24.8902 
vt 59.8864 -24.8994 
vt 60.0051 -24.9296 
vt 60.1111 -24.9786 
vt 60.1654 -25.0149 
vt 60.2197 -25.0634 
vt 59.7584 -24.983 
vt 59.7777 -24.983 
vt 60.0583 -24.9981 
vt 59.8107 -24.8886 
vt 59.7932 -24.9321 
vt 59.8107 -24.9342 
vt 59.7932 -24.8865 
vt 59.7768 -24.8865 
vt 59.7768 -24.9321 
vt 59.8234 -24.8902 
vt 59.8234 -24.9444 
vt 59.8371 -24.8922 
vt 59.8371 -24.957 
vt 59.8864 -24.8994 
vt 59.8864 -24.9595 
vt 59.9356 -24.9105 
vt 59.9356 -24.9659 
vt 60.0051 -24.9296 
vt 60.0051 -24.9819 
vt 60.0583 -24.9505 
vt 60.0583 -24.9981 
vt 60.1111 -24.9786 
vt 60.1111 -25.0203 
vt 60.1654 -25.0149 
vt 60.1654 -25.0469 
vt 60.2197 -25.0634 
vt 60.2197 -25.0815 
vt 60.2454 -25.0953 
vt 60.2596 -25.1165 
vt 59.7932 -24.9321 
vt 59.7768 -24.9321 
vt 59.7768 -24.9429 
vt 59.7932 -24.9429 
vt 59.8107 -24.9342 
vt 59.8107 -24.945 
vt 59.8234 -24.9444 
vt 59.8234 -24.9552 
vt 59.8371 -24.957 
vt 59.8371 -24.9678 
vt 59.8864 -24.9595 
vt 59.8864 -24.9702 
vt 59.9356 -24.9659 
vt 59.9356 -24.9767 
vt 60.0051 -24.9819 
vt 60.0051 -24.9927 
vt 60.0583 -24.9981 
vt 60.0583 -25.0088 
vt 60.1111 -25.0203 
vt 60.1111 -25.0311 
vt 60.1654 -25.0469 
vt 60.1654 -25.0577 
vt 60.2197 -25.0815 
vt 60.2197 -25.0923 
vt 60.2596 -25.1165 
vt 59.7777 -24.983 
vt 59.772 -24.983 
vt 59.7448 -24.983 
vt 59.7777 -24.8727 
vt 59.772 -24.8727 
vt 59.7392 -24.8727 
vt 59.7448 -24.8727 
vt 59.7407 -24.9743 
vt 59.7407 -24.8815 
vt 59.7584 -24.9743 
vt 59.7584 -24.983 
vt 59.7584 -24.8815 
vt 59.7584 -24.8727 
vt 59.7761 -24.9743 
vt 59.7761 -24.8815 

usemtl Meshpart1Mtl

f 1/1/1 2/2/2 3/3/3 
f 2/2/2 1/1/1 4/4/4 
f 1/1/1 3/3/3 5/5/5 
f 5/5/5 6/6/6 1/1/1 
f 13/13/13 11/11/11 10/10/10 
f 14/14/14 13/13/13 10/10/10 
f 15/15/15 13/13/13 14/14/14 
f 13/13/13 16/16/16 11/11/11 
f 18/18/18 17/17/17 16/16/16 
f 13/13/13 18/18/18 16/16/16 
f 17/17/17 18/18/18 19/19/19 
f 18/18/18 20/20/20 19/19/19 
f 21/21/21 18/18/18 13/13/13 
f 13/13/13 15/15/15 21/21/21 
f 20/20/20 18/18/18 22/22/22 
f 21/21/21 22/22/22 18/18/18 
f 23/23/23 24/24/24 25/25/25 
f 25/25/25 24/24/24 26/26/26 
f 24/24/24 23/23/23 27/27/27 
f 25/25/25 28/28/28 23/23/23 
f 23/23/23 28/28/28 29/29/29 
f 28/28/28 25/25/25 30/30/30 
f 31/31/31 32/32/32 33/33/33 
f 34/34/34 33/33/33 32/32/32 
f 31/31/31 33/33/33 35/35/35 
f 35/35/35 33/33/33 36/36/36 
f 35/35/35 36/36/36 37/37/37 
f 33/33/33 34/34/34 38/38/38 
f 38/38/38 36/36/36 33/33/33 
f 39/39/39 38/38/38 34/34/34 
f 36/36/36 38/38/38 40/40/40 
f 38/38/38 39/39/39 41/41/41 
f 41/41/41 40/40/40 38/38/38 
f 42/42/42 41/41/41 39/39/39 
f 40/40/40 41/41/41 43/43/43 
f 41/41/41 42/42/42 44/44/44 
f 44/44/44 43/43/43 41/41/41 
f 45/45/45 44/44/44 42/42/42 
f 43/43/43 44/44/44 46/46/46 
f 44/44/44 45/45/45 47/47/47 
f 47/47/47 46/46/46 44/44/44 
f 48/48/48 47/47/47 45/45/45 
f 46/46/46 47/47/47 49/49/49 
f 47/47/47 48/48/48 50/50/50 
f 50/50/50 49/49/49 47/47/47 
f 51/51/51 50/50/50 48/48/48 
f 49/49/49 50/50/50 52/52/52 
f 50/50/50 51/51/51 53/53/53 
f 53/53/53 52/52/52 50/50/50 
f 54/54/54 53/53/53 51/51/51 
f 52/52/52 53/53/53 55/55/55 
f 53/53/53 54/54/54 56/56/56 
f 56/56/56 55/55/55 53/53/53 
f 57/57/57 56/56/56 54/54/54 
f 55/55/55 56/56/56 58/58/58 
f 56/56/56 57/57/57 59/59/59 
f 59/59/59 58/58/58 56/56/56 
f 60/60/60 59/59/59 57/57/57 
f 58/58/58 59/59/59 61/61/61 
f 59/59/59 60/60/60 62/62/62 
f 62/62/62 61/61/61 59/59/59 
f 61/61/61 62/62/62 63/63/63 
f 64/64/64 62/62/62 60/60/60 
f 62/62/62 65/65/65 63/63/63 
f 66/66/66 62/62/62 64/64/64 
f 62/62/62 66/66/66 65/65/65 
f 81/81/81 82/82/82 83/83/83 
f 83/83/83 84/84/84 81/81/81 
f 82/82/82 81/81/81 85/85/85 
f 85/85/85 86/86/86 82/82/82 
f 86/86/86 85/85/85 87/87/87 
f 87/87/87 88/88/88 86/86/86 
f 88/88/88 87/87/87 89/89/89 
f 89/89/89 90/90/90 88/88/88 
f 90/90/90 89/89/89 91/91/91 
f 92/92/92 90/90/90 91/91/91 
f 92/92/92 91/91/91 93/93/93 
f 94/94/94 92/92/92 93/93/93 
f 93/93/93 95/95/95 94/94/94 
f 96/96/96 94/94/94 95/95/95 
f 95/95/95 97/97/97 96/96/96 
f 98/98/98 96/96/96 97/97/97 
f 97/97/97 99/99/99 98/98/98 
f 100/100/100 98/98/98 99/99/99 
f 99/99/99 101/101/101 100/100/100 
f 102/102/102 100/100/100 101/101/101 
f 101/101/101 103/103/103 102/102/102 
f 104/104/104 102/102/102 103/103/103 
f 103/103/103 105/105/105 104/104/104 
f 106/106/106 104/104/104 105/105/105 
f 111/111/111 112/112/112 113/113/113 
f 113/113/113 114/114/114 111/111/111 
f 113/113/113 115/115/115 114/114/114 
f 116/116/116 113/113/113 112/112/112 
f 112/112/112 117/117/117 116/116/116 
f 118/118/118 116/116/116 117/117/117 
f 117/117/117 119/119/119 118/118/118 
f 120/120/120 118/118/118 119/119/119 
f 119/119/119 121/121/121 120/120/120 
f 122/122/122 120/120/120 121/121/121 
f 121/121/121 123/123/123 122/122/122 
f 124/124/124 122/122/122 123/123/123 
f 123/123/123 125/125/125 124/124/124 
f 126/126/126 124/124/124 125/125/125 
f 125/125/125 127/127/127 126/126/126 
f 128/128/128 126/126/126 127/127/127 
f 127/127/127 129/129/129 128/128/128 
f 130/130/130 128/128/128 129/129/129 
f 129/129/129 131/131/131 130/130/130 
f 132/132/132 130/130/130 131/131/131 
f 131/131/131 133/133/133 132/132/132 
f 134/134/134 132/132/132 133/133/133 
f 133/133/133 135/135/135 134/134/134 
f 136/136/136 137/137/137 138/138/138 
f 138/138/138 137/137/137 139/139/139 
f 139/139/139 140/140/140 138/138/138 
f 142/142/142 138/138/138 140/140/140 
f 138/138/138 142/142/142 143/143/143 
f 138/138/138 144/144/144 136/136/136 
f 144/144/144 138/138/138 143/143/143 
f 143/143/143 146/146/146 144/144/144 
f 144/144/144 147/147/147 136/136/136 
f 147/147/147 144/144/144 148/148/148 
f 144/144/144 150/150/150 148/148/148 
f 146/146/146 150/150/150 144/144/144 
f 151/151/151 152/152/152 153/153/153 
f 152/152/152 151/151/151 154/154/154 
f 154/154/154 151/151/151 155/155/155 
f 152/152/152 154/154/154 156/156/156 
f 161/161/161 160/160/160 158/158/158 
f 160/160/160 161/161/161 162/162/162 
f 162/162/162 159/159/159 160/160/160 
f 159/159/159 162/162/162 163/163/163 
f 168/168/168 166/166/166 165/165/165 
f 170/170/170 169/169/169 166/166/166 
f 168/168/168 170/170/170 166/166/166 
f 169/169/169 170/170/170 171/171/171 
f 170/170/170 172/172/172 171/171/171 
f 168/168/168 165/165/165 174/174/174 
f 175/175/175 168/168/168 174/174/174 
f 176/176/176 168/168/168 175/175/175 
f 172/172/172 170/170/170 179/179/179 
f 180/180/180 179/179/179 170/170/170 
f 168/168/168 176/176/176 180/180/180 
f 180/180/180 170/170/170 168/168/168 
f 181/181/181 182/182/182 183/183/183 
f 183/183/183 182/182/182 184/184/184 
f 181/181/181 183/183/183 185/185/185 
f 181/181/181 186/186/186 182/182/182 
f 182/182/182 186/186/186 187/187/187 
f 186/186/186 181/181/181 188/188/188 
f 197/197/197 196/196/196 198/198/198 
f 207/207/207 205/205/205 206/206/206 
f 220/220/220 221/221/221 222/222/222 
f 221/221/221 220/220/220 223/223/223 
f 224/224/224 221/221/221 223/223/223 
f 221/221/221 224/224/224 225/225/225 
f 222/222/222 226/226/226 220/220/220 
f 226/226/226 222/222/222 227/227/227 
f 227/227/227 228/228/228 226/226/226 
f 228/228/228 227/227/227 229/229/229 
f 229/229/229 230/230/230 228/228/228 
f 230/230/230 229/229/229 231/231/231 
f 231/231/231 232/232/232 230/230/230 
f 232/232/232 231/231/231 233/233/233 
f 233/233/233 234/234/234 232/232/232 
f 234/234/234 233/233/233 235/235/235 
f 235/235/235 236/236/236 234/234/234 
f 236/236/236 235/235/235 237/237/237 
f 237/237/237 238/238/238 236/236/236 
f 238/238/238 237/237/237 239/239/239 
f 239/239/239 240/240/240 238/238/238 
f 240/240/240 239/239/239 241/241/241 
f 241/241/241 242/242/242 240/240/240 
f 242/242/242 241/241/241 243/243/243 
f 243/243/243 244/244/244 242/242/242 
f 244/244/244 243/243/243 245/245/245 
f 246/246/246 247/247/247 248/248/248 
f 246/246/246 248/248/248 249/249/249 
f 249/249/249 250/250/250 246/246/246 
f 250/250/250 249/249/249 251/251/251 
f 251/251/251 252/252/252 250/250/250 
f 252/252/252 251/251/251 253/253/253 
f 253/253/253 254/254/254 252/252/252 
f 254/254/254 253/253/253 255/255/255 
f 255/255/255 256/256/256 254/254/254 
f 256/256/256 255/255/255 257/257/257 
f 257/257/257 258/258/258 256/256/256 
f 258/258/258 257/257/257 259/259/259 
f 259/259/259 260/260/260 258/258/258 
f 260/260/260 259/259/259 261/261/261 
f 261/261/261 262/262/262 260/260/260 
f 262/262/262 261/261/261 263/263/263 
f 263/263/263 264/264/264 262/262/262 
f 264/264/264 263/263/263 265/265/265 
f 265/265/265 266/266/266 264/264/264 
f 266/266/266 265/265/265 267/267/267 
f 267/267/267 268/268/268 266/266/266 
f 268/268/268 267/267/267 269/269/269 
f 269/269/269 270/270/270 268/268/268 
f 278/278/278 273/273/273 280/280/280 
f 280/280/280 279/279/279 278/278/278 
f 280/280/280 273/273/273 281/281/281 
f 272/272/272 280/280/280 281/281/281 
f 282/282/282 277/277/277 279/279/279 
f 279/279/279 280/280/280 282/282/282 
f 277/277/277 282/282/282 283/283/283 
f 275/275/275 283/283/283 282/282/282 
f 280/280/280 272/272/272 284/284/284 
f 284/284/284 282/282/282 280/280/280 
f 282/282/282 285/285/285 275/275/275 
f 282/282/282 284/284/284 285/285/285 

g Meshpart2

v -209.989 9.1775 1.06543 
v -209.989 7.86356 1.06543 
v -209.915 9.21413 1.05653 
v -209.989 7.09731 0.881657 
v -209.915 7.86356 1.09616 
v -209.915 9.1775 1.09616 
v -209.841 9.1775 1.06543 
v -209.841 7.86356 1.06543 
v -209.841 7.86356 0.917003 
v -209.841 7.09731 0.881657 
v -209.915 7.0855 0.910037 
v -209.81 7.12583 0.813141 
v -209.841 6.22505 0.511021 
v -209.989 6.22505 0.511021 
v -209.915 6.21324 0.539401 
v -209.989 4.91079 -0.0842615 
v -209.915 4.89898 -0.0558814 
v -209.989 4.1602 -0.359139 
v -209.841 4.91079 -0.0842615 
v -209.841 4.1602 -0.359139 
v -209.915 4.15511 -0.328825 
v -209.841 3.59143 -0.481113 
v -209.841 2.93483 -0.557521 
v -209.915 3.58634 -0.450799 
v -209.989 3.59143 -0.481113 
v -209.915 2.93523 -0.526785 
v -210.02 4.1725 -0.432323 
v -209.989 2.93483 -0.557521 
v -209.915 2.26964 -0.518935 
v -209.989 2.26498 -0.549319 
v -209.841 2.26498 -0.549319 
v -209.915 4.1899 -0.535823 
v -210.02 2.25372 -0.622671 
v -209.984 1.49973 -0.506971 
v -209.846 1.49973 -0.506971 
v -209.964 1.50715 -0.458631 
v -209.866 1.50715 -0.458631 
v -209.989 1.56682 -0.442185 
v -209.841 1.56682 -0.442185 
v -209.915 1.57148 -0.411801 
v -209.915 1.51022 -0.438609 
v -209.869 9.21413 0.945031 
v -209.869 9.21413 1.0374 
v -209.85 9.21413 0.991215 
v -209.961 9.21413 0.945031 
v -209.915 9.21413 0.925899 
v -209.961 9.21413 1.0374 
v -209.98 9.21413 0.991215 
v -209.915 9.21413 1.05653 
v -209.989 9.1775 0.917003 
v -209.915 9.21413 0.925899 
v -209.961 9.21413 0.945031 
v -209.98 9.21413 0.991215 
v -209.915 9.1775 0.886265 
v -209.841 9.1775 0.917003 
v -209.869 9.21413 0.945031 
v -209.85 9.21413 0.991215 
v -210.02 9.1775 0.991215 
v -209.989 9.1775 1.06543 
v -209.961 9.21413 1.0374 
v -209.915 9.21413 1.05653 
v -209.915 9.1775 1.09616 
v -209.841 9.1775 1.06543 
v -209.869 9.21413 1.0374 
v -209.81 9.1775 0.991215 
v -209.989 9.1775 0.917003 
v -209.989 7.86356 0.917003 
v -210.02 7.86356 0.991215 
v -209.915 9.21413 0.925899 
v -209.98 9.21413 0.991215 
v -210.02 9.1775 0.991215 
v -209.989 9.1775 1.06543 
v -209.989 7.86356 1.06543 
v -209.915 9.21413 1.05653 
v -209.989 7.09731 0.881657 
v -209.841 7.86356 0.917003 
v -209.915 7.0855 0.910037 
v -209.81 7.12583 0.813141 
v -209.989 6.22505 0.511021 
v -210.02 7.12583 0.813141 
v -210.02 6.25356 0.442507 
v -209.989 7.15434 0.744627 
v -209.989 4.91079 -0.0842615 
v -209.989 6.28208 0.373991 
v -210.02 4.9393 -0.152777 
v -209.989 4.1602 -0.359139 
v -209.915 4.15511 -0.328825 
v -209.989 3.59143 -0.481113 
v -209.915 2.93523 -0.526785 
v -210.02 4.1725 -0.432323 
v -209.989 2.93483 -0.557521 
v -210.02 3.60373 -0.554297 
v -209.989 4.96781 -0.221291 
v -209.989 4.1848 -0.505509 
v -209.915 2.26964 -0.518935 
v -209.989 2.26498 -0.549319 
v -210.02 2.93384 -0.631725 
v -209.989 3.61604 -0.627481 
v -209.989 2.93285 -0.705931 
v -209.915 4.1899 -0.535823 
v -209.915 4.97962 -0.249671 
v -209.841 2.93285 -0.705931 
v -209.989 2.24246 -0.696025 
v -209.915 2.2378 -0.726407 
v -210.02 2.25372 -0.622671 
v -209.989 1.54431 -0.588891 
v -210.02 1.55556 -0.515539 
v -209.964 1.49231 -0.555309 
v -209.984 1.49973 -0.506971 
v -209.964 1.50715 -0.458631 
v -209.989 1.56682 -0.442185 
v -209.989 9.1775 0.917003 
v -209.989 7.86356 0.917003 
v -209.915 9.21413 0.925899 
v -209.915 9.1775 0.886265 
v -209.841 9.1775 0.917003 
v -209.989 7.86356 1.06543 
v -209.841 7.86356 1.06543 
v -209.841 7.86356 0.917003 
v -209.915 7.0855 0.910037 
v -209.81 7.12583 0.813141 
v -209.989 7.15434 0.744627 
v -209.989 6.28208 0.373991 
v -209.841 7.15434 0.744627 
v -209.841 6.28208 0.373991 
v -209.841 4.96781 -0.221291 
v -209.841 4.1848 -0.505509 
v -209.989 4.96781 -0.221291 
v -209.989 4.1848 -0.505509 
v -209.989 3.61604 -0.627481 
v -209.915 3.62113 -0.657797 
v -209.989 2.93285 -0.705931 
v -209.915 4.1899 -0.535823 
v -209.915 4.97962 -0.249671 
v -209.915 6.29389 0.345611 
v -209.915 7.16615 0.716247 
v -209.915 7.86356 0.886265 
v -209.841 3.61604 -0.627481 
v -209.915 2.93244 -0.736667 
v -209.841 2.93285 -0.705931 
v -209.841 2.24246 -0.696025 
v -209.989 2.24246 -0.696025 
v -209.915 2.2378 -0.726407 
v -209.841 1.54431 -0.588891 
v -209.989 1.54431 -0.588891 
v -209.915 1.53965 -0.619275 
v -209.964 1.49231 -0.555309 
v -209.915 1.48924 -0.575333 
v -209.984 1.49973 -0.506971 
v -209.866 1.49231 -0.555309 
v -209.866 1.49231 -0.555309 
v -209.915 1.51022 -0.438609 
v -209.915 1.48924 -0.575333 
v -209.964 1.49231 -0.555309 
v -209.866 1.50715 -0.458631 
v -209.846 1.49973 -0.506971 
v -209.964 1.50715 -0.458631 
v -209.984 1.49973 -0.506971 
v -209.915 9.21413 0.925899 
v -209.841 9.1775 0.917003 
v -209.85 9.21413 0.991215 
v -209.989 7.86356 1.06543 
v -209.915 9.21413 1.05653 
v -209.841 9.1775 1.06543 
v -209.841 7.86356 1.06543 
v -209.81 9.1775 0.991215 
v -209.81 7.86356 0.991215 
v -209.841 7.86356 0.917003 
v -209.841 7.09731 0.881657 
v -209.915 7.0855 0.910037 
v -209.81 7.12583 0.813141 
v -209.841 6.22505 0.511021 
v -209.989 7.15434 0.744627 
v -209.841 4.91079 -0.0842615 
v -209.81 6.25356 0.442507 
v -209.841 4.1602 -0.359139 
v -209.841 7.15434 0.744627 
v -209.81 4.9393 -0.152777 
v -209.841 6.28208 0.373991 
v -209.915 4.15511 -0.328825 
v -209.81 4.1725 -0.432323 
v -209.841 3.59143 -0.481113 
v -209.841 4.96781 -0.221291 
v -209.81 3.60373 -0.554297 
v -209.841 4.1848 -0.505509 
v -209.841 2.93483 -0.557521 
v -209.915 2.93523 -0.526785 
v -209.989 2.26498 -0.549319 
v -209.841 2.26498 -0.549319 
v -209.915 4.1899 -0.535823 
v -209.915 4.97962 -0.249671 
v -209.915 7.16615 0.716247 
v -209.841 3.61604 -0.627481 
v -209.81 2.93384 -0.631725 
v -209.841 2.93285 -0.705931 
v -209.81 2.25372 -0.622671 
v -209.841 2.24246 -0.696025 
v -209.915 2.2378 -0.726407 
v -209.841 1.54431 -0.588891 
v -209.81 1.55556 -0.515539 
v -209.915 1.53965 -0.619275 
v -209.984 1.49973 -0.506971 
v -209.866 1.49231 -0.555309 
v -209.846 1.49973 -0.506971 
v -209.866 1.50715 -0.458631 
v -209.841 1.56682 -0.442185 

vn -0.653543 0.370079 0.653543 
vn -0.692913 -0.0866142 0.716535 
vn 0 0.732283 0.677165 
vn -0.692913 -0.228346 0.685039 
vn 0 -0.110236 0.992126 
vn 0 0.370079 0.929134 
vn 0.653543 0.370079 0.653543 
vn 0.692913 -0.0866142 0.716535 
vn 0.724409 0.0787402 -0.685039 
vn 0.692913 -0.228346 0.685039 
vn 0 -0.314961 0.952756 
vn 1 -0.00787402 0.023622 
vn 0.708661 -0.283465 0.645669 
vn -0.708661 -0.283465 0.645669 
vn 0 -0.401575 0.913386 
vn -0.708661 -0.267717 0.653543 
vn 0 -0.377953 0.929134 
vn -0.716535 -0.19685 0.669291 
vn 0.708661 -0.267717 0.653543 
vn 0.716535 -0.19685 0.669291 
vn 0 -0.275591 0.96063 
vn 0.708661 -0.110236 0.692913 
vn 0.716535 -0.0393701 0.700787 
vn 0 -0.165354 0.984252 
vn -0.708661 -0.110236 0.692913 
vn 0 -0.0551181 1 
vn -1 0.00787402 -0.015748 
vn -0.716535 -0.0393701 0.700787 
vn 0 0.0787402 1 
vn -0.716535 0.0551181 0.692913 
vn 0.716535 0.0551181 0.692913 
vn 0 0.275591 -0.96063 
vn -1 0 -0.015748 
vn -0.84252 -0.527559 0.0787402 
vn 0.84252 -0.527559 0.0787402 
vn -0.598425 -0.440945 0.669291 
vn 0.598425 -0.440945 0.669291 
vn -0.685039 -0.15748 0.716535 
vn 0.685039 -0.15748 0.716535 
vn 0 -0.110236 0.992126 
vn 0 -0.401575 0.913386 
vn 0 1 0 
vn 0 1 0 
vn 0 1 0 
vn 0 1 0 
vn 0 1 0 
vn 0 1 0 
vn 0 1 0 
vn 0 1 0 
vn -0.653543 0.370079 -0.653543 
vn 0 0.732283 -0.677165 
vn -0.480315 0.732283 -0.480315 
vn -0.677165 0.732283 0 
vn 0 0.370079 -0.929134 
vn 0.653543 0.370079 -0.653543 
vn 0.480315 0.732283 -0.480315 
vn 0.677165 0.732283 0 
vn -0.929134 0.370079 0 
vn -0.653543 0.370079 0.653543 
vn -0.480315 0.732283 0.480315 
vn 0 0.732283 0.677165 
vn 0 0.370079 0.929134 
vn 0.653543 0.370079 0.653543 
vn 0.480315 0.732283 0.480315 
vn 0.929134 0.370079 0 
vn -0.653543 0.370079 -0.653543 
vn -0.724409 0.0787402 -0.685039 
vn -1 -0.00787402 0.0314961 
vn 0 0.732283 -0.677165 
vn -0.677165 0.732283 0 
vn -0.929134 0.370079 0 
vn -0.653543 0.370079 0.653543 
vn -0.692913 -0.0866142 0.716535 
vn 0 0.732283 0.677165 
vn -0.692913 -0.228346 0.685039 
vn 0.724409 0.0787402 -0.685039 
vn 0 -0.314961 0.952756 
vn 1 -0.00787402 0.023622 
vn -0.708661 -0.283465 0.645669 
vn -1 -0.00787402 0.023622 
vn -1 0 0 
vn -0.716535 0.220472 -0.661417 
vn -0.708661 -0.267717 0.653543 
vn -0.708661 0.283465 -0.645669 
vn -1 0 -0.00787402 
vn -0.716535 -0.19685 0.669291 
vn 0 -0.275591 0.96063 
vn -0.708661 -0.110236 0.692913 
vn 0 -0.0551181 1 
vn -1 0.00787402 -0.015748 
vn -0.716535 -0.0393701 0.700787 
vn -1 0 -0.015748 
vn -0.700787 0.267717 -0.661417 
vn -0.700787 0.19685 -0.685039 
vn 0 0.0787402 1 
vn -0.716535 0.0551181 0.692913 
vn -1 0 -0.015748 
vn -0.700787 0.11811 -0.700787 
vn -0.700787 0.0393701 -0.716535 
vn 0 0.275591 -0.96063 
vn 0 0.377953 -0.929134 
vn 0.700787 0.0393701 -0.716535 
vn -0.700787 -0.0629921 -0.708661 
vn 0 -0.0866142 -1 
vn -1 0 -0.015748 
vn -0.685039 -0.362205 -0.637795 
vn -0.968504 -0.259843 0.0393701 
vn -0.598425 -0.622047 -0.511811 
vn -0.84252 -0.527559 0.0787402 
vn -0.598425 -0.440945 0.669291 
vn -0.685039 -0.15748 0.716535 
vn -0.653543 0.370079 -0.653543 
vn -0.724409 0.0787402 -0.685039 
vn 0 0.732283 -0.677165 
vn 0 0.370079 -0.929134 
vn 0.653543 0.370079 -0.653543 
vn -0.692913 -0.0866142 0.716535 
vn 0.692913 -0.0866142 0.716535 
vn 0.724409 0.0787402 -0.685039 
vn 0 -0.314961 0.952756 
vn 1 -0.00787402 0.023622 
vn -0.716535 0.220472 -0.661417 
vn -0.708661 0.283465 -0.645669 
vn 0.716535 0.220472 -0.661417 
vn 0.708661 0.283465 -0.645669 
vn 0.700787 0.267717 -0.661417 
vn 0.700787 0.19685 -0.685039 
vn -0.700787 0.267717 -0.661417 
vn -0.700787 0.19685 -0.685039 
vn -0.700787 0.11811 -0.700787 
vn 0 0.165354 -0.984252 
vn -0.700787 0.0393701 -0.716535 
vn 0 0.275591 -0.96063 
vn 0 0.377953 -0.929134 
vn 0 0.401575 -0.913386 
vn 0 0.314961 -0.952756 
vn 0 0.125984 -0.992126 
vn 0.700787 0.11811 -0.700787 
vn 0 0.0472441 -1 
vn 0.700787 0.0393701 -0.716535 
vn 0.700787 -0.0629921 -0.708661 
vn -0.700787 -0.0629921 -0.708661 
vn 0 -0.0866142 -1 
vn 0.685039 -0.362205 -0.637795 
vn -0.685039 -0.362205 -0.637795 
vn 0 -0.401575 -0.913386 
vn -0.598425 -0.622047 -0.511811 
vn 0 -0.653543 -0.755906 
vn -0.84252 -0.527559 0.0787402 
vn 0.598425 -0.622047 -0.511811 
vn 0 -0.992126 0.149606 
vn 0 -0.992126 0.149606 
vn 0 -0.992126 0.149606 
vn 0 -0.992126 0.149606 
vn 0 -0.992126 0.149606 
vn 0 -0.992126 0.149606 
vn 0 -0.992126 0.149606 
vn 0 -0.992126 0.149606 
vn 0 0.732283 -0.677165 
vn 0.653543 0.370079 -0.653543 
vn 0.677165 0.732283 0 
vn -0.692913 -0.0866142 0.716535 
vn 0 0.732283 0.677165 
vn 0.653543 0.370079 0.653543 
vn 0.692913 -0.0866142 0.716535 
vn 0.929134 0.370079 0 
vn 1 -0.00787402 0.0314961 
vn 0.724409 0.0787402 -0.685039 
vn 0.692913 -0.228346 0.685039 
vn 0 -0.314961 0.952756 
vn 1 -0.00787402 0.023622 
vn 0.708661 -0.283465 0.645669 
vn -0.716535 0.220472 -0.661417 
vn 0.708661 -0.267717 0.653543 
vn 1 0 0 
vn 0.716535 -0.19685 0.669291 
vn 0.716535 0.220472 -0.661417 
vn 1 0 -0.00787402 
vn 0.708661 0.283465 -0.645669 
vn 0 -0.275591 0.96063 
vn 1 0.00787402 -0.015748 
vn 0.708661 -0.110236 0.692913 
vn 0.700787 0.267717 -0.661417 
vn 1 0 -0.015748 
vn 0.700787 0.19685 -0.685039 
vn 0.716535 -0.0393701 0.700787 
vn 0 -0.0551181 1 
vn -0.716535 0.0551181 0.692913 
vn 0.716535 0.0551181 0.692913 
vn 0 0.275591 -0.96063 
vn 0 0.377953 -0.929134 
vn 0 0.314961 -0.952756 
vn 0.700787 0.11811 -0.700787 
vn 1 0 -0.015748 
vn 0.700787 0.0393701 -0.716535 
vn 1 0 -0.015748 
vn 0.700787 -0.0629921 -0.708661 
vn 0 -0.0866142 -1 
vn 0.685039 -0.362205 -0.637795 
vn 0.968504 -0.259843 0.0393701 
vn 0 -0.401575 -0.913386 
vn -0.84252 -0.527559 0.0787402 
vn 0.598425 -0.622047 -0.511811 
vn 0.84252 -0.527559 0.0787402 
vn 0.598425 -0.440945 0.669291 
vn 0.685039 -0.15748 0.716535 

vt 1.99072 -8.52177 
vt 1.99072 -8.68602 
vt 2 -8.51719 
vt 1.99072 -8.7818 
vt 2 -8.68602 
vt 2 -8.52177 
vt 2.00928 -8.52177 
vt 2.00928 -8.68602 
vt 2.00928 -8.68602 
vt 2.00928 -8.7818 
vt 2 -8.78327 
vt 2.01312 -8.77823 
vt 2.00928 -8.89083 
vt 1.99072 -8.89083 
vt 2 -8.89231 
vt 1.99072 -9.05511 
vt 2 -9.05659 
vt 1.99072 -9.14894 
vt 2.00928 -9.05511 
vt 2.00928 -9.14894 
vt 2 -9.14957 
vt 2.00928 -9.22003 
vt 2.00928 -9.30211 
vt 2 -9.22067 
vt 1.99072 -9.22003 
vt 2 -9.30206 
vt 1.98688 -9.1474 
vt 1.99072 -9.30211 
vt 2 -9.38526 
vt 1.99072 -9.38584 
vt 2.00928 -9.38584 
vt 2 -9.14522 
vt 1.98688 -9.38725 
vt 1.99135 -9.48149 
vt 2.00865 -9.48149 
vt 1.99389 -9.48057 
vt 2.00611 -9.48057 
vt 1.99072 -9.47311 
vt 2.00928 -9.47311 
vt 2 -9.47253 
vt 2 -9.48018 
vt 1.90434 -9.00577 
vt 1.89279 -9.00577 
vt 1.89857 -9.00816 
vt 1.90434 -8.99423 
vt 1.90673 -9 
vt 1.89279 -8.99423 
vt 1.89857 -8.99184 
vt 1.8904 -9 
vt 1.90784 -8.99072 
vt 1.90673 -9 
vt 1.90434 -8.99423 
vt 1.89857 -8.99184 
vt 1.91169 -9 
vt 1.90784 -9.00928 
vt 1.90434 -9.00577 
vt 1.89857 -9.00816 
vt 1.89857 -8.98688 
vt 1.88929 -8.99072 
vt 1.89279 -8.99423 
vt 1.8904 -9 
vt 1.88545 -9 
vt 1.88929 -9.00928 
vt 1.89279 -9.00577 
vt 1.89857 -9.01312 
vt 2.09216 -8.52177 
vt 2.09216 -8.68602 
vt 2.10143 -8.68602 
vt 2.09327 -8.51719 
vt 2.10143 -8.51719 
vt 2.10143 -8.52177 
vt 2.11071 -8.52177 
vt 2.11071 -8.68602 
vt 2.1096 -8.51719 
vt 2.08774 -8.7818 
vt 2.09216 -8.68602 
vt 2.09129 -8.78327 
vt 2.07917 -8.77823 
vt 2.04141 -8.89083 
vt 2.07917 -8.77823 
vt 2.03284 -8.88727 
vt 2.07061 -8.77467 
vt 1.967 -9.05511 
vt 2.02428 -8.8837 
vt 1.95843 -9.05155 
vt 1.93264 -9.14894 
vt 1.93643 -9.14957 
vt 1.91739 -9.22003 
vt 1.91168 -9.30206 
vt 1.92349 -9.1474 
vt 1.90784 -9.30211 
vt 1.90824 -9.21849 
vt 1.94987 -9.04798 
vt 1.91434 -9.14586 
vt 1.91266 -9.38526 
vt 1.90887 -9.38584 
vt 1.89857 -9.30223 
vt 1.8991 -9.21696 
vt 1.88929 -9.30235 
vt 1.91055 -9.14522 
vt 1.94632 -9.04651 
vt 1.88929 -9.30235 
vt 1.89053 -9.38865 
vt 1.88673 -9.38924 
vt 1.8997 -9.38725 
vt 1.90392 -9.47592 
vt 1.91309 -9.47451 
vt 1.90812 -9.48242 
vt 1.91416 -9.48149 
vt 1.9202 -9.48057 
vt 1.92226 -9.47311 
vt 2.00928 -8.52177 
vt 2.00928 -8.68602 
vt 2 -8.51719 
vt 2 -8.52177 
vt 1.99072 -8.52177 
vt 2.00928 -8.68602 
vt 1.99072 -8.68602 
vt 1.99072 -8.68602 
vt 2 -8.78327 
vt 1.98688 -8.77823 
vt 2.00928 -8.77467 
vt 2.00928 -8.8837 
vt 1.99072 -8.77467 
vt 1.99072 -8.8837 
vt 1.99072 -9.04798 
vt 1.99072 -9.14586 
vt 2.00928 -9.04798 
vt 2.00928 -9.14586 
vt 2.00928 -9.21696 
vt 2 -9.21632 
vt 2.00928 -9.30235 
vt 2 -9.14522 
vt 2 -9.04651 
vt 2 -8.88222 
vt 2 -8.77319 
vt 2 -8.68602 
vt 1.99072 -9.21696 
vt 2 -9.30241 
vt 1.99072 -9.30235 
vt 1.99072 -9.38865 
vt 2.00928 -9.38865 
vt 2 -9.38924 
vt 1.99072 -9.47592 
vt 2.00928 -9.47592 
vt 2 -9.4765 
vt 2.00611 -9.48242 
vt 2 -9.48281 
vt 2.00865 -9.48149 
vt 1.99389 -9.48242 
vt 1.90812 -9.00611 
vt 1.92271 -9 
vt 1.90561 -9 
vt 1.90812 -8.99389 
vt 1.9202 -9.00611 
vt 1.91416 -9.00865 
vt 1.9202 -8.99389 
vt 1.91416 -8.99135 
vt 1.90673 -8.51719 
vt 1.90784 -8.52177 
vt 1.89857 -8.51719 
vt 1.88929 -8.68602 
vt 1.8904 -8.51719 
vt 1.88929 -8.52177 
vt 1.88929 -8.68602 
vt 1.89857 -8.52177 
vt 1.89857 -8.68602 
vt 1.90784 -8.68602 
vt 1.91226 -8.7818 
vt 1.90871 -8.78327 
vt 1.92083 -8.77823 
vt 1.95859 -8.89083 
vt 1.92939 -8.77467 
vt 2.033 -9.05511 
vt 1.96716 -8.88727 
vt 2.06736 -9.14894 
vt 1.92939 -8.77467 
vt 2.04157 -9.05155 
vt 1.97572 -8.8837 
vt 2.06357 -9.14957 
vt 2.07651 -9.1474 
vt 2.08261 -9.22003 
vt 2.05013 -9.04798 
vt 2.09176 -9.21849 
vt 2.08566 -9.14586 
vt 2.09216 -9.30211 
vt 2.08832 -9.30206 
vt 2.09113 -9.38584 
vt 2.09113 -9.38584 
vt 2.08945 -9.14522 
vt 2.05368 -9.04651 
vt 1.93294 -8.77319 
vt 2.1009 -9.21696 
vt 2.10143 -9.30223 
vt 2.11071 -9.30235 
vt 2.1003 -9.38725 
vt 2.10947 -9.38865 
vt 2.11327 -9.38924 
vt 2.09608 -9.47592 
vt 2.08691 -9.47451 
vt 2.09988 -9.4765 
vt 2.08584 -9.48149 
vt 2.09188 -9.48242 
vt 2.08584 -9.48149 
vt 2.0798 -9.48057 
vt 2.07774 -9.47311 

usemtl Meshpart2Mtl

f 290/290/290 286/286/286 287/287/287 
f 287/287/287 289/289/289 290/290/290 
f 286/286/286 290/290/290 291/291/291 
f 293/293/293 292/292/292 291/291/291 
f 293/293/293 291/291/291 290/290/290 
f 290/290/290 295/295/295 293/293/293 
f 295/295/295 290/290/290 296/296/296 
f 296/296/296 290/290/290 289/289/289 
f 296/296/296 298/298/298 295/295/295 
f 289/289/289 299/299/299 296/296/296 
f 298/298/298 296/296/296 300/300/300 
f 300/300/300 296/296/296 299/299/299 
f 299/299/299 301/301/301 300/300/300 
f 302/302/302 300/300/300 301/301/301 
f 301/301/301 303/303/303 302/302/302 
f 304/304/304 300/300/300 302/302/302 
f 300/300/300 304/304/304 298/298/298 
f 302/302/302 305/305/305 304/304/304 
f 305/305/305 302/302/302 306/306/306 
f 306/306/306 302/302/302 303/303/303 
f 306/306/306 307/307/307 305/305/305 
f 307/307/307 306/306/306 309/309/309 
f 309/309/309 308/308/308 307/307/307 
f 309/309/309 306/306/306 310/310/310 
f 303/303/303 310/310/310 306/306/306 
f 308/308/308 309/309/309 311/311/311 
f 310/310/310 313/313/313 309/309/309 
f 311/311/311 309/309/309 313/313/313 
f 313/313/313 314/314/314 311/311/311 
f 311/311/311 314/314/314 308/308/308 
f 314/314/314 313/313/313 315/315/315 
f 316/316/316 308/308/308 314/314/314 
f 325/325/325 322/322/322 324/324/324 
f 324/324/324 316/316/316 325/325/325 
f 325/325/325 323/323/323 321/321/321 
f 325/325/325 315/315/315 323/323/323 
f 326/326/326 325/325/325 321/321/321 
f 322/322/322 325/325/325 326/326/326 
f 315/315/315 325/325/325 314/314/314 
f 314/314/314 325/325/325 316/316/316 
f 327/327/327 328/328/328 329/329/329 
f 328/328/328 327/327/327 330/330/330 
f 330/330/330 327/327/327 331/331/331 
f 328/328/328 330/330/330 332/332/332 
f 332/332/332 330/330/330 333/333/333 
f 328/328/328 332/332/332 334/334/334 
f 336/336/336 335/335/335 337/337/337 
f 335/335/335 338/338/338 337/337/337 
f 335/335/335 336/336/336 339/339/339 
f 340/340/340 339/339/339 336/336/336 
f 340/340/340 336/336/336 341/341/341 
f 342/342/342 340/340/340 341/341/341 
f 338/338/338 335/335/335 343/343/343 
f 344/344/344 338/338/338 343/343/343 
f 338/338/338 344/344/344 345/345/345 
f 344/344/344 346/346/346 345/345/345 
f 346/346/346 344/344/344 347/347/347 
f 348/348/348 346/346/346 347/347/347 
f 346/346/346 348/348/348 349/349/349 
f 348/348/348 342/342/342 349/349/349 
f 348/348/348 350/350/350 342/342/342 
f 340/340/340 342/342/342 350/350/350 
f 351/351/351 352/352/352 353/353/353 
f 353/353/353 356/356/356 351/351/351 
f 356/356/356 353/353/353 358/358/358 
f 358/358/358 357/357/357 356/356/356 
f 353/353/353 360/360/360 358/358/358 
f 365/365/365 364/364/364 360/360/360 
f 360/360/360 353/353/353 365/365/365 
f 352/352/352 365/365/365 353/353/353 
f 364/364/364 365/365/365 366/366/366 
f 365/365/365 352/352/352 367/367/367 
f 367/367/367 366/366/366 365/365/365 
f 366/366/366 368/368/368 364/364/364 
f 366/366/366 367/367/367 369/369/369 
f 368/368/368 366/366/366 370/370/370 
f 369/369/369 370/370/370 366/366/366 
f 370/370/370 371/371/371 368/368/368 
f 375/375/375 373/373/373 371/371/371 
f 371/371/371 370/370/370 375/375/375 
f 373/373/373 375/375/375 377/377/377 
f 377/377/377 376/376/376 373/373/373 
f 378/378/378 375/375/375 370/370/370 
f 370/370/370 369/369/369 378/378/378 
f 379/379/379 377/377/377 375/375/375 
f 375/375/375 378/378/378 379/379/379 
f 376/376/376 377/377/377 382/382/382 
f 382/382/382 381/381/381 376/376/376 
f 377/377/377 379/379/379 383/383/383 
f 383/383/383 382/382/382 377/377/377 
f 382/382/382 383/383/383 384/384/384 
f 390/390/390 384/384/384 388/388/388 
f 384/384/384 390/390/390 382/382/382 
f 381/381/381 382/382/382 390/390/390 
f 388/388/388 391/391/391 390/390/390 
f 390/390/390 392/392/392 381/381/381 
f 392/392/392 390/390/390 391/391/391 
f 392/392/392 391/391/391 393/393/393 
f 393/393/393 394/394/394 392/392/392 
f 395/395/395 392/392/392 394/394/394 
f 392/392/392 395/395/395 396/396/396 
f 396/396/396 381/381/381 392/392/392 
f 400/400/400 398/398/398 397/397/397 
f 414/414/414 416/416/416 415/415/415 
f 413/413/413 418/418/418 414/414/414 
f 416/416/416 414/414/414 418/418/418 
f 418/418/418 413/413/413 419/419/419 
f 408/408/408 419/419/419 413/413/413 
f 412/412/412 416/416/416 418/418/418 
f 411/411/411 418/418/418 419/419/419 
f 418/418/418 411/411/411 412/412/412 
f 419/419/419 410/410/410 411/411/411 
f 419/419/419 408/408/408 420/420/420 
f 410/410/410 419/419/419 420/420/420 
f 407/407/407 420/420/420 408/408/408 
f 420/420/420 409/409/409 410/410/410 
f 420/420/420 407/407/407 421/421/421 
f 409/409/409 420/420/420 421/421/421 
f 398/398/398 421/421/421 407/407/407 
f 421/421/421 404/404/404 409/409/409 
f 421/421/421 398/398/398 422/422/422 
f 404/404/404 421/421/421 422/422/422 
f 400/400/400 422/422/422 398/398/398 
f 401/401/401 404/404/404 422/422/422 
f 401/401/401 422/422/422 400/400/400 
f 416/416/416 412/412/412 423/423/423 
f 423/423/423 424/424/424 416/416/416 
f 424/424/424 415/415/415 416/416/416 
f 415/415/415 424/424/424 417/417/417 
f 424/424/424 423/423/423 425/425/425 
f 426/426/426 424/424/424 425/425/425 
f 424/424/424 427/427/427 417/417/417 
f 424/424/424 426/426/426 428/428/428 
f 427/427/427 424/424/424 428/428/428 
f 429/429/429 428/428/428 426/426/426 
f 428/428/428 430/430/430 427/427/427 
f 430/430/430 428/428/428 431/431/431 
f 428/428/428 429/429/429 431/431/431 
f 431/431/431 432/432/432 430/430/430 
f 432/432/432 431/431/431 433/433/433 
f 431/431/431 435/435/435 433/433/433 
f 435/435/435 431/431/431 429/429/429 
f 436/436/436 437/437/437 438/438/438 
f 438/438/438 437/437/437 439/439/439 
f 437/437/437 436/436/436 440/440/440 
f 440/440/440 436/436/436 441/441/441 
f 442/442/442 439/439/439 437/437/437 
f 439/439/439 442/442/442 443/443/443 
f 452/452/452 449/449/449 450/450/450 
f 449/449/449 452/452/452 451/451/451 
f 451/451/451 453/453/453 445/445/445 
f 453/453/453 451/451/451 452/452/452 
f 450/450/450 454/454/454 452/452/452 
f 452/452/452 454/454/454 456/456/456 
f 452/452/452 456/456/456 453/453/453 
f 457/457/457 456/456/456 454/454/454 
f 459/459/459 460/460/460 457/457/457 
f 456/456/456 457/457/457 460/460/460 
f 460/460/460 462/462/462 456/456/456 
f 453/453/453 456/456/456 462/462/462 
f 460/460/460 459/459/459 463/463/463 
f 461/461/461 463/463/463 459/459/459 
f 462/462/462 460/460/460 464/464/464 
f 463/463/463 464/464/464 460/460/460 
f 463/463/463 461/461/461 466/466/466 
f 467/467/467 466/466/466 461/461/461 
f 466/466/466 468/468/468 463/463/463 
f 464/464/464 463/463/463 468/468/468 
f 466/466/466 467/467/467 469/469/469 
f 468/468/468 466/466/466 470/470/470 
f 469/469/469 470/470/470 466/466/466 
f 471/471/471 469/469/469 467/467/467 
f 470/470/470 469/469/469 478/478/478 
f 479/479/479 478/478/478 469/469/469 
f 469/469/469 471/471/471 479/479/479 
f 471/471/471 474/474/474 479/479/479 
f 478/478/478 479/479/479 480/480/480 
f 479/479/479 481/481/481 480/480/480 
f 479/479/479 474/474/474 481/481/481 
f 480/480/480 481/481/481 482/482/482 
f 481/481/481 484/484/484 482/482/482 
f 474/474/474 485/485/485 481/481/481 
f 484/484/484 481/481/481 485/485/485 
f 485/485/485 488/488/488 484/484/484 
f 488/488/488 485/485/485 489/489/489 
f 485/485/485 490/490/490 489/489/489 
f 491/491/491 490/490/490 485/485/485 
f 485/485/485 474/474/474 491/491/491 

