# This file is brought to you by Roblox Corporation
# Generated by Roblox Studio

mtllib Subspace Tripmine.mtl

g Meshpart1

v -89.8288 5.6507 -0.253154 
v -89.6758 4.96469 -0.612147 
v -90.8098 5.29207 -0.285151 
v -90.5698 5.29207 -0.0451458 
v -90.6568 5.6507 -0.253154 
v -90.5698 4.72503 -0.612147 
v -90.8098 5.29207 -0.285151 
v -90.6568 4.93344 -0.253154 
v -90.5698 5.29207 -0.0451458 
v -89.8288 5.6507 -0.253154 
v -90.2428 5.61945 -0.0451458 
v -89.9148 5.29207 -0.0451458 
v -89.9148 5.29207 -0.0451458 
v -90.2428 4.96469 -0.0451458 
v -89.8288 4.93344 -0.253154 
v -90.5698 5.29207 -0.0451458 
v -90.2428 5.61945 -0.0451458 
v -90.6568 5.6507 -0.253154 
v -90.6568 4.93344 -0.253154 
v -90.2428 4.96469 -0.0451458 
v -90.5698 5.29207 -0.0451458 
v -90.2428 6.94116 -0.612147 
v -89.9148 5.85911 -0.612147 
v -90.2428 6.94116 -0.612147 
v -90.2428 5.85911 -0.285151 
v -89.9148 4.72503 -0.612147 
v -90.2428 4.72503 -0.285151 
v -90.2428 3.64298 -0.612147 
v -88.5938 5.29207 -0.612147 
v -88.5938 5.29207 -0.612147 
v -89.6758 5.61945 -0.612147 
v -89.6758 5.29207 -0.285151 
v -88.5938 5.29207 -0.612147 
v -89.6758 5.29207 -0.285151 
v -89.6758 4.96469 -0.612147 
v -91.8918 5.29207 -0.612147 
v -91.8918 5.29207 -0.612147 
v -90.8098 5.29207 -0.285151 
v -90.8098 5.61945 -0.612147 
v -90.5698 5.85911 -0.612147 
v -90.2428 5.85911 -0.285151 
v -90.2428 6.94116 -0.612147 
v -91.8918 5.29207 -0.612147 
v -90.8098 4.96469 -0.612147 
v -90.8098 5.29207 -0.285151 
v -90.5698 4.72503 -0.612147 
v -90.2428 3.64298 -0.612147 
v -90.2428 4.72503 -0.285151 
v -89.6758 5.29207 -0.939143 
v -89.8288 5.6507 -0.253154 
v -90.8098 5.61945 -0.612147 
v -90.5698 5.85911 -0.612147 
v -90.6568 5.6507 -0.971156 
v -90.5698 5.29207 -1.17915 
v -90.6568 5.6507 -0.253154 
v -90.8098 5.61945 -0.612147 
v -90.6568 5.6507 -0.253154 
v -90.5698 5.85911 -0.612147 
v -89.8288 5.6507 -0.971156 
v -90.2428 5.61945 -1.17915 
v -90.2428 5.85911 -0.939143 
v -89.8288 5.6507 -0.253154 
v -90.2428 5.85911 -0.285151 
v -90.2428 5.61945 -0.0451458 
v -90.6568 5.6507 -0.971156 
v -90.2428 5.85911 -0.939143 
v -90.2428 5.61945 -1.17915 
v -90.6568 5.6507 -0.253154 
v -90.2428 5.61945 -0.0451458 
v -90.2428 5.85911 -0.285151 
v -89.8288 5.6507 -0.971156 
v -90.2428 5.85911 -0.939143 
v -89.9148 5.85911 -0.612147 
v -89.9148 5.85911 -0.612147 
v -90.2428 5.85911 -0.285151 
v -89.8288 5.6507 -0.253154 
v -90.5698 5.85911 -0.612147 
v -90.2428 5.85911 -0.939143 
v -90.6568 5.6507 -0.971156 
v -90.6568 5.6507 -0.253154 
v -90.2428 5.85911 -0.285151 
v -90.5698 5.85911 -0.612147 
v -89.9148 5.29207 -1.17915 
v -90.2428 5.29207 -2.26115 
v -90.2428 5.61945 -1.17915 
v -89.9148 5.29207 -0.0451458 
v -90.2428 5.61945 -0.0451458 
v -90.2428 5.29207 1.03685 
v -90.8098 5.29207 -0.939143 
v -90.6568 5.6507 -0.971156 
v -90.5698 5.29207 -1.17915 
v -90.6568 5.6507 -0.253154 
v -90.5698 4.72503 -0.612147 
v -90.8098 5.29207 -0.939143 
v -90.5698 5.29207 -1.17915 
v -90.6568 4.93344 -0.971156 
v -90.8098 5.61945 -0.612147 
v -90.6568 5.6507 -0.971156 
v -90.8098 5.29207 -0.939143 
v -90.8098 5.29207 -0.285151 
v -90.6568 5.6507 -0.253154 
v -90.8098 5.61945 -0.612147 
v -90.8098 4.96469 -0.612147 
v -90.6568 4.93344 -0.253154 
v -90.8098 5.29207 -0.285151 
v -90.8098 5.29207 -0.939143 
v -90.6568 4.93344 -0.971156 
v -90.8098 4.96469 -0.612147 
v -90.2428 4.96469 -1.17915 
v -90.2428 5.29207 -2.26115 
v -90.2428 6.94116 -0.612147 
v -90.2428 5.29207 1.03685 
v -90.2428 3.64298 -0.612147 
v -90.5698 5.29207 -1.17915 
v -90.2428 5.61945 -1.17915 
v -90.2428 5.29207 -2.26115 
v -90.5698 5.29207 -0.0451458 
v -90.2428 5.29207 1.03685 
v -90.2428 5.61945 -0.0451458 
v -90.5698 5.29207 -0.0451458 
v -90.2428 4.96469 -0.0451458 
v -90.2428 5.29207 1.03685 
v -90.5698 5.29207 -1.17915 
v -90.2428 5.29207 -2.26115 
v -90.2428 4.96469 -1.17915 
v -89.6758 5.29207 -0.939143 
v -89.6758 4.96469 -0.612147 
v -89.8288 4.93344 -0.971156 
v -90.5698 5.29207 -1.17915 
v -90.5698 4.72503 -0.612147 
v -90.2428 4.96469 -1.17915 
v -89.9148 5.29207 -1.17915 
v -90.2428 5.61945 -1.17915 
v -89.8288 5.6507 -0.971156 
v -89.8288 4.93344 -0.971156 
v -90.2428 4.96469 -1.17915 
v -89.9148 5.29207 -1.17915 
v -90.6568 5.6507 -0.971156 
v -90.2428 5.61945 -1.17915 
v -90.5698 5.29207 -1.17915 
v -90.5698 5.29207 -1.17915 
v -90.2428 4.96469 -1.17915 
v -90.6568 4.93344 -0.971156 
v -89.9148 5.85911 -0.612147 
v -90.2428 5.85911 -0.939143 
v -90.2428 6.94116 -0.612147 
v -89.9148 4.72503 -0.612147 
v -90.2428 3.64298 -0.612147 
v -90.2428 4.72503 -0.939143 
v -88.5938 5.29207 -0.612147 
v -89.6758 5.29207 -0.939143 
v -89.6758 5.61945 -0.612147 
v -88.5938 5.29207 -0.612147 
v -89.6758 4.96469 -0.612147 
v -89.6758 5.29207 -0.939143 
v -91.8918 5.29207 -0.612147 
v -90.8098 5.61945 -0.612147 
v -90.8098 5.29207 -0.939143 
v -90.5698 5.85911 -0.612147 
v -90.2428 6.94116 -0.612147 
v -90.2428 5.85911 -0.939143 
v -91.8918 5.29207 -0.612147 
v -90.8098 5.29207 -0.939143 
v -90.8098 4.96469 -0.612147 
v -90.5698 4.72503 -0.612147 
v -90.2428 4.72503 -0.939143 
v -90.2428 3.64298 -0.612147 
v -89.6758 5.29207 -0.939143 
v -89.6758 4.96469 -0.612147 
v -89.8288 4.93344 -0.971156 
v -90.8098 4.96469 -0.612147 
v -90.5698 4.72503 -0.612147 
v -90.6568 4.93344 -0.253154 
v -90.8098 4.96469 -0.612147 
v -90.6568 4.93344 -0.971156 
v -90.5698 4.72503 -0.612147 
v -89.8288 4.93344 -0.253154 
v -90.2428 4.96469 -0.0451458 
v -90.2428 4.72503 -0.285151 
v -89.8288 4.93344 -0.971156 
v -90.2428 4.72503 -0.939143 
v -90.2428 4.96469 -1.17915 
v -90.6568 4.93344 -0.253154 
v -90.2428 4.72503 -0.285151 
v -90.2428 4.96469 -0.0451458 
v -90.6568 4.93344 -0.971156 
v -90.2428 4.96469 -1.17915 
v -90.2428 4.72503 -0.939143 
v -89.8288 4.93344 -0.253154 
v -90.2428 4.72503 -0.285151 
v -89.9148 4.72503 -0.612147 
v -89.9148 4.72503 -0.612147 
v -90.2428 4.72503 -0.939143 
v -89.8288 4.93344 -0.971156 
v -90.5698 4.72503 -0.612147 
v -90.2428 4.72503 -0.285151 
v -90.6568 4.93344 -0.253154 
v -90.6568 4.93344 -0.971156 
v -90.2428 4.72503 -0.939143 
v -90.5698 4.72503 -0.612147 
v -90.2428 5.29207 -2.26115 
v -89.9148 5.29207 -0.0451458 
v -90.2428 5.29207 1.03685 
v -90.2428 4.96469 -0.0451458 
v -89.9148 5.29207 -1.17915 
v -90.2428 4.96469 -1.17915 
v -90.2428 5.29207 -2.26115 
v -89.6758 5.29207 -0.939143 
v -89.9148 5.29207 -1.17915 
v -89.8288 5.6507 -0.971156 
v -89.6758 5.61945 -0.612147 
v -89.8288 5.6507 -0.971156 
v -89.9148 5.85911 -0.612147 
v -89.6758 5.61945 -0.612147 
v -89.9148 5.85911 -0.612147 
v -89.8288 5.6507 -0.253154 
v -89.6758 5.29207 -0.285151 
v -89.8288 5.6507 -0.253154 
v -89.9148 5.29207 -0.0451458 
v -89.6758 5.29207 -0.285151 
v -89.9148 5.29207 -0.0451458 
v -89.8288 4.93344 -0.253154 
v -89.6758 4.96469 -0.612147 
v -89.8288 4.93344 -0.253154 
v -89.9148 4.72503 -0.612147 
v -89.6758 4.96469 -0.612147 
v -89.9148 4.72503 -0.612147 
v -89.8288 4.93344 -0.971156 
v -89.6758 5.29207 -0.939143 
v -89.8288 4.93344 -0.971156 
v -89.9148 5.29207 -1.17915 
v -90.5698 5.29207 -1.17915 
v -90.5698 4.72503 -0.612147 
v -89.6758 5.29207 -0.939143 
v -89.8288 5.6507 -0.971156 
v -89.6758 5.61945 -0.612147 
v -89.6758 5.61945 -0.612147 
v -89.8288 5.6507 -0.253154 
v -89.6758 5.29207 -0.285151 
v -89.6758 5.29207 -0.285151 
v -89.8288 4.93344 -0.253154 
v -89.6758 4.96469 -0.612147 
v -89.6758 4.96469 -0.612147 
v -89.8288 4.93344 -0.971156 
v -89.6758 5.29207 -0.939143 

vn 0.685039 0.685039 0.23622 
vn 0.685039 -0.685039 0.23622 
vn -0.685039 0.23622 0.685039 
vn -0.685039 0.23622 0.685039 
vn -0.685039 0.23622 0.685039 
vn -0.685039 -0.685039 0.23622 
vn -0.685039 -0.228346 0.685039 
vn -0.685039 -0.228346 0.685039 
vn -0.685039 -0.228346 0.685039 
vn 0.385827 0.393701 0.834646 
vn 0.385827 0.393701 0.834646 
vn 0.385827 0.393701 0.834646 
vn 0.385827 -0.393701 0.834646 
vn 0.385827 -0.393701 0.834646 
vn 0.385827 -0.393701 0.834646 
vn -0.393701 0.385827 0.834646 
vn -0.393701 0.385827 0.834646 
vn -0.393701 0.385827 0.834646 
vn -0.393701 -0.385827 0.834646 
vn -0.393701 -0.385827 0.834646 
vn -0.393701 -0.385827 0.834646 
vn 0.692913 0.212598 -0.692913 
vn 0.692913 0.212598 0.692913 
vn 0.692913 0.212598 0.692913 
vn 0.692913 0.212598 0.692913 
vn 0.692913 -0.212598 0.692913 
vn 0.692913 -0.212598 0.692913 
vn 0.692913 -0.212598 0.692913 
vn 0.212598 0.692913 -0.692913 
vn 0.212598 0.692913 0.692913 
vn 0.212598 0.692913 0.692913 
vn 0.212598 0.692913 0.692913 
vn 0.212598 -0.692913 0.692913 
vn 0.212598 -0.692913 0.692913 
vn 0.212598 -0.692913 0.692913 
vn -0.212598 0.692913 -0.692913 
vn -0.212598 0.692913 0.692913 
vn -0.212598 0.692913 0.692913 
vn -0.212598 0.692913 0.692913 
vn -0.692913 0.212598 0.692913 
vn -0.692913 0.212598 0.692913 
vn -0.692913 0.212598 0.692913 
vn -0.212598 -0.692913 0.692913 
vn -0.212598 -0.692913 0.692913 
vn -0.212598 -0.692913 0.692913 
vn -0.692913 -0.204724 0.692913 
vn -0.692913 -0.204724 0.692913 
vn -0.692913 -0.204724 0.692913 
vn 0.685039 0.23622 -0.685039 
vn 0.685039 0.685039 0.23622 
vn -0.685039 0.685039 -0.23622 
vn -0.685039 0.685039 -0.23622 
vn -0.685039 0.685039 -0.23622 
vn -0.685039 0.23622 -0.685039 
vn -0.685039 0.23622 0.685039 
vn -0.685039 0.685039 0.23622 
vn -0.685039 0.685039 0.23622 
vn -0.685039 0.685039 0.23622 
vn 0.291339 0.677165 -0.677165 
vn 0.291339 0.677165 -0.677165 
vn 0.291339 0.677165 -0.677165 
vn 0.291339 0.677165 0.677165 
vn 0.291339 0.677165 0.677165 
vn 0.291339 0.677165 0.677165 
vn -0.291339 0.677165 -0.677165 
vn -0.291339 0.677165 -0.677165 
vn -0.291339 0.677165 -0.677165 
vn -0.291339 0.677165 0.677165 
vn -0.291339 0.677165 0.677165 
vn -0.291339 0.677165 0.677165 
vn 0.385827 0.834646 -0.393701 
vn 0.385827 0.834646 -0.393701 
vn 0.385827 0.834646 -0.393701 
vn 0.385827 0.834646 0.393701 
vn 0.385827 0.834646 0.393701 
vn 0.385827 0.834646 0.393701 
vn -0.393701 0.834646 -0.393701 
vn -0.393701 0.834646 -0.393701 
vn -0.393701 0.834646 -0.393701 
vn -0.393701 0.834646 0.393701 
vn -0.393701 0.834646 0.393701 
vn -0.393701 0.834646 0.393701 
vn 0.692913 0.692913 -0.212598 
vn 0.692913 0.692913 -0.212598 
vn 0.692913 0.692913 -0.212598 
vn 0.692913 0.692913 0.212598 
vn 0.692913 0.692913 0.212598 
vn 0.692913 0.692913 0.212598 
vn -0.685039 0.23622 -0.685039 
vn -0.685039 0.23622 -0.685039 
vn -0.685039 0.23622 -0.685039 
vn -0.685039 0.23622 0.685039 
vn -0.685039 -0.685039 0.23622 
vn -0.685039 -0.228346 -0.685039 
vn -0.685039 -0.228346 -0.685039 
vn -0.685039 -0.228346 -0.685039 
vn -0.874016 0.338583 -0.346457 
vn -0.874016 0.338583 -0.346457 
vn -0.874016 0.338583 -0.346457 
vn -0.874016 0.338583 0.346457 
vn -0.874016 0.338583 0.346457 
vn -0.874016 0.338583 0.346457 
vn -0.874016 -0.346457 0.346457 
vn -0.874016 -0.346457 0.346457 
vn -0.874016 -0.346457 0.346457 
vn -0.874016 -0.346457 -0.346457 
vn -0.874016 -0.346457 -0.346457 
vn -0.874016 -0.346457 -0.346457 
vn 0.291339 -0.677165 -0.677165 
vn 0.692913 0.692913 -0.212598 
vn 0.692913 0.212598 -0.692913 
vn 0.692913 0.692913 0.212598 
vn 0.692913 -0.212598 0.692913 
vn -0.692913 0.692913 -0.212598 
vn -0.692913 0.692913 -0.212598 
vn -0.692913 0.692913 -0.212598 
vn -0.692913 0.692913 0.212598 
vn -0.692913 0.692913 0.212598 
vn -0.692913 0.692913 0.212598 
vn -0.692913 -0.692913 0.212598 
vn -0.692913 -0.692913 0.212598 
vn -0.692913 -0.692913 0.212598 
vn -0.692913 -0.692913 -0.212598 
vn -0.692913 -0.692913 -0.212598 
vn -0.692913 -0.692913 -0.212598 
vn 0.685039 0.23622 -0.685039 
vn 0.685039 -0.685039 0.23622 
vn 0.685039 -0.685039 -0.23622 
vn -0.685039 0.23622 -0.685039 
vn -0.685039 -0.685039 0.23622 
vn 0.291339 -0.677165 -0.677165 
vn 0.385827 0.393701 -0.834646 
vn 0.385827 0.393701 -0.834646 
vn 0.385827 0.393701 -0.834646 
vn 0.385827 -0.393701 -0.834646 
vn 0.385827 -0.393701 -0.834646 
vn 0.385827 -0.393701 -0.834646 
vn -0.393701 0.385827 -0.834646 
vn -0.393701 0.385827 -0.834646 
vn -0.393701 0.385827 -0.834646 
vn -0.393701 -0.385827 -0.834646 
vn -0.393701 -0.385827 -0.834646 
vn -0.393701 -0.385827 -0.834646 
vn 0.692913 0.212598 -0.692913 
vn 0.692913 0.212598 -0.692913 
vn 0.692913 0.212598 -0.692913 
vn 0.692913 -0.212598 -0.692913 
vn 0.692913 -0.212598 -0.692913 
vn 0.692913 -0.212598 -0.692913 
vn 0.212598 0.692913 -0.692913 
vn 0.212598 0.692913 -0.692913 
vn 0.212598 0.692913 -0.692913 
vn 0.212598 -0.692913 -0.692913 
vn 0.212598 -0.692913 -0.692913 
vn 0.212598 -0.692913 -0.692913 
vn -0.212598 0.692913 -0.692913 
vn -0.212598 0.692913 -0.692913 
vn -0.212598 0.692913 -0.692913 
vn -0.692913 0.212598 -0.692913 
vn -0.692913 0.212598 -0.692913 
vn -0.692913 0.212598 -0.692913 
vn -0.212598 -0.692913 -0.692913 
vn -0.212598 -0.692913 -0.692913 
vn -0.212598 -0.692913 -0.692913 
vn -0.692913 -0.212598 -0.692913 
vn -0.692913 -0.212598 -0.692913 
vn -0.692913 -0.212598 -0.692913 
vn 0.685039 0.23622 -0.685039 
vn 0.685039 -0.685039 0.23622 
vn 0.685039 -0.685039 -0.23622 
vn -0.685039 -0.685039 0.23622 
vn -0.685039 -0.685039 0.23622 
vn -0.685039 -0.685039 0.23622 
vn -0.685039 -0.685039 -0.23622 
vn -0.685039 -0.685039 -0.23622 
vn -0.685039 -0.685039 -0.23622 
vn 0.291339 -0.677165 0.677165 
vn 0.291339 -0.677165 0.677165 
vn 0.291339 -0.677165 0.677165 
vn 0.291339 -0.677165 -0.677165 
vn 0.291339 -0.677165 -0.677165 
vn 0.291339 -0.677165 -0.677165 
vn -0.291339 -0.677165 0.677165 
vn -0.291339 -0.677165 0.677165 
vn -0.291339 -0.677165 0.677165 
vn -0.291339 -0.677165 -0.677165 
vn -0.291339 -0.677165 -0.677165 
vn -0.291339 -0.677165 -0.677165 
vn 0.385827 -0.834646 0.393701 
vn 0.385827 -0.834646 0.393701 
vn 0.385827 -0.834646 0.393701 
vn 0.385827 -0.834646 -0.393701 
vn 0.385827 -0.834646 -0.393701 
vn 0.385827 -0.834646 -0.393701 
vn -0.393701 -0.834646 0.393701 
vn -0.393701 -0.834646 0.393701 
vn -0.393701 -0.834646 0.393701 
vn -0.393701 -0.834646 -0.393701 
vn -0.393701 -0.834646 -0.393701 
vn -0.393701 -0.834646 -0.393701 
vn 0.692913 0.692913 -0.212598 
vn 0.692913 -0.692913 0.212598 
vn 0.692913 -0.692913 0.212598 
vn 0.692913 -0.692913 0.212598 
vn 0.692913 -0.692913 -0.212598 
vn 0.692913 -0.692913 -0.212598 
vn 0.692913 -0.692913 -0.212598 
vn 0.685039 0.23622 -0.685039 
vn 0.685039 0.23622 -0.685039 
vn 0.685039 0.23622 -0.685039 
vn 0.685039 0.685039 -0.23622 
vn 0.685039 0.685039 -0.23622 
vn 0.685039 0.685039 -0.23622 
vn 0.685039 0.685039 0.23622 
vn 0.685039 0.685039 0.23622 
vn 0.685039 0.685039 0.23622 
vn 0.692913 0.23622 0.685039 
vn 0.692913 0.23622 0.685039 
vn 0.692913 0.23622 0.685039 
vn 0.692913 -0.23622 0.685039 
vn 0.692913 -0.23622 0.685039 
vn 0.692913 -0.23622 0.685039 
vn 0.685039 -0.685039 0.23622 
vn 0.685039 -0.685039 0.23622 
vn 0.685039 -0.685039 0.23622 
vn 0.685039 -0.685039 -0.23622 
vn 0.685039 -0.685039 -0.23622 
vn 0.685039 -0.685039 -0.23622 
vn 0.692913 -0.23622 -0.685039 
vn 0.692913 -0.23622 -0.685039 
vn 0.692913 -0.23622 -0.685039 
vn -0.685039 0.23622 -0.685039 
vn -0.685039 -0.685039 0.23622 
vn 0.874016 0.338583 -0.346457 
vn 0.874016 0.338583 -0.346457 
vn 0.874016 0.338583 -0.346457 
vn 0.874016 0.338583 0.346457 
vn 0.874016 0.338583 0.346457 
vn 0.874016 0.338583 0.346457 
vn 0.874016 -0.346457 0.346457 
vn 0.874016 -0.346457 0.346457 
vn 0.874016 -0.346457 0.346457 
vn 0.874016 -0.346457 -0.346457 
vn 0.874016 -0.346457 -0.346457 
vn 0.874016 -0.346457 -0.346457 

vt -2.90322 2.31823 
vt -2.88409 2.23248 
vt -3.02584 2.2734 
vt -2.99584 2.2734 
vt -3.00672 2.31823 
vt -2.99584 2.20252 
vt -3.02584 2.2734 
vt -3.00672 2.22857 
vt -2.99584 2.2734 
vt -2.90322 2.31823 
vt -2.95497 2.31432 
vt -2.91397 2.2734 
vt -2.91397 2.2734 
vt -2.95497 2.23248 
vt -2.90322 2.22857 
vt -2.99584 2.2734 
vt -2.95497 2.31432 
vt -3.00672 2.31823 
vt -3.00672 2.22857 
vt -2.95497 2.23248 
vt -2.99584 2.2734 
vt -2.95497 2.47954 
vt -2.91397 2.34428 
vt -2.95497 2.47954 
vt -2.95497 2.34428 
vt -2.91397 2.20252 
vt -2.95497 2.20252 
vt -2.95497 2.06727 
vt -2.74884 2.2734 
vt -2.74884 2.2734 
vt -2.88409 2.31432 
vt -2.88409 2.2734 
vt -2.74884 2.2734 
vt -2.88409 2.2734 
vt -2.88409 2.23248 
vt -3.16109 2.2734 
vt -3.16109 2.2734 
vt -3.02584 2.2734 
vt -3.02584 2.31432 
vt -2.99584 2.34428 
vt -2.95497 2.34428 
vt -2.95497 2.47954 
vt -3.16109 2.2734 
vt -3.02584 2.23248 
vt -3.02584 2.2734 
vt -2.99584 2.20252 
vt -2.95497 2.06727 
vt -2.95497 2.20252 
vt -2.91409 2.20253 
vt -2.99984 2.22165 
vt -2.95497 2.34428 
vt -2.95497 2.31428 
vt -2.91009 2.32515 
vt -2.88409 2.31428 
vt -2.99984 2.32515 
vt -2.95497 2.34428 
vt -2.99984 2.32515 
vt -2.95497 2.31428 
vt -2.91009 2.22165 
vt -2.88409 2.2734 
vt -2.91409 2.2734 
vt -2.99984 2.22165 
vt -2.99584 2.2734 
vt -3.02584 2.2734 
vt -2.91009 2.32515 
vt -2.91409 2.2734 
vt -2.88409 2.2734 
vt -2.99984 2.32515 
vt -3.02584 2.2734 
vt -2.99584 2.2734 
vt -2.91009 2.22165 
vt -2.91409 2.2734 
vt -2.95497 2.2324 
vt -2.95497 2.2324 
vt -2.99584 2.2734 
vt -2.99984 2.22165 
vt -2.95497 2.31428 
vt -2.91409 2.2734 
vt -2.91009 2.32515 
vt -2.99984 2.32515 
vt -2.99584 2.2734 
vt -2.95497 2.31428 
vt -2.88409 2.2324 
vt -2.74884 2.2734 
vt -2.88409 2.2734 
vt -3.02584 2.2324 
vt -3.02584 2.2734 
vt -3.16109 2.2734 
vt -2.99584 2.2734 
vt -2.99984 2.31823 
vt -3.02584 2.2734 
vt -2.91009 2.31823 
vt -2.95497 2.20252 
vt -2.99584 2.2734 
vt -3.02584 2.2734 
vt -2.99984 2.22857 
vt -2.95497 2.31432 
vt -2.99984 2.31823 
vt -2.99584 2.2734 
vt -2.91409 2.2734 
vt -2.91009 2.31823 
vt -2.95497 2.31432 
vt -2.95497 2.23248 
vt -2.91009 2.22857 
vt -2.91409 2.2734 
vt -2.99584 2.2734 
vt -2.99984 2.22857 
vt -2.95497 2.23248 
vt -3.02584 2.23248 
vt -3.16109 2.2734 
vt -2.95497 2.47954 
vt -2.74884 2.2734 
vt -2.95497 2.06727 
vt -3.02584 2.2734 
vt -3.02584 2.31432 
vt -3.16109 2.2734 
vt -2.88409 2.2734 
vt -2.74884 2.2734 
vt -2.88409 2.31432 
vt -2.88409 2.2734 
vt -2.88409 2.23248 
vt -2.74884 2.2734 
vt -3.02584 2.2734 
vt -3.16109 2.2734 
vt -3.02584 2.23248 
vt -3.02584 2.2734 
vt -3.02584 2.23248 
vt -3.00672 2.22857 
vt -2.91409 2.2734 
vt -2.91409 2.20252 
vt -2.95497 2.23248 
vt -2.99597 2.2734 
vt -2.95497 2.31432 
vt -3.00672 2.31823 
vt -3.00672 2.22857 
vt -2.95497 2.23248 
vt -2.99597 2.2734 
vt -2.90322 2.31823 
vt -2.95497 2.31432 
vt -2.91409 2.2734 
vt -2.91409 2.2734 
vt -2.95497 2.23248 
vt -2.90322 2.22857 
vt -2.99597 2.34428 
vt -2.95497 2.34428 
vt -2.95497 2.47954 
vt -2.99597 2.20252 
vt -2.95497 2.06727 
vt -2.95497 2.20252 
vt -3.16109 2.2734 
vt -3.02584 2.2734 
vt -3.02584 2.31432 
vt -3.16109 2.2734 
vt -3.02584 2.23248 
vt -3.02584 2.2734 
vt -2.74884 2.2734 
vt -2.88409 2.31432 
vt -2.88409 2.2734 
vt -2.91409 2.34428 
vt -2.95497 2.47954 
vt -2.95497 2.34428 
vt -2.74884 2.2734 
vt -2.88409 2.2734 
vt -2.88409 2.23248 
vt -2.91409 2.20252 
vt -2.95497 2.20252 
vt -2.95497 2.06727 
vt -2.99584 2.20253 
vt -2.95497 2.20253 
vt -2.99984 2.22165 
vt -2.95497 2.34428 
vt -2.95497 2.31428 
vt -2.91009 2.32515 
vt -2.95497 2.34428 
vt -2.99984 2.32515 
vt -2.95497 2.31428 
vt -2.91009 2.22165 
vt -2.88409 2.2734 
vt -2.91409 2.2734 
vt -2.99984 2.22165 
vt -2.99584 2.2734 
vt -3.02584 2.2734 
vt -2.91009 2.32515 
vt -2.91409 2.2734 
vt -2.88409 2.2734 
vt -2.99984 2.32515 
vt -3.02584 2.2734 
vt -2.99584 2.2734 
vt -2.91009 2.22165 
vt -2.91409 2.2734 
vt -2.95497 2.2324 
vt -2.95497 2.2324 
vt -2.99584 2.2734 
vt -2.99984 2.22165 
vt -2.95497 2.31428 
vt -2.91409 2.2734 
vt -2.91009 2.32515 
vt -2.99984 2.32515 
vt -2.99584 2.2734 
vt -2.95497 2.31428 
vt -3.16109 2.2734 
vt -2.88409 2.2324 
vt -2.74884 2.2734 
vt -2.88409 2.2734 
vt -3.02584 2.2324 
vt -3.02584 2.2734 
vt -3.16109 2.2734 
vt -2.91409 2.2734 
vt -2.88409 2.2734 
vt -2.91009 2.31823 
vt -2.95497 2.31432 
vt -2.91009 2.31823 
vt -2.95497 2.34428 
vt -2.95497 2.31432 
vt -2.95497 2.34428 
vt -2.99984 2.31823 
vt -2.99584 2.2734 
vt -2.99984 2.31823 
vt -3.02584 2.2734 
vt -2.99584 2.2734 
vt -3.02584 2.2734 
vt -2.99984 2.22857 
vt -2.95497 2.23248 
vt -2.99984 2.22857 
vt -2.95497 2.20252 
vt -2.95497 2.23248 
vt -2.95497 2.20252 
vt -2.91009 2.22857 
vt -2.91409 2.2734 
vt -2.91009 2.22857 
vt -2.88409 2.2734 
vt -2.88409 2.2734 
vt -2.95497 2.20252 
vt -2.91409 2.2734 
vt -2.91009 2.31823 
vt -2.95497 2.31432 
vt -2.95497 2.31432 
vt -2.99984 2.31823 
vt -2.99584 2.2734 
vt -2.99584 2.2734 
vt -2.99984 2.22857 
vt -2.95497 2.23248 
vt -2.95497 2.23248 
vt -2.91009 2.22857 
vt -2.91409 2.2734 

usemtl Meshpart1Mtl

f 3/3/3 4/4/4 5/5/5 
f 7/7/7 8/8/8 9/9/9 
f 10/10/10 11/11/11 12/12/12 
f 13/13/13 14/14/14 15/15/15 
f 16/16/16 17/17/17 18/18/18 
f 19/19/19 20/20/20 21/21/21 
f 23/23/23 24/24/24 25/25/25 
f 26/26/26 27/27/27 28/28/28 
f 30/30/30 31/31/31 32/32/32 
f 33/33/33 34/34/34 35/35/35 
f 37/37/37 38/38/38 39/39/39 
f 40/40/40 41/41/41 42/42/42 
f 43/43/43 44/44/44 45/45/45 
f 46/46/46 47/47/47 48/48/48 
f 51/51/51 52/52/52 53/53/53 
f 56/56/56 57/57/57 58/58/58 
f 59/59/59 60/60/60 61/61/61 
f 62/62/62 63/63/63 64/64/64 
f 65/65/65 66/66/66 67/67/67 
f 68/68/68 69/69/69 70/70/70 
f 71/71/71 72/72/72 73/73/73 
f 74/74/74 75/75/75 76/76/76 
f 77/77/77 78/78/78 79/79/79 
f 80/80/80 81/81/81 82/82/82 
f 83/83/83 84/84/84 85/85/85 
f 86/86/86 87/87/87 88/88/88 
f 89/89/89 90/90/90 91/91/91 
f 94/94/94 95/95/95 96/96/96 
f 97/97/97 98/98/98 99/99/99 
f 100/100/100 101/101/101 102/102/102 
f 103/103/103 104/104/104 105/105/105 
f 106/106/106 107/107/107 108/108/108 
f 114/114/114 115/115/115 116/116/116 
f 117/117/117 118/118/118 119/119/119 
f 120/120/120 121/121/121 122/122/122 
f 123/123/123 124/124/124 125/125/125 
f 132/132/132 133/133/133 134/134/134 
f 135/135/135 136/136/136 137/137/137 
f 138/138/138 139/139/139 140/140/140 
f 141/141/141 142/142/142 143/143/143 
f 144/144/144 145/145/145 146/146/146 
f 147/147/147 148/148/148 149/149/149 
f 150/150/150 151/151/151 152/152/152 
f 153/153/153 154/154/154 155/155/155 
f 156/156/156 157/157/157 158/158/158 
f 159/159/159 160/160/160 161/161/161 
f 162/162/162 163/163/163 164/164/164 
f 165/165/165 166/166/166 167/167/167 
f 171/171/171 172/172/172 173/173/173 
f 174/174/174 175/175/175 176/176/176 
f 177/177/177 178/178/178 179/179/179 
f 180/180/180 181/181/181 182/182/182 
f 183/183/183 184/184/184 185/185/185 
f 186/186/186 187/187/187 188/188/188 
f 189/189/189 190/190/190 191/191/191 
f 192/192/192 193/193/193 194/194/194 
f 195/195/195 196/196/196 197/197/197 
f 198/198/198 199/199/199 200/200/200 
f 202/202/202 203/203/203 204/204/204 
f 205/205/205 206/206/206 207/207/207 
f 208/208/208 209/209/209 210/210/210 
f 211/211/211 212/212/212 213/213/213 
f 214/214/214 215/215/215 216/216/216 
f 217/217/217 218/218/218 219/219/219 
f 220/220/220 221/221/221 222/222/222 
f 223/223/223 224/224/224 225/225/225 
f 226/226/226 227/227/227 228/228/228 
f 229/229/229 230/230/230 231/231/231 
f 234/234/234 235/235/235 236/236/236 
f 237/237/237 238/238/238 239/239/239 
f 240/240/240 241/241/241 242/242/242 
f 243/243/243 244/244/244 245/245/245 

g Meshpart2

v -88.6918 7.43939 -2.14087 
v -88.0987 6.83939 0.859131 
v -88.6918 7.43939 0.859131 
v -88.6918 6.83939 1.45222 
v -91.6918 7.43939 -2.14087 
v -92.2849 6.83939 0.859131 
v -91.6918 6.83939 1.45222 
v -91.6918 7.43939 0.859131 
v -88.6918 3.139 -2.14087 
v -88.0987 3.739 0.859131 
v -88.6918 3.739 1.45222 
v -88.6918 3.139 0.859131 
v -91.6918 3.139 -2.14087 
v -92.2849 3.739 0.859131 
v -91.6918 3.139 0.859131 
v -91.6918 3.739 1.45222 
v -88.6918 6.33939 0.960296 
v -88.6918 5.2892 0.960296 
v -88.5907 6.33939 0.859131 
v -88.5907 5.2892 0.859131 
v -88.5907 4.239 0.859131 
v -88.6918 4.239 0.960296 
v -91.793 6.33939 0.859131 
v -91.793 5.2892 0.859131 
v -91.6918 5.2892 0.960296 
v -91.6918 6.33939 0.960296 
v -91.793 4.239 0.859131 
v -91.6918 4.239 0.960296 
v -88.6918 3.68803 0.409326 
v -90.1918 3.7892 0.960296 
v -91.242 3.7892 0.960296 
v -90.1918 3.68803 0.859131 
v -91.242 3.68803 0.859131 
v -89.1416 3.7892 0.960296 
v -89.1416 3.68803 0.859131 
v -91.242 6.7892 0.960296 
v -90.1918 6.7892 0.960296 
v -90.1918 6.89036 0.859131 
v -91.242 6.89036 0.859131 
v -89.1416 6.7892 0.960296 
v -89.1416 6.89036 0.859131 
v -89.2849 6.83939 -2.14087 
v -88.6918 6.83939 -1.54778 
v -88.6918 6.83939 1.45222 
v -88.6918 7.43939 0.859131 
v -89.2849 6.83939 0.859131 
v -91.0987 6.83939 -2.14087 
v -91.6918 6.83939 -1.54778 
v -91.6918 6.83939 1.45222 
v -91.0987 6.83939 0.859131 
v -91.6918 7.43939 0.859131 
v -89.2849 3.739 -2.14087 
v -88.6918 3.739 -1.54778 
v -88.6918 3.739 1.45222 
v -89.2849 3.739 0.859131 
v -88.6918 3.139 0.859131 
v -91.0987 3.739 -2.14087 
v -91.6918 3.739 -1.54778 
v -91.6918 3.739 1.45222 
v -91.6918 3.139 0.859131 
v -91.0987 3.739 0.859131 
v -88.5907 6.33939 0.859131 
v -88.0987 6.83939 0.859131 
v -88.6918 6.83939 1.45222 
v -88.6918 6.33939 0.960296 
v -91.6918 6.83939 1.45222 
v -91.793 6.33939 0.859131 
v -91.6918 6.33939 0.960296 
v -92.2849 6.83939 0.859131 
v -88.6918 4.239 0.960296 
v -88.6918 3.739 1.45222 
v -88.5907 4.239 0.859131 
v -88.0987 3.739 0.859131 
v -91.6918 3.739 1.45222 
v -91.793 4.239 0.859131 
v -92.2849 3.739 0.859131 
v -91.6918 4.239 0.960296 
v -88.6918 6.33939 -2.0397 
v -88.5907 5.2892 -2.14087 
v -88.5907 6.33939 -2.14087 
v -88.6918 5.2892 -2.0397 
v -88.6918 4.239 -2.0397 
v -88.5907 4.239 -2.14087 
v -88.6918 5.2892 0.960296 
v -88.6918 6.33939 0.960296 
v -88.793 5.2892 0.859131 
v -88.793 6.33939 0.859131 
v -88.6918 4.239 0.960296 
v -88.793 4.239 0.859131 
v -91.6918 5.2892 -2.0397 
v -91.6918 6.33939 -2.0397 
v -91.793 5.2892 -2.14087 
v -91.793 6.33939 -2.14087 
v -91.6918 4.239 -2.0397 
v -91.793 4.239 -2.14087 
v -91.6918 6.33939 0.960296 
v -91.5907 5.2892 0.859131 
v -91.5907 6.33939 0.859131 
v -91.6918 5.2892 0.960296 
v -91.6918 4.239 0.960296 
v -91.5907 4.239 0.859131 
v -91.242 3.68803 -2.14087 
v -90.1918 3.68803 -2.14087 
v -90.1918 3.7892 -2.0397 
v -91.242 3.7892 -2.0397 
v -89.1416 3.68803 -2.14087 
v -89.1416 3.7892 -2.0397 
v -90.1918 6.89036 -2.14087 
v -91.242 6.89036 -2.14087 
v -90.1918 6.7892 -2.0397 
v -91.242 6.7892 -2.0397 
v -89.1416 6.89036 -2.14087 
v -89.1416 6.7892 -2.0397 
v -90.1918 3.89036 0.859131 
v -91.242 3.89036 0.859131 
v -90.1918 3.7892 0.960296 
v -91.242 3.7892 0.960296 
v -89.1416 3.89036 0.859131 
v -89.1416 3.7892 0.960296 
v -91.242 6.68803 0.859131 
v -90.1918 6.68803 0.859131 
v -90.1918 6.7892 0.960296 
v -91.242 6.7892 0.960296 
v -89.1416 6.68803 0.859131 
v -89.1416 6.7892 0.960296 
v -88.6918 3.68803 -0.640869 
v -88.6918 3.89036 -0.640869 
v -88.793 3.7892 -0.640869 
v -88.5907 3.7892 -0.640869 
v -88.6918 6.89036 -0.640869 
v -88.793 6.7892 -0.640869 
v -88.6918 6.68803 -0.640869 
v -88.5907 6.7892 -0.640869 
v -91.6918 3.68803 -0.640869 
v -91.6918 3.89036 -0.640869 
v -91.793 3.7892 -0.640869 
v -91.5907 3.7892 -0.640869 
v -91.6918 6.89036 -0.640869 
v -91.793 6.7892 -0.640869 
v -91.6918 6.68803 -0.640869 
v -91.5907 6.7892 -0.640869 
v -89.2849 6.83939 -2.14087 
v -88.6918 6.83939 -1.54778 
v -88.6918 7.43939 -2.14087 
v -91.0987 6.83939 -2.14087 
v -91.6918 7.43939 -2.14087 
v -91.6918 6.83939 -1.54778 
v -89.2849 3.739 -2.14087 
v -88.6918 3.139 -2.14087 
v -88.6918 3.739 -1.54778 
v -91.0987 3.739 -2.14087 
v -91.6918 3.739 -1.54778 
v -91.6918 3.139 -2.14087 
v -88.6918 6.33939 -2.0397 
v -88.0987 6.83939 -2.14087 
v -88.5907 6.33939 -2.14087 
v -88.6918 6.83939 1.45222 
v -88.793 6.33939 0.859131 
v -88.6918 6.33939 0.960296 
v -89.2849 6.83939 0.859131 
v -92.2849 6.83939 -2.14087 
v -91.793 6.33939 -2.14087 
v -91.6918 6.33939 -2.0397 
v -91.5907 6.33939 0.859131 
v -91.6918 6.83939 1.45222 
v -91.6918 6.33939 0.960296 
v -91.0987 6.83939 0.859131 
v -88.0987 3.739 -2.14087 
v -88.5907 4.239 -2.14087 
v -88.6918 4.239 -2.0397 
v -88.6918 3.739 1.45222 
v -88.793 4.239 0.859131 
v -89.2849 3.739 0.859131 
v -88.6918 4.239 0.960296 
v -91.6918 4.239 -2.0397 
v -92.2849 3.739 -2.14087 
v -91.793 4.239 -2.14087 
v -91.5907 4.239 0.859131 
v -91.6918 3.739 1.45222 
v -91.0987 3.739 0.859131 
v -91.6918 4.239 0.960296 
v -88.793 6.33939 -2.14087 
v -88.793 5.2892 -2.14087 
v -88.6918 5.2892 -2.0397 
v -88.6918 6.33939 -2.0397 
v -88.793 4.239 -2.14087 
v -88.6918 4.239 -2.0397 
v -91.6918 6.33939 -2.0397 
v -91.6918 5.2892 -2.0397 
v -91.5907 6.33939 -2.14087 
v -91.5907 5.2892 -2.14087 
v -91.5907 4.239 -2.14087 
v -91.6918 4.239 -2.0397 
v -91.242 3.7892 -2.0397 
v -90.1918 3.7892 -2.0397 
v -90.1918 3.89036 -2.14087 
v -91.242 3.89036 -2.14087 
v -89.1416 3.7892 -2.0397 
v -89.1416 3.89036 -2.14087 
v -90.1918 6.7892 -2.0397 
v -91.242 6.7892 -2.0397 
v -90.1918 6.68803 -2.14087 
v -91.242 6.68803 -2.14087 
v -89.1416 6.7892 -2.0397 
v -89.1416 6.68803 -2.14087 
v -88.6918 6.33939 -2.0397 
v -89.2849 6.83939 -2.14087 
v -88.793 6.33939 -2.14087 
v -88.6918 6.83939 -1.54778 
v -91.0987 6.83939 -2.14087 
v -91.6918 6.33939 -2.0397 
v -91.5907 6.33939 -2.14087 
v -91.6918 6.83939 -1.54778 
v -89.2849 3.739 -2.14087 
v -88.6918 4.239 -2.0397 
v -88.793 4.239 -2.14087 
v -88.6918 3.739 -1.54778 
v -91.6918 4.239 -2.0397 
v -91.0987 3.739 -2.14087 
v -91.5907 4.239 -2.14087 
v -91.6918 3.739 -1.54778 
v -88.6918 3.739 -2.73396 
v -88.6918 3.739 1.45222 
v -91.6918 3.739 -2.73396 
v -91.6918 3.739 1.45222 
v -88.6918 6.33939 -2.24203 
v -88.5907 4.239 -2.14087 
v -88.5907 4.239 0.859131 
v -91.793 4.239 -2.14087 
v -91.793 4.239 0.859131 
v -88.5907 6.7892 -1.69106 
v -88.6918 6.89036 -0.640869 
v -88.5907 6.7892 -0.640869 
v -88.6918 6.89036 -1.69106 
v -88.5907 6.7892 0.409326 
v -88.6918 6.89036 0.409326 
v -91.6918 6.89036 -0.640869 
v -91.6918 6.89036 -1.69106 
v -91.793 6.7892 -1.69106 
v -91.793 6.7892 -0.640869 
v -91.793 6.7892 0.409326 
v -91.6918 6.89036 0.409326 
v -89.2849 6.83939 -2.14087 
v -88.6918 6.83939 -1.54778 
v -89.2849 3.739 -2.14087 
v -88.6918 3.739 -1.54778 
v -89.2849 3.739 0.859131 
v -88.6918 3.739 0.266043 
v -91.0987 3.739 -2.14087 
v -91.6918 3.739 -1.54778 
v -91.0987 3.739 0.859131 
v -91.6918 3.739 0.266043 
v -88.5907 3.7892 -0.640869 
v -88.5907 3.7892 -1.69106 
v -88.6918 3.89036 -1.69106 
v -88.6918 3.89036 -0.640869 
v -88.6918 3.89036 0.409326 
v -88.5907 3.7892 0.409326 
v -88.6918 6.89036 -1.69106 
v -88.793 6.7892 -0.640869 
v -88.6918 6.89036 -0.640869 
v -88.793 6.7892 -1.69106 
v -88.6918 6.89036 0.409326 
v -88.793 6.7892 0.409326 
v -91.6918 3.89036 -1.69106 
v -91.793 3.7892 -0.640869 
v -91.6918 3.89036 -0.640869 
v -91.793 3.7892 -1.69106 
v -91.6918 3.89036 0.409326 
v -91.793 3.7892 0.409326 
v -91.5907 6.7892 -0.640869 
v -91.5907 6.7892 -1.69106 
v -91.6918 6.89036 -1.69106 
v -91.6918 6.89036 -0.640869 
v -91.6918 6.89036 0.409326 
v -91.5907 6.7892 0.409326 
v -88.6918 3.89036 -0.640869 
v -88.6918 3.89036 -1.69106 
v -88.793 3.7892 -1.69106 
v -88.793 3.7892 -0.640869 
v -88.793 3.7892 0.409326 
v -88.6918 3.89036 0.409326 
v -91.5907 3.7892 -1.69106 
v -91.6918 3.89036 -0.640869 
v -91.5907 3.7892 -0.640869 
v -91.6918 3.89036 -1.69106 
v -91.5907 3.7892 0.409326 
v -91.6918 3.89036 0.409326 
v -92.2849 6.83939 -2.14087 
v -91.6918 7.43939 -2.14087 
v -92.2849 6.83939 0.859131 
v -91.6918 7.43939 0.859131 
v -92.2849 3.739 -2.14087 
v -91.6918 3.139 -2.14087 
v -92.2849 3.739 0.859131 
v -91.6918 3.139 0.859131 
v -91.793 6.33939 -2.14087 
v -91.793 4.239 -2.14087 
v -91.6918 4.239 -2.24203 
v -91.793 6.33939 0.859131 
v -91.793 4.239 0.859131 
v -91.242 3.68803 -2.14087 
v -91.6918 6.83939 -1.54778 
v -91.6918 7.43939 -2.14087 
v -92.2849 6.83939 -2.14087 
v -91.6918 6.83939 0.266043 
v -92.2849 6.83939 0.859131 
v -91.6918 7.43939 0.859131 
v -91.6918 3.739 -1.54778 
v -92.2849 3.739 -2.14087 
v -91.6918 3.139 -2.14087 
v -91.6918 3.739 0.266043 
v -91.6918 3.139 0.859131 
v -92.2849 3.739 0.859131 
v -92.2849 6.83939 -2.14087 
v -91.6918 6.33939 -2.0397 
v -91.6918 6.83939 -1.54778 
v -92.2849 6.83939 0.859131 
v -91.6918 6.33939 0.757966 
v -91.6918 6.83939 0.266043 
v -91.6918 3.739 -1.54778 
v -91.6918 4.239 -2.0397 
v -92.2849 3.739 -2.14087 
v -91.6918 3.739 0.266043 
v -92.2849 3.739 0.859131 
v -91.6918 4.239 0.757966 
v -88.0987 6.83939 -2.14087 
v -88.6918 6.83939 -2.73396 
v -88.6918 7.43939 -2.14087 
v -88.6918 7.43939 0.859131 
v -92.2849 6.83939 -2.14087 
v -91.6918 7.43939 -2.14087 
v -91.6918 6.83939 -2.73396 
v -91.6918 7.43939 0.859131 
v -88.0987 3.739 -2.14087 
v -88.6918 3.139 -2.14087 
v -88.6918 3.739 -2.73396 
v -88.6918 3.139 0.859131 
v -92.2849 3.739 -2.14087 
v -91.6918 3.739 -2.73396 
v -91.6918 3.139 -2.14087 
v -91.6918 3.139 0.859131 
v -88.5907 6.33939 -2.14087 
v -88.6918 5.2892 -2.24203 
v -88.6918 6.33939 -2.24203 
v -88.5907 5.2892 -2.14087 
v -88.5907 4.239 -2.14087 
v -88.6918 4.239 -2.24203 
v -88.5907 4.239 0.859131 
v -91.793 5.2892 -2.14087 
v -91.793 6.33939 -2.14087 
v -91.6918 5.2892 -2.24203 
v -91.6918 6.33939 -2.24203 
v -91.793 4.239 -2.14087 
v -91.6918 4.239 -2.24203 
v -88.6918 3.68803 0.409326 
v -91.242 3.7892 -2.24203 
v -90.1918 3.7892 -2.24203 
v -90.1918 3.68803 -2.14087 
v -91.242 3.68803 -2.14087 
v -89.1416 3.7892 -2.24203 
v -89.1416 3.68803 -2.14087 
v -90.1918 6.7892 -2.24203 
v -91.242 6.7892 -2.24203 
v -90.1918 6.89036 -2.14087 
v -91.242 6.89036 -2.14087 
v -89.1416 6.7892 -2.24203 
v -89.1416 6.89036 -2.14087 
v -88.6918 6.83939 -2.73396 
v -89.2849 6.83939 -2.14087 
v -88.6918 7.43939 -2.14087 
v -89.2849 6.83939 0.859131 
v -88.6918 6.83939 0.266043 
v -91.6918 6.83939 -2.73396 
v -91.6918 7.43939 -2.14087 
v -91.0987 6.83939 -2.14087 
v -91.0987 6.83939 0.859131 
v -91.6918 6.83939 0.266043 
v -88.6918 3.739 -2.73396 
v -88.6918 3.139 -2.14087 
v -89.2849 3.739 -2.14087 
v -89.2849 3.739 0.859131 
v -88.6918 3.739 0.266043 
v -91.6918 3.739 -2.73396 
v -91.0987 3.739 -2.14087 
v -91.6918 3.139 -2.14087 
v -91.0987 3.739 0.859131 
v -91.6918 3.739 0.266043 
v -88.6918 6.33939 -2.24203 
v -88.6918 6.83939 -2.73396 
v -88.5907 6.33939 -2.14087 
v -88.0987 6.83939 -2.14087 
v -91.6918 6.83939 -2.73396 
v -91.793 6.33939 -2.14087 
v -92.2849 6.83939 -2.14087 
v -91.6918 6.33939 -2.24203 
v -88.5907 4.239 -2.14087 
v -88.0987 3.739 -2.14087 
v -88.6918 3.739 -2.73396 
v -88.6918 4.239 -2.24203 
v -91.6918 3.739 -2.73396 
v -91.793 4.239 -2.14087 
v -91.6918 4.239 -2.24203 
v -92.2849 3.739 -2.14087 
v -88.6918 6.33939 -2.24203 
v -88.6918 5.2892 -2.24203 
v -88.793 5.2892 -2.14087 
v -88.793 6.33939 -2.14087 
v -88.6918 4.239 -2.24203 
v -88.793 4.239 -2.14087 
v -88.5907 6.33939 0.859131 
v -88.5907 5.2892 0.859131 
v -88.6918 6.33939 0.757966 
v -88.6918 5.2892 0.757966 
v -88.6918 4.239 0.757966 
v -88.5907 4.239 0.859131 
v -88.793 6.33939 0.859131 
v -91.5907 6.33939 -2.14087 
v -91.5907 5.2892 -2.14087 
v -91.6918 6.33939 -2.24203 
v -91.6918 5.2892 -2.24203 
v -91.6918 4.239 -2.24203 
v -91.5907 4.239 -2.14087 
v -91.6918 6.33939 0.757966 
v -91.6918 5.2892 0.757966 
v -91.793 5.2892 0.859131 
v -91.793 6.33939 0.859131 
v -91.6918 4.239 0.757966 
v -91.793 4.239 0.859131 
v -91.242 3.89036 -2.14087 
v -90.1918 3.89036 -2.14087 
v -90.1918 3.7892 -2.24203 
v -91.242 3.7892 -2.24203 
v -89.1416 3.89036 -2.14087 
v -89.1416 3.7892 -2.24203 
v -90.1918 6.68803 -2.14087 
v -91.242 6.68803 -2.14087 
v -90.1918 6.7892 -2.24203 
v -91.242 6.7892 -2.24203 
v -89.1416 6.68803 -2.14087 
v -89.1416 6.7892 -2.24203 
v -90.1918 3.68803 0.859131 
v -91.242 3.68803 0.859131 
v -90.1918 3.7892 0.757966 
v -91.242 3.7892 0.757966 
v -89.1416 3.68803 0.859131 
v -89.1416 3.7892 0.757966 
v -91.242 6.89036 0.859131 
v -90.1918 6.89036 0.859131 
v -90.1918 6.7892 0.757966 
v -91.242 6.7892 0.757966 
v -89.1416 6.89036 0.859131 
v -89.1416 6.7892 0.757966 
v -89.2849 6.83939 0.859131 
v -88.6918 7.43939 0.859131 
v -88.6918 6.83939 0.266043 
v -91.0987 6.83939 0.859131 
v -91.6918 6.83939 0.266043 
v -91.6918 7.43939 0.859131 
v -89.2849 3.739 0.859131 
v -88.6918 3.739 0.266043 
v -88.6918 3.139 0.859131 
v -91.0987 3.739 0.859131 
v -91.6918 3.139 0.859131 
v -91.6918 3.739 0.266043 
v -88.6918 6.83939 -2.73396 
v -88.793 6.33939 -2.14087 
v -89.2849 6.83939 -2.14087 
v -88.6918 6.33939 -2.24203 
v -88.0987 6.83939 0.859131 
v -88.6918 6.33939 0.757966 
v -88.5907 6.33939 0.859131 
v -91.5907 6.33939 -2.14087 
v -91.6918 6.83939 -2.73396 
v -91.0987 6.83939 -2.14087 
v -91.6918 6.33939 -2.24203 
v -91.793 6.33939 0.859131 
v -92.2849 6.83939 0.859131 
v -91.6918 6.33939 0.757966 
v -88.6918 3.739 -2.73396 
v -88.793 4.239 -2.14087 
v -88.6918 4.239 -2.24203 
v -89.2849 3.739 -2.14087 
v -88.5907 4.239 0.859131 
v -88.0987 3.739 0.859131 
v -88.6918 4.239 0.757966 
v -91.5907 4.239 -2.14087 
v -91.6918 3.739 -2.73396 
v -91.6918 4.239 -2.24203 
v -91.0987 3.739 -2.14087 
v -92.2849 3.739 0.859131 
v -91.6918 4.239 0.757966 
v -91.793 4.239 0.859131 
v -88.793 5.2892 0.859131 
v -88.793 6.33939 0.859131 
v -88.6918 5.2892 0.757966 
v -88.6918 6.33939 0.757966 
v -88.793 4.239 0.859131 
v -88.6918 4.239 0.757966 
v -91.5907 6.33939 0.859131 
v -91.6918 5.2892 0.757966 
v -91.6918 6.33939 0.757966 
v -91.5907 5.2892 0.859131 
v -91.5907 4.239 0.859131 
v -91.6918 4.239 0.757966 
v -90.1918 3.7892 0.757966 
v -91.242 3.7892 0.757966 
v -90.1918 3.89036 0.859131 
v -91.242 3.89036 0.859131 
v -89.1416 3.7892 0.757966 
v -89.1416 3.89036 0.859131 
v -91.242 6.7892 0.757966 
v -90.1918 6.7892 0.757966 
v -90.1918 6.68803 0.859131 
v -91.242 6.68803 0.859131 
v -89.1416 6.7892 0.757966 
v -89.1416 6.68803 0.859131 
v -89.2849 6.83939 0.859131 
v -88.6918 6.33939 0.757966 
v -88.793 6.33939 0.859131 
v -88.6918 6.83939 0.266043 
v -91.0987 6.83939 0.859131 
v -91.6918 6.33939 0.757966 
v -91.6918 6.83939 0.266043 
v -91.5907 6.33939 0.859131 
v -89.2849 3.739 0.859131 
v -88.6918 4.239 0.757966 
v -88.6918 3.739 0.266043 
v -88.793 4.239 0.859131 
v -91.0987 3.739 0.859131 
v -91.6918 4.239 0.757966 
v -91.5907 4.239 0.859131 
v -91.6918 3.739 0.266043 
v -88.0987 6.83939 -2.14087 
v -88.0987 6.83939 0.859131 
v -88.6918 6.83939 1.45222 
v -91.6918 6.83939 -2.73396 
v -91.6918 6.83939 1.45222 
v -88.0987 3.739 -2.14087 
v -88.6918 6.33939 -2.24203 
v -91.793 6.33939 -2.14087 
v -91.793 6.33939 0.859131 
v -88.5907 3.7892 -1.69106 
v -88.5907 3.7892 -0.640869 
v -88.6918 3.68803 -0.640869 
v -88.6918 3.68803 -1.69106 
v -88.5907 3.7892 0.409326 
v -88.6918 3.68803 0.409326 
v -91.793 3.7892 -0.640869 
v -91.793 3.7892 -1.69106 
v -91.6918 3.68803 -0.640869 
v -91.6918 3.68803 -1.69106 
v -91.793 3.7892 0.409326 
v -91.6918 3.68803 0.409326 
v -89.2849 6.83939 -2.14087 
v -88.6918 6.83939 -1.54778 
v -88.6918 6.83939 0.266043 
v -91.0987 6.83939 -2.14087 
v -91.6918 6.83939 -1.54778 
v -91.0987 6.83939 0.859131 
v -91.6918 6.83939 0.266043 
v -89.2849 3.739 -2.14087 
v -88.6918 3.739 -1.54778 
v -88.793 6.33939 0.859131 
v -88.6918 3.68803 -1.69106 
v -88.6918 3.68803 -0.640869 
v -88.793 3.7892 -0.640869 
v -88.793 3.7892 -1.69106 
v -88.6918 3.68803 0.409326 
v -88.793 3.7892 0.409326 
v -88.6918 6.68803 -0.640869 
v -88.6918 6.68803 -1.69106 
v -88.5907 6.7892 -0.640869 
v -88.5907 6.7892 -1.69106 
v -88.6918 6.68803 0.409326 
v -88.5907 6.7892 0.409326 
v -91.6918 3.68803 -0.640869 
v -91.6918 3.68803 -1.69106 
v -91.5907 3.7892 -0.640869 
v -91.5907 3.7892 -1.69106 
v -91.6918 3.68803 0.409326 
v -91.5907 3.7892 0.409326 
v -91.6918 6.68803 -1.69106 
v -91.6918 6.68803 -0.640869 
v -91.793 6.7892 -0.640869 
v -91.793 6.7892 -1.69106 
v -91.6918 6.68803 0.409326 
v -91.793 6.7892 0.409326 
v -88.6918 5.2892 -2.24203 
v -88.6918 5.2892 -2.0397 
v -88.793 5.2892 -2.14087 
v -88.5907 5.2892 -2.14087 
v -88.6918 5.2892 0.960296 
v -88.793 5.2892 0.859131 
v -88.6918 5.2892 0.757966 
v -88.5907 5.2892 0.859131 
v -91.6918 5.2892 -2.24203 
v -91.6918 5.2892 -2.0397 
v -91.793 5.2892 -2.14087 
v -91.5907 5.2892 -2.14087 
v -91.6918 5.2892 0.960296 
v -91.793 5.2892 0.859131 
v -91.6918 5.2892 0.757966 
v -91.5907 5.2892 0.859131 
v -88.793 6.7892 -0.640869 
v -88.793 6.7892 -1.69106 
v -88.6918 6.68803 -0.640869 
v -88.6918 6.68803 -1.69106 
v -88.793 6.7892 0.409326 
v -88.6918 6.68803 0.409326 
v -91.5907 6.7892 -1.69106 
v -91.5907 6.7892 -0.640869 
v -91.6918 6.68803 -0.640869 
v -91.6918 6.68803 -1.69106 
v -91.5907 6.7892 0.409326 
v -91.6918 6.68803 0.409326 
v -88.0987 6.83939 -2.14087 
v -88.6918 7.43939 -2.14087 
v -88.0987 6.83939 0.859131 
v -88.6918 7.43939 0.859131 
v -88.0987 3.739 -2.14087 
v -88.6918 3.139 -2.14087 
v -88.0987 3.739 0.859131 
v -88.6918 3.139 0.859131 
v -88.5907 4.239 -2.14087 
v -88.5907 4.239 0.859131 
v -91.6918 4.239 -2.24203 
v -91.242 3.68803 -2.14087 
v -88.6918 6.83939 -1.54778 
v -88.0987 6.83939 -2.14087 
v -88.6918 7.43939 -2.14087 
v -88.6918 6.83939 0.266043 
v -88.6918 7.43939 0.859131 
v -88.0987 6.83939 0.859131 
v -88.6918 3.739 -1.54778 
v -88.6918 3.139 -2.14087 
v -88.0987 3.739 -2.14087 
v -88.6918 3.739 0.266043 
v -88.0987 3.739 0.859131 
v -88.6918 3.139 0.859131 
v -91.6918 3.739 -1.54778 
v -90.1918 3.89036 -2.14087 
v -90.1918 3.68803 -2.14087 
v -90.1918 3.7892 -2.24203 
v -90.1918 3.7892 -2.0397 
v -90.1918 6.68803 -2.14087 
v -90.1918 6.7892 -2.24203 
v -90.1918 6.89036 -2.14087 
v -90.1918 6.7892 -2.0397 
v -90.1918 3.89036 0.859131 
v -90.1918 3.68803 0.859131 
v -90.1918 3.7892 0.757966 
v -90.1918 3.7892 0.960296 
v -90.1918 6.68803 0.859131 
v -90.1918 6.7892 0.757966 
v -90.1918 6.89036 0.859131 
v -90.1918 6.7892 0.960296 
v -88.6918 6.83939 -1.54778 
v -88.6918 6.33939 -2.0397 
v -88.0987 6.83939 -2.14087 
v -88.6918 6.83939 0.266043 
v -88.0987 6.83939 0.859131 
v -88.6918 6.33939 0.757966 
v -88.0987 3.739 -2.14087 
v -88.6918 4.239 -2.0397 
v -88.6918 3.739 -1.54778 
v -88.0987 3.739 0.859131 
v -88.6918 4.239 0.757966 
v -88.6918 3.739 0.266043 

vn 0.582677 0.574803 -0.582677 
vn 0.582677 0.574803 0.582677 
vn 0.582677 0.574803 0.582677 
vn 0.582677 0.574803 0.582677 
vn -0.582677 0.574803 -0.582677 
vn -0.582677 0.574803 0.582677 
vn -0.582677 0.574803 0.582677 
vn -0.582677 0.574803 0.582677 
vn 0.582677 -0.574803 -0.582677 
vn 0.582677 -0.574803 0.582677 
vn 0.582677 -0.574803 0.582677 
vn 0.582677 -0.574803 0.582677 
vn -0.582677 -0.574803 -0.582677 
vn -0.582677 -0.574803 0.582677 
vn -0.582677 -0.574803 0.582677 
vn -0.582677 -0.574803 0.582677 
vn 0.708661 0 0.708661 
vn 0.708661 0 0.708661 
vn 0.708661 0 0.708661 
vn 0.708661 0 0.708661 
vn 0.708661 0 0.708661 
vn 0.708661 0 0.708661 
vn -0.708661 0 0.708661 
vn -0.708661 0 0.708661 
vn -0.708661 0 0.708661 
vn -0.708661 0 0.708661 
vn -0.708661 0 0.708661 
vn -0.708661 0 0.708661 
vn 0.708661 -0.708661 0 
vn 0 -0.708661 0.708661 
vn 0 -0.708661 0.708661 
vn 0 -0.708661 0.708661 
vn 0 -0.708661 0.708661 
vn 0 -0.708661 0.708661 
vn 0 -0.708661 0.708661 
vn 0 0.708661 0.708661 
vn 0 0.708661 0.708661 
vn 0 0.708661 0.708661 
vn 0 0.708661 0.708661 
vn 0 0.708661 0.708661 
vn 0 0.708661 0.708661 
vn -0.582677 0.574803 -0.582677 
vn 0.582677 0.574803 0.582677 
vn -0.582677 0.574803 0.582677 
vn -0.582677 0.574803 0.582677 
vn -0.582677 0.574803 0.582677 
vn 0.582677 0.574803 -0.582677 
vn -0.582677 0.574803 0.582677 
vn 0.582677 0.574803 0.582677 
vn 0.582677 0.574803 0.582677 
vn 0.582677 0.574803 0.582677 
vn -0.582677 -0.574803 -0.582677 
vn 0.582677 -0.574803 0.582677 
vn -0.582677 -0.574803 0.582677 
vn -0.582677 -0.574803 0.582677 
vn -0.582677 -0.574803 0.582677 
vn 0.582677 -0.574803 -0.582677 
vn -0.582677 -0.574803 0.582677 
vn 0.582677 -0.574803 0.582677 
vn 0.582677 -0.574803 0.582677 
vn 0.582677 -0.574803 0.582677 
vn 0.582677 -0.574803 0.582677 
vn 0.582677 -0.574803 0.582677 
vn 0.582677 -0.574803 0.582677 
vn 0.582677 -0.574803 0.582677 
vn -0.582677 -0.574803 0.582677 
vn -0.582677 -0.574803 0.582677 
vn -0.582677 -0.574803 0.582677 
vn -0.582677 -0.574803 0.582677 
vn 0.582677 0.574803 0.582677 
vn 0.582677 0.574803 0.582677 
vn 0.582677 0.574803 0.582677 
vn 0.582677 0.574803 0.582677 
vn -0.582677 0.574803 0.582677 
vn -0.582677 0.574803 0.582677 
vn -0.582677 0.574803 0.582677 
vn -0.582677 0.574803 0.582677 
vn 0.708661 0 0.708661 
vn 0.708661 0 0.708661 
vn 0.708661 0 0.708661 
vn 0.708661 0 0.708661 
vn 0.708661 0 0.708661 
vn 0.708661 0 0.708661 
vn -0.708661 0 0.708661 
vn -0.708661 0 0.708661 
vn -0.708661 0 0.708661 
vn -0.708661 0 0.708661 
vn -0.708661 0 0.708661 
vn -0.708661 0 0.708661 
vn -0.708661 0 0.708661 
vn -0.708661 0 0.708661 
vn -0.708661 0 0.708661 
vn -0.708661 0 0.708661 
vn -0.708661 0 0.708661 
vn -0.708661 0 0.708661 
vn 0.708661 0 0.708661 
vn 0.708661 0 0.708661 
vn 0.708661 0 0.708661 
vn 0.708661 0 0.708661 
vn 0.708661 0 0.708661 
vn 0.708661 0 0.708661 
vn 0 -0.708661 0.708661 
vn 0 -0.708661 0.708661 
vn 0 -0.708661 0.708661 
vn 0 -0.708661 0.708661 
vn 0 -0.708661 0.708661 
vn 0 -0.708661 0.708661 
vn 0 0.708661 0.708661 
vn 0 0.708661 0.708661 
vn 0 0.708661 0.708661 
vn 0 0.708661 0.708661 
vn 0 0.708661 0.708661 
vn 0 0.708661 0.708661 
vn 0 0.708661 0.708661 
vn 0 0.708661 0.708661 
vn 0 0.708661 0.708661 
vn 0 0.708661 0.708661 
vn 0 0.708661 0.708661 
vn 0 0.708661 0.708661 
vn 0 -0.708661 0.708661 
vn 0 -0.708661 0.708661 
vn 0 -0.708661 0.708661 
vn 0 -0.708661 0.708661 
vn 0 -0.708661 0.708661 
vn 0 -0.708661 0.708661 
vn 0 0 1 
vn 0 0 1 
vn 0 0 1 
vn 0 0 1 
vn 0 0 1 
vn 0 0 1 
vn 0 0 1 
vn 0 0 1 
vn 0 0 1 
vn 0 0 1 
vn 0 0 1 
vn 0 0 1 
vn 0 0 1 
vn 0 0 1 
vn 0 0 1 
vn 0 0 1 
vn -0.582677 0.574803 0.582677 
vn -0.582677 0.574803 0.582677 
vn -0.582677 0.574803 0.582677 
vn 0.582677 0.574803 0.582677 
vn 0.582677 0.574803 0.582677 
vn 0.582677 0.574803 0.582677 
vn -0.582677 -0.574803 0.582677 
vn -0.582677 -0.574803 0.582677 
vn -0.582677 -0.574803 0.582677 
vn 0.582677 -0.574803 0.582677 
vn 0.582677 -0.574803 0.582677 
vn 0.582677 -0.574803 0.582677 
vn 0.582677 -0.574803 0.582677 
vn 0.582677 -0.574803 0.582677 
vn 0.582677 -0.574803 0.582677 
vn -0.582677 -0.574803 0.582677 
vn -0.582677 -0.574803 0.582677 
vn -0.582677 -0.574803 0.582677 
vn -0.582677 -0.574803 0.582677 
vn -0.582677 -0.574803 0.582677 
vn -0.582677 -0.574803 0.582677 
vn -0.582677 -0.574803 0.582677 
vn 0.582677 -0.574803 0.582677 
vn 0.582677 -0.574803 0.582677 
vn 0.582677 -0.574803 0.582677 
vn 0.582677 -0.574803 0.582677 
vn 0.582677 0.574803 0.582677 
vn 0.582677 0.574803 0.582677 
vn 0.582677 0.574803 0.582677 
vn -0.582677 0.574803 0.582677 
vn -0.582677 0.574803 0.582677 
vn -0.582677 0.574803 0.582677 
vn -0.582677 0.574803 0.582677 
vn -0.582677 0.574803 0.582677 
vn -0.582677 0.574803 0.582677 
vn -0.582677 0.574803 0.582677 
vn 0.582677 0.574803 0.582677 
vn 0.582677 0.574803 0.582677 
vn 0.582677 0.574803 0.582677 
vn 0.582677 0.574803 0.582677 
vn -0.708661 0 0.708661 
vn -0.708661 0 0.708661 
vn -0.708661 0 0.708661 
vn -0.708661 0 0.708661 
vn -0.708661 0 0.708661 
vn -0.708661 0 0.708661 
vn 0.708661 0 0.708661 
vn 0.708661 0 0.708661 
vn 0.708661 0 0.708661 
vn 0.708661 0 0.708661 
vn 0.708661 0 0.708661 
vn 0.708661 0 0.708661 
vn 0 0.708661 0.708661 
vn 0 0.708661 0.708661 
vn 0 0.708661 0.708661 
vn 0 0.708661 0.708661 
vn 0 0.708661 0.708661 
vn 0 0.708661 0.708661 
vn 0 -0.708661 0.708661 
vn 0 -0.708661 0.708661 
vn 0 -0.708661 0.708661 
vn 0 -0.708661 0.708661 
vn 0 -0.708661 0.708661 
vn 0 -0.708661 0.708661 
vn -0.582677 -0.574803 0.582677 
vn -0.582677 -0.574803 0.582677 
vn -0.582677 -0.574803 0.582677 
vn -0.582677 -0.574803 0.582677 
vn 0.582677 -0.574803 0.582677 
vn 0.582677 -0.574803 0.582677 
vn 0.582677 -0.574803 0.582677 
vn 0.582677 -0.574803 0.582677 
vn -0.582677 0.574803 0.582677 
vn -0.582677 0.574803 0.582677 
vn -0.582677 0.574803 0.582677 
vn -0.582677 0.574803 0.582677 
vn 0.582677 0.574803 0.582677 
vn 0.582677 0.574803 0.582677 
vn 0.582677 0.574803 0.582677 
vn 0.582677 0.574803 0.582677 
vn 0.582677 -0.574803 -0.582677 
vn 0.582677 -0.574803 0.582677 
vn -0.582677 -0.574803 -0.582677 
vn -0.582677 -0.574803 0.582677 
vn 0.708661 0 -0.708661 
vn 0.708661 0 -0.708661 
vn 0.708661 0 0.708661 
vn -0.708661 0 -0.708661 
vn -0.708661 0 0.708661 
vn 0.708661 0.708661 0 
vn 0.708661 0.708661 0 
vn 0.708661 0.708661 0 
vn 0.708661 0.708661 0 
vn 0.708661 0.708661 0 
vn 0.708661 0.708661 0 
vn -0.708661 0.708661 0 
vn -0.708661 0.708661 0 
vn -0.708661 0.708661 0 
vn -0.708661 0.708661 0 
vn -0.708661 0.708661 0 
vn -0.708661 0.708661 0 
vn -0.582677 0.574803 -0.582677 
vn 0.582677 0.574803 0.582677 
vn -0.582677 -0.574803 -0.582677 
vn 0.582677 -0.574803 0.582677 
vn -0.582677 -0.574803 0.582677 
vn 0.582677 -0.574803 -0.582677 
vn 0.582677 -0.574803 -0.582677 
vn -0.582677 -0.574803 0.582677 
vn 0.582677 -0.574803 0.582677 
vn -0.582677 -0.574803 -0.582677 
vn 0.708661 0.708661 0 
vn 0.708661 0.708661 0 
vn 0.708661 0.708661 0 
vn 0.708661 0.708661 0 
vn 0.708661 0.708661 0 
vn 0.708661 0.708661 0 
vn -0.708661 0.708661 0 
vn -0.708661 0.708661 0 
vn -0.708661 0.708661 0 
vn -0.708661 0.708661 0 
vn -0.708661 0.708661 0 
vn -0.708661 0.708661 0 
vn -0.708661 0.708661 0 
vn -0.708661 0.708661 0 
vn -0.708661 0.708661 0 
vn -0.708661 0.708661 0 
vn -0.708661 0.708661 0 
vn -0.708661 0.708661 0 
vn 0.708661 0.708661 0 
vn 0.708661 0.708661 0 
vn 0.708661 0.708661 0 
vn 0.708661 0.708661 0 
vn 0.708661 0.708661 0 
vn 0.708661 0.708661 0 
vn -0.708661 0.708661 0 
vn -0.708661 0.708661 0 
vn -0.708661 0.708661 0 
vn -0.708661 0.708661 0 
vn -0.708661 0.708661 0 
vn -0.708661 0.708661 0 
vn 0.708661 0.708661 0 
vn 0.708661 0.708661 0 
vn 0.708661 0.708661 0 
vn 0.708661 0.708661 0 
vn 0.708661 0.708661 0 
vn 0.708661 0.708661 0 
vn -0.582677 0.574803 -0.582677 
vn -0.582677 0.574803 -0.582677 
vn -0.582677 0.574803 0.582677 
vn -0.582677 0.574803 0.582677 
vn -0.582677 -0.574803 -0.582677 
vn -0.582677 -0.574803 -0.582677 
vn -0.582677 -0.574803 0.582677 
vn -0.582677 -0.574803 0.582677 
vn -0.708661 0 -0.708661 
vn -0.708661 0 -0.708661 
vn -0.708661 0 -0.708661 
vn -0.708661 0 0.708661 
vn -0.708661 0 0.708661 
vn 0 -0.708661 -0.708661 
vn -0.582677 0.574803 0.582677 
vn -0.582677 0.574803 0.582677 
vn -0.582677 0.574803 0.582677 
vn -0.582677 0.574803 -0.582677 
vn -0.582677 0.574803 -0.582677 
vn -0.582677 0.574803 -0.582677 
vn -0.582677 -0.574803 0.582677 
vn -0.582677 -0.574803 0.582677 
vn -0.582677 -0.574803 0.582677 
vn -0.582677 -0.574803 -0.582677 
vn -0.582677 -0.574803 -0.582677 
vn -0.582677 -0.574803 -0.582677 
vn -0.582677 -0.574803 0.582677 
vn -0.582677 -0.574803 0.582677 
vn -0.582677 -0.574803 0.582677 
vn -0.582677 -0.574803 -0.582677 
vn -0.582677 -0.574803 -0.582677 
vn -0.582677 -0.574803 -0.582677 
vn -0.582677 0.574803 0.582677 
vn -0.582677 0.574803 0.582677 
vn -0.582677 0.574803 0.582677 
vn -0.582677 0.574803 -0.582677 
vn -0.582677 0.574803 -0.582677 
vn -0.582677 0.574803 -0.582677 
vn 0.582677 0.574803 -0.582677 
vn 0.582677 0.574803 -0.582677 
vn 0.582677 0.574803 -0.582677 
vn 0.582677 0.574803 0.582677 
vn -0.582677 0.574803 -0.582677 
vn -0.582677 0.574803 -0.582677 
vn -0.582677 0.574803 -0.582677 
vn -0.582677 0.574803 0.582677 
vn 0.582677 -0.574803 -0.582677 
vn 0.582677 -0.574803 -0.582677 
vn 0.582677 -0.574803 -0.582677 
vn 0.582677 -0.574803 0.582677 
vn -0.582677 -0.574803 -0.582677 
vn -0.582677 -0.574803 -0.582677 
vn -0.582677 -0.574803 -0.582677 
vn -0.582677 -0.574803 0.582677 
vn 0.708661 0 -0.708661 
vn 0.708661 0 -0.708661 
vn 0.708661 0 -0.708661 
vn 0.708661 0 -0.708661 
vn 0.708661 0 -0.708661 
vn 0.708661 0 -0.708661 
vn 0.708661 0 0.708661 
vn -0.708661 0 -0.708661 
vn -0.708661 0 -0.708661 
vn -0.708661 0 -0.708661 
vn -0.708661 0 -0.708661 
vn -0.708661 0 -0.708661 
vn -0.708661 0 -0.708661 
vn 0.708661 -0.708661 0 
vn 0 -0.708661 -0.708661 
vn 0 -0.708661 -0.708661 
vn 0 -0.708661 -0.708661 
vn 0 -0.708661 -0.708661 
vn 0 -0.708661 -0.708661 
vn 0 -0.708661 -0.708661 
vn 0 0.708661 -0.708661 
vn 0 0.708661 -0.708661 
vn 0 0.708661 -0.708661 
vn 0 0.708661 -0.708661 
vn 0 0.708661 -0.708661 
vn 0 0.708661 -0.708661 
vn -0.582677 0.574803 -0.582677 
vn -0.582677 0.574803 -0.582677 
vn -0.582677 0.574803 -0.582677 
vn -0.582677 0.574803 0.582677 
vn 0.582677 0.574803 -0.582677 
vn 0.582677 0.574803 -0.582677 
vn 0.582677 0.574803 -0.582677 
vn 0.582677 0.574803 -0.582677 
vn 0.582677 0.574803 0.582677 
vn -0.582677 0.574803 -0.582677 
vn -0.582677 -0.574803 -0.582677 
vn -0.582677 -0.574803 -0.582677 
vn -0.582677 -0.574803 -0.582677 
vn -0.582677 -0.574803 0.582677 
vn 0.582677 -0.574803 -0.582677 
vn 0.582677 -0.574803 -0.582677 
vn 0.582677 -0.574803 -0.582677 
vn 0.582677 -0.574803 -0.582677 
vn 0.582677 -0.574803 0.582677 
vn -0.582677 -0.574803 -0.582677 
vn 0.582677 -0.574803 -0.582677 
vn 0.582677 -0.574803 -0.582677 
vn 0.582677 -0.574803 -0.582677 
vn 0.582677 -0.574803 -0.582677 
vn -0.582677 -0.574803 -0.582677 
vn -0.582677 -0.574803 -0.582677 
vn -0.582677 -0.574803 -0.582677 
vn -0.582677 -0.574803 -0.582677 
vn 0.582677 0.574803 -0.582677 
vn 0.582677 0.574803 -0.582677 
vn 0.582677 0.574803 -0.582677 
vn 0.582677 0.574803 -0.582677 
vn -0.582677 0.574803 -0.582677 
vn -0.582677 0.574803 -0.582677 
vn -0.582677 0.574803 -0.582677 
vn -0.582677 0.574803 -0.582677 
vn -0.708661 0 -0.708661 
vn -0.708661 0 -0.708661 
vn -0.708661 0 -0.708661 
vn -0.708661 0 -0.708661 
vn -0.708661 0 -0.708661 
vn -0.708661 0 -0.708661 
vn 0.708661 0 -0.708661 
vn 0.708661 0 -0.708661 
vn 0.708661 0 -0.708661 
vn 0.708661 0 -0.708661 
vn 0.708661 0 -0.708661 
vn 0.708661 0 -0.708661 
vn -0.708661 0 0.708661 
vn 0.708661 0 -0.708661 
vn 0.708661 0 -0.708661 
vn 0.708661 0 -0.708661 
vn 0.708661 0 -0.708661 
vn 0.708661 0 -0.708661 
vn 0.708661 0 -0.708661 
vn -0.708661 0 -0.708661 
vn -0.708661 0 -0.708661 
vn -0.708661 0 -0.708661 
vn -0.708661 0 -0.708661 
vn -0.708661 0 -0.708661 
vn -0.708661 0 -0.708661 
vn 0 0.708661 -0.708661 
vn 0 0.708661 -0.708661 
vn 0 0.708661 -0.708661 
vn 0 0.708661 -0.708661 
vn 0 0.708661 -0.708661 
vn 0 0.708661 -0.708661 
vn 0 -0.708661 -0.708661 
vn 0 -0.708661 -0.708661 
vn 0 -0.708661 -0.708661 
vn 0 -0.708661 -0.708661 
vn 0 -0.708661 -0.708661 
vn 0 -0.708661 -0.708661 
vn 0 -0.708661 -0.708661 
vn 0 -0.708661 -0.708661 
vn 0 -0.708661 -0.708661 
vn 0 -0.708661 -0.708661 
vn 0 -0.708661 -0.708661 
vn 0 -0.708661 -0.708661 
vn 0 0.708661 -0.708661 
vn 0 0.708661 -0.708661 
vn 0 0.708661 -0.708661 
vn 0 0.708661 -0.708661 
vn 0 0.708661 -0.708661 
vn 0 0.708661 -0.708661 
vn -0.582677 0.574803 -0.582677 
vn -0.582677 0.574803 -0.582677 
vn -0.582677 0.574803 -0.582677 
vn 0.582677 0.574803 -0.582677 
vn 0.582677 0.574803 -0.582677 
vn 0.582677 0.574803 -0.582677 
vn -0.582677 -0.574803 -0.582677 
vn -0.582677 -0.574803 -0.582677 
vn -0.582677 -0.574803 -0.582677 
vn 0.582677 -0.574803 -0.582677 
vn 0.582677 -0.574803 -0.582677 
vn 0.582677 -0.574803 -0.582677 
vn -0.582677 -0.574803 -0.582677 
vn -0.582677 -0.574803 -0.582677 
vn -0.582677 -0.574803 -0.582677 
vn -0.582677 -0.574803 -0.582677 
vn 0.582677 -0.574803 -0.582677 
vn 0.582677 -0.574803 -0.582677 
vn 0.582677 -0.574803 -0.582677 
vn 0.582677 -0.574803 -0.582677 
vn 0.582677 -0.574803 -0.582677 
vn 0.582677 -0.574803 -0.582677 
vn 0.582677 -0.574803 -0.582677 
vn -0.582677 -0.574803 -0.582677 
vn -0.582677 -0.574803 -0.582677 
vn -0.582677 -0.574803 -0.582677 
vn -0.582677 0.574803 -0.582677 
vn -0.582677 0.574803 -0.582677 
vn -0.582677 0.574803 -0.582677 
vn -0.582677 0.574803 -0.582677 
vn 0.582677 0.574803 -0.582677 
vn 0.582677 0.574803 -0.582677 
vn 0.582677 0.574803 -0.582677 
vn 0.582677 0.574803 -0.582677 
vn 0.582677 0.574803 -0.582677 
vn 0.582677 0.574803 -0.582677 
vn 0.582677 0.574803 -0.582677 
vn -0.582677 0.574803 -0.582677 
vn -0.582677 0.574803 -0.582677 
vn -0.582677 0.574803 -0.582677 
vn -0.708661 0 -0.708661 
vn -0.708661 0 -0.708661 
vn -0.708661 0 -0.708661 
vn -0.708661 0 -0.708661 
vn -0.708661 0 -0.708661 
vn -0.708661 0 -0.708661 
vn 0.708661 0 -0.708661 
vn 0.708661 0 -0.708661 
vn 0.708661 0 -0.708661 
vn 0.708661 0 -0.708661 
vn 0.708661 0 -0.708661 
vn 0.708661 0 -0.708661 
vn 0 0.708661 -0.708661 
vn 0 0.708661 -0.708661 
vn 0 0.708661 -0.708661 
vn 0 0.708661 -0.708661 
vn 0 0.708661 -0.708661 
vn 0 0.708661 -0.708661 
vn 0 -0.708661 -0.708661 
vn 0 -0.708661 -0.708661 
vn 0 -0.708661 -0.708661 
vn 0 -0.708661 -0.708661 
vn 0 -0.708661 -0.708661 
vn 0 -0.708661 -0.708661 
vn -0.582677 -0.574803 -0.582677 
vn -0.582677 -0.574803 -0.582677 
vn -0.582677 -0.574803 -0.582677 
vn -0.582677 -0.574803 -0.582677 
vn 0.582677 -0.574803 -0.582677 
vn 0.582677 -0.574803 -0.582677 
vn 0.582677 -0.574803 -0.582677 
vn 0.582677 -0.574803 -0.582677 
vn -0.582677 0.574803 -0.582677 
vn -0.582677 0.574803 -0.582677 
vn -0.582677 0.574803 -0.582677 
vn -0.582677 0.574803 -0.582677 
vn 0.582677 0.574803 -0.582677 
vn 0.582677 0.574803 -0.582677 
vn 0.582677 0.574803 -0.582677 
vn 0.582677 0.574803 -0.582677 
vn 0.582677 0.574803 -0.582677 
vn 0.582677 0.574803 0.582677 
vn 0.582677 0.574803 0.582677 
vn -0.582677 0.574803 -0.582677 
vn -0.582677 0.574803 0.582677 
vn 0.582677 -0.574803 -0.582677 
vn 0.708661 0 -0.708661 
vn -0.708661 0 -0.708661 
vn -0.708661 0 0.708661 
vn 0.708661 -0.708661 0 
vn 0.708661 -0.708661 0 
vn 0.708661 -0.708661 0 
vn 0.708661 -0.708661 0 
vn 0.708661 -0.708661 0 
vn 0.708661 -0.708661 0 
vn -0.708661 -0.708661 0 
vn -0.708661 -0.708661 0 
vn -0.708661 -0.708661 0 
vn -0.708661 -0.708661 0 
vn -0.708661 -0.708661 0 
vn -0.708661 -0.708661 0 
vn -0.582677 0.574803 -0.582677 
vn 0.582677 0.574803 0.582677 
vn 0.582677 0.574803 -0.582677 
vn 0.582677 0.574803 -0.582677 
vn -0.582677 0.574803 0.582677 
vn 0.582677 0.574803 0.582677 
vn -0.582677 0.574803 -0.582677 
vn -0.582677 -0.574803 -0.582677 
vn 0.582677 -0.574803 0.582677 
vn -0.708661 0 0.708661 
vn -0.708661 -0.708661 0 
vn -0.708661 -0.708661 0 
vn -0.708661 -0.708661 0 
vn -0.708661 -0.708661 0 
vn -0.708661 -0.708661 0 
vn -0.708661 -0.708661 0 
vn 0.708661 -0.708661 0 
vn 0.708661 -0.708661 0 
vn 0.708661 -0.708661 0 
vn 0.708661 -0.708661 0 
vn 0.708661 -0.708661 0 
vn 0.708661 -0.708661 0 
vn 0.708661 -0.708661 0 
vn 0.708661 -0.708661 0 
vn 0.708661 -0.708661 0 
vn 0.708661 -0.708661 0 
vn 0.708661 -0.708661 0 
vn 0.708661 -0.708661 0 
vn -0.708661 -0.708661 0 
vn -0.708661 -0.708661 0 
vn -0.708661 -0.708661 0 
vn -0.708661 -0.708661 0 
vn -0.708661 -0.708661 0 
vn -0.708661 -0.708661 0 
vn 0 -1 0 
vn 0 -1 0 
vn 0 -1 0 
vn 0 -1 0 
vn 0 -1 0 
vn 0 -1 0 
vn 0 -1 0 
vn 0 -1 0 
vn 0 -1 0 
vn 0 -1 0 
vn 0 -1 0 
vn 0 -1 0 
vn 0 -1 0 
vn 0 -1 0 
vn 0 -1 0 
vn 0 -1 0 
vn -0.708661 -0.708661 0 
vn -0.708661 -0.708661 0 
vn -0.708661 -0.708661 0 
vn -0.708661 -0.708661 0 
vn -0.708661 -0.708661 0 
vn -0.708661 -0.708661 0 
vn 0.708661 -0.708661 0 
vn 0.708661 -0.708661 0 
vn 0.708661 -0.708661 0 
vn 0.708661 -0.708661 0 
vn 0.708661 -0.708661 0 
vn 0.708661 -0.708661 0 
vn 0.582677 0.574803 -0.582677 
vn 0.582677 0.574803 -0.582677 
vn 0.582677 0.574803 0.582677 
vn 0.582677 0.574803 0.582677 
vn 0.582677 -0.574803 -0.582677 
vn 0.582677 -0.574803 -0.582677 
vn 0.582677 -0.574803 0.582677 
vn 0.582677 -0.574803 0.582677 
vn 0.708661 0 -0.708661 
vn 0.708661 0 0.708661 
vn -0.708661 0 -0.708661 
vn 0 -0.708661 -0.708661 
vn 0.582677 0.574803 0.582677 
vn 0.582677 0.574803 0.582677 
vn 0.582677 0.574803 0.582677 
vn 0.582677 0.574803 -0.582677 
vn 0.582677 0.574803 -0.582677 
vn 0.582677 0.574803 -0.582677 
vn 0.582677 -0.574803 0.582677 
vn 0.582677 -0.574803 0.582677 
vn 0.582677 -0.574803 0.582677 
vn 0.582677 -0.574803 -0.582677 
vn 0.582677 -0.574803 -0.582677 
vn 0.582677 -0.574803 -0.582677 
vn -0.582677 -0.574803 0.582677 
vn 1 0 0 
vn 1 0 0 
vn 1 0 0 
vn 1 0 0 
vn 1 0 0 
vn 1 0 0 
vn 1 0 0 
vn 1 0 0 
vn 1 0 0 
vn 1 0 0 
vn 1 0 0 
vn 1 0 0 
vn 1 0 0 
vn 1 0 0 
vn 1 0 0 
vn 1 0 0 
vn 0.582677 -0.574803 0.582677 
vn 0.582677 -0.574803 0.582677 
vn 0.582677 -0.574803 0.582677 
vn 0.582677 -0.574803 -0.582677 
vn 0.582677 -0.574803 -0.582677 
vn 0.582677 -0.574803 -0.582677 
vn 0.582677 0.574803 0.582677 
vn 0.582677 0.574803 0.582677 
vn 0.582677 0.574803 0.582677 
vn 0.582677 0.574803 -0.582677 
vn 0.582677 0.574803 -0.582677 
vn 0.582677 0.574803 -0.582677 

vt -2.58893 -4.57496 
vt -2.5148 -4.64996 
vt -2.58893 -4.57496 
vt -2.58893 -4.64996 
vt -2.96393 -4.57496 
vt -3.03807 -4.64996 
vt -2.96393 -4.64996 
vt -2.96393 -4.57496 
vt -2.58893 -5.11251 
vt -2.5148 -5.03751 
vt -2.58893 -5.03751 
vt -2.58893 -5.11251 
vt -2.96393 -5.11251 
vt -3.03807 -5.03751 
vt -2.96393 -5.11251 
vt -2.96393 -5.03751 
vt -2.58893 -4.71246 
vt -2.58893 -4.84373 
vt -2.57629 -4.71246 
vt -2.57629 -4.84373 
vt -2.57629 -4.97501 
vt -2.58893 -4.97501 
vt -2.97658 -4.71246 
vt -2.97658 -4.84373 
vt -2.96393 -4.84373 
vt -2.96393 -4.71246 
vt -2.97658 -4.97501 
vt -2.96393 -4.97501 
vt -2.58893 -5.04388 
vt -2.77643 -5.03123 
vt -2.90771 -5.03123 
vt -2.77643 -5.04388 
vt -2.90771 -5.04388 
vt -2.64516 -5.03123 
vt -2.64516 -5.04388 
vt -2.90771 -4.65623 
vt -2.77643 -4.65623 
vt -2.77643 -4.64359 
vt -2.90771 -4.64359 
vt -2.64516 -4.65623 
vt -2.64516 -4.64359 
vt -2.66307 -4.64996 
vt -2.58893 -4.64996 
vt -2.58893 -4.64996 
vt -2.58893 -4.57496 
vt -2.66307 -4.64996 
vt -2.8898 -4.64996 
vt -2.96393 -4.64996 
vt -2.96393 -4.64996 
vt -2.8898 -4.64996 
vt -2.96393 -4.57496 
vt -2.66307 -5.03751 
vt -2.58893 -5.03751 
vt -2.58893 -5.03751 
vt -2.66307 -5.03751 
vt -2.58893 -5.11251 
vt -2.8898 -5.03751 
vt -2.96393 -5.03751 
vt -2.96393 -5.03751 
vt -2.96393 -5.11251 
vt -2.8898 -5.03751 
vt -2.57629 -4.71246 
vt -2.5148 -4.64996 
vt -2.58893 -4.64996 
vt -2.58893 -4.71246 
vt -2.96393 -4.64996 
vt -2.97658 -4.71246 
vt -2.96393 -4.71246 
vt -3.03807 -4.64996 
vt -2.58893 -4.97501 
vt -2.58893 -5.03751 
vt -2.57629 -4.97501 
vt -2.5148 -5.03751 
vt -2.96393 -5.03751 
vt -2.97658 -4.97501 
vt -3.03807 -5.03751 
vt -2.96393 -4.97501 
vt -2.58893 -4.71246 
vt -2.57629 -4.84373 
vt -2.57629 -4.71246 
vt -2.58893 -4.84373 
vt -2.58893 -4.97501 
vt -2.57629 -4.97501 
vt -2.58893 -4.84373 
vt -2.58893 -4.71246 
vt -2.60158 -4.84373 
vt -2.60158 -4.71246 
vt -2.58893 -4.97501 
vt -2.60158 -4.97501 
vt -2.96393 -4.84373 
vt -2.96393 -4.71246 
vt -2.97658 -4.84373 
vt -2.97658 -4.71246 
vt -2.96393 -4.97501 
vt -2.97658 -4.97501 
vt -2.96393 -4.71246 
vt -2.95129 -4.84373 
vt -2.95129 -4.71246 
vt -2.96393 -4.84373 
vt -2.96393 -4.97501 
vt -2.95129 -4.97501 
vt -2.90771 -5.04388 
vt -2.77643 -5.04388 
vt -2.77643 -5.03123 
vt -2.90771 -5.03123 
vt -2.64516 -5.04388 
vt -2.64516 -5.03123 
vt -2.77643 -4.64359 
vt -2.90771 -4.64359 
vt -2.77643 -4.65623 
vt -2.90771 -4.65623 
vt -2.64516 -4.64359 
vt -2.64516 -4.65623 
vt -2.77643 -5.01859 
vt -2.90771 -5.01859 
vt -2.77643 -5.03123 
vt -2.90771 -5.03123 
vt -2.64516 -5.01859 
vt -2.64516 -5.03123 
vt -2.90771 -4.66888 
vt -2.77643 -4.66888 
vt -2.77643 -4.65623 
vt -2.90771 -4.65623 
vt -2.64516 -4.66888 
vt -2.64516 -4.65623 
vt -2.58893 -5.04388 
vt -2.58893 -5.01859 
vt -2.60158 -5.03123 
vt -2.57629 -5.03123 
vt -2.58893 -4.64359 
vt -2.60158 -4.65623 
vt -2.58893 -4.66888 
vt -2.57629 -4.65623 
vt -2.96393 -5.04388 
vt -2.96393 -5.01859 
vt -2.97658 -5.03123 
vt -2.95129 -5.03123 
vt -2.96393 -4.64359 
vt -2.97658 -4.65623 
vt -2.96393 -4.66888 
vt -2.95129 -4.65623 
vt -2.66307 -4.64996 
vt -2.58893 -4.64996 
vt -2.58893 -4.57496 
vt -2.8898 -4.64996 
vt -2.96393 -4.57496 
vt -2.96393 -4.64996 
vt -2.66307 -5.03751 
vt -2.58893 -5.11251 
vt -2.58893 -5.03751 
vt -2.8898 -5.03751 
vt -2.96393 -5.03751 
vt -2.96393 -5.11251 
vt -2.58893 -4.71246 
vt -2.5148 -4.64996 
vt -2.57629 -4.71246 
vt -2.58893 -4.64996 
vt -2.60158 -4.71246 
vt -2.58893 -4.71246 
vt -2.66307 -4.64996 
vt -3.03807 -4.64996 
vt -2.97658 -4.71246 
vt -2.96393 -4.71246 
vt -2.95129 -4.71246 
vt -2.96393 -4.64996 
vt -2.96393 -4.71246 
vt -2.8898 -4.64996 
vt -2.5148 -5.03751 
vt -2.57629 -4.97501 
vt -2.58893 -4.97501 
vt -2.58893 -5.03751 
vt -2.60158 -4.97501 
vt -2.66307 -5.03751 
vt -2.58893 -4.97501 
vt -2.96393 -4.97501 
vt -3.03807 -5.03751 
vt -2.97658 -4.97501 
vt -2.95129 -4.97501 
vt -2.96393 -5.03751 
vt -2.8898 -5.03751 
vt -2.96393 -4.97501 
vt -2.60158 -4.71246 
vt -2.60158 -4.84373 
vt -2.58893 -4.84373 
vt -2.58893 -4.71246 
vt -2.60158 -4.97501 
vt -2.58893 -4.97501 
vt -2.96393 -4.71246 
vt -2.96393 -4.84373 
vt -2.95129 -4.71246 
vt -2.95129 -4.84373 
vt -2.95129 -4.97501 
vt -2.96393 -4.97501 
vt -2.90771 -5.03123 
vt -2.77643 -5.03123 
vt -2.77643 -5.01859 
vt -2.90771 -5.01859 
vt -2.64516 -5.03123 
vt -2.64516 -5.01859 
vt -2.77643 -4.65623 
vt -2.90771 -4.65623 
vt -2.77643 -4.66888 
vt -2.90771 -4.66888 
vt -2.64516 -4.65623 
vt -2.64516 -4.66888 
vt -2.58893 -4.71246 
vt -2.66307 -4.64996 
vt -2.60158 -4.71246 
vt -2.58893 -4.64996 
vt -2.8898 -4.64996 
vt -2.96393 -4.71246 
vt -2.95129 -4.71246 
vt -2.96393 -4.64996 
vt -2.66307 -5.03751 
vt -2.58893 -4.97501 
vt -2.60158 -4.97501 
vt -2.58893 -5.03751 
vt -2.96393 -4.97501 
vt -2.8898 -5.03751 
vt -2.95129 -4.97501 
vt -2.96393 -5.03751 
vt -2.5148 -5.03123 
vt -3.03807 -5.03123 
vt -2.5148 -4.65623 
vt -3.03807 -4.65623 
vt -2.57629 -5.03123 
vt -2.58893 -5.04388 
vt -2.96393 -5.04388 
vt -2.58893 -4.64359 
vt -2.96393 -4.64359 
vt -2.64516 -5.04388 
vt -2.77643 -5.03123 
vt -2.77643 -5.04388 
vt -2.64516 -5.03123 
vt -2.90771 -5.04388 
vt -2.90771 -5.03123 
vt -2.77643 -4.65623 
vt -2.64516 -4.65623 
vt -2.64516 -4.64359 
vt -2.77643 -4.64359 
vt -2.90771 -4.64359 
vt -2.90771 -4.65623 
vt -2.58893 -4.9571 
vt -2.66307 -5.03123 
vt -2.58893 -4.9571 
vt -2.66307 -5.03123 
vt -2.96393 -4.9571 
vt -2.8898 -5.03123 
vt -2.58893 -4.73037 
vt -2.66307 -4.65623 
vt -2.96393 -4.73037 
vt -2.8898 -4.65623 
vt -2.77643 -5.04388 
vt -2.64516 -5.04388 
vt -2.64516 -5.03123 
vt -2.77643 -5.03123 
vt -2.90771 -5.03123 
vt -2.90771 -5.04388 
vt -2.64516 -5.03123 
vt -2.77643 -5.01859 
vt -2.77643 -5.03123 
vt -2.64516 -5.01859 
vt -2.90771 -5.03123 
vt -2.90771 -5.01859 
vt -2.64516 -4.65623 
vt -2.77643 -4.64359 
vt -2.77643 -4.65623 
vt -2.64516 -4.64359 
vt -2.90771 -4.65623 
vt -2.90771 -4.64359 
vt -2.77643 -4.66888 
vt -2.64516 -4.66888 
vt -2.64516 -4.65623 
vt -2.77643 -4.65623 
vt -2.90771 -4.65623 
vt -2.90771 -4.66888 
vt -2.77643 -5.03123 
vt -2.64516 -5.03123 
vt -2.64516 -5.01859 
vt -2.77643 -5.01859 
vt -2.90771 -5.01859 
vt -2.90771 -5.03123 
vt -2.64516 -4.66888 
vt -2.77643 -4.65623 
vt -2.77643 -4.66888 
vt -2.64516 -4.65623 
vt -2.90771 -4.66888 
vt -2.90771 -4.65623 
vt -2.96393 -4.64996 
vt -2.96393 -4.57496 
vt -2.58893 -4.64996 
vt -2.58893 -4.57496 
vt -2.96393 -5.03751 
vt -2.96393 -5.11251 
vt -2.58893 -5.03751 
vt -2.58893 -5.11251 
vt -2.96393 -4.71246 
vt -2.96393 -4.97501 
vt -2.97658 -4.97501 
vt -2.58893 -4.71246 
vt -2.58893 -4.97501 
vt -2.96393 -5.04388 
vt -2.8898 -4.64996 
vt -2.96393 -4.57496 
vt -2.96393 -4.64996 
vt -2.66307 -4.64996 
vt -2.58893 -4.64996 
vt -2.58893 -4.57496 
vt -2.8898 -5.03751 
vt -2.96393 -5.03751 
vt -2.96393 -5.11251 
vt -2.66307 -5.03751 
vt -2.58893 -5.11251 
vt -2.58893 -5.03751 
vt -2.96393 -4.64996 
vt -2.95129 -4.71246 
vt -2.8898 -4.64996 
vt -2.58893 -4.64996 
vt -2.60158 -4.71246 
vt -2.66307 -4.64996 
vt -2.8898 -5.03751 
vt -2.95129 -4.97501 
vt -2.96393 -5.03751 
vt -2.66307 -5.03751 
vt -2.58893 -5.03751 
vt -2.60158 -4.97501 
vt -3.03807 -4.64996 
vt -2.96393 -4.64996 
vt -2.96393 -4.57496 
vt -2.96393 -4.57496 
vt -2.5148 -4.64996 
vt -2.58893 -4.57496 
vt -2.58893 -4.64996 
vt -2.58893 -4.57496 
vt -3.03807 -5.03751 
vt -2.96393 -5.11251 
vt -2.96393 -5.03751 
vt -2.96393 -5.11251 
vt -2.5148 -5.03751 
vt -2.58893 -5.03751 
vt -2.58893 -5.11251 
vt -2.58893 -5.11251 
vt -2.97658 -4.71246 
vt -2.96393 -4.84373 
vt -2.96393 -4.71246 
vt -2.97658 -4.84373 
vt -2.97658 -4.97501 
vt -2.96393 -4.97501 
vt -2.97658 -4.97501 
vt -2.57629 -4.84373 
vt -2.57629 -4.71246 
vt -2.58893 -4.84373 
vt -2.58893 -4.71246 
vt -2.57629 -4.97501 
vt -2.58893 -4.97501 
vt -2.96393 -5.04388 
vt -2.64516 -5.03123 
vt -2.77643 -5.03123 
vt -2.77643 -5.04388 
vt -2.64516 -5.04388 
vt -2.90771 -5.03123 
vt -2.90771 -5.04388 
vt -2.77643 -4.65623 
vt -2.64516 -4.65623 
vt -2.77643 -4.64359 
vt -2.64516 -4.64359 
vt -2.90771 -4.65623 
vt -2.90771 -4.64359 
vt -2.96393 -4.64996 
vt -2.8898 -4.64996 
vt -2.96393 -4.57496 
vt -2.8898 -4.64996 
vt -2.96393 -4.64996 
vt -2.58893 -4.64996 
vt -2.58893 -4.57496 
vt -2.66307 -4.64996 
vt -2.66307 -4.64996 
vt -2.58893 -4.64996 
vt -2.96393 -5.03751 
vt -2.96393 -5.11251 
vt -2.8898 -5.03751 
vt -2.8898 -5.03751 
vt -2.96393 -5.03751 
vt -2.58893 -5.03751 
vt -2.66307 -5.03751 
vt -2.58893 -5.11251 
vt -2.66307 -5.03751 
vt -2.58893 -5.03751 
vt -2.96393 -4.71246 
vt -2.96393 -4.64996 
vt -2.97658 -4.71246 
vt -3.03807 -4.64996 
vt -2.58893 -4.64996 
vt -2.57629 -4.71246 
vt -2.5148 -4.64996 
vt -2.58893 -4.71246 
vt -2.97658 -4.97501 
vt -3.03807 -5.03751 
vt -2.96393 -5.03751 
vt -2.96393 -4.97501 
vt -2.58893 -5.03751 
vt -2.57629 -4.97501 
vt -2.58893 -4.97501 
vt -2.5148 -5.03751 
vt -2.96393 -4.71246 
vt -2.96393 -4.84373 
vt -2.95129 -4.84373 
vt -2.95129 -4.71246 
vt -2.96393 -4.97501 
vt -2.95129 -4.97501 
vt -2.97658 -4.71246 
vt -2.97658 -4.84373 
vt -2.96393 -4.71246 
vt -2.96393 -4.84373 
vt -2.96393 -4.97501 
vt -2.97658 -4.97501 
vt -2.95129 -4.71246 
vt -2.60158 -4.71246 
vt -2.60158 -4.84373 
vt -2.58893 -4.71246 
vt -2.58893 -4.84373 
vt -2.58893 -4.97501 
vt -2.60158 -4.97501 
vt -2.58893 -4.71246 
vt -2.58893 -4.84373 
vt -2.57629 -4.84373 
vt -2.57629 -4.71246 
vt -2.58893 -4.97501 
vt -2.57629 -4.97501 
vt -2.64516 -5.01859 
vt -2.77643 -5.01859 
vt -2.77643 -5.03123 
vt -2.64516 -5.03123 
vt -2.90771 -5.01859 
vt -2.90771 -5.03123 
vt -2.77643 -4.66888 
vt -2.64516 -4.66888 
vt -2.77643 -4.65623 
vt -2.64516 -4.65623 
vt -2.90771 -4.66888 
vt -2.90771 -4.65623 
vt -2.77643 -5.04388 
vt -2.64516 -5.04388 
vt -2.77643 -5.03123 
vt -2.64516 -5.03123 
vt -2.90771 -5.04388 
vt -2.90771 -5.03123 
vt -2.64516 -4.64359 
vt -2.77643 -4.64359 
vt -2.77643 -4.65623 
vt -2.64516 -4.65623 
vt -2.90771 -4.64359 
vt -2.90771 -4.65623 
vt -2.8898 -4.64996 
vt -2.96393 -4.57496 
vt -2.96393 -4.64996 
vt -2.66307 -4.64996 
vt -2.58893 -4.64996 
vt -2.58893 -4.57496 
vt -2.8898 -5.03751 
vt -2.96393 -5.03751 
vt -2.96393 -5.11251 
vt -2.66307 -5.03751 
vt -2.58893 -5.11251 
vt -2.58893 -5.03751 
vt -2.96393 -4.64996 
vt -2.95129 -4.71246 
vt -2.8898 -4.64996 
vt -2.96393 -4.71246 
vt -3.03807 -4.64996 
vt -2.96393 -4.71246 
vt -2.97658 -4.71246 
vt -2.60158 -4.71246 
vt -2.58893 -4.64996 
vt -2.66307 -4.64996 
vt -2.58893 -4.71246 
vt -2.57629 -4.71246 
vt -2.5148 -4.64996 
vt -2.58893 -4.71246 
vt -2.96393 -5.03751 
vt -2.95129 -4.97501 
vt -2.96393 -4.97501 
vt -2.8898 -5.03751 
vt -2.97658 -4.97501 
vt -3.03807 -5.03751 
vt -2.96393 -4.97501 
vt -2.60158 -4.97501 
vt -2.58893 -5.03751 
vt -2.58893 -4.97501 
vt -2.66307 -5.03751 
vt -2.5148 -5.03751 
vt -2.58893 -4.97501 
vt -2.57629 -4.97501 
vt -2.95129 -4.84373 
vt -2.95129 -4.71246 
vt -2.96393 -4.84373 
vt -2.96393 -4.71246 
vt -2.95129 -4.97501 
vt -2.96393 -4.97501 
vt -2.60158 -4.71246 
vt -2.58893 -4.84373 
vt -2.58893 -4.71246 
vt -2.60158 -4.84373 
vt -2.60158 -4.97501 
vt -2.58893 -4.97501 
vt -2.77643 -5.03123 
vt -2.64516 -5.03123 
vt -2.77643 -5.01859 
vt -2.64516 -5.01859 
vt -2.90771 -5.03123 
vt -2.90771 -5.01859 
vt -2.64516 -4.65623 
vt -2.77643 -4.65623 
vt -2.77643 -4.66888 
vt -2.64516 -4.66888 
vt -2.90771 -4.65623 
vt -2.90771 -4.66888 
vt -2.8898 -4.64996 
vt -2.96393 -4.71246 
vt -2.95129 -4.71246 
vt -2.96393 -4.64996 
vt -2.66307 -4.64996 
vt -2.58893 -4.71246 
vt -2.58893 -4.64996 
vt -2.60158 -4.71246 
vt -2.8898 -5.03751 
vt -2.96393 -4.97501 
vt -2.96393 -5.03751 
vt -2.95129 -4.97501 
vt -2.66307 -5.03751 
vt -2.58893 -4.97501 
vt -2.60158 -4.97501 
vt -2.58893 -5.03751 
vt -2.96393 -5.10537 
vt -2.58893 -5.10537 
vt -2.5148 -5.03123 
vt -3.03807 -4.65623 
vt -2.5148 -4.65623 
vt -2.96393 -5.10537 
vt -2.97658 -5.03123 
vt -2.96393 -4.64359 
vt -2.58893 -4.64359 
vt -2.90771 -5.04388 
vt -2.77643 -5.04388 
vt -2.77643 -5.03123 
vt -2.90771 -5.03123 
vt -2.64516 -5.04388 
vt -2.64516 -5.03123 
vt -2.77643 -4.64359 
vt -2.90771 -4.64359 
vt -2.77643 -4.65623 
vt -2.90771 -4.65623 
vt -2.64516 -4.64359 
vt -2.64516 -4.65623 
vt -2.96393 -4.9571 
vt -2.8898 -5.03123 
vt -2.66307 -5.03123 
vt -2.96393 -4.73037 
vt -2.8898 -4.65623 
vt -2.58893 -4.73037 
vt -2.66307 -4.65623 
vt -2.96393 -4.9571 
vt -2.8898 -5.03123 
vt -2.58893 -5.01859 
vt -2.90771 -5.03123 
vt -2.77643 -5.03123 
vt -2.77643 -5.01859 
vt -2.90771 -5.01859 
vt -2.64516 -5.03123 
vt -2.64516 -5.01859 
vt -2.77643 -5.03123 
vt -2.90771 -5.03123 
vt -2.77643 -5.04388 
vt -2.90771 -5.04388 
vt -2.64516 -5.03123 
vt -2.64516 -5.04388 
vt -2.77643 -4.65623 
vt -2.90771 -4.65623 
vt -2.77643 -4.66888 
vt -2.90771 -4.66888 
vt -2.64516 -4.65623 
vt -2.64516 -4.66888 
vt -2.90771 -4.65623 
vt -2.77643 -4.65623 
vt -2.77643 -4.64359 
vt -2.90771 -4.64359 
vt -2.64516 -4.65623 
vt -2.64516 -4.64359 
vt -2.97658 -5.03123 
vt -2.95129 -5.03123 
vt -2.96393 -5.01859 
vt -2.96393 -5.04388 
vt -2.57629 -5.03123 
vt -2.58893 -5.01859 
vt -2.60158 -5.03123 
vt -2.58893 -5.04388 
vt -2.97658 -4.65623 
vt -2.95129 -4.65623 
vt -2.96393 -4.64359 
vt -2.96393 -4.66888 
vt -2.57629 -4.65623 
vt -2.58893 -4.64359 
vt -2.60158 -4.65623 
vt -2.58893 -4.66888 
vt -2.77643 -5.01859 
vt -2.90771 -5.01859 
vt -2.77643 -5.03123 
vt -2.90771 -5.03123 
vt -2.64516 -5.01859 
vt -2.64516 -5.03123 
vt -2.90771 -4.66888 
vt -2.77643 -4.66888 
vt -2.77643 -4.65623 
vt -2.90771 -4.65623 
vt -2.64516 -4.66888 
vt -2.64516 -4.65623 
vt -2.58893 -4.64996 
vt -2.58893 -4.57496 
vt -2.96393 -4.64996 
vt -2.96393 -4.57496 
vt -2.58893 -5.03751 
vt -2.58893 -5.11251 
vt -2.96393 -5.03751 
vt -2.96393 -5.11251 
vt -2.58893 -4.97501 
vt -2.96393 -4.97501 
vt -2.57629 -4.97501 
vt -2.58893 -5.04388 
vt -2.66307 -4.64996 
vt -2.58893 -4.64996 
vt -2.58893 -4.57496 
vt -2.8898 -4.64996 
vt -2.96393 -4.57496 
vt -2.96393 -4.64996 
vt -2.66307 -5.03751 
vt -2.58893 -5.11251 
vt -2.58893 -5.03751 
vt -2.8898 -5.03751 
vt -2.96393 -5.03751 
vt -2.96393 -5.11251 
vt -2.66307 -5.03751 
vt -2.58893 -5.01859 
vt -2.58893 -5.04388 
vt -2.57629 -5.03123 
vt -2.60158 -5.03123 
vt -2.58893 -4.66888 
vt -2.57629 -4.65623 
vt -2.58893 -4.64359 
vt -2.60158 -4.65623 
vt -2.96393 -5.01859 
vt -2.96393 -5.04388 
vt -2.95129 -5.03123 
vt -2.97658 -5.03123 
vt -2.96393 -4.66888 
vt -2.95129 -4.65623 
vt -2.96393 -4.64359 
vt -2.97658 -4.65623 
vt -2.66307 -4.64996 
vt -2.60158 -4.71246 
vt -2.58893 -4.64996 
vt -2.8898 -4.64996 
vt -2.96393 -4.64996 
vt -2.95129 -4.71246 
vt -2.58893 -5.03751 
vt -2.60158 -4.97501 
vt -2.66307 -5.03751 
vt -2.96393 -5.03751 
vt -2.95129 -4.97501 
vt -2.8898 -5.03751 

usemtl Meshpart2Mtl

f 247/247/247 248/248/248 249/249/249 
f 251/251/251 252/252/252 253/253/253 
f 255/255/255 256/256/256 257/257/257 
f 259/259/259 260/260/260 261/261/261 
f 262/262/262 263/263/263 264/264/264 
f 264/264/264 263/263/263 265/265/265 
f 266/266/266 265/265/265 263/263/263 
f 263/263/263 267/267/267 266/266/266 
f 268/268/268 269/269/269 270/270/270 
f 270/270/270 271/271/271 268/268/268 
f 272/272/272 270/270/270 269/269/269 
f 273/273/273 270/270/270 272/272/272 
f 275/275/275 276/276/276 277/277/277 
f 277/277/277 276/276/276 278/278/278 
f 277/277/277 279/279/279 275/275/275 
f 279/279/279 277/277/277 280/280/280 
f 281/281/281 282/282/282 283/283/283 
f 283/283/283 284/284/284 281/281/281 
f 285/285/285 283/283/283 282/282/282 
f 286/286/286 283/283/283 285/285/285 
f 289/289/289 290/290/290 291/291/291 
f 294/294/294 295/295/295 296/296/296 
f 299/299/299 300/300/300 301/301/301 
f 304/304/304 305/305/305 306/306/306 
f 307/307/307 308/308/308 309/309/309 
f 307/307/307 309/309/309 310/310/310 
f 311/311/311 312/312/312 313/313/313 
f 311/311/311 314/314/314 312/312/312 
f 315/315/315 316/316/316 317/317/317 
f 318/318/318 317/317/317 316/316/316 
f 319/319/319 320/320/320 321/321/321 
f 319/319/319 322/322/322 320/320/320 
f 323/323/323 324/324/324 325/325/325 
f 324/324/324 323/323/323 326/326/326 
f 326/326/326 327/327/327 324/324/324 
f 324/324/324 327/327/327 328/328/328 
f 329/329/329 330/330/330 331/331/331 
f 331/331/331 330/330/330 332/332/332 
f 331/331/331 333/333/333 329/329/329 
f 333/333/333 331/331/331 334/334/334 
f 335/335/335 336/336/336 337/337/337 
f 337/337/337 336/336/336 338/338/338 
f 337/337/337 339/339/339 335/335/335 
f 339/339/339 337/337/337 340/340/340 
f 341/341/341 342/342/342 343/343/343 
f 342/342/342 341/341/341 344/344/344 
f 344/344/344 345/345/345 342/342/342 
f 342/342/342 345/345/345 346/346/346 
f 347/347/347 348/348/348 349/349/349 
f 349/349/349 350/350/350 347/347/347 
f 351/351/351 349/349/349 348/348/348 
f 352/352/352 349/349/349 351/351/351 
f 353/353/353 354/354/354 355/355/355 
f 355/355/355 354/354/354 356/356/356 
f 355/355/355 357/357/357 353/353/353 
f 357/357/357 355/355/355 358/358/358 
f 359/359/359 360/360/360 361/361/361 
f 361/361/361 360/360/360 362/362/362 
f 361/361/361 363/363/363 359/359/359 
f 363/363/363 361/361/361 364/364/364 
f 365/365/365 366/366/366 367/367/367 
f 367/367/367 368/368/368 365/365/365 
f 369/369/369 367/367/367 366/366/366 
f 370/370/370 367/367/367 369/369/369 
f 371/371/371 372/372/372 373/373/373 
f 372/372/372 371/371/371 374/374/374 
f 375/375/375 376/376/376 377/377/377 
f 377/377/377 378/378/378 375/375/375 
f 379/379/379 380/380/380 381/381/381 
f 380/380/380 379/379/379 382/382/382 
f 383/383/383 384/384/384 385/385/385 
f 385/385/385 386/386/386 383/383/383 
f 387/387/387 388/388/388 389/389/389 
f 390/390/390 391/391/391 392/392/392 
f 393/393/393 394/394/394 395/395/395 
f 396/396/396 397/397/397 398/398/398 
f 400/400/400 399/399/399 401/401/401 
f 402/402/402 403/403/403 404/404/404 
f 403/403/403 402/402/402 405/405/405 
f 406/406/406 407/407/407 408/408/408 
f 409/409/409 410/410/410 411/411/411 
f 410/410/410 409/409/409 412/412/412 
f 413/413/413 414/414/414 415/415/415 
f 416/416/416 417/417/417 418/418/418 
f 417/417/417 416/416/416 419/419/419 
f 421/421/421 420/420/420 422/422/422 
f 423/423/423 424/424/424 425/425/425 
f 424/424/424 423/423/423 426/426/426 
f 427/427/427 428/428/428 429/429/429 
f 429/429/429 430/430/430 427/427/427 
f 431/431/431 429/429/429 428/428/428 
f 432/432/432 429/429/429 431/431/431 
f 433/433/433 434/434/434 435/435/435 
f 435/435/435 434/434/434 436/436/436 
f 437/437/437 436/436/436 434/434/434 
f 434/434/434 438/438/438 437/437/437 
f 439/439/439 440/440/440 441/441/441 
f 441/441/441 442/442/442 439/439/439 
f 443/443/443 441/441/441 440/440/440 
f 444/444/444 441/441/441 443/443/443 
f 445/445/445 446/446/446 447/447/447 
f 447/447/447 446/446/446 448/448/448 
f 447/447/447 449/449/449 445/445/445 
f 449/449/449 447/447/447 450/450/450 
f 451/451/451 452/452/452 453/453/453 
f 452/452/452 451/451/451 454/454/454 
f 455/455/455 456/456/456 457/457/457 
f 456/456/456 455/455/455 458/458/458 
f 459/459/459 460/460/460 461/461/461 
f 460/460/460 459/459/459 462/462/462 
f 463/463/463 464/464/464 465/465/465 
f 464/464/464 463/463/463 466/466/466 
f 476/476/476 477/477/477 478/478/478 
f 477/477/477 476/476/476 479/479/479 
f 480/480/480 478/478/478 477/477/477 
f 480/480/480 477/477/477 481/481/481 
f 482/482/482 483/483/483 484/484/484 
f 482/482/482 484/484/484 485/485/485 
f 485/485/485 486/486/486 482/482/482 
f 487/487/487 482/482/482 486/486/486 
f 498/498/498 499/499/499 500/500/500 
f 498/498/498 500/500/500 501/501/501 
f 501/501/501 502/502/502 498/498/498 
f 503/503/503 498/498/498 502/502/502 
f 504/504/504 505/505/505 506/506/506 
f 505/505/505 504/504/504 507/507/507 
f 508/508/508 506/506/506 505/505/505 
f 508/508/508 505/505/505 509/509/509 
f 510/510/510 511/511/511 512/512/512 
f 511/511/511 510/510/510 513/513/513 
f 514/514/514 512/512/512 511/511/511 
f 514/514/514 511/511/511 515/515/515 
f 516/516/516 517/517/517 518/518/518 
f 516/516/516 518/518/518 519/519/519 
f 519/519/519 520/520/520 516/516/516 
f 521/521/521 516/516/516 520/520/520 
f 522/522/522 523/523/523 524/524/524 
f 522/522/522 524/524/524 525/525/525 
f 525/525/525 526/526/526 522/522/522 
f 527/527/527 522/522/522 526/526/526 
f 528/528/528 529/529/529 530/530/530 
f 529/529/529 528/528/528 531/531/531 
f 532/532/532 530/530/530 529/529/529 
f 532/532/532 529/529/529 533/533/533 
f 548/548/548 549/549/549 550/550/550 
f 551/551/551 552/552/552 553/553/553 
f 554/554/554 555/555/555 556/556/556 
f 557/557/557 558/558/558 559/559/559 
f 561/561/561 562/562/562 560/560/560 
f 564/564/564 563/563/563 565/565/565 
f 566/566/566 567/567/567 568/568/568 
f 569/569/569 570/570/570 571/571/571 
f 572/572/572 573/573/573 574/574/574 
f 576/576/576 577/577/577 578/578/578 
f 580/580/580 581/581/581 582/582/582 
f 584/584/584 585/585/585 586/586/586 
f 588/588/588 589/589/589 590/590/590 
f 589/589/589 588/588/588 591/591/591 
f 591/591/591 592/592/592 589/589/589 
f 589/589/589 592/592/592 593/593/593 
f 595/595/595 596/596/596 597/597/597 
f 597/597/597 596/596/596 598/598/598 
f 597/597/597 599/599/599 595/595/595 
f 599/599/599 597/597/597 600/600/600 
f 602/602/602 603/603/603 604/604/604 
f 604/604/604 605/605/605 602/602/602 
f 606/606/606 604/604/604 603/603/603 
f 607/607/607 604/604/604 606/606/606 
f 608/608/608 609/609/609 610/610/610 
f 610/610/610 609/609/609 611/611/611 
f 610/610/610 612/612/612 608/608/608 
f 612/612/612 610/610/610 613/613/613 
f 614/614/614 615/615/615 616/616/616 
f 619/619/619 620/620/620 621/621/621 
f 624/624/624 625/625/625 626/626/626 
f 629/629/629 630/630/630 631/631/631 
f 634/634/634 635/635/635 636/636/636 
f 637/637/637 636/636/636 635/635/635 
f 638/638/638 639/639/639 640/640/640 
f 638/638/638 641/641/641 639/639/639 
f 642/642/642 643/643/643 644/644/644 
f 642/642/642 644/644/644 645/645/645 
f 646/646/646 647/647/647 648/648/648 
f 646/646/646 649/649/649 647/647/647 
f 650/650/650 651/651/651 652/652/652 
f 652/652/652 653/653/653 650/650/650 
f 654/654/654 652/652/652 651/651/651 
f 655/655/655 652/652/652 654/654/654 
f 656/656/656 657/657/657 658/658/658 
f 658/658/658 657/657/657 659/659/659 
f 660/660/660 659/659/659 657/657/657 
f 657/657/657 661/661/661 660/660/660 
f 663/663/663 664/664/664 665/665/665 
f 665/665/665 664/664/664 666/666/666 
f 667/667/667 666/666/666 664/664/664 
f 664/664/664 668/668/668 667/667/667 
f 669/669/669 670/670/670 671/671/671 
f 671/671/671 672/672/672 669/669/669 
f 673/673/673 671/671/671 670/670/670 
f 674/674/674 671/671/671 673/673/673 
f 675/675/675 676/676/676 677/677/677 
f 677/677/677 678/678/678 675/675/675 
f 679/679/679 677/677/677 676/676/676 
f 680/680/680 677/677/677 679/679/679 
f 681/681/681 682/682/682 683/683/683 
f 683/683/683 682/682/682 684/684/684 
f 683/683/683 685/685/685 681/681/681 
f 685/685/685 683/683/683 686/686/686 
f 687/687/687 688/688/688 689/689/689 
f 689/689/689 688/688/688 690/690/690 
f 689/689/689 691/691/691 687/687/687 
f 691/691/691 689/689/689 692/692/692 
f 693/693/693 694/694/694 695/695/695 
f 695/695/695 696/696/696 693/693/693 
f 697/697/697 695/695/695 694/694/694 
f 698/698/698 695/695/695 697/697/697 
f 699/699/699 700/700/700 701/701/701 
f 702/702/702 703/703/703 704/704/704 
f 705/705/705 706/706/706 707/707/707 
f 708/708/708 709/709/709 710/710/710 
f 711/711/711 712/712/712 713/713/713 
f 712/712/712 711/711/711 714/714/714 
f 716/716/716 715/715/715 717/717/717 
f 718/718/718 719/719/719 720/720/720 
f 719/719/719 718/718/718 721/721/721 
f 722/722/722 723/723/723 724/724/724 
f 725/725/725 726/726/726 727/727/727 
f 726/726/726 725/725/725 728/728/728 
f 729/729/729 730/730/730 731/731/731 
f 732/732/732 733/733/733 734/734/734 
f 733/733/733 732/732/732 735/735/735 
f 737/737/737 736/736/736 738/738/738 
f 739/739/739 740/740/740 741/741/741 
f 741/741/741 740/740/740 742/742/742 
f 741/741/741 743/743/743 739/739/739 
f 743/743/743 741/741/741 744/744/744 
f 745/745/745 746/746/746 747/747/747 
f 746/746/746 745/745/745 748/748/748 
f 748/748/748 749/749/749 746/746/746 
f 746/746/746 749/749/749 750/750/750 
f 751/751/751 752/752/752 753/753/753 
f 753/753/753 752/752/752 754/754/754 
f 753/753/753 755/755/755 751/751/751 
f 755/755/755 753/753/753 756/756/756 
f 757/757/757 758/758/758 759/759/759 
f 759/759/759 760/760/760 757/757/757 
f 761/761/761 759/759/759 758/758/758 
f 762/762/762 759/759/759 761/761/761 
f 763/763/763 764/764/764 765/765/765 
f 764/764/764 763/763/763 766/766/766 
f 767/767/767 768/768/768 769/769/769 
f 768/768/768 767/767/767 770/770/770 
f 771/771/771 772/772/772 773/773/773 
f 772/772/772 771/771/771 774/774/774 
f 775/775/775 776/776/776 777/777/777 
f 776/776/776 775/775/775 778/778/778 
f 788/788/788 789/789/789 790/790/790 
f 788/788/788 790/790/790 791/791/791 
f 792/792/792 790/790/790 789/789/789 
f 790/790/790 792/792/792 793/793/793 
f 794/794/794 795/795/795 796/796/796 
f 797/797/797 796/796/796 795/795/795 
f 796/796/796 798/798/798 794/794/794 
f 796/796/796 799/799/799 798/798/798 
f 810/810/810 811/811/811 812/812/812 
f 810/810/810 812/812/812 813/813/813 
f 814/814/814 812/812/812 811/811/811 
f 812/812/812 814/814/814 815/815/815 
f 816/816/816 817/817/817 818/818/818 
f 819/819/819 818/818/818 817/817/817 
f 818/818/818 820/820/820 816/816/816 
f 818/818/818 821/821/821 820/820/820 
f 822/822/822 823/823/823 824/824/824 
f 825/825/825 824/824/824 823/823/823 
f 824/824/824 826/826/826 822/822/822 
f 824/824/824 827/827/827 826/826/826 
f 828/828/828 829/829/829 830/830/830 
f 828/828/828 830/830/830 831/831/831 
f 832/832/832 830/830/830 829/829/829 
f 830/830/830 832/832/832 833/833/833 
f 834/834/834 835/835/835 836/836/836 
f 835/835/835 834/834/834 837/837/837 
f 838/838/838 839/839/839 840/840/840 
f 840/840/840 841/841/841 838/838/838 
f 842/842/842 843/843/843 844/844/844 
f 843/843/843 842/842/842 845/845/845 
f 846/846/846 847/847/847 848/848/848 
f 848/848/848 849/849/849 846/846/846 
f 850/850/850 851/851/851 852/852/852 
f 853/853/853 852/852/852 851/851/851 
f 852/852/852 854/854/854 850/850/850 
f 852/852/852 855/855/855 854/854/854 
f 856/856/856 857/857/857 858/858/858 
f 856/856/856 858/858/858 859/859/859 
f 860/860/860 858/858/858 857/857/857 
f 858/858/858 860/860/860 861/861/861 
f 874/874/874 875/875/875 876/876/876 
f 877/877/877 878/878/878 879/879/879 
f 880/880/880 881/881/881 882/882/882 
f 883/883/883 884/884/884 885/885/885 
f 887/887/887 888/888/888 889/889/889 
f 888/888/888 887/887/887 890/890/890 
f 891/891/891 892/892/892 893/893/893 
f 891/891/891 893/893/893 894/894/894 
f 895/895/895 896/896/896 897/897/897 
f 896/896/896 895/895/895 898/898/898 
f 899/899/899 900/900/900 901/901/901 
f 899/899/899 901/901/901 902/902/902 
f 903/903/903 904/904/904 905/905/905 
f 906/906/906 907/907/907 908/908/908 
f 910/910/910 911/911/911 909/909/909 
f 913/913/913 912/912/912 914/914/914 

