# This file is brought to you by Roblox Corporation
# Generated by Roblox Studio

mtllib Handgun.mtl

g Meshpart1

v -390.159 4.62225 -0.555961 
v -389.828 4.62225 -0.555961 
v -390.139 4.524 -0.505198 
v -389.848 4.524 -0.505198 
v -390.133 5.402 -0.685592 
v -389.855 4.66813 -0.498011 
v -390.133 4.66813 -0.498011 
v -389.855 5.402 -0.685592 
v -390.133 5.402 -0.685592 
v -390.133 5.402 -0.10169 
v -389.855 5.402 -0.10169 
v -389.855 5.402 -0.685592 
v -389.855 4.71902 0.0836687 
v -390.133 4.71902 0.0836687 
v -390.159 4.6828 0.136031 
v -389.828 4.6828 0.136031 
v -390.133 4.66813 -0.498011 
v -389.828 4.62225 -0.555961 
v -390.159 4.62225 -0.555961 
v -389.855 4.66813 -0.498011 
v -389.828 4.62225 -0.555961 
v -389.848 4.57722 0.103101 
v -389.848 4.524 -0.505198 
v -389.828 4.6828 0.136031 
v -389.855 4.66813 -0.498011 
v -389.855 5.402 -0.10169 
v -389.855 4.71902 0.0836687 
v -389.855 5.402 -0.685592 
v -389.855 4.66813 -0.498011 
v -389.855 4.71902 0.0836687 
v -389.828 4.6828 0.136031 
v -389.828 4.62225 -0.555961 
v -390.139 4.57722 0.103101 
v -389.828 4.6828 0.136031 
v -390.159 4.6828 0.136031 
v -389.848 4.57722 0.103101 
v -389.855 4.71902 0.0836687 
v -389.855 5.402 -0.10169 
v -390.133 4.71902 0.0836687 
v -390.133 5.402 -0.10169 
v -390.139 4.57722 0.103101 
v -390.139 4.524 -0.505198 
v -389.848 4.524 -0.505198 
v -389.848 4.57722 0.103101 
v -390.159 4.62225 -0.555961 
v -390.139 4.57722 0.103101 
v -390.159 4.6828 0.136031 
v -390.139 4.524 -0.505198 
v -390.133 5.402 -0.685592 
v -390.133 4.66813 -0.498011 
v -390.133 5.402 -0.10169 
v -390.133 4.71902 0.0836687 
v -390.159 4.6828 0.136031 
v -390.133 4.66813 -0.498011 
v -390.159 4.62225 -0.555961 
v -390.133 4.71902 0.0836687 

vn 0 -0.456693 -0.889764 
vn 0 -0.456693 -0.889764 
vn 0 -0.456693 -0.889764 
vn 0 -0.456693 -0.889764 
vn 0 -0.244094 -0.968504 
vn 0 -0.244094 -0.968504 
vn 0 -0.244094 -0.968504 
vn 0 -0.244094 -0.968504 
vn 0 1 0 
vn 0 1 0 
vn 0 1 0 
vn 0 1 0 
vn 0 0.818898 0.566929 
vn 0 0.818898 0.566929 
vn 0 0.818898 0.566929 
vn 0 0.818898 0.566929 
vn 0 0.787402 -0.622047 
vn 0 0.787402 -0.622047 
vn 0 0.787402 -0.622047 
vn 0 0.787402 -0.622047 
vn 0.984252 -0.188976 0.015748 
vn 0.984252 -0.188976 0.015748 
vn 0.984252 -0.188976 0.015748 
vn 0.984252 -0.188976 0.015748 
vn 1 0 0 
vn 1 0 0 
vn 1 0 0 
vn 1 0 0 
vn 0.84252 0.543307 -0.0472441 
vn 0.84252 0.543307 -0.0472441 
vn 0.84252 0.543307 -0.0472441 
vn 0.84252 0.543307 -0.0472441 
vn 0 -0.299213 0.952756 
vn 0 -0.299213 0.952756 
vn 0 -0.299213 0.952756 
vn 0 -0.299213 0.952756 
vn 0 0.259843 0.968504 
vn 0 0.259843 0.968504 
vn 0 0.259843 0.968504 
vn 0 0.259843 0.968504 
vn 0 -1 0.0866142 
vn 0 -1 0.0866142 
vn 0 -1 0.0866142 
vn 0 -1 0.0866142 
vn -0.984252 -0.188976 0.015748 
vn -0.984252 -0.188976 0.015748 
vn -0.984252 -0.188976 0.015748 
vn -0.984252 -0.188976 0.015748 
vn -1 0 0 
vn -1 0 0 
vn -1 0 0 
vn -1 0 0 
vn -0.84252 0.543307 -0.0472441 
vn -0.84252 0.543307 -0.0472441 
vn -0.84252 0.543307 -0.0472441 
vn -0.84252 0.543307 -0.0472441 

vt 38.0207 -3.04259 
vt 37.9793 -3.04259 
vt 38.0182 -3.05487 
vt 37.9818 -3.05487 
vt 38.0174 -2.94513 
vt 37.9826 -3.03686 
vt 38.0174 -3.03686 
vt 37.9826 -2.94513 
vt 37.9487 -3.01738 
vt 38.0216 -3.01738 
vt 38.0216 -2.98262 
vt 37.9487 -2.98262 
vt 38.0448 -2.98262 
vt 38.0448 -3.01738 
vt 38.0513 -3.02067 
vt 38.0513 -2.97933 
vt 37.9721 -3.01738 
vt 37.9649 -2.97933 
vt 37.9649 -3.02067 
vt 37.9721 -2.98262 
vt 38.0351 -3.04259 
vt 37.9528 -3.04822 
vt 38.0288 -3.05487 
vt 37.9487 -3.03503 
vt 38.0279 -3.03686 
vt 37.9784 -2.94513 
vt 37.9552 -3.0305 
vt 38.0513 -2.94513 
vt 38.0279 -3.03686 
vt 37.9552 -3.0305 
vt 37.9487 -3.03503 
vt 38.0351 -3.04259 
vt 37.9818 -3.04822 
vt 38.0207 -3.03503 
vt 37.9793 -3.03503 
vt 38.0182 -3.04822 
vt 38.0174 -3.0305 
vt 38.0174 -2.94513 
vt 37.9826 -3.0305 
vt 37.9826 -2.94513 
vt 37.9528 -3.01817 
vt 38.0288 -3.01817 
vt 38.0288 -2.98183 
vt 37.9528 -2.98183 
vt 37.9649 -3.04259 
vt 38.0472 -3.04822 
vt 38.0513 -3.03503 
vt 37.9712 -3.05487 
vt 37.9487 -2.94513 
vt 37.9721 -3.03686 
vt 38.0216 -2.94513 
vt 38.0448 -3.0305 
vt 38.0513 -3.03503 
vt 37.9721 -3.03686 
vt 37.9649 -3.04259 
vt 38.0448 -3.0305 

usemtl Meshpart1Mtl

f 1/1/1 2/2/2 3/3/3 
f 3/3/3 2/2/2 4/4/4 
f 5/5/5 6/6/6 7/7/7 
f 6/6/6 5/5/5 8/8/8 
f 9/9/9 10/10/10 11/11/11 
f 9/9/9 11/11/11 12/12/12 
f 13/13/13 14/14/14 15/15/15 
f 15/15/15 16/16/16 13/13/13 
f 17/17/17 18/18/18 19/19/19 
f 18/18/18 17/17/17 20/20/20 
f 21/21/21 22/22/22 23/23/23 
f 22/22/22 21/21/21 24/24/24 
f 25/25/25 26/26/26 27/27/27 
f 26/26/26 25/25/25 28/28/28 
f 29/29/29 30/30/30 31/31/31 
f 31/31/31 32/32/32 29/29/29 
f 33/33/33 34/34/34 35/35/35 
f 34/34/34 33/33/33 36/36/36 
f 37/37/37 38/38/38 39/39/39 
f 40/40/40 39/39/39 38/38/38 
f 41/41/41 42/42/42 43/43/43 
f 41/41/41 43/43/43 44/44/44 
f 45/45/45 46/46/46 47/47/47 
f 46/46/46 45/45/45 48/48/48 
f 49/49/49 50/50/50 51/51/51 
f 50/50/50 52/52/52 51/51/51 
f 53/53/53 54/54/54 55/55/55 
f 54/54/54 53/53/53 56/56/56 

g Meshpart2

v -390.076 5.89291 -2.25663 
v -390.075 5.81114 -2.25663 
v -390.109 5.81114 -2.25663 
v -390.076 5.72938 -2.25663 
v -390.051 5.86838 -2.25663 
v -390.051 5.75391 -2.25663 
v -389.994 5.92677 -2.25663 
v -389.994 5.69551 -2.25663 
v -389.994 5.89209 -2.25663 
v -389.994 5.7302 -2.25663 
v -389.937 5.86838 -2.25663 
v -389.937 5.75391 -2.25663 
v -389.912 5.89291 -2.25663 
v -389.912 5.72938 -2.25663 
v -389.878 5.81114 -2.25663 
v -389.913 5.81114 -2.25663 
v -389.913 5.81114 -2.16991 
v -389.913 5.81114 -2.25663 
v -389.937 5.75391 -2.16991 
v -389.994 5.7302 -2.16991 
v -389.937 5.86838 -2.16991 
v -390.051 5.75391 -2.16991 
v -390.075 5.81114 -2.16991 
v -389.994 5.89209 -2.16991 
v -390.051 5.86838 -2.25663 
v -390.051 5.86838 -2.16991 
v -389.937 5.75391 -2.16991 
v -389.937 5.75391 -2.25663 
v -389.994 5.7302 -2.16991 
v -389.994 5.7302 -2.25663 
v -390.051 5.75391 -2.16991 
v -390.051 5.75391 -2.25663 
v -389.912 5.89291 -2.25663 
v -389.878 5.81114 -2.25663 
v -389.912 5.89291 -1.40353 
v -389.994 5.92677 -2.25663 
v -389.994 5.92677 -1.40353 
v -390.076 5.89291 -2.25663 
v -390.076 5.89291 -1.40353 
v -389.994 5.7302 -2.25663 
v -390.051 5.75391 -2.16991 
v -390.051 5.75391 -2.25663 
v -390.075 5.81114 -2.16991 
v -390.075 5.81114 -2.25663 
v -390.051 5.86838 -2.25663 
v -390.051 5.86838 -2.16991 
v -389.912 5.89291 -2.25663 
v -389.878 5.81114 -1.40353 
v -389.878 5.81114 -2.25663 
v -389.912 5.72938 -1.40353 
v -389.912 5.89291 -1.40353 
v -389.912 5.72938 -2.25663 
v -389.937 5.86838 -2.25663 
v -389.937 5.86838 -2.16991 
v -389.994 5.89209 -2.25663 
v -389.994 5.89209 -2.16991 
v -390.051 5.86838 -2.25663 
v -390.051 5.86838 -2.16991 
v -389.878 5.81114 -1.40353 
v -389.912 5.72938 -1.40353 
v -389.912 5.72938 -2.25663 
v -389.994 5.69551 -1.40353 
v -389.994 5.69551 -2.25663 
v -390.076 5.72938 -2.25663 
v -390.076 5.72938 -1.40353 
v -389.913 5.81114 -2.16991 
v -389.913 5.81114 -2.25663 
v -389.937 5.75391 -2.16991 
v -389.937 5.75391 -2.25663 
v -389.937 5.86838 -2.25663 
v -389.994 5.7302 -2.25663 
v -389.937 5.86838 -2.16991 
v -389.994 5.92677 -1.40353 
v -389.994 5.69551 -2.25663 
v -390.076 5.89291 -2.25663 
v -390.076 5.72938 -2.25663 
v -390.076 5.89291 -1.40353 
v -390.076 5.72938 -1.40353 
v -390.109 5.81114 -2.25663 
v -390.109 5.81114 -1.40353 

vn 0 0 -1 
vn 0 0 -1 
vn 0 0 -1 
vn 0 0 -1 
vn 0 0 -1 
vn 0 0 -1 
vn 0 0 -1 
vn 0 0 -1 
vn 0 0 -1 
vn 0 0 -1 
vn 0 0 -1 
vn 0 0 -1 
vn 0 0 -1 
vn 0 0 -1 
vn 0 0 -1 
vn 0 0 -1 
vn -0.779528 0 -0.629921 
vn -1 0 0 
vn -0.551181 0.551181 -0.629921 
vn 0 0.779528 -0.629921 
vn -0.551181 -0.551181 -0.629921 
vn 0.551181 0.551181 -0.629921 
vn 0.779528 0 -0.629921 
vn 0 -0.779528 -0.629921 
vn 0.708661 -0.708661 0 
vn 0.551181 -0.551181 -0.629921 
vn -0.551181 0.551181 -0.629921 
vn -0.708661 0.708661 0 
vn 0 0.779528 -0.629921 
vn 0 1 0 
vn 0.551181 0.551181 -0.629921 
vn 0.708661 0.708661 0 
vn 0.708661 0.708661 0 
vn 1 0 0 
vn 0.708661 0.708661 0 
vn 0 1 0 
vn 0 1 0 
vn -0.708661 0.708661 0 
vn -0.708661 0.708661 0 
vn 0 1 0 
vn 0.551181 0.551181 -0.629921 
vn 0.708661 0.708661 0 
vn 0.779528 0 -0.629921 
vn 1 0 0 
vn 0.708661 -0.708661 0 
vn 0.551181 -0.551181 -0.629921 
vn 0.708661 0.708661 0 
vn 1 0 0 
vn 1 0 0 
vn 0.708661 -0.708661 0 
vn 0.708661 0.708661 0 
vn 0.708661 -0.708661 0 
vn -0.708661 -0.708661 0 
vn -0.551181 -0.551181 -0.629921 
vn 0 -1 0 
vn 0 -0.779528 -0.629921 
vn 0.708661 -0.708661 0 
vn 0.551181 -0.551181 -0.629921 
vn 1 0 0 
vn 0.708661 -0.708661 0 
vn 0.708661 -0.708661 0 
vn 0 -1 0 
vn 0 -1 0 
vn -0.708661 -0.708661 0 
vn -0.708661 -0.708661 0 
vn -0.779528 0 -0.629921 
vn -1 0 0 
vn -0.551181 0.551181 -0.629921 
vn -0.708661 0.708661 0 
vn -0.708661 -0.708661 0 
vn 0 1 0 
vn -0.551181 -0.551181 -0.629921 
vn 0 1 0 
vn 0 -1 0 
vn -0.708661 0.708661 0 
vn -0.708661 -0.708661 0 
vn -0.708661 0.708661 0 
vn -0.708661 -0.708661 0 
vn -1 0 0 
vn -1 0 0 

vt 44.0102 -48.9898 
vt 44.0101 -49 
vt 44.0145 -49 
vt 44.0102 -49.0102 
vt 44.0072 -48.9928 
vt 44.0072 -49.0072 
vt 44 -48.9855 
vt 44 -49.0145 
vt 44 -48.9899 
vt 44 -49.0101 
vt 43.9928 -48.9928 
vt 43.9928 -49.0072 
vt 43.9898 -48.9898 
vt 43.9898 -49.0102 
vt 43.9855 -49 
vt 43.9899 -49 
vt 43.9899 -49 
vt 43.9899 -49 
vt 43.9928 -49.0072 
vt 44 -49.0101 
vt 43.9928 -48.9928 
vt 44.0072 -49.0072 
vt 44.0101 -49 
vt 44 -48.9899 
vt 44.0072 -48.9928 
vt 44.0072 -48.9928 
vt 43.9575 -48.9928 
vt 43.9467 -48.9928 
vt 43.9575 -49 
vt 43.9467 -49 
vt 43.9575 -49.0072 
vt 43.9467 -49.0072 
vt 43.9467 -48.9898 
vt 43.9467 -48.9855 
vt 44.0533 -48.9898 
vt 43.9467 -49 
vt 44.0533 -49 
vt 43.9467 -49.0102 
vt 44.0533 -49.0102 
vt 44.0533 -49.0101 
vt 44.0425 -49.0072 
vt 44.0533 -49.0072 
vt 44.0425 -49 
vt 44.0533 -49 
vt 44.0533 -48.9928 
vt 44.0425 -48.9928 
vt 44.0533 -48.9898 
vt 43.9467 -49 
vt 44.0533 -49 
vt 43.9467 -49.0102 
vt 43.9467 -48.9898 
vt 44.0533 -49.0102 
vt 44.0533 -48.9928 
vt 44.0425 -48.9928 
vt 44.0533 -49 
vt 44.0425 -49 
vt 44.0533 -49.0072 
vt 44.0425 -49.0072 
vt 43.9467 -48.9855 
vt 43.9467 -48.9898 
vt 44.0533 -48.9898 
vt 43.9467 -49 
vt 44.0533 -49 
vt 44.0533 -49.0102 
vt 43.9467 -49.0102 
vt 43.9575 -49 
vt 43.9467 -49 
vt 43.9575 -49.0072 
vt 43.9467 -49.0072 
vt 43.9467 -48.9928 
vt 43.9467 -49.0101 
vt 43.9575 -48.9928 
vt 44.0533 -48.9855 
vt 43.9467 -49.0145 
vt 43.9467 -48.9898 
vt 43.9467 -49.0102 
vt 44.0533 -48.9898 
vt 44.0533 -49.0102 
vt 43.9467 -49 
vt 44.0533 -49 

usemtl Meshpart1Mtl

f 57/57/57 58/58/58 59/59/59 
f 60/60/60 59/59/59 58/58/58 
f 58/58/58 57/57/57 61/61/61 
f 60/60/60 58/58/58 62/62/62 
f 63/63/63 61/61/61 57/57/57 
f 64/64/64 60/60/60 62/62/62 
f 61/61/61 63/63/63 65/65/65 
f 64/64/64 62/62/62 66/66/66 
f 63/63/63 67/67/67 65/65/65 
f 68/68/68 64/64/64 66/66/66 
f 63/63/63 69/69/69 67/67/67 
f 64/64/64 68/68/68 70/70/70 
f 71/71/71 67/67/67 69/69/69 
f 71/71/71 70/70/70 68/68/68 
f 67/67/67 71/71/71 72/72/72 
f 68/68/68 72/72/72 71/71/71 
f 76/76/76 73/73/73 75/75/75 
f 79/79/79 76/76/76 78/78/78 
f 73/73/73 76/76/76 79/79/79 
f 73/73/73 80/80/80 77/77/77 
f 79/79/79 80/80/80 73/73/73 
f 80/80/80 79/79/79 82/82/82 
f 84/84/84 85/85/85 83/83/83 
f 85/85/85 84/84/84 86/86/86 
f 86/86/86 87/87/87 85/85/85 
f 87/87/87 86/86/86 88/88/88 
f 92/92/92 91/91/91 89/89/89 
f 92/92/92 93/93/93 91/91/91 
f 94/94/94 93/93/93 92/92/92 
f 94/94/94 95/95/95 93/93/93 
f 97/97/97 98/98/98 99/99/99 
f 98/98/98 100/100/100 99/99/99 
f 99/99/99 100/100/100 102/102/102 
f 100/100/100 101/101/101 102/102/102 
f 103/103/103 104/104/104 105/105/105 
f 106/106/106 105/105/105 104/104/104 
f 104/104/104 103/103/103 107/107/107 
f 106/106/106 108/108/108 105/105/105 
f 111/111/111 109/109/109 110/110/110 
f 112/112/112 111/111/111 110/110/110 
f 113/113/113 111/111/111 112/112/112 
f 114/114/114 113/113/113 112/112/112 
f 118/118/118 117/117/117 116/116/116 
f 118/118/118 119/119/119 117/117/117 
f 118/118/118 120/120/120 119/119/119 
f 120/120/120 118/118/118 121/121/121 
f 122/122/122 123/123/123 124/124/124 
f 123/123/123 125/125/125 124/124/124 
f 126/126/126 123/123/123 122/122/122 
f 128/128/128 126/126/126 122/122/122 
f 135/135/135 133/133/133 131/131/131 
f 136/136/136 132/132/132 134/134/134 
f 133/133/133 135/135/135 136/136/136 
f 132/132/132 136/136/136 135/135/135 

g Meshpart3

v -390.131 5.71606 -1.34316 
v -389.898 5.94602 -1.34316 
v -389.856 5.71606 -1.34316 
v -389.856 5.91143 -1.34316 
v -390.09 5.94602 -1.34316 
v -390.131 5.91143 -1.34316 
v -389.898 5.94602 -1.34316 
v -389.898 5.94602 -0.701034 
v -389.856 5.91143 -0.701034 
v -389.856 5.91143 -1.34316 
v -390.131 5.91143 -1.34316 
v -390.131 5.91143 -0.701034 
v -390.09 5.94602 -0.701034 
v -390.09 5.94602 -1.34316 
v -390.09 5.94602 -1.34316 
v -390.09 5.94602 -0.701034 
v -389.898 5.94602 -0.701034 
v -389.898 5.94602 -1.34316 
v -389.856 5.91143 -0.701034 
v -389.856 5.91143 -1.34316 
v -389.856 5.71606 -1.34316 
v -389.856 5.71606 -0.701034 
v -390.131 5.71606 -0.701034 
v -389.898 5.94602 -0.701034 
v -390.09 5.94602 -0.701034 
v -390.131 5.91143 -0.701034 
v -389.856 5.71606 -0.701034 
v -389.856 5.91143 -0.701034 
v -390.131 5.91143 -1.34316 
v -390.131 5.71606 -0.701034 
v -390.131 5.91143 -0.701034 
v -390.131 5.71606 -1.34316 

vn 0 0 -1 
vn 0 0 -1 
vn 0 0 -1 
vn 0 0 -1 
vn 0 0 -1 
vn 0 0 -1 
vn 0.637795 0.76378 0 
vn 0.637795 0.76378 0 
vn 0.905512 0.425197 0 
vn 0.905512 0.425197 0 
vn -0.905512 0.425197 0 
vn -0.905512 0.425197 0 
vn -0.637795 0.76378 0 
vn -0.637795 0.76378 0 
vn 0 1 0 
vn 0 1 0 
vn 0 1 0 
vn 0 1 0 
vn 0.905512 0.425197 0 
vn 0.905512 0.425197 0 
vn 1 0 0 
vn 1 0 0 
vn 0 0 1 
vn 0 0 1 
vn 0 0 1 
vn 0 0 1 
vn 0 0 1 
vn 0 0 1 
vn -0.905512 0.425197 0 
vn -1 0 0 
vn -0.905512 0.425197 0 
vn -1 0 0 

vt 48.0172 -21.0144 
vt 47.988 -20.9856 
vt 47.9828 -21.0144 
vt 47.9828 -20.99 
vt 48.012 -20.9856 
vt 48.0172 -20.99 
vt 47.9599 -20.988 
vt 48.0401 -20.988 
vt 48.0401 -20.9828 
vt 47.9599 -20.9828 
vt 47.9599 -21.0172 
vt 48.0401 -21.0172 
vt 48.0401 -21.012 
vt 47.9599 -21.012 
vt 47.9599 -21.012 
vt 48.0401 -21.012 
vt 48.0401 -20.988 
vt 47.9599 -20.988 
vt 47.9599 -20.99 
vt 48.0401 -20.99 
vt 48.0401 -21.0144 
vt 47.9599 -21.0144 
vt 47.9828 -21.0144 
vt 48.012 -20.9856 
vt 47.988 -20.9856 
vt 47.9828 -20.99 
vt 48.0172 -21.0144 
vt 48.0172 -20.99 
vt 47.9599 -20.99 
vt 48.0401 -21.0144 
vt 48.0401 -20.99 
vt 47.9599 -21.0144 

usemtl Meshpart1Mtl

f 137/137/137 138/138/138 139/139/139 
f 139/139/139 138/138/138 140/140/140 
f 138/138/138 137/137/137 141/141/141 
f 141/141/141 137/137/137 142/142/142 
f 143/143/143 144/144/144 145/145/145 
f 143/143/143 145/145/145 146/146/146 
f 147/147/147 148/148/148 149/149/149 
f 147/147/147 149/149/149 150/150/150 
f 151/151/151 152/152/152 153/153/153 
f 151/151/151 153/153/153 154/154/154 
f 156/156/156 155/155/155 157/157/157 
f 158/158/158 157/157/157 155/155/155 
f 159/159/159 160/160/160 161/161/161 
f 159/159/159 161/161/161 162/162/162 
f 160/160/160 159/159/159 163/163/163 
f 160/160/160 163/163/163 164/164/164 
f 165/165/165 166/166/166 167/167/167 
f 166/166/166 165/165/165 168/168/168 

g Meshpart4

v -390.198 5.58895 -1.18015 
v -389.79 5.58895 -1.18015 
v -389.79 5.55296 -1.19505 
v -390.198 5.55296 -1.19505 
v -389.79 5.51698 -1.18015 
v -390.198 5.51698 -1.18015 
v -389.79 5.60385 -1.14416 
v -390.198 5.60385 -1.14416 
v -390.198 5.58895 -1.10818 
v -390.198 5.58895 -1.18015 
v -389.79 5.58895 -1.10818 
v -389.79 5.58895 -1.18015 
v -389.79 5.51698 -1.18015 
v -389.79 5.51698 -1.10818 
v -389.79 5.50207 -1.14416 
v -389.79 5.55296 -1.09328 
v -389.79 5.55296 -1.19505 
v -389.79 5.60385 -1.14416 
v -389.79 5.58895 -1.18015 
v -389.79 5.58895 -1.10818 
v -390.198 5.58895 -1.10818 
v -389.79 5.58895 -1.10818 
v -390.198 5.55296 -1.09328 
v -389.79 5.55296 -1.09328 
v -390.198 5.51698 -1.10818 
v -389.79 5.51698 -1.10818 
v -390.198 5.51698 -1.10818 
v -389.79 5.51698 -1.18015 
v -389.79 5.51698 -1.10818 
v -390.198 5.51698 -1.18015 
v -390.198 5.50207 -1.14416 
v -389.79 5.50207 -1.14416 
v -390.198 5.50207 -1.14416 
v -390.198 5.51698 -1.10818 
v -390.198 5.51698 -1.18015 
v -390.198 5.55296 -1.09328 
v -390.198 5.58895 -1.18015 
v -390.198 5.55296 -1.19505 
v -390.198 5.60385 -1.14416 
v -390.198 5.58895 -1.10818 

vn 0 0.708661 -0.708661 
vn 0 0.708661 -0.708661 
vn 0 0 -1 
vn 0 0 -1 
vn 0 -0.708661 -0.708661 
vn 0 -0.708661 -0.708661 
vn 0 1 0 
vn 0 1 0 
vn 0 0.708661 0.708661 
vn 0 0.708661 -0.708661 
vn 0 0.708661 0.708661 
vn 0 0.708661 -0.708661 
vn 1 0 0 
vn 1 0 0 
vn 1 0 0 
vn 1 0 0 
vn 1 0 0 
vn 1 0 0 
vn 1 0 0 
vn 1 0 0 
vn 0 0.708661 0.708661 
vn 0 0.708661 0.708661 
vn 0 0 1 
vn 0 0 1 
vn 0 -0.708661 0.708661 
vn 0 -0.708661 0.708661 
vn 0 -0.708661 0.708661 
vn 0 -0.708661 -0.708661 
vn 0 -0.708661 0.708661 
vn 0 -0.708661 -0.708661 
vn 0 -1 0 
vn 0 -1 0 
vn -1 0 0 
vn -1 0 0 
vn -1 0 0 
vn -1 0 0 
vn -1 0 0 
vn -1 0 0 
vn -1 0 0 
vn -1 0 0 

vt 22.0255 -24.9955 
vt 21.9745 -24.9955 
vt 21.9745 -25 
vt 22.0255 -25 
vt 21.9745 -25.0045 
vt 22.0255 -25.0045 
vt 22 -24.9745 
vt 22 -25.0255 
vt 22.0045 -25.0255 
vt 21.9955 -25.0255 
vt 22.0045 -24.9745 
vt 21.9955 -24.9745 
vt 22.0045 -25.0045 
vt 21.9955 -25.0045 
vt 22 -25.0064 
vt 21.9936 -25 
vt 22.0064 -25 
vt 22 -24.9936 
vt 22.0045 -24.9955 
vt 21.9955 -24.9955 
vt 21.9745 -24.9955 
vt 22.0255 -24.9955 
vt 21.9745 -25 
vt 22.0255 -25 
vt 21.9745 -25.0045 
vt 22.0255 -25.0045 
vt 21.9955 -25.0255 
vt 22.0045 -24.9745 
vt 21.9955 -24.9745 
vt 22.0045 -25.0255 
vt 22 -25.0255 
vt 22 -24.9745 
vt 22 -25.0064 
vt 22.0045 -25.0045 
vt 21.9955 -25.0045 
vt 22.0064 -25 
vt 21.9955 -24.9955 
vt 21.9936 -25 
vt 22 -24.9936 
vt 22.0045 -24.9955 

usemtl Meshpart4Mtl

f 169/169/169 170/170/170 171/171/171 
f 171/171/171 172/172/172 169/169/169 
f 172/172/172 171/171/171 173/173/173 
f 173/173/173 174/174/174 172/172/172 
f 175/175/175 176/176/176 177/177/177 
f 175/175/175 178/178/178 176/176/176 
f 177/177/177 179/179/179 175/175/175 
f 178/178/178 175/175/175 180/180/180 
f 181/181/181 182/182/182 183/183/183 
f 181/181/181 184/184/184 182/182/182 
f 185/185/185 184/184/184 181/181/181 
f 184/184/184 185/185/185 186/186/186 
f 186/186/186 185/185/185 187/187/187 
f 184/184/184 186/186/186 188/188/188 
f 190/190/190 189/189/189 191/191/191 
f 191/191/191 192/192/192 190/190/190 
f 192/192/192 191/191/191 193/193/193 
f 193/193/193 194/194/194 192/192/192 
f 197/197/197 195/195/195 199/199/199 
f 198/198/198 196/196/196 200/200/200 
f 199/199/199 200/200/200 197/197/197 
f 200/200/200 199/199/199 198/198/198 
f 201/201/201 202/202/202 203/203/203 
f 204/204/204 203/203/203 202/202/202 
f 204/204/204 205/205/205 203/203/203 
f 203/203/203 205/205/205 206/206/206 
f 205/205/205 204/204/204 207/207/207 
f 207/207/207 204/204/204 208/208/208 

g Meshpart5

v -390.179 5.65453 -2.16961 
v -389.808 5.65453 -2.16961 
v -390.179 5.58189 -2.16961 
v -389.808 5.58189 -2.16961 
v -390.179 5.50924 -2.16961 
v -389.808 5.50924 -2.16961 
v -390.179 4.66282 -0.5639 
v -390.179 4.90087 -0.588565 
v -389.808 4.66282 -0.5639 
v -389.808 4.90087 -0.588565 
v -390.179 5.03453 -0.640655 
v -389.808 5.03453 -0.640655 
v -390.179 5.16195 -0.702314 
v -389.808 5.16195 -0.702314 
v -390.179 5.29205 -0.754677 
v -389.808 5.29205 -0.754677 
v -390.179 5.36261 -0.765874 
v -389.808 5.36261 -0.765874 
v -390.179 5.43316 -0.762765 
v -389.808 5.43316 -0.762765 
v -389.808 5.65453 0.0249453 
v -390.179 5.65453 -0.724132 
v -390.179 5.65453 0.0249453 
v -389.808 5.65453 -0.724132 
v -390.179 5.65453 -2.16961 
v -389.808 5.65453 -2.16961 
v -390.179 4.66282 -0.5639 
v -389.808 4.72364 0.131284 
v -390.179 5.50924 4.82798e-05 
v -389.808 5.65453 -0.724132 
v -389.808 5.58189 0.014963 
v -389.808 5.58189 -0.732796 
v -389.808 5.65453 0.0249453 
v -389.808 5.65453 -2.16961 
v -389.808 5.50924 4.82798e-05 
v -389.808 5.58189 -2.16961 
v -389.808 5.50924 -0.747067 
v -389.808 5.50924 -2.16961 
v -389.808 5.43263 -2.06758 
v -389.808 5.43315 -0.0664375 
v -389.808 5.43316 -0.762765 
v -389.808 5.36797 -0.0666586 
v -389.808 5.36261 -0.765874 
v -389.808 5.29205 -0.754677 
v -389.808 5.3028 -0.0525736 
v -389.808 5.16195 -0.702314 
v -389.808 5.18227 -0.00257492 
v -389.808 5.03453 -0.640655 
v -389.808 5.06491 0.0534781 
v -389.808 4.90087 -0.588565 
v -389.808 4.94382 0.10333 
v -389.808 4.66282 -0.5639 
v -389.808 4.72364 0.131284 
v -390.179 5.58189 0.014963 
v -389.808 5.58189 0.014963 
v -390.179 5.65453 0.0249453 
v -389.808 5.65453 0.0249453 
v -389.808 5.50924 4.82798e-05 
v -390.179 5.50924 4.82798e-05 
v -389.808 5.43315 -0.0664375 
v -390.179 5.43315 -0.0664375 
v -390.179 5.36797 -0.0666586 
v -389.808 5.36797 -0.0666586 
v -390.179 5.3028 -0.0525736 
v -389.808 5.3028 -0.0525736 
v -390.179 5.18227 -0.00257492 
v -389.808 5.18227 -0.00257492 
v -390.179 5.06491 0.0534781 
v -389.808 5.06491 0.0534781 
v -390.179 4.94382 0.10333 
v -389.808 4.94382 0.10333 
v -390.179 4.72364 0.131284 
v -389.808 4.72364 0.131284 
v -390.179 5.50924 -2.16961 
v -389.808 5.43263 -2.06758 
v -390.179 5.43263 -2.06758 
v -389.808 5.50924 -2.16961 
v -390.179 4.66282 -0.5639 
v -389.808 4.72364 0.131284 
v -390.179 4.72364 0.131284 
v -389.808 4.66282 -0.5639 
v -390.179 5.43263 -2.06758 
v -389.808 5.43316 -0.762765 
v -390.179 5.43316 -0.762765 
v -389.808 5.43263 -2.06758 
v -390.179 4.66282 -0.5639 
v -389.808 4.72364 0.131284 
v -390.179 5.50924 4.82798e-05 
v -390.179 5.65453 -2.16961 
v -390.179 5.58189 -0.732796 
v -390.179 5.65453 -0.724132 
v -390.179 5.58189 -2.16961 
v -390.179 5.58189 0.014963 
v -390.179 5.65453 0.0249453 
v -390.179 5.50924 4.82798e-05 
v -390.179 5.50924 -0.747067 
v -390.179 5.50924 -2.16961 
v -390.179 5.43263 -2.06758 
v -390.179 5.43315 -0.0664375 
v -390.179 5.43316 -0.762765 
v -390.179 5.36797 -0.0666586 
v -390.179 5.36261 -0.765874 
v -390.179 5.29205 -0.754677 
v -390.179 5.3028 -0.0525736 
v -390.179 5.16195 -0.702314 
v -390.179 5.18227 -0.00257492 
v -390.179 5.03453 -0.640655 
v -390.179 5.06491 0.0534781 
v -390.179 4.90087 -0.588565 
v -390.179 4.94382 0.10333 
v -390.179 4.66282 -0.5639 
v -390.179 4.72364 0.131284 

vn 0 0 -1 
vn 0 0 -1 
vn 0 0 -1 
vn 0 0 -1 
vn 0 0 -1 
vn 0 0 -1 
vn 0 -0.102362 -0.992126 
vn 0 -0.23622 -0.968504 
vn 0 -0.102362 -0.992126 
vn 0 -0.23622 -0.968504 
vn 0 -0.401575 -0.913386 
vn 0 -0.401575 -0.913386 
vn 0 -0.401575 -0.913386 
vn 0 -0.401575 -0.913386 
vn 0 -0.267717 -0.96063 
vn 0 -0.267717 -0.96063 
vn 0 -0.0551181 -1 
vn 0 -0.0551181 -1 
vn 0 0.0472441 -1 
vn 0 0.0472441 -1 
vn 0 1 0 
vn 0 1 0 
vn 0 1 0 
vn 0 1 0 
vn 0 1 0 
vn 0 1 0 
vn 0 -1 0.0866142 
vn 0 -1 0.0866142 
vn 0 -0.440945 0.897638 
vn 1 0 0 
vn 1 0 0 
vn 1 0 0 
vn 1 0 0 
vn 1 0 0 
vn 1 0 0 
vn 1 0 0 
vn 1 0 0 
vn 1 0 0 
vn 1 0 0 
vn 1 0 0 
vn 1 0 0 
vn 1 0 0 
vn 1 0 0 
vn 1 0 0 
vn 1 0 0 
vn 1 0 0 
vn 1 0 0 
vn 1 0 0 
vn 1 0 0 
vn 1 0 0 
vn 1 0 0 
vn 1 0 0 
vn 1 0 0 
vn 0 -0.165354 0.984252 
vn 0 -0.165354 0.984252 
vn 0 -0.133858 0.992126 
vn 0 -0.133858 0.992126 
vn 0 -0.440945 0.897638 
vn 0 -0.440945 0.897638 
vn 0 -0.354331 0.937008 
vn 0 -0.354331 0.937008 
vn 0 0.102362 0.992126 
vn 0 0.102362 0.992126 
vn 0 0.299213 0.952756 
vn 0 0.299213 0.952756 
vn 0 0.409449 0.913386 
vn 0 0.409449 0.913386 
vn 0 0.409449 0.913386 
vn 0 0.409449 0.913386 
vn 0 0.251969 0.968504 
vn 0 0.251969 0.968504 
vn 0 0.125984 0.992126 
vn 0 0.125984 0.992126 
vn 0 -0.80315 -0.598425 
vn 0 -0.80315 -0.598425 
vn 0 -0.80315 -0.598425 
vn 0 -0.80315 -0.598425 
vn 0 -1 0.0866142 
vn 0 -1 0.0866142 
vn 0 -1 0.0866142 
vn 0 -1 0.0866142 
vn 0 -1 0 
vn 0 -1 0 
vn 0 -1 0 
vn 0 -1 0 
vn 0 -1 0.0866142 
vn 0 -1 0.0866142 
vn 0 -0.440945 0.897638 
vn -1 0 0 
vn -1 0 0 
vn -1 0 0 
vn -1 0 0 
vn -1 0 0 
vn -1 0 0 
vn -1 0 0 
vn -1 0 0 
vn -1 0 0 
vn -1 0 0 
vn -1 0 0 
vn -1 0 0 
vn -1 0 0 
vn -1 0 0 
vn -1 0 0 
vn -1 0 0 
vn -1 0 0 
vn -1 0 0 
vn -1 0 0 
vn -1 0 0 
vn -1 0 0 
vn -1 0 0 
vn -1 0 0 
vn -1 0 0 

vt 6.02317 -4.93802 
vt 5.97683 -4.93802 
vt 6.02317 -4.9471 
vt 5.97683 -4.9471 
vt 6.02317 -4.95618 
vt 5.97683 -4.95618 
vt 6.02317 -5.06198 
vt 6.02317 -5.03223 
vt 5.97683 -5.06198 
vt 5.97683 -5.03223 
vt 6.02317 -5.01552 
vt 5.97683 -5.01552 
vt 6.02317 -4.99959 
vt 5.97683 -4.99959 
vt 6.02317 -4.98333 
vt 5.97683 -4.98333 
vt 6.02317 -4.97451 
vt 5.97683 -4.97451 
vt 6.02317 -4.96569 
vt 5.97683 -4.96569 
vt 6.13051 -4.97683 
vt 6.03688 -5.02317 
vt 6.13051 -5.02317 
vt 6.03688 -4.97683 
vt 5.85619 -5.02317 
vt 5.85619 -4.97683 
vt 5.94309 -5.06198 
vt 5.85619 -5.05438 
vt 5.8726 -4.95618 
vt 5.96312 -4.93802 
vt 5.87073 -4.9471 
vt 5.9642 -4.9471 
vt 5.86949 -4.93802 
vt 6.14381 -4.93802 
vt 5.8726 -4.95618 
vt 6.14381 -4.9471 
vt 5.96599 -4.95618 
vt 6.14381 -4.95618 
vt 6.13105 -4.96576 
vt 5.88091 -4.96569 
vt 5.96795 -4.96569 
vt 5.88094 -4.97384 
vt 5.96834 -4.97451 
vt 5.96694 -4.98333 
vt 5.87918 -4.98199 
vt 5.96039 -4.99959 
vt 5.87293 -4.99705 
vt 5.95269 -5.01552 
vt 5.86592 -5.01172 
vt 5.94618 -5.03223 
vt 5.85969 -5.02686 
vt 5.94309 -5.06198 
vt 5.85619 -5.05438 
vt 5.97683 -4.9471 
vt 6.02317 -4.9471 
vt 5.97683 -4.93802 
vt 6.02317 -4.93802 
vt 6.02317 -4.95618 
vt 5.97683 -4.95618 
vt 6.02317 -4.96569 
vt 5.97683 -4.96569 
vt 5.97683 -4.97384 
vt 6.02317 -4.97384 
vt 5.97683 -4.98199 
vt 6.02317 -4.98199 
vt 5.97683 -4.99705 
vt 6.02317 -4.99705 
vt 5.97683 -5.01172 
vt 6.02317 -5.01172 
vt 5.97683 -5.02686 
vt 6.02317 -5.02686 
vt 5.97683 -5.05438 
vt 6.02317 -5.05438 
vt 6.14381 -5.02317 
vt 6.13105 -4.97683 
vt 6.13105 -5.02317 
vt 6.14381 -4.97683 
vt 5.94309 -5.02317 
vt 5.85619 -4.97683 
vt 5.85619 -5.02317 
vt 5.94309 -4.97683 
vt 6.13105 -5.02317 
vt 5.96795 -4.97683 
vt 5.96795 -5.02317 
vt 6.13105 -4.97683 
vt 6.05691 -5.06198 
vt 6.14381 -5.05438 
vt 6.1274 -4.95618 
vt 5.85619 -4.93802 
vt 6.0358 -4.9471 
vt 6.03688 -4.93802 
vt 5.85619 -4.9471 
vt 6.12927 -4.9471 
vt 6.13051 -4.93802 
vt 6.1274 -4.95618 
vt 6.03401 -4.95618 
vt 5.85619 -4.95618 
vt 5.86895 -4.96576 
vt 6.11909 -4.96569 
vt 6.03205 -4.96569 
vt 6.11906 -4.97384 
vt 6.03166 -4.97451 
vt 6.03306 -4.98333 
vt 6.12082 -4.98199 
vt 6.03961 -4.99959 
vt 6.12707 -4.99705 
vt 6.04731 -5.01552 
vt 6.13408 -5.01172 
vt 6.05382 -5.03223 
vt 6.14031 -5.02686 
vt 6.05691 -5.06198 
vt 6.14381 -5.05438 

usemtl Meshpart5Mtl

f 209/209/209 210/210/210 211/211/211 
f 211/211/211 210/210/210 212/212/212 
f 211/211/211 212/212/212 213/213/213 
f 213/213/213 212/212/212 214/214/214 
f 215/215/215 216/216/216 217/217/217 
f 216/216/216 218/218/218 217/217/217 
f 218/218/218 216/216/216 219/219/219 
f 219/219/219 220/220/220 218/218/218 
f 220/220/220 219/219/219 221/221/221 
f 221/221/221 222/222/222 220/220/220 
f 222/222/222 221/221/221 223/223/223 
f 223/223/223 224/224/224 222/222/222 
f 224/224/224 223/223/223 225/225/225 
f 225/225/225 226/226/226 224/224/224 
f 226/226/226 225/225/225 227/227/227 
f 227/227/227 228/228/228 226/226/226 
f 229/229/229 230/230/230 231/231/231 
f 230/230/230 229/229/229 232/232/232 
f 233/233/233 230/230/230 232/232/232 
f 233/233/233 232/232/232 234/234/234 
f 238/238/238 239/239/239 240/240/240 
f 239/239/239 238/238/238 241/241/241 
f 240/240/240 242/242/242 238/238/238 
f 243/243/243 240/240/240 239/239/239 
f 242/242/242 240/240/240 244/244/244 
f 240/240/240 243/243/243 245/245/245 
f 245/245/245 244/244/244 240/240/240 
f 244/244/244 245/245/245 246/246/246 
f 246/246/246 245/245/245 247/247/247 
f 248/248/248 245/245/245 243/243/243 
f 249/249/249 247/247/247 245/245/245 
f 245/245/245 248/248/248 249/249/249 
f 250/250/250 249/249/249 248/248/248 
f 250/250/250 251/251/251 249/249/249 
f 250/250/250 252/252/252 251/251/251 
f 252/252/252 250/250/250 253/253/253 
f 253/253/253 254/254/254 252/252/252 
f 254/254/254 253/253/253 255/255/255 
f 255/255/255 256/256/256 254/254/254 
f 256/256/256 255/255/255 257/257/257 
f 257/257/257 258/258/258 256/256/256 
f 258/258/258 257/257/257 259/259/259 
f 259/259/259 260/260/260 258/258/258 
f 260/260/260 259/259/259 261/261/261 
f 262/262/262 263/263/263 264/264/264 
f 264/264/264 263/263/263 265/265/265 
f 262/262/262 266/266/266 263/263/263 
f 267/267/267 266/266/266 262/262/262 
f 267/267/267 268/268/268 266/266/266 
f 269/269/269 268/268/268 267/267/267 
f 270/270/270 268/268/268 269/269/269 
f 268/268/268 270/270/270 271/271/271 
f 272/272/272 271/271/271 270/270/270 
f 271/271/271 272/272/272 273/273/273 
f 274/274/274 273/273/273 272/272/272 
f 273/273/273 274/274/274 275/275/275 
f 276/276/276 275/275/275 274/274/274 
f 275/275/275 276/276/276 277/277/277 
f 278/278/278 277/277/277 276/276/276 
f 277/277/277 278/278/278 279/279/279 
f 280/280/280 279/279/279 278/278/278 
f 279/279/279 280/280/280 281/281/281 
f 282/282/282 283/283/283 284/284/284 
f 283/283/283 282/282/282 285/285/285 
f 286/286/286 287/287/287 288/288/288 
f 287/287/287 286/286/286 289/289/289 
f 290/290/290 291/291/291 292/292/292 
f 291/291/291 290/290/290 293/293/293 
f 297/297/297 298/298/298 299/299/299 
f 298/298/298 297/297/297 300/300/300 
f 301/301/301 299/299/299 298/298/298 
f 299/299/299 301/301/301 302/302/302 
f 298/298/298 303/303/303 301/301/301 
f 300/300/300 304/304/304 298/298/298 
f 303/303/303 298/298/298 304/304/304 
f 304/304/304 300/300/300 305/305/305 
f 306/306/306 304/304/304 305/305/305 
f 303/303/303 304/304/304 307/307/307 
f 304/304/304 306/306/306 308/308/308 
f 307/307/307 304/304/304 308/308/308 
f 308/308/308 309/309/309 307/307/307 
f 309/309/309 308/308/308 310/310/310 
f 311/311/311 309/309/309 310/310/310 
f 309/309/309 311/311/311 312/312/312 
f 312/312/312 311/311/311 313/313/313 
f 312/312/312 313/313/313 314/314/314 
f 315/315/315 314/314/314 313/313/313 
f 314/314/314 315/315/315 316/316/316 
f 317/317/317 316/316/316 315/315/315 
f 316/316/316 317/317/317 318/318/318 
f 319/319/319 318/318/318 317/317/317 
f 318/318/318 319/319/319 320/320/320 

g Meshpart6

v -390.186 5.6298 -1.23135 
v -389.801 5.6298 -1.23135 
v -390.186 5.55321 -1.27065 
v -389.801 5.55321 -1.27065 
v -390.186 5.55321 -1.27065 
v -389.801 5.55321 -1.27065 
v -390.186 5.47661 -1.23135 
v -389.801 5.47661 -1.23135 
v -389.801 5.6298 -0.100686 
v -390.186 5.6298 -1.23135 
v -390.186 5.6298 -0.100686 
v -389.801 5.6298 -1.23135 
v -389.801 5.47661 -0.100686 
v -389.801 5.6298 -1.23135 
v -389.801 5.6298 -0.100686 
v -389.801 5.55321 -0.0613767 
v -389.801 5.47661 -1.23135 
v -389.801 5.55321 -1.27065 
v -390.186 5.55321 -0.0613767 
v -389.801 5.55321 -0.0613767 
v -390.186 5.6298 -0.100686 
v -389.801 5.6298 -0.100686 
v -390.186 5.47661 -0.100686 
v -389.801 5.47661 -0.100686 
v -390.186 5.55321 -0.0613767 
v -389.801 5.55321 -0.0613767 
v -390.186 5.47661 -0.100686 
v -390.186 5.47661 -1.23135 
v -389.801 5.47661 -1.23135 
v -389.801 5.47661 -0.100686 
v -390.186 5.6298 -0.100686 
v -390.186 5.47661 -0.100686 
v -390.186 5.55321 -0.0613767 
v -390.186 5.47661 -1.23135 
v -390.186 5.6298 -1.23135 
v -390.186 5.55321 -1.27065 

vn 0 0.456693 -0.889764 
vn 0 0.456693 -0.889764 
vn 0 0.456693 -0.889764 
vn 0 0.456693 -0.889764 
vn 0 -0.456693 -0.889764 
vn 0 -0.456693 -0.889764 
vn 0 -0.456693 -0.889764 
vn 0 -0.456693 -0.889764 
vn 0 1 0 
vn 0 1 0 
vn 0 1 0 
vn 0 1 0 
vn 1 0 0 
vn 1 0 0 
vn 1 0 0 
vn 1 0 0 
vn 1 0 0 
vn 1 0 0 
vn 0 0.456693 0.889764 
vn 0 0.456693 0.889764 
vn 0 0.456693 0.889764 
vn 0 0.456693 0.889764 
vn 0 -0.456693 0.889764 
vn 0 -0.456693 0.889764 
vn 0 -0.456693 0.889764 
vn 0 -0.456693 0.889764 
vn 0 -1 0 
vn 0 -1 0 
vn 0 -1 0 
vn 0 -1 0 
vn -1 0 0 
vn -1 0 0 
vn -1 0 0 
vn -1 0 0 
vn -1 0 0 
vn -1 0 0 

vt 32.0241 -30.9904 
vt 31.9759 -30.9904 
vt 32.0241 -31 
vt 31.9759 -31 
vt 32.0241 -31 
vt 31.9759 -31 
vt 32.0241 -31.0096 
vt 31.9759 -31.0096 
vt 32.0707 -30.9759 
vt 31.9293 -31.0241 
vt 32.0707 -31.0241 
vt 31.9293 -30.9759 
vt 31.9293 -31.0096 
vt 32.0707 -30.9904 
vt 31.9293 -30.9904 
vt 31.9244 -31 
vt 32.0707 -31.0096 
vt 32.0756 -31 
vt 31.9759 -31 
vt 32.0241 -31 
vt 31.9759 -30.9904 
vt 32.0241 -30.9904 
vt 31.9759 -31.0096 
vt 32.0241 -31.0096 
vt 31.9759 -31 
vt 32.0241 -31 
vt 31.9293 -31.0241 
vt 32.0707 -31.0241 
vt 32.0707 -30.9759 
vt 31.9293 -30.9759 
vt 32.0707 -30.9904 
vt 32.0707 -31.0096 
vt 32.0756 -31 
vt 31.9293 -31.0096 
vt 31.9293 -30.9904 
vt 31.9244 -31 

usemtl Meshpart1Mtl

f 321/321/321 322/322/322 323/323/323 
f 323/323/323 322/322/322 324/324/324 
f 325/325/325 326/326/326 327/327/327 
f 327/327/327 326/326/326 328/328/328 
f 329/329/329 330/330/330 331/331/331 
f 330/330/330 329/329/329 332/332/332 
f 333/333/333 334/334/334 335/335/335 
f 333/333/333 335/335/335 336/336/336 
f 337/337/337 334/334/334 333/333/333 
f 334/334/334 337/337/337 338/338/338 
f 339/339/339 340/340/340 341/341/341 
f 341/341/341 340/340/340 342/342/342 
f 343/343/343 344/344/344 345/345/345 
f 345/345/345 344/344/344 346/346/346 
f 347/347/347 348/348/348 349/349/349 
f 347/347/347 349/349/349 350/350/350 
f 351/351/351 352/352/352 353/353/353 
f 352/352/352 351/351/351 354/354/354 
f 351/351/351 355/355/355 354/354/354 
f 354/354/354 355/355/355 356/356/356 

g Meshpart7

v -390.317 5.58923 -1.44409 
v -390.281 5.60125 -1.4382 
v -390.315 5.58749 -1.44992 
v -390.281 5.60125 -1.44999 
v -390.331 5.55443 -1.44409 
v -390.282 5.59533 -1.45221 
v -390.311 5.58335 -1.45221 
v -390.283 5.58963 -1.44977 
v -390.329 5.55443 -1.44992 
v -390.307 5.57936 -1.44972 
v -390.305 5.57776 -1.44409 
v -390.283 5.58726 -1.44409 
v -390.323 5.55443 -1.45221 
v -390.317 5.55443 -1.44972 
v -390.315 5.55443 -1.44409 
v -390.305 5.5311 -1.44409 
v -390.307 5.5295 -1.44972 
v -390.311 5.52551 -1.45221 
v -390.283 5.51922 -1.44977 
v -390.283 5.5216 -1.44409 
v -390.282 5.51353 -1.45221 
v -390.315 5.52137 -1.44992 
v -390.281 5.50761 -1.44999 
v -390.315 5.58749 -1.43826 
v -390.281 5.60381 -1.44409 
v -390.317 5.58923 -1.44409 
v -390.281 5.60125 -1.4382 
v -390.315 5.58749 -1.44992 
v -390.281 5.60125 -1.44999 
v -390.283 5.58963 -1.44977 
v -390.305 5.5311 -1.44409 
v -390.307 5.5295 -1.44972 
v -390.311 5.52551 -1.45221 
v -390.283 5.51922 -1.44977 
v -390.283 5.5216 -1.44409 
v -390.283 5.51922 -1.43841 
v -390.281 5.50761 -1.44999 
v -390.311 5.52551 -1.43597 
v -390.307 5.5295 -1.43847 
v -390.311 5.58335 -1.43597 
v -390.307 5.57936 -1.43847 
v -390.311 5.58335 -1.45221 
v -390.307 5.57936 -1.44972 
v -390.305 5.57776 -1.44409 
v -390.323 5.55443 -1.45221 
v -390.317 5.55443 -1.44972 
v -390.315 5.55443 -1.44409 
v -390.317 5.55443 -1.43847 
v -390.305 5.5311 -1.44409 
v -390.307 5.5295 -1.44972 
v -390.311 5.52551 -1.45221 
v -390.311 5.52551 -1.43597 
v -390.323 5.55443 -1.43597 
v -390.307 5.5295 -1.43847 
v -390.315 5.58749 -1.43826 
v -390.317 5.58923 -1.44409 
v -390.281 5.60125 -1.4382 
v -390.282 5.59533 -1.43597 
v -390.331 5.55443 -1.44409 
v -390.311 5.58335 -1.43597 
v -390.283 5.58963 -1.43841 
v -390.329 5.55443 -1.43826 
v -390.307 5.57936 -1.43847 
v -390.305 5.57776 -1.44409 
v -390.283 5.58726 -1.44409 
v -390.315 5.55443 -1.44409 
v -390.317 5.55443 -1.43847 
v -390.305 5.5311 -1.44409 
v -390.283 5.5216 -1.44409 
v -390.283 5.51922 -1.43841 
v -390.281 5.50761 -1.44999 
v -390.317 5.51963 -1.44409 
v -390.315 5.52137 -1.43826 
v -390.281 5.50761 -1.4382 
v -390.282 5.51353 -1.43597 
v -390.311 5.52551 -1.43597 
v -390.323 5.55443 -1.43597 
v -390.307 5.5295 -1.43847 
v -390.281 5.60125 -1.4382 
v -390.311 5.58335 -1.43597 
v -390.283 5.58963 -1.43841 
v -390.307 5.57936 -1.43847 
v -390.311 5.58335 -1.45221 
v -390.283 5.58963 -1.44977 
v -390.307 5.57936 -1.44972 
v -390.305 5.57776 -1.44409 
v -390.283 5.58726 -1.44409 
v -390.283 5.51922 -1.43841 
v -390.315 5.52137 -1.44992 
v -390.281 5.50761 -1.44999 
v -390.281 5.50505 -1.44409 
v -390.317 5.51963 -1.44409 
v -390.315 5.52137 -1.43826 
v -390.281 5.50761 -1.4382 
v -390.315 5.58749 -1.43826 
v -390.317 5.58923 -1.44409 
v -390.315 5.58749 -1.44992 
v -390.331 5.55443 -1.44409 
v -390.329 5.55443 -1.43826 
v -390.329 5.55443 -1.44992 
v -390.315 5.52137 -1.44992 
v -390.317 5.51963 -1.44409 
v -390.315 5.52137 -1.43826 

vn -0.708661 0.708661 0 
vn -0.299213 0.716535 0.629921 
vn -0.519685 0.527559 -0.669291 
vn -0.299213 0.716535 -0.629921 
vn -1 0 0 
vn -0.0393701 0.102362 -0.992126 
vn -0.0551181 0.0551181 -1 
vn 0.267717 -0.629921 -0.724409 
vn -0.740157 0 -0.669291 
vn 0.472441 -0.472441 -0.740157 
vn 0.708661 -0.700787 0 
vn 0.385827 -0.92126 0 
vn -0.0708661 0 -1 
vn 0.669291 0 -0.748031 
vn 1 0 0 
vn 0.708661 0.708661 0 
vn 0.472441 0.472441 -0.740157 
vn -0.0551181 -0.0551181 -1 
vn 0.267717 0.629921 -0.732283 
vn 0.385827 0.92126 0 
vn -0.0393701 -0.102362 -0.992126 
vn -0.519685 -0.527559 -0.669291 
vn -0.299213 -0.716535 -0.629921 
vn -0.519685 0.527559 0.669291 
vn -0.377953 0.929134 0 
vn -0.708661 0.708661 0 
vn -0.299213 0.716535 0.629921 
vn -0.519685 0.527559 -0.669291 
vn -0.299213 0.716535 -0.629921 
vn 0.267717 -0.629921 -0.724409 
vn 0.708661 0.708661 0 
vn 0.472441 0.472441 -0.740157 
vn -0.0551181 -0.0551181 -1 
vn 0.267717 0.629921 -0.732283 
vn 0.385827 0.92126 0 
vn 0.267717 0.629921 0.732283 
vn -0.299213 -0.716535 -0.629921 
vn -0.0551181 -0.0551181 1 
vn 0.472441 0.472441 0.740157 
vn -0.0551181 0.0551181 1 
vn 0.472441 -0.472441 0.740157 
vn -0.0551181 0.0551181 -1 
vn 0.472441 -0.472441 -0.740157 
vn 0.708661 -0.700787 0 
vn -0.0708661 0 -1 
vn 0.669291 0 -0.748031 
vn 1 0 0 
vn 0.669291 0 0.748031 
vn 0.708661 0.708661 0 
vn 0.472441 0.472441 -0.740157 
vn -0.0551181 -0.0551181 -1 
vn -0.0551181 -0.0551181 1 
vn -0.0708661 0 1 
vn 0.472441 0.472441 0.740157 
vn -0.519685 0.527559 0.669291 
vn -0.708661 0.708661 0 
vn -0.299213 0.716535 0.629921 
vn -0.0393701 0.102362 0.992126 
vn -1 0 0 
vn -0.0551181 0.0551181 1 
vn 0.267717 -0.629921 0.732283 
vn -0.740157 0 0.669291 
vn 0.472441 -0.472441 0.740157 
vn 0.708661 -0.700787 0 
vn 0.385827 -0.92126 0 
vn 1 0 0 
vn 0.669291 0 0.748031 
vn 0.708661 0.708661 0 
vn 0.385827 0.92126 0 
vn 0.267717 0.629921 0.732283 
vn -0.299213 -0.716535 -0.629921 
vn -0.708661 -0.708661 0 
vn -0.519685 -0.527559 0.669291 
vn -0.299213 -0.716535 0.629921 
vn -0.0393701 -0.102362 0.992126 
vn -0.0551181 -0.0551181 1 
vn -0.0708661 0 1 
vn 0.472441 0.472441 0.740157 
vn -0.299213 0.716535 0.629921 
vn -0.0551181 0.0551181 1 
vn 0.267717 -0.629921 0.732283 
vn 0.472441 -0.472441 0.740157 
vn -0.0551181 0.0551181 -1 
vn 0.267717 -0.629921 -0.724409 
vn 0.472441 -0.472441 -0.740157 
vn 0.708661 -0.700787 0 
vn 0.385827 -0.92126 0 
vn 0.267717 0.629921 0.732283 
vn -0.519685 -0.527559 -0.669291 
vn -0.299213 -0.716535 -0.629921 
vn -0.377953 -0.929134 0 
vn -0.708661 -0.708661 0 
vn -0.519685 -0.527559 0.669291 
vn -0.299213 -0.716535 0.629921 
vn -0.519685 0.527559 0.669291 
vn -0.708661 0.708661 0 
vn -0.519685 0.527559 -0.669291 
vn -1 0 0 
vn -0.740157 0 0.669291 
vn -0.740157 0 -0.669291 
vn -0.519685 -0.527559 -0.669291 
vn -0.708661 -0.708661 0 
vn -0.519685 -0.527559 0.669291 

vt 12.0013 -42.9957 
vt 11.9969 -42.9941 
vt 12.0011 -42.9959 
vt 11.9969 -42.9941 
vt 12.0031 -43 
vt 11.997 -42.9949 
vt 12.0006 -42.9964 
vt 11.997 -42.9956 
vt 12.0028 -43 
vt 12.0001 -42.9969 
vt 11.9999 -42.9971 
vt 11.9971 -42.9959 
vt 12.0021 -43 
vt 12.0014 -43 
vt 12.0011 -43 
vt 11.9999 -43.0029 
vt 12.0001 -43.0031 
vt 12.0006 -43.0036 
vt 11.997 -43.0044 
vt 11.9971 -43.0041 
vt 11.997 -43.0051 
vt 12.0011 -43.0041 
vt 11.9969 -43.0059 
vt 12.0007 -43.0011 
vt 12 -42.9969 
vt 12 -43.0013 
vt 12.0007 -42.9969 
vt 11.9993 -43.0011 
vt 11.9993 -42.9969 
vt 11.9993 -42.997 
vt 12 -42.9999 
vt 11.9993 -43.0001 
vt 11.999 -43.0006 
vt 11.9993 -42.997 
vt 12 -42.9971 
vt 12.0007 -42.997 
vt 11.9993 -42.9969 
vt 12.001 -43.0006 
vt 12.0007 -43.0001 
vt 11.999 -42.9964 
vt 11.9993 -42.9969 
vt 12.001 -42.9964 
vt 12.0007 -42.9969 
vt 12 -42.9971 
vt 12.001 -43 
vt 12.0007 -43 
vt 12 -43 
vt 11.9993 -43 
vt 12 -43.0029 
vt 12.0007 -43.0031 
vt 12.001 -43.0036 
vt 11.999 -43.0036 
vt 11.999 -43 
vt 11.9993 -43.0031 
vt 11.9989 -42.9959 
vt 11.9987 -42.9957 
vt 12.0031 -42.9941 
vt 12.003 -42.9949 
vt 11.9969 -43 
vt 11.9994 -42.9964 
vt 12.003 -42.9956 
vt 11.9972 -43 
vt 11.9999 -42.9969 
vt 12.0001 -42.9971 
vt 12.0029 -42.9959 
vt 11.9989 -43 
vt 11.9986 -43 
vt 12.0001 -43.0029 
vt 12.0029 -43.0041 
vt 12.003 -43.0044 
vt 12.0031 -43.0059 
vt 11.9987 -43.0043 
vt 11.9989 -43.0041 
vt 12.0031 -43.0059 
vt 12.003 -43.0051 
vt 11.9994 -43.0036 
vt 11.9979 -43 
vt 11.9999 -43.0031 
vt 11.9993 -42.9969 
vt 11.999 -43.0006 
vt 11.9993 -42.997 
vt 11.9993 -43.0001 
vt 12.001 -43.0006 
vt 12.0007 -42.997 
vt 12.0007 -43.0001 
vt 12 -42.9999 
vt 12 -42.9971 
vt 11.9993 -42.997 
vt 12.0007 -43.0011 
vt 12.0007 -42.9969 
vt 12 -42.9969 
vt 12 -43.0013 
vt 11.9993 -43.0011 
vt 11.9993 -42.9969 
vt 12.0007 -42.9959 
vt 12 -42.9957 
vt 11.9993 -42.9959 
vt 12 -43 
vt 12.0007 -43 
vt 11.9993 -43 
vt 11.9993 -43.0041 
vt 12 -43.0043 
vt 12.0007 -43.0041 

usemtl Meshpart7Mtl

f 362/362/362 359/359/359 360/360/360 
f 359/359/359 362/362/362 363/363/363 
f 364/364/364 363/363/363 362/362/362 
f 365/365/365 359/359/359 363/363/363 
f 363/363/363 364/364/364 366/366/366 
f 369/369/369 363/363/363 366/366/366 
f 365/365/365 363/363/363 369/369/369 
f 369/369/369 366/366/366 370/370/370 
f 373/373/373 369/369/369 370/370/370 
f 374/374/374 365/365/365 369/369/369 
f 369/369/369 373/373/373 374/374/374 
f 375/375/375 374/374/374 373/373/373 
f 374/374/374 375/375/375 377/377/377 
f 365/365/365 374/374/374 378/378/378 
f 377/377/377 378/378/378 374/374/374 
f 378/378/378 377/377/377 379/379/379 
f 380/380/380 381/381/381 382/382/382 
f 381/381/381 380/380/380 383/383/383 
f 381/381/381 384/384/384 382/382/382 
f 384/384/384 381/381/381 385/385/385 
f 390/390/390 388/388/388 387/387/387 
f 387/387/387 391/391/391 390/390/390 
f 387/387/387 392/392/392 391/391/391 
f 392/392/392 387/387/387 395/395/395 
f 400/400/400 402/402/402 399/399/399 
f 402/402/402 400/400/400 403/403/403 
f 404/404/404 400/400/400 397/397/397 
f 400/400/400 404/404/404 403/403/403 
f 405/405/405 402/402/402 403/403/403 
f 404/404/404 405/405/405 403/403/403 
f 402/402/402 405/405/405 406/406/406 
f 405/405/405 404/404/404 410/410/410 
f 411/411/411 414/414/414 413/413/413 
f 414/414/414 411/411/411 416/416/416 
f 416/416/416 417/417/417 414/414/414 
f 418/418/418 416/416/416 411/411/411 
f 417/417/417 416/416/416 419/419/419 
f 429/429/429 430/430/430 431/431/431 
f 429/429/429 431/431/431 432/432/432 
f 432/432/432 418/418/418 429/429/429 
f 432/432/432 431/431/431 426/426/426 
f 418/418/418 432/432/432 433/433/433 
f 416/416/416 418/418/418 433/433/433 
f 433/433/433 419/419/419 416/416/416 
f 419/419/419 433/433/433 423/423/423 
f 434/434/434 433/433/433 432/432/432 
f 432/432/432 426/426/426 434/434/434 
f 433/433/433 434/434/434 423/423/423 
f 442/442/442 437/437/437 438/438/438 
f 440/440/440 442/442/442 441/441/441 
f 437/437/437 442/442/442 443/443/443 
f 442/442/442 440/440/440 443/443/443 
f 445/445/445 446/446/446 447/447/447 
f 447/447/447 448/448/448 445/445/445 
f 447/447/447 449/449/449 448/448/448 
f 449/449/449 447/447/447 450/450/450 
f 454/454/454 451/451/451 452/452/452 
f 454/454/454 452/452/452 453/453/453 
f 451/451/451 454/454/454 455/455/455 
f 453/453/453 456/456/456 454/454/454 
f 457/457/457 454/454/454 456/456/456 
f 454/454/454 457/457/457 458/458/458 
f 454/454/454 458/458/458 459/459/459 
f 459/459/459 455/455/455 454/454/454 

g Meshpart8

v -390.255 5.60203 -1.49169 
v -390.255 5.50683 -1.49169 
v -390.235 5.60485 -1.49451 
v -390.235 5.50401 -1.49451 
v -390.235 5.55443 -1.5154 
v -390.255 5.55443 -1.51141 
v -390.255 5.60203 -1.39649 
v -390.235 5.60485 -1.39367 
v -390.235 5.62574 -1.44409 
v -390.255 5.62175 -1.44409 
v -390.255 5.60203 -1.49169 
v -390.235 5.60485 -1.49451 
v -390.255 5.60203 -1.39649 
v -390.255 5.55443 -1.37677 
v -390.235 5.55443 -1.37278 
v -390.255 5.50683 -1.39649 
v -390.235 5.60485 -1.39367 
v -390.235 5.50401 -1.39367 
v -390.255 5.50683 -1.39649 
v -390.235 5.50401 -1.39367 
v -390.235 5.48312 -1.44409 
v -390.255 5.48711 -1.44409 
v -390.255 5.50683 -1.49169 
v -390.235 5.50401 -1.49451 

vn -0.19685 0.692913 -0.692913 
vn -0.19685 -0.692913 -0.692913 
vn -0.19685 0.692913 -0.692913 
vn -0.19685 -0.692913 -0.692913 
vn -0.19685 0 -0.976378 
vn -0.19685 0 -0.976378 
vn -0.19685 0.692913 0.692913 
vn -0.19685 0.692913 0.692913 
vn -0.19685 0.976378 0 
vn -0.19685 0.976378 0 
vn -0.19685 0.692913 -0.692913 
vn -0.19685 0.692913 -0.692913 
vn -0.19685 0.692913 0.692913 
vn -0.19685 0 0.976378 
vn -0.19685 0 0.976378 
vn -0.19685 -0.692913 0.692913 
vn -0.19685 0.692913 0.692913 
vn -0.19685 -0.692913 0.692913 
vn -0.19685 -0.692913 0.692913 
vn -0.19685 -0.692913 0.692913 
vn -0.19685 -0.976378 0 
vn -0.19685 -0.976378 0 
vn -0.19685 -0.692913 -0.692913 
vn -0.19685 -0.692913 -0.692913 

vt 48.0012 -50.994 
vt 48.0012 -51.006 
vt 47.9988 -50.9937 
vt 47.9988 -51.0063 
vt 47.9988 -51 
vt 48.0012 -51 
vt 48.006 -51.0012 
vt 48.0063 -50.9988 
vt 48 -50.9988 
vt 48 -51.0012 
vt 47.994 -51.0012 
vt 47.9937 -50.9988 
vt 47.9988 -50.994 
vt 47.9988 -51 
vt 48.0012 -51 
vt 47.9988 -51.006 
vt 48.0012 -50.9937 
vt 48.0012 -51.0063 
vt 47.994 -51.0012 
vt 47.9937 -50.9988 
vt 48 -50.9988 
vt 48 -51.0012 
vt 48.006 -51.0012 
vt 48.0063 -50.9988 

usemtl Meshpart7Mtl

f 464/464/464 460/460/460 462/462/462 
f 461/461/461 464/464/464 463/463/463 
f 460/460/460 464/464/464 465/465/465 
f 461/461/461 465/465/465 464/464/464 
f 468/468/468 466/466/466 467/467/467 
f 466/466/466 468/468/468 469/469/469 
f 470/470/470 469/469/469 468/468/468 
f 470/470/470 468/468/468 471/471/471 
f 472/472/472 473/473/473 474/474/474 
f 475/475/475 474/474/474 473/473/473 
f 472/472/472 474/474/474 476/476/476 
f 474/474/474 475/475/475 477/477/477 
f 478/478/478 480/480/480 479/479/479 
f 478/478/478 481/481/481 480/480/480 
f 482/482/482 480/480/480 481/481/481 
f 480/480/480 482/482/482 483/483/483 

g Meshpart9

v -390.284 5.51733 -1.48119 
v -390.284 5.55443 -1.49656 
v -390.254 5.55443 -1.51141 
v -390.284 5.59153 -1.48119 
v -390.254 5.50683 -1.49169 
v -390.254 5.60203 -1.49169 
v -390.235 5.60485 -1.49451 
v -390.179 5.61045 -1.50012 
v -390.179 5.55443 -1.52332 
v -390.235 5.55443 -1.5154 
v -390.235 5.50401 -1.49451 
v -390.179 5.4984 -1.50012 
v -390.284 5.59153 -1.48119 
v -390.254 5.60203 -1.49169 
v -390.254 5.62175 -1.44409 
v -390.284 5.6069 -1.44409 
v -390.284 5.59153 -1.40699 
v -390.254 5.60203 -1.39649 
v -390.235 5.60485 -1.39367 
v -390.179 5.63366 -1.44409 
v -390.235 5.62574 -1.44409 
v -390.235 5.60485 -1.49451 
v -390.179 5.61045 -1.38807 
v -390.179 5.61045 -1.50012 
v -390.284 5.51733 -1.40699 
v -390.284 5.59153 -1.40699 
v -390.254 5.50683 -1.39649 
v -390.254 5.60203 -1.39649 
v -390.254 5.55443 -1.37677 
v -390.284 5.55443 -1.39162 
v -390.235 5.60485 -1.39367 
v -390.179 5.61045 -1.38807 
v -390.179 5.55443 -1.36486 
v -390.235 5.55443 -1.37278 
v -390.235 5.50401 -1.39367 
v -390.179 5.4984 -1.38807 
v -390.284 5.51733 -1.48119 
v -390.254 5.50683 -1.49169 
v -390.254 5.48711 -1.44409 
v -390.284 5.50196 -1.44409 
v -390.284 5.51733 -1.40699 
v -390.254 5.50683 -1.39649 
v -390.235 5.50401 -1.39367 
v -390.235 5.50401 -1.49451 
v -390.179 5.4984 -1.38807 
v -390.179 5.4984 -1.50012 
v -390.179 5.4752 -1.44409 
v -390.235 5.48312 -1.44409 
v -390.284 5.51733 -1.48119 
v -390.284 5.59153 -1.40699 
v -390.284 5.59153 -1.48119 
v -390.284 5.6069 -1.44409 
v -390.284 5.55443 -1.49656 
v -390.284 5.51733 -1.40699 
v -390.284 5.55443 -1.39162 
v -390.284 5.50196 -1.44409 

vn -0.440945 -0.629921 -0.629921 
vn -0.440945 0 -0.897638 
vn -0.440945 0 -0.897638 
vn -0.440945 0.629921 -0.629921 
vn -0.440945 -0.629921 -0.629921 
vn -0.440945 0.629921 -0.629921 
vn -0.141732 0.700787 -0.700787 
vn -0.141732 0.700787 -0.700787 
vn -0.141732 0 -0.992126 
vn -0.141732 0 -0.992126 
vn -0.141732 -0.700787 -0.700787 
vn -0.141732 -0.700787 -0.700787 
vn -0.440945 0.629921 -0.629921 
vn -0.440945 0.629921 -0.629921 
vn -0.440945 0.897638 0 
vn -0.440945 0.897638 0 
vn -0.440945 0.629921 0.629921 
vn -0.440945 0.629921 0.629921 
vn -0.141732 0.700787 0.700787 
vn -0.141732 0.992126 0 
vn -0.141732 0.992126 0 
vn -0.141732 0.700787 -0.700787 
vn -0.141732 0.700787 0.700787 
vn -0.141732 0.700787 -0.700787 
vn -0.440945 -0.629921 0.629921 
vn -0.440945 0.629921 0.629921 
vn -0.440945 -0.629921 0.629921 
vn -0.440945 0.629921 0.629921 
vn -0.440945 0 0.897638 
vn -0.440945 0 0.897638 
vn -0.141732 0.700787 0.700787 
vn -0.141732 0.700787 0.700787 
vn -0.141732 0 0.992126 
vn -0.141732 0 0.992126 
vn -0.141732 -0.700787 0.700787 
vn -0.141732 -0.700787 0.700787 
vn -0.440945 -0.629921 -0.629921 
vn -0.440945 -0.629921 -0.629921 
vn -0.440945 -0.897638 0 
vn -0.440945 -0.897638 0 
vn -0.440945 -0.629921 0.629921 
vn -0.440945 -0.629921 0.629921 
vn -0.141732 -0.700787 0.700787 
vn -0.141732 -0.700787 -0.700787 
vn -0.141732 -0.700787 0.700787 
vn -0.141732 -0.700787 -0.700787 
vn -0.141732 -0.992126 0 
vn -0.141732 -0.992126 0 
vn -1 0 0 
vn -1 0 0 
vn -1 0 0 
vn -1 0 0 
vn -1 0 0 
vn -1 0 0 
vn -1 0 0 
vn -1 0 0 

vt 0.00655463 -57.0046 
vt 0.00655463 -57 
vt 0.00281113 -57 
vt 0.00655463 -56.9954 
vt 0.00281113 -57.006 
vt 0.00281113 -56.994 
vt 0.000378126 -56.9937 
vt -0.00655462 -56.993 
vt -0.00655462 -57 
vt 0.000378126 -57 
vt 0.000378126 -57.0063 
vt -0.00655462 -57.007 
vt -0.00463775 -57.0066 
vt -0.00595025 -57.0028 
vt 0 -57.0028 
vt 0 -57.0066 
vt 0.00463775 -57.0066 
vt 0.00595025 -57.0028 
vt 0.00630275 -57.0004 
vt 0 -56.9934 
vt 0 -57.0004 
vt -0.00630275 -57.0004 
vt 0.00700325 -56.9934 
vt -0.00700325 -56.9934 
vt -0.00655463 -57.0046 
vt -0.00655463 -56.9954 
vt -0.00281113 -57.006 
vt -0.00281113 -56.994 
vt -0.00281113 -57 
vt -0.00655463 -57 
vt -0.000378126 -56.9937 
vt 0.00655462 -56.993 
vt 0.00655462 -57 
vt -0.000378126 -57 
vt -0.000378126 -57.0063 
vt 0.00655462 -57.007 
vt 0.00463775 -57.0066 
vt 0.00595025 -57.0028 
vt 0 -57.0028 
vt 0 -57.0066 
vt -0.00463775 -57.0066 
vt -0.00595025 -57.0028 
vt -0.00630275 -57.0004 
vt 0.00630275 -57.0004 
vt -0.00700325 -56.9934 
vt 0.00700325 -56.9934 
vt 0 -56.9934 
vt 0 -57.0004 
vt -0.00463775 -57.0046 
vt 0.00463775 -56.9954 
vt -0.00463775 -56.9954 
vt 0 -56.9934 
vt -0.006559 -57 
vt 0.00463775 -57.0046 
vt 0.006559 -57 
vt 0 -57.0066 

usemtl Meshpart9Mtl

f 484/484/484 485/485/485 486/486/486 
f 487/487/487 486/486/486 485/485/485 
f 486/486/486 488/488/488 484/484/484 
f 486/486/486 487/487/487 489/489/489 
f 492/492/492 490/490/490 491/491/491 
f 490/490/490 492/492/492 493/493/493 
f 492/492/492 494/494/494 493/493/493 
f 494/494/494 492/492/492 495/495/495 
f 498/498/498 497/497/497 496/496/496 
f 496/496/496 499/499/499 498/498/498 
f 500/500/500 498/498/498 499/499/499 
f 498/498/498 500/500/500 501/501/501 
f 502/502/502 503/503/503 504/504/504 
f 503/503/503 505/505/505 504/504/504 
f 503/503/503 502/502/502 506/506/506 
f 505/505/505 503/503/503 507/507/507 
f 512/512/512 508/508/508 510/510/510 
f 512/512/512 511/511/511 509/509/509 
f 508/508/508 512/512/512 513/513/513 
f 509/509/509 513/513/513 512/512/512 
f 514/514/514 516/516/516 515/515/515 
f 516/516/516 514/514/514 517/517/517 
f 518/518/518 516/516/516 517/517/517 
f 516/516/516 518/518/518 519/519/519 
f 522/522/522 520/520/520 521/521/521 
f 520/520/520 522/522/522 523/523/523 
f 524/524/524 523/523/523 522/522/522 
f 522/522/522 525/525/525 524/524/524 
f 526/526/526 530/530/530 528/528/528 
f 530/530/530 527/527/527 529/529/529 
f 530/530/530 526/526/526 531/531/531 
f 527/527/527 530/530/530 531/531/531 
f 532/532/532 533/533/533 534/534/534 
f 534/534/534 533/533/533 535/535/535 
f 532/532/532 534/534/534 536/536/536 
f 532/532/532 537/537/537 533/533/533 
f 533/533/533 537/537/537 538/538/538 
f 537/537/537 532/532/532 539/539/539 

g Meshpart10

v -390.052 6.06587 -0.252169 
v -390.118 6.06587 -0.252169 
v -390.118 6.08078 -0.216187 
v -390.052 6.02989 -0.267075 
v -390.052 6.08078 -0.216187 
v -390.118 6.02989 -0.267075 
v -390.052 5.99391 -0.252169 
v -390.118 5.99391 -0.252169 
v -390.052 5.979 -0.216187 
v -390.118 5.979 -0.216187 
v -389.87 6.08078 -0.216187 
v -389.87 6.06587 -0.252171 
v -389.936 6.06587 -0.252171 
v -389.87 6.02989 -0.267075 
v -389.936 6.02989 -0.267075 
v -389.87 5.99391 -0.252171 
v -389.936 5.99391 -0.252171 
v -390.052 6.06587 -0.252169 
v -390.118 6.06587 -0.252169 
v -390.118 6.08078 -0.216187 
v -390.052 6.02989 -0.267075 
v -390.052 6.08078 -0.216187 
v -390.118 6.06587 -0.180204 
v -390.052 6.06587 -0.180204 
v -390.118 6.02989 -0.165298 
v -390.052 6.02989 -0.165298 
v -389.87 6.08078 -0.216187 
v -389.936 6.08078 -0.216187 
v -389.936 6.06587 -0.180204 
v -389.87 6.06587 -0.252171 
v -389.87 6.06587 -0.180204 
v -389.936 6.06587 -0.252171 
v -389.87 5.99391 -0.252171 
v -389.87 5.99391 -0.180204 
v -389.87 5.979 -0.216187 
v -389.87 6.02989 -0.165301 
v -389.87 6.02989 -0.267075 
v -389.87 6.06587 -0.252171 
v -389.87 6.06587 -0.180204 
v -389.87 6.08078 -0.216187 
v -390.052 5.99391 -0.252169 
v -390.052 5.99391 -0.180204 
v -390.052 5.979 -0.216187 
v -390.052 6.06587 -0.252169 
v -390.052 6.02989 -0.267075 
v -390.052 6.06587 -0.180204 
v -390.052 6.08078 -0.216187 
v -390.052 6.02989 -0.165298 
v -390.118 6.08078 -0.216187 
v -390.118 6.06587 -0.180204 
v -390.052 6.06587 -0.180204 
v -390.118 6.02989 -0.165298 
v -390.052 5.979 -0.216187 
v -390.052 6.02989 -0.165298 
v -390.118 5.979 -0.216187 
v -390.118 5.99391 -0.180204 
v -390.052 5.99391 -0.180204 
v -389.87 6.08078 -0.216187 
v -389.936 6.06587 -0.180204 
v -389.87 6.06587 -0.180204 
v -389.936 6.02989 -0.165301 
v -389.87 6.02989 -0.165301 
v -389.936 5.99391 -0.180204 
v -389.87 5.99391 -0.180204 
v -390.052 6.02989 -0.267075 
v -390.052 5.99391 -0.252169 
v -390.118 5.99391 -0.252169 
v -390.052 5.979 -0.216187 
v -390.052 6.02989 -0.165298 
v -390.118 5.979 -0.216187 
v -390.118 5.99391 -0.180204 
v -390.052 5.99391 -0.180204 
v -389.936 5.99391 -0.180204 
v -389.87 5.99391 -0.252171 
v -389.87 5.99391 -0.180204 
v -389.936 5.99391 -0.252171 
v -389.936 5.979 -0.216187 
v -389.87 5.979 -0.216187 
v -390.118 5.979 -0.216187 
v -390.118 5.99391 -0.180204 
v -390.118 5.99391 -0.252169 
v -390.118 6.06587 -0.252169 
v -390.118 6.02989 -0.267075 
v -390.118 6.06587 -0.180204 
v -390.118 6.08078 -0.216187 
v -390.118 6.02989 -0.165298 
v -389.936 6.06587 -0.252171 
v -389.936 5.99391 -0.180204 
v -389.87 5.99391 -0.252171 
v -389.936 5.979 -0.216187 
v -389.936 5.99391 -0.180204 
v -389.936 5.99391 -0.252171 
v -389.936 6.02989 -0.165301 
v -389.936 6.02989 -0.267075 
v -389.936 6.06587 -0.252171 
v -389.936 6.06587 -0.180204 
v -389.936 6.08078 -0.216187 

vn 0 0.708661 -0.708661 
vn 0 0.708661 -0.708661 
vn 0 1 0 
vn 0 0 -1 
vn 0 1 0 
vn 0 0 -1 
vn 0 -0.708661 -0.708661 
vn 0 -0.708661 -0.708661 
vn 0 -1 0 
vn 0 -1 0 
vn 0 1 0 
vn 0 0.708661 -0.708661 
vn 0 0.708661 -0.708661 
vn 0 0 -1 
vn 0 0 -1 
vn 0 -0.708661 -0.708661 
vn 0 -0.708661 -0.708661 
vn 0 0.708661 -0.708661 
vn 0 0.708661 -0.708661 
vn 0 1 0 
vn 0 0 -1 
vn 0 1 0 
vn 0 0.708661 0.708661 
vn 0 0.708661 0.708661 
vn 0 0 1 
vn 0 0 1 
vn 0 1 0 
vn 0 1 0 
vn 0 0.708661 0.708661 
vn 0 0.708661 -0.708661 
vn 0 0.708661 0.708661 
vn 0 0.708661 -0.708661 
vn 1 0 0 
vn 1 0 0 
vn 1 0 0 
vn 1 0 0 
vn 1 0 0 
vn 1 0 0 
vn 1 0 0 
vn 1 0 0 
vn 1 0 0 
vn 1 0 0 
vn 1 0 0 
vn 1 0 0 
vn 1 0 0 
vn 1 0 0 
vn 1 0 0 
vn 1 0 0 
vn 0 1 0 
vn 0 0.708661 0.708661 
vn 0 0.708661 0.708661 
vn 0 0 1 
vn 0 -1 0 
vn 0 0 1 
vn 0 -1 0 
vn 0 -0.708661 0.708661 
vn 0 -0.708661 0.708661 
vn 0 1 0 
vn 0 0.708661 0.708661 
vn 0 0.708661 0.708661 
vn 0 0 1 
vn 0 0 1 
vn 0 -0.708661 0.708661 
vn 0 -0.708661 0.708661 
vn 0 0 -1 
vn 0 -0.708661 -0.708661 
vn 0 -0.708661 -0.708661 
vn 0 -1 0 
vn 0 0 1 
vn 0 -1 0 
vn 0 -0.708661 0.708661 
vn 0 -0.708661 0.708661 
vn 0 -0.708661 0.708661 
vn 0 -0.708661 -0.708661 
vn 0 -0.708661 0.708661 
vn 0 -0.708661 -0.708661 
vn 0 -1 0 
vn 0 -1 0 
vn -1 0 0 
vn -1 0 0 
vn -1 0 0 
vn -1 0 0 
vn -1 0 0 
vn -1 0 0 
vn -1 0 0 
vn -1 0 0 
vn 0 0.708661 -0.708661 
vn 0 -0.708661 0.708661 
vn 0 -0.708661 -0.708661 
vn -1 0 0 
vn -1 0 0 
vn -1 0 0 
vn -1 0 0 
vn -1 0 0 
vn -1 0 0 
vn -1 0 0 
vn -1 0 0 

vt 42.0072 -12.9955 
vt 42.0155 -12.9955 
vt 42.0155 -12.9936 
vt 42.0072 -13 
vt 42.0072 -12.9936 
vt 42.0155 -13 
vt 42.0072 -13.0045 
vt 42.0155 -13.0045 
vt 42.0072 -13.0064 
vt 42.0155 -13.0064 
vt 41.9845 -12.9936 
vt 41.9845 -12.9955 
vt 41.9928 -12.9955 
vt 41.9845 -13 
vt 41.9928 -13 
vt 41.9845 -13.0045 
vt 41.9928 -13.0045 
vt 41.9955 -13.0072 
vt 41.9955 -13.0155 
vt 42 -13.0155 
vt 41.9936 -13.0072 
vt 42 -13.0072 
vt 42.0045 -13.0155 
vt 42.0045 -13.0072 
vt 42.0064 -13.0155 
vt 42.0064 -13.0072 
vt 42 -12.9845 
vt 42 -12.9928 
vt 42.0045 -12.9928 
vt 41.9955 -12.9845 
vt 42.0045 -12.9845 
vt 41.9955 -12.9928 
vt 42.0045 -13.0045 
vt 41.9955 -13.0045 
vt 42 -13.0064 
vt 41.9936 -13 
vt 42.0064 -13 
vt 42.0045 -12.9955 
vt 41.9955 -12.9955 
vt 42 -12.9936 
vt 42.0045 -13.0045 
vt 41.9955 -13.0045 
vt 42 -13.0064 
vt 42.0045 -12.9955 
vt 42.0064 -13 
vt 41.9955 -12.9955 
vt 42 -12.9936 
vt 41.9936 -13 
vt 41.9845 -12.9936 
vt 41.9845 -12.9955 
vt 41.9928 -12.9955 
vt 41.9845 -13 
vt 41.9928 -13.0064 
vt 41.9928 -13 
vt 41.9845 -13.0064 
vt 41.9845 -13.0045 
vt 41.9928 -13.0045 
vt 42.0155 -12.9936 
vt 42.0072 -12.9955 
vt 42.0155 -12.9955 
vt 42.0072 -13 
vt 42.0155 -13 
vt 42.0072 -13.0045 
vt 42.0155 -13.0045 
vt 42.0064 -13.0072 
vt 42.0045 -13.0072 
vt 42.0045 -13.0155 
vt 42 -13.0072 
vt 41.9936 -13.0072 
vt 42 -13.0155 
vt 41.9955 -13.0155 
vt 41.9955 -13.0072 
vt 41.9955 -12.9928 
vt 42.0045 -12.9845 
vt 41.9955 -12.9845 
vt 42.0045 -12.9928 
vt 42 -12.9928 
vt 42 -12.9845 
vt 42 -13.0064 
vt 42.0045 -13.0045 
vt 41.9955 -13.0045 
vt 41.9955 -12.9955 
vt 41.9936 -13 
vt 42.0045 -12.9955 
vt 42 -12.9936 
vt 42.0064 -13 
vt 41.9955 -12.9955 
vt 42.0045 -13.0045 
vt 41.9955 -13.0045 
vt 42 -13.0064 
vt 42.0045 -13.0045 
vt 41.9955 -13.0045 
vt 42.0064 -13 
vt 41.9936 -13 
vt 41.9955 -12.9955 
vt 42.0045 -12.9955 
vt 42 -12.9936 

usemtl Meshpart4Mtl

f 541/541/541 540/540/540 543/543/543 
f 543/543/543 545/545/545 541/541/541 
f 545/545/545 543/543/543 546/546/546 
f 546/546/546 547/547/547 545/545/545 
f 552/552/552 551/551/551 553/553/553 
f 553/553/553 554/554/554 552/552/552 
f 554/554/554 553/553/553 555/555/555 
f 555/555/555 556/556/556 554/554/554 
f 557/557/557 558/558/558 559/559/559 
f 559/559/559 561/561/561 557/557/557 
f 561/561/561 559/559/559 562/562/562 
f 562/562/562 563/563/563 561/561/561 
f 566/566/566 567/567/567 568/568/568 
f 567/567/567 566/566/566 569/569/569 
f 568/568/568 570/570/570 566/566/566 
f 569/569/569 571/571/571 567/567/567 
f 572/572/572 573/573/573 574/574/574 
f 572/572/572 575/575/575 573/573/573 
f 576/576/576 575/575/575 572/572/572 
f 575/575/575 576/576/576 577/577/577 
f 575/575/575 577/577/577 578/578/578 
f 578/578/578 577/577/577 579/579/579 
f 580/580/580 581/581/581 582/582/582 
f 581/581/581 580/580/580 583/583/583 
f 583/583/583 580/580/580 584/584/584 
f 581/581/581 583/583/583 585/585/585 
f 585/585/585 583/583/583 586/586/586 
f 581/581/581 585/585/585 587/587/587 
f 590/590/590 589/589/589 591/591/591 
f 591/591/591 593/593/593 590/590/590 
f 593/593/593 591/591/591 595/595/595 
f 595/595/595 596/596/596 593/593/593 
f 599/599/599 598/598/598 600/600/600 
f 600/600/600 601/601/601 599/599/599 
f 601/601/601 600/600/600 602/602/602 
f 602/602/602 603/603/603 601/601/601 
f 606/606/606 605/605/605 607/607/607 
f 607/607/607 609/609/609 606/606/606 
f 609/609/609 607/607/607 611/611/611 
f 611/611/611 610/610/610 609/609/609 
f 614/614/614 612/612/612 616/616/616 
f 615/615/615 613/613/613 617/617/617 
f 616/616/616 617/617/617 614/614/614 
f 617/617/617 616/616/616 615/615/615 
f 618/618/618 619/619/619 620/620/620 
f 621/621/621 620/620/620 619/619/619 
f 620/620/620 621/621/621 622/622/622 
f 619/619/619 623/623/623 621/621/621 
f 621/621/621 623/623/623 624/624/624 
f 623/623/623 619/619/619 625/625/625 
f 629/629/629 630/630/630 631/631/631 
f 632/632/632 631/631/631 630/630/630 
f 631/631/631 632/632/632 633/633/633 
f 633/633/633 632/632/632 634/634/634 
f 635/635/635 634/634/634 632/632/632 
f 634/634/634 635/635/635 636/636/636 

g Meshpart11

v -389.835 5.97307 -2.15904 
v -390.152 5.62797 -2.15904 
v -390.152 5.97307 -2.15904 
v -389.835 5.62797 -2.15904 
v -390.152 5.93537 -0.730315 
v -389.835 5.93537 -0.730315 
v -390.152 5.84584 -0.730315 
v -390.152 5.97307 -0.703928 
v -389.835 5.97307 -0.70393 
v -389.835 5.84584 -0.730315 
v -389.835 5.80814 -0.756703 
v -390.152 5.80814 -0.756703 
v -389.835 5.97307 -0.0766737 
v -390.152 5.97307 -0.703928 
v -390.152 5.97307 -0.0766737 
v -389.835 5.97307 -0.70393 
v -389.835 5.97307 -1.3461 
v -390.152 5.97307 -2.15904 
v -390.152 5.97307 -1.3461 
v -389.835 5.97307 -2.15904 
v -389.835 5.80814 -0.756703 
v -390.152 5.80814 -0.756703 
v -389.835 5.80814 -1.29333 
v -390.152 5.80814 -1.29333 
v -389.835 5.80814 -1.29333 
v -389.835 5.62797 0.00376308 
v -389.835 5.62797 -2.15904 
v -389.835 5.80814 -0.756703 
v -389.835 5.84584 -1.31972 
v -389.835 5.84584 -0.730315 
v -389.835 5.97307 -2.15904 
v -389.835 5.97307 -1.3461 
v -389.835 5.93537 -1.31972 
v -389.835 5.97307 -0.0766737 
v -389.835 5.97307 -0.70393 
v -389.835 5.93537 -0.730315 
v -390.152 5.97307 -0.0766737 
v -390.152 5.62797 0.00376308 
v -389.835 5.62797 0.00376308 
v -389.835 5.97307 -0.0766737 
v -389.835 5.80814 -1.29333 
v -390.152 5.80814 -1.29333 
v -389.835 5.84584 -1.31972 
v -390.152 5.84584 -1.31972 
v -389.835 5.93537 -1.31972 
v -390.152 5.93537 -1.31972 
v -389.835 5.97307 -1.3461 
v -390.152 5.97307 -1.3461 
v -389.835 5.62797 -2.15904 
v -389.835 5.62797 0.00376308 
v -390.152 5.62797 -2.15904 
v -390.152 5.62797 0.00376308 
v -390.152 5.97307 -2.15904 
v -390.152 5.84584 -1.31972 
v -390.152 5.97307 -1.3461 
v -390.152 5.93537 -1.31972 
v -390.152 5.62797 -2.15904 
v -390.152 5.80814 -1.29333 
v -390.152 5.62797 0.00376308 
v -390.152 5.80814 -0.756703 
v -390.152 5.84584 -0.730315 
v -390.152 5.97307 -0.0766737 
v -390.152 5.97307 -0.703928 
v -390.152 5.93537 -0.730315 

vn 0 0 -1 
vn 0 0 -1 
vn 0 0 -1 
vn 0 0 -1 
vn 0 0.299213 -0.952756 
vn 0 0.299213 -0.952756 
vn 0 0.299213 -0.952756 
vn 0 0.574803 -0.818898 
vn 0 0.574803 -0.818898 
vn 0 0.299213 -0.952756 
vn 0 0.889764 -0.464567 
vn 0 0.889764 -0.464567 
vn 0 1 0 
vn 0 1 0 
vn 0 1 0 
vn 0 1 0 
vn 0 1 0 
vn 0 1 0 
vn 0 1 0 
vn 0 1 0 
vn 0 0.889764 -0.464567 
vn 0 0.889764 -0.464567 
vn 0 0.889764 0.464567 
vn 0 0.889764 0.464567 
vn 1 0 0 
vn 1 0 0 
vn 1 0 0 
vn 1 0 0 
vn 1 0 0 
vn 1 0 0 
vn 1 0 0 
vn 1 0 0 
vn 1 0 0 
vn 1 0 0 
vn 1 0 0 
vn 1 0 0 
vn 0 0.228346 0.976378 
vn 0 0.228346 0.976378 
vn 0 0.228346 0.976378 
vn 0 0.228346 0.976378 
vn 0 0.889764 0.464567 
vn 0 0.889764 0.464567 
vn 0 0.299213 0.952756 
vn 0 0.299213 0.952756 
vn 0 0.299213 0.952756 
vn 0 0.299213 0.952756 
vn 0 0.574803 0.818898 
vn 0 0.574803 0.818898 
vn 0 -1 0 
vn 0 -1 0 
vn 0 -1 0 
vn 0 -1 0 
vn -1 0 0 
vn -1 0 0 
vn -1 0 0 
vn -1 0 0 
vn -1 0 0 
vn -1 0 0 
vn -1 0 0 
vn -1 0 0 
vn -1 0 0 
vn -1 0 0 
vn -1 0 0 
vn -1 0 0 

vt 47.9802 -52.9784 
vt 48.0198 -53.0216 
vt 48.0198 -52.9784 
vt 47.9802 -53.0216 
vt 48.0198 -52.9831 
vt 47.9802 -52.9831 
vt 48.0198 -52.9943 
vt 48.0198 -52.9784 
vt 47.9802 -52.9784 
vt 47.9802 -52.9943 
vt 47.9802 -52.999 
vt 48.0198 -52.999 
vt 48.1251 -52.9802 
vt 48.0467 -53.0198 
vt 48.1251 -53.0198 
vt 48.0467 -52.9802 
vt 47.9664 -52.9802 
vt 47.8648 -53.0198 
vt 47.9664 -53.0198 
vt 47.8648 -52.9802 
vt 48.0401 -52.9802 
vt 48.0401 -53.0198 
vt 47.973 -52.9802 
vt 47.973 -53.0198 
vt 48.027 -52.999 
vt 47.8648 -53.0216 
vt 48.1352 -53.0216 
vt 47.9599 -52.999 
vt 48.0303 -52.9943 
vt 47.9566 -52.9943 
vt 48.1352 -52.9784 
vt 48.0336 -52.9784 
vt 48.0303 -52.9831 
vt 47.8749 -52.9784 
vt 47.9533 -52.9784 
vt 47.9566 -52.9831 
vt 47.9802 -52.9784 
vt 47.9802 -53.0216 
vt 48.0198 -53.0216 
vt 48.0198 -52.9784 
vt 48.0198 -52.999 
vt 47.9802 -52.999 
vt 48.0198 -52.9943 
vt 47.9802 -52.9943 
vt 48.0198 -52.9831 
vt 47.9802 -52.9831 
vt 48.0198 -52.9784 
vt 47.9802 -52.9784 
vt 48.1352 -52.9802 
vt 47.8648 -52.9802 
vt 48.1352 -53.0198 
vt 47.8648 -53.0198 
vt 47.8648 -52.9784 
vt 47.9697 -52.9943 
vt 47.9664 -52.9784 
vt 47.9697 -52.9831 
vt 47.8648 -53.0216 
vt 47.973 -52.999 
vt 48.1352 -53.0216 
vt 48.0401 -52.999 
vt 48.0434 -52.9943 
vt 48.1251 -52.9784 
vt 48.0467 -52.9784 
vt 48.0434 -52.9831 

usemtl Meshpart11Mtl

f 637/637/637 638/638/638 639/639/639 
f 638/638/638 637/637/637 640/640/640 
f 641/641/641 642/642/642 643/643/643 
f 642/642/642 641/641/641 644/644/644 
f 644/644/644 645/645/645 642/642/642 
f 643/643/643 642/642/642 646/646/646 
f 643/643/643 646/646/646 647/647/647 
f 647/647/647 648/648/648 643/643/643 
f 649/649/649 650/650/650 651/651/651 
f 650/650/650 649/649/649 652/652/652 
f 653/653/653 654/654/654 655/655/655 
f 654/654/654 653/653/653 656/656/656 
f 659/659/659 658/658/658 657/657/657 
f 658/658/658 659/659/659 660/660/660 
f 661/661/661 662/662/662 663/663/663 
f 662/662/662 661/661/661 664/664/664 
f 661/661/661 663/663/663 665/665/665 
f 662/662/662 664/664/664 666/666/666 
f 665/665/665 663/663/663 667/667/667 
f 665/665/665 667/667/667 668/668/668 
f 665/665/665 668/668/668 669/669/669 
f 666/666/666 670/670/670 662/662/662 
f 670/670/670 666/666/666 671/671/671 
f 666/666/666 672/672/672 671/671/671 
f 673/673/673 674/674/674 675/675/675 
f 673/673/673 675/675/675 676/676/676 
f 678/678/678 677/677/677 679/679/679 
f 679/679/679 680/680/680 678/678/678 
f 680/680/680 679/679/679 681/681/681 
f 681/681/681 682/682/682 680/680/680 
f 682/682/682 681/681/681 683/683/683 
f 683/683/683 684/684/684 682/682/682 
f 685/685/685 686/686/686 687/687/687 
f 688/688/688 687/687/687 686/686/686 
f 689/689/689 690/690/690 691/691/691 
f 690/690/690 692/692/692 691/691/691 
f 690/690/690 689/689/689 693/693/693 
f 693/693/693 694/694/694 690/690/690 
f 695/695/695 694/694/694 693/693/693 
f 694/694/694 695/695/695 696/696/696 
f 695/695/695 697/697/697 696/696/696 
f 698/698/698 697/697/697 695/695/695 
f 699/699/699 697/697/697 698/698/698 
f 697/697/697 699/699/699 700/700/700 

g Meshpart12

v -390.033 6.02963 -0.123007 
v -390.11 6.11097 -0.152165 
v -389.877 6.11097 -0.152165 
v -389.991 6.07123 -2.0862 
v -390.052 5.9539 -2.11625 
v -389.997 6.07123 -2.0862 
v -389.936 5.9539 -2.11625 
v -390.168 5.68685 -1.91229 
v -390.168 5.90055 -1.97229 
v -389.82 5.68685 -1.91229 
v -389.82 5.90055 -1.97229 
v -390.168 5.68685 -1.77829 
v -390.168 5.90055 -1.83829 
v -389.82 5.68685 -1.77829 
v -389.82 5.90055 -1.83829 
v -390.168 5.68685 -1.64029 
v -390.168 5.90055 -1.70029 
v -389.82 5.68685 -1.64029 
v -389.82 5.90055 -1.70029 
v -390.168 5.68685 -1.69799 
v -389.82 5.68685 -1.83199 
v -390.168 5.68685 -1.83199 
v -389.82 5.90055 -1.89199 
v -389.877 5.95368 -0.454485 
v -389.955 6.02963 -0.454485 
v -389.877 6.02963 -0.454485 
v -390.11 5.95368 -0.454485 
v -389.955 6.07951 -0.421489 
v -389.877 6.07951 -0.421489 
v -390.033 6.02963 -0.454485 
v -390.11 6.02963 -0.454485 
v -390.11 6.07951 -0.421489 
v -390.033 6.07951 -0.421489 
v -390.033 6.02963 -0.123007 
v -390.033 6.11097 -0.152165 
v -389.877 6.11097 -0.152165 
v -390.168 5.90055 -1.97229 
v -389.82 5.90055 -1.97229 
v -390.168 5.90055 -1.83829 
v -390.168 5.90055 -1.70029 
v -389.82 5.90055 -1.70029 
v -389.82 5.68685 -1.69799 
v -390.168 5.68685 -1.69799 
v -389.82 5.90055 -1.89199 
v -389.997 6.07123 -2.0862 
v -389.997 6.07123 -1.96503 
v -389.991 6.07123 -1.96503 
v -389.991 6.07123 -2.0862 
v -389.877 6.02963 -0.454485 
v -390.11 6.07951 -0.421489 
v -390.033 6.02963 -0.454485 
v -390.033 6.02963 -0.123007 
v -389.955 6.02963 -0.123007 
v -389.955 6.02963 -0.454485 
v -390.11 6.07951 -0.421489 
v -390.11 6.11097 -0.152165 
v -390.033 6.11097 -0.152165 
v -390.033 6.07951 -0.421489 
v -389.955 6.07951 -0.421489 
v -389.955 6.11097 -0.152165 
v -389.877 6.11097 -0.152165 
v -389.877 6.07951 -0.421489 
v -389.82 5.90055 -1.70029 
v -390.168 5.90055 -1.70029 
v -390.168 5.90055 -1.61999 
v -389.82 5.90055 -1.61999 
v -389.82 5.90055 -1.83829 
v -390.168 5.90055 -1.83829 
v -390.168 5.90055 -1.75799 
v -389.82 5.90055 -1.75799 
v -389.82 5.90055 -1.97229 
v -390.168 5.90055 -1.97229 
v -390.168 5.90055 -1.89199 
v -389.82 5.90055 -1.89199 
v -390.052 5.9539 -1.76232 
v -389.991 6.07123 -1.96503 
v -389.997 6.07123 -1.96503 
v -389.936 5.9539 -1.76232 
v -390.033 6.02963 -0.123007 
v -390.11 6.11097 -0.152165 
v -389.991 6.07123 -2.0862 
v -390.052 5.9539 -2.11625 
v -389.82 5.90055 -1.97229 
v -389.82 5.68685 -1.64029 
v -389.82 5.90055 -1.70029 
v -389.82 5.68685 -1.55999 
v -389.82 5.68685 -1.83199 
v -389.82 5.68685 -1.64029 
v -389.82 5.90055 -1.61999 
v -389.82 5.68685 -1.55999 
v -389.82 5.90055 -1.70029 
v -389.82 5.68685 -1.77829 
v -389.82 5.90055 -1.75799 
v -389.82 5.68685 -1.69799 
v -389.82 5.90055 -1.83829 
v -389.82 5.68685 -1.91229 
v -389.82 5.90055 -1.89199 
v -389.82 5.68685 -1.83199 
v -389.82 5.90055 -1.97229 
v -389.877 6.07951 -0.421489 
v -389.877 5.95368 -0.123007 
v -389.877 5.95368 -0.454485 
v -389.877 6.02963 -0.454485 
v -389.877 6.02963 -0.123007 
v -389.877 6.11097 -0.152165 
v -390.11 6.07951 -0.421489 
v -389.936 5.9539 -1.76232 
v -389.936 5.9539 -2.11625 
v -389.991 6.07123 -1.96503 
v -389.991 6.07123 -2.0862 
v -390.052 5.9539 -1.76232 
v -390.033 6.07951 -0.421489 
v -390.033 6.02963 -0.123007 
v -390.033 6.02963 -0.454485 
v -390.033 6.11097 -0.152165 
v -390.11 5.95368 -0.123007 
v -390.033 6.02963 -0.123007 
v -390.11 6.02963 -0.123007 
v -389.877 5.95368 -0.123007 
v -390.033 6.11097 -0.152165 
v -390.11 6.11097 -0.152165 
v -389.955 6.02963 -0.123007 
v -389.877 6.02963 -0.123007 
v -389.877 6.11097 -0.152165 
v -389.955 6.11097 -0.152165 
v -390.168 5.90055 -1.83829 
v -390.168 5.90055 -1.70029 
v -389.82 5.68685 -1.64029 
v -389.82 5.90055 -1.70029 
v -389.82 5.68685 -1.55999 
v -390.168 5.68685 -1.55999 
v -390.168 5.68685 -1.69799 
v -389.82 5.68685 -1.83199 
v -390.168 5.68685 -1.83199 
v -389.82 5.90055 -1.89199 
v -389.877 6.02963 -0.454485 
v -390.11 6.07951 -0.421489 
v -390.033 6.02963 -0.454485 
v -390.168 5.68685 -1.55999 
v -389.82 5.90055 -1.61999 
v -390.168 5.90055 -1.61999 
v -389.82 5.68685 -1.55999 
v -390.168 5.68685 -1.69799 
v -389.82 5.90055 -1.75799 
v -390.168 5.90055 -1.75799 
v -389.82 5.68685 -1.69799 
v -390.168 5.68685 -1.83199 
v -389.82 5.90055 -1.89199 
v -390.168 5.90055 -1.89199 
v -389.82 5.68685 -1.83199 
v -390.168 5.90055 -1.97229 
v -389.82 5.90055 -1.97229 
v -389.82 5.68685 -1.64029 
v -389.82 5.68685 -1.55999 
v -390.168 5.68685 -1.55999 
v -390.168 5.68685 -1.64029 
v -389.82 5.68685 -1.64029 
v -389.82 5.68685 -1.69799 
v -390.168 5.68685 -1.69799 
v -390.168 5.68685 -1.77829 
v -389.82 5.68685 -1.77829 
v -389.82 5.68685 -1.83199 
v -390.168 5.68685 -1.83199 
v -390.168 5.68685 -1.91229 
v -389.82 5.68685 -1.91229 
v -390.052 5.9539 -1.76232 
v -390.052 5.9539 -2.11625 
v -389.936 5.9539 -2.11625 
v -389.936 5.9539 -1.76232 
v -389.991 6.07123 -2.0862 
v -390.052 5.9539 -2.11625 
v -390.168 5.90055 -1.97229 
v -390.168 5.90055 -1.83829 
v -390.168 5.90055 -1.70029 
v -390.168 5.68685 -1.55999 
v -390.168 5.68685 -1.69799 
v -390.168 5.68685 -1.83199 
v -390.168 5.90055 -1.70029 
v -390.168 5.68685 -1.64029 
v -390.168 5.90055 -1.61999 
v -390.168 5.68685 -1.55999 
v -390.168 5.90055 -1.83829 
v -390.168 5.68685 -1.77829 
v -390.168 5.90055 -1.75799 
v -390.168 5.68685 -1.69799 
v -390.168 5.90055 -1.97229 
v -390.168 5.68685 -1.91229 
v -390.168 5.90055 -1.89199 
v -390.168 5.68685 -1.83199 
v -390.11 6.07951 -0.421489 
v -390.11 5.95368 -0.454485 
v -390.11 5.95368 -0.123007 
v -390.11 6.02963 -0.454485 
v -390.11 6.02963 -0.123007 
v -390.11 6.11097 -0.152165 
v -390.052 5.9539 -2.11625 
v -389.997 6.07123 -1.96503 
v -389.997 6.07123 -2.0862 
v -390.052 5.9539 -1.76232 
v -389.955 6.02963 -0.123007 
v -389.955 6.07951 -0.421489 
v -389.955 6.02963 -0.454485 
v -389.955 6.07951 -0.421489 
v -389.955 6.02963 -0.123007 
v -389.955 6.11097 -0.152165 

vn 0 0.110236 0.992126 
vn 0 0.338583 0.944882 
vn 0 0.338583 0.944882 
vn 0 0.244094 -0.968504 
vn 0 0.244094 -0.968504 
vn 0 0.244094 -0.968504 
vn 0 0.244094 -0.968504 
vn 0 -0.267717 -0.96063 
vn 0 -0.267717 -0.96063 
vn 0 -0.267717 -0.96063 
vn 0 -0.267717 -0.96063 
vn 0 -0.267717 -0.96063 
vn 0 -0.267717 -0.96063 
vn 0 -0.267717 -0.96063 
vn 0 -0.267717 -0.96063 
vn 0 -0.267717 -0.96063 
vn 0 -0.267717 -0.96063 
vn 0 -0.267717 -0.96063 
vn 0 -0.267717 -0.96063 
vn 0 -1 0 
vn 0 -1 0 
vn 0 -1 0 
vn 1 0 0 
vn 0 0 -1 
vn 0 0.188976 -0.984252 
vn 0 0.291339 -0.96063 
vn 0 0 -1 
vn 0 0.551181 -0.834646 
vn 0 0.551181 -0.834646 
vn 0 0.188976 -0.984252 
vn 0 0.291339 -0.96063 
vn 0 0.551181 -0.834646 
vn 0 0.551181 -0.834646 
vn 0 0.110236 0.992126 
vn 0 0.338583 0.944882 
vn 0 0.338583 0.944882 
vn 0 -0.267717 -0.96063 
vn 0 -0.267717 -0.96063 
vn 0 -0.267717 -0.96063 
vn 0 -0.267717 -0.96063 
vn 0 -0.267717 -0.96063 
vn 0 -1 0 
vn 0 -1 0 
vn 1 0 0 
vn 0 1 0 
vn 0 1 0 
vn 0 1 0 
vn 0 1 0 
vn 1 0 0 
vn -1 0 0 
vn 0 1 0 
vn 0 1 0 
vn 0 1 0 
vn 0 1 0 
vn 0 0.992126 -0.11811 
vn 0 0.992126 -0.11811 
vn 0 0.992126 -0.11811 
vn 0 0.992126 -0.11811 
vn 0 0.992126 -0.11811 
vn 0 0.992126 -0.11811 
vn 0 0.992126 -0.11811 
vn 0 0.992126 -0.11811 
vn 0 1 0 
vn 0 1 0 
vn 0 1 0 
vn 0 1 0 
vn 0 1 0 
vn 0 1 0 
vn 0 1 0 
vn 0 1 0 
vn 0 1 0 
vn 0 1 0 
vn 0 1 0 
vn 0 1 0 
vn 0 0.866142 0.503937 
vn 0 0.866142 0.503937 
vn 0 0.866142 0.503937 
vn 0 0.866142 0.503937 
vn 0 0.110236 0.992126 
vn 0 0.338583 0.944882 
vn 0 0.244094 -0.968504 
vn 0 0.244094 -0.968504 
vn 0 -0.267717 -0.96063 
vn 0 -0.267717 -0.96063 
vn 0 -0.267717 -0.96063 
vn 0 -1 0 
vn 0 -1 0 
vn 1 0 0 
vn 1 0 0 
vn 1 0 0 
vn 1 0 0 
vn 1 0 0 
vn 1 0 0 
vn 1 0 0 
vn 1 0 0 
vn 1 0 0 
vn 1 0 0 
vn 1 0 0 
vn 1 0 0 
vn 1 0 0 
vn 1 0 0 
vn 1 0 0 
vn 1 0 0 
vn 1 0 0 
vn 1 0 0 
vn -1 0 0 
vn 0.905512 0.425197 0 
vn 0.905512 0.425197 0 
vn 0.905512 0.425197 0 
vn 0.905512 0.425197 0 
vn -0.905512 0.425197 0 
vn 1 0 0 
vn 1 0 0 
vn 1 0 0 
vn 1 0 0 
vn 0 0 1 
vn 0 0.110236 0.992126 
vn 0 0.173228 0.984252 
vn 0 0 1 
vn 0 0.338583 0.944882 
vn 0 0.338583 0.944882 
vn 0 0.110236 0.992126 
vn 0 0.173228 0.984252 
vn 0 0.338583 0.944882 
vn 0 0.338583 0.944882 
vn 0 -0.267717 -0.96063 
vn 0 -0.267717 -0.96063 
vn 0 -0.267717 -0.96063 
vn 0 -0.267717 -0.96063 
vn 0 -1 0 
vn 0 -1 0 
vn 0 -1 0 
vn 0 -1 0 
vn 0 -1 0 
vn 1 0 0 
vn 1 0 0 
vn -1 0 0 
vn 0 1 0 
vn 0 0.267717 0.96063 
vn 0 0.267717 0.96063 
vn 0 0.267717 0.96063 
vn 0 0.267717 0.96063 
vn 0 0.267717 0.96063 
vn 0 0.267717 0.96063 
vn 0 0.267717 0.96063 
vn 0 0.267717 0.96063 
vn 0 0.267717 0.96063 
vn 0 0.267717 0.96063 
vn 0 0.267717 0.96063 
vn 0 0.267717 0.96063 
vn 0 -0.267717 -0.96063 
vn 0 -0.267717 -0.96063 
vn 0 -0.267717 -0.96063 
vn 0 -1 0 
vn 0 -1 0 
vn 0 -1 0 
vn 0 -1 0 
vn 0 -1 0 
vn 0 -1 0 
vn 0 -1 0 
vn 0 -1 0 
vn 0 -1 0 
vn 0 -1 0 
vn 0 -1 0 
vn 0 -1 0 
vn 0 -1 0 
vn 0 -1 0 
vn 0 -1 0 
vn 0 -1 0 
vn 0 0.244094 -0.968504 
vn 0 0.244094 -0.968504 
vn 0 -0.267717 -0.96063 
vn 0 -0.267717 -0.96063 
vn 0 -0.267717 -0.96063 
vn 0 -1 0 
vn 0 -1 0 
vn 0 -1 0 
vn -1 0 0 
vn -1 0 0 
vn -1 0 0 
vn -1 0 0 
vn -1 0 0 
vn -1 0 0 
vn -1 0 0 
vn -1 0 0 
vn -1 0 0 
vn -1 0 0 
vn -1 0 0 
vn -1 0 0 
vn -1 0 0 
vn -1 0 0 
vn -1 0 0 
vn -1 0 0 
vn -1 0 0 
vn -1 0 0 
vn -0.905512 0.425197 0 
vn -0.905512 0.425197 0 
vn -0.905512 0.425197 0 
vn -0.905512 0.425197 0 
vn -1 0 0 
vn -1 0 0 
vn -1 0 0 
vn -1 0 0 
vn -1 0 0 
vn -1 0 0 

vt 10.0049 -6.98366 
vt 10.0146 -6.97349 
vt 9.98545 -6.97349 
vt 9.99966 -6.97846 
vt 10.0072 -6.99313 
vt 10.0003 -6.97846 
vt 9.99279 -6.99313 
vt 10.0218 -7.02651 
vt 10.0218 -6.9998 
vt 9.97824 -7.02651 
vt 9.97824 -6.9998 
vt 10.0218 -7.02651 
vt 10.0218 -6.9998 
vt 9.97824 -7.02651 
vt 9.97824 -6.9998 
vt 10.0218 -7.02651 
vt 10.0218 -6.9998 
vt 9.97824 -7.02651 
vt 9.97824 -6.9998 
vt 10.0218 -7.02651 
vt 9.97824 -7.02651 
vt 10.0218 -7.02651 
vt 9.97824 -6.9998 
vt 9.98545 -6.99315 
vt 9.99515 -6.98366 
vt 9.98545 -6.98366 
vt 10.0146 -6.99315 
vt 9.99515 -6.97743 
vt 9.98545 -6.97743 
vt 10.0049 -6.98366 
vt 10.0146 -6.98366 
vt 10.0146 -6.97743 
vt 10.0049 -6.97743 
vt 10.1246 -7.00485 
vt 10.1209 -7.00485 
vt 10.1209 -6.98545 
vt 9.89342 -7.02176 
vt 9.89342 -6.97824 
vt 9.91017 -7.02176 
vt 9.92742 -7.02176 
vt 9.92742 -6.97824 
vt 9.9277 -6.97824 
vt 9.9277 -7.02176 
vt 9.90345 -6.97824 
vt 9.87918 -7.00034 
vt 9.89433 -7.00034 
vt 9.89433 -6.99966 
vt 9.87918 -6.99966 
vt 10.0831 -6.98545 
vt 10.0873 -7.01455 
vt 10.0831 -7.00485 
vt 10.1246 -7.00485 
vt 10.1246 -6.99515 
vt 10.0831 -6.99515 
vt 10.0873 -7.01455 
vt 10.1209 -7.01455 
vt 10.1209 -7.00485 
vt 10.0873 -7.00485 
vt 10.0873 -6.99515 
vt 10.1209 -6.99515 
vt 10.1209 -6.98545 
vt 10.0873 -6.98545 
vt 9.92742 -6.97824 
vt 9.92742 -7.02176 
vt 9.93746 -7.02176 
vt 9.93746 -6.97824 
vt 9.91017 -6.97824 
vt 9.91017 -7.02176 
vt 9.92021 -7.02176 
vt 9.92021 -6.97824 
vt 9.89342 -6.97824 
vt 9.89342 -7.02176 
vt 9.90345 -7.02176 
vt 9.90345 -6.97824 
vt 9.91966 -7.00721 
vt 9.89433 -6.99966 
vt 9.89433 -7.00034 
vt 9.91966 -6.99279 
vt 9.87542 -6.98366 
vt 9.87907 -6.97349 
vt 10.1208 -6.97846 
vt 10.1246 -6.99313 
vt 10.1066 -6.9998 
vt 10.0651 -7.02651 
vt 10.0726 -6.9998 
vt 10.055 -7.02651 
vt 10.089 -7.02651 
vt 10.0651 -7.02651 
vt 10.0625 -6.9998 
vt 10.055 -7.02651 
vt 10.0726 -6.9998 
vt 10.0823 -7.02651 
vt 10.0798 -6.9998 
vt 10.0723 -7.02651 
vt 10.0898 -6.9998 
vt 10.0991 -7.02651 
vt 10.0965 -6.9998 
vt 10.089 -7.02651 
vt 10.1066 -6.9998 
vt 9.91273 -6.97743 
vt 9.87542 -6.99315 
vt 9.91686 -6.99315 
vt 9.91686 -6.98366 
vt 9.87542 -6.98366 
vt 9.87907 -6.97349 
vt 9.91273 -6.97743 
vt 10.0803 -6.99313 
vt 10.1246 -6.99313 
vt 10.1057 -6.97846 
vt 10.1208 -6.97846 
vt 10.0803 -6.99313 
vt 9.91273 -6.97743 
vt 9.87542 -6.98366 
vt 9.91686 -6.98366 
vt 9.87907 -6.97349 
vt 9.98545 -6.99315 
vt 9.99515 -6.98366 
vt 9.98545 -6.98366 
vt 10.0146 -6.99315 
vt 9.99515 -6.97349 
vt 9.98545 -6.97349 
vt 10.0049 -6.98366 
vt 10.0146 -6.98366 
vt 10.0146 -6.97349 
vt 10.0049 -6.97349 
vt 9.97824 -6.9998 
vt 9.97824 -6.9998 
vt 10.0218 -7.02651 
vt 10.0218 -6.9998 
vt 10.0218 -7.02651 
vt 9.97824 -7.02651 
vt 9.97824 -7.02651 
vt 10.0218 -7.02651 
vt 9.97824 -7.02651 
vt 10.0218 -6.9998 
vt 10.0146 -6.98366 
vt 9.98545 -6.97743 
vt 9.99515 -6.98366 
vt 9.97824 -7.02651 
vt 10.0218 -6.9998 
vt 9.97824 -6.9998 
vt 10.0218 -7.02651 
vt 9.97824 -7.02651 
vt 10.0218 -6.9998 
vt 9.97824 -6.9998 
vt 10.0218 -7.02651 
vt 9.97824 -7.02651 
vt 10.0218 -6.9998 
vt 9.97824 -6.9998 
vt 10.0218 -7.02651 
vt 10.1066 -7.02176 
vt 10.1066 -6.97824 
vt 10.0651 -6.97824 
vt 10.055 -6.97824 
vt 10.055 -7.02176 
vt 10.0651 -7.02176 
vt 10.0651 -6.97824 
vt 10.0723 -6.97824 
vt 10.0723 -7.02176 
vt 10.0823 -7.02176 
vt 10.0823 -6.97824 
vt 10.089 -6.97824 
vt 10.089 -7.02176 
vt 10.0991 -7.02176 
vt 10.0991 -6.97824 
vt 10.0803 -7.00721 
vt 10.1246 -7.00721 
vt 10.1246 -6.99279 
vt 10.0803 -6.99279 
vt 9.87918 -6.97846 
vt 9.87542 -6.99313 
vt 9.89342 -6.9998 
vt 9.91017 -6.9998 
vt 9.92742 -6.9998 
vt 9.94495 -7.02651 
vt 9.9277 -7.02651 
vt 9.91096 -7.02651 
vt 9.92742 -6.9998 
vt 9.93492 -7.02651 
vt 9.93746 -6.9998 
vt 9.94495 -7.02651 
vt 9.91017 -6.9998 
vt 9.91767 -7.02651 
vt 9.92021 -6.9998 
vt 9.9277 -7.02651 
vt 9.89342 -6.9998 
vt 9.90092 -7.02651 
vt 9.90345 -6.9998 
vt 9.91096 -7.02651 
vt 10.0873 -6.97743 
vt 10.0831 -6.99315 
vt 10.1246 -6.99315 
vt 10.0831 -6.98366 
vt 10.1246 -6.98366 
vt 10.1209 -6.97349 
vt 9.87542 -6.99313 
vt 9.89433 -6.97846 
vt 9.87918 -6.97846 
vt 9.91966 -6.99313 
vt 10.1246 -6.98366 
vt 10.0873 -6.97743 
vt 10.0831 -6.98366 
vt 10.0873 -6.97743 
vt 10.1246 -6.98366 
vt 10.1209 -6.97349 

usemtl Meshpart1Mtl

f 704/704/704 705/705/705 706/706/706 
f 705/705/705 704/704/704 707/707/707 
f 708/708/708 709/709/709 710/710/710 
f 709/709/709 711/711/711 710/710/710 
f 712/712/712 713/713/713 714/714/714 
f 713/713/713 715/715/715 714/714/714 
f 716/716/716 717/717/717 718/718/718 
f 717/717/717 719/719/719 718/718/718 
f 724/724/724 725/725/725 726/726/726 
f 727/727/727 725/725/725 724/724/724 
f 728/728/728 726/726/726 725/725/725 
f 726/726/726 728/728/728 729/729/729 
f 725/725/725 727/727/727 730/730/730 
f 727/727/727 731/731/731 730/730/730 
f 732/732/732 730/730/730 731/731/731 
f 730/730/730 732/732/732 733/733/733 
f 745/745/745 746/746/746 747/747/747 
f 745/745/745 747/747/747 748/748/748 
f 751/751/751 752/752/752 753/753/753 
f 751/751/751 753/753/753 754/754/754 
f 755/755/755 756/756/756 757/757/757 
f 755/755/755 757/757/757 758/758/758 
f 759/759/759 760/760/760 761/761/761 
f 759/759/759 761/761/761 762/762/762 
f 763/763/763 764/764/764 765/765/765 
f 765/765/765 766/766/766 763/763/763 
f 767/767/767 768/768/768 769/769/769 
f 769/769/769 770/770/770 767/767/767 
f 771/771/771 772/772/772 773/773/773 
f 773/773/773 774/774/774 771/771/771 
f 775/775/775 776/776/776 777/777/777 
f 776/776/776 775/775/775 778/778/778 
f 788/788/788 789/789/789 790/790/790 
f 789/789/789 788/788/788 791/791/791 
f 792/792/792 793/793/793 794/794/794 
f 793/793/793 792/792/792 795/795/795 
f 796/796/796 797/797/797 798/798/798 
f 797/797/797 796/796/796 799/799/799 
f 800/800/800 801/801/801 802/802/802 
f 800/800/800 802/802/802 803/803/803 
f 801/801/801 800/800/800 804/804/804 
f 804/804/804 800/800/800 805/805/805 
f 807/807/807 808/808/808 809/809/809 
f 808/808/808 810/810/810 809/809/809 
f 812/812/812 813/813/813 814/814/814 
f 813/813/813 812/812/812 815/815/815 
f 816/816/816 817/817/817 818/818/818 
f 819/819/819 817/817/817 816/816/816 
f 818/818/818 817/817/817 820/820/820 
f 821/821/821 818/818/818 820/820/820 
f 817/817/817 819/819/819 822/822/822 
f 823/823/823 822/822/822 819/819/819 
f 822/822/822 823/823/823 824/824/824 
f 825/825/825 822/822/822 824/824/824 
f 839/839/839 840/840/840 841/841/841 
f 840/840/840 839/839/839 842/842/842 
f 843/843/843 844/844/844 845/845/845 
f 844/844/844 843/843/843 846/846/846 
f 847/847/847 848/848/848 849/849/849 
f 848/848/848 847/847/847 850/850/850 
f 854/854/854 855/855/855 856/856/856 
f 856/856/856 857/857/857 854/854/854 
f 858/858/858 859/859/859 860/860/860 
f 860/860/860 861/861/861 858/858/858 
f 862/862/862 863/863/863 864/864/864 
f 864/864/864 865/865/865 862/862/862 
f 866/866/866 867/867/867 868/868/868 
f 866/866/866 868/868/868 869/869/869 
f 878/878/878 879/879/879 880/880/880 
f 880/880/880 879/879/879 881/881/881 
f 882/882/882 883/883/883 884/884/884 
f 884/884/884 883/883/883 885/885/885 
f 886/886/886 887/887/887 888/888/888 
f 888/888/888 887/887/887 889/889/889 
f 890/890/890 891/891/891 892/892/892 
f 891/891/891 890/890/890 893/893/893 
f 894/894/894 890/890/890 892/892/892 
f 890/890/890 894/894/894 895/895/895 
f 896/896/896 897/897/897 898/898/898 
f 897/897/897 896/896/896 899/899/899 
f 900/900/900 901/901/901 902/902/902 
f 903/903/903 904/904/904 905/905/905 

