# This file is brought to you by Roblox Corporation
# Generated by Roblox Studio

mtllib Giant Pencil.mtl

g Meshpart51

v -50.0173 0.0961262 20 
v -49.9853 0.0961262 20.0983 
v -50.0309 0.415104 20 
v -49.9964 0.415104 20.1063 
v -49.6828 0.0961262 20 
v -49.7148 0.0961262 20.0983 
v -49.7037 0.415104 20.1063 
v -49.689 0.133832 20.117 
v -49.689 0.375568 20.117 
v -49.7885 0.375568 20.1893 
v -49.7885 0.133832 20.1893 
v -49.7984 0.0961262 20.159 
v -49.7941 0.415104 20.172 
v -49.9115 0.133832 20.1893 
v -49.9017 0.0961262 20.159 
v -49.9115 0.375568 20.1893 
v -49.9059 0.415104 20.172 
v -50.011 0.133832 20.117 
v -50.011 0.375568 20.117 
v -49.9853 0.0961262 19.9017 
v -50.0173 0.0961262 20 
v -50.049 0.133832 20 
v -49.9853 0.0961262 20.0983 
v -50.011 0.133832 19.883 
v -49.9115 0.133832 19.8107 
v -50.049 0.375568 20 
v -50.011 0.375568 19.883 
v -49.9964 0.415104 19.8937 
v -50.0309 0.415104 20 
v -49.9059 0.415104 19.828 
v -49.9964 0.415104 20.1063 
v -49.9017 0.0961262 20.159 
v -50.011 0.133832 20.117 
v -50.011 0.375568 20.117 
v -49.9853 0.0961262 19.9017 
v -50.0173 0.0961262 20 
v -50.011 0.133832 19.883 
v -49.9115 0.133832 19.8107 
v -49.9017 0.0961262 19.841 
v -49.7885 0.133832 19.8107 
v -49.7984 0.0961262 19.841 
v -50.011 0.375568 19.883 
v -49.7148 0.0961262 19.9017 
v -49.9115 0.375568 19.8107 
v -49.9964 0.415104 19.8937 
v -50.0309 0.415104 20 
v -49.9059 0.415104 19.828 
v -49.7885 0.375568 19.8107 
v -49.7941 0.415104 19.828 
v -49.7037 0.415104 19.8937 
v -49.689 0.133832 19.883 
v -49.689 0.375568 19.883 
v -49.7148 0.0961262 20.0983 
v -49.7148 0.0961262 19.9017 
v -49.6828 0.0961262 20 
v -49.7984 0.0961262 19.841 
v -49.9017 0.0961262 19.841 
v -49.9853 0.0961262 20.0983 
v -49.9853 0.0961262 19.9017 
v -50.0173 0.0961262 20 
v -49.9017 0.0961262 20.159 
v -49.7984 0.0961262 20.159 
v -49.7885 0.133832 19.8107 
v -49.7984 0.0961262 19.841 
v -49.7148 0.0961262 19.9017 
v -49.7941 0.415104 19.828 
v -49.7037 0.415104 19.8937 
v -49.689 0.133832 19.883 
v -49.689 0.375568 19.883 
v -49.651 0.133832 20 
v -49.6828 0.0961262 20 
v -49.651 0.375568 20 
v -49.6691 0.415104 20 
v -49.7148 0.0961262 20.0983 
v -49.7037 0.415104 20.1063 
v -49.689 0.133832 20.117 
v -49.689 0.375568 20.117 

vn -0.76378 -0.645669 0 
vn -0.622047 -0.645669 0.448819 
vn -0.913386 0.417323 0 
vn -0.732283 0.417323 0.535433 
vn 0.76378 -0.645669 0 
vn 0.622047 -0.645669 0.448819 
vn 0.732283 0.417323 0.535433 
vn 0.80315 -0.0787402 0.582677 
vn 0.80315 0.0708661 0.582677 
vn 0.307087 0.0708661 0.944882 
vn 0.307087 -0.0787402 0.944882 
vn 0.23622 -0.645669 0.724409 
vn 0.283465 0.417323 0.866142 
vn -0.307087 -0.0787402 0.944882 
vn -0.23622 -0.645669 0.724409 
vn -0.307087 0.0708661 0.944882 
vn -0.283465 0.417323 0.866142 
vn -0.80315 -0.0787402 0.582677 
vn -0.80315 0.0708661 0.582677 
vn -0.622047 -0.645669 -0.448819 
vn -0.76378 -0.645669 0 
vn -1 -0.0787402 0 
vn -0.622047 -0.645669 0.448819 
vn -0.80315 -0.0787402 -0.582677 
vn -0.307087 -0.0787402 -0.944882 
vn -1 0.0708661 0 
vn -0.811024 0.0708661 -0.582677 
vn -0.732283 0.417323 -0.535433 
vn -0.913386 0.417323 0 
vn -0.283465 0.417323 -0.866142 
vn -0.732283 0.417323 0.535433 
vn -0.23622 -0.645669 0.724409 
vn -0.80315 -0.0787402 0.582677 
vn -0.80315 0.0708661 0.582677 
vn -0.622047 -0.645669 -0.448819 
vn -0.76378 -0.645669 0 
vn -0.80315 -0.0787402 -0.582677 
vn -0.307087 -0.0787402 -0.944882 
vn -0.23622 -0.645669 -0.724409 
vn 0.307087 -0.0787402 -0.944882 
vn 0.23622 -0.645669 -0.724409 
vn -0.811024 0.0708661 -0.582677 
vn 0.622047 -0.645669 -0.448819 
vn -0.307087 0.0708661 -0.944882 
vn -0.732283 0.417323 -0.535433 
vn -0.913386 0.417323 0 
vn -0.283465 0.417323 -0.866142 
vn 0.307087 0.0708661 -0.944882 
vn 0.283465 0.417323 -0.866142 
vn 0.732283 0.417323 -0.535433 
vn 0.80315 -0.0787402 -0.582677 
vn 0.811024 0.0708661 -0.582677 
vn 0 -1 0 
vn 0 -1 0 
vn 0 -1 0 
vn 0 -1 0 
vn 0 -1 0 
vn 0 -1 0 
vn 0 -1 0 
vn 0 -1 0 
vn 0 -1 0 
vn 0 -1 0 
vn 0.307087 -0.0787402 -0.944882 
vn 0.23622 -0.645669 -0.724409 
vn 0.622047 -0.645669 -0.448819 
vn 0.283465 0.417323 -0.866142 
vn 0.732283 0.417323 -0.535433 
vn 0.80315 -0.0787402 -0.582677 
vn 0.811024 0.0708661 -0.582677 
vn 1 -0.0787402 0 
vn 0.76378 -0.645669 0 
vn 1 0.0708661 0 
vn 0.913386 0.417323 0 
vn 0.622047 -0.645669 0.448819 
vn 0.732283 0.417323 0.535433 
vn 0.80315 -0.0787402 0.582677 
vn 0.80315 0.0708661 0.582677 

vt 37.9791 -27.0199 
vt 37.9831 -27.0199 
vt 37.9774 -26.9801 
vt 37.9817 -26.9801 
vt 38.0209 -27.0199 
vt 38.0169 -27.0199 
vt 38.0183 -26.9801 
vt 38.0201 -27.0152 
vt 38.0201 -26.985 
vt 38.0077 -26.985 
vt 38.0077 -27.0152 
vt 38.0065 -27.0199 
vt 38.007 -26.9801 
vt 37.9923 -27.0152 
vt 37.9935 -27.0199 
vt 37.9923 -26.985 
vt 37.993 -26.9801 
vt 37.9799 -27.0152 
vt 37.9799 -26.985 
vt 37.9877 -27.0199 
vt 38 -27.0199 
vt 38 -27.0152 
vt 38.0123 -27.0199 
vt 37.9854 -27.0152 
vt 37.9763 -27.0152 
vt 38 -26.985 
vt 37.9854 -26.985 
vt 37.9867 -26.9801 
vt 38 -26.9801 
vt 37.9785 -26.9801 
vt 38.0133 -26.9801 
vt 38.0199 -27.0199 
vt 38.0146 -27.0152 
vt 38.0146 -26.985 
vt 38.0169 -27.0199 
vt 38.0209 -27.0199 
vt 38.0201 -27.0152 
vt 38.0077 -27.0152 
vt 38.0065 -27.0199 
vt 37.9923 -27.0152 
vt 37.9935 -27.0199 
vt 38.0201 -26.985 
vt 37.9831 -27.0199 
vt 38.0077 -26.985 
vt 38.0183 -26.9801 
vt 38.0226 -26.9801 
vt 38.007 -26.9801 
vt 37.9923 -26.985 
vt 37.993 -26.9801 
vt 37.9817 -26.9801 
vt 37.9799 -27.0152 
vt 37.9799 -26.985 
vt 38.0123 -27.0169 
vt 37.9877 -27.0169 
vt 38 -27.0209 
vt 37.9801 -27.0065 
vt 37.9801 -26.9935 
vt 38.0123 -26.9831 
vt 37.9877 -26.9831 
vt 38 -26.9791 
vt 38.0199 -26.9935 
vt 38.0199 -27.0065 
vt 38.0237 -27.0152 
vt 38.0199 -27.0199 
vt 38.0123 -27.0199 
vt 38.0215 -26.9801 
vt 38.0133 -26.9801 
vt 38.0146 -27.0152 
vt 38.0146 -26.985 
vt 38 -27.0152 
vt 38 -27.0199 
vt 38 -26.985 
vt 38 -26.9801 
vt 37.9877 -27.0199 
vt 37.9867 -26.9801 
vt 37.9854 -27.0152 
vt 37.9854 -26.985 

usemtl Meshpart51Mtl

f 10/10/10 9/9/9 7/7/7 
f 11/11/11 6/6/6 8/8/8 
f 8/8/8 9/9/9 11/11/11 
f 10/10/10 11/11/11 9/9/9 
f 6/6/6 11/11/11 12/12/12 
f 7/7/7 13/13/13 10/10/10 
f 14/14/14 12/12/12 11/11/11 
f 11/11/11 10/10/10 14/14/14 
f 12/12/12 14/14/14 15/15/15 
f 2/2/2 15/15/15 14/14/14 
f 16/16/16 10/10/10 13/13/13 
f 16/16/16 14/14/14 10/10/10 
f 13/13/13 17/17/17 16/16/16 
f 4/4/4 16/16/16 17/17/17 
f 14/14/14 18/18/18 2/2/2 
f 14/14/14 16/16/16 18/18/18 
f 16/16/16 4/4/4 19/19/19 
f 19/19/19 18/18/18 16/16/16 
f 20/20/20 21/21/21 22/22/22 
f 23/23/23 22/22/22 21/21/21 
f 22/22/22 24/24/24 20/20/20 
f 22/22/22 26/26/26 24/24/24 
f 24/24/24 26/26/26 27/27/27 
f 26/26/26 28/28/28 27/27/27 
f 28/28/28 26/26/26 29/29/29 
f 26/26/26 31/31/31 29/29/29 
f 22/22/22 23/23/23 33/33/33 
f 33/33/33 34/34/34 22/22/22 
f 26/26/26 34/34/34 31/31/31 
f 22/22/22 34/34/34 26/26/26 
f 38/38/38 35/35/35 37/37/37 
f 35/35/35 38/38/38 39/39/39 
f 40/40/40 39/39/39 38/38/38 
f 39/39/39 40/40/40 41/41/41 
f 42/42/42 38/38/38 37/37/37 
f 40/40/40 43/43/43 41/41/41 
f 44/44/44 40/40/40 38/38/38 
f 38/38/38 42/42/42 44/44/44 
f 44/44/44 42/42/42 45/45/45 
f 44/44/44 45/45/45 47/47/47 
f 47/47/47 48/48/48 44/44/44 
f 40/40/40 44/44/44 48/48/48 
f 48/48/48 47/47/47 49/49/49 
f 50/50/50 48/48/48 49/49/49 
f 48/48/48 51/51/51 40/40/40 
f 43/43/43 40/40/40 51/51/51 
f 48/48/48 50/50/50 52/52/52 
f 51/51/51 48/48/48 52/52/52 
f 53/53/53 54/54/54 55/55/55 
f 54/54/54 53/53/53 56/56/56 
f 53/53/53 57/57/57 56/56/56 
f 53/53/53 58/58/58 57/57/57 
f 58/58/58 59/59/59 57/57/57 
f 59/59/59 58/58/58 60/60/60 
f 58/58/58 53/53/53 61/61/61 
f 61/61/61 53/53/53 62/62/62 
f 70/70/70 65/65/65 68/68/68 
f 69/69/69 70/70/70 68/68/68 
f 65/65/65 70/70/70 71/71/71 
f 67/67/67 72/72/72 69/69/69 
f 70/70/70 69/69/69 72/72/72 
f 67/67/67 73/73/73 72/72/72 
f 70/70/70 74/74/74 71/71/71 
f 75/75/75 72/72/72 73/73/73 
f 70/70/70 76/76/76 74/74/74 
f 72/72/72 76/76/76 70/70/70 
f 72/72/72 75/75/75 77/77/77 
f 76/76/76 72/72/72 77/77/77 

g Meshpart41

v -49.7022 9.39513 20.1074 
v -49.7022 0.883621 20.1074 
v -49.7936 0.883621 20.1738 
v -49.7936 9.45934 20.1738 
v -49.7936 0.883621 20.1738 
v -49.7936 9.45934 20.1738 
v -49.9065 9.39513 20.1738 
v -49.9065 0.883621 20.1738 
v -49.9979 0.883621 20.1074 
v -49.9979 9.49675 20.1074 
v -49.9979 0.883621 19.8926 
v -50.0328 9.39513 20 
v -49.9979 9.49675 19.8926 
v -50.0328 0.883621 20 
v -49.9979 0.883621 20.1074 
v -49.9979 9.49675 20.1074 
v -49.9065 9.39513 19.8262 
v -49.9065 0.883621 19.8262 
v -49.9979 0.883621 19.8926 
v -49.9979 9.49675 19.8926 
v -49.7936 0.883621 19.8262 
v -49.7936 9.49675 19.8262 
v -49.7022 9.39513 19.8926 
v -49.7022 0.883621 19.8926 
v -49.7936 0.883621 19.8262 
v -49.7936 9.49675 19.8262 
v -49.7022 9.39513 19.8926 
v -49.7022 0.883621 19.8926 
v -49.6673 0.883621 20 
v -49.6673 9.49675 20 
v -49.6673 0.883621 20 
v -49.6673 9.49675 20 
v -49.7022 9.39513 20.1074 
v -49.7022 0.883621 20.1074 

vn 0.811024 0 0.582677 
vn 0.811024 0 0.590551 
vn 0.590551 0 0.811024 
vn 0.590551 0 0.811024 
vn 0 0 1 
vn 0 0 1 
vn -0.314961 0 0.952756 
vn -0.307087 0 0.952756 
vn -0.590551 0 0.811024 
vn -0.590551 0 0.811024 
vn -0.952756 0 -0.307087 
vn -1 0 0 
vn -0.952756 0 -0.307087 
vn -1 0 0 
vn -0.952756 0 0.307087 
vn -0.952756 0 0.307087 
vn -0.307087 0 -0.952756 
vn -0.307087 0 -0.952756 
vn -0.590551 0 -0.811024 
vn -0.590551 0 -0.811024 
vn 0 0 -1 
vn 0 0 -1 
vn 0.811024 0 -0.590551 
vn 0.811024 0 -0.590551 
vn 0.590551 0 -0.811024 
vn 0.590551 0 -0.811024 
vn 0.811024 0 -0.590551 
vn 0.811024 0 -0.590551 
vn 0.952756 0 -0.307087 
vn 0.952756 0 -0.307087 
vn 0.952756 0 0.307087 
vn 0.952756 0 0.307087 
vn 0.811024 0 0.582677 
vn 0.811024 0 0.590551 

vt 50.0185 -34.4744 
vt 50.0185 -35.5383 
vt 50.0071 -35.5383 
vt 50.0071 -34.4664 
vt 50.0071 -35.5383 
vt 50.0071 -34.4664 
vt 49.9929 -34.4744 
vt 49.9929 -35.5383 
vt 49.9815 -35.5383 
vt 49.9815 -34.4617 
vt 49.9866 -35.5383 
vt 50 -34.4744 
vt 49.9866 -34.4617 
vt 50 -35.5383 
vt 50.0134 -35.5383 
vt 50.0134 -34.4617 
vt 50.0071 -34.4744 
vt 50.0071 -35.5383 
vt 50.0185 -35.5383 
vt 50.0185 -34.4617 
vt 49.9929 -35.5383 
vt 49.9929 -34.4617 
vt 49.9815 -34.4744 
vt 49.9815 -35.5383 
vt 49.9929 -35.5383 
vt 49.9929 -34.4617 
vt 50.0134 -34.4744 
vt 50.0134 -35.5383 
vt 50 -35.5383 
vt 50 -34.4617 
vt 50 -35.5383 
vt 50 -34.4617 
vt 49.9866 -34.4744 
vt 49.9866 -35.5383 

usemtl Meshpart41Mtl

f 78/78/78 80/80/80 79/79/79 
f 80/80/80 78/78/78 81/81/81 
f 82/82/82 83/83/83 84/84/84 
f 82/82/82 84/84/84 85/85/85 
f 84/84/84 86/86/86 85/85/85 
f 86/86/86 84/84/84 87/87/87 
f 88/88/88 89/89/89 90/90/90 
f 89/89/89 88/88/88 91/91/91 
f 89/89/89 91/91/91 92/92/92 
f 92/92/92 93/93/93 89/89/89 
f 94/94/94 95/95/95 96/96/96 
f 96/96/96 97/97/97 94/94/94 
f 94/94/94 98/98/98 95/95/95 
f 98/98/98 94/94/94 99/99/99 
f 100/100/100 101/101/101 102/102/102 
f 102/102/102 103/103/103 100/100/100 
f 104/104/104 106/106/106 105/105/105 
f 106/106/106 104/104/104 107/107/107 
f 108/108/108 109/109/109 110/110/110 
f 108/108/108 110/110/110 111/111/111 

g Meshpart31

v -49.6874 0.413762 20.1181 
v -49.6702 0.494428 20.1306 
v -50.0126 0.413762 19.8819 
v -49.7814 0.494428 20.2114 
v -49.7879 0.413762 20.1912 
v -49.9121 0.413762 20.1912 
v -49.9187 0.494428 20.2114 
v -50.0126 0.413762 20.1181 
v -50.0298 0.494428 20.1306 
v -49.6702 0.817094 20.1306 
v -49.6874 0.897762 20.1181 
v -49.7814 0.817094 20.2114 
v -49.7879 0.897762 20.1912 
v -49.9187 0.817094 20.2114 
v -49.6874 0.897762 19.8819 
v -49.9121 0.897762 20.1912 
v -49.6702 0.817096 19.8694 
v -50.0126 0.897762 20.1181 
v -50.0298 0.817094 20.1306 
v -49.6702 0.655762 20.1306 
v -49.6874 0.736428 20.1181 
v -49.7814 0.655762 20.2114 
v -49.7879 0.736428 20.1912 
v -49.9187 0.655762 20.2114 
v -49.9121 0.736428 20.1912 
v -50.0126 0.736428 20.1181 
v -50.0298 0.655762 20.1306 
v -49.6874 0.575096 20.1181 
v -49.7814 0.655762 20.2114 
v -49.7879 0.575096 20.1912 
v -49.9121 0.575096 20.1912 
v -49.6702 0.655762 20.1306 
v -49.9187 0.655762 20.2114 
v -50.0126 0.575096 20.1181 
v -50.0298 0.655762 20.1306 
v -49.6874 0.736428 20.1181 
v -49.7814 0.817094 20.2114 
v -49.7879 0.736428 20.1912 
v -49.9121 0.736428 20.1912 
v -49.6702 0.817094 20.1306 
v -49.9187 0.817094 20.2114 
v -50.0126 0.736428 20.1181 
v -50.0298 0.817094 20.1306 
v -49.6702 0.494428 20.1306 
v -49.6874 0.575096 20.1181 
v -49.7814 0.494428 20.2114 
v -49.7879 0.575096 20.1912 
v -49.9187 0.494428 20.2114 
v -49.9121 0.575096 20.1912 
v -50.0126 0.575096 20.1181 
v -50.0298 0.494428 20.1306 
v -49.649 0.897762 20 
v -49.7879 0.897762 20.1912 
v -49.6874 0.897762 20.1181 
v -49.9121 0.897762 20.1912 
v -50.051 0.897762 20 
v -50.0126 0.897762 20.1181 
v -49.7879 0.897762 19.8088 
v -49.6874 0.897762 19.8819 
v -49.9121 0.897762 19.8088 
v -50.0126 0.897762 19.8819 
v -50.0126 0.413762 19.8819 
v -50.0298 0.494428 19.8694 
v -50.0723 0.494428 20 
v -50.051 0.413762 20 
v -50.0126 0.413762 20.1181 
v -50.0298 0.494428 20.1306 
v -50.0126 0.897762 20.1181 
v -50.0298 0.817094 20.1306 
v -50.0723 0.817094 20 
v -50.051 0.897762 20 
v -50.0126 0.897762 19.8819 
v -50.0298 0.817096 19.8694 
v -50.0126 0.736428 20.1181 
v -50.0298 0.655762 20.1306 
v -50.0723 0.655762 20 
v -49.9121 0.736428 19.8088 
v -50.051 0.736428 20 
v -50.0126 0.736428 19.8819 
v -50.0298 0.655762 19.8694 
v -50.0126 0.575096 20.1181 
v -50.0298 0.655762 20.1306 
v -50.0723 0.655762 20 
v -50.051 0.575096 20 
v -50.0126 0.575096 19.8819 
v -50.0298 0.655762 19.8694 
v -50.0126 0.736428 20.1181 
v -50.0298 0.817094 20.1306 
v -50.0723 0.817094 20 
v -50.051 0.736428 20 
v -50.0126 0.736428 19.8819 
v -50.0298 0.817096 19.8694 
v -49.9121 0.736428 19.8088 
v -50.0126 0.575096 20.1181 
v -50.0298 0.494428 20.1306 
v -50.0723 0.494428 20 
v -50.051 0.575096 20 
v -50.0126 0.575096 19.8819 
v -50.0298 0.494428 19.8694 
v -49.6874 0.413762 19.8819 
v -49.7814 0.49443 19.7886 
v -49.6702 0.49443 19.8694 
v -49.7879 0.413762 19.8088 
v -49.9187 0.49443 19.7886 
v -49.9121 0.413762 19.8088 
v -50.0126 0.413762 19.8819 
v -50.0298 0.494428 19.8694 
v -49.6874 0.897762 19.8819 
v -49.6702 0.817096 19.8694 
v -50.0126 0.897762 20.1181 
v -49.7814 0.817096 19.7886 
v -50.0298 0.817094 20.1306 
v -49.7879 0.897762 19.8088 
v -49.9121 0.897762 19.8088 
v -49.9187 0.817096 19.7886 
v -50.0126 0.897762 19.8819 
v -50.0298 0.817096 19.8694 
v -49.6874 0.736428 19.8819 
v -49.6702 0.655762 19.8694 
v -49.7814 0.655762 19.7886 
v -49.7879 0.736428 19.8088 
v -49.9121 0.736428 19.8088 
v -49.9187 0.655762 19.7886 
v -50.0126 0.736428 19.8819 
v -50.0298 0.655762 19.8694 
v -49.6874 0.575096 19.8819 
v -49.6702 0.655762 19.8694 
v -49.7814 0.655762 19.7886 
v -50.0126 0.575096 19.8819 
v -49.7879 0.575096 19.8088 
v -50.0298 0.655762 19.8694 
v -49.9187 0.655762 19.7886 
v -49.9121 0.575096 19.8088 
v -49.6874 0.736428 19.8819 
v -49.6702 0.817096 19.8694 
v -49.7814 0.817096 19.7886 
v -50.0126 0.736428 19.8819 
v -49.7879 0.736428 19.8088 
v -50.0298 0.817096 19.8694 
v -49.9187 0.817096 19.7886 
v -49.9121 0.736428 19.8088 
v -49.6874 0.575096 19.8819 
v -49.6702 0.49443 19.8694 
v -49.7814 0.49443 19.7886 
v -49.7879 0.575096 19.8088 
v -49.9121 0.575096 19.8088 
v -49.9187 0.49443 19.7886 
v -50.0126 0.575096 19.8819 
v -50.0298 0.494428 19.8694 
v -49.649 0.413762 20 
v -49.7879 0.413762 19.8088 
v -49.6874 0.413762 19.8819 
v -49.9121 0.413762 19.8088 
v -50.051 0.413762 20 
v -50.0126 0.413762 19.8819 
v -49.7879 0.413762 20.1912 
v -49.6874 0.413762 20.1181 
v -49.9121 0.413762 20.1912 
v -50.0126 0.413762 20.1181 
v -49.6874 0.413762 19.8819 
v -49.6702 0.49443 19.8694 
v -49.6278 0.494428 20 
v -49.649 0.413762 20 
v -49.6874 0.413762 20.1181 
v -49.6702 0.494428 20.1306 
v -49.6702 0.817094 20.1306 
v -49.6874 0.897762 20.1181 
v -49.6278 0.817096 20 
v -49.649 0.897762 20 
v -49.6874 0.897762 19.8819 
v -49.6702 0.817096 19.8694 
v -49.6702 0.655762 20.1306 
v -49.6874 0.736428 20.1181 
v -49.6278 0.655762 20 
v -49.7879 0.736428 20.1912 
v -49.649 0.736428 20 
v -49.6874 0.736428 19.8819 
v -49.6702 0.655762 19.8694 
v -49.6874 0.575096 20.1181 
v -49.7879 0.575096 20.1912 
v -49.6702 0.655762 20.1306 
v -49.6278 0.655762 20 
v -49.649 0.575096 20 
v -49.6874 0.575096 19.8819 
v -49.6702 0.655762 19.8694 
v -49.7879 0.575096 19.8088 
v -49.6874 0.736428 20.1181 
v -49.7879 0.736428 20.1912 
v -49.6702 0.817094 20.1306 
v -49.6278 0.817096 20 
v -49.649 0.736428 20 
v -49.6874 0.736428 19.8819 
v -49.6702 0.817096 19.8694 
v -49.6702 0.494428 20.1306 
v -49.6874 0.575096 20.1181 
v -49.6278 0.494428 20 
v -49.7879 0.575096 20.1912 
v -49.649 0.575096 20 
v -49.6874 0.575096 19.8819 
v -49.6702 0.49443 19.8694 

vn 0.779528 -0.251969 0.566929 
vn 0.779528 -0.251969 0.566929 
vn -0.779528 -0.251969 -0.566929 
vn 0.299213 -0.251969 0.92126 
vn 0.299213 -0.251969 0.92126 
vn -0.299213 -0.251969 0.92126 
vn -0.299213 -0.251969 0.92126 
vn -0.779528 -0.251969 0.566929 
vn -0.779528 -0.251969 0.566929 
vn 0.779528 0.251969 0.566929 
vn 0.779528 0.251969 0.566929 
vn 0.299213 0.251969 0.92126 
vn 0.299213 0.251969 0.92126 
vn -0.299213 0.251969 0.92126 
vn 0.779528 0.251969 -0.566929 
vn -0.299213 0.251969 0.92126 
vn 0.779528 0.251969 -0.566929 
vn -0.779528 0.251969 0.566929 
vn -0.779528 0.251969 0.566929 
vn 0.779528 0.251969 0.566929 
vn 0.779528 0.251969 0.566929 
vn 0.299213 0.251969 0.92126 
vn 0.299213 0.251969 0.92126 
vn -0.299213 0.251969 0.92126 
vn -0.299213 0.251969 0.92126 
vn -0.779528 0.251969 0.566929 
vn -0.779528 0.251969 0.566929 
vn 0.779528 -0.251969 0.566929 
vn 0.299213 -0.251969 0.92126 
vn 0.299213 -0.251969 0.92126 
vn -0.299213 -0.251969 0.92126 
vn 0.779528 -0.251969 0.566929 
vn -0.299213 -0.251969 0.92126 
vn -0.779528 -0.251969 0.566929 
vn -0.779528 -0.251969 0.566929 
vn 0.779528 -0.251969 0.566929 
vn 0.299213 -0.251969 0.92126 
vn 0.299213 -0.251969 0.92126 
vn -0.299213 -0.251969 0.92126 
vn 0.779528 -0.251969 0.566929 
vn -0.299213 -0.251969 0.92126 
vn -0.779528 -0.251969 0.566929 
vn -0.779528 -0.251969 0.566929 
vn 0.779528 0.251969 0.566929 
vn 0.779528 0.251969 0.566929 
vn 0.299213 0.251969 0.92126 
vn 0.299213 0.251969 0.92126 
vn -0.299213 0.251969 0.92126 
vn -0.299213 0.251969 0.92126 
vn -0.779528 0.251969 0.566929 
vn -0.779528 0.251969 0.566929 
vn 0 1 0 
vn 0 1 0 
vn 0 1 0 
vn 0 1 0 
vn 0 1 0 
vn 0 1 0 
vn 0 1 0 
vn 0 1 0 
vn 0 1 0 
vn 0 1 0 
vn -0.779528 -0.251969 -0.566929 
vn -0.779528 -0.251969 -0.566929 
vn -0.968504 -0.251969 0 
vn -0.968504 -0.251969 0 
vn -0.779528 -0.251969 0.566929 
vn -0.779528 -0.251969 0.566929 
vn -0.779528 0.251969 0.566929 
vn -0.779528 0.251969 0.566929 
vn -0.968504 0.251969 0 
vn -0.968504 0.251969 0 
vn -0.779528 0.251969 -0.566929 
vn -0.779528 0.251969 -0.566929 
vn -0.779528 0.251969 0.566929 
vn -0.779528 0.251969 0.566929 
vn -0.968504 0.251969 0 
vn -0.299213 0.251969 -0.92126 
vn -0.968504 0.251969 0 
vn -0.779528 0.251969 -0.566929 
vn -0.779528 0.251969 -0.566929 
vn -0.779528 -0.251969 0.566929 
vn -0.779528 -0.251969 0.566929 
vn -0.968504 -0.251969 0 
vn -0.968504 -0.251969 0 
vn -0.779528 -0.251969 -0.566929 
vn -0.779528 -0.251969 -0.566929 
vn -0.779528 -0.251969 0.566929 
vn -0.779528 -0.251969 0.566929 
vn -0.968504 -0.251969 0 
vn -0.968504 -0.251969 0 
vn -0.779528 -0.251969 -0.566929 
vn -0.779528 -0.251969 -0.566929 
vn -0.299213 -0.251969 -0.92126 
vn -0.779528 0.251969 0.566929 
vn -0.779528 0.251969 0.566929 
vn -0.968504 0.251969 0 
vn -0.968504 0.251969 0 
vn -0.779528 0.251969 -0.566929 
vn -0.779528 0.251969 -0.566929 
vn 0.779528 -0.251969 -0.566929 
vn 0.299213 -0.251969 -0.92126 
vn 0.779528 -0.251969 -0.566929 
vn 0.299213 -0.251969 -0.92126 
vn -0.299213 -0.251969 -0.92126 
vn -0.299213 -0.251969 -0.92126 
vn -0.779528 -0.251969 -0.566929 
vn -0.779528 -0.251969 -0.566929 
vn 0.779528 0.251969 -0.566929 
vn 0.779528 0.251969 -0.566929 
vn -0.779528 0.251969 0.566929 
vn 0.299213 0.251969 -0.92126 
vn -0.779528 0.251969 0.566929 
vn 0.299213 0.251969 -0.92126 
vn -0.299213 0.251969 -0.92126 
vn -0.299213 0.251969 -0.92126 
vn -0.779528 0.251969 -0.566929 
vn -0.779528 0.251969 -0.566929 
vn 0.779528 0.251969 -0.566929 
vn 0.779528 0.251969 -0.566929 
vn 0.299213 0.251969 -0.92126 
vn 0.299213 0.251969 -0.92126 
vn -0.299213 0.251969 -0.92126 
vn -0.299213 0.251969 -0.92126 
vn -0.779528 0.251969 -0.566929 
vn -0.779528 0.251969 -0.566929 
vn 0.779528 -0.251969 -0.566929 
vn 0.779528 -0.251969 -0.566929 
vn 0.299213 -0.251969 -0.92126 
vn -0.779528 -0.251969 -0.566929 
vn 0.299213 -0.251969 -0.92126 
vn -0.779528 -0.251969 -0.566929 
vn -0.299213 -0.251969 -0.92126 
vn -0.299213 -0.251969 -0.92126 
vn 0.779528 -0.251969 -0.566929 
vn 0.779528 -0.251969 -0.566929 
vn 0.299213 -0.251969 -0.92126 
vn -0.779528 -0.251969 -0.566929 
vn 0.299213 -0.251969 -0.92126 
vn -0.779528 -0.251969 -0.566929 
vn -0.299213 -0.251969 -0.92126 
vn -0.299213 -0.251969 -0.92126 
vn 0.779528 0.251969 -0.566929 
vn 0.779528 0.251969 -0.566929 
vn 0.299213 0.251969 -0.92126 
vn 0.299213 0.251969 -0.92126 
vn -0.299213 0.251969 -0.92126 
vn -0.299213 0.251969 -0.92126 
vn -0.779528 0.251969 -0.566929 
vn -0.779528 0.251969 -0.566929 
vn 0 -1 0 
vn 0 -1 0 
vn 0 -1 0 
vn 0 -1 0 
vn 0 -1 0 
vn 0 -1 0 
vn 0 -1 0 
vn 0 -1 0 
vn 0 -1 0 
vn 0 -1 0 
vn 0.779528 -0.251969 -0.566929 
vn 0.779528 -0.251969 -0.566929 
vn 0.968504 -0.251969 0 
vn 0.968504 -0.251969 0 
vn 0.779528 -0.251969 0.566929 
vn 0.779528 -0.251969 0.566929 
vn 0.779528 0.251969 0.566929 
vn 0.779528 0.251969 0.566929 
vn 0.968504 0.251969 0 
vn 0.968504 0.251969 0 
vn 0.779528 0.251969 -0.566929 
vn 0.779528 0.251969 -0.566929 
vn 0.779528 0.251969 0.566929 
vn 0.779528 0.251969 0.566929 
vn 0.968504 0.251969 0 
vn 0.299213 0.251969 0.92126 
vn 0.968504 0.251969 0 
vn 0.779528 0.251969 -0.566929 
vn 0.779528 0.251969 -0.566929 
vn 0.779528 -0.251969 0.566929 
vn 0.299213 -0.251969 0.92126 
vn 0.779528 -0.251969 0.566929 
vn 0.968504 -0.251969 0 
vn 0.968504 -0.251969 0 
vn 0.779528 -0.251969 -0.566929 
vn 0.779528 -0.251969 -0.566929 
vn 0.299213 -0.251969 -0.92126 
vn 0.779528 -0.251969 0.566929 
vn 0.299213 -0.251969 0.92126 
vn 0.779528 -0.251969 0.566929 
vn 0.968504 -0.251969 0 
vn 0.968504 -0.251969 0 
vn 0.779528 -0.251969 -0.566929 
vn 0.779528 -0.251969 -0.566929 
vn 0.779528 0.251969 0.566929 
vn 0.779528 0.251969 0.566929 
vn 0.968504 0.251969 0 
vn 0.299213 0.251969 0.92126 
vn 0.968504 0.251969 0 
vn 0.779528 0.251969 -0.566929 
vn 0.779528 0.251969 -0.566929 

vt 28.0203 -39.0303 
vt 28.0225 -39.0202 
vt 27.9797 -39.0303 
vt 28.0086 -39.0202 
vt 28.0078 -39.0303 
vt 27.9922 -39.0303 
vt 27.9914 -39.0202 
vt 27.9797 -39.0303 
vt 27.9775 -39.0202 
vt 28.0225 -38.9798 
vt 28.0203 -38.9697 
vt 28.0086 -38.9798 
vt 28.0078 -38.9697 
vt 27.9914 -38.9798 
vt 28.0203 -38.9697 
vt 27.9922 -38.9697 
vt 28.0225 -38.9798 
vt 27.9797 -38.9697 
vt 27.9775 -38.9798 
vt 28.0225 -39 
vt 28.0203 -38.9899 
vt 28.0086 -39 
vt 28.0078 -38.9899 
vt 27.9914 -39 
vt 27.9922 -38.9899 
vt 27.9797 -38.9899 
vt 27.9775 -39 
vt 28.0203 -39.0101 
vt 28.0086 -39 
vt 28.0078 -39.0101 
vt 27.9922 -39.0101 
vt 28.0225 -39 
vt 27.9914 -39 
vt 27.9797 -39.0101 
vt 27.9775 -39 
vt 28.0203 -38.9899 
vt 28.0086 -38.9798 
vt 28.0078 -38.9899 
vt 27.9922 -38.9899 
vt 28.0225 -38.9798 
vt 27.9914 -38.9798 
vt 27.9797 -38.9899 
vt 27.9775 -38.9798 
vt 28.0225 -39.0202 
vt 28.0203 -39.0101 
vt 28.0086 -39.0202 
vt 28.0078 -39.0101 
vt 27.9914 -39.0202 
vt 27.9922 -39.0101 
vt 27.9797 -39.0101 
vt 27.9775 -39.0202 
vt 28 -39.0251 
vt 27.9761 -39.0078 
vt 27.9852 -39.0203 
vt 27.9761 -38.9922 
vt 28 -38.9749 
vt 27.9852 -38.9797 
vt 28.0239 -39.0078 
vt 28.0148 -39.0203 
vt 28.0239 -38.9922 
vt 28.0148 -38.9797 
vt 27.9852 -39.0303 
vt 27.9837 -39.0202 
vt 28 -39.0202 
vt 28 -39.0303 
vt 28.0148 -39.0303 
vt 28.0163 -39.0202 
vt 28.0148 -38.9697 
vt 28.0163 -38.9798 
vt 28 -38.9798 
vt 28 -38.9697 
vt 27.9852 -38.9697 
vt 27.9837 -38.9798 
vt 28.0148 -38.9899 
vt 28.0163 -39 
vt 28 -39 
vt 27.9761 -38.9899 
vt 28 -38.9899 
vt 27.9852 -38.9899 
vt 27.9837 -39 
vt 28.0148 -39.0101 
vt 28.0163 -39 
vt 28 -39 
vt 28 -39.0101 
vt 27.9852 -39.0101 
vt 27.9837 -39 
vt 28.0148 -38.9899 
vt 28.0163 -38.9798 
vt 28 -38.9798 
vt 28 -38.9899 
vt 27.9852 -38.9899 
vt 27.9837 -38.9798 
vt 27.9761 -38.9899 
vt 28.0148 -39.0101 
vt 28.0163 -39.0202 
vt 28 -39.0202 
vt 28 -39.0101 
vt 27.9852 -39.0101 
vt 27.9837 -39.0202 
vt 27.9797 -39.0303 
vt 27.9914 -39.0202 
vt 27.9775 -39.0202 
vt 27.9922 -39.0303 
vt 28.0086 -39.0202 
vt 28.0078 -39.0303 
vt 28.0203 -39.0303 
vt 28.0225 -39.0202 
vt 27.9797 -38.9697 
vt 27.9775 -38.9798 
vt 28.0203 -38.9697 
vt 27.9914 -38.9798 
vt 28.0225 -38.9798 
vt 27.9922 -38.9697 
vt 28.0078 -38.9697 
vt 28.0086 -38.9798 
vt 28.0203 -38.9697 
vt 28.0225 -38.9798 
vt 27.9797 -38.9899 
vt 27.9775 -39 
vt 27.9914 -39 
vt 27.9922 -38.9899 
vt 28.0078 -38.9899 
vt 28.0086 -39 
vt 28.0203 -38.9899 
vt 28.0225 -39 
vt 27.9797 -39.0101 
vt 27.9775 -39 
vt 27.9914 -39 
vt 28.0203 -39.0101 
vt 27.9922 -39.0101 
vt 28.0225 -39 
vt 28.0086 -39 
vt 28.0078 -39.0101 
vt 27.9797 -38.9899 
vt 27.9775 -38.9798 
vt 27.9914 -38.9798 
vt 28.0203 -38.9899 
vt 27.9922 -38.9899 
vt 28.0225 -38.9798 
vt 28.0086 -38.9798 
vt 28.0078 -38.9899 
vt 27.9797 -39.0101 
vt 27.9775 -39.0202 
vt 27.9914 -39.0202 
vt 27.9922 -39.0101 
vt 28.0078 -39.0101 
vt 28.0086 -39.0202 
vt 28.0203 -39.0101 
vt 28.0225 -39.0202 
vt 28 -39.0251 
vt 27.9761 -39.0078 
vt 27.9852 -39.0203 
vt 27.9761 -38.9922 
vt 28 -38.9749 
vt 27.9852 -38.9797 
vt 28.0239 -39.0078 
vt 28.0148 -39.0203 
vt 28.0239 -38.9922 
vt 28.0148 -38.9797 
vt 28.0148 -39.0303 
vt 28.0163 -39.0202 
vt 28 -39.0202 
vt 28 -39.0303 
vt 27.9852 -39.0303 
vt 27.9837 -39.0202 
vt 27.9837 -38.9798 
vt 27.9852 -38.9697 
vt 28 -38.9798 
vt 28 -38.9697 
vt 28.0148 -38.9697 
vt 28.0163 -38.9798 
vt 27.9837 -39 
vt 27.9852 -38.9899 
vt 28 -39 
vt 27.9761 -38.9899 
vt 28 -38.9899 
vt 28.0148 -38.9899 
vt 28.0163 -39 
vt 27.9852 -39.0101 
vt 27.9761 -39.0101 
vt 27.9837 -39 
vt 28 -39 
vt 28 -39.0101 
vt 28.0148 -39.0101 
vt 28.0163 -39 
vt 28.0239 -39.0101 
vt 27.9852 -38.9899 
vt 27.9761 -38.9899 
vt 27.9837 -38.9798 
vt 28 -38.9798 
vt 28 -38.9899 
vt 28.0148 -38.9899 
vt 28.0163 -38.9798 
vt 27.9837 -39.0202 
vt 27.9852 -39.0101 
vt 28 -39.0202 
vt 27.9761 -39.0101 
vt 28 -39.0101 
vt 28.0148 -39.0101 
vt 28.0163 -39.0202 

usemtl Meshpart31Mtl

f 115/115/115 112/112/112 113/113/113 
f 112/112/112 115/115/115 116/116/116 
f 116/116/116 115/115/115 117/117/117 
f 115/115/115 118/118/118 117/117/117 
f 117/117/117 118/118/118 119/119/119 
f 118/118/118 120/120/120 119/119/119 
f 121/121/121 122/122/122 123/123/123 
f 122/122/122 124/124/124 123/123/123 
f 123/123/123 124/124/124 125/125/125 
f 124/124/124 127/127/127 125/125/125 
f 129/129/129 125/125/125 127/127/127 
f 125/125/125 129/129/129 130/130/130 
f 131/131/131 132/132/132 133/133/133 
f 132/132/132 134/134/134 133/133/133 
f 133/133/133 134/134/134 135/135/135 
f 134/134/134 136/136/136 135/135/135 
f 137/137/137 135/135/135 136/136/136 
f 135/135/135 137/137/137 138/138/138 
f 139/139/139 140/140/140 141/141/141 
f 141/141/141 140/140/140 142/142/142 
f 140/140/140 139/139/139 143/143/143 
f 140/140/140 144/144/144 142/142/142 
f 142/142/142 144/144/144 145/145/145 
f 144/144/144 146/146/146 145/145/145 
f 147/147/147 148/148/148 149/149/149 
f 149/149/149 148/148/148 150/150/150 
f 148/148/148 147/147/147 151/151/151 
f 148/148/148 152/152/152 150/150/150 
f 150/150/150 152/152/152 153/153/153 
f 152/152/152 154/154/154 153/153/153 
f 155/155/155 156/156/156 157/157/157 
f 156/156/156 158/158/158 157/157/157 
f 157/157/157 158/158/158 159/159/159 
f 158/158/158 160/160/160 159/159/159 
f 161/161/161 159/159/159 160/160/160 
f 159/159/159 161/161/161 162/162/162 
f 163/163/163 164/164/164 165/165/165 
f 164/164/164 163/163/163 166/166/166 
f 167/167/167 166/166/166 163/163/163 
f 166/166/166 167/167/167 168/168/168 
f 163/163/163 169/169/169 167/167/167 
f 169/169/169 163/163/163 170/170/170 
f 167/167/167 169/169/169 171/171/171 
f 167/167/167 171/171/171 172/172/172 
f 173/173/173 175/175/175 174/174/174 
f 173/173/173 176/176/176 175/175/175 
f 177/177/177 175/175/175 176/176/176 
f 175/175/175 177/177/177 178/178/178 
f 181/181/181 180/180/180 179/179/179 
f 181/181/181 179/179/179 182/182/182 
f 183/183/183 181/181/181 182/182/182 
f 181/181/181 183/183/183 184/184/184 
f 187/187/187 186/186/186 185/185/185 
f 187/187/187 185/185/185 189/189/189 
f 190/190/190 187/187/187 189/189/189 
f 187/187/187 190/190/190 191/191/191 
f 194/194/194 192/192/192 193/193/193 
f 192/192/192 194/194/194 195/195/195 
f 196/196/196 195/195/195 194/194/194 
f 196/196/196 194/194/194 197/197/197 
f 200/200/200 198/198/198 199/199/199 
f 198/198/198 200/200/200 201/201/201 
f 202/202/202 201/201/201 200/200/200 
f 202/202/202 200/200/200 203/203/203 
f 207/207/207 206/206/206 205/205/205 
f 207/207/207 205/205/205 208/208/208 
f 209/209/209 207/207/207 208/208/208 
f 207/207/207 209/209/209 210/210/210 
f 211/211/211 212/212/212 213/213/213 
f 212/212/212 211/211/211 214/214/214 
f 214/214/214 215/215/215 212/212/212 
f 215/215/215 214/214/214 216/216/216 
f 217/217/217 215/215/215 216/216/216 
f 215/215/215 217/217/217 218/218/218 
f 222/222/222 219/219/219 220/220/220 
f 219/219/219 222/222/222 224/224/224 
f 222/222/222 225/225/225 224/224/224 
f 225/225/225 222/222/222 226/226/226 
f 226/226/226 227/227/227 225/225/225 
f 227/227/227 226/226/226 228/228/228 
f 231/231/231 229/229/229 230/230/230 
f 229/229/229 231/231/231 232/232/232 
f 231/231/231 233/233/233 232/232/232 
f 233/233/233 231/231/231 234/234/234 
f 234/234/234 235/235/235 233/233/233 
f 235/235/235 234/234/234 236/236/236 
f 237/237/237 239/239/239 238/238/238 
f 239/239/239 237/237/237 241/241/241 
f 241/241/241 243/243/243 239/239/239 
f 243/243/243 240/240/240 242/242/242 
f 243/243/243 241/241/241 244/244/244 
f 240/240/240 243/243/243 244/244/244 
f 245/245/245 247/247/247 246/246/246 
f 247/247/247 245/245/245 249/249/249 
f 249/249/249 251/251/251 247/247/247 
f 251/251/251 248/248/248 250/250/250 
f 251/251/251 249/249/249 252/252/252 
f 248/248/248 251/251/251 252/252/252 
f 255/255/255 253/253/253 254/254/254 
f 253/253/253 255/255/255 256/256/256 
f 255/255/255 257/257/257 256/256/256 
f 257/257/257 255/255/255 258/258/258 
f 258/258/258 259/259/259 257/257/257 
f 259/259/259 258/258/258 260/260/260 
f 261/261/261 262/262/262 263/263/263 
f 262/262/262 261/261/261 264/264/264 
f 265/265/265 264/264/264 261/261/261 
f 264/264/264 265/265/265 266/266/266 
f 261/261/261 267/267/267 265/265/265 
f 267/267/267 261/261/261 268/268/268 
f 265/265/265 267/267/267 269/269/269 
f 265/265/265 269/269/269 270/270/270 
f 273/273/273 271/271/271 272/272/272 
f 271/271/271 273/273/273 274/274/274 
f 273/273/273 275/275/275 274/274/274 
f 275/275/275 273/273/273 276/276/276 
f 279/279/279 278/278/278 277/277/277 
f 278/278/278 279/279/279 280/280/280 
f 280/280/280 279/279/279 281/281/281 
f 281/281/281 279/279/279 282/282/282 
f 285/285/285 284/284/284 283/283/283 
f 284/284/284 285/285/285 287/287/287 
f 287/287/287 285/285/285 288/288/288 
f 288/288/288 285/285/285 289/289/289 
f 290/290/290 293/293/293 292/292/292 
f 293/293/293 290/290/290 294/294/294 
f 295/295/295 293/293/293 294/294/294 
f 293/293/293 295/295/295 296/296/296 
f 298/298/298 301/301/301 300/300/300 
f 301/301/301 298/298/298 302/302/302 
f 303/303/303 301/301/301 302/302/302 
f 301/301/301 303/303/303 304/304/304 
f 307/307/307 306/306/306 305/305/305 
f 306/306/306 307/307/307 309/309/309 
f 309/309/309 307/307/307 310/310/310 
f 310/310/310 307/307/307 311/311/311 

g Meshpart21

v -49.9008 9.87612 20.0353 
v -49.8669 9.90144 20.0521 
v -49.8499 10.1214 20 
v -49.8296 9.87612 20.0585 
v -49.8056 9.90144 20.0322 
v -49.9008 9.87612 20.0353 
v -49.8499 10.1214 20 
v -49.9048 9.90144 20 
v -49.9008 9.87612 19.9604 
v -49.8499 10.1214 20 
v -49.9008 9.87612 19.9604 
v -49.8669 9.90144 19.9479 
v -49.8056 9.90144 19.9678 
v -49.833 9.90144 19.9479 
v -49.8499 10.1214 20 
v -49.8056 9.90144 20.0322 
v -49.7855 9.87612 19.9979 
v -49.8056 9.90144 19.9678 

vn -0.787402 0.244094 0.559055 
vn -0.299213 0.244094 0.92126 
vn -0.00787402 1 0.015748 
vn 0.307087 0.244094 0.92126 
vn 0.779528 0.244094 0.582677 
vn -0.787402 0.244094 0.559055 
vn -0.00787402 1 0.015748 
vn -0.968504 0.244094 0.015748 
vn -0.771654 0.251969 -0.582677 
vn -0.00787402 1 0.015748 
vn -0.771654 0.251969 -0.582677 
vn -0.275591 0.244094 -0.929134 
vn 0.771654 0.244094 -0.590551 
vn 0.299213 0.244094 -0.92126 
vn -0.00787402 1 0.015748 
vn 0.779528 0.244094 0.582677 
vn 0.968504 0.251969 -0.015748 
vn 0.771654 0.244094 -0.590551 

vt 13.993 -7.01533 
vt 13.9973 -7.01217 
vt 13.9994 -6.98467 
vt 14.0019 -7.01533 
vt 14.0049 -7.01217 
vt 14.004 -7.01533 
vt 13.9996 -6.98467 
vt 13.9996 -7.01217 
vt 13.9947 -7.01533 
vt 14.0006 -6.98467 
vt 14.007 -7.01533 
vt 14.0027 -7.01217 
vt 13.9951 -7.01217 
vt 13.9985 -7.01217 
vt 14.0004 -6.98467 
vt 13.9964 -7.01217 
vt 14.0007 -7.01533 
vt 14.0044 -7.01217 

usemtl Meshpart21Mtl

f 312/312/312 313/313/313 314/314/314 
f 313/313/313 315/315/315 314/314/314 
f 315/315/315 316/316/316 314/314/314 
f 319/319/319 317/317/317 318/318/318 
f 320/320/320 319/319/319 318/318/318 
f 323/323/323 322/322/322 321/321/321 
f 325/325/325 323/323/323 321/321/321 
f 324/324/324 325/325/325 321/321/321 
f 327/327/327 328/328/328 326/326/326 
f 328/328/328 329/329/329 326/326/326 

g Meshpart11

v -49.7022 9.39519 20.1074 
v -49.8057 9.90119 20.0322 
v -49.7936 9.4594 20.1738 
v -49.8297 9.87587 20.0585 
v -49.9065 9.39519 20.1738 
v -49.9009 9.87587 20.0353 
v -49.9979 9.49681 20.1074 
v -49.867 9.90119 20.0521 
v -49.8297 9.87587 20.0585 
v -49.7936 9.4594 20.1738 
v -50.0328 9.39519 20 
v -49.9049 9.90119 20 
v -49.9979 9.49681 19.8926 
v -49.9009 9.87587 19.9604 
v -49.9009 9.87587 20.0353 
v -49.9979 9.49681 20.1074 
v -49.7936 9.49681 19.8262 
v -49.8057 9.90119 19.9678 
v -49.8331 9.90119 19.9479 
v -49.9065 9.39519 19.8262 
v -49.867 9.90119 19.9479 
v -49.7936 9.49681 19.8262 
v -49.8331 9.90119 19.9479 
v -49.9009 9.87587 19.9604 
v -49.9979 9.49681 19.8926 
v -49.7936 9.49681 19.8262 
v -49.8057 9.90119 19.9678 
v -49.7022 9.39519 19.8926 
v -49.6673 9.49681 20 
v -49.7856 9.87587 19.9979 
v -49.7022 9.39519 20.1074 
v -49.8057 9.90119 20.0322 
v -49.6673 9.49681 20 
v -49.7856 9.87587 19.9979 

vn 0.76378 0.251969 0.598425 
vn 0.76378 0.251969 0.598425 
vn 0.653543 0.244094 0.716535 
vn 0.653543 0.244094 0.716535 
vn -0.267717 0.251969 0.929134 
vn -0.425197 0.251969 0.866142 
vn -0.425197 0.251969 0.866142 
vn -0.267717 0.251969 0.929134 
vn -0.102362 0.244094 0.96063 
vn -0.102362 0.244094 0.96063 
vn -0.968504 0.259843 0 
vn -0.968504 0.259843 0 
vn -0.96063 0.251969 -0.125984 
vn -0.96063 0.251969 -0.125984 
vn -0.96063 0.251969 0.125984 
vn -0.96063 0.251969 0.125984 
vn 0.700787 0.251969 -0.669291 
vn 0.771654 0.251969 -0.582677 
vn 0.700787 0.251969 -0.669291 
vn -0.291339 0.251969 -0.92126 
vn -0.283465 0.251969 -0.92126 
vn -0.173228 0.251969 -0.952756 
vn -0.173228 0.251969 -0.952756 
vn -0.401575 0.251969 -0.88189 
vn -0.401575 0.251969 -0.88189 
vn 0.700787 0.251969 -0.669291 
vn 0.771654 0.251969 -0.582677 
vn 0.779528 0.251969 -0.574803 
vn 0.84252 0.251969 -0.472441 
vn 0.84252 0.251969 -0.472441 
vn 0.76378 0.251969 0.598425 
vn 0.76378 0.251969 0.598425 
vn 0.850394 0.251969 0.464567 
vn 0.850394 0.251969 0.464567 

vt 58.0185 -35.0316 
vt 58.0055 -34.9684 
vt 58.0071 -35.0236 
vt 58.0025 -34.9715 
vt 57.9929 -35.0316 
vt 57.9936 -34.9715 
vt 57.9815 -35.0189 
vt 57.9979 -34.9684 
vt 58.0025 -34.9715 
vt 58.0071 -35.0236 
vt 58 -35.0316 
vt 58 -34.9684 
vt 57.9866 -35.0189 
vt 57.9951 -34.9715 
vt 58.0044 -34.9715 
vt 58.0134 -35.0189 
vt 57.9929 -35.0189 
vt 57.9945 -34.9684 
vt 57.9979 -34.9684 
vt 58.0071 -35.0316 
vt 58.0021 -34.9684 
vt 57.9929 -35.0189 
vt 57.9979 -34.9684 
vt 58.0064 -34.9715 
vt 58.0185 -35.0189 
vt 58.0217 -35.0189 
vt 58.004 -34.9684 
vt 58.0134 -35.0316 
vt 58 -35.0189 
vt 58.0003 -34.9715 
vt 57.9866 -35.0316 
vt 57.996 -34.9684 
vt 58 -35.0189 
vt 58.0003 -34.9715 

usemtl Meshpart11Mtl

f 330/330/330 331/331/331 332/332/332 
f 332/332/332 331/331/331 333/333/333 
f 334/334/334 335/335/335 336/336/336 
f 335/335/335 334/334/334 337/337/337 
f 334/334/334 338/338/338 337/337/337 
f 338/338/338 334/334/334 339/339/339 
f 340/340/340 341/341/341 342/342/342 
f 342/342/342 341/341/341 343/343/343 
f 341/341/341 340/340/340 344/344/344 
f 344/344/344 340/340/340 345/345/345 
f 347/347/347 346/346/346 348/348/348 
f 349/349/349 350/350/350 351/351/351 
f 352/352/352 351/351/351 350/350/350 
f 350/350/350 349/349/349 353/353/353 
f 353/353/353 349/349/349 354/354/354 
f 355/355/355 356/356/356 357/357/357 
f 358/358/358 357/357/357 356/356/356 
f 359/359/359 358/358/358 356/356/356 
f 362/362/362 361/361/361 360/360/360 
f 361/361/361 362/362/362 363/363/363 

g Meshpart1

v -50.0618 7.74574 19.9976 
v -50.0264 7.75776 20.0035 
v -50.0601 7.744 19.9917 
v -50.0264 7.75776 19.9917 
v -50.0762 7.71094 19.9976 
v -50.0269 7.75184 19.9894 
v -50.0559 7.73986 19.9894 
v -50.0276 7.74614 19.9919 
v -50.0738 7.71094 19.9917 
v -50.0519 7.73587 19.9919 
v -50.0503 7.73427 19.9976 
v -50.0278 7.74377 19.9976 
v -50.0679 7.71094 19.9894 
v -50.0623 7.71094 19.9919 
v -50.06 7.71094 19.9976 
v -50.0503 7.68761 19.9976 
v -50.0519 7.68601 19.9919 
v -50.0559 7.68202 19.9894 
v -50.0276 7.67573 19.9919 
v -50.0278 7.67811 19.9976 
v -50.0269 7.67004 19.9894 
v -50.0601 7.67788 19.9917 
v -50.0264 7.66412 19.9917 
v -50.0601 7.744 20.0034 
v -50.0262 7.76032 19.9976 
v -50.0618 7.74574 19.9976 
v -50.0264 7.75776 20.0035 
v -50.0601 7.744 19.9917 
v -50.0264 7.75776 19.9917 
v -50.0276 7.74614 19.9919 
v -50.0503 7.68761 19.9976 
v -50.0519 7.68601 19.9919 
v -50.0559 7.68202 19.9894 
v -50.0276 7.67573 19.9919 
v -50.0278 7.67811 19.9976 
v -50.0276 7.67573 20.0032 
v -50.0264 7.66412 19.9917 
v -50.0559 7.68202 20.0057 
v -50.0519 7.68601 20.0032 
v -50.0559 7.73986 20.0057 
v -50.0519 7.73587 20.0032 
v -50.0559 7.73986 19.9894 
v -50.0519 7.73587 19.9919 
v -50.0503 7.73427 19.9976 
v -50.0679 7.71094 19.9894 
v -50.0623 7.71094 19.9919 
v -50.06 7.71094 19.9976 
v -50.0623 7.71094 20.0032 
v -50.0503 7.68761 19.9976 
v -50.0519 7.68601 19.9919 
v -50.0559 7.68202 19.9894 
v -50.0559 7.68202 20.0057 
v -50.0679 7.71094 20.0057 
v -50.0519 7.68601 20.0032 
v -50.0601 7.744 20.0034 
v -50.0618 7.74574 19.9976 
v -50.0264 7.75776 20.0035 
v -50.0269 7.75184 20.0057 
v -50.0762 7.71094 19.9976 
v -50.0559 7.73986 20.0057 
v -50.0276 7.74614 20.0032 
v -50.0738 7.71094 20.0034 
v -50.0519 7.73587 20.0032 
v -50.0503 7.73427 19.9976 
v -50.0278 7.74377 19.9976 
v -50.06 7.71094 19.9976 
v -50.0623 7.71094 20.0032 
v -50.0503 7.68761 19.9976 
v -50.0278 7.67811 19.9976 
v -50.0276 7.67573 20.0032 
v -50.0264 7.66412 19.9917 
v -50.0618 7.67614 19.9976 
v -50.0601 7.67788 20.0034 
v -50.0264 7.66412 20.0035 
v -50.0269 7.67004 20.0057 
v -50.0559 7.68202 20.0057 
v -50.0679 7.71094 20.0057 
v -50.0519 7.68601 20.0032 
v -50.0264 7.75776 20.0035 
v -50.0559 7.73986 20.0057 
v -50.0276 7.74614 20.0032 
v -50.0519 7.73587 20.0032 
v -50.0559 7.73986 19.9894 
v -50.0276 7.74614 19.9919 
v -50.0519 7.73587 19.9919 
v -50.0503 7.73427 19.9976 
v -50.0278 7.74377 19.9976 
v -50.0276 7.67573 20.0032 
v -50.0601 7.67788 19.9917 
v -50.0264 7.66412 19.9917 
v -50.0262 7.66156 19.9976 
v -50.0618 7.67614 19.9976 
v -50.0601 7.67788 20.0034 
v -50.0264 7.66412 20.0035 
v -50.0601 7.744 20.0034 
v -50.0618 7.74574 19.9976 
v -50.0601 7.744 19.9917 
v -50.0762 7.71094 19.9976 
v -50.0738 7.71094 20.0034 
v -50.0738 7.71094 19.9917 
v -50.0601 7.67788 19.9917 
v -50.0618 7.67614 19.9976 
v -50.0601 7.67788 20.0034 

vn -0.708661 0.708661 0 
vn -0.299213 0.716535 0.629921 
vn -0.519685 0.527559 -0.669291 
vn -0.299213 0.716535 -0.629921 
vn -1 0 0 
vn -0.0393701 0.102362 -0.992126 
vn -0.0551181 0.0551181 -1 
vn 0.267717 -0.629921 -0.724409 
vn -0.740157 0 -0.669291 
vn 0.472441 -0.472441 -0.740157 
vn 0.708661 -0.700787 0 
vn 0.385827 -0.92126 0 
vn -0.0708661 0 -1 
vn 0.669291 0 -0.748031 
vn 1 0 0 
vn 0.708661 0.708661 0 
vn 0.472441 0.472441 -0.740157 
vn -0.0551181 -0.0551181 -1 
vn 0.267717 0.629921 -0.732283 
vn 0.385827 0.92126 0 
vn -0.0393701 -0.102362 -0.992126 
vn -0.519685 -0.527559 -0.669291 
vn -0.299213 -0.716535 -0.629921 
vn -0.519685 0.527559 0.669291 
vn -0.377953 0.929134 0 
vn -0.708661 0.708661 0 
vn -0.299213 0.716535 0.629921 
vn -0.519685 0.527559 -0.669291 
vn -0.299213 0.716535 -0.629921 
vn 0.267717 -0.629921 -0.724409 
vn 0.708661 0.708661 0 
vn 0.472441 0.472441 -0.740157 
vn -0.0551181 -0.0551181 -1 
vn 0.267717 0.629921 -0.732283 
vn 0.385827 0.92126 0 
vn 0.267717 0.629921 0.732283 
vn -0.299213 -0.716535 -0.629921 
vn -0.0551181 -0.0551181 1 
vn 0.472441 0.472441 0.740157 
vn -0.0551181 0.0551181 1 
vn 0.472441 -0.472441 0.740157 
vn -0.0551181 0.0551181 -1 
vn 0.472441 -0.472441 -0.740157 
vn 0.708661 -0.700787 0 
vn -0.0708661 0 -1 
vn 0.669291 0 -0.748031 
vn 1 0 0 
vn 0.669291 0 0.748031 
vn 0.708661 0.708661 0 
vn 0.472441 0.472441 -0.740157 
vn -0.0551181 -0.0551181 -1 
vn -0.0551181 -0.0551181 1 
vn -0.0708661 0 1 
vn 0.472441 0.472441 0.740157 
vn -0.519685 0.527559 0.669291 
vn -0.708661 0.708661 0 
vn -0.299213 0.716535 0.629921 
vn -0.0393701 0.102362 0.992126 
vn -1 0 0 
vn -0.0551181 0.0551181 1 
vn 0.267717 -0.629921 0.732283 
vn -0.740157 0 0.669291 
vn 0.472441 -0.472441 0.740157 
vn 0.708661 -0.700787 0 
vn 0.385827 -0.92126 0 
vn 1 0 0 
vn 0.669291 0 0.748031 
vn 0.708661 0.708661 0 
vn 0.385827 0.92126 0 
vn 0.267717 0.629921 0.732283 
vn -0.299213 -0.716535 -0.629921 
vn -0.708661 -0.708661 0 
vn -0.519685 -0.527559 0.669291 
vn -0.299213 -0.716535 0.629921 
vn -0.0393701 -0.102362 0.992126 
vn -0.0551181 -0.0551181 1 
vn -0.0708661 0 1 
vn 0.472441 0.472441 0.740157 
vn -0.299213 0.716535 0.629921 
vn -0.0551181 0.0551181 1 
vn 0.267717 -0.629921 0.732283 
vn 0.472441 -0.472441 0.740157 
vn -0.0551181 0.0551181 -1 
vn 0.267717 -0.629921 -0.724409 
vn 0.472441 -0.472441 -0.740157 
vn 0.708661 -0.700787 0 
vn 0.385827 -0.92126 0 
vn 0.267717 0.629921 0.732283 
vn -0.519685 -0.527559 -0.669291 
vn -0.299213 -0.716535 -0.629921 
vn -0.377953 -0.929134 0 
vn -0.708661 -0.708661 0 
vn -0.519685 -0.527559 0.669291 
vn -0.299213 -0.716535 0.629921 
vn -0.519685 0.527559 0.669291 
vn -0.708661 0.708661 0 
vn -0.519685 0.527559 -0.669291 
vn -1 0 0 
vn -0.740157 0 0.669291 
vn -0.740157 0 -0.669291 
vn -0.519685 -0.527559 -0.669291 
vn -0.708661 -0.708661 0 
vn -0.519685 -0.527559 0.669291 

vt 20.0013 -8.99565 
vt 19.9969 -8.99415 
vt 20.0011 -8.99587 
vt 19.9969 -8.99415 
vt 20.0031 -9 
vt 19.997 -8.99489 
vt 20.0006 -8.99638 
vt 19.997 -8.9956 
vt 20.0028 -9 
vt 20.0001 -8.99688 
vt 19.9999 -8.99708 
vt 19.9971 -8.9959 
vt 20.0021 -9 
vt 20.0014 -9 
vt 20.0011 -9 
vt 19.9999 -9.00292 
vt 20.0001 -9.00312 
vt 20.0006 -9.00362 
vt 19.997 -9.0044 
vt 19.9971 -9.0041 
vt 19.997 -9.00511 
vt 20.0011 -9.00413 
vt 19.9969 -9.00585 
vt 20.0007 -9.00111 
vt 20 -8.99687 
vt 20 -9.00133 
vt 20.0007 -8.9969 
vt 19.9993 -9.00111 
vt 19.9993 -8.9969 
vt 19.9993 -8.99705 
vt 20 -8.99989 
vt 19.9993 -9.00009 
vt 19.999 -9.00059 
vt 19.9993 -8.99705 
vt 20 -8.99708 
vt 20.0007 -8.99705 
vt 19.9993 -8.9969 
vt 20.001 -9.00059 
vt 20.0007 -9.00009 
vt 19.999 -8.99638 
vt 19.9993 -8.99688 
vt 20.001 -8.99638 
vt 20.0007 -8.99688 
vt 20 -8.99708 
vt 20.001 -9 
vt 20.0007 -9 
vt 20 -9 
vt 19.9993 -9 
vt 20 -9.00292 
vt 20.0007 -9.00312 
vt 20.001 -9.00362 
vt 19.999 -9.00362 
vt 19.999 -9 
vt 19.9993 -9.00312 
vt 19.9989 -8.99587 
vt 19.9987 -8.99565 
vt 20.0031 -8.99415 
vt 20.003 -8.99489 
vt 19.9969 -9 
vt 19.9994 -8.99638 
vt 20.003 -8.9956 
vt 19.9972 -9 
vt 19.9999 -8.99688 
vt 20.0001 -8.99708 
vt 20.0029 -8.9959 
vt 19.9989 -9 
vt 19.9986 -9 
vt 20.0001 -9.00292 
vt 20.0029 -9.0041 
vt 20.003 -9.0044 
vt 20.0031 -9.00585 
vt 19.9987 -9.00435 
vt 19.9989 -9.00413 
vt 20.0031 -9.00585 
vt 20.003 -9.00511 
vt 19.9994 -9.00362 
vt 19.9979 -9 
vt 19.9999 -9.00312 
vt 19.9993 -8.9969 
vt 19.999 -9.00059 
vt 19.9993 -8.99705 
vt 19.9993 -9.00009 
vt 20.001 -9.00059 
vt 20.0007 -8.99705 
vt 20.0007 -9.00009 
vt 20 -8.99989 
vt 20 -8.99708 
vt 19.9993 -8.99705 
vt 20.0007 -9.00111 
vt 20.0007 -8.9969 
vt 20 -8.99687 
vt 20 -9.00133 
vt 19.9993 -9.00111 
vt 19.9993 -8.9969 
vt 20.0007 -8.99587 
vt 20 -8.99565 
vt 19.9993 -8.99587 
vt 20 -9 
vt 20.0007 -9 
vt 19.9993 -9 
vt 19.9993 -9.00413 
vt 20 -9.00435 
vt 20.0007 -9.00413 

usemtl Meshpart31Mtl

f 369/369/369 366/366/366 367/367/367 
f 366/366/366 369/369/369 370/370/370 
f 371/371/371 370/370/370 369/369/369 
f 372/372/372 366/366/366 370/370/370 
f 370/370/370 371/371/371 373/373/373 
f 376/376/376 370/370/370 373/373/373 
f 372/372/372 370/370/370 376/376/376 
f 376/376/376 373/373/373 377/377/377 
f 380/380/380 376/376/376 377/377/377 
f 381/381/381 372/372/372 376/376/376 
f 376/376/376 380/380/380 381/381/381 
f 382/382/382 381/381/381 380/380/380 
f 381/381/381 382/382/382 384/384/384 
f 372/372/372 381/381/381 385/385/385 
f 384/384/384 385/385/385 381/381/381 
f 385/385/385 384/384/384 386/386/386 
f 387/387/387 388/388/388 389/389/389 
f 388/388/388 387/387/387 390/390/390 
f 388/388/388 391/391/391 389/389/389 
f 391/391/391 388/388/388 392/392/392 
f 397/397/397 395/395/395 394/394/394 
f 394/394/394 398/398/398 397/397/397 
f 394/394/394 399/399/399 398/398/398 
f 399/399/399 394/394/394 402/402/402 
f 407/407/407 409/409/409 406/406/406 
f 409/409/409 407/407/407 410/410/410 
f 411/411/411 407/407/407 404/404/404 
f 407/407/407 411/411/411 410/410/410 
f 412/412/412 409/409/409 410/410/410 
f 411/411/411 412/412/412 410/410/410 
f 409/409/409 412/412/412 413/413/413 
f 412/412/412 411/411/411 417/417/417 
f 418/418/418 421/421/421 420/420/420 
f 421/421/421 418/418/418 423/423/423 
f 423/423/423 424/424/424 421/421/421 
f 425/425/425 423/423/423 418/418/418 
f 424/424/424 423/423/423 426/426/426 
f 436/436/436 437/437/437 438/438/438 
f 436/436/436 438/438/438 439/439/439 
f 439/439/439 425/425/425 436/436/436 
f 439/439/439 438/438/438 433/433/433 
f 425/425/425 439/439/439 440/440/440 
f 423/423/423 425/425/425 440/440/440 
f 440/440/440 426/426/426 423/423/423 
f 426/426/426 440/440/440 430/430/430 
f 441/441/441 440/440/440 439/439/439 
f 439/439/439 433/433/433 441/441/441 
f 440/440/440 441/441/441 430/430/430 
f 449/449/449 444/444/444 445/445/445 
f 447/447/447 449/449/449 448/448/448 
f 444/444/444 449/449/449 450/450/450 
f 449/449/449 447/447/447 450/450/450 
f 452/452/452 453/453/453 454/454/454 
f 454/454/454 455/455/455 452/452/452 
f 454/454/454 456/456/456 455/455/455 
f 456/456/456 454/454/454 457/457/457 
f 461/461/461 458/458/458 459/459/459 
f 461/461/461 459/459/459 460/460/460 
f 458/458/458 461/461/461 462/462/462 
f 460/460/460 463/463/463 461/461/461 
f 464/464/464 461/461/461 463/463/463 
f 461/461/461 464/464/464 465/465/465 
f 461/461/461 465/465/465 466/466/466 
f 466/466/466 462/462/462 461/461/461 

