# This file is brought to you by Roblox Corporation
# Generated by Roblox Studio

mtllib Glast Shard.mtl

g Meshpart1

v -250.9 4.92313 -0.0555995 
v -250.897 4.96299 -0.0555995 
v -250.826 5.13684 -0.0555995 
v -250.829 4.77063 -0.0555995 
v -249.38 5.12731 3.05176e-05 
v -249.265 5.01541 0.0428225 
v -249.233 4.87193 0.0428225 
v -249.135 4.79603 3.05176e-05 
v -249.157 4.82545 3.05176e-05 
v -249.233 4.87193 -0.0427615 
v -249.157 4.82545 3.05176e-05 
v -249.135 4.79603 3.05176e-05 
v -249.98 5.21884 -0.0427615 
v -250.021 5.27406 3.05176e-05 
v -250.002 5.2548 3.05176e-05 
v -250.021 5.27406 3.05176e-05 
v -249.98 5.21884 0.0428225 
v -250.002 5.2548 3.05176e-05 
v -250.334 4.88698 -0.0555995 
v -250.264 4.90844 0.0428225 
v -249.105 4.81799 3.05176e-05 
v -250.724 4.76143 0.0556605 
v -250.852 4.88161 0.0556605 
v -250.828 5.05905 0.0556605 
v -250.866 4.95215 0.0556605 
v -250.459 4.8096 0.0556605 
v -250.459 4.8096 -0.0555995 
v -250.724 4.76143 -0.0555995 
v -250.502 4.72529 3.05176e-05 
v -250.513 4.75369 -0.0555995 
v -250.459 4.8096 -0.0555995 
v -250.432 4.76245 3.05176e-05 
v -250.374 4.815 3.05176e-05 
v -250.459 4.8096 0.0556605 
v -250.502 4.72529 3.05176e-05 
v -250.513 4.75369 0.0556605 
v -250.796 5.03333 3.05176e-05 
v -250.828 5.05905 0.0556605 
v -250.866 4.95215 0.0556605 
v -250.827 4.9477 3.05176e-05 
v -250.866 4.95215 -0.0555995 
v -250.796 5.03333 3.05176e-05 
v -250.827 4.9477 3.05176e-05 
v -250.828 5.05905 -0.0555995 
v -250.816 4.89119 3.05176e-05 
v -250.866 4.95215 -0.0555995 
v -250.827 4.9477 3.05176e-05 
v -250.852 4.88161 -0.0555995 
v -250.778 4.83432 3.05176e-05 
v -250.805 4.81063 -0.0555995 
v -250.805 4.81063 0.0556605 
v -250.778 4.83432 3.05176e-05 
v -250.852 4.88161 0.0556605 
v -250.816 4.89119 3.05176e-05 
v -250.866 4.95215 0.0556605 
v -250.827 4.9477 3.05176e-05 
v -250.942 4.73975 3.05176e-05 
v -250.897 4.96299 -0.0555995 
v -250.826 5.13684 -0.0555995 
v -250.894 5.00284 -0.0555995 
v -250.942 4.73975 3.05176e-05 
v -250.829 4.77063 -0.0555995 
v -250.862 4.72895 3.05176e-05 
v -250.782 4.69452 3.05176e-05 
v -250.757 4.73895 -0.0555995 
v -250.685 4.70727 -0.0555995 
v -250.782 4.69452 3.05176e-05 
v -250.685 4.70727 0.0556605 
v -250.757 4.73895 0.0556605 
v -250.782 4.69452 3.05176e-05 
v -250.829 4.77063 0.0556605 
v -250.782 4.69452 3.05176e-05 
v -250.862 4.72895 3.05176e-05 
v -250.942 4.73975 3.05176e-05 
v -248.865 4.82023 3.05176e-05 
v -249 4.84245 -0.0427615 
v -249 4.84245 0.0428225 
v -249.558 5.12755 -0.0427615 
v -249.494 5.15984 3.05176e-05 
v -249.47 5.18268 3.05176e-05 
v -249.558 5.12755 0.0428225 
v -249.494 5.15984 3.05176e-05 
v -249.47 5.18268 3.05176e-05 
v -249.233 4.87193 0.0428225 
v -249.157 4.82545 3.05176e-05 
v -249.135 4.86672 0.0428225 
v -249.233 4.87193 -0.0427615 
v -249.135 4.86672 -0.0427615 
v -249.157 4.82545 3.05176e-05 
v -250.563 5.04915 3.05176e-05 
v -250.537 5.0788 -0.0555995 
v -250.617 5.12912 -0.0555995 
v -250.627 5.08947 3.05176e-05 
v -250.617 5.12912 0.0556605 
v -250.563 5.04915 3.05176e-05 
v -250.537 5.0788 0.0556605 
v -250.627 5.08947 3.05176e-05 
v -250.49 4.99665 0.0556605 
v -250.649 4.67254 3.05176e-05 
v -250.599 4.73048 0.0556605 
v -250.642 4.71887 0.0556605 
v -250.649 4.67254 3.05176e-05 
v -250.685 4.70727 0.0556605 
v -250.798 4.6551 3.05176e-05 
v -250.599 4.73048 -0.0555995 
v -250.649 4.67254 3.05176e-05 
v -250.642 4.71887 -0.0555995 
v -250.649 4.67254 3.05176e-05 
v -250.685 4.70727 -0.0555995 
v -250.798 4.6551 3.05176e-05 
v -250.224 5.27494 -0.00947548 
v -250.224 5.27494 0.00953652 
v -249.989 4.94727 0.0428225 
v -249.892 4.94109 3.05176e-05 
v -249.925 4.96974 0.0428225 
v -249.989 4.94727 -0.0427615 
v -249.892 4.94109 3.05176e-05 
v -249.925 4.96974 -0.0427615 
v -250.588 5.16418 -0.0555995 
v -250.663 5.18677 -0.0555995 
v -250.145 4.90611 -0.0427615 
v -250.053 4.9248 0.0428225 
v -250.264 4.90844 -0.0427615 
v -250.193 4.85001 3.05176e-05 
v -250.245 4.87615 3.05176e-05 
v -250.334 4.88698 -0.0555995 
v -250.245 4.87615 3.05176e-05 
v -250.264 4.90844 0.0428225 
v -250.334 4.88698 0.0556605 
v -250.193 4.85001 3.05176e-05 
v -249.105 4.81799 3.05176e-05 
v -248.865 4.82023 3.05176e-05 
v -249 4.84245 -0.0427615 
v -249.105 4.81799 3.05176e-05 
v -249 4.84245 0.0428225 
v -248.865 4.82023 3.05176e-05 
v -250.013 4.90751 3.05176e-05 
v -249.989 4.94727 -0.0427615 
v -250.053 4.9248 -0.0427615 
v -250.053 4.9248 0.0428225 
v -250.013 4.90751 3.05176e-05 
v -249.989 4.94727 0.0428225 
v -250.828 5.05905 0.0556605 
v -250.866 4.95215 0.0556605 
v -250.459 4.8096 0.0556605 
v -250.513 4.75369 -0.0555995 
v -250.459 4.8096 -0.0555995 
v -250.735 5.12336 -0.0555995 
v -250.088 5.20062 0.0428225 
v -249.718 4.99891 -0.0427615 
v -250.088 5.20062 -0.0427615 
v -250.599 4.73048 -0.0555995 
v -250.502 4.72529 3.05176e-05 
v -250.513 4.75369 -0.0555995 
v -250.432 4.76245 3.05176e-05 
v -250.374 4.815 3.05176e-05 
v -250.334 4.88698 -0.0555995 
v -250.245 4.87615 3.05176e-05 
v -250.374 4.815 3.05176e-05 
v -250.334 4.88698 0.0556605 
v -250.245 4.87615 3.05176e-05 
v -250.502 4.72529 3.05176e-05 
v -250.513 4.75369 0.0556605 
v -250.599 4.73048 0.0556605 
v -249.925 4.96974 -0.0427615 
v -249.718 4.99891 -0.0427615 
v -249.892 4.94109 3.05176e-05 
v -249.718 4.99891 0.0428225 
v -249.892 4.94109 3.05176e-05 
v -249.925 4.96974 0.0428225 
v -250.617 5.12912 0.0556605 
v -250.722 5.08485 3.05176e-05 
v -250.627 5.08947 3.05176e-05 
v -250.735 5.12336 0.0556605 
v -250.796 5.03333 3.05176e-05 
v -250.828 5.05905 0.0556605 
v -250.796 5.03333 3.05176e-05 
v -250.828 5.05905 -0.0555995 
v -250.735 5.12336 -0.0555995 
v -250.722 5.08485 3.05176e-05 
v -250.617 5.12912 -0.0555995 
v -250.627 5.08947 3.05176e-05 
v -250.942 4.73975 3.05176e-05 
v -250.958 4.93181 3.05176e-05 
v -250.903 4.88328 -0.0555995 
v -250.9 4.92313 -0.0555995 
v -250.897 4.96299 -0.0555995 
v -251.007 4.96285 3.05176e-05 
v -250.785 5.14932 -0.0555995 
v -250.859 5.18233 3.05176e-05 
v -250.865 5.22496 3.05176e-05 
v -250.826 5.13684 -0.0555995 
v -250.95 5.06339 3.05176e-05 
v -250.859 5.18233 3.05176e-05 
v -250.891 5.0427 -0.0555995 
v -250.958 5.02215 3.05176e-05 
v -250.894 5.00284 -0.0555995 
v -250.897 4.96299 -0.0555995 
v -251.007 4.96285 3.05176e-05 
v -250.942 4.73975 3.05176e-05 
v -250.903 4.88328 -0.0555995 
v -250.829 4.77063 -0.0555995 
v -250.862 4.72895 3.05176e-05 
v -250.782 4.69452 3.05176e-05 
v -250.685 4.70727 -0.0555995 
v -250.782 4.69452 3.05176e-05 
v -250.798 4.6551 3.05176e-05 
v -249.07 4.93101 3.05176e-05 
v -248.865 4.82023 3.05176e-05 
v -249 4.84245 -0.0427615 
v -249.088 4.88493 -0.0427615 
v -249.137 4.96923 3.05176e-05 
v -249.299 5.00323 -0.0427615 
v -249.38 5.12731 3.05176e-05 
v -249.117 4.97992 3.05176e-05 
v -249.265 5.01541 -0.0427615 
v -249.368 5.06813 -0.0427615 
v -249.451 5.1021 -0.0427615 
v -249.494 5.15984 3.05176e-05 
v -249.558 5.12755 -0.0427615 
v -249.494 5.15984 3.05176e-05 
v -249.157 4.82545 3.05176e-05 
v -249.233 4.87193 -0.0427615 
v -250.479 4.91649 -0.0555995 
v -250.49 4.99665 -0.0555995 
v -250.563 5.04915 3.05176e-05 
v -250.537 5.0788 -0.0555995 
v -250.627 5.08947 3.05176e-05 
v -250.617 5.12912 0.0556605 
v -250.49 4.99665 0.0556605 
v -250.544 4.85704 3.05176e-05 
v -250.513 4.83898 -0.0555995 
v -249.98 5.21884 -0.0427615 
v -250.021 5.27406 3.05176e-05 
v -250.002 5.2548 3.05176e-05 
v -249.949 5.21507 -0.0427615 
v -249.98 5.21884 -0.0427615 
v -250.084 5.22524 -0.0427615 
v -250.083 5.27637 3.05176e-05 
v -250.599 4.73048 -0.0555995 
v -250.649 4.67254 3.05176e-05 
v -250.642 4.71887 -0.0555995 
v -250.554 4.65458 3.05176e-05 
v -250.084 5.22524 -0.0427615 
v -250.224 5.27494 -0.00947548 
v -250.083 5.27637 3.05176e-05 
v -250.285 5.28152 3.05176e-05 
v -249.558 5.12755 -0.0427615 
v -249.661 5.23145 3.05176e-05 
v -249.47 5.18268 3.05176e-05 
v -249.666 5.153 -0.0427615 
v -249.731 5.18816 -0.0427615 
v -249.895 5.29501 3.05176e-05 
v -249.265 5.01541 -0.0427615 
v -249.117 4.97992 3.05176e-05 
v -249.137 4.96923 3.05176e-05 
v -249.299 5.00323 -0.0427615 
v -249.859 5.24763 3.05176e-05 
v -249.84 5.20162 -0.0427615 
v -249.949 5.21507 -0.0427615 
v -249.859 5.24763 3.05176e-05 
v -249.731 5.18816 -0.0427615 
v -249.859 5.24763 3.05176e-05 
v -249.895 5.29501 3.05176e-05 
v -249.276 4.80441 3.05176e-05 
v -249.425 4.84664 -0.0427615 
v -249.281 4.86611 -0.0427615 
v -249.45 4.79034 3.05176e-05 
v -249.233 4.87193 -0.0427615 
v -249.276 4.80441 3.05176e-05 
v -249.135 4.79603 3.05176e-05 
v -249.892 4.94109 3.05176e-05 
v -249.854 4.88313 3.05176e-05 
v -249.854 4.88313 3.05176e-05 
v -249.989 4.94727 -0.0427615 
v -249.892 4.94109 3.05176e-05 
v -249.925 4.96974 -0.0427615 
v -249.611 4.97708 -0.0427615 
v -249.567 4.92808 3.05176e-05 
v -249.61 4.91525 3.05176e-05 
v -249.561 4.98963 -0.0427615 
v -250.442 5.13515 3.05176e-05 
v -250.372 5.07839 -0.0555995 
v -250.311 5.08552 -0.0427615 
v -250.514 5.1416 -0.0555995 
v -250.531 5.21384 3.05176e-05 
v -250.588 5.16418 -0.0555995 
v -250.574 5.25115 3.05176e-05 
v -250.574 5.25115 3.05176e-05 
v -250.663 5.18677 -0.0555995 
v -250.668 5.24487 3.05176e-05 
v -250.663 5.18677 -0.0555995 
v -250.763 5.2136 3.05176e-05 
v -250.744 5.1618 -0.0555995 
v -250.763 5.2136 3.05176e-05 
v -250.785 5.14932 -0.0555995 
v -250.865 5.22496 3.05176e-05 
v -250.589 4.78123 -0.0555995 
v -250.029 4.86575 3.05176e-05 
v -250.053 4.9248 -0.0427615 
v -250.013 4.90751 3.05176e-05 
v -250.145 4.90611 -0.0427615 
v -250.264 4.90844 -0.0427615 
v -250.193 4.85001 3.05176e-05 
v -250.245 4.87615 3.05176e-05 
v -250.334 4.88698 -0.0555995 
v -250.249 5.10779 3.05176e-05 
v -250.311 5.08552 -0.0427615 
v -250.211 5.04918 -0.0427615 
v -250.264 4.90844 -0.0427615 
v -250.145 4.90611 -0.0427615 
v -250.193 4.85001 3.05176e-05 
v -250.029 4.86575 3.05176e-05 
v -250.222 5.11132 3.05176e-05 
v -250.141 5.13128 -0.0427615 
v -250.179 5.06683 -0.0427615 
v -250.149 5.16414 3.05176e-05 
v -250.211 5.04918 -0.0427615 
v -250.249 5.10779 3.05176e-05 
v -249.105 4.81799 3.05176e-05 
v -249.135 4.86672 -0.0427615 
v -249.086 4.86693 -0.0427615 
v -249.157 4.82545 3.05176e-05 
v -249 4.84245 -0.0427615 
v -249.086 4.86693 -0.0427615 
v -250.013 4.90751 3.05176e-05 
v -249.989 4.94727 -0.0427615 
v -249.854 4.88313 3.05176e-05 
v -250.724 4.76143 0.0556605 
v -250.852 4.88161 0.0556605 
v -250.589 4.78123 -0.0555995 
v -250.599 4.73048 -0.0555995 
v -250.664 4.75742 -0.0555995 
v -250.642 4.71887 -0.0555995 
v -250.685 4.70727 -0.0555995 
v -250.513 4.83898 -0.0555995 
v -250.513 4.75369 -0.0555995 
v -250.459 4.8096 -0.0555995 
v -250.479 4.91649 -0.0555995 
v -250.866 4.95215 -0.0555995 
v -250.894 5.00284 -0.0555995 
v -250.828 5.05905 -0.0555995 
v -250.891 5.0427 -0.0555995 
v -250.826 5.13684 -0.0555995 
v -250.785 5.14932 -0.0555995 
v -250.735 5.12336 -0.0555995 
v -250.663 5.18677 -0.0555995 
v -250.744 5.1618 -0.0555995 
v -250.372 5.07839 -0.0555995 
v -250.334 4.88698 -0.0555995 
v -250.49 4.99665 -0.0555995 
v -250.459 4.8096 -0.0555995 
v -250.479 4.91649 -0.0555995 
v -250.405 4.86551 -0.0555995 
v -250.724 4.76143 -0.0555995 
v -250.685 4.70727 -0.0555995 
v -250.757 4.73895 -0.0555995 
v -250.664 4.75742 -0.0555995 
v -250.805 4.81063 -0.0555995 
v -250.599 4.73048 -0.0555995 
v -250.589 4.78123 -0.0555995 
v -250.513 4.75369 -0.0555995 
v -250.829 4.77063 -0.0555995 
v -250.852 4.88161 -0.0555995 
v -250.805 4.81063 -0.0555995 
v -250.9 4.92313 -0.0555995 
v -250.866 4.95215 -0.0555995 
v -249.718 4.99891 -0.0427615 
v -249.666 5.153 -0.0427615 
v -249.611 4.97708 -0.0427615 
v -249.558 5.12755 -0.0427615 
v -249.731 5.18816 -0.0427615 
v -249.561 4.98963 -0.0427615 
v -249.84 5.20162 -0.0427615 
v -249.451 5.1021 -0.0427615 
v -249.925 4.96974 -0.0427615 
v -249.461 4.94253 -0.0427615 
v -250.264 4.90844 -0.0427615 
v -250.211 5.04918 -0.0427615 
v -250.145 4.90611 -0.0427615 
v -250.311 5.08552 -0.0427615 
v -250.334 4.88698 -0.0555995 
v -250.372 5.07839 -0.0555995 
v -250.405 4.86551 -0.0555995 
v -250.49 4.99665 -0.0555995 
v -250.537 5.0788 -0.0555995 
v -250.514 5.1416 -0.0555995 
v -250.588 5.16418 -0.0555995 
v -250.617 5.12912 -0.0555995 
v -250.663 5.18677 -0.0555995 
v -250.735 5.12336 -0.0555995 
v -250.744 5.1618 -0.0555995 
v -250.785 5.14932 -0.0555995 
v -250.828 5.05905 -0.0555995 
v -250.826 5.13684 -0.0555995 
v -250.891 5.0427 -0.0555995 
v -250.894 5.00284 -0.0555995 
v -250.866 4.95215 -0.0555995 
v -250.897 4.96299 -0.0555995 
v -250.9 4.92313 -0.0555995 
v -250.852 4.88161 -0.0555995 
v -250.903 4.88328 -0.0555995 
v -250.829 4.77063 -0.0555995 
v -250.805 4.81063 -0.0555995 
v -250.757 4.73895 -0.0555995 
v -249.299 5.00323 -0.0427615 
v -249.233 4.87193 -0.0427615 
v -249.281 4.86611 -0.0427615 
v -249.135 4.86672 -0.0427615 
v -249.443 4.87408 -0.0427615 
v -249.425 4.84664 -0.0427615 
v -249.088 4.88493 -0.0427615 
v -249.086 4.86693 -0.0427615 
v -249 4.84245 -0.0427615 
v -249.949 5.21507 -0.0427615 
v -249.368 5.06813 -0.0427615 
v -249.98 5.21884 -0.0427615 
v -249.989 4.94727 -0.0427615 
v -249.265 5.01541 -0.0427615 
v -250.141 5.13128 -0.0427615 
v -250.053 4.9248 -0.0427615 
v -250.088 5.20062 -0.0427615 
v -250.084 5.22524 -0.0427615 
v -250.224 5.27494 -0.00947548 
v -250.179 5.06683 -0.0427615 
v -250.599 4.73048 -0.0555995 
v -250.502 4.72529 3.05176e-05 
v -250.554 4.65458 3.05176e-05 
v -250.459 4.8096 -0.0555995 
v -250.432 4.76245 3.05176e-05 
v -250.374 4.815 3.05176e-05 
v -250.405 4.86551 -0.0555995 
v -250.334 4.88698 -0.0555995 
v -249.718 4.99891 -0.0427615 
v -249.892 4.94109 3.05176e-05 
v -249.72 4.9371 3.05176e-05 
v -249.611 4.97708 -0.0427615 
v -249.61 4.91525 3.05176e-05 
v -249.718 4.99891 -0.0427615 
v -250.222 5.25225 3.05176e-05 
v -250.088 5.20062 -0.0427615 
v -250.149 5.16414 3.05176e-05 
v -250.222 5.25225 3.05176e-05 
v -250.285 5.28152 3.05176e-05 
v -250.224 5.27494 -0.00947548 
v -250.088 5.20062 -0.0427615 
v -249.561 4.98963 -0.0427615 
v -249.509 4.90294 3.05176e-05 
v -249.567 4.92808 3.05176e-05 
v -249.461 4.94253 -0.0427615 
v -250.796 5.03333 3.05176e-05 
v -249.499 4.84882 3.05176e-05 
v -249.509 4.90294 3.05176e-05 
v -249.443 4.87408 -0.0427615 
v -249.461 4.94253 -0.0427615 
v -249.425 4.84664 -0.0427615 
v -249.45 4.79034 3.05176e-05 
v -250.942 4.73975 3.05176e-05 
v -250.958 4.93181 3.05176e-05 
v -250.903 4.88328 -0.0555995 
v -250.958 4.93181 3.05176e-05 
v -250.903 4.88328 0.0556605 
v -250.942 4.73975 3.05176e-05 
v -250.865 5.22496 3.05176e-05 
v -250.826 5.13684 -0.0555995 
v -250.95 5.06339 3.05176e-05 
v -250.894 5.00284 0.0556605 
v -249.07 4.93101 3.05176e-05 
v -249.088 4.88493 0.0428225 
v -249.38 5.12731 3.05176e-05 
v -249.494 5.15984 3.05176e-05 
v -249.265 5.01541 0.0428225 
v -250.525 4.98334 3.05176e-05 
v -250.479 4.91649 -0.0555995 
v -250.517 4.91913 3.05176e-05 
v -250.49 4.99665 -0.0555995 
v -250.563 5.04915 3.05176e-05 
v -250.537 5.0788 -0.0555995 
v -250.627 5.08947 3.05176e-05 
v -250.617 5.12912 0.0556605 
v -250.563 5.04915 3.05176e-05 
v -250.537 5.0788 0.0556605 
v -250.49 4.99665 0.0556605 
v -250.525 4.98334 3.05176e-05 
v -250.479 4.91649 0.0556605 
v -250.517 4.91913 3.05176e-05 
v -250.517 4.91913 3.05176e-05 
v -250.479 4.91649 -0.0555995 
v -250.544 4.85704 3.05176e-05 
v -250.513 4.83898 -0.0555995 
v -250.479 4.91649 0.0556605 
v -250.544 4.85704 3.05176e-05 
v -250.513 4.83898 0.0556605 
v -250.517 4.91913 3.05176e-05 
v -249.61 4.91525 3.05176e-05 
v -249.561 4.98963 0.0428225 
v -250.588 5.16418 -0.0555995 
v -250.663 5.18677 0.0556605 
v -249.105 4.81799 3.05176e-05 
v -249.086 4.86693 -0.0427615 
v -250.828 5.05905 0.0556605 
v -250.866 4.95215 0.0556605 
v -250.513 4.75369 -0.0555995 
v -250.088 5.20062 -0.0427615 
v -250.149 5.16414 3.05176e-05 
v -250.141 5.13128 -0.0427615 
v -250.088 5.20062 0.0428225 
v -250.149 5.16414 3.05176e-05 
v -250.141 5.13128 0.0428225 
v -250.785 5.14932 -0.0555995 
v -250.859 5.18233 3.05176e-05 
v -250.826 5.13684 -0.0555995 
v -250.95 5.06339 3.05176e-05 
v -250.826 5.13684 0.0556605 
v -250.785 5.14932 0.0556605 
v -250.859 5.18233 3.05176e-05 
v -250.829 4.77063 -0.0555995 
v -248.865 4.82023 3.05176e-05 
v -249.088 4.88493 0.0428225 
v -249 4.84245 0.0428225 
v -249.38 5.12731 3.05176e-05 
v -249.265 5.01541 -0.0427615 
v -249.265 5.01541 0.0428225 
v -250.544 4.85704 3.05176e-05 
v -250.513 4.83898 -0.0555995 
v -250.513 4.83898 0.0556605 
v -249.98 5.21884 -0.0427615 
v -250.002 5.2548 3.05176e-05 
v -249.949 5.21507 -0.0427615 
v -250.083 5.27637 3.05176e-05 
v -249.98 5.21884 0.0428225 
v -249.98 5.21884 0.0428225 
v -250.002 5.2548 3.05176e-05 
v -249.949 5.21507 0.0428225 
v -250.642 4.71887 -0.0555995 
v -250.224 5.27494 -0.00947548 
v -250.083 5.27637 3.05176e-05 
v -250.285 5.28152 3.05176e-05 
v -250.083 5.27637 3.05176e-05 
v -250.285 5.28152 3.05176e-05 
v -250.224 5.27494 0.00953652 
v -249.859 5.24763 3.05176e-05 
v -249.949 5.21507 0.0428225 
v -250.002 5.2548 3.05176e-05 
v -249.949 5.21507 -0.0427615 
v -249.859 5.24763 3.05176e-05 
v -250.002 5.2548 3.05176e-05 
v -250.442 5.13515 3.05176e-05 
v -250.319 5.1049 3.05176e-05 
v -250.372 5.07839 -0.0555995 
v -250.311 5.08552 -0.0427615 
v -250.372 5.07839 -0.0555995 
v -250.514 5.1416 -0.0555995 
v -250.531 5.21384 3.05176e-05 
v -250.574 5.25115 3.05176e-05 
v -250.663 5.18677 -0.0555995 
v -250.663 5.18677 0.0556605 
v -250.744 5.1618 0.0556605 
v -250.514 5.1416 0.0556605 
v -250.442 5.13515 3.05176e-05 
v -250.372 5.07839 0.0556605 
v -250.372 5.07839 0.0556605 
v -250.319 5.1049 3.05176e-05 
v -250.311 5.08552 0.0428225 
v -250.544 4.85704 3.05176e-05 
v -250.589 4.78123 -0.0555995 
v -250.605 4.81078 3.05176e-05 
v -250.513 4.83898 -0.0555995 
v -250.513 4.83898 0.0556605 
v -250.544 4.85704 3.05176e-05 
v -250.589 4.78123 0.0556605 
v -250.605 4.81078 3.05176e-05 
v -250.319 5.1049 3.05176e-05 
v -250.249 5.10779 3.05176e-05 
v -250.311 5.08552 -0.0427615 
v -250.249 5.10779 3.05176e-05 
v -250.311 5.08552 0.0428225 
v -250.319 5.1049 3.05176e-05 
v -250.222 5.11132 3.05176e-05 
v -250.141 5.13128 -0.0427615 
v -250.179 5.06683 -0.0427615 
v -250.149 5.16414 3.05176e-05 
v -250.222 5.11132 3.05176e-05 
v -250.179 5.06683 0.0428225 
v -250.141 5.13128 0.0428225 
v -250.149 5.16414 3.05176e-05 
v -249.105 4.81799 3.05176e-05 
v -249.086 4.86693 -0.0427615 
v -250.664 4.75742 0.0556605 
v -250.724 4.76143 0.0556605 
v -250.852 4.88161 0.0556605 
v -250.828 5.05905 0.0556605 
v -250.513 4.75369 -0.0555995 
v -250.459 4.8096 -0.0555995 
v -250.735 5.12336 -0.0555995 
v -250.724 4.76143 -0.0555995 
v -250.088 5.20062 0.0428225 
v -250.088 5.20062 -0.0427615 
v -250.605 4.81078 3.05176e-05 
v -250.664 4.75742 -0.0555995 
v -250.665 4.7917 3.05176e-05 
v -250.589 4.78123 -0.0555995 
v -250.589 4.78123 0.0556605 
v -250.605 4.81078 3.05176e-05 
v -250.664 4.75742 0.0556605 
v -250.665 4.7917 3.05176e-05 
v -250.665 4.7917 3.05176e-05 
v -250.664 4.75742 -0.0555995 
v -250.713 4.79491 3.05176e-05 
v -250.724 4.76143 -0.0555995 
v -250.664 4.75742 0.0556605 
v -250.713 4.79491 3.05176e-05 
v -250.724 4.76143 0.0556605 
v -250.665 4.7917 3.05176e-05 
v -250.778 4.83432 3.05176e-05 
v -250.805 4.81063 -0.0555995 
v -250.724 4.76143 -0.0555995 
v -250.713 4.79491 3.05176e-05 
v -250.805 4.81063 0.0556605 
v -250.724 4.76143 0.0556605 
v -250.778 4.83432 3.05176e-05 
v -250.713 4.79491 3.05176e-05 
v -250.942 4.73975 3.05176e-05 
v -250.958 4.93181 3.05176e-05 
v -250.958 4.93181 3.05176e-05 
v -250.903 4.88328 0.0556605 
v -250.9 4.92313 0.0556605 
v -250.897 4.96299 0.0556605 
v -251.007 4.96285 3.05176e-05 
v -250.859 5.18233 3.05176e-05 
v -250.865 5.22496 3.05176e-05 
v -250.95 5.06339 3.05176e-05 
v -250.958 5.02215 3.05176e-05 
v -250.95 5.06339 3.05176e-05 
v -250.826 5.13684 0.0556605 
v -250.859 5.18233 3.05176e-05 
v -250.891 5.0427 0.0556605 
v -250.958 5.02215 3.05176e-05 
v -250.894 5.00284 0.0556605 
v -250.897 4.96299 0.0556605 
v -251.007 4.96285 3.05176e-05 
v -250.785 5.14932 0.0556605 
v -250.859 5.18233 3.05176e-05 
v -250.865 5.22496 3.05176e-05 
v -250.782 4.69452 3.05176e-05 
v -250.685 4.70727 0.0556605 
v -250.757 4.73895 0.0556605 
v -250.782 4.69452 3.05176e-05 
v -250.798 4.6551 3.05176e-05 
v -250.829 4.77063 0.0556605 
v -250.782 4.69452 3.05176e-05 
v -250.862 4.72895 3.05176e-05 
v -250.942 4.73975 3.05176e-05 
v -250.903 4.88328 0.0556605 
v -249.07 4.93101 3.05176e-05 
v -248.865 4.82023 3.05176e-05 
v -249.137 4.96923 3.05176e-05 
v -249.299 5.00323 0.0428225 
v -249.088 4.88493 0.0428225 
v -249.137 4.96923 3.05176e-05 
v -249.07 4.93101 3.05176e-05 
v -249 4.84245 0.0428225 
v -248.865 4.82023 3.05176e-05 
v -249.38 5.12731 3.05176e-05 
v -249.494 5.15984 3.05176e-05 
v -249.38 5.12731 3.05176e-05 
v -249.451 5.1021 0.0428225 
v -249.368 5.06813 0.0428225 
v -249.494 5.15984 3.05176e-05 
v -249.265 5.01541 0.0428225 
v -249.117 4.97992 3.05176e-05 
v -249.558 5.12755 0.0428225 
v -249.494 5.15984 3.05176e-05 
v -249.233 4.87193 0.0428225 
v -249.157 4.82545 3.05176e-05 
v -250.517 4.91913 3.05176e-05 
v -250.563 5.04915 3.05176e-05 
v -250.627 5.08947 3.05176e-05 
v -250.617 5.12912 0.0556605 
v -250.49 4.99665 0.0556605 
v -250.544 4.85704 3.05176e-05 
v -250.513 4.83898 0.0556605 
v -250.021 5.27406 3.05176e-05 
v -250.002 5.2548 3.05176e-05 
v -250.083 5.27637 3.05176e-05 
v -250.021 5.27406 3.05176e-05 
v -250.084 5.22524 0.0428225 
v -249.98 5.21884 0.0428225 
v -250.083 5.27637 3.05176e-05 
v -249.949 5.21507 0.0428225 
v -250.649 4.67254 3.05176e-05 
v -250.599 4.73048 0.0556605 
v -250.554 4.65458 3.05176e-05 
v -250.285 5.28152 3.05176e-05 
v -250.083 5.27637 3.05176e-05 
v -250.224 5.27494 0.00953652 
v -250.084 5.22524 0.0428225 
v -249.661 5.23145 3.05176e-05 
v -249.661 5.23145 3.05176e-05 
v -249.731 5.18816 0.0428225 
v -249.666 5.153 0.0428225 
v -249.895 5.29501 3.05176e-05 
v -249.558 5.12755 0.0428225 
v -249.47 5.18268 3.05176e-05 
v -249.265 5.01541 0.0428225 
v -249.137 4.96923 3.05176e-05 
v -249.117 4.97992 3.05176e-05 
v -249.299 5.00323 0.0428225 
v -249.859 5.24763 3.05176e-05 
v -249.949 5.21507 0.0428225 
v -249.84 5.20162 0.0428225 
v -249.731 5.18816 0.0428225 
v -249.859 5.24763 3.05176e-05 
v -249.895 5.29501 3.05176e-05 
v -249.276 4.80441 3.05176e-05 
v -249.45 4.79034 3.05176e-05 
v -249.45 4.79034 3.05176e-05 
v -249.276 4.80441 3.05176e-05 
v -249.425 4.84664 0.0428225 
v -249.281 4.86611 0.0428225 
v -249.276 4.80441 3.05176e-05 
v -249.233 4.87193 0.0428225 
v -249.135 4.79603 3.05176e-05 
v -249.989 4.94727 0.0428225 
v -249.892 4.94109 3.05176e-05 
v -249.854 4.88313 3.05176e-05 
v -249.567 4.92808 3.05176e-05 
v -249.61 4.91525 3.05176e-05 
v -249.567 4.92808 3.05176e-05 
v -249.611 4.97708 0.0428225 
v -249.61 4.91525 3.05176e-05 
v -249.561 4.98963 0.0428225 
v -250.442 5.13515 3.05176e-05 
v -250.531 5.21384 3.05176e-05 
v -250.574 5.25115 3.05176e-05 
v -250.763 5.2136 3.05176e-05 
v -250.663 5.18677 0.0556605 
v -250.574 5.25115 3.05176e-05 
v -250.668 5.24487 3.05176e-05 
v -250.588 5.16418 0.0556605 
v -250.763 5.2136 3.05176e-05 
v -250.663 5.18677 0.0556605 
v -250.744 5.1618 0.0556605 
v -250.763 5.2136 3.05176e-05 
v -250.785 5.14932 0.0556605 
v -250.865 5.22496 3.05176e-05 
v -250.531 5.21384 3.05176e-05 
v -250.574 5.25115 3.05176e-05 
v -250.514 5.1416 0.0556605 
v -250.442 5.13515 3.05176e-05 
v -250.372 5.07839 0.0556605 
v -250.311 5.08552 0.0428225 
v -250.029 4.86575 3.05176e-05 
v -250.013 4.90751 3.05176e-05 
v -250.145 4.90611 0.0428225 
v -250.029 4.86575 3.05176e-05 
v -250.053 4.9248 0.0428225 
v -250.013 4.90751 3.05176e-05 
v -250.193 4.85001 3.05176e-05 
v -250.245 4.87615 3.05176e-05 
v -250.264 4.90844 0.0428225 
v -250.334 4.88698 0.0556605 
v -250.249 5.10779 3.05176e-05 
v -250.311 5.08552 0.0428225 
v -250.211 5.04918 0.0428225 
v -250.145 4.90611 0.0428225 
v -250.193 4.85001 3.05176e-05 
v -250.029 4.86575 3.05176e-05 
v -250.264 4.90844 0.0428225 
v -250.222 5.11132 3.05176e-05 
v -250.149 5.16414 3.05176e-05 
v -250.222 5.11132 3.05176e-05 
v -250.211 5.04918 0.0428225 
v -250.179 5.06683 0.0428225 
v -250.249 5.10779 3.05176e-05 
v -250.141 5.13128 0.0428225 
v -249.105 4.81799 3.05176e-05 
v -249.105 4.81799 3.05176e-05 
v -249 4.84245 0.0428225 
v -249.086 4.86693 0.0428225 
v -249.135 4.86672 0.0428225 
v -249.086 4.86693 0.0428225 
v -249.157 4.82545 3.05176e-05 
v -250.013 4.90751 3.05176e-05 
v -249.989 4.94727 0.0428225 
v -249.854 4.88313 3.05176e-05 
v -250.513 4.75369 0.0556605 
v -250.589 4.78123 0.0556605 
v -250.599 4.73048 0.0556605 
v -250.664 4.75742 0.0556605 
v -250.642 4.71887 0.0556605 
v -250.685 4.70727 0.0556605 
v -250.724 4.76143 0.0556605 
v -250.757 4.73895 0.0556605 
v -250.805 4.81063 0.0556605 
v -250.757 4.73895 0.0556605 
v -250.805 4.81063 0.0556605 
v -250.829 4.77063 0.0556605 
v -250.852 4.88161 0.0556605 
v -250.903 4.88328 0.0556605 
v -250.663 5.18677 0.0556605 
v -250.617 5.12912 0.0556605 
v -250.588 5.16418 0.0556605 
v -250.735 5.12336 0.0556605 
v -250.537 5.0788 0.0556605 
v -250.514 5.1416 0.0556605 
v -250.785 5.14932 0.0556605 
v -250.828 5.05905 0.0556605 
v -250.826 5.13684 0.0556605 
v -250.891 5.0427 0.0556605 
v -250.894 5.00284 0.0556605 
v -250.866 4.95215 0.0556605 
v -250.894 5.00284 0.0556605 
v -250.897 4.96299 0.0556605 
v -250.866 4.95215 0.0556605 
v -250.828 5.05905 0.0556605 
v -250.891 5.0427 0.0556605 
v -250.785 5.14932 0.0556605 
v -250.735 5.12336 0.0556605 
v -250.744 5.1618 0.0556605 
v -250.663 5.18677 0.0556605 
v -250.589 4.78123 0.0556605 
v -250.513 4.75369 0.0556605 
v -250.513 4.83898 0.0556605 
v -250.459 4.8096 0.0556605 
v -250.479 4.91649 0.0556605 
v -250.405 4.86551 0.0556605 
v -250.664 4.75742 0.0556605 
v -250.599 4.73048 0.0556605 
v -250.685 4.70727 0.0556605 
v -250.642 4.71887 0.0556605 
v -250.334 4.88698 0.0556605 
v -250.479 4.91649 0.0556605 
v -250.405 4.86551 0.0556605 
v -250.9 4.92313 0.0556605 
v -250.852 4.88161 0.0556605 
v -250.866 4.95215 0.0556605 
v -250.897 4.96299 0.0556605 
v -250.903 4.88328 0.0556605 
v -250.829 4.77063 0.0556605 
v -250.805 4.81063 0.0556605 
v -250.334 4.88698 0.0556605 
v -250.49 4.99665 0.0556605 
v -250.372 5.07839 0.0556605 
v -250.537 5.0788 0.0556605 
v -250.514 5.1416 0.0556605 
v -250.311 5.08552 0.0428225 
v -250.588 5.16418 0.0556605 
v -250.617 5.12912 0.0556605 
v -250.264 4.90844 0.0428225 
v -250.211 5.04918 0.0428225 
v -250.145 4.90611 0.0428225 
v -250.179 5.06683 0.0428225 
v -250.053 4.9248 0.0428225 
v -250.141 5.13128 0.0428225 
v -249.989 4.94727 0.0428225 
v -249.98 5.21884 0.0428225 
v -250.088 5.20062 0.0428225 
v -249.925 4.96974 0.0428225 
v -250.084 5.22524 0.0428225 
v -250.224 5.27494 0.00953652 
v -249.949 5.21507 0.0428225 
v -249.84 5.20162 0.0428225 
v -249.718 4.99891 0.0428225 
v -249.731 5.18816 0.0428225 
v -249.666 5.153 0.0428225 
v -249.611 4.97708 0.0428225 
v -249.558 5.12755 0.0428225 
v -249.561 4.98963 0.0428225 
v -249.451 5.1021 0.0428225 
v -249.461 4.94253 0.0428225 
v -249.368 5.06813 0.0428225 
v -249.299 5.00323 0.0428225 
v -249.265 5.01541 0.0428225 
v -249.443 4.87408 0.0428225 
v -249.281 4.86611 0.0428225 
v -249.425 4.84664 0.0428225 
v -249.233 4.87193 0.0428225 
v -249.135 4.86672 0.0428225 
v -249.088 4.88493 0.0428225 
v -249.086 4.86693 0.0428225 
v -249 4.84245 0.0428225 
v -249.718 4.99891 -0.0427615 
v -250.502 4.72529 3.05176e-05 
v -250.432 4.76245 3.05176e-05 
v -250.374 4.815 3.05176e-05 
v -250.405 4.86551 0.0556605 
v -250.459 4.8096 0.0556605 
v -250.374 4.815 3.05176e-05 
v -250.334 4.88698 0.0556605 
v -250.432 4.76245 3.05176e-05 
v -250.502 4.72529 3.05176e-05 
v -250.599 4.73048 0.0556605 
v -250.554 4.65458 3.05176e-05 
v -249.72 4.9371 3.05176e-05 
v -249.72 4.9371 3.05176e-05 
v -249.611 4.97708 0.0428225 
v -249.718 4.99891 0.0428225 
v -249.61 4.91525 3.05176e-05 
v -249.718 4.99891 0.0428225 
v -249.892 4.94109 3.05176e-05 
v -250.222 5.25225 3.05176e-05 
v -250.088 5.20062 0.0428225 
v -250.222 5.25225 3.05176e-05 
v -250.149 5.16414 3.05176e-05 
v -250.285 5.28152 3.05176e-05 
v -250.222 5.25225 3.05176e-05 
v -250.224 5.27494 0.00953652 
v -250.088 5.20062 0.0428225 
v -249.509 4.90294 3.05176e-05 
v -249.509 4.90294 3.05176e-05 
v -249.561 4.98963 0.0428225 
v -249.567 4.92808 3.05176e-05 
v -249.461 4.94253 0.0428225 
v -250.796 5.03333 3.05176e-05 
v -249.499 4.84882 3.05176e-05 
v -249.499 4.84882 3.05176e-05 
v -249.425 4.84664 0.0428225 
v -249.443 4.87408 0.0428225 
v -249.45 4.79034 3.05176e-05 
v -249.509 4.90294 3.05176e-05 
v -249.461 4.94253 0.0428225 

vn -0.645669 -0.19685 -0.740157 
vn -0.527559 -0.354331 -0.771654 
vn -0.527559 0.362205 -0.771654 
vn -0.307087 -0.543307 -0.779528 
vn 0.259843 0.637795 -0.724409 
vn 0.338583 0.622047 0.708661 
vn 0.0314961 -0.527559 0.850394 
vn 0.0551181 -0.527559 0.850394 
vn 0.0787402 -0.582677 0.811024 
vn 0.0314961 -0.527559 -0.850394 
vn 0.0787402 -0.582677 -0.811024 
vn 0.0551181 -0.527559 -0.850394 
vn 0.275591 0.76378 -0.582677 
vn 0.110236 0.685039 -0.724409 
vn 0.299213 0.787402 -0.535433 
vn 0.110236 0.685039 0.724409 
vn 0.275591 0.76378 0.582677 
vn 0.299213 0.787402 0.535433 
vn 0.23622 -0.700787 -0.669291 
vn 0.0314961 -0.748031 0.661417 
vn -0.0551181 -0.732283 -0.677165 
vn 0.00787402 0 1 
vn 0 0 1 
vn 0.00787402 0 1 
vn 0 0 1 
vn 0.00787402 0 1 
vn 0.00787402 0 -1 
vn 0.00787402 0 -1 
vn 0.433071 -0.606299 -0.669291 
vn 0.440945 -0.606299 -0.661417 
vn 0.488189 -0.566929 -0.661417 
vn 0.488189 -0.582677 -0.653543 
vn 0.393701 -0.598425 -0.700787 
vn 0.488189 -0.566929 0.661417 
vn 0.433071 -0.606299 0.669291 
vn 0.440945 -0.606299 0.661417 
vn 0.645669 -0.488189 0.590551 
vn 0.637795 -0.488189 0.590551 
vn 0.811024 -0.0629921 0.574803 
vn 0.811024 -0.0551181 0.574803 
vn 0.811024 -0.0629921 -0.574803 
vn 0.645669 -0.488189 -0.590551 
vn 0.811024 -0.0551181 -0.574803 
vn 0.637795 -0.488189 -0.590551 
vn 0.76378 0.322835 -0.559055 
vn 0.811024 -0.0629921 -0.574803 
vn 0.811024 -0.0551181 -0.574803 
vn 0.771654 0.307087 -0.559055 
vn 0.574803 0.614173 -0.543307 
vn 0.582677 0.606299 -0.543307 
vn 0.582677 0.606299 0.543307 
vn 0.574803 0.614173 0.543307 
vn 0.771654 0.307087 0.559055 
vn 0.76378 0.322835 0.559055 
vn 0.811024 -0.0629921 0.574803 
vn 0.811024 -0.0551181 0.574803 
vn -0.732283 -0.0393701 -0.677165 
vn -0.527559 -0.354331 -0.771654 
vn -0.527559 0.362205 -0.771654 
vn -0.574803 0.188976 -0.795276 
vn -0.314961 -0.393701 -0.858268 
vn -0.307087 -0.543307 -0.779528 
vn -0.307087 -0.519685 -0.795276 
vn -0.385827 -0.488189 -0.779528 
vn -0.377953 -0.511811 -0.771654 
vn -0.433071 -0.338583 -0.834646 
vn -0.385827 -0.488189 -0.779528 
vn -0.433071 -0.338583 0.834646 
vn -0.377953 -0.511811 0.771654 
vn -0.385827 -0.488189 0.779528 
vn -0.307087 -0.543307 0.779528 
vn -0.385827 -0.488189 0.779528 
vn -0.307087 -0.519685 0.795276 
vn -0.314961 -0.393701 0.858268 
vn 0.314961 0.606299 -0.732283 
vn 0.314961 0.606299 -0.732283 
vn 0.314961 0.606299 0.732283 
vn 0.165354 0.488189 -0.858268 
vn 0.267717 0.551181 -0.795276 
vn 0.173228 0.488189 -0.858268 
vn 0.165354 0.488189 0.858268 
vn 0.267717 0.551181 0.795276 
vn 0.173228 0.488189 0.858268 
vn 0.0314961 -0.527559 0.850394 
vn 0.0787402 -0.582677 0.811024 
vn 0.0314961 -0.614173 0.787402 
vn 0.0314961 -0.527559 -0.850394 
vn 0.0314961 -0.614173 -0.787402 
vn 0.0787402 -0.582677 -0.811024 
vn -0.590551 -0.559055 -0.574803 
vn -0.582677 -0.566929 -0.582677 
vn -0.204724 -0.779528 -0.590551 
vn -0.204724 -0.779528 -0.590551 
vn -0.204724 -0.779528 0.590551 
vn -0.590551 -0.559055 0.574803 
vn -0.582677 -0.566929 0.582677 
vn -0.204724 -0.779528 0.590551 
vn -0.779528 -0.267717 0.566929 
vn 0.0472441 -0.748031 0.661417 
vn 0.149606 -0.645669 0.748031 
vn 0.0314961 -0.740157 0.677165 
vn 0.0472441 -0.748031 0.661417 
vn 0.11811 -0.80315 0.582677 
vn 0.11811 -0.80315 0.582677 
vn 0.149606 -0.645669 -0.748031 
vn 0.0472441 -0.748031 -0.661417 
vn 0.0314961 -0.740157 -0.677165 
vn 0.0472441 -0.748031 -0.661417 
vn 0.11811 -0.80315 -0.582677 
vn 0.11811 -0.80315 -0.582677 
vn 0.0393701 0.692913 -0.716535 
vn 0.0393701 0.692913 0.716535 
vn 0.393701 -0.125984 0.913386 
vn 0.393701 -0.125984 0.913386 
vn 0.393701 -0.125984 0.913386 
vn 0.393701 -0.125984 -0.913386 
vn 0.393701 -0.125984 -0.913386 
vn 0.393701 -0.125984 -0.913386 
vn 0.181102 0.582677 -0.795276 
vn -0.0708661 0.645669 -0.76378 
vn 0.0787402 -0.598425 -0.795276 
vn 0.188976 -0.574803 0.795276 
vn 0.0314961 -0.748031 -0.661417 
vn 0.0314961 -0.653543 -0.755906 
vn 0.0944882 -0.771654 -0.629921 
vn 0.23622 -0.700787 -0.669291 
vn 0.0944882 -0.771654 0.629921 
vn 0.0314961 -0.748031 0.661417 
vn 0.23622 -0.700787 0.669291 
vn 0.0314961 -0.653543 0.755906 
vn -0.0551181 -0.732283 -0.677165 
vn -0.0551181 -0.80315 -0.590551 
vn -0.0551181 -0.80315 -0.590551 
vn -0.0551181 -0.732283 0.677165 
vn -0.0551181 -0.80315 0.590551 
vn -0.0551181 -0.80315 0.590551 
vn 0.110236 -0.645669 -0.755906 
vn -0.00787402 -0.732283 -0.685039 
vn 0.188976 -0.574803 -0.795276 
vn 0.188976 -0.574803 0.795276 
vn 0.110236 -0.645669 0.755906 
vn -0.00787402 -0.732283 0.685039 
vn 0.00787402 0 1 
vn 0 0 1 
vn 0.00787402 0 1 
vn 0.00787402 0 -1 
vn 0.00787402 0 -1 
vn 0.00787402 0 -1 
vn 0.00787402 0 1 
vn 0.00787402 0 -1 
vn 0.00787402 0 -1 
vn 0.149606 -0.645669 -0.748031 
vn 0.433071 -0.606299 -0.669291 
vn 0.440945 -0.606299 -0.661417 
vn 0.488189 -0.582677 -0.653543 
vn 0.393701 -0.598425 -0.700787 
vn 0.23622 -0.700787 -0.669291 
vn 0.0944882 -0.771654 -0.629921 
vn 0.393701 -0.598425 0.700787 
vn 0.23622 -0.700787 0.669291 
vn 0.0944882 -0.771654 0.629921 
vn 0.433071 -0.606299 0.669291 
vn 0.440945 -0.606299 0.661417 
vn 0.149606 -0.645669 0.748031 
vn 0.0472441 -0.677165 -0.732283 
vn -0.0314961 -0.622047 -0.779528 
vn 0.0472441 -0.677165 -0.732283 
vn -0.0314961 -0.622047 0.779528 
vn 0.0472441 -0.677165 0.732283 
vn 0.0472441 -0.677165 0.732283 
vn -0.204724 -0.779528 0.590551 
vn 0.259843 -0.76378 0.590551 
vn -0.204724 -0.779528 0.590551 
vn 0.259843 -0.76378 0.590551 
vn 0.645669 -0.488189 0.590551 
vn 0.637795 -0.488189 0.590551 
vn 0.645669 -0.488189 -0.590551 
vn 0.637795 -0.488189 -0.590551 
vn 0.259843 -0.76378 -0.590551 
vn 0.259843 -0.76378 -0.590551 
vn -0.204724 -0.779528 -0.590551 
vn -0.204724 -0.779528 -0.590551 
vn -0.732283 -0.0393701 -0.677165 
vn -0.622047 -0.23622 -0.748031 
vn -0.732283 -0.0393701 -0.677165 
vn -0.645669 -0.19685 -0.740157 
vn -0.527559 -0.354331 -0.771654 
vn -0.527559 -0.354331 -0.771654 
vn -0.480315 0.307087 -0.818898 
vn -0.519685 0.346457 -0.779528 
vn -0.480315 0.307087 -0.818898 
vn -0.527559 0.362205 -0.771654 
vn -0.622047 0.251969 -0.740157 
vn -0.519685 0.346457 -0.779528 
vn -0.622047 0.259843 -0.740157 
vn -0.574803 0.181102 -0.795276 
vn -0.574803 0.188976 -0.795276 
vn -0.496063 0.267717 -0.826772 
vn -0.496063 0.267717 -0.826772 
vn -0.314961 -0.393701 -0.858268 
vn -0.314961 -0.393701 -0.858268 
vn -0.307087 -0.543307 -0.779528 
vn -0.307087 -0.519685 -0.795276 
vn -0.385827 -0.488189 -0.779528 
vn -0.433071 -0.338583 -0.834646 
vn -0.385827 -0.488189 -0.779528 
vn -0.433071 -0.338583 -0.834646 
vn 0.322835 0.582677 -0.748031 
vn 0.314961 0.606299 -0.732283 
vn 0.314961 0.606299 -0.732283 
vn 0.314961 0.590551 -0.740157 
vn 0.322835 0.566929 -0.755906 
vn 0.322835 0.566929 -0.755906 
vn 0.259843 0.637795 -0.724409 
vn 0.338583 0.622047 -0.708661 
vn 0.338583 0.622047 -0.708661 
vn 0.299213 0.629921 -0.716535 
vn 0.23622 0.606299 -0.755906 
vn 0.267717 0.551181 -0.795276 
vn 0.165354 0.488189 -0.858268 
vn 0.267717 0.551181 -0.795276 
vn 0.0787402 -0.582677 0.811024 
vn 0.0314961 -0.527559 -0.850394 
vn -0.818898 0.110236 -0.559055 
vn -0.779528 -0.267717 -0.566929 
vn -0.590551 -0.559055 -0.574803 
vn -0.582677 -0.566929 -0.582677 
vn -0.204724 -0.779528 -0.590551 
vn -0.204724 -0.779528 0.590551 
vn -0.779528 -0.267717 0.566929 
vn -0.653543 0.527559 -0.535433 
vn -0.669291 0.511811 -0.535433 
vn 0.275591 0.76378 -0.582677 
vn 0.110236 0.685039 -0.724409 
vn 0.299213 0.787402 -0.535433 
vn 0.133858 0.755906 -0.637795 
vn 0.275591 0.76378 -0.582677 
vn 0.0393701 0.661417 -0.748031 
vn 0.0393701 0.661417 -0.748031 
vn 0.149606 -0.645669 -0.748031 
vn 0.0472441 -0.748031 -0.661417 
vn 0.0314961 -0.740157 -0.677165 
vn 0.204724 -0.629921 -0.748031 
vn 0.0393701 0.661417 -0.748031 
vn 0.0393701 0.692913 -0.716535 
vn 0.0393701 0.661417 -0.748031 
vn 0.0393701 0.692913 -0.716535 
vn 0.165354 0.488189 -0.858268 
vn 0.149606 0.511811 -0.850394 
vn 0.173228 0.488189 -0.858268 
vn 0.141732 0.503937 -0.850394 
vn 0.125984 0.511811 -0.850394 
vn 0.00787402 0.440945 -0.897638 
vn 0.165354 -0.385827 -0.905512 
vn 0.165354 -0.385827 -0.905512 
vn 0.165354 -0.385827 -0.905512 
vn 0.165354 -0.385827 -0.905512 
vn -0.0629921 0.527559 0.850394 
vn -0.0787402 0.503937 -0.858268 
vn 0.133858 0.755906 -0.637795 
vn -0.0629921 0.527559 -0.850394 
vn 0.125984 0.511811 -0.850394 
vn -0.0629921 0.527559 -0.850394 
vn 0.00787402 0.440945 -0.897638 
vn 0.023622 -0.559055 -0.826772 
vn 0.0629921 -0.590551 -0.80315 
vn 0.023622 -0.559055 -0.826772 
vn 0.0629921 -0.590551 -0.80315 
vn 0.0314961 -0.527559 -0.850394 
vn 0.023622 -0.559055 -0.826772 
vn 0.0551181 -0.527559 -0.850394 
vn 0.393701 -0.125984 0.913386 
vn 0.393701 -0.125984 0.913386 
vn 0.393701 -0.125984 -0.913386 
vn 0.393701 -0.125984 -0.913386 
vn 0.393701 -0.125984 -0.913386 
vn 0.393701 -0.125984 -0.913386 
vn 0.023622 -0.574803 -0.818898 
vn -0.0472441 -0.566929 -0.818898 
vn 0.015748 -0.574803 -0.818898 
vn -0.0472441 -0.566929 -0.818898 
vn 0.393701 0.76378 -0.511811 
vn 0.212598 0.818898 -0.527559 
vn 0.149606 0.80315 -0.582677 
vn 0.401575 0.685039 -0.606299 
vn 0.338583 0.614173 -0.716535 
vn 0.181102 0.582677 -0.795276 
vn 0.15748 0.582677 -0.795276 
vn 0.15748 0.582677 -0.795276 
vn -0.0708661 0.645669 -0.76378 
vn -0.0708661 0.645669 -0.76378 
vn -0.0708661 0.645669 -0.76378 
vn -0.102362 0.669291 -0.740157 
vn -0.110236 0.669291 -0.732283 
vn -0.102362 0.669291 -0.740157 
vn -0.00787402 0.653543 -0.755906 
vn -0.00787402 0.653543 -0.755906 
vn -0.393701 0.755906 -0.519685 
vn 0.212598 -0.527559 -0.826772 
vn 0.188976 -0.574803 -0.795276 
vn 0.110236 -0.645669 -0.755906 
vn 0.0787402 -0.598425 -0.795276 
vn 0.0314961 -0.748031 -0.661417 
vn 0.0314961 -0.653543 -0.755906 
vn 0.0944882 -0.771654 -0.629921 
vn 0.23622 -0.700787 -0.669291 
vn 0.023622 0.700787 -0.716535 
vn 0.149606 0.80315 -0.582677 
vn -0.0787402 0.629921 -0.771654 
vn 0.0314961 -0.748031 -0.661417 
vn 0.0787402 -0.598425 -0.795276 
vn 0.0314961 -0.653543 -0.755906 
vn 0.212598 -0.527559 -0.826772 
vn -0.322835 0.519685 -0.795276 
vn -0.503937 0.472441 -0.724409 
vn -0.346457 0.511811 -0.787402 
vn -0.503937 0.472441 -0.724409 
vn -0.0787402 0.629921 -0.771654 
vn 0.023622 0.700787 -0.716535 
vn -0.0551181 -0.732283 -0.677165 
vn 0.0314961 -0.614173 -0.787402 
vn -0.0551181 -0.748031 -0.661417 
vn 0.0787402 -0.582677 -0.811024 
vn -0.0551181 -0.80315 -0.590551 
vn -0.0551181 -0.748031 -0.661417 
vn 0.110236 -0.645669 -0.755906 
vn -0.00787402 -0.732283 -0.685039 
vn -0.00787402 -0.732283 -0.685039 
vn 0.00787402 0 1 
vn 0 0 1 
vn 0.00787402 0 -1 
vn 0.00787402 0 -1 
vn 0.00787402 0 -1 
vn 0.00787402 0 -1 
vn 0.00787402 0 -1 
vn 0.00787402 0 -1 
vn 0.00787402 0 -1 
vn 0.00787402 0 -1 
vn 0.00787402 0 -1 
vn 0 0 -1 
vn 0.00787402 0 -1 
vn 0.00787402 0 -1 
vn 0.00787402 0 -1 
vn 0.00787402 0 -1 
vn 0.00787402 0 -1 
vn 0.00787402 0 -1 
vn 0.00787402 0 -1 
vn 0.00787402 0 -1 
vn 0.00787402 0 -1 
vn 0.00787402 0 -1 
vn 0.00787402 0 -1 
vn 0.00787402 0 -1 
vn 0.00787402 0 -1 
vn 0.00787402 0 -1 
vn 0.00787402 0 -1 
vn 0.00787402 0 -1 
vn 0.00787402 0 -1 
vn 0.00787402 0 -1 
vn 0 0 -1 
vn 0.00787402 0 -1 
vn 0.00787402 0 -1 
vn 0.00787402 0 -1 
vn 0 0 -1 
vn 0 0 -1 
vn 0 0 -1 
vn 0 0 -1 
vn 0 0 -1 
vn 0.00787402 0 -1 
vn 0.00787402 0 -1 
vn 0.00787402 0 -1 
vn 0.00787402 0 -1 
vn 0.00787402 0 -1 
vn 0.00787402 0 -1 
vn 0.00787402 0 -1 
vn 0.00787402 0 -1 
vn 0.00787402 0 -1 
vn 0.00787402 0 -1 
vn 0.00787402 0 -1 
vn 0.00787402 0 -1 
vn 0.00787402 0 -1 
vn 0.00787402 0 -1 
vn 0.00787402 0 -1 
vn 0.00787402 0 -1 
vn 0.00787402 0 -1 
vn 0.00787402 0 -1 
vn 0.00787402 0 -1 
vn 0.00787402 0 -1 
vn 0.00787402 0 -1 
vn 0.00787402 0 -1 
vn 0.00787402 0 -1 
vn 0.00787402 0 -1 
vn 0.00787402 0 -1 
vn 0.00787402 0 -1 
vn 0.00787402 0 -1 
vn 0.00787402 0 -1 
vn 0.00787402 0 -1 
vn 0.00787402 0 -1 
vn 0 0 -1 
vn 0 0 -1 
vn 0 0 -1 
vn 0 0 -1 
vn 0 0 -1 
vn 0 0 -1 
vn 0 0 -1 
vn 0.00787402 0 -1 
vn 0.00787402 0 -1 
vn 0.00787402 0 -1 
vn 0.00787402 0 -1 
vn 0.00787402 0 -1 
vn 0.00787402 0 -1 
vn 0.00787402 0 -1 
vn 0.00787402 0 -1 
vn 0.00787402 0 -1 
vn 0.00787402 0 -1 
vn 0.00787402 0 -1 
vn 0.00787402 0 -1 
vn 0.00787402 0 -1 
vn 0.00787402 0 -1 
vn 0.00787402 0 -1 
vn 0.00787402 0 -1 
vn 0.00787402 0 -1 
vn 0.00787402 0 -1 
vn 0.00787402 0 -1 
vn 0.00787402 0 -1 
vn 0.00787402 0 -1 
vn 0.149606 -0.645669 -0.748031 
vn 0.433071 -0.606299 -0.669291 
vn 0.204724 -0.629921 -0.748031 
vn 0.488189 -0.566929 -0.661417 
vn 0.488189 -0.582677 -0.653543 
vn 0.393701 -0.598425 -0.700787 
vn 0.393701 -0.598425 -0.700787 
vn 0.23622 -0.700787 -0.669291 
vn -0.0314961 -0.622047 -0.779528 
vn 0.0472441 -0.677165 -0.732283 
vn -0.0393701 -0.622047 -0.779528 
vn 0.023622 -0.574803 -0.818898 
vn 0.015748 -0.574803 -0.818898 
vn -0.0314961 -0.622047 -0.779528 
vn -0.377953 -0.338583 -0.858268 
vn -0.527559 -0.102362 -0.84252 
vn -0.543307 -0.0708661 -0.834646 
vn -0.377953 -0.338583 -0.858268 
vn -0.346457 -0.385827 -0.858268 
vn -0.346457 -0.385827 -0.858268 
vn -0.527559 -0.102362 -0.84252 
vn -0.0472441 -0.566929 -0.818898 
vn -0.251969 -0.543307 -0.80315 
vn -0.0472441 -0.566929 -0.818898 
vn -0.251969 -0.543307 -0.80315 
vn 0.645669 -0.488189 0.590551 
vn -0.527559 -0.251969 -0.811024 
vn -0.582677 -0.125984 -0.80315 
vn -0.527559 -0.251969 -0.811024 
vn -0.582677 -0.125984 -0.80315 
vn -0.472441 -0.370079 -0.80315 
vn -0.472441 -0.370079 -0.80315 
vn -0.732283 -0.0393701 -0.677165 
vn -0.622047 -0.23622 -0.748031 
vn -0.732283 -0.0393701 -0.677165 
vn -0.622047 -0.23622 0.748031 
vn -0.732283 -0.0393701 0.677165 
vn -0.732283 -0.0393701 0.677165 
vn -0.480315 0.307087 -0.818898 
vn -0.527559 0.362205 -0.771654 
vn -0.622047 0.251969 -0.740157 
vn -0.574803 0.188976 0.795276 
vn 0.322835 0.582677 -0.748031 
vn 0.314961 0.590551 0.740157 
vn 0.259843 0.637795 -0.724409 
vn 0.267717 0.551181 -0.795276 
vn 0.338583 0.622047 0.708661 
vn -0.779528 -0.259843 -0.566929 
vn -0.818898 0.110236 -0.559055 
vn -0.818898 0.125984 -0.559055 
vn -0.779528 -0.267717 -0.566929 
vn -0.590551 -0.559055 -0.574803 
vn -0.582677 -0.566929 -0.582677 
vn -0.204724 -0.779528 -0.590551 
vn -0.204724 -0.779528 0.590551 
vn -0.590551 -0.559055 0.574803 
vn -0.582677 -0.566929 0.582677 
vn -0.779528 -0.267717 0.566929 
vn -0.779528 -0.259843 0.566929 
vn -0.818898 0.110236 0.559055 
vn -0.818898 0.125984 0.559055 
vn -0.818898 0.125984 -0.559055 
vn -0.818898 0.110236 -0.559055 
vn -0.653543 0.527559 -0.535433 
vn -0.669291 0.511811 -0.535433 
vn -0.818898 0.110236 0.559055 
vn -0.653543 0.527559 0.535433 
vn -0.669291 0.511811 0.535433 
vn -0.818898 0.125984 0.559055 
vn 0.015748 -0.574803 -0.818898 
vn -0.0472441 -0.566929 0.818898 
vn 0.181102 0.582677 -0.795276 
vn -0.0708661 0.645669 0.76378 
vn -0.0551181 -0.732283 -0.677165 
vn -0.0551181 -0.748031 -0.661417 
vn 0.00787402 0 1 
vn 0 0 1 
vn 0.00787402 0 -1 
vn -0.527559 -0.102362 -0.84252 
vn -0.543307 -0.0708661 -0.834646 
vn -0.543307 -0.0708661 -0.834646 
vn -0.527559 -0.102362 0.84252 
vn -0.543307 -0.0708661 0.834646 
vn -0.543307 -0.0708661 0.834646 
vn -0.480315 0.307087 -0.818898 
vn -0.519685 0.346457 -0.779528 
vn -0.527559 0.362205 -0.771654 
vn -0.622047 0.251969 -0.740157 
vn -0.527559 0.362205 0.771654 
vn -0.480315 0.307087 0.818898 
vn -0.519685 0.346457 0.779528 
vn -0.307087 -0.543307 -0.779528 
vn 0.314961 0.606299 -0.732283 
vn 0.314961 0.590551 0.740157 
vn 0.314961 0.606299 0.732283 
vn 0.259843 0.637795 -0.724409 
vn 0.338583 0.622047 -0.708661 
vn 0.338583 0.622047 0.708661 
vn -0.653543 0.527559 -0.535433 
vn -0.669291 0.511811 -0.535433 
vn -0.669291 0.511811 0.535433 
vn 0.275591 0.76378 -0.582677 
vn 0.299213 0.787402 -0.535433 
vn 0.133858 0.755906 -0.637795 
vn 0.0393701 0.661417 -0.748031 
vn 0.275591 0.76378 0.582677 
vn 0.275591 0.76378 0.582677 
vn 0.299213 0.787402 0.535433 
vn 0.133858 0.755906 0.637795 
vn 0.0314961 -0.740157 -0.677165 
vn 0.0393701 0.692913 -0.716535 
vn 0.0393701 0.661417 -0.748031 
vn 0.0393701 0.692913 -0.716535 
vn 0.0393701 0.661417 0.748031 
vn 0.0393701 0.692913 0.716535 
vn 0.0393701 0.692913 0.716535 
vn -0.0629921 0.527559 0.850394 
vn 0.133858 0.755906 0.637795 
vn 0.299213 0.787402 0.535433 
vn 0.133858 0.755906 -0.637795 
vn -0.0629921 0.527559 -0.850394 
vn 0.299213 0.787402 -0.535433 
vn 0.393701 0.76378 -0.511811 
vn 0.149606 0.80315 -0.574803 
vn 0.212598 0.818898 -0.527559 
vn 0.149606 0.80315 -0.582677 
vn 0.212598 0.818898 -0.527559 
vn 0.401575 0.685039 -0.606299 
vn 0.338583 0.614173 -0.716535 
vn 0.15748 0.582677 -0.795276 
vn -0.0708661 0.645669 -0.76378 
vn -0.0708661 0.645669 0.76378 
vn -0.110236 0.669291 0.732283 
vn 0.401575 0.685039 0.606299 
vn 0.393701 0.76378 0.511811 
vn 0.212598 0.818898 0.527559 
vn 0.212598 0.818898 0.527559 
vn 0.149606 0.80315 0.574803 
vn 0.149606 0.80315 0.582677 
vn -0.653543 0.527559 -0.535433 
vn -0.393701 0.755906 -0.519685 
vn -0.393701 0.755906 -0.519685 
vn -0.669291 0.511811 -0.535433 
vn -0.669291 0.511811 0.535433 
vn -0.653543 0.527559 0.535433 
vn -0.393701 0.755906 0.519685 
vn -0.393701 0.755906 0.519685 
vn 0.149606 0.80315 -0.574803 
vn 0.023622 0.700787 -0.716535 
vn 0.149606 0.80315 -0.582677 
vn 0.023622 0.700787 0.716535 
vn 0.149606 0.80315 0.582677 
vn 0.149606 0.80315 0.574803 
vn -0.322835 0.519685 -0.795276 
vn -0.503937 0.472441 -0.724409 
vn -0.346457 0.511811 -0.787402 
vn -0.503937 0.472441 -0.724409 
vn -0.322835 0.519685 0.795276 
vn -0.346457 0.511811 0.787402 
vn -0.503937 0.472441 0.724409 
vn -0.503937 0.472441 0.724409 
vn -0.0551181 -0.732283 -0.677165 
vn -0.0551181 -0.748031 -0.661417 
vn 0.00787402 0 1 
vn 0.00787402 0 1 
vn 0 0 1 
vn 0.00787402 0 1 
vn 0.00787402 0 -1 
vn 0.00787402 0 -1 
vn 0.00787402 0 -1 
vn 0.00787402 0 -1 
vn 0.00787402 0 1 
vn 0.00787402 0 -1 
vn -0.393701 0.755906 -0.519685 
vn -0.102362 0.84252 -0.519685 
vn -0.110236 0.84252 -0.519685 
vn -0.393701 0.755906 -0.519685 
vn -0.393701 0.755906 0.519685 
vn -0.393701 0.755906 0.519685 
vn -0.102362 0.84252 0.519685 
vn -0.110236 0.84252 0.519685 
vn -0.110236 0.84252 -0.519685 
vn -0.102362 0.84252 -0.519685 
vn 0.251969 0.80315 -0.535433 
vn 0.251969 0.80315 -0.535433 
vn -0.102362 0.84252 0.519685 
vn 0.251969 0.80315 0.535433 
vn 0.251969 0.80315 0.535433 
vn -0.110236 0.84252 0.519685 
vn 0.574803 0.614173 -0.543307 
vn 0.582677 0.606299 -0.543307 
vn 0.251969 0.80315 -0.535433 
vn 0.251969 0.80315 -0.535433 
vn 0.582677 0.606299 0.543307 
vn 0.251969 0.80315 0.535433 
vn 0.574803 0.614173 0.543307 
vn 0.251969 0.80315 0.535433 
vn -0.732283 -0.0393701 -0.677165 
vn -0.622047 -0.23622 -0.748031 
vn -0.622047 -0.23622 0.748031 
vn -0.732283 -0.0393701 0.677165 
vn -0.645669 -0.19685 0.740157 
vn -0.527559 -0.354331 0.771654 
vn -0.527559 -0.354331 0.771654 
vn -0.519685 0.346457 -0.779528 
vn -0.480315 0.307087 -0.818898 
vn -0.622047 0.251969 -0.740157 
vn -0.574803 0.181102 -0.795276 
vn -0.622047 0.251969 0.740157 
vn -0.527559 0.362205 0.771654 
vn -0.519685 0.346457 0.779528 
vn -0.622047 0.259843 0.740157 
vn -0.574803 0.181102 0.795276 
vn -0.574803 0.188976 0.795276 
vn -0.496063 0.267717 0.826772 
vn -0.496063 0.267717 0.826772 
vn -0.480315 0.307087 0.818898 
vn -0.519685 0.346457 0.779528 
vn -0.480315 0.307087 0.818898 
vn -0.385827 -0.488189 -0.779528 
vn -0.433071 -0.338583 0.834646 
vn -0.377953 -0.511811 0.771654 
vn -0.385827 -0.488189 0.779528 
vn -0.433071 -0.338583 0.834646 
vn -0.307087 -0.543307 0.779528 
vn -0.385827 -0.488189 0.779528 
vn -0.307087 -0.519685 0.795276 
vn -0.314961 -0.393701 0.858268 
vn -0.314961 -0.393701 0.858268 
vn 0.322835 0.582677 -0.748031 
vn 0.314961 0.606299 -0.732283 
vn 0.322835 0.566929 -0.755906 
vn 0.322835 0.566929 0.755906 
vn 0.314961 0.590551 0.740157 
vn 0.322835 0.566929 0.755906 
vn 0.322835 0.582677 0.748031 
vn 0.314961 0.606299 0.732283 
vn 0.314961 0.606299 0.732283 
vn 0.259843 0.637795 -0.724409 
vn 0.267717 0.551181 -0.795276 
vn 0.259843 0.637795 0.724409 
vn 0.23622 0.606299 0.755906 
vn 0.299213 0.629921 0.716535 
vn 0.267717 0.551181 0.795276 
vn 0.338583 0.622047 0.708661 
vn 0.338583 0.622047 0.708661 
vn 0.165354 0.488189 0.858268 
vn 0.267717 0.551181 0.795276 
vn 0.0314961 -0.527559 0.850394 
vn 0.0787402 -0.582677 0.811024 
vn -0.818898 0.125984 -0.559055 
vn -0.590551 -0.559055 -0.574803 
vn -0.204724 -0.779528 -0.590551 
vn -0.204724 -0.779528 0.590551 
vn -0.779528 -0.267717 0.566929 
vn -0.653543 0.527559 -0.535433 
vn -0.669291 0.511811 0.535433 
vn 0.110236 0.685039 -0.724409 
vn 0.299213 0.787402 -0.535433 
vn 0.0393701 0.661417 -0.748031 
vn 0.110236 0.685039 0.724409 
vn 0.0393701 0.661417 0.748031 
vn 0.275591 0.76378 0.582677 
vn 0.0393701 0.661417 0.748031 
vn 0.133858 0.755906 0.637795 
vn 0.0472441 -0.748031 0.661417 
vn 0.149606 -0.645669 0.748031 
vn 0.204724 -0.629921 0.748031 
vn 0.0393701 0.692913 -0.716535 
vn 0.0393701 0.661417 0.748031 
vn 0.0393701 0.692913 0.716535 
vn 0.0393701 0.661417 0.748031 
vn 0.149606 0.511811 -0.850394 
vn 0.149606 0.511811 0.850394 
vn 0.125984 0.511811 0.850394 
vn 0.141732 0.503937 0.850394 
vn 0.00787402 0.440945 0.897638 
vn 0.165354 0.488189 0.858268 
vn 0.173228 0.488189 0.858268 
vn 0.165354 -0.385827 0.905512 
vn 0.165354 -0.385827 0.905512 
vn 0.165354 -0.385827 0.905512 
vn 0.165354 -0.385827 0.905512 
vn -0.0629921 0.527559 0.850394 
vn 0.133858 0.755906 0.637795 
vn -0.0787402 0.503937 0.858268 
vn 0.125984 0.511811 0.850394 
vn -0.0629921 0.527559 0.850394 
vn 0.00787402 0.440945 0.897638 
vn 0.023622 -0.559055 -0.826772 
vn 0.0629921 -0.590551 -0.80315 
vn 0.0629921 -0.590551 0.80315 
vn 0.023622 -0.559055 0.826772 
vn 0.0629921 -0.590551 0.80315 
vn 0.023622 -0.559055 0.826772 
vn 0.023622 -0.559055 0.826772 
vn 0.0314961 -0.527559 0.850394 
vn 0.0551181 -0.527559 0.850394 
vn 0.393701 -0.125984 0.913386 
vn 0.393701 -0.125984 0.913386 
vn 0.393701 -0.125984 0.913386 
vn -0.0472441 -0.566929 -0.818898 
vn 0.015748 -0.574803 -0.818898 
vn -0.0472441 -0.566929 0.818898 
vn 0.023622 -0.574803 0.818898 
vn 0.015748 -0.574803 0.818898 
vn -0.0472441 -0.566929 0.818898 
vn 0.393701 0.76378 -0.511811 
vn 0.338583 0.614173 -0.716535 
vn 0.15748 0.582677 -0.795276 
vn -0.102362 0.669291 -0.740157 
vn -0.0708661 0.645669 0.76378 
vn 0.15748 0.582677 0.795276 
vn -0.0708661 0.645669 0.76378 
vn 0.181102 0.582677 0.795276 
vn -0.102362 0.669291 0.740157 
vn -0.0708661 0.645669 0.76378 
vn -0.110236 0.669291 0.732283 
vn -0.102362 0.669291 0.740157 
vn -0.00787402 0.653543 0.755906 
vn -0.00787402 0.653543 0.755906 
vn 0.338583 0.614173 0.716535 
vn 0.15748 0.582677 0.795276 
vn 0.401575 0.685039 0.606299 
vn 0.393701 0.76378 0.511811 
vn 0.212598 0.818898 0.527559 
vn 0.149606 0.80315 0.582677 
vn 0.212598 -0.527559 -0.826772 
vn 0.110236 -0.645669 -0.755906 
vn 0.0787402 -0.598425 0.795276 
vn 0.212598 -0.527559 0.826772 
vn 0.188976 -0.574803 0.795276 
vn 0.110236 -0.645669 0.755906 
vn 0.0314961 -0.653543 -0.755906 
vn 0.0944882 -0.771654 -0.629921 
vn 0.0314961 -0.748031 0.661417 
vn 0.23622 -0.700787 0.669291 
vn 0.023622 0.700787 0.716535 
vn 0.149606 0.80315 0.582677 
vn -0.0787402 0.629921 0.771654 
vn 0.0787402 -0.598425 0.795276 
vn 0.0314961 -0.653543 0.755906 
vn 0.212598 -0.527559 0.826772 
vn 0.0314961 -0.748031 0.661417 
vn -0.322835 0.519685 -0.795276 
vn -0.503937 0.472441 -0.724409 
vn -0.322835 0.519685 0.795276 
vn -0.0787402 0.629921 0.771654 
vn -0.346457 0.511811 0.787402 
vn 0.023622 0.700787 0.716535 
vn -0.503937 0.472441 0.724409 
vn -0.0551181 -0.732283 -0.677165 
vn -0.0551181 -0.732283 0.677165 
vn -0.0551181 -0.80315 0.590551 
vn -0.0551181 -0.748031 0.661417 
vn 0.0314961 -0.614173 0.787402 
vn -0.0551181 -0.748031 0.661417 
vn 0.0787402 -0.582677 0.811024 
vn 0.110236 -0.645669 0.755906 
vn -0.00787402 -0.732283 0.685039 
vn -0.00787402 -0.732283 0.685039 
vn 0.00787402 0 1 
vn 0.00787402 0 1 
vn 0.00787402 0 1 
vn 0.00787402 0 1 
vn 0.00787402 0 1 
vn 0.00787402 0 1 
vn 0.00787402 0 1 
vn 0.00787402 0 1 
vn 0 0 1 
vn 0.00787402 0 1 
vn 0 0 1 
vn 0 0 1 
vn 0 0 1 
vn 0 0 1 
vn 0.00787402 0 1 
vn 0.00787402 0 1 
vn 0.00787402 0 1 
vn 0.00787402 0 1 
vn 0.00787402 0 1 
vn 0.00787402 0 1 
vn 0.00787402 0 1 
vn 0.00787402 0 1 
vn 0.00787402 0 1 
vn 0.00787402 0 1 
vn 0.00787402 0 1 
vn 0 0 1 
vn 0.00787402 0 1 
vn 0 0 1 
vn 0 0 1 
vn 0.00787402 0 1 
vn 0.00787402 0 1 
vn 0.00787402 0 1 
vn 0.00787402 0 1 
vn 0.00787402 0 1 
vn 0.00787402 0 1 
vn 0.00787402 0 1 
vn 0.00787402 0 1 
vn 0.00787402 0 1 
vn 0.00787402 0 1 
vn 0.00787402 0 1 
vn 0.00787402 0 1 
vn 0.00787402 0 1 
vn 0.00787402 0 1 
vn 0.00787402 0 1 
vn 0.00787402 0 1 
vn 0.00787402 0 1 
vn 0.00787402 0 1 
vn 0.00787402 0 1 
vn 0 0 1 
vn 0 0 1 
vn 0 0 1 
vn 0 0 1 
vn 0 0 1 
vn 0 0 1 
vn 0 0 1 
vn 0.00787402 0 1 
vn 0.00787402 0 1 
vn 0.00787402 0 1 
vn 0.00787402 0 1 
vn 0.00787402 0 1 
vn 0.00787402 0 1 
vn 0.00787402 0 1 
vn 0.00787402 0 1 
vn 0.00787402 0 1 
vn 0.00787402 0 1 
vn 0.00787402 0 1 
vn 0.00787402 0 1 
vn 0.00787402 0 1 
vn 0.00787402 0 1 
vn 0.00787402 0 1 
vn 0.00787402 0 1 
vn 0.00787402 0 1 
vn 0.00787402 0 1 
vn 0.00787402 0 1 
vn 0.00787402 0 1 
vn 0.00787402 0 1 
vn 0.00787402 0 1 
vn 0.00787402 0 1 
vn 0.00787402 0 1 
vn 0.00787402 0 1 
vn 0.00787402 0 1 
vn 0.00787402 0 1 
vn 0.00787402 0 1 
vn 0.00787402 0 1 
vn 0.00787402 0 1 
vn 0.00787402 0 1 
vn 0.00787402 0 1 
vn 0.00787402 0 1 
vn 0.00787402 0 1 
vn 0.00787402 0 1 
vn 0.00787402 0 1 
vn 0.00787402 0 1 
vn 0.00787402 0 1 
vn 0.00787402 0 1 
vn 0.00787402 0 1 
vn 0.00787402 0 1 
vn 0.00787402 0 -1 
vn 0.433071 -0.606299 -0.669291 
vn 0.488189 -0.582677 -0.653543 
vn 0.393701 -0.598425 -0.700787 
vn 0.393701 -0.598425 0.700787 
vn 0.488189 -0.566929 0.661417 
vn 0.393701 -0.598425 0.700787 
vn 0.23622 -0.700787 0.669291 
vn 0.488189 -0.582677 0.653543 
vn 0.433071 -0.606299 0.669291 
vn 0.149606 -0.645669 0.748031 
vn 0.204724 -0.629921 0.748031 
vn -0.0393701 -0.622047 -0.779528 
vn -0.0393701 -0.622047 0.779528 
vn 0.023622 -0.574803 0.818898 
vn -0.0314961 -0.622047 0.779528 
vn 0.015748 -0.574803 0.818898 
vn -0.0314961 -0.622047 0.779528 
vn 0.0472441 -0.677165 0.732283 
vn -0.377953 -0.338583 -0.858268 
vn -0.527559 -0.102362 0.84252 
vn -0.377953 -0.338583 0.858268 
vn -0.543307 -0.0708661 0.834646 
vn -0.346457 -0.385827 0.858268 
vn -0.377953 -0.338583 0.858268 
vn -0.346457 -0.385827 0.858268 
vn -0.527559 -0.102362 0.84252 
vn -0.251969 -0.543307 -0.80315 
vn -0.251969 -0.543307 0.80315 
vn -0.0472441 -0.566929 0.818898 
vn -0.0472441 -0.566929 0.818898 
vn -0.251969 -0.543307 0.80315 
vn 0.645669 -0.488189 0.590551 
vn -0.527559 -0.251969 -0.811024 
vn -0.527559 -0.251969 0.811024 
vn -0.472441 -0.370079 0.80315 
vn -0.527559 -0.251969 0.811024 
vn -0.472441 -0.370079 0.80315 
vn -0.582677 -0.125984 0.80315 
vn -0.582677 -0.125984 0.80315 

vt 0.671808 2.13974 
vt 0.671808 2.13476 
vt 0.671808 2.11303 
vt 0.671808 2.15881 
vt 0.678762 2.11422 
vt 0.684111 2.12821 
vt 0.684111 2.14614 
vt 0.678762 2.15563 
vt 0.678762 2.15195 
vt 0.673413 2.14614 
vt 0.678762 2.15195 
vt 0.678762 2.15563 
vt 0.673413 2.10278 
vt 0.678762 2.09588 
vt 0.678762 2.09828 
vt 0.678762 2.09588 
vt 0.684111 2.10278 
vt 0.678762 2.09828 
vt 0.671808 2.14426 
vt 0.684111 2.14158 
vt 0.678762 2.15289 
vt 0.685715 2.15996 
vt 0.685715 2.14493 
vt 0.685715 2.12275 
vt 0.685715 2.13612 
vt 0.685715 2.15393 
vt 0.671808 2.15393 
vt 0.671808 2.15996 
vt 0.678762 2.16447 
vt 0.671808 2.16092 
vt 0.671808 2.15393 
vt 0.678762 2.15983 
vt 0.678762 2.15326 
vt 0.685715 2.15393 
vt 0.678762 2.16447 
vt 0.685715 2.16092 
vt 0.678762 2.12597 
vt 0.685715 2.12275 
vt 0.685715 2.13612 
vt 0.678762 2.13667 
vt 0.671808 2.13612 
vt 0.678762 2.12597 
vt 0.678762 2.13667 
vt 0.671808 2.12275 
vt 0.678762 2.14374 
vt 0.671808 2.13612 
vt 0.678762 2.13667 
vt 0.671808 2.14493 
vt 0.678762 2.15084 
vt 0.671808 2.15381 
vt 0.685715 2.15381 
vt 0.678762 2.15084 
vt 0.685715 2.14493 
vt 0.678762 2.14374 
vt 0.685715 2.13612 
vt 0.678762 2.13667 
vt 0.804436 2.13329 
vt 0.79888 2.14024 
vt 0.789957 2.14024 
vt 0.798499 2.14024 
vt 0.804436 2.13329 
vt 0.790284 2.14024 
vt 0.79443 2.13329 
vt 0.784453 2.13329 
vt 0.781325 2.14024 
vt 0.772365 2.14024 
vt 0.784453 2.13329 
vt 0.772365 2.12633 
vt 0.781325 2.12633 
vt 0.784453 2.13329 
vt 0.790284 2.12633 
vt 0.784453 2.13329 
vt 0.79443 2.13329 
vt 0.804436 2.13329 
vt 0.544891 2.13329 
vt 0.561699 2.13863 
vt 0.561699 2.12794 
vt 0.631468 2.13863 
vt 0.623446 2.13329 
vt 0.620477 2.13329 
vt 0.631468 2.12794 
vt 0.623446 2.13329 
vt 0.620477 2.13329 
vt 0.590879 2.12794 
vt 0.581304 2.13329 
vt 0.578541 2.12794 
vt 0.590879 2.13863 
vt 0.578541 2.13863 
vt 0.581304 2.13329 
vt 0.757122 2.13329 
vt 0.753838 2.14024 
vt 0.763813 2.14024 
vt 0.765113 2.13329 
vt 0.763813 2.12633 
vt 0.757122 2.13329 
vt 0.753838 2.12633 
vt 0.765113 2.13329 
vt 0.747925 2.12633 
vt 0.767822 2.13329 
vt 0.761579 2.12633 
vt 0.766972 2.12633 
vt 0.767822 2.13329 
vt 0.772365 2.12633 
vt 0.786455 2.13329 
vt 0.761579 2.14024 
vt 0.767822 2.13329 
vt 0.766972 2.14024 
vt 0.767822 2.13329 
vt 0.772365 2.14024 
vt 0.786455 2.13329 
vt 0.714668 2.13447 
vt 0.714668 2.1321 
vt 0.685316 2.12794 
vt 0.673218 2.13329 
vt 0.677327 2.12794 
vt 0.685316 2.13863 
vt 0.673218 2.13329 
vt 0.677327 2.13863 
vt 0.760236 2.14024 
vt 0.769573 2.14024 
vt 0.704882 2.13863 
vt 0.693304 2.12794 
vt 0.719679 2.13863 
vt 0.710846 2.13329 
vt 0.717267 2.13329 
vt 0.728495 2.14024 
vt 0.717267 2.13329 
vt 0.719679 2.12794 
vt 0.728495 2.12633 
vt 0.710846 2.13329 
vt 0.574809 2.13329 
vt 0.544891 2.13329 
vt 0.561699 2.13863 
vt 0.574809 2.13329 
vt 0.561699 2.12794 
vt 0.544891 2.13329 
vt 0.688339 2.13329 
vt 0.685316 2.13863 
vt 0.693304 2.13863 
vt 0.693304 2.12794 
vt 0.688339 2.13329 
vt 0.685316 2.12794 
vt 0.790197 2.12633 
vt 0.794926 2.12633 
vt 0.744053 2.12633 
vt 0.750794 2.14024 
vt 0.744053 2.14024 
vt 0.778581 2.14024 
vt 0.697649 2.12794 
vt 0.651487 2.13863 
vt 0.697649 2.13863 
vt 0.761579 2.14024 
vt 0.749473 2.13329 
vt 0.750794 2.14024 
vt 0.740683 2.13329 
vt 0.733509 2.13329 
vt 0.728495 2.14024 
vt 0.717267 2.13329 
vt 0.733509 2.13329 
vt 0.728495 2.12633 
vt 0.717267 2.13329 
vt 0.749473 2.13329 
vt 0.750794 2.12633 
vt 0.761579 2.12633 
vt 0.677327 2.13863 
vt 0.651487 2.13863 
vt 0.673218 2.13329 
vt 0.651487 2.12794 
vt 0.673218 2.13329 
vt 0.677327 2.12794 
vt 0.763813 2.12633 
vt 0.776944 2.13329 
vt 0.765113 2.13329 
vt 0.778581 2.12633 
vt 0.786249 2.13329 
vt 0.790197 2.12633 
vt 0.786249 2.13329 
vt 0.790197 2.14024 
vt 0.778581 2.14024 
vt 0.776944 2.13329 
vt 0.763813 2.14024 
vt 0.765113 2.13329 
vt 0.553087 2.16267 
vt 0.551121 2.13866 
vt 0.557884 2.14473 
vt 0.558264 2.13974 
vt 0.558644 2.13476 
vt 0.544891 2.13478 
vt 0.572662 2.11147 
vt 0.563475 2.10734 
vt 0.562725 2.10201 
vt 0.567566 2.11303 
vt 0.55212 2.12221 
vt 0.563475 2.10734 
vt 0.559404 2.1248 
vt 0.551122 2.12737 
vt 0.559024 2.12978 
vt 0.558644 2.13476 
vt 0.544891 2.13478 
vt 0.553087 2.16267 
vt 0.557884 2.14473 
vt 0.567239 2.15881 
vt 0.563093 2.16402 
vt 0.57307 2.16832 
vt 0.585158 2.16673 
vt 0.57307 2.16832 
vt 0.571068 2.17325 
vt 0.787076 2.13876 
vt 0.812632 2.15261 
vt 0.795824 2.14983 
vt 0.784809 2.14452 
vt 0.778661 2.13398 
vt 0.758464 2.12973 
vt 0.748335 2.11422 
vt 0.781153 2.13264 
vt 0.762721 2.12821 
vt 0.749812 2.12162 
vt 0.739485 2.11737 
vt 0.734077 2.11015 
vt 0.726055 2.11419 
vt 0.734077 2.11015 
vt 0.776219 2.15195 
vt 0.766645 2.14614 
vt 0.610888 2.14057 
vt 0.609598 2.13055 
vt 0.600401 2.12399 
vt 0.603686 2.12028 
vt 0.59241 2.11895 
vt 0.59371 2.11399 
vt 0.609598 2.13055 
vt 0.602764 2.148 
vt 0.606635 2.15026 
vt 0.673335 2.10278 
vt 0.668192 2.09588 
vt 0.670552 2.09828 
vt 0.677153 2.10325 
vt 0.673335 2.10278 
vt 0.660366 2.10198 
vt 0.660502 2.09559 
vt 0.595944 2.16382 
vt 0.589702 2.17107 
vt 0.590551 2.16528 
vt 0.601596 2.17331 
vt 0.660366 2.10198 
vt 0.642855 2.09577 
vt 0.660502 2.09559 
vt 0.635146 2.09494 
vt 0.726055 2.11419 
vt 0.713202 2.1012 
vt 0.737046 2.1073 
vt 0.712625 2.11101 
vt 0.704428 2.10661 
vt 0.683964 2.09326 
vt 0.762721 2.12821 
vt 0.781153 2.13264 
vt 0.778661 2.13398 
vt 0.758464 2.12973 
vt 0.688493 2.09918 
vt 0.690791 2.10493 
vt 0.677153 2.10325 
vt 0.688493 2.09918 
vt 0.704428 2.10661 
vt 0.688493 2.09918 
vt 0.683964 2.09326 
vt 0.761288 2.15458 
vt 0.742709 2.1493 
vt 0.760754 2.14687 
vt 0.73951 2.15634 
vt 0.766645 2.14614 
vt 0.761288 2.15458 
vt 0.77893 2.15563 
vt 0.684305 2.1375 
vt 0.689129 2.14474 
vt 0.689129 2.14474 
vt 0.672207 2.13673 
vt 0.684305 2.1375 
vt 0.680196 2.13392 
vt 0.719394 2.133 
vt 0.724912 2.13912 
vt 0.719564 2.14073 
vt 0.725661 2.13143 
vt 0.615514 2.11324 
vt 0.624323 2.12034 
vt 0.631979 2.11945 
vt 0.606625 2.11243 
vt 0.604386 2.1034 
vt 0.597288 2.10961 
vt 0.59913 2.09874 
vt 0.59913 2.09874 
vt 0.58795 2.10679 
vt 0.58738 2.09953 
vt 0.58795 2.10679 
vt 0.575427 2.10343 
vt 0.577758 2.10991 
vt 0.575427 2.10343 
vt 0.572662 2.11147 
vt 0.562725 2.10201 
vt 0.597185 2.15748 
vt 0.667239 2.14692 
vt 0.664219 2.13953 
vt 0.669184 2.1417 
vt 0.652641 2.14187 
vt 0.637844 2.14158 
vt 0.646677 2.14888 
vt 0.640257 2.14562 
vt 0.629028 2.14426 
vt 0.639705 2.11666 
vt 0.631979 2.11945 
vt 0.644398 2.12399 
vt 0.637844 2.14158 
vt 0.652641 2.14187 
vt 0.646677 2.14888 
vt 0.667239 2.14692 
vt 0.643124 2.11622 
vt 0.653209 2.11372 
vt 0.648492 2.12178 
vt 0.65219 2.10962 
vt 0.644398 2.12399 
vt 0.639705 2.11666 
vt 0.782715 2.15289 
vt 0.778982 2.14679 
vt 0.785058 2.14677 
vt 0.776219 2.15195 
vt 0.795824 2.14983 
vt 0.785058 2.14677 
vt 0.669184 2.1417 
vt 0.672207 2.13673 
vt 0.689129 2.14474 
vt 0.580325 2.15996 
vt 0.564303 2.14493 
vt 0.597185 2.15748 
vt 0.595944 2.16382 
vt 0.587869 2.16046 
vt 0.590551 2.16528 
vt 0.585158 2.16673 
vt 0.606635 2.15026 
vt 0.606729 2.16092 
vt 0.61347 2.15393 
vt 0.610888 2.14057 
vt 0.562597 2.13612 
vt 0.559024 2.12978 
vt 0.567327 2.12275 
vt 0.559404 2.1248 
vt 0.567566 2.11303 
vt 0.572662 2.11147 
vt 0.578942 2.11471 
vt 0.58795 2.10679 
vt 0.577758 2.10991 
vt 0.624323 2.12034 
vt 0.629028 2.14426 
vt 0.609598 2.13055 
vt 0.61347 2.15393 
vt 0.610888 2.14057 
vt 0.620212 2.14695 
vt 0.580325 2.15996 
vt 0.585158 2.16673 
vt 0.576199 2.16277 
vt 0.587869 2.16046 
vt 0.570182 2.15381 
vt 0.595944 2.16382 
vt 0.597185 2.15748 
vt 0.606729 2.16092 
vt 0.567239 2.15881 
vt 0.564303 2.14493 
vt 0.570182 2.15381 
vt 0.558264 2.13974 
vt 0.562597 2.13612 
vt 0.706036 2.13027 
vt 0.712625 2.11101 
vt 0.719394 2.133 
vt 0.726055 2.11419 
vt 0.704428 2.10661 
vt 0.725661 2.13143 
vt 0.690791 2.10493 
vt 0.739485 2.11737 
vt 0.680196 2.13392 
vt 0.738185 2.13732 
vt 0.637844 2.14158 
vt 0.644398 2.12399 
vt 0.652641 2.14187 
vt 0.631979 2.11945 
vt 0.629028 2.14426 
vt 0.624323 2.12034 
vt 0.620212 2.14695 
vt 0.609598 2.13055 
vt 0.603686 2.12028 
vt 0.606625 2.11243 
vt 0.597288 2.10961 
vt 0.59371 2.11399 
vt 0.58795 2.10679 
vt 0.578942 2.11471 
vt 0.577758 2.10991 
vt 0.572662 2.11147 
vt 0.567327 2.12275 
vt 0.567566 2.11303 
vt 0.559404 2.1248 
vt 0.559024 2.12978 
vt 0.562597 2.13612 
vt 0.558644 2.13476 
vt 0.558264 2.13974 
vt 0.564303 2.14493 
vt 0.557884 2.14473 
vt 0.567239 2.15881 
vt 0.570182 2.15381 
vt 0.576199 2.16277 
vt 0.758464 2.12973 
vt 0.766645 2.14614 
vt 0.760754 2.14687 
vt 0.778982 2.14679 
vt 0.740446 2.14587 
vt 0.742709 2.1493 
vt 0.784809 2.14452 
vt 0.785058 2.14677 
vt 0.795824 2.14983 
vt 0.677153 2.10325 
vt 0.749812 2.12162 
vt 0.673335 2.10278 
vt 0.672207 2.13673 
vt 0.762721 2.12821 
vt 0.653209 2.11372 
vt 0.664219 2.13953 
vt 0.659874 2.10506 
vt 0.660366 2.10198 
vt 0.642855 2.09577 
vt 0.648492 2.12178 
vt 0.595944 2.16382 
vt 0.60805 2.16447 
vt 0.601596 2.17331 
vt 0.61347 2.15393 
vt 0.61684 2.15983 
vt 0.624015 2.15326 
vt 0.620212 2.14695 
vt 0.629028 2.14426 
vt 0.706036 2.13027 
vt 0.684305 2.1375 
vt 0.705799 2.138 
vt 0.719394 2.133 
vt 0.719564 2.14073 
vt 0.706036 2.13027 
vt 0.643086 2.0986 
vt 0.659874 2.10506 
vt 0.65219 2.10962 
vt 0.643086 2.0986 
vt 0.635146 2.09494 
vt 0.642855 2.09577 
vt 0.659874 2.10506 
vt 0.725661 2.13143 
vt 0.732247 2.14227 
vt 0.724912 2.13912 
vt 0.738185 2.13732 
vt 0.571274 2.12597 
vt 0.73339 2.14903 
vt 0.732247 2.14227 
vt 0.740446 2.14587 
vt 0.738185 2.13732 
vt 0.742709 2.1493 
vt 0.73951 2.15634 
vt 0.678762 2.16267 
vt 0.678762 2.13866 
vt 0.685715 2.14473 
vt 0.678762 2.13866 
vt 0.671808 2.14473 
vt 0.678762 2.16267 
vt 0.678762 2.10201 
vt 0.685715 2.11303 
vt 0.678762 2.12221 
vt 0.671808 2.12978 
vt 0.678762 2.13876 
vt 0.673413 2.14452 
vt 0.678762 2.11422 
vt 0.678762 2.11015 
vt 0.673413 2.12821 
vt 0.678762 2.13222 
vt 0.685715 2.14057 
vt 0.678762 2.14024 
vt 0.685715 2.13055 
vt 0.678762 2.12399 
vt 0.685715 2.12028 
vt 0.678762 2.11895 
vt 0.671808 2.11399 
vt 0.678762 2.12399 
vt 0.671808 2.12028 
vt 0.671808 2.13055 
vt 0.678762 2.13222 
vt 0.671808 2.14057 
vt 0.678762 2.14024 
vt 0.678762 2.14024 
vt 0.685715 2.14057 
vt 0.678762 2.148 
vt 0.685715 2.15026 
vt 0.671808 2.14057 
vt 0.678762 2.148 
vt 0.671808 2.15026 
vt 0.678762 2.14024 
vt 0.678762 2.14073 
vt 0.673413 2.13143 
vt 0.685715 2.10961 
vt 0.671808 2.10679 
vt 0.678762 2.15289 
vt 0.684111 2.14677 
vt 0.671808 2.12275 
vt 0.671808 2.13612 
vt 0.685715 2.16092 
vt 0.684111 2.10506 
vt 0.678762 2.10962 
vt 0.684111 2.11372 
vt 0.673413 2.10506 
vt 0.678762 2.10962 
vt 0.673413 2.11372 
vt 0.572662 2.14024 
vt 0.563475 2.13329 
vt 0.567566 2.14024 
vt 0.55212 2.13329 
vt 0.567566 2.12633 
vt 0.572662 2.12633 
vt 0.563475 2.13329 
vt 0.567239 2.14024 
vt 0.812632 2.13329 
vt 0.784809 2.12794 
vt 0.795824 2.12794 
vt 0.748335 2.13329 
vt 0.762721 2.13863 
vt 0.762721 2.12794 
vt 0.602764 2.13329 
vt 0.606635 2.14024 
vt 0.606635 2.12633 
vt 0.673335 2.13863 
vt 0.670552 2.13329 
vt 0.677153 2.13863 
vt 0.660502 2.13329 
vt 0.673335 2.12794 
vt 0.673335 2.12794 
vt 0.670552 2.13329 
vt 0.677153 2.12794 
vt 0.590551 2.14024 
vt 0.642855 2.13447 
vt 0.660502 2.13329 
vt 0.635146 2.13329 
vt 0.660502 2.13329 
vt 0.635146 2.13329 
vt 0.642855 2.1321 
vt 0.688493 2.13329 
vt 0.677153 2.12794 
vt 0.670552 2.13329 
vt 0.677153 2.13863 
vt 0.688493 2.13329 
vt 0.670552 2.13329 
vt 0.615514 2.13329 
vt 0.631006 2.13329 
vt 0.624323 2.14024 
vt 0.631979 2.13863 
vt 0.624323 2.14024 
vt 0.606625 2.14024 
vt 0.604386 2.13329 
vt 0.59913 2.13329 
vt 0.58795 2.14024 
vt 0.58795 2.12633 
vt 0.577758 2.12633 
vt 0.606625 2.12633 
vt 0.615514 2.13329 
vt 0.624323 2.12633 
vt 0.624323 2.12633 
vt 0.631006 2.13329 
vt 0.631979 2.12794 
vt 0.602764 2.13329 
vt 0.597185 2.14024 
vt 0.595193 2.13329 
vt 0.606635 2.14024 
vt 0.606635 2.12633 
vt 0.602764 2.13329 
vt 0.597185 2.12633 
vt 0.595193 2.13329 
vt 0.631006 2.13329 
vt 0.639705 2.13329 
vt 0.631979 2.13863 
vt 0.639705 2.13329 
vt 0.631979 2.12794 
vt 0.631006 2.13329 
vt 0.643124 2.13329 
vt 0.653209 2.13863 
vt 0.648492 2.13863 
vt 0.65219 2.13329 
vt 0.643124 2.13329 
vt 0.648492 2.12794 
vt 0.653209 2.12794 
vt 0.65219 2.13329 
vt 0.782715 2.13329 
vt 0.785058 2.13863 
vt 0.587869 2.12633 
vt 0.580325 2.12633 
vt 0.564303 2.12633 
vt 0.567327 2.12633 
vt 0.606729 2.14024 
vt 0.61347 2.14024 
vt 0.578942 2.14024 
vt 0.580325 2.14024 
vt 0.659874 2.12794 
vt 0.659874 2.13863 
vt 0.595193 2.13329 
vt 0.587869 2.14024 
vt 0.587731 2.13329 
vt 0.597185 2.14024 
vt 0.597185 2.12633 
vt 0.595193 2.13329 
vt 0.587869 2.12633 
vt 0.587731 2.13329 
vt 0.587731 2.13329 
vt 0.587869 2.14024 
vt 0.581687 2.13329 
vt 0.580325 2.14024 
vt 0.587869 2.12633 
vt 0.581687 2.13329 
vt 0.580325 2.12633 
vt 0.587731 2.13329 
vt 0.573562 2.13329 
vt 0.570182 2.14024 
vt 0.580325 2.14024 
vt 0.581687 2.13329 
vt 0.570182 2.12633 
vt 0.580325 2.12633 
vt 0.573562 2.13329 
vt 0.581687 2.13329 
vt 0.804436 2.16267 
vt 0.806403 2.13866 
vt 0.806403 2.13866 
vt 0.79964 2.14473 
vt 0.799259 2.13974 
vt 0.79888 2.13476 
vt 0.812632 2.13478 
vt 0.794048 2.10734 
vt 0.794798 2.10201 
vt 0.805403 2.12221 
vt 0.806401 2.12737 
vt 0.805403 2.12221 
vt 0.789957 2.11303 
vt 0.794048 2.10734 
vt 0.798119 2.1248 
vt 0.806401 2.12737 
vt 0.798499 2.12978 
vt 0.79888 2.13476 
vt 0.812632 2.13478 
vt 0.784861 2.11147 
vt 0.794048 2.10734 
vt 0.794798 2.10201 
vt 0.784453 2.16832 
vt 0.772365 2.16673 
vt 0.781325 2.16277 
vt 0.784453 2.16832 
vt 0.786455 2.17325 
vt 0.790284 2.15881 
vt 0.784453 2.16832 
vt 0.79443 2.16402 
vt 0.804436 2.16267 
vt 0.79964 2.14473 
vt 0.570447 2.13876 
vt 0.544891 2.15261 
vt 0.578862 2.13398 
vt 0.599059 2.12973 
vt 0.572714 2.14452 
vt 0.578862 2.13398 
vt 0.570447 2.13876 
vt 0.561699 2.14983 
vt 0.544891 2.15261 
vt 0.609188 2.11422 
vt 0.623446 2.11015 
vt 0.609188 2.11422 
vt 0.618039 2.11737 
vt 0.607711 2.12162 
vt 0.623446 2.11015 
vt 0.594803 2.12821 
vt 0.57637 2.13264 
vt 0.631468 2.11419 
vt 0.623446 2.11015 
vt 0.590879 2.14614 
vt 0.581304 2.15195 
vt 0.751352 2.14024 
vt 0.757122 2.12399 
vt 0.765113 2.11895 
vt 0.763813 2.11399 
vt 0.747925 2.13055 
vt 0.754759 2.148 
vt 0.750888 2.15026 
vt 0.689331 2.09588 
vt 0.686971 2.09828 
vt 0.697021 2.09559 
vt 0.689331 2.09588 
vt 0.697157 2.10198 
vt 0.684188 2.10278 
vt 0.697021 2.09559 
vt 0.68037 2.10325 
vt 0.767822 2.17107 
vt 0.761579 2.16382 
vt 0.755927 2.17331 
vt 0.722377 2.09494 
vt 0.697021 2.09559 
vt 0.714668 2.09577 
vt 0.697157 2.10198 
vt 0.644321 2.1012 
vt 0.644321 2.1012 
vt 0.653095 2.10661 
vt 0.644898 2.11101 
vt 0.673559 2.09326 
vt 0.631468 2.11419 
vt 0.620477 2.1073 
vt 0.594803 2.12821 
vt 0.578862 2.13398 
vt 0.57637 2.13264 
vt 0.599059 2.12973 
vt 0.66903 2.09918 
vt 0.68037 2.10325 
vt 0.666732 2.10493 
vt 0.653095 2.10661 
vt 0.66903 2.09918 
vt 0.673559 2.09326 
vt 0.596236 2.15458 
vt 0.618014 2.15634 
vt 0.618014 2.15634 
vt 0.596236 2.15458 
vt 0.614814 2.1493 
vt 0.59677 2.14687 
vt 0.596236 2.15458 
vt 0.590879 2.14614 
vt 0.578594 2.15563 
vt 0.685316 2.13673 
vt 0.673218 2.1375 
vt 0.668394 2.14474 
vt 0.632611 2.13912 
vt 0.63796 2.14073 
vt 0.632611 2.13912 
vt 0.638129 2.133 
vt 0.63796 2.14073 
vt 0.631862 2.13143 
vt 0.74201 2.11324 
vt 0.753137 2.1034 
vt 0.758393 2.09874 
vt 0.782096 2.10343 
vt 0.769573 2.10679 
vt 0.758393 2.09874 
vt 0.770144 2.09953 
vt 0.760236 2.10961 
vt 0.782096 2.10343 
vt 0.769573 2.10679 
vt 0.779765 2.10991 
vt 0.782096 2.10343 
vt 0.784861 2.11147 
vt 0.794798 2.10201 
vt 0.753137 2.1034 
vt 0.758393 2.09874 
vt 0.750898 2.11243 
vt 0.74201 2.11324 
vt 0.7332 2.12034 
vt 0.725544 2.11945 
vt 0.690285 2.14692 
vt 0.688339 2.1417 
vt 0.704882 2.14187 
vt 0.690285 2.14692 
vt 0.693304 2.13953 
vt 0.688339 2.1417 
vt 0.710846 2.14888 
vt 0.717267 2.14562 
vt 0.719679 2.14158 
vt 0.728495 2.14426 
vt 0.717818 2.11666 
vt 0.725544 2.11945 
vt 0.713125 2.12399 
vt 0.704882 2.14187 
vt 0.710846 2.14888 
vt 0.690285 2.14692 
vt 0.719679 2.14158 
vt 0.714399 2.11622 
vt 0.705333 2.10962 
vt 0.714399 2.11622 
vt 0.713125 2.12399 
vt 0.709031 2.12178 
vt 0.717818 2.11666 
vt 0.704314 2.11372 
vt 0.574809 2.15289 
vt 0.574809 2.15289 
vt 0.561699 2.14983 
vt 0.572465 2.14677 
vt 0.578541 2.14679 
vt 0.572465 2.14677 
vt 0.581304 2.15195 
vt 0.688339 2.1417 
vt 0.685316 2.13673 
vt 0.668394 2.14474 
vt 0.750794 2.16092 
vt 0.760338 2.15748 
vt 0.761579 2.16382 
vt 0.769654 2.16046 
vt 0.766972 2.16528 
vt 0.772365 2.16673 
vt 0.777199 2.15996 
vt 0.781325 2.16277 
vt 0.787341 2.15381 
vt 0.781325 2.16277 
vt 0.787341 2.15381 
vt 0.790284 2.15881 
vt 0.793221 2.14493 
vt 0.79964 2.14473 
vt 0.769573 2.10679 
vt 0.763813 2.11399 
vt 0.760236 2.10961 
vt 0.778581 2.11471 
vt 0.753838 2.12028 
vt 0.750898 2.11243 
vt 0.784861 2.11147 
vt 0.790197 2.12275 
vt 0.789957 2.11303 
vt 0.798119 2.1248 
vt 0.798499 2.12978 
vt 0.794926 2.13612 
vt 0.798499 2.12978 
vt 0.79888 2.13476 
vt 0.794926 2.13612 
vt 0.790197 2.12275 
vt 0.798119 2.1248 
vt 0.784861 2.11147 
vt 0.778581 2.11471 
vt 0.779765 2.10991 
vt 0.769573 2.10679 
vt 0.760338 2.15748 
vt 0.750794 2.16092 
vt 0.750888 2.15026 
vt 0.744053 2.15393 
vt 0.746635 2.14057 
vt 0.737312 2.14695 
vt 0.769654 2.16046 
vt 0.761579 2.16382 
vt 0.772365 2.16673 
vt 0.766972 2.16528 
vt 0.728495 2.14426 
vt 0.746635 2.14057 
vt 0.737312 2.14695 
vt 0.799259 2.13974 
vt 0.793221 2.14493 
vt 0.794926 2.13612 
vt 0.79888 2.13476 
vt 0.79964 2.14473 
vt 0.790284 2.15881 
vt 0.787341 2.15381 
vt 0.728495 2.14426 
vt 0.747925 2.13055 
vt 0.7332 2.12034 
vt 0.753838 2.12028 
vt 0.750898 2.11243 
vt 0.725544 2.11945 
vt 0.760236 2.10961 
vt 0.763813 2.11399 
vt 0.719679 2.14158 
vt 0.713125 2.12399 
vt 0.704882 2.14187 
vt 0.709031 2.12178 
vt 0.693304 2.13953 
vt 0.704314 2.11372 
vt 0.685316 2.13673 
vt 0.684188 2.10278 
vt 0.697649 2.10506 
vt 0.677327 2.13392 
vt 0.697157 2.10198 
vt 0.714668 2.09577 
vt 0.68037 2.10325 
vt 0.666732 2.10493 
vt 0.651487 2.13027 
vt 0.653095 2.10661 
vt 0.644898 2.11101 
vt 0.638129 2.133 
vt 0.631468 2.11419 
vt 0.631862 2.13143 
vt 0.618039 2.11737 
vt 0.619338 2.13732 
vt 0.607711 2.12162 
vt 0.599059 2.12973 
vt 0.594803 2.12821 
vt 0.617077 2.14587 
vt 0.59677 2.14687 
vt 0.614814 2.1493 
vt 0.590879 2.14614 
vt 0.578541 2.14679 
vt 0.572714 2.14452 
vt 0.572465 2.14677 
vt 0.561699 2.14983 
vt 0.651487 2.13027 
vt 0.749473 2.16447 
vt 0.740683 2.15983 
vt 0.733509 2.15326 
vt 0.737312 2.14695 
vt 0.744053 2.15393 
vt 0.733509 2.15326 
vt 0.728495 2.14426 
vt 0.740683 2.15983 
vt 0.749473 2.16447 
vt 0.761579 2.16382 
vt 0.755927 2.17331 
vt 0.651724 2.138 
vt 0.651724 2.138 
vt 0.638129 2.133 
vt 0.651487 2.13027 
vt 0.63796 2.14073 
vt 0.651487 2.13027 
vt 0.673218 2.1375 
vt 0.714437 2.0986 
vt 0.697649 2.10506 
vt 0.714437 2.0986 
vt 0.705333 2.10962 
vt 0.722377 2.09494 
vt 0.714437 2.0986 
vt 0.714668 2.09577 
vt 0.697649 2.10506 
vt 0.625276 2.14227 
vt 0.625276 2.14227 
vt 0.631862 2.13143 
vt 0.632611 2.13912 
vt 0.619338 2.13732 
vt 0.786249 2.12597 
vt 0.624133 2.14903 
vt 0.624133 2.14903 
vt 0.614814 2.1493 
vt 0.617077 2.14587 
vt 0.618014 2.15634 
vt 0.625276 2.14227 
vt 0.619338 2.13732 

usemtl Meshpart1Mtl

f 7/7/7 8/8/8 9/9/9 
f 12/12/12 10/10/10 11/11/11 
f 13/13/13 14/14/14 15/15/15 
f 17/17/17 18/18/18 16/16/16 
f 29/29/29 30/30/30 31/31/31 
f 35/35/35 34/34/34 36/36/36 
f 38/38/38 39/39/39 37/37/37 
f 39/39/39 40/40/40 37/37/37 
f 41/41/41 42/42/42 43/43/43 
f 42/42/42 41/41/41 44/44/44 
f 45/45/45 46/46/46 47/47/47 
f 46/46/46 45/45/45 48/48/48 
f 45/45/45 49/49/49 48/48/48 
f 49/49/49 50/50/50 48/48/48 
f 52/52/52 53/53/53 51/51/51 
f 53/53/53 52/52/52 54/54/54 
f 53/53/53 54/54/54 55/55/55 
f 55/55/55 54/54/54 56/56/56 
f 61/61/61 62/62/62 63/63/63 
f 64/64/64 62/62/62 65/65/65 
f 66/66/66 67/67/67 65/65/65 
f 68/68/68 69/69/69 70/70/70 
f 71/71/71 72/72/72 69/69/69 
f 71/71/71 74/74/74 73/73/73 
f 78/78/78 80/80/80 79/79/79 
f 83/83/83 81/81/81 82/82/82 
f 84/84/84 85/85/85 86/86/86 
f 87/87/87 88/88/88 89/89/89 
f 90/90/90 92/92/92 91/91/91 
f 93/93/93 92/92/92 90/90/90 
f 94/94/94 95/95/95 96/96/96 
f 95/95/95 94/94/94 97/97/97 
f 99/99/99 100/100/100 101/101/101 
f 102/102/102 101/101/101 103/103/103 
f 103/103/103 104/104/104 102/102/102 
f 105/105/105 106/106/106 107/107/107 
f 108/108/108 109/109/109 107/107/107 
f 108/108/108 110/110/110 109/109/109 
f 113/113/113 114/114/114 115/115/115 
f 117/117/117 116/116/116 118/118/118 
f 123/123/123 124/124/124 125/125/125 
f 125/125/125 126/126/126 123/123/123 
f 127/127/127 128/128/128 129/129/129 
f 128/128/128 127/127/127 130/130/130 
f 132/132/132 131/131/131 133/133/133 
f 135/135/135 134/134/134 136/136/136 
f 138/138/138 137/137/137 139/139/139 
f 140/140/140 141/141/141 142/142/142 
f 153/153/153 152/152/152 154/154/154 
f 158/158/158 156/156/156 157/157/157 
f 160/160/160 159/159/159 161/161/161 
f 164/164/164 162/162/162 163/163/163 
f 165/165/165 166/166/166 167/167/167 
f 169/169/169 168/168/168 170/170/170 
f 171/171/171 172/172/172 173/173/173 
f 172/172/172 171/171/171 174/174/174 
f 174/174/174 175/175/175 172/172/172 
f 175/175/175 174/174/174 176/176/176 
f 179/179/179 177/177/177 178/178/178 
f 177/177/177 179/179/179 180/180/180 
f 181/181/181 180/180/180 179/179/179 
f 180/180/180 181/181/181 182/182/182 
f 184/184/184 186/186/186 185/185/185 
f 184/184/184 187/187/187 186/186/186 
f 187/187/187 184/184/184 188/188/188 
f 189/189/189 190/190/190 191/191/191 
f 192/192/192 193/193/193 194/194/194 
f 193/193/193 192/192/192 195/195/195 
f 195/195/195 196/196/196 193/193/193 
f 196/196/196 195/195/195 197/197/197 
f 198/198/198 196/196/196 197/197/197 
f 196/196/196 198/198/198 199/199/199 
f 200/200/200 201/201/201 202/202/202 
f 202/202/202 204/204/204 203/203/203 
f 205/205/205 207/207/207 206/206/206 
f 208/208/208 209/209/209 210/210/210 
f 210/210/210 211/211/211 208/208/208 
f 211/211/211 212/212/212 208/208/208 
f 212/212/212 211/211/211 213/213/213 
f 214/214/214 215/215/215 216/216/216 
f 214/214/214 216/216/216 217/217/217 
f 217/217/217 218/218/218 214/214/214 
f 219/219/219 214/214/214 218/218/218 
f 218/218/218 220/220/220 221/221/221 
f 234/234/234 237/237/237 238/238/238 
f 239/239/239 234/234/234 238/238/238 
f 241/241/241 240/240/240 243/243/243 
f 244/244/244 245/245/245 246/246/246 
f 248/248/248 249/249/249 250/250/250 
f 249/249/249 248/248/248 251/251/251 
f 249/249/249 251/251/251 252/252/252 
f 253/253/253 249/249/249 252/252/252 
f 254/254/254 255/255/255 256/256/256 
f 256/256/256 257/257/257 254/254/254 
f 259/259/259 260/260/260 261/261/261 
f 262/262/262 259/259/259 263/263/263 
f 264/264/264 262/262/262 263/263/263 
f 265/265/265 266/266/266 267/267/267 
f 266/266/266 265/265/265 268/268/268 
f 269/269/269 270/270/270 267/267/267 
f 270/270/270 269/269/269 271/271/271 
f 274/274/274 275/275/275 276/276/276 
f 278/278/278 279/279/279 280/280/280 
f 279/279/279 278/278/278 281/281/281 
f 286/286/286 282/282/282 285/285/285 
f 286/286/286 285/285/285 287/287/287 
f 286/286/286 287/287/287 288/288/288 
f 289/289/289 287/287/287 290/290/290 
f 291/291/291 289/289/289 290/290/290 
f 292/292/292 293/293/293 291/291/291 
f 293/293/293 292/292/292 294/294/294 
f 295/295/295 294/294/294 296/296/296 
f 296/296/296 297/297/297 295/295/295 
f 299/299/299 300/300/300 301/301/301 
f 300/300/300 299/299/299 302/302/302 
f 307/307/307 309/309/309 308/308/308 
f 310/310/310 311/311/311 312/312/312 
f 313/313/313 312/312/312 311/311/311 
f 314/314/314 315/315/315 316/316/316 
f 318/318/318 314/314/314 316/316/316 
f 318/318/318 319/319/319 314/314/314 
f 320/320/320 321/321/321 322/322/322 
f 321/321/321 320/320/320 323/323/323 
f 324/324/324 320/320/320 325/325/325 
f 326/326/326 327/327/327 328/328/328 
f 331/331/331 332/332/332 333/333/333 
f 334/334/334 333/333/333 332/332/332 
f 335/335/335 333/333/333 334/334/334 
f 336/336/336 337/337/337 331/331/331 
f 337/337/337 336/336/336 338/338/338 
f 339/339/339 338/338/338 336/336/336 
f 340/340/340 341/341/341 342/342/342 
f 342/342/342 343/343/343 344/344/344 
f 342/342/342 345/345/345 346/346/346 
f 347/347/347 346/346/346 348/348/348 
f 349/349/349 350/350/350 351/351/351 
f 352/352/352 353/353/353 354/354/354 
f 355/355/355 356/356/356 357/357/357 
f 358/358/358 356/356/356 355/355/355 
f 357/357/357 359/359/359 355/355/355 
f 360/360/360 361/361/361 362/362/362 
f 363/363/363 364/364/364 365/365/365 
f 364/364/364 366/366/366 367/367/367 
f 368/368/368 369/369/369 370/370/370 
f 371/371/371 370/370/370 369/369/369 
f 369/369/369 368/368/368 372/372/372 
f 370/370/370 371/371/371 373/373/373 
f 372/372/372 368/368/368 374/374/374 
f 375/375/375 373/373/373 371/371/371 
f 376/376/376 374/374/374 368/368/368 
f 375/375/375 377/377/377 373/373/373 
f 378/378/378 379/379/379 380/380/380 
f 379/379/379 378/378/378 381/381/381 
f 382/382/382 381/381/381 378/378/378 
f 381/381/381 382/382/382 383/383/383 
f 339/339/339 382/382/382 384/384/384 
f 382/382/382 339/339/339 385/385/385 
f 386/386/386 383/383/383 385/385/385 
f 383/383/383 386/386/386 387/387/387 
f 386/386/386 388/388/388 387/387/387 
f 388/388/388 386/386/386 389/389/389 
f 389/389/389 390/390/390 388/388/388 
f 391/391/391 390/390/390 389/389/389 
f 392/392/392 391/391/391 393/393/393 
f 393/393/393 394/394/394 395/395/395 
f 396/396/396 394/394/394 397/397/397 
f 397/397/397 398/398/398 399/399/399 
f 399/399/399 398/398/398 400/400/400 
f 400/400/400 401/401/401 402/402/402 
f 401/401/401 403/403/403 402/402/402 
f 404/404/404 405/405/405 403/403/403 
f 406/406/406 407/407/407 408/408/408 
f 406/406/406 409/409/409 407/407/407 
f 410/410/410 406/406/406 408/408/408 
f 410/410/410 408/408/408 411/411/411 
f 409/409/409 406/406/406 412/412/412 
f 409/409/409 412/412/412 413/413/413 
f 414/414/414 413/413/413 412/412/412 
f 374/374/374 376/376/376 415/415/415 
f 416/416/416 377/377/377 375/375/375 
f 376/376/376 417/417/417 415/415/415 
f 417/417/417 376/376/376 418/418/418 
f 377/377/377 416/416/416 406/406/406 
f 416/416/416 419/419/419 406/406/406 
f 406/406/406 410/410/410 377/377/377 
f 420/420/420 417/417/417 418/418/418 
f 421/421/421 420/420/420 418/418/418 
f 417/417/417 420/420/420 422/422/422 
f 417/417/417 422/422/422 423/423/423 
f 422/422/422 424/424/424 423/423/423 
f 420/420/420 421/421/421 425/425/425 
f 380/380/380 425/425/425 421/421/421 
f 425/425/425 380/380/380 379/379/379 
f 426/426/426 427/427/427 428/428/428 
f 430/430/430 427/427/427 429/429/429 
f 429/429/429 431/431/431 430/430/430 
f 431/431/431 429/429/429 432/432/432 
f 431/431/431 432/432/432 433/433/433 
f 435/435/435 434/434/434 436/436/436 
f 436/436/436 437/437/437 438/438/438 
f 437/437/437 436/436/436 439/439/439 
f 440/440/440 441/441/441 442/442/442 
f 443/443/443 444/444/444 445/445/445 
f 445/445/445 446/446/446 443/443/443 
f 447/447/447 448/448/448 449/449/449 
f 448/448/448 447/447/447 450/450/450 
f 452/452/452 453/453/453 454/454/454 
f 453/453/453 455/455/455 454/454/454 
f 452/452/452 454/454/454 456/456/456 
f 457/457/457 452/452/452 456/456/456 
f 458/458/458 459/459/459 460/460/460 
f 462/462/462 461/461/461 463/463/463 
f 473/473/473 474/474/474 475/475/475 
f 474/474/474 473/473/473 476/476/476 
f 477/477/477 476/476/476 473/473/473 
f 476/476/476 477/477/477 478/478/478 
f 482/482/482 481/481/481 483/483/483 
f 483/483/483 481/481/481 484/484/484 
f 483/483/483 484/484/484 485/485/485 
f 485/485/485 484/484/484 486/486/486 
f 487/487/487 488/488/488 489/489/489 
f 489/489/489 488/488/488 490/490/490 
f 491/491/491 492/492/492 493/493/493 
f 492/492/492 491/491/491 494/494/494 
f 504/504/504 506/506/506 505/505/505 
f 507/507/507 508/508/508 509/509/509 
f 511/511/511 510/510/510 512/512/512 
f 515/515/515 516/516/516 514/514/514 
f 528/528/528 529/529/529 527/527/527 
f 533/533/533 532/532/532 534/534/534 
f 538/538/538 537/537/537 536/536/536 
f 539/539/539 540/540/540 541/541/541 
f 543/543/543 542/542/542 544/544/544 
f 547/547/547 546/546/546 545/545/545 
f 548/548/548 549/549/549 550/550/550 
f 549/549/549 551/551/551 550/550/550 
f 548/548/548 552/552/552 553/553/553 
f 560/560/560 559/559/559 561/561/561 
f 562/562/562 563/563/563 560/560/560 
f 563/563/563 562/562/562 564/564/564 
f 565/565/565 566/566/566 567/567/567 
f 566/566/566 565/565/565 568/568/568 
f 569/569/569 570/570/570 571/571/571 
f 571/571/571 570/570/570 572/572/572 
f 573/573/573 574/574/574 575/575/575 
f 577/577/577 576/576/576 578/578/578 
f 580/580/580 579/579/579 582/582/582 
f 586/586/586 583/583/583 585/585/585 
f 599/599/599 600/600/600 601/601/601 
f 600/600/600 599/599/599 602/602/602 
f 603/603/603 604/604/604 605/605/605 
f 605/605/605 604/604/604 606/606/606 
f 607/607/607 608/608/608 609/609/609 
f 609/609/609 608/608/608 610/610/610 
f 611/611/611 612/612/612 613/613/613 
f 612/612/612 611/611/611 614/614/614 
f 615/615/615 617/617/617 616/616/616 
f 617/617/617 615/615/615 618/618/618 
f 619/619/619 620/620/620 621/621/621 
f 620/620/620 622/622/622 621/621/621 
f 625/625/625 626/626/626 627/627/627 
f 625/625/625 627/627/627 628/628/628 
f 628/628/628 629/629/629 625/625/625 
f 634/634/634 635/635/635 636/636/636 
f 635/635/635 634/634/634 637/637/637 
f 638/638/638 637/637/637 634/634/634 
f 638/638/638 639/639/639 637/637/637 
f 638/638/638 640/640/640 639/639/639 
f 640/640/640 638/638/638 641/641/641 
f 643/643/643 642/642/642 644/644/644 
f 649/649/649 646/646/646 648/648/648 
f 652/652/652 651/651/651 650/650/650 
f 653/653/653 650/650/650 654/654/654 
f 658/658/658 659/659/659 660/660/660 
f 660/660/660 659/659/659 661/661/661 
f 659/659/659 662/662/662 661/661/661 
f 663/663/663 661/661/661 662/662/662 
f 666/666/666 667/667/667 668/668/668 
f 667/667/667 666/666/666 669/669/669 
f 670/670/670 666/666/666 668/668/668 
f 671/671/671 666/666/666 670/670/670 
f 672/672/672 667/667/667 673/673/673 
f 686/686/686 687/687/687 688/688/688 
f 687/687/687 686/686/686 689/689/689 
f 692/692/692 691/691/691 693/693/693 
f 697/697/697 695/695/695 696/696/696 
f 699/699/699 700/700/700 701/701/701 
f 700/700/700 699/699/699 702/702/702 
f 701/701/701 703/703/703 699/699/699 
f 703/703/703 704/704/704 699/699/699 
f 705/705/705 706/706/706 707/707/707 
f 706/706/706 705/705/705 708/708/708 
f 709/709/709 710/710/710 711/711/711 
f 712/712/712 713/713/713 711/711/711 
f 712/712/712 714/714/714 713/713/713 
f 717/717/717 718/718/718 719/719/719 
f 719/719/719 718/718/718 720/720/720 
f 721/721/721 722/722/722 720/720/720 
f 722/722/722 721/721/721 723/723/723 
f 725/725/725 724/724/724 726/726/726 
f 729/729/729 730/730/730 731/731/731 
f 730/730/730 729/729/729 732/732/732 
f 737/737/737 738/738/738 739/739/739 
f 738/738/738 737/737/737 740/740/740 
f 739/739/739 741/741/741 742/742/742 
f 742/742/742 741/741/741 743/743/743 
f 744/744/744 745/745/745 743/743/743 
f 745/745/745 744/744/744 746/746/746 
f 740/740/740 747/747/747 748/748/748 
f 747/747/747 740/740/740 749/749/749 
f 749/749/749 750/750/750 747/747/747 
f 755/755/755 756/756/756 757/757/757 
f 757/757/757 756/756/756 758/758/758 
f 763/763/763 764/764/764 765/765/765 
f 766/766/766 767/767/767 768/768/768 
f 767/767/767 766/766/766 769/769/769 
f 772/772/772 773/773/773 774/774/774 
f 773/773/773 772/772/772 775/775/775 
f 776/776/776 772/772/772 774/774/774 
f 778/778/778 779/779/779 780/780/780 
f 781/781/781 778/778/778 782/782/782 
f 783/783/783 778/778/778 781/781/781 
f 784/784/784 786/786/786 785/785/785 
f 787/787/787 788/788/788 789/789/789 
f 789/789/789 790/790/790 791/791/791 
f 792/792/792 790/790/790 793/793/793 
f 792/792/792 793/793/793 794/794/794 
f 795/795/795 794/794/794 793/793/793 
f 796/796/796 797/797/797 798/798/798 
f 798/798/798 799/799/799 800/800/800 
f 801/801/801 802/802/802 803/803/803 
f 802/802/802 801/801/801 804/804/804 
f 803/803/803 805/805/805 806/806/806 
f 804/804/804 807/807/807 808/808/808 
f 809/809/809 808/808/808 807/807/807 
f 808/808/808 809/809/809 810/810/810 
f 808/808/808 811/811/811 812/812/812 
f 813/813/813 814/814/814 815/815/815 
f 813/813/813 816/816/816 817/817/817 
f 818/818/818 819/819/819 820/820/820 
f 819/819/819 821/821/821 820/820/820 
f 822/822/822 823/823/823 824/824/824 
f 824/824/824 823/823/823 825/825/825 
f 825/825/825 826/826/826 824/824/824 
f 826/826/826 825/825/825 827/827/827 
f 828/828/828 829/829/829 822/822/822 
f 828/828/828 830/830/830 831/831/831 
f 832/832/832 833/833/833 834/834/834 
f 835/835/835 836/836/836 837/837/837 
f 835/835/835 837/837/837 838/838/838 
f 836/836/836 835/835/835 839/839/839 
f 836/836/836 840/840/840 841/841/841 
f 842/842/842 843/843/843 826/826/826 
f 843/843/843 842/842/842 844/844/844 
f 844/844/844 845/845/845 843/843/843 
f 845/845/845 844/844/844 846/846/846 
f 842/842/842 847/847/847 844/844/844 
f 845/845/845 848/848/848 849/849/849 
f 850/850/850 847/847/847 842/842/842 
f 847/847/847 850/850/850 851/851/851 
f 852/852/852 851/851/851 850/850/850 
f 851/851/851 852/852/852 853/853/853 
f 854/854/854 853/853/853 852/852/852 
f 854/854/854 855/855/855 853/853/853 
f 856/856/856 855/855/855 854/854/854 
f 856/856/856 857/857/857 855/855/855 
f 855/855/855 857/857/857 858/858/858 
f 857/857/857 856/856/856 859/859/859 
f 858/858/858 857/857/857 860/860/860 
f 861/861/861 858/858/858 860/860/860 
f 857/857/857 859/859/859 862/862/862 
f 862/862/862 859/859/859 863/863/863 
f 864/864/864 863/863/863 859/859/859 
f 863/863/863 864/864/864 865/865/865 
f 865/865/865 864/864/864 866/866/866 
f 867/867/867 866/866/866 864/864/864 
f 866/866/866 867/867/867 868/868/868 
f 869/869/869 868/868/868 867/867/867 
f 868/868/868 869/869/869 870/870/870 
f 871/871/871 870/870/870 869/869/869 
f 870/870/870 871/871/871 872/872/872 
f 871/871/871 873/873/873 872/872/872 
f 873/873/873 874/874/874 872/872/872 
f 873/873/873 871/871/871 875/875/875 
f 875/875/875 876/876/876 873/873/873 
f 876/876/876 875/875/875 877/877/877 
f 878/878/878 873/873/873 876/876/876 
f 879/879/879 873/873/873 878/878/878 
f 873/873/873 879/879/879 880/880/880 
f 880/880/880 879/879/879 881/881/881 
f 881/881/881 882/882/882 880/880/880 
f 887/887/887 888/888/888 889/889/889 
f 889/889/889 890/890/890 887/887/887 
f 888/888/888 891/891/891 889/889/889 
f 888/888/888 892/892/892 891/891/891 
f 893/893/893 894/894/894 892/892/892 
f 896/896/896 897/897/897 898/898/898 
f 897/897/897 896/896/896 899/899/899 
f 900/900/900 901/901/901 896/896/896 
f 903/903/903 904/904/904 905/905/905 
f 906/906/906 907/907/907 908/908/908 
f 909/909/909 908/908/908 907/907/907 
f 911/911/911 912/912/912 913/913/913 
f 912/912/912 911/911/911 914/914/914 
f 917/917/917 918/918/918 919/919/919 
f 918/918/918 917/917/917 920/920/920 
f 919/919/919 921/921/921 917/917/917 
f 921/921/921 919/919/919 922/922/922 

