# This file is brought to you by Roblox Corporation
# Generated by Roblox Studio

mtllib Knife.mtl

g Meshpart1

v -359.886 5.89923 -0.141178 
v -359.879 5.72536 -0.129118 
v -359.962 5.72536 -0.101528 
v -359.962 5.89923 -0.116002 
v -360.039 5.89923 -0.141178 
v -360.046 5.72536 -0.129118 
v -360.043 4.6006 -0.133441 
v -360.049 4.69252 -0.123803 
v -359.962 4.69252 -0.0951479 
v -359.962 4.6006 -0.106716 
v -359.881 4.6006 -0.133441 
v -359.876 4.69252 -0.123803 
v -359.879 5.70233 -0.129218 
v -359.886 5.71364 -0.140394 
v -360.046 5.70233 -0.129218 
v -360.039 5.71364 -0.140394 
v -359.879 5.70233 -0.129218 
v -359.875 5.53508 -0.122183 
v -359.962 5.53508 -0.0932027 
v -359.962 5.70233 -0.101647 
v -360.046 5.70233 -0.129218 
v -360.05 5.53508 -0.122183 
v -359.888 4.71473 -0.143972 
v -359.881 4.90003 -0.132695 
v -359.962 4.90003 -0.10582 
v -359.962 4.71473 -0.119357 
v -360.037 4.71473 -0.143972 
v -360.044 4.90003 -0.132695 
v -360.044 5.52286 -0.131627 
v -360.051 5.51198 -0.121239 
v -359.874 5.51198 -0.121239 
v -359.88 5.52286 -0.131627 
v -360.051 5.51198 -0.121239 
v -360.052 5.3314 -0.119515 
v -359.962 5.3314 -0.0900002 
v -359.962 5.51198 -0.0920694 
v -359.874 5.51198 -0.121239 
v -359.873 5.3314 -0.119515 
v -359.874 5.09252 -0.120661 
v -359.88 4.92252 -0.131199 
v -359.962 5.09252 -0.091375 
v -359.962 4.92252 -0.104025 
v -360.045 4.92252 -0.131199 
v -360.051 5.09252 -0.120661 
v -360.045 5.31331 -0.130794 
v -360.052 5.30058 -0.119515 
v -359.873 5.30058 -0.119515 
v -359.88 5.31331 -0.130794 
v -360.051 5.11766 -0.119889 
v -360.045 5.10377 -0.130856 
v -359.962 5.11766 -0.0904481 
v -359.962 5.10377 -0.103612 
v -359.88 5.10377 -0.130856 
v -359.873 5.11766 -0.119889 
v -360.051 5.11766 -0.119889 
v -360.052 5.30058 -0.119515 
v -359.962 5.30058 -0.0900002 
v -359.962 5.11766 -0.0904481 
v -359.873 5.11766 -0.119889 
v -359.873 5.30058 -0.119515 
v -359.88 5.10377 -0.130856 
v -359.874 5.09252 -0.120661 
v -360.051 5.09252 -0.120661 
v -360.045 5.10377 -0.130856 
v -360.045 5.31331 -0.130794 
v -360.052 5.3314 -0.119515 
v -359.962 5.3314 -0.0900002 
v -359.962 5.31331 -0.10354 
v -359.88 5.31331 -0.130794 
v -359.873 5.3314 -0.119515 
v -359.88 5.52286 -0.131627 
v -359.962 5.53508 -0.0932027 
v -359.962 5.52286 -0.10454 
v -360.044 5.52286 -0.131627 
v -359.875 5.53508 -0.122183 
v -360.05 5.53508 -0.122183 
v -359.886 5.89923 -0.141178 
v -360.039 5.89923 -0.141178 
v -360.046 5.72536 -0.404573 
v -360.043 4.6006 -0.40025 
v -360.049 4.69252 -0.123803 
v -359.881 4.6006 -0.133441 
v -359.876 4.69252 -0.409888 
v -359.962 5.71364 -0.115062 
v -359.879 5.70233 -0.129218 
v -359.886 5.71364 -0.140394 
v -359.962 5.70233 -0.101647 
v -360.046 5.70233 -0.129218 
v -360.039 5.71364 -0.140394 
v -359.886 5.71364 -0.393298 
v -359.879 5.70233 -0.404473 
v -359.962 5.71364 -0.41863 
v -360.039 5.71364 -0.393298 
v -359.962 5.70233 -0.432045 
v -360.046 5.70233 -0.404473 
v -360.044 5.52286 -0.402064 
v -360.044 5.52286 -0.131627 
v -360.051 5.51198 -0.412452 
v -360.051 5.51198 -0.121239 
v -359.962 5.52286 -0.429151 
v -359.962 5.52286 -0.10454 
v -359.962 5.51198 -0.441622 
v -359.962 5.51198 -0.0920694 
v -359.874 5.51198 -0.412452 
v -359.874 5.51198 -0.121239 
v -359.88 5.52286 -0.402064 
v -359.88 5.52286 -0.131627 
v -360.045 5.31331 -0.130794 
v -360.052 5.30058 -0.119515 
v -359.962 5.31331 -0.10354 
v -360.045 5.31331 -0.402897 
v -359.962 5.30058 -0.0900002 
v -360.052 5.30058 -0.414176 
v -359.873 5.30058 -0.119515 
v -359.962 5.31331 -0.430152 
v -359.88 5.31331 -0.130794 
v -359.962 5.30058 -0.443691 
v -359.873 5.30058 -0.414176 
v -359.88 5.31331 -0.402897 
v -359.88 5.10377 -0.130856 
v -359.88 5.10377 -0.402836 
v -359.874 5.09252 -0.120661 
v -359.874 5.09252 -0.413031 
v -359.962 5.10377 -0.103612 
v -359.962 5.10377 -0.430079 
v -359.962 5.09252 -0.091375 
v -359.962 5.09252 -0.442316 
v -360.051 5.09252 -0.120661 
v -360.051 5.09252 -0.413031 
v -360.045 5.10377 -0.130856 
v -360.045 5.10377 -0.402836 
v -360.045 5.31331 -0.130794 
v -359.873 5.3314 -0.414176 
v -359.873 5.3314 -0.119515 
v -360.044 4.90003 -0.400997 
v -359.962 4.91076 -0.414892 
v -359.962 4.90003 -0.427871 
v -359.881 4.90003 -0.400997 
v -360.037 4.91076 -0.390184 
v -359.888 4.91076 -0.390184 
v -360.037 4.91076 -0.143507 
v -359.888 4.91076 -0.143507 
v -360.044 4.90003 -0.132695 
v -359.881 4.90003 -0.132695 
v -359.962 4.91076 -0.118799 
v -359.962 4.90003 -0.10582 
v -360.037 4.71473 -0.38972 
v -360.049 4.69252 -0.409888 
v -359.962 4.71473 -0.414335 
v -360.037 4.71473 -0.143972 
v -359.962 4.69252 -0.438543 
v -360.049 4.69252 -0.123803 
v -359.876 4.69252 -0.409888 
v -359.962 4.71473 -0.119357 
v -359.888 4.71473 -0.38972 
v -359.962 4.69252 -0.0951479 
v -359.876 4.69252 -0.123803 
v -359.888 4.71473 -0.143972 
v -360.039 5.89923 -0.392513 
v -360.039 5.89923 -0.141178 
v -360.046 5.72536 -0.404573 
v -360.046 5.72536 -0.129118 
v -360.08 5.72536 -0.266846 
v -360.07 5.89923 -0.266846 
v -360.043 4.6006 -0.40025 
v -360.026 4.57465 -0.372519 
v -359.898 4.57465 -0.161172 
v -360.077 4.6006 -0.266846 
v -359.881 4.6006 -0.133441 
v -360.053 4.57465 -0.266846 
v -360.026 4.57465 -0.161172 
v -360.043 4.6006 -0.133441 
v -360.043 4.6006 -0.133441 
v -360.085 4.69252 -0.266846 
v -360.077 4.6006 -0.266846 
v -360.043 4.6006 -0.40025 
v -360.049 4.69252 -0.123803 
v -360.049 4.69252 -0.409888 
v -359.879 5.70233 -0.129218 
v -359.886 5.71364 -0.140394 
v -360.046 5.70233 -0.129218 
v -360.039 5.71364 -0.140394 
v -360.08 5.70233 -0.266846 
v -360.071 5.71364 -0.266846 
v -360.039 5.71364 -0.393298 
v -360.046 5.70233 -0.404473 
v -359.879 5.70233 -0.129218 
v -359.875 5.53508 -0.122183 
v -360.046 5.70233 -0.404473 
v -360.046 5.70233 -0.129218 
v -360.05 5.53508 -0.411508 
v -360.05 5.53508 -0.122183 
v -360.086 5.53508 -0.266846 
v -360.08 5.70233 -0.266846 
v -359.888 4.71473 -0.38972 
v -360.037 4.71473 -0.143972 
v -359.881 4.90003 -0.400997 
v -360.044 4.90003 -0.132695 
v -360.077 4.90003 -0.266846 
v -360.068 4.71473 -0.266846 
v -360.037 4.71473 -0.38972 
v -360.044 4.90003 -0.400997 
v -360.078 5.52286 -0.266846 
v -360.044 5.52286 -0.402064 
v -360.087 5.51198 -0.266846 
v -360.044 5.52286 -0.131627 
v -360.051 5.51198 -0.412452 
v -360.051 5.51198 -0.121239 
v -359.874 5.51198 -0.121239 
v -359.88 5.52286 -0.131627 
v -360.045 4.92252 -0.402492 
v -359.88 4.92252 -0.402492 
v -360.037 4.91076 -0.390184 
v -359.888 4.91076 -0.390184 
v -360.079 4.92252 -0.266846 
v -360.068 4.91076 -0.266846 
v -360.037 4.91076 -0.143507 
v -360.045 4.92252 -0.131199 
v -360.089 5.3314 -0.266846 
v -360.051 5.51198 -0.121239 
v -360.087 5.51198 -0.266846 
v -360.051 5.51198 -0.412452 
v -360.052 5.3314 -0.119515 
v -360.052 5.3314 -0.414176 
v -359.874 5.51198 -0.121239 
v -359.873 5.3314 -0.119515 
v -359.873 5.3314 -0.414176 
v -359.874 5.09252 -0.120661 
v -360.045 4.92252 -0.131199 
v -360.051 5.09252 -0.120661 
v -360.088 5.09252 -0.266846 
v -360.079 4.92252 -0.266846 
v -360.045 4.92252 -0.402492 
v -360.051 5.09252 -0.413031 
v -360.045 5.31331 -0.130794 
v -360.089 5.30058 -0.266846 
v -360.052 5.30058 -0.119515 
v -360.079 5.31331 -0.266846 
v -360.045 5.31331 -0.402897 
v -360.052 5.30058 -0.414176 
v -359.873 5.30058 -0.414176 
v -359.88 5.31331 -0.402897 
v -360.051 5.11766 -0.119889 
v -360.088 5.11766 -0.266846 
v -360.045 5.10377 -0.130856 
v -360.079 5.10377 -0.266846 
v -360.045 5.10377 -0.402836 
v -359.88 5.10377 -0.130856 
v -360.051 5.11766 -0.413803 
v -359.873 5.11766 -0.119889 
v -360.051 5.11766 -0.413803 
v -360.089 5.30058 -0.266846 
v -360.052 5.30058 -0.414176 
v -360.088 5.11766 -0.266846 
v -360.051 5.11766 -0.119889 
v -360.052 5.30058 -0.119515 
v -359.873 5.30058 -0.414176 
v -359.873 5.11766 -0.119889 
v -359.873 5.30058 -0.119515 
v -359.88 5.10377 -0.130856 
v -359.874 5.09252 -0.120661 
v -360.051 5.09252 -0.120661 
v -360.051 5.09252 -0.413031 
v -360.045 5.10377 -0.130856 
v -360.045 5.10377 -0.402836 
v -360.088 5.09252 -0.266846 
v -360.079 5.10377 -0.266846 
v -360.089 5.3314 -0.266846 
v -360.045 5.31331 -0.402897 
v -360.079 5.31331 -0.266846 
v -360.045 5.31331 -0.130794 
v -360.052 5.3314 -0.414176 
v -360.052 5.3314 -0.119515 
v -359.88 5.31331 -0.402897 
v -359.873 5.3314 -0.414176 
v -360.044 4.90003 -0.400997 
v -359.881 4.90003 -0.400997 
v -360.037 4.91076 -0.390184 
v -359.888 4.91076 -0.390184 
v -360.077 4.90003 -0.266846 
v -360.068 4.91076 -0.266846 
v -360.037 4.91076 -0.143507 
v -360.044 4.90003 -0.132695 
v -359.88 5.52286 -0.131627 
v -360.044 5.52286 -0.131627 
v -359.875 5.53508 -0.122183 
v -360.05 5.53508 -0.122183 
v -360.086 5.53508 -0.266846 
v -360.078 5.52286 -0.266846 
v -360.044 5.52286 -0.402064 
v -360.05 5.53508 -0.411508 
v -360.085 4.69252 -0.266846 
v -360.037 4.71473 -0.38972 
v -360.049 4.69252 -0.409888 
v -360.068 4.71473 -0.266846 
v -360.037 4.71473 -0.143972 
v -360.049 4.69252 -0.123803 
v -359.876 4.69252 -0.409888 
v -359.888 4.71473 -0.38972 
v -360.046 5.72536 -0.129118 
v -360.039 5.71364 -0.140394 
v -360.08 5.72536 -0.266846 
v -360.071 5.71364 -0.266846 
v -360.039 5.71364 -0.393298 
v -360.046 5.72536 -0.404573 
v -359.886 5.89923 -0.392513 
v -359.879 5.72536 -0.404573 
v -359.962 5.72536 -0.432164 
v -359.962 5.89923 -0.417689 
v -360.039 5.89923 -0.392513 
v -360.046 5.72536 -0.404573 
v -360.043 4.6006 -0.40025 
v -360.049 4.69252 -0.409888 
v -359.962 4.69252 -0.438543 
v -359.962 4.6006 -0.426975 
v -359.881 4.6006 -0.40025 
v -359.876 4.69252 -0.409888 
v -359.886 5.71364 -0.393298 
v -359.879 5.70233 -0.404473 
v -360.039 5.71364 -0.393298 
v -360.046 5.70233 -0.404473 
v -359.879 5.70233 -0.404473 
v -359.875 5.53508 -0.411508 
v -359.962 5.53508 -0.440489 
v -359.962 5.70233 -0.432045 
v -360.046 5.70233 -0.404473 
v -360.05 5.53508 -0.411508 
v -359.888 4.71473 -0.38972 
v -359.881 4.90003 -0.400997 
v -359.962 4.90003 -0.427871 
v -359.962 4.71473 -0.414335 
v -360.037 4.71473 -0.38972 
v -360.044 4.90003 -0.400997 
v -360.044 5.52286 -0.402064 
v -360.051 5.51198 -0.412452 
v -359.874 5.51198 -0.412452 
v -359.88 5.52286 -0.402064 
v -360.051 5.51198 -0.412452 
v -360.052 5.3314 -0.414176 
v -359.962 5.3314 -0.443691 
v -359.962 5.51198 -0.441622 
v -359.874 5.51198 -0.412452 
v -359.873 5.3314 -0.414176 
v -359.88 4.92252 -0.402492 
v -359.874 5.09252 -0.413031 
v -359.962 5.09252 -0.442316 
v -359.962 4.92252 -0.429666 
v -360.045 4.92252 -0.402492 
v -360.051 5.09252 -0.413031 
v -360.045 5.31331 -0.402897 
v -360.052 5.30058 -0.414176 
v -359.873 5.30058 -0.414176 
v -359.88 5.31331 -0.402897 
v -360.045 5.10377 -0.402836 
v -360.051 5.11766 -0.413803 
v -359.962 5.11766 -0.443243 
v -359.962 5.10377 -0.430079 
v -359.88 5.10377 -0.402836 
v -359.873 5.11766 -0.413803 
v -360.051 5.11766 -0.413803 
v -360.052 5.30058 -0.414176 
v -359.962 5.30058 -0.443691 
v -359.962 5.11766 -0.443243 
v -359.873 5.11766 -0.413803 
v -359.873 5.30058 -0.414176 
v -359.88 5.10377 -0.402836 
v -359.874 5.09252 -0.413031 
v -360.051 5.09252 -0.413031 
v -360.045 5.10377 -0.402836 
v -360.045 5.31331 -0.402897 
v -360.052 5.3314 -0.414176 
v -359.962 5.3314 -0.443691 
v -359.962 5.31331 -0.430152 
v -359.88 5.31331 -0.402897 
v -359.873 5.3314 -0.414176 
v -359.88 5.52286 -0.402064 
v -360.044 5.52286 -0.402064 
v -359.875 5.53508 -0.411508 
v -360.05 5.53508 -0.411508 
v -359.962 5.53508 -0.440489 
v -359.962 5.52286 -0.429151 
v -359.962 4.57465 -0.393689 
v -359.872 4.57465 -0.266846 
v -360.053 4.57465 -0.266846 
v -359.898 4.57465 -0.372519 
v -360.026 4.57465 -0.372519 
v -359.962 4.57465 -0.140002 
v -360.026 4.57465 -0.161172 
v -359.898 4.57465 -0.161172 
v -359.962 4.57465 -0.393689 
v -359.881 4.6006 -0.40025 
v -359.898 4.57465 -0.372519 
v -359.962 4.6006 -0.426975 
v -360.043 4.6006 -0.40025 
v -360.026 4.57465 -0.372519 
v -359.898 4.57465 -0.161172 
v -359.881 4.6006 -0.133441 
v -359.962 4.57465 -0.140002 
v -360.026 4.57465 -0.161172 
v -359.962 4.6006 -0.106716 
v -360.043 4.6006 -0.133441 
v -360.043 4.6006 -0.40025 
v -360.049 4.69252 -0.123803 
v -359.881 4.6006 -0.133441 
v -359.876 4.69252 -0.409888 
v -359.962 4.91076 -0.414892 
v -360.045 4.92252 -0.402492 
v -359.962 4.92252 -0.429666 
v -359.88 4.92252 -0.402492 
v -360.037 4.91076 -0.390184 
v -359.888 4.91076 -0.390184 
v -360.037 4.91076 -0.143507 
v -359.888 4.91076 -0.143507 
v -360.045 4.92252 -0.131199 
v -359.88 4.92252 -0.131199 
v -359.962 4.91076 -0.118799 
v -359.962 4.92252 -0.104025 
v -359.874 5.09252 -0.120661 
v -359.88 4.92252 -0.402492 
v -360.045 4.92252 -0.131199 
v -360.051 5.09252 -0.413031 
v -360.045 5.31331 -0.130794 
v -359.873 5.30058 -0.119515 
v -359.873 5.30058 -0.414176 
v -360.045 5.31331 -0.130794 
v -360.052 5.3314 -0.119515 
v -359.88 5.31331 -0.402897 
v -359.873 5.3314 -0.414176 
v -359.873 5.3314 -0.119515 
v -359.879 5.72536 -0.129118 
v -359.962 5.71364 -0.115062 
v -359.886 5.71364 -0.140394 
v -359.962 5.72536 -0.101528 
v -360.046 5.72536 -0.129118 
v -360.039 5.71364 -0.140394 
v -359.886 5.71364 -0.393298 
v -359.879 5.72536 -0.404573 
v -359.962 5.71364 -0.41863 
v -360.039 5.71364 -0.393298 
v -359.962 5.72536 -0.432164 
v -360.046 5.72536 -0.404573 
v -359.886 5.89923 -0.392513 
v -359.855 5.89923 -0.266846 
v -359.844 5.72536 -0.266846 
v -359.886 5.89923 -0.141178 
v -359.879 5.72536 -0.404573 
v -359.879 5.72536 -0.129118 
v -360.046 5.72536 -0.404573 
v -360.046 5.72536 -0.129118 
v -359.881 4.6006 -0.40025 
v -359.898 4.57465 -0.372519 
v -359.848 4.6006 -0.266846 
v -360.043 4.6006 -0.40025 
v -359.872 4.57465 -0.266846 
v -360.026 4.57465 -0.372519 
v -359.898 4.57465 -0.161172 
v -359.881 4.6006 -0.133441 
v -359.881 4.6006 -0.133441 
v -359.881 4.6006 -0.40025 
v -359.876 4.69252 -0.123803 
v -359.876 4.69252 -0.409888 
v -359.84 4.69252 -0.266846 
v -359.848 4.6006 -0.266846 
v -359.879 5.70233 -0.129218 
v -359.886 5.71364 -0.140394 
v -359.844 5.70233 -0.266846 
v -359.854 5.71364 -0.266846 
v -359.886 5.71364 -0.393298 
v -359.879 5.70233 -0.404473 
v -360.046 5.70233 -0.404473 
v -359.879 5.70233 -0.404473 
v -359.844 5.70233 -0.266846 
v -359.838 5.53508 -0.266846 
v -359.879 5.70233 -0.129218 
v -359.875 5.53508 -0.411508 
v -359.875 5.53508 -0.122183 
v -360.046 5.70233 -0.404473 
v -360.05 5.53508 -0.411508 
v -359.888 4.71473 -0.143972 
v -359.847 4.90003 -0.266846 
v -359.881 4.90003 -0.132695 
v -359.857 4.71473 -0.266846 
v -359.888 4.71473 -0.38972 
v -360.037 4.71473 -0.143972 
v -359.881 4.90003 -0.400997 
v -360.044 4.90003 -0.132695 
v -360.044 5.52286 -0.402064 
v -360.051 5.51198 -0.412452 
v -359.874 5.51198 -0.412452 
v -359.874 5.51198 -0.121239 
v -359.88 5.52286 -0.402064 
v -359.88 5.52286 -0.131627 
v -359.837 5.51198 -0.266846 
v -359.846 5.52286 -0.266846 
v -359.88 4.92252 -0.402492 
v -359.888 4.91076 -0.390184 
v -359.846 4.92252 -0.266846 
v -359.857 4.91076 -0.266846 
v -359.888 4.91076 -0.143507 
v -360.045 4.92252 -0.131199 
v -359.88 4.92252 -0.131199 
v -360.051 5.51198 -0.412452 
v -359.874 5.51198 -0.121239 
v -359.874 5.51198 -0.412452 
v -359.873 5.3314 -0.119515 
v -359.873 5.3314 -0.414176 
v -359.836 5.3314 -0.266846 
v -359.837 5.51198 -0.266846 
v -359.874 5.09252 -0.120661 
v -359.88 4.92252 -0.131199 
v -359.837 5.09252 -0.266846 
v -359.846 4.92252 -0.266846 
v -359.88 4.92252 -0.402492 
v -359.874 5.09252 -0.413031 
v -360.051 5.09252 -0.413031 
v -359.873 5.30058 -0.119515 
v -359.88 5.31331 -0.130794 
v -359.836 5.30058 -0.266846 
v -359.873 5.30058 -0.414176 
v -359.846 5.31331 -0.266846 
v -359.88 5.31331 -0.402897 
v -360.045 5.10377 -0.402836 
v -359.88 5.10377 -0.130856 
v -360.051 5.11766 -0.413803 
v -359.873 5.11766 -0.119889 
v -359.836 5.11766 -0.266846 
v -359.846 5.10377 -0.266846 
v -359.88 5.10377 -0.402836 
v -359.873 5.11766 -0.413803 
v -360.051 5.11766 -0.413803 
v -359.873 5.11766 -0.413803 
v -359.873 5.30058 -0.414176 
v -359.836 5.30058 -0.266846 
v -359.836 5.11766 -0.266846 
v -359.873 5.11766 -0.119889 
v -359.873 5.30058 -0.119515 
v -359.88 5.10377 -0.130856 
v -359.837 5.09252 -0.266846 
v -359.846 5.10377 -0.266846 
v -359.88 5.10377 -0.402836 
v -359.874 5.09252 -0.120661 
v -359.874 5.09252 -0.413031 
v -360.051 5.09252 -0.413031 
v -360.045 5.10377 -0.402836 
v -360.045 5.31331 -0.130794 
v -360.052 5.3314 -0.119515 
v -359.88 5.31331 -0.402897 
v -359.88 5.31331 -0.130794 
v -359.873 5.3314 -0.414176 
v -359.873 5.3314 -0.119515 
v -359.836 5.3314 -0.266846 
v -359.846 5.31331 -0.266846 
v -359.881 4.90003 -0.400997 
v -359.888 4.91076 -0.390184 
v -359.847 4.90003 -0.266846 
v -359.857 4.91076 -0.266846 
v -359.888 4.91076 -0.143507 
v -360.044 4.90003 -0.132695 
v -359.881 4.90003 -0.132695 
v -359.88 5.52286 -0.131627 
v -359.875 5.53508 -0.122183 
v -359.838 5.53508 -0.266846 
v -359.846 5.52286 -0.266846 
v -359.88 5.52286 -0.402064 
v -360.044 5.52286 -0.402064 
v -359.875 5.53508 -0.411508 
v -360.05 5.53508 -0.411508 
v -360.037 4.71473 -0.143972 
v -360.049 4.69252 -0.123803 
v -359.876 4.69252 -0.409888 
v -359.888 4.71473 -0.38972 
v -359.84 4.69252 -0.266846 
v -359.876 4.69252 -0.123803 
v -359.857 4.71473 -0.266846 
v -359.888 4.71473 -0.143972 
v -359.879 5.72536 -0.129118 
v -359.886 5.71364 -0.140394 
v -359.844 5.72536 -0.266846 
v -359.854 5.71364 -0.266846 
v -359.886 5.71364 -0.393298 
v -359.879 5.72536 -0.404573 

vn 0.732283 0.0787402 0.677165 
vn 0.724409 0.0787402 0.685039 
vn 0 0.0787402 1 
vn 0 0.0787402 1 
vn -0.732283 0.0787402 0.677165 
vn -0.724409 0.0787402 0.685039 
vn -0.732283 -0.11811 0.669291 
vn -0.724409 -0.11811 0.685039 
vn 0 -0.125984 0.992126 
vn 0 -0.125984 0.992126 
vn 0.732283 -0.11811 0.669291 
vn 0.724409 -0.11811 0.685039 
vn 0.464567 0.748031 0.472441 
vn 0.543307 0.732283 0.417323 
vn -0.464567 0.748031 0.472441 
vn -0.543307 0.732283 0.417323 
vn 0.732283 0.0472441 0.677165 
vn 0.732283 0.0472441 0.685039 
vn 0 0.0472441 1 
vn 0 0.0472441 1 
vn -0.732283 0.0472441 0.677165 
vn -0.732283 0.0472441 0.685039 
vn 0.732283 -0.0708661 0.677165 
vn 0.724409 -0.0708661 0.685039 
vn 0 -0.0708661 1 
vn 0 -0.0708661 1 
vn -0.732283 -0.0708661 0.677165 
vn -0.724409 -0.0708661 0.685039 
vn -0.551181 0.724409 0.425197 
vn -0.472441 0.732283 0.480315 
vn 0.472441 0.732283 0.480315 
vn 0.551181 0.724409 0.425197 
vn -0.732283 0.00787402 0.677165 
vn -0.732283 0.00787402 0.685039 
vn 0 0.00787402 1 
vn 0 0.00787402 1 
vn 0.732283 0.00787402 0.677165 
vn 0.732283 0.00787402 0.685039 
vn 0.724409 -0.0708661 0.685039 
vn 0.732283 -0.0708661 0.677165 
vn 0 -0.0708661 1 
vn 0 -0.0708661 1 
vn -0.732283 -0.0708661 0.677165 
vn -0.724409 -0.0708661 0.685039 
vn -0.566929 0.692913 0.440945 
vn -0.496063 0.708661 0.503937 
vn 0.496063 0.708661 0.503937 
vn 0.566929 0.692913 0.440945 
vn -0.519685 -0.669291 0.527559 
vn -0.590551 -0.653543 0.464567 
vn 0 -0.685039 0.724409 
vn 0 -0.685039 0.724409 
vn 0.590551 -0.653543 0.464567 
vn 0.519685 -0.669291 0.527559 
vn -0.732283 0 0.677165 
vn -0.732283 0 0.677165 
vn 0 0 1 
vn 0 0 1 
vn 0.732283 0 0.677165 
vn 0.732283 0 0.677165 
vn 0.559055 0.700787 0.433071 
vn 0.488189 0.716535 0.496063 
vn -0.488189 0.716535 0.496063 
vn -0.559055 0.700787 0.433071 
vn -0.637795 -0.566929 0.519685 
vn -0.574803 -0.574803 0.582677 
vn 0 -0.598425 0.80315 
vn 0 -0.598425 0.80315 
vn 0.637795 -0.566929 0.519685 
vn 0.574803 -0.574803 0.582677 
vn 0.598425 -0.645669 0.472441 
vn 0 -0.677165 0.732283 
vn 0 -0.677165 0.732283 
vn -0.598425 -0.645669 0.472441 
vn 0.527559 -0.661417 0.535433 
vn -0.527559 -0.661417 0.535433 
vn 0.732283 0.0787402 0.677165 
vn -0.732283 0.0787402 0.677165 
vn -0.724409 0.0787402 -0.685039 
vn -0.732283 -0.11811 -0.669291 
vn -0.724409 -0.11811 0.685039 
vn 0.732283 -0.11811 0.669291 
vn 0.724409 -0.11811 -0.685039 
vn 0 0.76378 0.645669 
vn 0.464567 0.748031 0.472441 
vn 0.543307 0.732283 0.417323 
vn 0 0.76378 0.645669 
vn -0.464567 0.748031 0.472441 
vn -0.543307 0.732283 0.417323 
vn 0.543307 0.732283 -0.417323 
vn 0.464567 0.748031 -0.472441 
vn 0 0.76378 -0.645669 
vn -0.543307 0.732283 -0.417323 
vn 0 0.76378 -0.645669 
vn -0.464567 0.748031 -0.472441 
vn -0.551181 0.724409 -0.425197 
vn -0.551181 0.724409 0.425197 
vn -0.472441 0.732283 -0.480315 
vn -0.472441 0.732283 0.480315 
vn 0 0.755906 -0.661417 
vn 0 0.755906 0.661417 
vn 0 0.755906 -0.661417 
vn 0 0.755906 0.661417 
vn 0.472441 0.732283 -0.480315 
vn 0.472441 0.732283 0.480315 
vn 0.551181 0.724409 -0.425197 
vn 0.551181 0.724409 0.425197 
vn -0.566929 0.692913 0.440945 
vn -0.496063 0.708661 0.503937 
vn 0 0.724409 0.685039 
vn -0.566929 0.692913 -0.440945 
vn 0 0.724409 0.685039 
vn -0.496063 0.708661 -0.503937 
vn 0.496063 0.708661 0.503937 
vn 0 0.724409 -0.685039 
vn 0.566929 0.692913 0.440945 
vn 0 0.724409 -0.685039 
vn 0.496063 0.708661 -0.503937 
vn 0.566929 0.692913 -0.440945 
vn 0.559055 0.700787 0.433071 
vn 0.559055 0.700787 -0.433071 
vn 0.488189 0.716535 0.496063 
vn 0.488189 0.716535 -0.496063 
vn 0 0.740157 0.677165 
vn 0 0.740157 -0.677165 
vn 0 0.740157 0.677165 
vn 0 0.740157 -0.677165 
vn -0.488189 0.716535 0.496063 
vn -0.488189 0.716535 -0.496063 
vn -0.559055 0.700787 0.433071 
vn -0.559055 0.700787 -0.433071 
vn -0.637795 -0.566929 0.519685 
vn 0.574803 -0.574803 -0.582677 
vn 0.574803 -0.574803 0.582677 
vn -0.456693 0.755906 -0.472441 
vn 0 0.771654 -0.637795 
vn 0 0.771654 -0.637795 
vn 0.456693 0.755906 -0.472441 
vn -0.535433 0.740157 -0.409449 
vn 0.535433 0.740157 -0.409449 
vn -0.535433 0.740157 0.409449 
vn 0.535433 0.740157 0.409449 
vn -0.456693 0.755906 0.472441 
vn 0.456693 0.755906 0.472441 
vn 0 0.771654 0.637795 
vn 0 0.771654 0.637795 
vn -0.559055 0.700787 -0.433071 
vn -0.488189 0.716535 -0.496063 
vn 0 0.740157 -0.677165 
vn -0.559055 0.700787 0.433071 
vn 0 0.740157 -0.677165 
vn -0.488189 0.716535 0.496063 
vn 0.488189 0.716535 -0.496063 
vn 0 0.740157 0.677165 
vn 0.559055 0.700787 -0.433071 
vn 0 0.740157 0.677165 
vn 0.488189 0.716535 0.496063 
vn 0.559055 0.700787 0.433071 
vn -0.732283 0.0787402 -0.677165 
vn -0.732283 0.0787402 0.677165 
vn -0.724409 0.0787402 -0.685039 
vn -0.724409 0.0787402 0.685039 
vn -1 0.0629921 0 
vn -1 0.0629921 0 
vn -0.440945 -0.771654 -0.456693 
vn -0.519685 -0.755906 -0.393701 
vn 0.519685 -0.755906 0.393701 
vn -0.740157 -0.677165 0 
vn 0.440945 -0.771654 0.456693 
vn -0.740157 -0.677165 0 
vn -0.519685 -0.755906 0.393701 
vn -0.440945 -0.771654 0.456693 
vn -0.732283 -0.11811 0.669291 
vn -0.992126 -0.0866142 0 
vn -0.992126 -0.0866142 0 
vn -0.732283 -0.11811 -0.669291 
vn -0.724409 -0.11811 0.685039 
vn -0.724409 -0.11811 -0.685039 
vn 0.464567 0.748031 0.472441 
vn 0.543307 0.732283 0.417323 
vn -0.464567 0.748031 0.472441 
vn -0.543307 0.732283 0.417323 
vn -0.76378 0.645669 0 
vn -0.76378 0.645669 0 
vn -0.543307 0.732283 -0.417323 
vn -0.464567 0.748031 -0.472441 
vn 0.732283 0.0472441 0.677165 
vn 0.732283 0.0472441 0.685039 
vn -0.732283 0.0472441 -0.677165 
vn -0.732283 0.0472441 0.677165 
vn -0.732283 0.0472441 -0.685039 
vn -0.732283 0.0472441 0.685039 
vn -1 0.0393701 0 
vn -1 0.0393701 0 
vn 0.732283 -0.0708661 -0.677165 
vn -0.732283 -0.0708661 0.677165 
vn 0.724409 -0.0708661 -0.685039 
vn -0.724409 -0.0708661 0.685039 
vn -1 -0.0551181 0 
vn -1 -0.0551181 0 
vn -0.732283 -0.0708661 -0.677165 
vn -0.724409 -0.0708661 -0.685039 
vn -0.771654 0.629921 0 
vn -0.551181 0.724409 -0.425197 
vn -0.771654 0.629921 0 
vn -0.551181 0.724409 0.425197 
vn -0.472441 0.732283 -0.480315 
vn -0.472441 0.732283 0.480315 
vn 0.472441 0.732283 0.480315 
vn 0.551181 0.724409 0.425197 
vn -0.448819 -0.76378 -0.456693 
vn 0.448819 -0.76378 -0.456693 
vn -0.527559 -0.748031 -0.401575 
vn 0.527559 -0.748031 -0.401575 
vn -0.748031 -0.669291 0 
vn -0.748031 -0.669291 0 
vn -0.527559 -0.748031 0.401575 
vn -0.448819 -0.76378 0.456693 
vn -1 0.00787402 0 
vn -0.732283 0.00787402 0.677165 
vn -1 0.00787402 0 
vn -0.732283 0.00787402 -0.677165 
vn -0.732283 0.00787402 0.685039 
vn -0.732283 0.00787402 -0.685039 
vn 0.732283 0.00787402 0.677165 
vn 0.732283 0.00787402 0.685039 
vn 0.732283 0.00787402 -0.685039 
vn 0.724409 -0.0708661 0.685039 
vn -0.732283 -0.0708661 0.677165 
vn -0.724409 -0.0708661 0.685039 
vn -1 -0.0551181 0 
vn -1 -0.0551181 0 
vn -0.732283 -0.0708661 -0.677165 
vn -0.724409 -0.0708661 -0.685039 
vn -0.566929 0.692913 0.440945 
vn -0.795276 0.606299 0 
vn -0.496063 0.708661 0.503937 
vn -0.795276 0.606299 0 
vn -0.566929 0.692913 -0.440945 
vn -0.496063 0.708661 -0.503937 
vn 0.496063 0.708661 -0.503937 
vn 0.566929 0.692913 -0.440945 
vn -0.519685 -0.669291 0.527559 
vn -0.826772 -0.559055 0 
vn -0.590551 -0.653543 0.464567 
vn -0.826772 -0.559055 0 
vn -0.590551 -0.653543 -0.464567 
vn 0.590551 -0.653543 0.464567 
vn -0.519685 -0.669291 -0.527559 
vn 0.519685 -0.669291 0.527559 
vn -0.732283 0 -0.677165 
vn -1 0 0 
vn -0.732283 0 -0.677165 
vn -1 0 0 
vn -0.732283 0 0.677165 
vn -0.732283 0 0.677165 
vn 0.732283 0 -0.677165 
vn 0.732283 0 0.677165 
vn 0.732283 0 0.677165 
vn 0.559055 0.700787 0.433071 
vn 0.488189 0.716535 0.496063 
vn -0.488189 0.716535 0.496063 
vn -0.488189 0.716535 -0.496063 
vn -0.559055 0.700787 0.433071 
vn -0.559055 0.700787 -0.433071 
vn -0.787402 0.614173 0 
vn -0.787402 0.614173 0 
vn -0.88189 -0.472441 0 
vn -0.637795 -0.566929 -0.519685 
vn -0.88189 -0.472441 0 
vn -0.637795 -0.566929 0.519685 
vn -0.574803 -0.574803 -0.582677 
vn -0.574803 -0.574803 0.582677 
vn 0.637795 -0.566929 -0.519685 
vn 0.574803 -0.574803 -0.582677 
vn -0.456693 0.755906 -0.472441 
vn 0.456693 0.755906 -0.472441 
vn -0.535433 0.740157 -0.409449 
vn 0.535433 0.740157 -0.409449 
vn -0.755906 0.653543 0 
vn -0.755906 0.653543 0 
vn -0.535433 0.740157 0.409449 
vn -0.456693 0.755906 0.472441 
vn 0.598425 -0.645669 0.472441 
vn -0.598425 -0.645669 0.472441 
vn 0.527559 -0.661417 0.535433 
vn -0.527559 -0.661417 0.535433 
vn -0.834646 -0.551181 0 
vn -0.834646 -0.551181 0 
vn -0.598425 -0.645669 -0.472441 
vn -0.527559 -0.661417 -0.535433 
vn -0.787402 0.614173 0 
vn -0.559055 0.700787 -0.433071 
vn -0.488189 0.716535 -0.496063 
vn -0.787402 0.614173 0 
vn -0.559055 0.700787 0.433071 
vn -0.488189 0.716535 0.496063 
vn 0.488189 0.716535 -0.496063 
vn 0.559055 0.700787 -0.433071 
vn -0.472441 -0.740157 0.480315 
vn -0.551181 -0.724409 0.417323 
vn -0.771654 -0.637795 0 
vn -0.771654 -0.637795 0 
vn -0.551181 -0.724409 -0.417323 
vn -0.472441 -0.740157 -0.480315 
vn 0.732283 0.0787402 -0.677165 
vn 0.724409 0.0787402 -0.685039 
vn 0 0.0787402 -1 
vn 0 0.0787402 -1 
vn -0.732283 0.0787402 -0.677165 
vn -0.724409 0.0787402 -0.685039 
vn -0.732283 -0.11811 -0.669291 
vn -0.724409 -0.11811 -0.685039 
vn 0 -0.125984 -0.992126 
vn 0 -0.125984 -0.992126 
vn 0.732283 -0.11811 -0.669291 
vn 0.724409 -0.11811 -0.685039 
vn 0.543307 0.732283 -0.417323 
vn 0.464567 0.748031 -0.472441 
vn -0.543307 0.732283 -0.417323 
vn -0.464567 0.748031 -0.472441 
vn 0.732283 0.0472441 -0.677165 
vn 0.732283 0.0472441 -0.685039 
vn 0 0.0472441 -1 
vn 0 0.0472441 -1 
vn -0.732283 0.0472441 -0.677165 
vn -0.732283 0.0472441 -0.685039 
vn 0.732283 -0.0708661 -0.677165 
vn 0.724409 -0.0708661 -0.685039 
vn 0 -0.0708661 -1 
vn 0 -0.0708661 -1 
vn -0.732283 -0.0708661 -0.677165 
vn -0.724409 -0.0708661 -0.685039 
vn -0.551181 0.724409 -0.425197 
vn -0.472441 0.732283 -0.480315 
vn 0.472441 0.732283 -0.480315 
vn 0.551181 0.724409 -0.425197 
vn -0.732283 0.00787402 -0.677165 
vn -0.732283 0.00787402 -0.685039 
vn 0 0.00787402 -1 
vn 0 0.00787402 -1 
vn 0.732283 0.00787402 -0.677165 
vn 0.732283 0.00787402 -0.685039 
vn 0.732283 -0.0708661 -0.677165 
vn 0.724409 -0.0708661 -0.685039 
vn 0 -0.0708661 -1 
vn 0 -0.0708661 -1 
vn -0.732283 -0.0708661 -0.677165 
vn -0.724409 -0.0708661 -0.685039 
vn -0.566929 0.692913 -0.440945 
vn -0.496063 0.708661 -0.503937 
vn 0.496063 0.708661 -0.503937 
vn 0.566929 0.692913 -0.440945 
vn -0.590551 -0.653543 -0.464567 
vn -0.519685 -0.669291 -0.527559 
vn 0 -0.685039 -0.724409 
vn 0 -0.685039 -0.724409 
vn 0.590551 -0.653543 -0.464567 
vn 0.519685 -0.669291 -0.527559 
vn -0.732283 0 -0.677165 
vn -0.732283 0 -0.677165 
vn 0 0 -1 
vn 0 0 -1 
vn 0.732283 0 -0.677165 
vn 0.732283 0 -0.677165 
vn 0.559055 0.700787 -0.433071 
vn 0.488189 0.716535 -0.496063 
vn -0.488189 0.716535 -0.496063 
vn -0.559055 0.700787 -0.433071 
vn -0.637795 -0.566929 -0.519685 
vn -0.574803 -0.574803 -0.582677 
vn 0 -0.598425 -0.80315 
vn 0 -0.598425 -0.80315 
vn 0.637795 -0.566929 -0.519685 
vn 0.574803 -0.574803 -0.582677 
vn 0.598425 -0.645669 -0.472441 
vn -0.598425 -0.645669 -0.472441 
vn 0.527559 -0.661417 -0.535433 
vn -0.527559 -0.661417 -0.535433 
vn 0 -0.677165 -0.732283 
vn 0 -0.677165 -0.732283 
vn 0 -1 0 
vn 0 -1 0 
vn 0 -1 0 
vn 0 -1 0 
vn 0 -1 0 
vn 0 -1 0 
vn 0 -1 0 
vn 0 -1 0 
vn 0 -0.787402 -0.614173 
vn 0.440945 -0.771654 -0.456693 
vn 0.519685 -0.755906 -0.393701 
vn 0 -0.787402 -0.614173 
vn -0.440945 -0.771654 -0.456693 
vn -0.519685 -0.755906 -0.393701 
vn 0.519685 -0.755906 0.393701 
vn 0.440945 -0.771654 0.456693 
vn 0 -0.787402 0.614173 
vn -0.519685 -0.755906 0.393701 
vn 0 -0.787402 0.614173 
vn -0.440945 -0.771654 0.456693 
vn -0.732283 -0.11811 -0.669291 
vn -0.724409 -0.11811 0.685039 
vn 0.732283 -0.11811 0.669291 
vn 0.724409 -0.11811 -0.685039 
vn 0 -0.779528 -0.622047 
vn -0.448819 -0.76378 -0.456693 
vn 0 -0.779528 -0.622047 
vn 0.448819 -0.76378 -0.456693 
vn -0.527559 -0.748031 -0.401575 
vn 0.527559 -0.748031 -0.401575 
vn -0.527559 -0.748031 0.401575 
vn 0.527559 -0.748031 0.401575 
vn -0.448819 -0.76378 0.456693 
vn 0.448819 -0.76378 0.456693 
vn 0 -0.779528 0.622047 
vn 0 -0.779528 0.622047 
vn 0.724409 -0.0708661 0.685039 
vn 0.732283 -0.0708661 -0.677165 
vn -0.732283 -0.0708661 0.677165 
vn -0.724409 -0.0708661 -0.685039 
vn -0.566929 0.692913 0.440945 
vn 0.496063 0.708661 0.503937 
vn 0.496063 0.708661 -0.503937 
vn -0.637795 -0.566929 0.519685 
vn -0.574803 -0.574803 0.582677 
vn 0.637795 -0.566929 -0.519685 
vn 0.574803 -0.574803 -0.582677 
vn 0.574803 -0.574803 0.582677 
vn 0.472441 -0.740157 0.480315 
vn 0 -0.755906 0.653543 
vn 0.551181 -0.724409 0.417323 
vn 0 -0.755906 0.653543 
vn -0.472441 -0.740157 0.480315 
vn -0.551181 -0.724409 0.417323 
vn 0.551181 -0.724409 -0.417323 
vn 0.472441 -0.740157 -0.480315 
vn 0 -0.755906 -0.653543 
vn -0.551181 -0.724409 -0.417323 
vn 0 -0.755906 -0.653543 
vn -0.472441 -0.740157 -0.480315 
vn 0.732283 0.0787402 -0.677165 
vn 1 0.0629921 0 
vn 1 0.0629921 0 
vn 0.732283 0.0787402 0.677165 
vn 0.724409 0.0787402 -0.685039 
vn 0.724409 0.0787402 0.685039 
vn -0.724409 0.0787402 -0.685039 
vn -0.724409 0.0787402 0.685039 
vn 0.440945 -0.771654 -0.456693 
vn 0.519685 -0.755906 -0.393701 
vn 0.740157 -0.677165 0 
vn -0.440945 -0.771654 -0.456693 
vn 0.740157 -0.677165 0 
vn -0.519685 -0.755906 -0.393701 
vn 0.519685 -0.755906 0.393701 
vn 0.440945 -0.771654 0.456693 
vn 0.732283 -0.11811 0.669291 
vn 0.732283 -0.11811 -0.669291 
vn 0.724409 -0.11811 0.685039 
vn 0.724409 -0.11811 -0.685039 
vn 0.992126 -0.0866142 0 
vn 0.992126 -0.0866142 0 
vn 0.464567 0.748031 0.472441 
vn 0.543307 0.732283 0.417323 
vn 0.76378 0.645669 0 
vn 0.76378 0.645669 0 
vn 0.543307 0.732283 -0.417323 
vn 0.464567 0.748031 -0.472441 
vn -0.464567 0.748031 -0.472441 
vn 0.732283 0.0472441 -0.677165 
vn 1 0.0393701 0 
vn 1 0.0393701 0 
vn 0.732283 0.0472441 0.677165 
vn 0.732283 0.0472441 -0.685039 
vn 0.732283 0.0472441 0.685039 
vn -0.732283 0.0472441 -0.677165 
vn -0.732283 0.0472441 -0.685039 
vn 0.732283 -0.0708661 0.677165 
vn 1 -0.0551181 0 
vn 0.724409 -0.0708661 0.685039 
vn 1 -0.0551181 0 
vn 0.732283 -0.0708661 -0.677165 
vn -0.732283 -0.0708661 0.677165 
vn 0.724409 -0.0708661 -0.685039 
vn -0.724409 -0.0708661 0.685039 
vn -0.551181 0.724409 -0.425197 
vn -0.472441 0.732283 -0.480315 
vn 0.472441 0.732283 -0.480315 
vn 0.472441 0.732283 0.480315 
vn 0.551181 0.724409 -0.425197 
vn 0.551181 0.724409 0.425197 
vn 0.771654 0.629921 0 
vn 0.771654 0.629921 0 
vn 0.448819 -0.76378 -0.456693 
vn 0.527559 -0.748031 -0.401575 
vn 0.748031 -0.669291 0 
vn 0.748031 -0.669291 0 
vn 0.527559 -0.748031 0.401575 
vn -0.448819 -0.76378 0.456693 
vn 0.448819 -0.76378 0.456693 
vn -0.732283 0.00787402 -0.677165 
vn 0.732283 0.00787402 0.677165 
vn 0.732283 0.00787402 -0.677165 
vn 0.732283 0.00787402 0.685039 
vn 0.732283 0.00787402 -0.685039 
vn 1 0.00787402 0 
vn 1 0.00787402 0 
vn 0.724409 -0.0708661 0.685039 
vn 0.732283 -0.0708661 0.677165 
vn 1 -0.0551181 0 
vn 1 -0.0551181 0 
vn 0.732283 -0.0708661 -0.677165 
vn 0.724409 -0.0708661 -0.685039 
vn -0.724409 -0.0708661 -0.685039 
vn 0.496063 0.708661 0.503937 
vn 0.566929 0.692913 0.440945 
vn 0.795276 0.606299 0 
vn 0.496063 0.708661 -0.503937 
vn 0.795276 0.606299 0 
vn 0.566929 0.692913 -0.440945 
vn -0.590551 -0.653543 -0.464567 
vn 0.590551 -0.653543 0.464567 
vn -0.519685 -0.669291 -0.527559 
vn 0.519685 -0.669291 0.527559 
vn 0.826772 -0.559055 0 
vn 0.826772 -0.559055 0 
vn 0.590551 -0.653543 -0.464567 
vn 0.519685 -0.669291 -0.527559 
vn -0.732283 0 -0.677165 
vn 0.732283 0 -0.677165 
vn 0.732283 0 -0.677165 
vn 1 0 0 
vn 1 0 0 
vn 0.732283 0 0.677165 
vn 0.732283 0 0.677165 
vn 0.559055 0.700787 0.433071 
vn 0.787402 0.614173 0 
vn 0.787402 0.614173 0 
vn 0.559055 0.700787 -0.433071 
vn 0.488189 0.716535 0.496063 
vn 0.488189 0.716535 -0.496063 
vn -0.488189 0.716535 -0.496063 
vn -0.559055 0.700787 -0.433071 
vn -0.637795 -0.566929 0.519685 
vn -0.574803 -0.574803 0.582677 
vn 0.637795 -0.566929 -0.519685 
vn 0.637795 -0.566929 0.519685 
vn 0.574803 -0.574803 -0.582677 
vn 0.574803 -0.574803 0.582677 
vn 0.88189 -0.472441 0 
vn 0.88189 -0.472441 0 
vn 0.456693 0.755906 -0.472441 
vn 0.535433 0.740157 -0.409449 
vn 0.755906 0.653543 0 
vn 0.755906 0.653543 0 
vn 0.535433 0.740157 0.409449 
vn -0.456693 0.755906 0.472441 
vn 0.456693 0.755906 0.472441 
vn 0.598425 -0.645669 0.472441 
vn 0.527559 -0.661417 0.535433 
vn 0.834646 -0.551181 0 
vn 0.834646 -0.551181 0 
vn 0.598425 -0.645669 -0.472441 
vn -0.598425 -0.645669 -0.472441 
vn 0.527559 -0.661417 -0.535433 
vn -0.527559 -0.661417 -0.535433 
vn -0.559055 0.700787 0.433071 
vn -0.488189 0.716535 0.496063 
vn 0.488189 0.716535 -0.496063 
vn 0.559055 0.700787 -0.433071 
vn 0.787402 0.614173 0 
vn 0.488189 0.716535 0.496063 
vn 0.787402 0.614173 0 
vn 0.559055 0.700787 0.433071 
vn 0.472441 -0.740157 0.480315 
vn 0.551181 -0.724409 0.417323 
vn 0.771654 -0.637795 0 
vn 0.771654 -0.637795 0 
vn 0.551181 -0.724409 -0.417323 
vn 0.472441 -0.740157 -0.480315 

vt -0.821783 0.218035 
vt -0.820869 0.196301 
vt -0.831306 0.196301 
vt -0.831306 0.218035 
vt -0.84083 0.218035 
vt -0.841744 0.196301 
vt -0.841416 0.0557055 
vt -0.842147 0.0671964 
vt -0.831306 0.0671964 
vt -0.831306 0.0557055 
vt -0.821196 0.0557055 
vt -0.820466 0.0671964 
vt -0.820876 0.193422 
vt -0.821723 0.194837 
vt -0.841736 0.193422 
vt -0.840889 0.194837 
vt -0.820876 0.193422 
vt -0.820343 0.172516 
vt -0.831306 0.172516 
vt -0.831306 0.193422 
vt -0.841736 0.193422 
vt -0.84227 0.172516 
vt -0.821994 0.069972 
vt -0.82114 0.0931344 
vt -0.831306 0.0931344 
vt -0.831306 0.069972 
vt -0.840618 0.069972 
vt -0.841473 0.0931344 
vt -0.841554 0.170989 
vt -0.842341 0.169628 
vt -0.820272 0.169628 
vt -0.821059 0.170989 
vt -0.842341 0.169628 
vt -0.842472 0.147056 
vt -0.831306 0.147056 
vt -0.831306 0.169628 
vt -0.820272 0.169628 
vt -0.820141 0.147056 
vt -0.820228 0.117196 
vt -0.821027 0.0959465 
vt -0.831306 0.117196 
vt -0.831306 0.0959465 
vt -0.841586 0.0959465 
vt -0.842385 0.117196 
vt -0.841617 0.144795 
vt -0.842472 0.143203 
vt -0.820141 0.143203 
vt -0.820996 0.144795 
vt -0.842443 0.120339 
vt -0.841612 0.118603 
vt -0.831306 0.120339 
vt -0.831306 0.118603 
vt -0.821 0.118603 
vt -0.820169 0.120339 
vt -0.842443 0.120339 
vt -0.842472 0.143203 
vt -0.831306 0.143203 
vt -0.831306 0.120339 
vt -0.820169 0.120339 
vt -0.820141 0.143203 
vt -0.821 0.118603 
vt -0.820228 0.117196 
vt -0.842385 0.117196 
vt -0.841612 0.118603 
vt -0.841617 0.144795 
vt -0.842472 0.147056 
vt -0.831306 0.147056 
vt -0.831306 0.144795 
vt -0.820996 0.144795 
vt -0.820141 0.147056 
vt -0.821059 0.170989 
vt -0.831306 0.172516 
vt -0.831306 0.170989 
vt -0.841554 0.170989 
vt -0.820343 0.172516 
vt -0.84227 0.172516 
vt -0.847015 0.125725 
vt -0.847015 0.144772 
vt -0.81409 0.145686 
vt -0.814631 0.145358 
vt -0.849187 0.146089 
vt -0.847982 0.125138 
vt -0.813426 0.124408 
vt -0.850279 0.135248 
vt -0.84851 0.124818 
vt -0.847113 0.125665 
vt -0.851956 0.135248 
vt -0.84851 0.145678 
vt -0.847113 0.144831 
vt -0.8155 0.125665 
vt -0.814103 0.124818 
vt -0.812333 0.135248 
vt -0.8155 0.144831 
vt -0.810656 0.135248 
vt -0.814103 0.145678 
vt -0.814404 0.145496 
vt -0.848209 0.145496 
vt -0.813106 0.146283 
vt -0.849507 0.146283 
vt -0.811018 0.135248 
vt -0.851595 0.135248 
vt -0.809459 0.135248 
vt -0.853153 0.135248 
vt -0.813106 0.124214 
vt -0.849507 0.124214 
vt -0.814404 0.125001 
vt -0.848209 0.125001 
vt -0.848313 0.145559 
vt -0.849723 0.146414 
vt -0.85172 0.135248 
vt -0.8143 0.145559 
vt -0.853412 0.135248 
vt -0.81289 0.146414 
vt -0.849723 0.124083 
vt -0.810893 0.135248 
vt -0.848313 0.124938 
vt -0.809201 0.135248 
vt -0.81289 0.124083 
vt -0.8143 0.124938 
vt -0.848305 0.124942 
vt -0.814308 0.124942 
vt -0.84958 0.12417 
vt -0.813033 0.12417 
vt -0.85171 0.135248 
vt -0.810902 0.135248 
vt -0.85324 0.135248 
vt -0.809372 0.135248 
vt -0.84958 0.146327 
vt -0.813033 0.146327 
vt -0.848305 0.145554 
vt -0.814308 0.145554 
vt -0.848313 0.145559 
vt -0.81289 0.124083 
vt -0.849723 0.124083 
vt -0.814537 0.145415 
vt -0.812801 0.135248 
vt -0.811178 0.135248 
vt -0.814537 0.125082 
vt -0.815889 0.144595 
vt -0.815889 0.125901 
vt -0.846724 0.144595 
vt -0.846724 0.125901 
vt -0.848075 0.145415 
vt -0.848075 0.125082 
vt -0.849812 0.135248 
vt -0.851435 0.135248 
vt -0.815947 0.14456 
vt -0.813426 0.146089 
vt -0.81287 0.135248 
vt -0.846666 0.14456 
vt -0.809844 0.135248 
vt -0.849187 0.146089 
vt -0.813426 0.124408 
vt -0.849742 0.135248 
vt -0.815947 0.125936 
vt -0.852769 0.135248 
vt -0.849187 0.124408 
vt -0.846666 0.125936 
vt -0.847015 0.218035 
vt -0.815598 0.218035 
vt -0.848522 0.196301 
vt -0.81409 0.196301 
vt -0.831306 0.196301 
vt -0.831306 0.218035 
vt -0.847982 0.0557055 
vt -0.844516 0.0524618 
vt -0.818097 0.0524618 
vt -0.831306 0.0557055 
vt -0.814631 0.0557055 
vt -0.831306 0.0524618 
vt -0.818097 0.0524618 
vt -0.814631 0.0557055 
vt -0.814631 0.0557055 
vt -0.831306 0.0671964 
vt -0.831306 0.0557055 
vt -0.847982 0.0557055 
vt -0.813426 0.0671964 
vt -0.849187 0.0671964 
vt -0.814103 0.193422 
vt -0.8155 0.194837 
vt -0.814103 0.193422 
vt -0.8155 0.194837 
vt -0.831306 0.193422 
vt -0.831306 0.194837 
vt -0.847113 0.194837 
vt -0.84851 0.193422 
vt -0.814103 0.193422 
vt -0.813223 0.172516 
vt -0.84851 0.193422 
vt -0.814103 0.193422 
vt -0.849389 0.172516 
vt -0.813223 0.172516 
vt -0.831306 0.172516 
vt -0.831306 0.193422 
vt -0.846666 0.069972 
vt -0.815947 0.069972 
vt -0.848075 0.0931344 
vt -0.814537 0.0931344 
vt -0.831306 0.0931344 
vt -0.831306 0.069972 
vt -0.846666 0.069972 
vt -0.848075 0.0931344 
vt -0.831306 0.170989 
vt -0.848209 0.170989 
vt -0.831306 0.169628 
vt -0.814404 0.170989 
vt -0.849507 0.169628 
vt -0.813106 0.169628 
vt -0.813106 0.169628 
vt -0.814404 0.170989 
vt -0.848262 0.0959465 
vt -0.848262 0.0959465 
vt -0.846724 0.0944765 
vt -0.846724 0.0944765 
vt -0.831306 0.0959465 
vt -0.831306 0.0944765 
vt -0.815889 0.0944765 
vt -0.81435 0.0959465 
vt -0.831306 0.147056 
vt -0.813106 0.169628 
vt -0.831306 0.169628 
vt -0.849507 0.169628 
vt -0.81289 0.147056 
vt -0.849723 0.147056 
vt -0.813106 0.169628 
vt -0.81289 0.147056 
vt -0.849723 0.147056 
vt -0.813033 0.117196 
vt -0.81435 0.0959465 
vt -0.813033 0.117196 
vt -0.831306 0.117196 
vt -0.831306 0.0959465 
vt -0.848262 0.0959465 
vt -0.84958 0.117196 
vt -0.8143 0.144795 
vt -0.831306 0.143203 
vt -0.81289 0.143203 
vt -0.831306 0.144795 
vt -0.848313 0.144795 
vt -0.849723 0.143203 
vt -0.849723 0.143203 
vt -0.848313 0.144795 
vt -0.812937 0.120339 
vt -0.831306 0.120339 
vt -0.814308 0.118603 
vt -0.831306 0.118603 
vt -0.848305 0.118603 
vt -0.814308 0.118603 
vt -0.849676 0.120339 
vt -0.812937 0.120339 
vt -0.849676 0.120339 
vt -0.831306 0.143203 
vt -0.849723 0.143203 
vt -0.831306 0.120339 
vt -0.812937 0.120339 
vt -0.81289 0.143203 
vt -0.849723 0.143203 
vt -0.812937 0.120339 
vt -0.81289 0.143203 
vt -0.814308 0.118603 
vt -0.813033 0.117196 
vt -0.813033 0.117196 
vt -0.84958 0.117196 
vt -0.814308 0.118603 
vt -0.848305 0.118603 
vt -0.831306 0.117196 
vt -0.831306 0.118603 
vt -0.831306 0.147056 
vt -0.848313 0.144795 
vt -0.831306 0.144795 
vt -0.8143 0.144795 
vt -0.849723 0.147056 
vt -0.81289 0.147056 
vt -0.848313 0.144795 
vt -0.849723 0.147056 
vt -0.848075 0.0931344 
vt -0.848075 0.0931344 
vt -0.846724 0.0944765 
vt -0.846724 0.0944765 
vt -0.831306 0.0931344 
vt -0.831306 0.0944765 
vt -0.815889 0.0944765 
vt -0.814537 0.0931344 
vt -0.814404 0.170989 
vt -0.814404 0.170989 
vt -0.813223 0.172516 
vt -0.813223 0.172516 
vt -0.831306 0.172516 
vt -0.831306 0.170989 
vt -0.848209 0.170989 
vt -0.849389 0.172516 
vt -0.831306 0.0671964 
vt -0.846666 0.069972 
vt -0.849187 0.0671964 
vt -0.831306 0.069972 
vt -0.815947 0.069972 
vt -0.813426 0.0671964 
vt -0.849187 0.0671964 
vt -0.846666 0.069972 
vt -0.81409 0.196301 
vt -0.8155 0.194837 
vt -0.831306 0.196301 
vt -0.831306 0.194837 
vt -0.847113 0.194837 
vt -0.848522 0.196301 
vt -0.84083 0.218035 
vt -0.841744 0.196301 
vt -0.831306 0.196301 
vt -0.831306 0.218035 
vt -0.821783 0.218035 
vt -0.820869 0.196301 
vt -0.821196 0.0557055 
vt -0.820466 0.0671964 
vt -0.831306 0.0671964 
vt -0.831306 0.0557055 
vt -0.841416 0.0557055 
vt -0.842147 0.0671964 
vt -0.840889 0.194837 
vt -0.841736 0.193422 
vt -0.821723 0.194837 
vt -0.820876 0.193422 
vt -0.841736 0.193422 
vt -0.84227 0.172516 
vt -0.831306 0.172516 
vt -0.831306 0.193422 
vt -0.820876 0.193422 
vt -0.820343 0.172516 
vt -0.840618 0.069972 
vt -0.841473 0.0931344 
vt -0.831306 0.0931344 
vt -0.831306 0.069972 
vt -0.821994 0.069972 
vt -0.82114 0.0931344 
vt -0.821059 0.170989 
vt -0.820272 0.169628 
vt -0.842341 0.169628 
vt -0.841554 0.170989 
vt -0.820272 0.169628 
vt -0.820141 0.147056 
vt -0.831306 0.147056 
vt -0.831306 0.169628 
vt -0.842341 0.169628 
vt -0.842472 0.147056 
vt -0.841586 0.0959465 
vt -0.842385 0.117196 
vt -0.831306 0.117196 
vt -0.831306 0.0959465 
vt -0.821027 0.0959465 
vt -0.820228 0.117196 
vt -0.820996 0.144795 
vt -0.820141 0.143203 
vt -0.842472 0.143203 
vt -0.841617 0.144795 
vt -0.821 0.118603 
vt -0.820169 0.120339 
vt -0.831306 0.120339 
vt -0.831306 0.118603 
vt -0.841612 0.118603 
vt -0.842443 0.120339 
vt -0.820169 0.120339 
vt -0.820141 0.143203 
vt -0.831306 0.143203 
vt -0.831306 0.120339 
vt -0.842443 0.120339 
vt -0.842472 0.143203 
vt -0.841612 0.118603 
vt -0.842385 0.117196 
vt -0.820228 0.117196 
vt -0.821 0.118603 
vt -0.820996 0.144795 
vt -0.820141 0.147056 
vt -0.831306 0.147056 
vt -0.831306 0.144795 
vt -0.841617 0.144795 
vt -0.842472 0.147056 
vt -0.841554 0.170989 
vt -0.821059 0.170989 
vt -0.84227 0.172516 
vt -0.820343 0.172516 
vt -0.831306 0.172516 
vt -0.831306 0.170989 
vt -0.847162 0.135248 
vt -0.831306 0.123923 
vt -0.831306 0.146574 
vt -0.844516 0.12724 
vt -0.844516 0.143257 
vt -0.815451 0.135248 
vt -0.818097 0.143257 
vt -0.818097 0.12724 
vt -0.847162 0.135248 
vt -0.847982 0.125138 
vt -0.844516 0.12724 
vt -0.851323 0.135248 
vt -0.847982 0.145358 
vt -0.844516 0.143257 
vt -0.818097 0.12724 
vt -0.814631 0.125138 
vt -0.815451 0.135248 
vt -0.818097 0.143257 
vt -0.81129 0.135248 
vt -0.814631 0.145358 
vt -0.847982 0.145358 
vt -0.813426 0.146089 
vt -0.814631 0.125138 
vt -0.849187 0.124408 
vt -0.849812 0.135248 
vt -0.848262 0.145528 
vt -0.851659 0.135248 
vt -0.848262 0.124968 
vt -0.846724 0.144595 
vt -0.846724 0.125901 
vt -0.815889 0.144595 
vt -0.815889 0.125901 
vt -0.81435 0.145528 
vt -0.81435 0.124968 
vt -0.812801 0.135248 
vt -0.810954 0.135248 
vt -0.813033 0.12417 
vt -0.848262 0.124968 
vt -0.81435 0.145528 
vt -0.84958 0.146327 
vt -0.8143 0.145559 
vt -0.81289 0.124083 
vt -0.849723 0.124083 
vt -0.8143 0.145559 
vt -0.81289 0.146414 
vt -0.848313 0.124938 
vt -0.849723 0.124083 
vt -0.81289 0.124083 
vt -0.81409 0.124811 
vt -0.812333 0.135248 
vt -0.8155 0.125665 
vt -0.810642 0.135248 
vt -0.81409 0.145686 
vt -0.8155 0.144831 
vt -0.847113 0.125665 
vt -0.848522 0.124811 
vt -0.850279 0.135248 
vt -0.847113 0.144831 
vt -0.851971 0.135248 
vt -0.848522 0.145686 
vt -0.815598 0.218035 
vt -0.831306 0.218035 
vt -0.831306 0.196301 
vt -0.847015 0.218035 
vt -0.81409 0.196301 
vt -0.848522 0.196301 
vt -0.81409 0.196301 
vt -0.848522 0.196301 
vt -0.814631 0.0557055 
vt -0.818097 0.0524618 
vt -0.831306 0.0557055 
vt -0.814631 0.0557055 
vt -0.831306 0.0524618 
vt -0.818097 0.0524618 
vt -0.844516 0.0524618 
vt -0.847982 0.0557055 
vt -0.847982 0.0557055 
vt -0.814631 0.0557055 
vt -0.849187 0.0671964 
vt -0.813426 0.0671964 
vt -0.831306 0.0671964 
vt -0.831306 0.0557055 
vt -0.84851 0.193422 
vt -0.847113 0.194837 
vt -0.831306 0.193422 
vt -0.831306 0.194837 
vt -0.8155 0.194837 
vt -0.814103 0.193422 
vt -0.814103 0.193422 
vt -0.814103 0.193422 
vt -0.831306 0.193422 
vt -0.831306 0.172516 
vt -0.84851 0.193422 
vt -0.813223 0.172516 
vt -0.849389 0.172516 
vt -0.814103 0.193422 
vt -0.813223 0.172516 
vt -0.846666 0.069972 
vt -0.831306 0.0931344 
vt -0.848075 0.0931344 
vt -0.831306 0.069972 
vt -0.815947 0.069972 
vt -0.846666 0.069972 
vt -0.814537 0.0931344 
vt -0.848075 0.0931344 
vt -0.814404 0.170989 
vt -0.813106 0.169628 
vt -0.813106 0.169628 
vt -0.849507 0.169628 
vt -0.814404 0.170989 
vt -0.848209 0.170989 
vt -0.831306 0.169628 
vt -0.831306 0.170989 
vt -0.81435 0.0959465 
vt -0.815889 0.0944765 
vt -0.831306 0.0959465 
vt -0.831306 0.0944765 
vt -0.846724 0.0944765 
vt -0.848262 0.0959465 
vt -0.848262 0.0959465 
vt -0.813106 0.169628 
vt -0.849507 0.169628 
vt -0.813106 0.169628 
vt -0.849723 0.147056 
vt -0.81289 0.147056 
vt -0.831306 0.147056 
vt -0.831306 0.169628 
vt -0.84958 0.117196 
vt -0.848262 0.0959465 
vt -0.831306 0.117196 
vt -0.831306 0.0959465 
vt -0.81435 0.0959465 
vt -0.813033 0.117196 
vt -0.813033 0.117196 
vt -0.849723 0.143203 
vt -0.848313 0.144795 
vt -0.831306 0.143203 
vt -0.81289 0.143203 
vt -0.831306 0.144795 
vt -0.8143 0.144795 
vt -0.814308 0.118603 
vt -0.848305 0.118603 
vt -0.812937 0.120339 
vt -0.849676 0.120339 
vt -0.831306 0.120339 
vt -0.831306 0.118603 
vt -0.814308 0.118603 
vt -0.812937 0.120339 
vt -0.812937 0.120339 
vt -0.812937 0.120339 
vt -0.81289 0.143203 
vt -0.831306 0.143203 
vt -0.831306 0.120339 
vt -0.849676 0.120339 
vt -0.849723 0.143203 
vt -0.848305 0.118603 
vt -0.831306 0.117196 
vt -0.831306 0.118603 
vt -0.814308 0.118603 
vt -0.84958 0.117196 
vt -0.813033 0.117196 
vt -0.813033 0.117196 
vt -0.814308 0.118603 
vt -0.848313 0.144795 
vt -0.849723 0.147056 
vt -0.8143 0.144795 
vt -0.848313 0.144795 
vt -0.81289 0.147056 
vt -0.849723 0.147056 
vt -0.831306 0.147056 
vt -0.831306 0.144795 
vt -0.814537 0.0931344 
vt -0.815889 0.0944765 
vt -0.831306 0.0931344 
vt -0.831306 0.0944765 
vt -0.846724 0.0944765 
vt -0.848075 0.0931344 
vt -0.848075 0.0931344 
vt -0.848209 0.170989 
vt -0.849389 0.172516 
vt -0.831306 0.172516 
vt -0.831306 0.170989 
vt -0.814404 0.170989 
vt -0.814404 0.170989 
vt -0.813223 0.172516 
vt -0.813223 0.172516 
vt -0.846666 0.069972 
vt -0.849187 0.0671964 
vt -0.813426 0.0671964 
vt -0.815947 0.069972 
vt -0.831306 0.0671964 
vt -0.849187 0.0671964 
vt -0.831306 0.069972 
vt -0.846666 0.069972 
vt -0.848522 0.196301 
vt -0.847113 0.194837 
vt -0.831306 0.196301 
vt -0.831306 0.194837 
vt -0.8155 0.194837 
vt -0.81409 0.196301 

usemtl Meshpart1Mtl

f 1/1/1 3/3/3 2/2/2 
f 3/3/3 1/1/1 4/4/4 
f 5/5/5 3/3/3 4/4/4 
f 3/3/3 5/5/5 6/6/6 
f 9/9/9 8/8/8 7/7/7 
f 10/10/10 9/9/9 7/7/7 
f 11/11/11 9/9/9 10/10/10 
f 9/9/9 11/11/11 12/12/12 
f 17/17/17 19/19/19 18/18/18 
f 19/19/19 17/17/17 20/20/20 
f 21/21/21 19/19/19 20/20/20 
f 19/19/19 21/21/21 22/22/22 
f 25/25/25 23/23/23 24/24/24 
f 23/23/23 25/25/25 26/26/26 
f 26/26/26 25/25/25 27/27/27 
f 28/28/28 27/27/27 25/25/25 
f 35/35/35 33/33/33 34/34/34 
f 33/33/33 35/35/35 36/36/36 
f 35/35/35 37/37/37 36/36/36 
f 37/37/37 35/35/35 38/38/38 
f 41/41/41 40/40/40 39/39/39 
f 40/40/40 41/41/41 42/42/42 
f 42/42/42 41/41/41 43/43/43 
f 44/44/44 43/43/43 41/41/41 
f 50/50/50 51/51/51 49/49/49 
f 51/51/51 50/50/50 52/52/52 
f 53/53/53 51/51/51 52/52/52 
f 54/54/54 51/51/51 53/53/53 
f 55/55/55 57/57/57 56/56/56 
f 57/57/57 55/55/55 58/58/58 
f 59/59/59 57/57/57 58/58/58 
f 59/59/59 60/60/60 57/57/57 
f 65/65/65 67/67/67 66/66/66 
f 67/67/67 65/65/65 68/68/68 
f 69/69/69 67/67/67 68/68/68 
f 70/70/70 67/67/67 69/69/69 
f 71/71/71 72/72/72 73/73/73 
f 72/72/72 74/74/74 73/73/73 
f 72/72/72 71/71/71 75/75/75 
f 72/72/72 76/76/76 74/74/74 
f 84/84/84 85/85/85 86/86/86 
f 85/85/85 84/84/84 87/87/87 
f 84/84/84 88/88/88 87/87/87 
f 88/88/88 84/84/84 89/89/89 
f 92/92/92 90/90/90 91/91/91 
f 91/91/91 94/94/94 92/92/92 
f 95/95/95 92/92/92 94/94/94 
f 92/92/92 95/95/95 93/93/93 
f 96/96/96 100/100/100 98/98/98 
f 99/99/99 101/101/101 97/97/97 
f 102/102/102 98/98/98 100/100/100 
f 101/101/101 99/99/99 103/103/103 
f 100/100/100 104/104/104 102/102/102 
f 105/105/105 101/101/101 103/103/103 
f 104/104/104 100/100/100 106/106/106 
f 101/101/101 105/105/105 107/107/107 
f 109/109/109 110/110/110 108/108/108 
f 110/110/110 109/109/109 112/112/112 
f 114/114/114 110/110/110 112/112/112 
f 111/111/111 115/115/115 113/113/113 
f 110/110/110 114/114/114 116/116/116 
f 117/117/117 113/113/113 115/115/115 
f 115/115/115 118/118/118 117/117/117 
f 118/118/118 115/115/115 119/119/119 
f 124/124/124 122/122/122 120/120/120 
f 123/123/123 125/125/125 121/121/121 
f 122/122/122 124/124/124 126/126/126 
f 125/125/125 123/123/123 127/127/127 
f 128/128/128 126/126/126 124/124/124 
f 129/129/129 125/125/125 127/127/127 
f 128/128/128 124/124/124 130/130/130 
f 125/125/125 129/129/129 131/131/131 
f 135/135/135 136/136/136 137/137/137 
f 136/136/136 138/138/138 137/137/137 
f 136/136/136 135/135/135 139/139/139 
f 138/138/138 136/136/136 140/140/140 
f 143/143/143 145/145/145 141/141/141 
f 145/145/145 144/144/144 142/142/142 
f 143/143/143 146/146/146 145/145/145 
f 144/144/144 145/145/145 146/146/146 
f 149/149/149 148/148/148 147/147/147 
f 148/148/148 149/149/149 151/151/151 
f 149/149/149 153/153/153 151/151/151 
f 152/152/152 154/154/154 150/150/150 
f 153/153/153 149/149/149 155/155/155 
f 152/152/152 156/156/156 154/154/154 
f 157/157/157 154/154/154 156/156/156 
f 154/154/154 157/157/157 158/158/158 
f 163/163/163 159/159/159 161/161/161 
f 160/160/160 163/163/163 162/162/162 
f 159/159/159 163/163/163 164/164/164 
f 163/163/163 160/160/160 164/164/164 
f 168/168/168 165/165/165 166/166/166 
f 166/166/166 170/170/170 168/168/168 
f 171/171/171 168/168/168 170/170/170 
f 168/168/168 171/171/171 172/172/172 
f 173/173/173 174/174/174 175/175/175 
f 176/176/176 175/175/175 174/174/174 
f 174/174/174 173/173/173 177/177/177 
f 176/176/176 174/174/174 178/178/178 
f 182/182/182 183/183/183 181/181/181 
f 183/183/183 182/182/182 184/184/184 
f 185/185/185 183/183/183 184/184/184 
f 183/183/183 185/185/185 186/186/186 
f 193/193/193 189/189/189 191/191/191 
f 192/192/192 190/190/190 193/193/193 
f 189/189/189 193/193/193 194/194/194 
f 193/193/193 190/190/190 194/194/194 
f 199/199/199 196/196/196 198/198/198 
f 196/196/196 199/199/199 200/200/200 
f 201/201/201 200/200/200 199/199/199 
f 201/201/201 199/199/199 202/202/202 
f 203/203/203 204/204/204 205/205/205 
f 205/205/205 206/206/206 203/203/203 
f 207/207/207 205/205/205 204/204/204 
f 206/206/206 205/205/205 208/208/208 
f 215/215/215 211/211/211 213/213/213 
f 213/213/213 216/216/216 215/215/215 
f 217/217/217 215/215/215 216/216/216 
f 215/215/215 217/217/217 218/218/218 
f 219/219/219 220/220/220 221/221/221 
f 219/219/219 221/221/221 222/222/222 
f 220/220/220 219/219/219 223/223/223 
f 224/224/224 219/219/219 222/222/222 
f 231/231/231 229/229/229 230/230/230 
f 229/229/229 231/231/231 232/232/232 
f 233/233/233 232/232/232 231/231/231 
f 233/233/233 231/231/231 234/234/234 
f 235/235/235 236/236/236 237/237/237 
f 236/236/236 235/235/235 238/238/238 
f 238/238/238 239/239/239 236/236/236 
f 240/240/240 236/236/236 239/239/239 
f 243/243/243 244/244/244 245/245/245 
f 246/246/246 245/245/245 244/244/244 
f 244/244/244 247/247/247 246/246/246 
f 247/247/247 244/244/244 249/249/249 
f 251/251/251 252/252/252 253/253/253 
f 252/252/252 251/251/251 254/254/254 
f 254/254/254 255/255/255 252/252/252 
f 255/255/255 256/256/256 252/252/252 
f 266/266/266 262/262/262 264/264/264 
f 266/266/266 265/265/265 263/263/263 
f 266/266/266 264/264/264 267/267/267 
f 265/265/265 266/266/266 267/267/267 
f 268/268/268 269/269/269 270/270/270 
f 270/270/270 271/271/271 268/268/268 
f 269/269/269 268/268/268 272/272/272 
f 273/273/273 268/268/268 271/271/271 
f 280/280/280 278/278/278 276/276/276 
f 278/278/278 280/280/280 281/281/281 
f 280/280/280 282/282/282 281/281/281 
f 280/280/280 283/283/283 282/282/282 
f 288/288/288 285/285/285 287/287/287 
f 285/285/285 288/288/288 289/289/289 
f 290/290/290 289/289/289 288/288/288 
f 290/290/290 288/288/288 291/291/291 
f 292/292/292 293/293/293 294/294/294 
f 293/293/293 292/292/292 295/295/295 
f 292/292/292 296/296/296 295/295/295 
f 292/292/292 297/297/297 296/296/296 
f 302/302/302 301/301/301 300/300/300 
f 301/301/301 302/302/302 303/303/303 
f 304/304/304 303/303/303 302/302/302 
f 304/304/304 302/302/302 305/305/305 
f 308/308/308 306/306/306 307/307/307 
f 306/306/306 308/308/308 309/309/309 
f 309/309/309 308/308/308 310/310/310 
f 311/311/311 310/310/310 308/308/308 
f 314/314/314 312/312/312 313/313/313 
f 312/312/312 314/314/314 315/315/315 
f 314/314/314 316/316/316 315/315/315 
f 316/316/316 314/314/314 317/317/317 
f 324/324/324 322/322/322 323/323/323 
f 322/322/322 324/324/324 325/325/325 
f 325/325/325 324/324/324 326/326/326 
f 327/327/327 326/326/326 324/324/324 
f 328/328/328 330/330/330 329/329/329 
f 330/330/330 328/328/328 331/331/331 
f 332/332/332 330/330/330 331/331/331 
f 330/330/330 332/332/332 333/333/333 
f 338/338/338 340/340/340 339/339/339 
f 340/340/340 338/338/338 341/341/341 
f 342/342/342 340/340/340 341/341/341 
f 342/342/342 343/343/343 340/340/340 
f 344/344/344 346/346/346 345/345/345 
f 346/346/346 344/344/344 347/347/347 
f 348/348/348 346/346/346 347/347/347 
f 346/346/346 348/348/348 349/349/349 
f 356/356/356 354/354/354 355/355/355 
f 357/357/357 354/354/354 356/356/356 
f 356/356/356 358/358/358 357/357/357 
f 358/358/358 356/356/356 359/359/359 
f 362/362/362 360/360/360 361/361/361 
f 362/362/362 363/363/363 360/360/360 
f 362/362/362 364/364/364 363/363/363 
f 364/364/364 362/362/362 365/365/365 
f 372/372/372 370/370/370 371/371/371 
f 373/373/373 370/370/370 372/372/372 
f 372/372/372 374/374/374 373/373/373 
f 374/374/374 372/372/372 375/375/375 
f 380/380/380 378/378/378 376/376/376 
f 380/380/380 377/377/377 379/379/379 
f 376/376/376 381/381/381 380/380/380 
f 377/377/377 380/380/380 381/381/381 
f 382/382/382 383/383/383 384/384/384 
f 383/383/383 382/382/382 385/385/385 
f 382/382/382 384/384/384 386/386/386 
f 383/383/383 387/387/387 384/384/384 
f 384/384/384 387/387/387 388/388/388 
f 387/387/387 383/383/383 389/389/389 
f 390/390/390 391/391/391 392/392/392 
f 391/391/391 390/390/390 393/393/393 
f 390/390/390 394/394/394 393/393/393 
f 394/394/394 390/390/390 395/395/395 
f 398/398/398 396/396/396 397/397/397 
f 397/397/397 400/400/400 398/398/398 
f 401/401/401 398/398/398 400/400/400 
f 398/398/398 401/401/401 399/399/399 
f 406/406/406 407/407/407 408/408/408 
f 409/409/409 406/406/406 408/408/408 
f 407/407/407 406/406/406 410/410/410 
f 406/406/406 409/409/409 411/411/411 
f 416/416/416 414/414/414 412/412/412 
f 416/416/416 413/413/413 415/415/415 
f 414/414/414 416/416/416 417/417/417 
f 415/415/415 417/417/417 416/416/416 
f 430/430/430 431/431/431 432/432/432 
f 431/431/431 430/430/430 433/433/433 
f 434/434/434 431/431/431 433/433/433 
f 431/431/431 434/434/434 435/435/435 
f 438/438/438 437/437/437 436/436/436 
f 437/437/437 438/438/438 440/440/440 
f 441/441/441 440/440/440 438/438/438 
f 441/441/441 438/438/438 439/439/439 
f 442/442/442 443/443/443 444/444/444 
f 445/445/445 444/444/444 443/443/443 
f 442/442/442 444/444/444 446/446/446 
f 444/444/444 445/445/445 447/447/447 
f 452/452/452 451/451/451 450/450/450 
f 451/451/451 452/452/452 454/454/454 
f 452/452/452 456/456/456 454/454/454 
f 456/456/456 452/452/452 457/457/457 
f 460/460/460 458/458/458 462/462/462 
f 462/462/462 459/459/459 461/461/461 
f 462/462/462 458/458/458 463/463/463 
f 459/459/459 462/462/462 463/463/463 
f 466/466/466 465/465/465 464/464/464 
f 465/465/465 466/466/466 467/467/467 
f 468/468/468 467/467/467 466/466/466 
f 466/466/466 469/469/469 468/468/468 
f 471/471/471 472/472/472 473/473/473 
f 474/474/474 473/473/473 472/472/472 
f 471/471/471 473/473/473 475/475/475 
f 473/473/473 474/474/474 476/476/476 
f 479/479/479 480/480/480 481/481/481 
f 480/480/480 479/479/479 482/482/482 
f 483/483/483 480/480/480 482/482/482 
f 480/480/480 483/483/483 485/485/485 
f 491/491/491 493/493/493 489/489/489 
f 493/493/493 492/492/492 490/490/490 
f 493/493/493 491/491/491 494/494/494 
f 492/492/492 493/493/493 494/494/494 
f 497/497/497 496/496/496 495/495/495 
f 496/496/496 497/497/497 498/498/498 
f 497/497/497 499/499/499 498/498/498 
f 499/499/499 497/497/497 501/501/501 
f 507/507/507 503/503/503 505/505/505 
f 504/504/504 507/507/507 506/506/506 
f 503/503/503 507/507/507 508/508/508 
f 507/507/507 504/504/504 508/508/508 
f 509/509/509 510/510/510 511/511/511 
f 511/511/511 510/510/510 512/512/512 
f 513/513/513 511/511/511 512/512/512 
f 511/511/511 513/513/513 514/514/514 
f 518/518/518 517/517/517 516/516/516 
f 517/517/517 518/518/518 520/520/520 
f 518/518/518 521/521/521 520/520/520 
f 521/521/521 518/518/518 519/519/519 
f 523/523/523 526/526/526 525/525/525 
f 526/526/526 523/523/523 527/527/527 
f 528/528/528 526/526/526 527/527/527 
f 529/529/529 526/526/526 528/528/528 
f 533/533/533 531/531/531 532/532/532 
f 531/531/531 533/533/533 534/534/534 
f 533/533/533 535/535/535 534/534/534 
f 535/535/535 533/533/533 536/536/536 
f 537/537/537 538/538/538 539/539/539 
f 540/540/540 539/539/539 538/538/538 
f 538/538/538 537/537/537 541/541/541 
f 540/540/540 538/538/538 542/542/542 
f 549/549/549 551/551/551 547/547/547 
f 548/548/548 551/551/551 550/550/550 
f 547/547/547 551/551/551 552/552/552 
f 551/551/551 548/548/548 552/552/552 
f 554/554/554 555/555/555 553/553/553 
f 554/554/554 556/556/556 555/555/555 
f 557/557/557 555/555/555 556/556/556 
f 555/555/555 557/557/557 559/559/559 
f 562/562/562 561/561/561 560/560/560 
f 562/562/562 560/560/560 563/563/563 
f 564/564/564 562/562/562 563/563/563 
f 562/562/562 564/564/564 566/566/566 
f 571/571/571 572/572/572 570/570/570 
f 571/571/571 574/574/574 572/572/572 
f 575/575/575 572/572/572 574/574/574 
f 572/572/572 575/575/575 573/573/573 
f 578/578/578 576/576/576 577/577/577 
f 578/578/578 577/577/577 579/579/579 
f 580/580/580 578/578/578 579/579/579 
f 578/578/578 580/580/580 581/581/581 

g Meshpart2

v -360.031 5.95728 -0.0951438 
v -359.881 5.88744 -0.0621695 
v -359.894 5.95728 -0.0951438 
v -360.044 5.88744 -0.0621695 
v -360.025 6.02163 -0.10919 
v -359.899 6.02163 -0.10919 
v -360.029 6.08599 -0.100791 
v -359.896 6.08599 -0.100791 
v -359.887 6.14303 -0.0794249 
v -360.037 6.14303 -0.0794249 
v -359.887 7.04449 -0.0794249 
v -360.037 7.04449 -0.0794249 
v -359.887 7.16003 -0.0794249 
v -360.037 7.16003 -0.0794249 
v -359.887 7.22732 -0.0794249 
v -360.037 7.22732 -0.0794249 
v -359.887 7.32385 -0.0794249 
v -360.037 7.32385 -0.0794249 
v -359.887 7.51176 -0.0794249 
v -360.037 7.51176 -0.0794249 
v -359.962 7.83863 -0.0656984 
v -360.025 6.02163 -0.10919 
v -359.887 7.51176 -0.0794249 
v -359.962 7.83863 -0.0656984 
v -360.031 5.95728 -0.266846 
v -359.962 5.95728 -0.438548 
v -360.044 5.88744 -0.266846 
v -359.962 5.88744 -0.471522 
v -359.962 6.02163 -0.424501 
v -360.025 6.02163 -0.266846 
v -360.029 6.08599 -0.266846 
v -359.962 6.08599 -0.4329 
v -360.037 6.14303 -0.266846 
v -359.962 6.14303 -0.454094 
v -360.037 7.04449 -0.273709 
v -359.962 7.04449 -0.46782 
v -359.962 7.16003 -0.468509 
v -360.037 7.16003 -0.265702 
v -359.962 7.29313 -0.447919 
v -360.037 7.22732 -0.2474 
v -360.037 7.32385 -0.218231 
v -359.962 7.41307 -0.42161 
v -360.037 7.37345 -0.193457 
v -359.962 7.53132 -0.366969 
v -359.962 7.65103 -0.26886 
v -359.962 7.75215 -0.168682 
v -360.037 7.51176 -0.0794249 
v -359.962 7.83863 -0.0656984 
v -360.031 5.95728 -0.266846 
v -360.031 5.95728 -0.0951438 
v -360.025 6.02163 -0.10919 
v -360.044 5.88744 -0.266846 
v -360.044 5.88744 -0.0621695 
v -360.025 6.02163 -0.266846 
v -360.029 6.08599 -0.266846 
v -360.029 6.08599 -0.100791 
v -360.037 6.14303 -0.266846 
v -360.037 6.14303 -0.0794249 
v -360.037 7.04449 -0.0794249 
v -360.037 7.04449 -0.273709 
v -360.037 7.16003 -0.265702 
v -360.037 7.16003 -0.0794249 
v -360.037 7.22732 -0.2474 
v -360.037 7.22732 -0.0794249 
v -360.037 7.32385 -0.218231 
v -360.037 7.32385 -0.0794249 
v -360.037 7.37345 -0.193457 
v -360.037 7.51176 -0.0794249 
v -360.025 6.02163 -0.10919 
v -359.887 7.51176 -0.0794249 
v -359.962 7.83863 -0.0656984 
v -359.962 6.02163 -0.424501 
v -359.962 7.41307 -0.42161 
v -359.962 7.75215 -0.168682 
v -359.896 6.08599 -0.266846 
v -359.962 6.02163 -0.424501 
v -359.962 6.08599 -0.4329 
v -359.899 6.02163 -0.266846 
v -359.887 6.14303 -0.266846 
v -359.894 5.95728 -0.266846 
v -359.962 6.14303 -0.454094 
v -359.962 5.95728 -0.438548 
v -359.881 5.88744 -0.266846 
v -359.962 5.88744 -0.471522 
v -359.887 7.04449 -0.273709 
v -359.962 7.04449 -0.46782 
v -359.962 7.16003 -0.468509 
v -359.887 7.16003 -0.265702 
v -359.962 7.29313 -0.447919 
v -359.887 7.22732 -0.2474 
v -359.887 7.32385 -0.218231 
v -359.962 7.41307 -0.42161 
v -359.887 7.37345 -0.193457 
v -359.962 7.53132 -0.366969 
v -359.962 7.65103 -0.26886 
v -359.962 7.75215 -0.168682 
v -359.887 7.51176 -0.0794249 
v -359.962 7.83863 -0.0656984 
v -359.894 5.95728 -0.0951438 
v -359.881 5.88744 -0.266846 
v -359.894 5.95728 -0.266846 
v -359.881 5.88744 -0.0621695 
v -359.899 6.02163 -0.10919 
v -359.899 6.02163 -0.266846 
v -359.896 6.08599 -0.266846 
v -359.896 6.08599 -0.100791 
v -359.887 6.14303 -0.266846 
v -359.887 6.14303 -0.0794249 
v -359.887 7.04449 -0.0794249 
v -359.887 7.04449 -0.273709 
v -359.887 7.16003 -0.265702 
v -359.887 7.16003 -0.0794249 
v -359.887 7.22732 -0.2474 
v -359.887 7.22732 -0.0794249 
v -359.887 7.32385 -0.218231 
v -359.887 7.32385 -0.0794249 
v -359.887 7.37345 -0.193457 
v -359.887 7.51176 -0.0794249 

vn 0 0.330709 0.944882 
vn 0 0.425197 0.905512 
vn 0 0.330709 0.944882 
vn 0 0.425197 0.905512 
vn 0 0.0472441 1 
vn 0 0.0472441 1 
vn 0 -0.251969 0.968504 
vn 0 -0.251969 0.968504 
vn 0 -0.173228 0.984252 
vn 0 -0.173228 0.984252 
vn 0 0 1 
vn 0 0 1 
vn 0 0 1 
vn 0 0 1 
vn 0 0 1 
vn 0 0 1 
vn 0 0 1 
vn 0 0 1 
vn 0 -0.015748 1 
vn 0 -0.015748 1 
vn 0 -0.0393701 1 
vn 0 0.0472441 1 
vn 0 -0.015748 1 
vn 0 -0.0393701 1 
vn -0.92126 0.125984 -0.370079 
vn -0.92126 0.133858 -0.370079 
vn -0.913386 0.173228 -0.362205 
vn -0.913386 0.173228 -0.362205 
vn -0.929134 0.015748 -0.370079 
vn -0.929134 0.015748 -0.370079 
vn -0.92126 -0.0944882 -0.370079 
vn -0.92126 -0.102362 -0.370079 
vn -0.929134 -0.0708661 -0.370079 
vn -0.929134 -0.0629921 -0.370079 
vn -0.937008 0 -0.362205 
vn -0.937008 0 -0.362205 
vn -0.937008 0.0393701 -0.346457 
vn -0.937008 0.0393701 -0.346457 
vn -0.944882 0.0708661 -0.330709 
vn -0.944882 0.0708661 -0.330709 
vn -0.944882 0.110236 -0.307087 
vn -0.944882 0.110236 -0.299213 
vn -0.952756 0.165354 -0.259843 
vn -0.952756 0.173228 -0.251969 
vn -0.952756 0.19685 -0.220472 
vn -0.952756 0.212598 -0.220472 
vn -0.952756 0.212598 -0.220472 
vn -0.952756 0.212598 -0.220472 
vn -0.992126 0.133858 0 
vn -0.992126 0.141732 0 
vn -1 0.015748 0 
vn -0.984252 0.188976 0 
vn -0.984252 0.188976 0 
vn -1 0.015748 0 
vn -0.992126 -0.102362 0 
vn -0.992126 -0.110236 0 
vn -1 -0.0708661 0 
vn -1 -0.0629921 0 
vn -1 0 0 
vn -1 0 0 
vn -1 0 0 
vn -1 0 0 
vn -1 0 0 
vn -1 0 0 
vn -1 0 0 
vn -1 0 0 
vn -1 0 0 
vn -1 0 0 
vn 0 0.0472441 1 
vn 0 -0.015748 1 
vn 0 -0.0393701 1 
vn -0.929134 0.015748 -0.370079 
vn -0.944882 0.110236 -0.299213 
vn -0.952756 0.212598 -0.220472 
vn 0.92126 -0.0944882 -0.370079 
vn 0.929134 0.015748 -0.370079 
vn 0.92126 -0.102362 -0.370079 
vn 0.929134 0.015748 -0.370079 
vn 0.929134 -0.0708661 -0.370079 
vn 0.92126 0.125984 -0.370079 
vn 0.929134 -0.0629921 -0.370079 
vn 0.92126 0.133858 -0.370079 
vn 0.913386 0.173228 -0.362205 
vn 0.913386 0.173228 -0.362205 
vn 0.937008 0 -0.362205 
vn 0.937008 0 -0.362205 
vn 0.937008 0.0393701 -0.346457 
vn 0.937008 0.0393701 -0.346457 
vn 0.944882 0.0708661 -0.330709 
vn 0.944882 0.0708661 -0.330709 
vn 0.944882 0.110236 -0.307087 
vn 0.944882 0.110236 -0.299213 
vn 0.952756 0.165354 -0.259843 
vn 0.952756 0.173228 -0.251969 
vn 0.952756 0.19685 -0.220472 
vn 0.952756 0.212598 -0.220472 
vn 0.952756 0.212598 -0.220472 
vn 0.952756 0.212598 -0.220472 
vn 0.992126 0.141732 0 
vn 0.984252 0.188976 0 
vn 0.992126 0.133858 0 
vn 0.984252 0.188976 0 
vn 1 0.015748 0 
vn 1 0.015748 0 
vn 0.992126 -0.102362 0 
vn 0.992126 -0.110236 0 
vn 1 -0.0708661 0 
vn 1 -0.0629921 0 
vn 1 0 0 
vn 1 0 0 
vn 1 0 0 
vn 1 0 0 
vn 1 0 0 
vn 1 0 0 
vn 1 0 0 
vn 1 0 0 
vn 1 0 0 
vn 1 0 0 

vt -0.574807 1.62482 
vt -0.556001 1.61609 
vt -0.557648 1.62482 
vt -0.576455 1.61609 
vt -0.574105 1.63287 
vt -0.55835 1.63287 
vt -0.574525 1.64091 
vt -0.55793 1.64091 
vt -0.556871 1.64804 
vt -0.575584 1.64804 
vt -0.556871 1.76072 
vt -0.575584 1.76072 
vt -0.556871 1.77517 
vt -0.575584 1.77517 
vt -0.556871 1.78358 
vt -0.575584 1.78358 
vt -0.556871 1.79564 
vt -0.575584 1.79564 
vt -0.556871 1.81913 
vt -0.575584 1.81913 
vt -0.566228 1.85999 
vt -0.546521 1.63287 
vt -0.5428 1.81913 
vt -0.541084 1.85999 
vt -0.566228 1.62482 
vt -0.58769 1.62482 
vt -0.566228 1.61609 
vt -0.591812 1.61609 
vt -0.585935 1.63287 
vt -0.566228 1.63287 
vt -0.566228 1.64091 
vt -0.586985 1.64091 
vt -0.566228 1.64804 
vt -0.589634 1.64804 
vt -0.567086 1.76072 
vt -0.59135 1.76072 
vt -0.591436 1.77517 
vt -0.566085 1.77517 
vt -0.588862 1.7918 
vt -0.563797 1.78358 
vt -0.560151 1.79564 
vt -0.585573 1.80679 
vt -0.557054 1.80184 
vt -0.578743 1.82158 
vt -0.56648 1.83654 
vt -0.553957 1.84918 
vt -0.5428 1.81913 
vt -0.541084 1.85999 
vt -0.566228 1.62482 
vt -0.544765 1.62482 
vt -0.546521 1.63287 
vt -0.566228 1.61609 
vt -0.540643 1.61609 
vt -0.566228 1.63287 
vt -0.566228 1.64091 
vt -0.545471 1.64091 
vt -0.566228 1.64804 
vt -0.5428 1.64804 
vt -0.5428 1.76072 
vt -0.567086 1.76072 
vt -0.566085 1.77517 
vt -0.5428 1.77517 
vt -0.563797 1.78358 
vt -0.5428 1.78358 
vt -0.560151 1.79564 
vt -0.5428 1.79564 
vt -0.557054 1.80184 
vt -0.5428 1.81913 
vt -0.585935 1.63287 
vt -0.589655 1.81913 
vt -0.591371 1.85999 
vt -0.546521 1.63287 
vt -0.546882 1.80679 
vt -0.578498 1.84918 
vt -0.566228 1.64091 
vt -0.546521 1.63287 
vt -0.545471 1.64091 
vt -0.566228 1.63287 
vt -0.566228 1.64804 
vt -0.566228 1.62482 
vt -0.542822 1.64804 
vt -0.544765 1.62482 
vt -0.566228 1.61609 
vt -0.540643 1.61609 
vt -0.56537 1.76072 
vt -0.541106 1.76072 
vt -0.54102 1.77517 
vt -0.566371 1.77517 
vt -0.543594 1.7918 
vt -0.568659 1.78358 
vt -0.572305 1.79564 
vt -0.546882 1.80679 
vt -0.575401 1.80184 
vt -0.553712 1.82158 
vt -0.565976 1.83654 
vt -0.578498 1.84918 
vt -0.589655 1.81913 
vt -0.591371 1.85999 
vt -0.58769 1.62482 
vt -0.566228 1.61609 
vt -0.566228 1.62482 
vt -0.591812 1.61609 
vt -0.585935 1.63287 
vt -0.566228 1.63287 
vt -0.566228 1.64091 
vt -0.586985 1.64091 
vt -0.566228 1.64804 
vt -0.589655 1.64804 
vt -0.589655 1.76072 
vt -0.56537 1.76072 
vt -0.566371 1.77517 
vt -0.589655 1.77517 
vt -0.568659 1.78358 
vt -0.589655 1.78358 
vt -0.572305 1.79564 
vt -0.589655 1.79564 
vt -0.575401 1.80184 
vt -0.589655 1.81913 

usemtl Meshpart2Mtl

f 582/582/582 583/583/583 584/584/584 
f 583/583/583 582/582/582 585/585/585 
f 584/584/584 586/586/586 582/582/582 
f 586/586/586 584/584/584 587/587/587 
f 587/587/587 588/588/588 586/586/586 
f 588/588/588 587/587/587 589/589/589 
f 590/590/590 588/588/588 589/589/589 
f 588/588/588 590/590/590 591/591/591 
f 592/592/592 591/591/591 590/590/590 
f 591/591/591 592/592/592 593/593/593 
f 594/594/594 593/593/593 592/592/592 
f 593/593/593 594/594/594 595/595/595 
f 596/596/596 595/595/595 594/594/594 
f 595/595/595 596/596/596 597/597/597 
f 598/598/598 597/597/597 596/596/596 
f 597/597/597 598/598/598 599/599/599 
f 600/600/600 599/599/599 598/598/598 
f 599/599/599 600/600/600 601/601/601 
f 601/601/601 600/600/600 602/602/602 
f 606/606/606 607/607/607 608/608/608 
f 609/609/609 608/608/608 607/607/607 
f 606/606/606 610/610/610 607/607/607 
f 610/610/610 606/606/606 611/611/611 
f 610/610/610 611/611/611 612/612/612 
f 610/610/610 612/612/612 613/613/613 
f 613/613/613 612/612/612 614/614/614 
f 613/613/613 614/614/614 615/615/615 
f 614/614/614 616/616/616 615/615/615 
f 615/615/615 616/616/616 617/617/617 
f 616/616/616 618/618/618 617/617/617 
f 618/618/618 616/616/616 619/619/619 
f 619/619/619 620/620/620 618/618/618 
f 620/620/620 619/619/619 621/621/621 
f 620/620/620 621/621/621 622/622/622 
f 620/620/620 622/622/622 623/623/623 
f 623/623/623 622/622/622 624/624/624 
f 624/624/624 625/625/625 623/623/623 
f 624/624/624 626/626/626 625/625/625 
f 626/626/626 624/624/624 627/627/627 
f 628/628/628 627/627/627 624/624/624 
f 627/627/627 628/628/628 629/629/629 
f 630/630/630 631/631/631 632/632/632 
f 633/633/633 631/631/631 630/630/630 
f 631/631/631 633/633/633 634/634/634 
f 630/630/630 632/632/632 635/635/635 
f 632/632/632 636/636/636 635/635/635 
f 636/636/636 632/632/632 637/637/637 
f 637/637/637 638/638/638 636/636/636 
f 638/638/638 637/637/637 639/639/639 
f 639/639/639 640/640/640 638/638/638 
f 638/638/638 640/640/640 641/641/641 
f 640/640/640 642/642/642 641/641/641 
f 642/642/642 640/640/640 643/643/643 
f 643/643/643 644/644/644 642/642/642 
f 644/644/644 643/643/643 645/645/645 
f 645/645/645 646/646/646 644/644/644 
f 646/646/646 645/645/645 647/647/647 
f 647/647/647 648/648/648 646/646/646 
f 648/648/648 647/647/647 649/649/649 
f 656/656/656 657/657/657 658/658/658 
f 657/657/657 656/656/656 659/659/659 
f 658/658/658 660/660/660 656/656/656 
f 657/657/657 659/659/659 661/661/661 
f 660/660/660 658/658/658 662/662/662 
f 661/661/661 663/663/663 657/657/657 
f 664/664/664 663/663/663 661/661/661 
f 663/663/663 664/664/664 665/665/665 
f 662/662/662 666/666/666 660/660/660 
f 666/666/666 662/662/662 667/667/667 
f 668/668/668 666/666/666 667/667/667 
f 668/668/668 669/669/669 666/666/666 
f 670/670/670 669/669/669 668/668/668 
f 670/670/670 671/671/671 669/669/669 
f 670/670/670 672/672/672 671/671/671 
f 672/672/672 670/670/670 673/673/673 
f 673/673/673 674/674/674 672/672/672 
f 674/674/674 673/673/673 675/675/675 
f 674/674/674 675/675/675 676/676/676 
f 677/677/677 674/674/674 676/676/676 
f 678/678/678 674/674/674 677/677/677 
f 679/679/679 678/678/678 677/677/677 
f 680/680/680 681/681/681 682/682/682 
f 681/681/681 680/680/680 683/683/683 
f 682/682/682 684/684/684 680/680/680 
f 684/684/684 682/682/682 685/685/685 
f 686/686/686 684/684/684 685/685/685 
f 686/686/686 687/687/687 684/684/684 
f 688/688/688 687/687/687 686/686/686 
f 688/688/688 689/689/689 687/687/687 
f 688/688/688 690/690/690 689/689/689 
f 690/690/690 688/688/688 691/691/691 
f 692/692/692 690/690/690 691/691/691 
f 692/692/692 693/693/693 690/690/690 
f 693/693/693 692/692/692 694/694/694 
f 694/694/694 695/695/695 693/693/693 
f 695/695/695 694/694/694 696/696/696 
f 696/696/696 697/697/697 695/695/695 
f 697/697/697 696/696/696 698/698/698 
f 698/698/698 699/699/699 697/697/697 

g Meshpart3

v -359.867 5.82095 0.0539037 
v -359.867 5.84203 0.0650575 
v -359.89 5.83706 0.0727999 
v -359.89 5.81599 0.0616453 
v -359.928 5.83146 0.0808809 
v -359.928 5.81039 0.0697263 
v -359.996 5.83146 0.0808809 
v -359.996 5.81039 0.0697263 
v -360.034 5.81599 0.0616453 
v -360.034 5.83706 0.0727999 
v -360.058 5.82095 0.0539037 
v -360.058 5.84203 0.0650575 
v -359.834 5.91788 -0.389768 
v -360.091 5.91788 -0.266846 
v -359.834 5.91788 -0.266846 
v -359.834 5.91788 -0.143924 
v -360.091 5.91788 -0.389768 
v -360.091 5.91788 -0.143924 
v -360.091 5.91 -0.451228 
v -360.091 5.91 -0.0824634 
v -359.834 5.91 -0.451228 
v -359.834 5.91 -0.0824634 
v -359.996 5.83146 -0.614572 
v -360.074 5.85227 -0.578174 
v -360.034 5.83706 -0.606491 
v -360.058 5.84203 -0.598749 
v -359.928 5.83146 -0.614572 
v -359.85 5.85227 -0.578174 
v -359.89 5.83706 -0.606491 
v -359.867 5.84203 -0.598749 
v -359.928 5.83146 0.0808809 
v -359.85 5.85227 0.0444821 
v -359.89 5.83706 0.0727999 
v -359.867 5.84203 0.0650575 
v -359.996 5.83146 0.0808809 
v -360.074 5.85227 0.0444821 
v -360.034 5.83706 0.0727999 
v -360.058 5.84203 0.0650575 
v -359.867 5.82095 0.0539037 
v -359.867 5.84203 0.0650575 
v -360.058 5.82095 -0.587595 
v -360.058 5.84203 -0.598749 
v -360.074 5.85227 -0.578174 
v -360.075 5.83047 -0.566663 
v -360.058 5.82095 0.0539037 
v -360.091 5.87848 -0.446657 
v -360.058 5.84203 0.0650575 
v -360.091 5.91 -0.451228 
v -360.074 5.85227 0.0444821 
v -360.091 5.88625 -0.38672 
v -360.075 5.83047 0.0329717 
v -360.091 5.91788 -0.389768 
v -360.091 5.87848 -0.0870342 
v -360.091 5.91788 -0.266846 
v -360.091 5.91 -0.0824634 
v -360.091 5.88625 -0.266846 
v -360.091 5.88625 -0.146971 
v -360.091 5.91788 -0.143924 
v -359.85 5.85227 -0.578174 
v -359.85 5.83047 -0.566663 
v -359.867 5.82095 -0.587595 
v -359.867 5.84203 -0.598749 
v -359.89 5.83706 -0.606491 
v -359.89 5.81599 -0.595337 
v -359.928 5.83146 -0.614572 
v -359.928 5.81039 -0.603418 
v -359.996 5.83146 -0.614572 
v -359.996 5.81039 -0.603418 
v -360.034 5.81599 -0.595337 
v -360.034 5.83706 -0.606491 
v -360.058 5.82095 -0.587595 
v -360.058 5.84203 -0.598749 
v -359.834 5.88625 -0.38672 
v -360.091 5.88625 -0.38672 
v -359.834 5.87848 -0.446657 
v -360.091 5.88625 -0.266846 
v -359.834 5.88625 -0.266846 
v -360.091 5.87848 -0.446657 
v -359.834 5.88625 -0.146971 
v -360.091 5.88625 -0.146971 
v -359.834 5.87848 -0.0870342 
v -360.091 5.87848 -0.0870342 
v -359.928 5.81039 -0.603418 
v -359.85 5.83047 -0.566663 
v -359.89 5.81599 -0.595337 
v -359.867 5.82095 -0.587595 
v -359.996 5.81039 -0.603418 
v -360.075 5.83047 -0.566663 
v -360.034 5.81599 -0.595337 
v -360.058 5.82095 -0.587595 
v -359.996 5.81039 0.0697263 
v -360.075 5.83047 0.0329717 
v -360.034 5.81599 0.0616453 
v -360.058 5.82095 0.0539037 
v -359.928 5.81039 0.0697263 
v -359.85 5.83047 0.0329717 
v -359.89 5.81599 0.0616453 
v -359.867 5.82095 0.0539037 
v -359.834 5.91788 -0.266846 
v -359.834 5.88625 -0.38672 
v -359.834 5.91788 -0.389768 
v -359.834 5.91 -0.451228 
v -359.834 5.88625 -0.266846 
v -359.834 5.87848 -0.446657 
v -359.834 5.88625 -0.146971 
v -359.85 5.85227 -0.578174 
v -359.834 5.91788 -0.143924 
v -359.85 5.83047 -0.566663 
v -359.834 5.91 -0.0824634 
v -359.867 5.82095 -0.587595 
v -359.834 5.87848 -0.0870342 
v -359.867 5.84203 -0.598749 
v -359.85 5.85227 0.0444821 
v -359.85 5.83047 0.0329717 
v -359.867 5.82095 0.0539037 
v -359.867 5.84203 0.0650575 

vn 0.614173 -0.370079 0.700787 
vn 0.614173 -0.370079 0.700787 
vn 0.307087 -0.448819 0.84252 
vn 0.307087 -0.448819 0.84252 
vn 0.125984 -0.464567 0.874016 
vn 0.125984 -0.464567 0.874016 
vn -0.125984 -0.464567 0.874016 
vn -0.125984 -0.464567 0.874016 
vn -0.307087 -0.448819 0.84252 
vn -0.307087 -0.448819 0.84252 
vn -0.614173 -0.370079 0.700787 
vn -0.614173 -0.370079 0.700787 
vn 0 1 -0.0629921 
vn 0 1 0 
vn 0 1 0 
vn 0 1 0.0629921 
vn 0 1 -0.0629921 
vn 0 1 0.0629921 
vn 0 0.96063 -0.275591 
vn 0 0.96063 0.275591 
vn 0 0.96063 -0.275591 
vn 0 0.96063 0.275591 
vn 0 0.905512 -0.425197 
vn 0 0.905512 -0.425197 
vn 0 0.905512 -0.425197 
vn 0 0.905512 -0.425197 
vn 0 0.905512 -0.425197 
vn 0 0.905512 -0.425197 
vn 0 0.905512 -0.425197 
vn 0 0.905512 -0.425197 
vn 0 0.905512 0.425197 
vn 0 0.905512 0.425197 
vn 0 0.905512 0.425197 
vn 0 0.905512 0.425197 
vn 0 0.905512 0.425197 
vn 0 0.905512 0.425197 
vn 0 0.905512 0.425197 
vn 0 0.905512 0.425197 
vn 0.614173 -0.370079 0.700787 
vn 0.614173 -0.370079 0.700787 
vn -0.614173 -0.370079 -0.700787 
vn -0.614173 -0.370079 -0.700787 
vn -0.929134 -0.15748 -0.330709 
vn -0.937008 -0.149606 -0.314961 
vn -0.614173 -0.370079 0.700787 
vn -1 -0.015748 -0.0629921 
vn -0.614173 -0.370079 0.700787 
vn -1 -0.015748 -0.0551181 
vn -0.929134 -0.15748 0.330709 
vn -1 0 0 
vn -0.937008 -0.149606 0.314961 
vn -1 0 0 
vn -1 -0.015748 0.0629921 
vn -1 0 0 
vn -1 -0.015748 0.0551181 
vn -1 0 0 
vn -1 0 0 
vn -1 0 0 
vn 0.929134 -0.15748 -0.330709 
vn 0.937008 -0.149606 -0.314961 
vn 0.614173 -0.370079 -0.700787 
vn 0.614173 -0.370079 -0.700787 
vn 0.307087 -0.448819 -0.84252 
vn 0.307087 -0.448819 -0.84252 
vn 0.125984 -0.464567 -0.874016 
vn 0.125984 -0.464567 -0.874016 
vn -0.125984 -0.464567 -0.874016 
vn -0.125984 -0.464567 -0.874016 
vn -0.307087 -0.448819 -0.84252 
vn -0.307087 -0.448819 -0.84252 
vn -0.614173 -0.370079 -0.700787 
vn -0.614173 -0.370079 -0.700787 
vn 0 -1 0.0629921 
vn 0 -1 0.0629921 
vn 0 -0.968504 0.259843 
vn 0 -1 0 
vn 0 -1 0 
vn 0 -0.968504 0.259843 
vn 0 -1 -0.0629921 
vn 0 -1 -0.0629921 
vn 0 -0.968504 -0.251969 
vn 0 -0.968504 -0.251969 
vn 0 -0.92126 0.385827 
vn 0 -0.92126 0.385827 
vn 0 -0.92126 0.385827 
vn 0 -0.92126 0.385827 
vn 0 -0.92126 0.385827 
vn 0 -0.92126 0.385827 
vn 0 -0.92126 0.385827 
vn 0 -0.92126 0.385827 
vn 0 -0.92126 -0.385827 
vn 0 -0.92126 -0.385827 
vn 0 -0.92126 -0.385827 
vn 0 -0.92126 -0.385827 
vn 0 -0.92126 -0.385827 
vn 0 -0.92126 -0.385827 
vn 0 -0.92126 -0.385827 
vn 0 -0.92126 -0.385827 
vn 1 0 0 
vn 1 0 0 
vn 1 0 0 
vn 1 -0.015748 -0.0551181 
vn 1 0 0 
vn 1 -0.015748 -0.0629921 
vn 1 0 0 
vn 0.929134 -0.15748 -0.330709 
vn 1 0 0 
vn 0.937008 -0.149606 -0.314961 
vn 1 -0.015748 0.0551181 
vn 0.614173 -0.370079 -0.700787 
vn 1 -0.015748 0.0629921 
vn 0.614173 -0.370079 -0.700787 
vn 0.929134 -0.15748 0.330709 
vn 0.937008 -0.149606 0.314961 
vn 0.614173 -0.370079 0.700787 
vn 0.614173 -0.370079 0.700787 

vt 0.32189 1.46806 
vt 0.32189 1.47069 
vt 0.318936 1.47007 
vt 0.318936 1.46744 
vt 0.314177 1.46937 
vt 0.314177 1.46674 
vt 0.305713 1.46937 
vt 0.305713 1.46674 
vt 0.300954 1.46744 
vt 0.300954 1.47007 
vt 0.298 1.46806 
vt 0.298 1.47069 
vt 0.32531 1.45741 
vt 0.309945 1.4895 
vt 0.309945 1.45741 
vt 0.29458 1.45741 
vt 0.32531 1.4895 
vt 0.29458 1.4895 
vt 0.332993 1.4895 
vt 0.286897 1.4895 
vt 0.332993 1.45741 
vt 0.286897 1.45741 
vt 0.353411 1.47769 
vt 0.348861 1.48746 
vt 0.352401 1.48245 
vt 0.351433 1.4854 
vt 0.353411 1.46922 
vt 0.348861 1.45945 
vt 0.352401 1.46446 
vt 0.351433 1.46151 
vt 0.266479 1.46922 
vt 0.271029 1.45945 
vt 0.267489 1.46446 
vt 0.268457 1.46151 
vt 0.266479 1.47769 
vt 0.271029 1.48746 
vt 0.267489 1.48245 
vt 0.268457 1.4854 
vt 0.350039 1.46806 
vt 0.351433 1.47069 
vt 0.269852 1.46806 
vt 0.268457 1.47069 
vt 0.271029 1.47197 
vt 0.272468 1.46925 
vt 0.350039 1.46806 
vt 0.287469 1.47525 
vt 0.351433 1.47069 
vt 0.286897 1.47919 
vt 0.348861 1.47197 
vt 0.294961 1.47622 
vt 0.347422 1.46925 
vt 0.29458 1.48017 
vt 0.332422 1.47525 
vt 0.309945 1.48017 
vt 0.332993 1.47919 
vt 0.309945 1.47622 
vt 0.324929 1.47622 
vt 0.32531 1.48017 
vt 0.295941 1.47197 
vt 0.295923 1.46925 
vt 0.298 1.46806 
vt 0.298 1.47069 
vt 0.300954 1.47007 
vt 0.300954 1.46744 
vt 0.305713 1.46937 
vt 0.305713 1.46674 
vt 0.314177 1.46937 
vt 0.314177 1.46674 
vt 0.318936 1.46744 
vt 0.318936 1.47007 
vt 0.32189 1.46806 
vt 0.32189 1.47069 
vt 0.294961 1.45741 
vt 0.294961 1.4895 
vt 0.287469 1.45741 
vt 0.309945 1.4895 
vt 0.309945 1.45741 
vt 0.287469 1.4895 
vt 0.324929 1.45741 
vt 0.324929 1.4895 
vt 0.332422 1.45741 
vt 0.332422 1.4895 
vt 0.267874 1.46922 
vt 0.272468 1.45943 
vt 0.268884 1.46446 
vt 0.269852 1.46151 
vt 0.267874 1.47769 
vt 0.272468 1.48748 
vt 0.268884 1.48245 
vt 0.269852 1.4854 
vt 0.352017 1.47769 
vt 0.347422 1.48748 
vt 0.351007 1.48245 
vt 0.350039 1.4854 
vt 0.352017 1.46922 
vt 0.347422 1.45943 
vt 0.351007 1.46446 
vt 0.350039 1.46151 
vt 0.309945 1.48017 
vt 0.324929 1.47622 
vt 0.32531 1.48017 
vt 0.332993 1.47919 
vt 0.309945 1.47622 
vt 0.332422 1.47525 
vt 0.294961 1.47622 
vt 0.348861 1.47197 
vt 0.29458 1.48017 
vt 0.347422 1.46925 
vt 0.286897 1.47919 
vt 0.350039 1.46806 
vt 0.287469 1.47525 
vt 0.351433 1.47069 
vt 0.271029 1.47197 
vt 0.272468 1.46925 
vt 0.269852 1.46806 
vt 0.268457 1.47069 

usemtl Meshpart1Mtl

f 701/701/701 702/702/702 700/700/700 
f 700/700/700 702/702/702 703/703/703 
f 702/702/702 704/704/704 703/703/703 
f 703/703/703 704/704/704 705/705/705 
f 704/704/704 706/706/706 705/705/705 
f 705/705/705 706/706/706 707/707/707 
f 706/706/706 708/708/708 707/707/707 
f 708/708/708 706/706/706 709/709/709 
f 709/709/709 710/710/710 708/708/708 
f 710/710/710 709/709/709 711/711/711 
f 712/712/712 713/713/713 714/714/714 
f 714/714/714 713/713/713 715/715/715 
f 713/713/713 712/712/712 716/716/716 
f 715/715/715 713/713/713 717/717/717 
f 712/712/712 718/718/718 716/716/716 
f 715/715/715 717/717/717 719/719/719 
f 720/720/720 718/718/718 712/712/712 
f 719/719/719 721/721/721 715/715/715 
f 720/720/720 722/722/722 718/718/718 
f 722/722/722 723/723/723 718/718/718 
f 723/723/723 722/722/722 724/724/724 
f 723/723/723 724/724/724 725/725/725 
f 722/722/722 720/720/720 726/726/726 
f 727/727/727 726/726/726 720/720/720 
f 726/726/726 727/727/727 728/728/728 
f 728/728/728 727/727/727 729/729/729 
f 719/719/719 730/730/730 721/721/721 
f 721/721/721 730/730/730 731/731/731 
f 731/731/731 730/730/730 732/732/732 
f 731/731/731 732/732/732 733/733/733 
f 730/730/730 719/719/719 734/734/734 
f 735/735/735 734/734/734 719/719/719 
f 734/734/734 735/735/735 736/736/736 
f 736/736/736 735/735/735 737/737/737 
f 742/742/742 741/741/741 740/740/740 
f 743/743/743 742/742/742 740/740/740 
f 745/745/745 742/742/742 743/743/743 
f 742/742/742 745/745/745 747/747/747 
f 748/748/748 744/744/744 746/746/746 
f 749/749/749 747/747/747 745/745/745 
f 744/744/744 748/748/748 750/750/750 
f 747/747/747 749/749/749 751/751/751 
f 748/748/748 752/752/752 750/750/750 
f 751/751/751 749/749/749 753/753/753 
f 752/752/752 748/748/748 754/754/754 
f 749/749/749 755/755/755 753/753/753 
f 756/756/756 752/752/752 754/754/754 
f 756/756/756 753/753/753 755/755/755 
f 756/756/756 754/754/754 757/757/757 
f 753/753/753 756/756/756 757/757/757 
f 761/761/761 760/760/760 762/762/762 
f 760/760/760 763/763/763 762/762/762 
f 764/764/764 762/762/762 763/763/763 
f 763/763/763 765/765/765 764/764/764 
f 766/766/766 764/764/764 765/765/765 
f 765/765/765 767/767/767 766/766/766 
f 768/768/768 766/766/766 767/767/767 
f 766/766/766 768/768/768 769/769/769 
f 770/770/770 769/769/769 768/768/768 
f 769/769/769 770/770/770 771/771/771 
f 772/772/772 773/773/773 774/774/774 
f 772/772/772 775/775/775 773/773/773 
f 776/776/776 775/775/775 772/772/772 
f 774/774/774 773/773/773 777/777/777 
f 775/775/775 776/776/776 778/778/778 
f 778/778/778 779/779/779 775/775/775 
f 779/779/779 778/778/778 780/780/780 
f 780/780/780 781/781/781 779/779/779 
f 777/777/777 782/782/782 774/774/774 
f 782/782/782 783/783/783 774/774/774 
f 783/783/783 782/782/782 784/784/784 
f 783/783/783 784/784/784 785/785/785 
f 782/782/782 777/777/777 786/786/786 
f 787/787/787 786/786/786 777/777/777 
f 786/786/786 787/787/787 788/788/788 
f 788/788/788 787/787/787 789/789/789 
f 780/780/780 790/790/790 781/781/781 
f 781/781/781 790/790/790 791/791/791 
f 791/791/791 790/790/790 792/792/792 
f 791/791/791 792/792/792 793/793/793 
f 790/790/790 780/780/780 794/794/794 
f 795/795/795 794/794/794 780/780/780 
f 794/794/794 795/795/795 796/796/796 
f 796/796/796 795/795/795 797/797/797 
f 798/798/798 799/799/799 800/800/800 
f 799/799/799 801/801/801 800/800/800 
f 799/799/799 798/798/798 802/802/802 
f 801/801/801 799/799/799 803/803/803 
f 798/798/798 804/804/804 802/802/802 
f 805/805/805 801/801/801 803/803/803 
f 804/804/804 798/798/798 806/806/806 
f 805/805/805 803/803/803 807/807/807 
f 808/808/808 804/804/804 806/806/806 
f 809/809/809 805/805/805 807/807/807 
f 804/804/804 808/808/808 810/810/810 
f 805/805/805 809/809/809 811/811/811 
f 812/812/812 810/810/810 808/808/808 
f 813/813/813 810/810/810 812/812/812 
f 812/812/812 814/814/814 813/813/813 
f 814/814/814 812/812/812 815/815/815 

