# This file is brought to you by Roblox Corporation
# Generated by Roblox Studio

mtllib Warpstone.mtl

g Meshpart1

v -111.139 5.22565 0.166789 
v -110.965 4.97616 -0.18868 
v -110.754 4.5317 0.137945 
v -110.946 4.75042 0.604289 
v -111.139 5.22565 0.166789 
v -110.946 4.75042 0.604289 
v -111.039 5.40386 0.444975 
v -110.812 5.32309 0.852482 
v -110.47 4.5556 -0.119596 
v -110.965 4.97616 -0.18868 
v -110.569 4.93496 -0.404331 
v -110.754 4.5317 0.137945 
v -111.139 5.22565 0.166789 
v -110.788 5.44291 -0.350544 
v -110.965 4.97616 -0.18868 
v -110.884 5.6623 -0.149139 
v -111.139 5.22565 0.166789 
v -111.039 5.40386 0.444975 
v -110.919 5.6346 0.401985 
v -110.965 4.97616 -0.18868 
v -110.788 5.44291 -0.350544 
v -110.569 4.93496 -0.404331 
v -110.919 5.6346 0.401985 
v -110.884 5.6623 -0.149139 
v -111.139 5.22565 0.166789 
v -110.569 4.93496 -0.404331 
v -110.012 4.70128 -0.205427 
v -110.47 4.5556 -0.119596 
v -110.754 4.5317 0.137945 
v -110.47 4.5556 -0.119596 
v -110.214 4.55536 0.46812 
v -110.946 4.75042 0.604289 
v -110.214 4.55536 0.46812 
v -110.245 4.6059 0.594391 
v -110.299 4.69485 0.816641 
v -110.612 5.87699 -0.0821047 
v -110.398 5.51258 -0.41193 
v -110.788 5.44291 -0.350544 
v -110.884 5.6623 -0.149139 
v -110.612 5.87699 -0.0821047 
v -110.884 5.6623 -0.149139 
v -110.919 5.6346 0.401985 
v -110.47 4.5556 -0.119596 
v -110.012 4.70128 -0.205427 
v -110.106 4.63346 0.107602 
v -110.214 4.55536 0.46812 
v -110.798 5.36153 0.763453 
v -110.873 5.579 0.448924 
v -110.957 5.41791 0.478918 
v -110.09 5.20687 -0.383786 
v -110.012 4.70128 -0.205427 
v -110.569 4.93496 -0.404331 
v -110.462 5.53683 0.90607 
v -110.206 5.64397 0.764802 
v -110.501 5.84075 0.497513 
v -110.713 5.73625 0.449124 
v -110.612 5.87699 -0.0821047 
v -110.919 5.6346 0.401985 
v -110.501 5.84075 0.497513 
v -110.501 5.84075 0.497513 
v -110.713 5.73625 0.449124 
v -110.462 5.53683 0.90607 
v -110.09 5.20687 -0.383786 
v -109.781 5.03912 -0.0952018 
v -110.012 4.70128 -0.205427 
v -110.299 4.69485 0.816641 
v -110.462 5.53683 0.90607 
v -110.812 5.32309 0.852482 
v -110.812 5.32309 0.852482 
v -110.946 4.75042 0.604289 
v -110.024 4.94963 0.781899 
v -110.462 5.53683 0.90607 
v -110.501 5.84075 0.497513 
v -110.193 5.8997 0.100754 
v -110.612 5.87699 -0.0821047 
v -110.024 4.94963 0.781899 
v -110.299 4.69485 0.816641 
v -110.245 4.6059 0.594391 
v -110.09 5.20687 -0.383786 
v -110.398 5.51258 -0.41193 
v -109.986 5.59227 -0.179433 
v -111.039 5.40397 0.444975 
v -110.812 5.3232 0.852482 
v -110.798 5.36153 0.763453 
v -110.957 5.41791 0.478918 
v -110.729 5.64996 0.481817 
v -110.873 5.579 0.448924 
v -110.554 5.51074 0.800844 
v -110.713 5.73637 0.449124 
v -110.729 5.64996 0.481817 
v -110.462 5.53694 0.90607 
v -110.812 5.3232 0.852482 
v -110.554 5.51074 0.800844 
v -110.798 5.36153 0.763453 
v -110.398 5.51258 -0.41193 
v -110.112 5.78058 -0.00782165 
v -109.986 5.59227 -0.179433 
v -110.612 5.87699 -0.0821047 
v -110.193 5.8997 0.100754 
v -110.012 4.70128 -0.205427 
v -109.943 4.77406 0.1151 
v -110.106 4.63346 0.107602 
v -109.781 5.03912 -0.0952018 
v -109.871 4.85046 0.451624 
v -110.462 5.43933 -0.342046 
v -110.534 5.0888 -0.335497 
v -110.682 5.40001 -0.307403 
v -109.781 5.03912 -0.0952018 
v -109.645 5.29143 0.218527 
v -109.871 4.85046 0.451624 
v -110.206 5.64397 0.764802 
v -110.462 5.53683 0.90607 
v -110.024 4.94963 0.781899 
v -109.824 5.55391 0.585943 
v -110.398 5.51264 -0.41193 
v -110.09 5.20693 -0.383786 
v -110.264 5.24225 -0.3239 
v -110.462 5.43933 -0.342046 
v -110.462 5.43933 -0.342046 
v -110.534 5.0888 -0.335497 
v -110.569 4.93502 -0.404331 
v -110.264 5.24225 -0.3239 
v -110.534 5.0888 -0.335497 
v -110.078 5.79211 0.251719 
v -110.206 5.64397 0.764802 
v -109.824 5.55391 0.585943 
v -110.501 5.84075 0.497513 
v -110.193 5.8997 0.100754 
v -110.09 5.20687 -0.383786 
v -109.788 5.41836 0.050615 
v -109.781 5.03912 -0.0952018 
v -109.645 5.29143 0.218527 
v -109.986 5.59227 -0.179433 
v -109.747 5.44203 0.429329 
v -109.871 4.85046 0.451624 
v -109.645 5.29143 0.218527 
v -109.824 5.55391 0.585943 
v -109.871 4.85046 0.451624 
v -109.824 5.55391 0.585943 
v -110.024 4.94963 0.781899 
v -110.211 4.65669 0.450974 
v -110.09 4.90684 0.650029 
v -110.23 4.68876 0.531056 
v -109.992 4.84392 0.440476 
v -110.078 5.79211 0.251719 
v -110.112 5.78058 -0.00782165 
v -110.193 5.8997 0.100754 
v -109.992 4.84392 0.440476 
v -110.211 4.65669 0.450974 
v -110.142 4.70625 0.222226 
v -110.038 4.79545 0.226975 
v -109.788 5.41836 0.050615 
v -109.747 5.44203 0.429329 
v -109.645 5.29143 0.218527 
v -110.919 5.63471 0.402035 
v -110.729 5.64996 0.481817 
v -110.713 5.73637 0.449124 
v -110.873 5.579 0.448924 
v -110.957 5.41791 0.478918 
v -110.873 5.579 0.448924 
v -111.039 5.40397 0.444975 
v -110.142 4.70625 0.222226 
v -110.106 4.63357 0.107602 
v -110.038 4.79545 0.226975 
v -109.943 4.77417 0.1151 
v -109.871 4.85058 0.451624 
v -109.992 4.84392 0.440476 
v -109.943 4.77417 0.1151 
v -109.883 5.44058 0.107152 
v -110.093 5.67503 0.0693108 
v -110.07 5.68249 0.237323 
v -110.011 5.55315 -0.0417639 
v -109.856 5.4559 0.352296 
v -109.906 5.52831 0.453673 
v -110.011 5.55315 -0.0417639 
v -110.113 5.78069 -0.00782165 
v -109.986 5.59239 -0.179433 
v -109.871 4.85058 0.451624 
v -110.024 4.94974 0.781899 
v -110.09 4.90684 0.650029 
v -109.992 4.84392 0.440476 
v -110.788 5.44296 -0.350544 
v -110.534 5.0888 -0.335497 
v -110.569 4.93502 -0.404331 
v -110.682 5.40001 -0.307403 
v -109.906 5.52831 0.453673 
v -109.747 5.44214 0.429379 
v -109.856 5.4559 0.352296 
v -109.824 5.55402 0.585943 
v -109.789 5.41847 0.050615 
v -109.856 5.4559 0.352296 
v -109.883 5.44058 0.107152 
v -110.011 5.55315 -0.0417639 
v -109.789 5.41847 0.050615 
v -109.986 5.59239 -0.179433 
v -109.883 5.44058 0.107152 
v -110.078 5.79222 0.251719 
v -110.093 5.67503 0.0693108 
v -110.113 5.78069 -0.00782165 
v -110.07 5.68249 0.237323 
v -110.398 5.51264 -0.41193 
v -110.682 5.40001 -0.307403 
v -110.788 5.44296 -0.350544 
v -110.462 5.43933 -0.342046 
v -110.078 5.79222 0.251719 
v -109.824 5.55402 0.585943 
v -109.906 5.52831 0.453673 
v -110.07 5.68249 0.237323 
v -110.245 4.60601 0.594391 
v -110.09 4.90684 0.650029 
v -110.024 4.94974 0.781899 
v -110.23 4.68876 0.531056 
v -110.214 4.55547 0.46812 
v -110.106 4.63357 0.107602 
v -110.142 4.70625 0.222226 
v -110.211 4.65669 0.450974 
v -110.214 4.55547 0.46812 
v -110.23 4.68876 0.531056 
v -110.245 4.60601 0.594391 
v -110.211 4.65669 0.450974 

vn -0.944882 -0.291339 0.141732 
vn -0.874016 -0.480315 -0.11811 
vn -0.874016 -0.480315 -0.11811 
vn -0.944882 -0.283465 0.149606 
vn -0.944882 -0.291339 0.141732 
vn -0.944882 -0.283465 0.149606 
vn -0.897638 -0.023622 0.433071 
vn -0.897638 -0.023622 0.433071 
vn -0.448819 -0.637795 -0.629921 
vn -0.653543 -0.228346 -0.716535 
vn -0.488189 -0.440945 -0.755906 
vn -0.448819 -0.637795 -0.629921 
vn -0.84252 0.125984 -0.519685 
vn -0.755906 0.0551181 -0.653543 
vn -0.653543 -0.228346 -0.716535 
vn -0.84252 0.125984 -0.519685 
vn -0.874016 0.480315 -0.015748 
vn -0.889764 0.464567 0.023622 
vn -0.826772 0.566929 -0.00787402 
vn -0.653543 -0.228346 -0.716535 
vn -0.755906 0.0551181 -0.653543 
vn -0.488189 -0.440945 -0.755906 
vn -0.826772 0.566929 -0.00787402 
vn -0.732283 0.685039 -0.00787402 
vn -0.874016 0.480315 -0.015748 
vn 0.125984 -0.448819 -0.88189 
vn 0.314961 -0.362205 -0.874016 
vn 0.0393701 -0.590551 -0.80315 
vn -0.0629921 -0.984252 0.181102 
vn 0.0629921 -1 -0.023622 
vn -0.125984 -0.96063 0.251969 
vn -0.181102 -0.92126 0.346457 
vn -0.125984 -0.96063 0.251969 
vn -0.188976 -0.929134 0.322835 
vn -0.188976 -0.929134 0.322835 
vn 0.00787402 0.677165 -0.732283 
vn 0.133858 0.606299 -0.787402 
vn -0.244094 0.582677 -0.779528 
vn -0.244094 0.582677 -0.779528 
vn -0.622047 0.787402 0 
vn -0.732283 0.685039 -0.00787402 
vn -0.826772 0.566929 -0.00787402 
vn 0.275591 -0.952756 -0.125984 
vn 0.606299 -0.795276 -0.0629921 
vn 0.393701 -0.913386 -0.0787402 
vn 0.275591 -0.952756 -0.125984 
vn -0.448819 0.80315 0.393701 
vn -0.480315 0.472441 0.740157 
vn -0.480315 0.645669 0.590551 
vn 0.385827 -0.251969 -0.889764 
vn 0.314961 -0.362205 -0.874016 
vn 0.125984 -0.448819 -0.88189 
vn -0.149606 0.787402 0.598425 
vn 0.188976 0.866142 0.464567 
vn -0.149606 0.913386 0.377953 
vn -0.472441 0.84252 0.259843 
vn -0.259843 0.96063 0.110236 
vn -0.464567 0.874016 0.141732 
vn -0.149606 0.913386 0.377953 
vn -0.149606 0.913386 0.377953 
vn -0.472441 0.84252 0.259843 
vn -0.149606 0.787402 0.598425 
vn 0.385827 -0.251969 -0.889764 
vn 0.622047 -0.173228 -0.76378 
vn 0.314961 -0.362205 -0.874016 
vn -0.0551181 -0.173228 0.984252 
vn 0.188976 0 0.984252 
vn -0.173228 -0.19685 0.96063 
vn -0.173228 -0.19685 0.96063 
vn -0.322835 -0.314961 0.897638 
vn 0.291339 0.015748 0.96063 
vn 0.188976 0 0.984252 
vn -0.149606 0.913386 0.377953 
vn 0.11811 0.968504 0.220472 
vn -0.259843 0.96063 0.110236 
vn 0.645669 -0.637795 0.417323 
vn 0.645669 -0.637795 0.417323 
vn 0.645669 -0.637795 0.417323 
vn 0.629921 0.267717 -0.732283 
vn 0.133858 0.606299 -0.787402 
vn 0.511811 0.464567 -0.724409 
vn -0.385827 0.629921 0.677165 
vn -0.456693 0.84252 0.291339 
vn -0.448819 0.80315 0.393701 
vn -0.480315 0.645669 0.590551 
vn -0.559055 0.480315 0.677165 
vn -0.480315 0.472441 0.740157 
vn -0.637795 0.614173 0.464567 
vn -0.574803 0.377953 0.724409 
vn -0.559055 0.480315 0.677165 
vn -0.653543 0.629921 0.417323 
vn -0.456693 0.84252 0.291339 
vn -0.637795 0.614173 0.464567 
vn -0.448819 0.80315 0.393701 
vn 0.133858 0.606299 -0.787402 
vn 0.228346 0.732283 -0.645669 
vn 0.511811 0.464567 -0.724409 
vn 0.00787402 0.677165 -0.732283 
vn 0.228346 0.732283 -0.645669 
vn 0.606299 -0.795276 -0.0629921 
vn 0.787402 -0.614173 -0.0314961 
vn 0.393701 -0.913386 -0.0787402 
vn 0.858268 -0.511811 -0.0393701 
vn 0.866142 -0.503937 -0.0314961 
vn -0.125984 -0.417323 -0.897638 
vn 0.0944882 0.283465 -0.952756 
vn 0.165354 -0.188976 -0.968504 
vn 0.858268 -0.511811 -0.0393701 
vn 0.889764 -0.464567 -0.015748 
vn 0.866142 -0.503937 -0.0314961 
vn 0.440945 0.133858 0.889764 
vn 0.188976 0 0.984252 
vn 0.291339 0.015748 0.96063 
vn 0.448819 0.141732 0.88189 
vn -0.244094 -0.543307 -0.80315 
vn -0.322835 0.0314961 -0.944882 
vn -0.244094 -0.023622 -0.968504 
vn -0.125984 -0.417323 -0.897638 
vn -0.125984 -0.417323 -0.897638 
vn 0.0944882 0.283465 -0.952756 
vn 0.0787402 0.393701 -0.913386 
vn -0.244094 -0.023622 -0.968504 
vn 0.0944882 0.283465 -0.952756 
vn 0.330709 0.88189 0.346457 
vn 0.188976 0.866142 0.464567 
vn 0.330709 0.88189 0.346457 
vn -0.149606 0.913386 0.377953 
vn 0.11811 0.968504 0.220472 
vn 0.629921 0.267717 -0.732283 
vn 0.771654 0.19685 -0.598425 
vn 0.771654 0.19685 -0.598425 
vn 0.771654 0.19685 -0.598425 
vn 0.511811 0.464567 -0.724409 
vn 0.84252 -0.15748 0.519685 
vn 0.866142 -0.149606 0.480315 
vn 0.84252 -0.15748 0.519685 
vn 0.858268 -0.149606 0.496063 
vn 0.866142 -0.149606 0.480315 
vn 0.858268 -0.149606 0.496063 
vn 0.88189 -0.141732 0.448819 
vn 0.897638 -0.314961 0.291339 
vn 0.590551 -0.795276 0.0944882 
vn 0.897638 -0.409449 0.149606 
vn 0.299213 -0.913386 0.267717 
vn 0.76378 0.629921 -0.133858 
vn 0.76378 0.629921 -0.133858 
vn 0.76378 0.629921 -0.133858 
vn 0.299213 -0.913386 0.267717 
vn 0.897638 -0.314961 0.291339 
vn 0.826772 -0.464567 0.322835 
vn 0.417323 -0.866142 0.291339 
vn 0.732283 0.669291 -0.11811 
vn 0.732283 0.669291 -0.11811 
vn 0.732283 0.669291 -0.11811 
vn -0.393701 0.377953 0.834646 
vn -0.559055 0.480315 0.677165 
vn -0.574803 0.377953 0.724409 
vn -0.480315 0.472441 0.740157 
vn -0.480315 0.645669 0.590551 
vn -0.480315 0.472441 0.740157 
vn -0.385827 0.629921 0.677165 
vn 0.826772 -0.464567 0.322835 
vn 0.732283 -0.448819 0.511811 
vn 0.417323 -0.866142 0.291339 
vn 0.330709 -0.834646 0.440945 
vn 0.0314961 -0.968504 0.259843 
vn 0.299213 -0.913386 0.267717 
vn 0.330709 -0.834646 0.440945 
vn 0.488189 0.874016 0.023622 
vn 0.92126 0.385827 -0.015748 
vn 0.897638 0.338583 -0.283465 
vn 0.708661 0.677165 0.181102 
vn 0.480315 0.858268 -0.188976 
vn 0.716535 0.551181 -0.425197 
vn 0.708661 0.677165 0.181102 
vn 0.96063 0.251969 0.0944882 
vn 0.716535 0.622047 0.307087 
vn 0.0314961 -0.968504 0.259843 
vn 0.488189 -0.874016 0.0393701 
vn 0.590551 -0.795276 0.0944882 
vn 0.299213 -0.913386 0.267717 
vn 0.291339 -0.19685 -0.937008 
vn 0.0944882 0.283465 -0.952756 
vn 0.0787402 0.393701 -0.913386 
vn 0.165354 -0.188976 -0.968504 
vn 0.716535 0.551181 -0.425197 
vn 0.322835 0.897638 -0.299213 
vn 0.480315 0.858268 -0.188976 
vn 0.622047 0.598425 -0.503937 
vn 0.307087 0.944882 0.133858 
vn 0.480315 0.858268 -0.188976 
vn 0.488189 0.874016 0.023622 
vn 0.708661 0.677165 0.181102 
vn 0.307087 0.944882 0.133858 
vn 0.716535 0.622047 0.307087 
vn 0.488189 0.874016 0.023622 
vn 0.937008 0.110236 -0.322835 
vn 0.92126 0.385827 -0.015748 
vn 0.96063 0.251969 0.0944882 
vn 0.897638 0.338583 -0.283465 
vn -0.244094 -0.543307 -0.80315 
vn 0.165354 -0.188976 -0.968504 
vn 0.291339 -0.19685 -0.937008 
vn -0.125984 -0.417323 -0.897638 
vn 0.937008 0.110236 -0.322835 
vn 0.622047 0.598425 -0.503937 
vn 0.716535 0.551181 -0.425197 
vn 0.897638 0.338583 -0.283465 
vn 0.984252 -0.19685 -0.023622 
vn 0.590551 -0.795276 0.0944882 
vn 0.488189 -0.874016 0.0393701 
vn 0.897638 -0.409449 0.149606 
vn 0.968504 0.00787402 0.259843 
vn 0.732283 -0.448819 0.511811 
vn 0.826772 -0.464567 0.322835 
vn 0.897638 -0.314961 0.291339 
vn 0.968504 0.00787402 0.259843 
vn 0.897638 -0.409449 0.149606 
vn 0.984252 -0.19685 -0.023622 
vn 0.897638 -0.314961 0.291339 

vt 0.360169 0.517494 
vt 0.285768 0.469497 
vt 0.334299 0.37278 
vt 0.426609 0.414503 
vt 0.360169 0.517494 
vt 0.426609 0.414503 
vt 0.402629 0.533198 
vt 0.45464 0.496391 
vt 0.276788 0.367775 
vt 0.285768 0.469497 
vt 0.232591 0.44204 
vt 0.334299 0.37278 
vt 0.856138 0.354328 
vt 0.7703 0.260658 
vt 0.856073 0.248587 
vt 0.758017 0.329698 
vt 0.767258 0.544963 
vt 0.702253 0.551535 
vt 0.684512 0.503014 
vt 0.767258 0.483649 
vt 0.767258 0.36513 
vt 0.841895 0.449828 
vt 0.684512 0.503014 
vt 0.767258 0.415732 
vt 0.767258 0.544963 
vt 0.865061 0.037117 
vt 0.7491 0.121898 
vt 0.762054 0.014521 
vt 0.636709 0.118354 
vt 0.692528 0.060045 
vt 0.722032 0.189449 
vt 0.628758 0.231756 
vt 0.722032 0.189449 
vt 0.722032 0.219694 
vt 0.722032 0.272929 
vt 0.307029 0.087974 
vt 0.213149 0.161879 
vt 0.187156 0.086752 
vt 0.246061 0.048972 
vt 0.70829 0.36513 
vt 0.767258 0.415732 
vt 0.684512 0.503014 
vt 0.788468 0.732593 
vt 0.788468 0.631639 
vt 0.850042 0.674883 
vt 0.920957 0.724688 
vt 0.181344 0.787185 
vt 0.075966 0.907668 
vt 0.058057 0.836797 
vt 0.865061 0.161415 
vt 0.7491 0.121898 
vt 0.865061 0.037117 
vt 0.649433 0.484658 
vt 0.581105 0.493549 
vt 0.571908 0.406773 
vt 0.611205 0.369045 
vt 0.517277 0.286385 
vt 0.649433 0.332343 
vt 0.571908 0.406773 
vt 0.571908 0.406773 
vt 0.611205 0.369045 
vt 0.649433 0.484658 
vt 0.865061 0.161415 
vt 0.77967 0.203111 
vt 0.7491 0.121898 
vt 0.439051 0.231701 
vt 0.532492 0.060917 
vt 0.593077 0.132216 
vt 0.593077 0.132216 
vt 0.582644 0.272851 
vt 0.397719 0.160518 
vt 0.532492 0.060917 
vt 0.571908 0.406773 
vt 0.471543 0.3757 
vt 0.517277 0.286385 
vt 0.928108 0.272231 
vt 0.882982 0.199913 
vt 0.928108 0.171673 
vt 0.187156 0.252577 
vt 0.213149 0.161879 
vt 0.285391 0.242576 
vt 0.023152 0.82582 
vt 0.200804 0.753662 
vt 0.181344 0.787185 
vt 0.058057 0.836797 
vt 0.130187 0.946921 
vt 0.075966 0.907668 
vt 0.269276 0.867638 
vt 0.126719 0.984533 
vt 0.130187 0.946921 
vt 0.328067 0.870201 
vt 0.200804 0.753662 
vt 0.269276 0.867638 
vt 0.181344 0.787185 
vt 0.213149 0.161879 
vt 0.333093 0.201027 
vt 0.285391 0.242576 
vt 0.307029 0.087974 
vt 0.363268 0.174744 
vt 0.788468 0.631639 
vt 0.863801 0.628265 
vt 0.850042 0.674883 
vt 0.838152 0.551255 
vt 0.942894 0.624722 
vt 0.628249 0.936787 
vt 0.660933 0.789871 
vt 0.720994 0.921309 
vt 0.838152 0.551255 
vt 0.924601 0.510316 
vt 0.942894 0.624722 
vt 0.485597 0.026825 
vt 0.532492 0.060917 
vt 0.397719 0.160518 
vt 0.397719 0.027367 
vt 0.598685 0.968771 
vt 0.470692 0.835805 
vt 0.546924 0.852777 
vt 0.628249 0.936787 
vt 0.628249 0.936787 
vt 0.660933 0.789871 
vt 0.676278 0.722157 
vt 0.546924 0.852777 
vt 0.660933 0.789871 
vt 0.484225 0.41788 
vt 0.581105 0.493549 
vt 0.512302 0.511261 
vt 0.571908 0.406773 
vt 0.471543 0.3757 
vt 0.187156 0.252577 
vt 0.303522 0.300201 
vt 0.221731 0.333353 
vt 0.316755 0.342257 
vt 0.285391 0.242576 
vt 0.930237 0.362834 
vt 0.891977 0.475557 
vt 0.869636 0.378789 
vt 0.975256 0.350981 
vt 0.891977 0.475557 
vt 0.975256 0.350981 
vt 0.975256 0.478155 
vt 0.107038 0.56768 
vt 0.069563 0.711571 
vt 0.07414 0.5872 
vt 0.168187 0.676824 
vt 0.767258 0.541242 
vt 0.767258 0.483649 
vt 0.798474 0.508981 
vt 0.168187 0.676824 
vt 0.107038 0.56768 
vt 0.199818 0.565279 
vt 0.225043 0.616967 
vt 0.9547 0.033984 
vt 0.9547 0.118203 
vt 0.916391 0.06861 
vt 0.04843 0.927954 
vt 0.130187 0.946921 
vt 0.126719 0.984533 
vt 0.075966 0.907668 
vt 0.058057 0.836797 
vt 0.075966 0.907668 
vt 0.023152 0.82582 
vt 0.199818 0.565279 
vt 0.248188 0.530306 
vt 0.225043 0.616967 
vt 0.288435 0.612002 
vt 0.199919 0.708377 
vt 0.168187 0.676824 
vt 0.288435 0.612002 
vt 0.408663 0.622422 
vt 0.540752 0.663355 
vt 0.506998 0.729211 
vt 0.503005 0.592375 
vt 0.361879 0.720697 
vt 0.378682 0.776689 
vt 0.503005 0.592375 
vt 0.594345 0.653137 
vt 0.535237 0.541375 
vt 0.199919 0.708377 
vt 0.040621 0.764585 
vt 0.069563 0.711571 
vt 0.168187 0.676824 
vt 0.765772 0.940381 
vt 0.660933 0.789871 
vt 0.676278 0.722157 
vt 0.720994 0.921309 
vt 0.378682 0.776689 
vt 0.312621 0.743602 
vt 0.361879 0.720697 
vt 0.339447 0.831631 
vt 0.386504 0.588295 
vt 0.361879 0.720697 
vt 0.408663 0.622422 
vt 0.503005 0.592375 
vt 0.386504 0.588295 
vt 0.535237 0.541375 
vt 0.408663 0.622422 
vt 0.541313 0.756583 
vt 0.540752 0.663355 
vt 0.594345 0.653137 
vt 0.506998 0.729211 
vt 0.598685 0.968771 
vt 0.720994 0.921309 
vt 0.765772 0.940381 
vt 0.628249 0.936787 
vt 0.541313 0.756583 
vt 0.339447 0.831631 
vt 0.378682 0.776689 
vt 0.506998 0.729211 
vt 0.048206 0.563781 
vt 0.069563 0.711571 
vt 0.040621 0.764585 
vt 0.07414 0.5872 
vt 0.101223 0.532442 
vt 0.248188 0.530306 
vt 0.199818 0.565279 
vt 0.107038 0.56768 
vt 0.101223 0.532442 
vt 0.07414 0.5872 
vt 0.048206 0.563781 
vt 0.107038 0.56768 

usemtl Meshpart1Mtl

f 1/1/1 2/2/2 3/3/3 
f 3/3/3 4/4/4 1/1/1 
f 5/5/5 6/6/6 7/7/7 
f 6/6/6 8/8/8 7/7/7 
f 9/9/9 10/10/10 11/11/11 
f 10/10/10 9/9/9 12/12/12 
f 13/13/13 14/14/14 15/15/15 
f 14/14/14 13/13/13 16/16/16 
f 17/17/17 18/18/18 19/19/19 
f 20/20/20 21/21/21 22/22/22 
f 23/23/23 24/24/24 25/25/25 
f 26/26/26 27/27/27 28/28/28 
f 29/29/29 30/30/30 31/31/31 
f 32/32/32 29/29/29 33/33/33 
f 32/32/32 33/33/33 34/34/34 
f 32/32/32 34/34/34 35/35/35 
f 36/36/36 37/37/37 38/38/38 
f 36/36/36 38/38/38 39/39/39 
f 40/40/40 41/41/41 42/42/42 
f 43/43/43 44/44/44 45/45/45 
f 43/43/43 45/45/45 46/46/46 
f 47/47/47 48/48/48 49/49/49 
f 50/50/50 51/51/51 52/52/52 
f 53/53/53 54/54/54 55/55/55 
f 56/56/56 57/57/57 58/58/58 
f 59/59/59 57/57/57 56/56/56 
f 60/60/60 61/61/61 62/62/62 
f 63/63/63 64/64/64 65/65/65 
f 66/66/66 67/67/67 68/68/68 
f 66/66/66 69/69/69 70/70/70 
f 66/66/66 71/71/71 72/72/72 
f 73/73/73 74/74/74 75/75/75 
f 76/76/76 77/77/77 78/78/78 
f 79/79/79 80/80/80 81/81/81 
f 82/82/82 83/83/83 84/84/84 
f 82/82/82 84/84/84 85/85/85 
f 84/84/84 86/86/86 87/87/87 
f 86/86/86 84/84/84 88/88/88 
f 88/88/88 89/89/89 90/90/90 
f 89/89/89 88/88/88 91/91/91 
f 92/92/92 91/91/91 93/93/93 
f 92/92/92 93/93/93 94/94/94 
f 95/95/95 96/96/96 97/97/97 
f 96/96/96 95/95/95 98/98/98 
f 98/98/98 99/99/99 96/96/96 
f 100/100/100 101/101/101 102/102/102 
f 101/101/101 100/100/100 103/103/103 
f 103/103/103 104/104/104 101/101/101 
f 105/105/105 106/106/106 107/107/107 
f 108/108/108 109/109/109 110/110/110 
f 111/111/111 112/112/112 113/113/113 
f 114/114/114 111/111/111 113/113/113 
f 115/115/115 116/116/116 117/117/117 
f 115/115/115 117/117/117 118/118/118 
f 119/119/119 117/117/117 120/120/120 
f 121/121/121 122/122/122 116/116/116 
f 122/122/122 121/121/121 123/123/123 
f 124/124/124 125/125/125 126/126/126 
f 125/125/125 124/124/124 127/127/127 
f 128/128/128 127/127/127 124/124/124 
f 129/129/129 130/130/130 131/131/131 
f 130/130/130 132/132/132 131/131/131 
f 130/130/130 129/129/129 133/133/133 
f 134/134/134 135/135/135 136/136/136 
f 137/137/137 135/135/135 134/134/134 
f 138/138/138 139/139/139 140/140/140 
f 141/141/141 142/142/142 143/143/143 
f 142/142/142 141/141/141 144/144/144 
f 145/145/145 146/146/146 147/147/147 
f 148/148/148 149/149/149 150/150/150 
f 148/148/148 150/150/150 151/151/151 
f 152/152/152 153/153/153 154/154/154 
f 155/155/155 156/156/156 157/157/157 
f 156/156/156 155/155/155 158/158/158 
f 155/155/155 159/159/159 160/160/160 
f 155/155/155 161/161/161 159/159/159 
f 162/162/162 163/163/163 164/164/164 
f 163/163/163 165/165/165 164/164/164 
f 164/164/164 166/166/166 167/167/167 
f 166/166/166 164/164/164 168/168/168 
f 169/169/169 170/170/170 171/171/171 
f 170/170/170 169/169/169 172/172/172 
f 171/171/171 173/173/173 169/169/169 
f 171/171/171 174/174/174 173/173/173 
f 175/175/175 176/176/176 170/170/170 
f 176/176/176 175/175/175 177/177/177 
f 178/178/178 179/179/179 180/180/180 
f 178/178/178 180/180/180 181/181/181 
f 182/182/182 183/183/183 184/184/184 
f 183/183/183 182/182/182 185/185/185 
f 186/186/186 187/187/187 188/188/188 
f 187/187/187 186/186/186 189/189/189 
f 190/190/190 191/191/191 187/187/187 
f 191/191/191 190/190/190 192/192/192 
f 193/193/193 194/194/194 195/195/195 
f 194/194/194 193/193/193 196/196/196 
f 197/197/197 198/198/198 199/199/199 
f 198/198/198 197/197/197 200/200/200 
f 201/201/201 202/202/202 203/203/203 
f 202/202/202 201/201/201 204/204/204 
f 205/205/205 206/206/206 207/207/207 
f 205/205/205 207/207/207 208/208/208 
f 209/209/209 210/210/210 211/211/211 
f 210/210/210 209/209/209 212/212/212 
f 213/213/213 214/214/214 215/215/215 
f 213/213/213 215/215/215 216/216/216 
f 217/217/217 218/218/218 219/219/219 
f 218/218/218 217/217/217 220/220/220 

