# This file is brought to you by Roblox Corporation
# Generated by Roblox Studio

mtllib Trowel.mtl

g Meshpart1

v -130.137 5.582 0.107841 
v -130.096 5.54824 0.0306988 
v -130.128 5.54824 0.107841 
v -130.096 5.54824 0.184983 
v -130.102 5.582 0.0245088 
v -130.102 5.582 0.191173 
v -130.084 5.97048 0.0908828 
v -130.064 5.92078 0.0602228 
v -130.082 5.92569 0.104965 
v -130.079 5.84135 0.107841 
v -130.061 5.84135 0.150099 
v -130.061 5.84135 0.0655828 
v -130.064 5.9306 0.149709 
v -130.065 5.98905 0.133123 
v -130.019 5.99674 0.150621 
v -130.019 5.84135 0.0480788 
v -130.065 5.9519 0.0486408 
v -129.969 6.18996 -0.106695 
v -130.068 6.09186 -0.123221 
v -130.064 5.97879 0.0310028 
v -130.064 6.04141 0.0952988 
v -130.068 6.18996 -0.106695 
v -130.089 6.14091 -0.114959 
v -130.082 6.0101 0.0631508 
v -130.096 5.5965 0.0306988 
v -130.096 5.5965 0.184983 
v -130.102 5.582 0.0245088 
v -130.102 5.582 0.191173 
v -130.137 5.582 0.107841 
v -130.128 5.5965 0.107841 
v -130.157 6.08213 -0.260619 
v -130.157 6.06288 -0.121755 
v -130.577 6.48471 -0.0685392 
v -130.577 6.50253 -0.197053 
v -130.49 6.92181 -0.00591724 
v -130.49 6.94018 -0.138385 
v -130.432 7.22812 -0.100691 
v -130.432 7.20914 0.0361548 
v -130.272 7.70011 -0.0308812 
v -130.272 7.68233 0.0974028 
v -130.019 8.28867 0.0583148 
v -130.019 8.27295 0.171711 
v -130.065 5.98905 0.133123 
v -130.019 5.99674 0.150621 
v -129.973 5.98905 0.133123 
v -129.974 6.04141 0.0952988 
v -129.969 6.18996 -0.106695 
v -130.019 6.21028 -0.103273 
v -130.019 6.05438 0.108615 
v -130.064 6.04141 0.0952988 
v -130.068 6.18996 -0.106695 
v -130.137 5.582 0.107841 
v -130.096 5.54824 0.0306988 
v -130.128 5.54824 0.107841 
v -130.102 5.582 0.0245088 
v -130.019 5.582 -0.0100072 
v -130.019 5.54824 -0.00125524 
v -129.942 5.54824 0.0306988 
v -129.935 5.582 0.0245088 
v -129.91 5.54824 0.107841 
v -130.019 7.70038 -0.0327692 
v -130.019 8.28867 0.0583148 
v -129.766 7.70011 -0.0308812 
v -130.272 7.70011 -0.0308812 
v -130.019 7.22917 -0.108303 
v -129.605 7.22812 -0.100691 
v -130.432 7.22812 -0.100691 
v -130.019 6.94243 -0.154677 
v -129.547 6.94018 -0.138385 
v -130.49 6.94018 -0.138385 
v -130.019 6.50601 -0.222127 
v -129.461 6.50253 -0.197053 
v -130.577 6.50253 -0.197053 
v -129.88 6.08213 -0.260619 
v -130.157 6.08213 -0.260619 
v -130.019 6.06115 -0.264751 
v -130.064 5.92078 0.0602228 
v -130.061 5.84135 0.0655828 
v -129.976 5.84135 0.150099 
v -129.959 5.84135 0.107841 
v -129.974 5.92078 0.0602228 
v -129.976 5.84135 0.0655828 
v -129.953 5.97048 0.0908828 
v -130.019 5.91875 0.0416888 
v -130.019 5.84135 0.0480788 
v -130.019 5.94421 0.0311428 
v -129.973 5.9519 0.0486408 
v -130.065 5.9519 0.0486408 
v -130.019 5.96582 0.0176868 
v -129.974 5.97879 0.0310028 
v -129.969 6.18996 -0.106695 
v -130.068 6.09186 -0.123221 
v -130.064 5.97879 0.0310028 
v -129.942 5.5965 0.0306988 
v -129.91 5.5965 0.107841 
v -129.935 5.582 0.0245088 
v -130.019 5.582 -0.0100072 
v -130.019 5.5965 -0.00125524 
v -130.096 5.5965 0.0306988 
v -130.102 5.582 0.0245088 
v -129.942 5.54824 0.0306988 
v -129.942 5.54824 0.184983 
v -129.935 5.582 0.0245088 
v -129.935 5.582 0.191173 
v -129.901 5.582 0.107841 
v -129.91 5.54824 0.107841 
v -129.974 5.9306 0.149709 
v -129.976 5.84135 0.150099 
v -130.019 5.99674 0.150621 
v -129.973 5.98905 0.133123 
v -129.955 5.92569 0.104965 
v -129.959 5.84135 0.107841 
v -129.974 5.92078 0.0602228 
v -129.976 5.84135 0.0655828 
v -129.953 5.97048 0.0908828 
v -129.974 6.04141 0.0952988 
v -130.019 5.84135 0.0480788 
v -129.973 5.9519 0.0486408 
v -129.955 6.0101 0.0631508 
v -129.974 5.97879 0.0310028 
v -129.969 6.09186 -0.123221 
v -129.948 6.14091 -0.114959 
v -129.969 6.18996 -0.106695 
v -130.068 6.09186 -0.123221 
v -130.064 5.97879 0.0310028 
v -129.942 5.5965 0.0306988 
v -129.91 5.5965 0.107841 
v -129.901 5.582 0.107841 
v -129.942 5.5965 0.184983 
v -129.935 5.582 0.0245088 
v -129.935 5.582 0.191173 
v -129.605 7.20914 0.0361548 
v -129.766 7.70011 -0.0308812 
v -129.766 7.68233 0.0974028 
v -130.019 8.28867 0.0583148 
v -130.019 8.27295 0.171711 
v -129.605 7.22812 -0.100691 
v -129.547 6.92181 -0.00591724 
v -129.547 6.94018 -0.138385 
v -129.461 6.50253 -0.197053 
v -129.461 6.48471 -0.0685392 
v -129.88 6.08213 -0.260619 
v -129.88 6.06288 -0.121755 
v -130.128 5.54824 0.107841 
v -130.102 5.582 0.0245088 
v -130.102 5.582 0.191173 
v -130.019 5.582 -0.0100072 
v -129.935 5.582 0.0245088 
v -129.935 5.582 0.191173 
v -129.91 5.54824 0.107841 
v -130.061 5.84135 0.150099 
v -129.976 5.84135 0.0655828 
v -129.953 5.97048 0.0908828 
v -130.019 5.96582 0.0176868 
v -129.974 5.97879 0.0310028 
v -129.969 6.09186 -0.123221 
v -129.948 6.14091 -0.114959 
v -130.019 6.07155 -0.126643 
v -130.068 6.09186 -0.123221 
v -130.064 5.97879 0.0310028 
v -129.461 6.50253 -0.197053 
v -129.461 6.48471 -0.0685392 
v -129.88 6.08213 -0.260619 
v -129.88 6.06288 -0.121755 
v -130.019 6.04157 -0.123487 
v -130.019 6.06115 -0.264751 
v -130.157 6.08213 -0.260619 
v -130.157 6.06288 -0.121755 
v -130.137 5.582 0.107841 
v -130.128 5.54824 0.107841 
v -130.096 5.54824 0.184983 
v -130.102 5.582 0.191173 
v -130.019 5.582 0.225689 
v -130.019 5.54824 0.216937 
v -129.942 5.54824 0.184983 
v -129.935 5.582 0.191173 
v -129.91 5.54824 0.107841 
v -130.019 7.68207 0.0992908 
v -130.019 8.27295 0.171711 
v -130.272 7.68233 0.0974028 
v -129.766 7.68233 0.0974028 
v -130.019 7.20809 0.0437688 
v -130.432 7.20914 0.0361548 
v -129.605 7.20914 0.0361548 
v -130.019 6.91955 0.0103768 
v -130.49 6.92181 -0.00591724 
v -129.547 6.92181 -0.00591724 
v -130.019 6.48124 -0.0434632 
v -130.577 6.48471 -0.0685392 
v -129.461 6.48471 -0.0685392 
v -130.157 6.06288 -0.121755 
v -129.88 6.06288 -0.121755 
v -130.019 6.04157 -0.123487 
v -130.061 5.84135 0.150099 
v -130.064 5.9306 0.149709 
v -130.019 5.84135 0.167603 
v -130.065 5.98905 0.133123 
v -130.019 5.93263 0.168243 
v -129.974 5.9306 0.149709 
v -129.976 5.84135 0.150099 
v -130.019 5.99674 0.150621 
v -129.973 5.98905 0.133123 
v -129.974 6.04141 0.0952988 
v -130.019 6.05438 0.108615 
v -130.064 6.04141 0.0952988 
v -129.91 5.5965 0.107841 
v -129.942 5.5965 0.184983 
v -129.935 5.582 0.191173 
v -130.019 5.582 0.225689 
v -130.019 5.5965 0.216937 
v -130.096 5.5965 0.184983 
v -130.102 5.582 0.191173 

vn -0.968504 -0.251969 0 
vn -0.685039 -0.251969 -0.685039 
vn -0.968504 -0.251969 0 
vn -0.685039 -0.251969 0.685039 
vn -0.685039 -0.251969 -0.685039 
vn -0.685039 -0.251969 0.685039 
vn -1 0.015748 0.0314961 
vn -0.724409 -0.165354 -0.669291 
vn -1 -0.0314961 0.0393701 
vn -1 -0.0472441 0.00787402 
vn -0.700787 -0.015748 0.708661 
vn -0.708661 -0.0708661 -0.700787 
vn -0.692913 0.0866142 0.716535 
vn -0.692913 0.314961 0.653543 
vn 0 0.433071 0.897638 
vn 0 -0.0787402 -1 
vn -0.724409 -0.307087 -0.622047 
vn 0.629921 0.622047 0.472441 
vn -0.748031 -0.551181 -0.377953 
vn -0.724409 -0.472441 -0.503937 
vn -0.677165 0.519685 0.519685 
vn -0.629921 0.622047 0.472441 
vn -0.992126 0.0866142 0.0944882 
vn -1 0.0393701 0.0314961 
vn -0.606299 0.519685 -0.606299 
vn -0.606299 0.519685 0.606299 
vn -0.606299 0.519685 -0.606299 
vn -0.606299 0.519685 0.606299 
vn -0.858268 0.519685 0 
vn -0.858268 0.519685 0 
vn -0.456693 -0.88189 -0.11811 
vn -0.456693 -0.88189 -0.11811 
vn -0.96063 -0.283465 -0.0393701 
vn -0.96063 -0.283465 -0.0393701 
vn -0.984252 0.188976 0.023622 
vn -0.984252 0.188976 0.023622 
vn -0.968504 0.251969 0.0314961 
vn -0.968504 0.251969 0.0314961 
vn -0.937008 0.354331 0.0472441 
vn -0.937008 0.354331 0.0472441 
vn -0.92126 0.385827 0.0551181 
vn -0.92126 0.385827 0.0551181 
vn -0.692913 0.314961 0.653543 
vn 0 0.433071 0.897638 
vn 0.692913 0.314961 0.653543 
vn 0.677165 0.519685 0.519685 
vn 0.629921 0.622047 0.472441 
vn 0 0.80315 0.598425 
vn 0 0.708661 0.708661 
vn -0.677165 0.519685 0.519685 
vn -0.629921 0.622047 0.472441 
vn -0.968504 -0.251969 0 
vn -0.685039 -0.251969 -0.685039 
vn -0.968504 -0.251969 0 
vn -0.685039 -0.251969 -0.685039 
vn 0 -0.251969 -0.968504 
vn 0 -0.251969 -0.968504 
vn 0.685039 -0.251969 -0.685039 
vn 0.685039 -0.251969 -0.685039 
vn 0.968504 -0.251969 0 
vn 0 0.15748 -0.984252 
vn 0 0.149606 -0.992126 
vn 0.015748 0.15748 -0.984252 
vn -0.015748 0.15748 -0.984252 
vn 0 0.149606 -0.992126 
vn 0.023622 0.149606 -0.992126 
vn -0.023622 0.149606 -0.992126 
vn 0 0.149606 -0.992126 
vn 0.0314961 0.149606 -0.992126 
vn -0.0314961 0.149606 -0.992126 
vn 0 0.125984 -0.992126 
vn 0.0393701 0.133858 -0.992126 
vn -0.0393701 0.133858 -0.992126 
vn 0.0393701 0.102362 -0.992126 
vn -0.0393701 0.102362 -0.992126 
vn 0 0.102362 -0.992126 
vn -0.724409 -0.165354 -0.669291 
vn -0.708661 -0.0708661 -0.700787 
vn 0.700787 -0.015748 0.708661 
vn 1 -0.0472441 0.00787402 
vn 0.724409 -0.165354 -0.669291 
vn 0.708661 -0.0708661 -0.700787 
vn 1 0.015748 0.0314961 
vn 0 -0.23622 -0.968504 
vn 0 -0.0787402 -1 
vn 0 -0.456693 -0.889764 
vn 0.724409 -0.307087 -0.622047 
vn -0.724409 -0.307087 -0.622047 
vn 0 -0.685039 -0.732283 
vn 0.724409 -0.472441 -0.503937 
vn 0.629921 0.622047 0.472441 
vn -0.748031 -0.551181 -0.377953 
vn -0.724409 -0.472441 -0.503937 
vn 0.606299 0.519685 -0.606299 
vn 0.858268 0.519685 0 
vn 0.606299 0.519685 -0.606299 
vn 0 0.519685 -0.858268 
vn 0 0.519685 -0.858268 
vn -0.606299 0.519685 -0.606299 
vn -0.606299 0.519685 -0.606299 
vn 0.685039 -0.251969 -0.685039 
vn 0.685039 -0.251969 0.685039 
vn 0.685039 -0.251969 -0.685039 
vn 0.685039 -0.251969 0.685039 
vn 0.968504 -0.251969 0 
vn 0.968504 -0.251969 0 
vn 0.692913 0.0866142 0.716535 
vn 0.700787 -0.015748 0.708661 
vn 0 0.433071 0.897638 
vn 0.692913 0.314961 0.653543 
vn 1 -0.0314961 0.0393701 
vn 1 -0.0472441 0.00787402 
vn 0.724409 -0.165354 -0.669291 
vn 0.708661 -0.0708661 -0.700787 
vn 1 0.015748 0.0314961 
vn 0.677165 0.519685 0.519685 
vn 0 -0.0787402 -1 
vn 0.724409 -0.307087 -0.622047 
vn 1 0.0393701 0.0314961 
vn 0.724409 -0.472441 -0.503937 
vn 0.748031 -0.551181 -0.377953 
vn 0.992126 0.0866142 0.0944882 
vn 0.629921 0.622047 0.472441 
vn -0.748031 -0.551181 -0.377953 
vn -0.724409 -0.472441 -0.503937 
vn 0.606299 0.519685 -0.606299 
vn 0.858268 0.519685 0 
vn 0.858268 0.519685 0 
vn 0.606299 0.519685 0.606299 
vn 0.606299 0.519685 -0.606299 
vn 0.606299 0.519685 0.606299 
vn 0.968504 0.251969 0.0314961 
vn 0.937008 0.354331 0.0472441 
vn 0.937008 0.354331 0.0472441 
vn 0.92126 0.385827 0.0551181 
vn 0.92126 0.385827 0.0551181 
vn 0.968504 0.251969 0.0314961 
vn 0.984252 0.188976 0.023622 
vn 0.984252 0.188976 0.023622 
vn 0.96063 -0.283465 -0.0393701 
vn 0.96063 -0.283465 -0.0393701 
vn 0.456693 -0.88189 -0.11811 
vn 0.456693 -0.88189 -0.11811 
vn -0.968504 -0.251969 0 
vn -0.685039 -0.251969 -0.685039 
vn -0.685039 -0.251969 0.685039 
vn 0 -0.251969 -0.968504 
vn 0.685039 -0.251969 -0.685039 
vn 0.685039 -0.251969 0.685039 
vn 0.968504 -0.251969 0 
vn -0.700787 -0.015748 0.708661 
vn 0.708661 -0.0708661 -0.700787 
vn 1 0.015748 0.0314961 
vn 0 -0.685039 -0.732283 
vn 0.724409 -0.472441 -0.503937 
vn 0.748031 -0.551181 -0.377953 
vn 0.992126 0.0866142 0.0944882 
vn 0 -0.811024 -0.590551 
vn -0.748031 -0.551181 -0.377953 
vn -0.724409 -0.472441 -0.503937 
vn 0.96063 -0.283465 -0.0393701 
vn 0.96063 -0.283465 -0.0393701 
vn 0.456693 -0.88189 -0.11811 
vn 0.456693 -0.88189 -0.11811 
vn 0 -0.992126 -0.133858 
vn 0 -0.992126 -0.133858 
vn -0.456693 -0.88189 -0.11811 
vn -0.456693 -0.88189 -0.11811 
vn -0.968504 -0.251969 0 
vn -0.968504 -0.251969 0 
vn -0.685039 -0.251969 0.685039 
vn -0.685039 -0.251969 0.685039 
vn 0 -0.251969 0.968504 
vn 0 -0.251969 0.968504 
vn 0.685039 -0.251969 0.685039 
vn 0.685039 -0.251969 0.685039 
vn 0.968504 -0.251969 0 
vn 0 -0.11811 0.992126 
vn 0 -0.11811 0.992126 
vn -0.015748 -0.11811 0.992126 
vn 0.015748 -0.11811 0.992126 
vn 0 -0.125984 0.992126 
vn -0.023622 -0.125984 0.992126 
vn 0.023622 -0.125984 0.992126 
vn 0 -0.125984 0.992126 
vn -0.0314961 -0.125984 0.992126 
vn 0.0314961 -0.125984 0.992126 
vn 0 -0.149606 0.992126 
vn -0.0393701 -0.141732 0.992126 
vn 0.0393701 -0.141732 0.992126 
vn -0.0393701 -0.173228 0.984252 
vn 0.0393701 -0.173228 0.984252 
vn 0 -0.173228 0.984252 
vn -0.700787 -0.015748 0.708661 
vn -0.692913 0.0866142 0.716535 
vn 0 -0.00787402 1 
vn -0.692913 0.314961 0.653543 
vn 0 0.125984 0.992126 
vn 0.692913 0.0866142 0.716535 
vn 0.700787 -0.015748 0.708661 
vn 0 0.433071 0.897638 
vn 0.692913 0.314961 0.653543 
vn 0.677165 0.519685 0.519685 
vn 0 0.708661 0.708661 
vn -0.677165 0.519685 0.519685 
vn 0.858268 0.519685 0 
vn 0.606299 0.519685 0.606299 
vn 0.606299 0.519685 0.606299 
vn 0 0.519685 0.858268 
vn 0 0.519685 0.858268 
vn -0.606299 0.519685 0.606299 
vn -0.606299 0.519685 0.606299 

vt 8.01592 -23.1671 
vt 8.00628 -23.1713 
vt 8.01592 -23.1713 
vt 8.02556 -23.1713 
vt 8.0055 -23.1671 
vt 8.02634 -23.1671 
vt 8.0138 -23.1185 
vt 8.00997 -23.1247 
vt 8.01556 -23.1241 
vt 8.01592 -23.1346 
vt 8.0212 -23.1346 
vt 8.01064 -23.1346 
vt 8.02116 -23.1235 
vt 8.01908 -23.1162 
vt 8.02127 -23.1152 
vt 8.00845 -23.1346 
vt 8.00852 -23.1208 
vt 7.9891 -23.0911 
vt 7.98704 -23.1033 
vt 8.00632 -23.1175 
vt 8.01435 -23.1096 
vt 7.9891 -23.0911 
vt 7.98807 -23.0972 
vt 8.01033 -23.1135 
vt 8.00628 -23.1652 
vt 8.02556 -23.1652 
vt 8.0055 -23.1671 
vt 8.02634 -23.1671 
vt 8.01592 -23.1671 
vt 8.01592 -23.1652 
vt 7.96986 -23.1045 
vt 7.98722 -23.1069 
vt 7.99387 -23.0542 
vt 7.97781 -23.052 
vt 8.0017 -22.9996 
vt 7.98514 -22.9973 
vt 7.98985 -22.9613 
vt 8.00696 -22.9637 
vt 7.99858 -22.9023 
vt 8.01462 -22.9045 
vt 8.00973 -22.8287 
vt 8.0239 -22.8307 
vt 7.99423 -23.0191 
vt 8 -23.0213 
vt 8.00577 -23.0191 
vt 8.00561 -23.0144 
vt 8.00622 -22.9891 
vt 8 -22.9895 
vt 8 -23.016 
vt 7.99439 -23.0144 
vt 7.99378 -22.9891 
vt 8.01473 -23.1671 
vt 8.00964 -23.1713 
vt 8.01364 -23.1713 
vt 8.01042 -23.1671 
vt 8 -23.1671 
vt 8 -23.1713 
vt 7.99036 -23.1713 
vt 7.98958 -23.1671 
vt 7.98636 -23.1713 
vt 8 -22.9023 
vt 8 -22.8287 
vt 7.96835 -22.9023 
vt 8.03165 -22.9023 
vt 8 -22.9612 
vt 7.94833 -22.9613 
vt 8.05167 -22.9613 
vt 8 -22.997 
vt 7.94104 -22.9973 
vt 8.05896 -22.9973 
vt 8 -23.0516 
vt 7.93027 -23.052 
vt 8.06973 -23.052 
vt 7.98267 -23.1045 
vt 8.01733 -23.1045 
vt 8 -23.1072 
vt 8.00563 -23.1247 
vt 8.00528 -23.1346 
vt 7.99472 -23.1346 
vt 7.99253 -23.1346 
vt 7.99437 -23.1247 
vt 7.99472 -23.1346 
vt 7.99184 -23.1185 
vt 8 -23.125 
vt 8 -23.1346 
vt 8 -23.1218 
vt 7.99423 -23.1208 
vt 8.00577 -23.1208 
vt 8 -23.1191 
vt 7.99439 -23.1175 
vt 7.99378 -23.0911 
vt 8.00622 -23.1033 
vt 8.00561 -23.1175 
vt 7.99036 -23.1652 
vt 7.98636 -23.1652 
vt 7.98958 -23.1671 
vt 8 -23.1671 
vt 8 -23.1652 
vt 8.00964 -23.1652 
vt 8.01042 -23.1671 
vt 7.99372 -23.1713 
vt 7.97444 -23.1713 
vt 7.99449 -23.1671 
vt 7.97366 -23.1671 
vt 7.98408 -23.1671 
vt 7.98408 -23.1713 
vt 7.97885 -23.1235 
vt 7.9788 -23.1346 
vt 7.97873 -23.1152 
vt 7.98092 -23.1162 
vt 7.98444 -23.1241 
vt 7.98408 -23.1346 
vt 7.99003 -23.1247 
vt 7.98936 -23.1346 
vt 7.9862 -23.1185 
vt 7.98565 -23.1096 
vt 7.99155 -23.1346 
vt 7.99148 -23.1208 
vt 7.98966 -23.1135 
vt 7.99368 -23.1175 
vt 8.01296 -23.1033 
vt 8.01193 -23.0972 
vt 8.0109 -23.0911 
vt 8.01296 -23.1033 
vt 7.99368 -23.1175 
vt 7.99372 -23.1652 
vt 7.98408 -23.1652 
vt 7.98408 -23.1671 
vt 7.97444 -23.1652 
vt 7.99449 -23.1671 
vt 7.97366 -23.1671 
vt 7.99304 -22.9637 
vt 8.00142 -22.9023 
vt 7.98538 -22.9045 
vt 7.99027 -22.8287 
vt 7.97609 -22.8307 
vt 8.01015 -22.9613 
vt 7.9983 -22.9996 
vt 8.01486 -22.9973 
vt 8.02219 -23.052 
vt 8.00613 -23.0542 
vt 8.03014 -23.1045 
vt 8.01278 -23.1069 
vt 8.01364 -23.0159 
vt 8.01042 -23.0055 
vt 8.01042 -23.0263 
vt 8 -23.0012 
vt 7.98958 -23.0055 
vt 7.98958 -23.0263 
vt 7.98636 -23.0159 
vt 8.00528 -23.0212 
vt 7.99472 -23.0106 
vt 7.99184 -23.0138 
vt 8 -23.0047 
vt 7.99439 -23.0063 
vt 7.99378 -22.987 
vt 7.99121 -22.9881 
vt 8 -22.9866 
vt 8.00622 -22.987 
vt 8.00561 -23.0063 
vt 7.93027 -22.9778 
vt 7.93027 -22.9939 
vt 7.98267 -22.9699 
vt 7.98267 -22.9872 
vt 8 -22.987 
vt 8 -22.9693 
vt 8.01733 -22.9699 
vt 8.01733 -22.9872 
vt 7.98527 -23.1671 
vt 7.98636 -23.1713 
vt 7.99036 -23.1713 
vt 7.98958 -23.1671 
vt 8 -23.1671 
vt 8 -23.1713 
vt 8.00964 -23.1713 
vt 8.01042 -23.1671 
vt 8.01364 -23.1713 
vt 8 -22.9045 
vt 8 -22.8307 
vt 7.96835 -22.9045 
vt 8.03165 -22.9045 
vt 8 -22.9638 
vt 7.94833 -22.9637 
vt 8.05167 -22.9637 
vt 8 -22.9999 
vt 7.94104 -22.9996 
vt 8.05896 -22.9996 
vt 8 -23.0547 
vt 7.93027 -23.0542 
vt 8.06973 -23.0542 
vt 7.98267 -23.1069 
vt 8.01733 -23.1069 
vt 8 -23.1096 
vt 7.99472 -23.1346 
vt 7.99437 -23.1235 
vt 8 -23.1346 
vt 7.99423 -23.1162 
vt 8 -23.1232 
vt 8.00563 -23.1235 
vt 8.00528 -23.1346 
vt 8 -23.1152 
vt 8.00577 -23.1162 
vt 8.00561 -23.1096 
vt 8 -23.108 
vt 7.99439 -23.1096 
vt 8.01364 -23.1652 
vt 8.00964 -23.1652 
vt 8.01042 -23.1671 
vt 8 -23.1671 
vt 8 -23.1652 
vt 7.99036 -23.1652 
vt 7.98958 -23.1671 

usemtl Meshpart1Mtl

f 1/1/1 2/2/2 3/3/3 
f 4/4/4 1/1/1 3/3/3 
f 2/2/2 1/1/1 5/5/5 
f 1/1/1 4/4/4 6/6/6 
f 7/7/7 8/8/8 9/9/9 
f 8/8/8 10/10/10 9/9/9 
f 11/11/11 9/9/9 10/10/10 
f 10/10/10 8/8/8 12/12/12 
f 9/9/9 11/11/11 13/13/13 
f 14/14/14 9/9/9 13/13/13 
f 9/9/9 14/14/14 7/7/7 
f 8/8/8 7/7/7 17/17/17 
f 23/23/23 21/21/21 22/22/22 
f 7/7/7 14/14/14 21/21/21 
f 21/21/21 23/23/23 24/24/24 
f 21/21/21 24/24/24 7/7/7 
f 19/19/19 24/24/24 23/23/23 
f 24/24/24 17/17/17 7/7/7 
f 24/24/24 19/19/19 20/20/20 
f 24/24/24 20/20/20 17/17/17 
f 29/29/29 25/25/25 27/27/27 
f 26/26/26 29/29/29 28/28/28 
f 25/25/25 29/29/29 30/30/30 
f 29/29/29 26/26/26 30/30/30 
f 32/32/32 33/33/33 31/31/31 
f 34/34/34 31/31/31 33/33/33 
f 35/35/35 34/34/34 33/33/33 
f 34/34/34 35/35/35 36/36/36 
f 35/35/35 37/37/37 36/36/36 
f 35/35/35 38/38/38 37/37/37 
f 38/38/38 39/39/39 37/37/37 
f 38/38/38 40/40/40 39/39/39 
f 40/40/40 41/41/41 39/39/39 
f 41/41/41 40/40/40 42/42/42 
f 48/48/48 46/46/46 47/47/47 
f 46/46/46 48/48/48 49/49/49 
f 49/49/49 48/48/48 50/50/50 
f 50/50/50 48/48/48 51/51/51 
f 56/56/56 53/53/53 55/55/55 
f 53/53/53 56/56/56 57/57/57 
f 58/58/58 57/57/57 56/56/56 
f 58/58/58 56/56/56 59/59/59 
f 61/61/61 62/62/62 63/63/63 
f 64/64/64 62/62/62 61/61/61 
f 65/65/65 61/61/61 63/63/63 
f 65/65/65 64/64/64 61/61/61 
f 66/66/66 65/65/65 63/63/63 
f 64/64/64 65/65/65 67/67/67 
f 68/68/68 65/65/65 66/66/66 
f 68/68/68 67/67/67 65/65/65 
f 69/69/69 68/68/68 66/66/66 
f 67/67/67 68/68/68 70/70/70 
f 71/71/71 68/68/68 69/69/69 
f 71/71/71 70/70/70 68/68/68 
f 72/72/72 71/71/71 69/69/69 
f 70/70/70 71/71/71 73/73/73 
f 71/71/71 72/72/72 74/74/74 
f 71/71/71 75/75/75 73/73/73 
f 76/76/76 71/71/71 74/74/74 
f 75/75/75 71/71/71 76/76/76 
f 82/82/82 84/84/84 81/81/81 
f 85/85/85 84/84/84 82/82/82 
f 78/78/78 84/84/84 85/85/85 
f 84/84/84 78/78/78 77/77/77 
f 81/81/81 84/84/84 86/86/86 
f 77/77/77 86/86/86 84/84/84 
f 81/81/81 86/86/86 87/87/87 
f 86/86/86 77/77/77 88/88/88 
f 87/87/87 86/86/86 89/89/89 
f 88/88/88 89/89/89 86/86/86 
f 87/87/87 89/89/89 90/90/90 
f 89/89/89 88/88/88 93/93/93 
f 97/97/97 94/94/94 96/96/96 
f 94/94/94 97/97/97 98/98/98 
f 97/97/97 99/99/99 98/98/98 
f 99/99/99 97/97/97 100/100/100 
f 105/105/105 101/101/101 103/103/103 
f 105/105/105 104/104/104 102/102/102 
f 101/101/101 105/105/105 106/106/106 
f 102/102/102 106/106/106 105/105/105 
f 107/107/107 108/108/108 111/111/111 
f 111/111/111 110/110/110 107/107/107 
f 112/112/112 111/111/111 108/108/108 
f 111/111/111 112/112/112 113/113/113 
f 112/112/112 114/114/114 113/113/113 
f 110/110/110 111/111/111 115/115/115 
f 113/113/113 115/115/115 111/111/111 
f 115/115/115 116/116/116 110/110/110 
f 115/115/115 113/113/113 118/118/118 
f 118/118/118 119/119/119 115/115/115 
f 116/116/116 115/115/115 119/119/119 
f 119/119/119 118/118/118 120/120/120 
f 121/121/121 119/119/119 120/120/120 
f 119/119/119 121/121/121 122/122/122 
f 122/122/122 116/116/116 119/119/119 
f 116/116/116 122/122/122 123/123/123 
f 126/126/126 127/127/127 128/128/128 
f 129/129/129 128/128/128 127/127/127 
f 128/128/128 130/130/130 126/126/126 
f 128/128/128 129/129/129 131/131/131 
f 132/132/132 133/133/133 134/134/134 
f 133/133/133 135/135/135 134/134/134 
f 136/136/136 134/134/134 135/135/135 
f 133/133/133 132/132/132 137/137/137 
f 138/138/138 137/137/137 132/132/132 
f 137/137/137 138/138/138 139/139/139 
f 138/138/138 140/140/140 139/139/139 
f 138/138/138 141/141/141 140/140/140 
f 141/141/141 142/142/142 140/140/140 
f 142/142/142 141/141/141 143/143/143 
f 154/154/154 156/156/156 155/155/155 
f 156/156/156 154/154/154 158/158/158 
f 154/154/154 159/159/159 158/158/158 
f 160/160/160 159/159/159 154/154/154 
f 165/165/165 163/163/163 164/164/164 
f 163/163/163 165/165/165 166/166/166 
f 165/165/165 167/167/167 166/166/166 
f 167/167/167 165/165/165 168/168/168 
f 173/173/173 172/172/172 171/171/171 
f 173/173/173 171/171/171 174/174/174 
f 175/175/175 173/173/173 174/174/174 
f 173/173/173 175/175/175 176/176/176 
f 178/178/178 179/179/179 180/180/180 
f 181/181/181 179/179/179 178/178/178 
f 180/180/180 182/182/182 178/178/178 
f 182/182/182 181/181/181 178/178/178 
f 182/182/182 180/180/180 183/183/183 
f 181/181/181 182/182/182 184/184/184 
f 183/183/183 185/185/185 182/182/182 
f 185/185/185 184/184/184 182/182/182 
f 185/185/185 183/183/183 186/186/186 
f 184/184/184 185/185/185 187/187/187 
f 186/186/186 188/188/188 185/185/185 
f 188/188/188 187/187/187 185/185/185 
f 188/188/188 186/186/186 189/189/189 
f 187/187/187 188/188/188 190/190/190 
f 189/189/189 191/191/191 188/188/188 
f 188/188/188 192/192/192 190/190/190 
f 188/188/188 191/191/191 193/193/193 
f 192/192/192 188/188/188 193/193/193 
f 196/196/196 195/195/195 194/194/194 
f 195/195/195 196/196/196 198/198/198 
f 198/198/198 197/197/197 195/195/195 
f 198/198/198 196/196/196 199/199/199 
f 199/199/199 196/196/196 200/200/200 
f 197/197/197 198/198/198 201/201/201 
f 202/202/202 198/198/198 199/199/199 
f 202/202/202 201/201/201 198/198/198 
f 203/203/203 201/201/201 202/202/202 
f 203/203/203 204/204/204 201/201/201 
f 205/205/205 201/201/201 204/204/204 
f 201/201/201 205/205/205 197/197/197 
f 209/209/209 208/208/208 207/207/207 
f 207/207/207 210/210/210 209/209/209 
f 211/211/211 209/209/209 210/210/210 
f 209/209/209 211/211/211 212/212/212 

g Meshpart2

v -130.112 4.61311 0.20148 
v -130.188 4.6603 0.10791 
v -130.151 4.61311 0.10791 
v -130.112 4.61311 0.0143402 
v -130.139 4.6603 0.227724 
v -130.139 4.6603 -0.0119038 
v -129.899 4.6603 -0.0119038 
v -130.079 5.84853 0.0472082 
v -130.096 5.59648 0.0307682 
v -130.128 5.59648 0.10791 
v -130.019 5.84853 0.0220642 
v -130.105 5.84853 0.10791 
v -130.079 5.84853 0.168612 
v -130.096 5.59648 0.185052 
v -129.942 5.59648 0.185052 
v -129.91 5.54823 0.10791 
v -130.019 5.54823 0.217006 
v -130.096 5.54823 0.185052 
v -129.899 4.6603 -0.0119038 
v -130.139 4.6603 0.227724 
v -130.019 4.6603 -0.0615318 
v -130.188 4.6603 0.10791 
v -130.019 5.54823 -0.00118585 
v -130.128 5.54823 0.10791 
v -130.096 5.54823 0.0307682 
v -130.139 4.6603 -0.0119038 
v -130.06 5.86834 0.0665962 
v -129.977 5.86834 0.0665962 
v -130.019 5.86834 0.0494822 
v -129.977 5.86834 0.149224 
v -129.96 5.86834 0.10791 
v -130.06 5.86834 0.149224 
v -130.019 5.86834 0.166338 
v -130.077 5.86834 0.10791 
v -129.958 5.84853 0.0472082 
v -130.019 5.86834 0.0494822 
v -129.977 5.86834 0.0665962 
v -129.96 5.86834 0.10791 
v -130.019 5.84853 0.0220642 
v -129.933 5.84853 0.10791 
v -130.079 5.84853 0.0472082 
v -129.958 5.84853 0.168612 
v -130.06 5.86834 0.0665962 
v -129.977 5.86834 0.149224 
v -130.077 5.86834 0.10791 
v -130.019 5.86834 0.166338 
v -130.105 5.84853 0.10791 
v -130.019 5.84853 0.193756 
v -130.079 5.84853 0.168612 
v -130.06 5.86834 0.149224 
v -130.112 4.61311 0.20148 
v -130.112 4.61311 0.0143402 
v -130.139 4.6603 0.227724 
v -130.139 4.6603 -0.0119038 
v -130.019 4.6603 -0.0615318 
v -130.019 4.61311 -0.0244159 
v -129.925 4.61311 0.0143402 
v -129.899 4.6603 -0.0119038 
v -129.96 5.86834 0.10791 
v -129.933 5.84853 0.10791 
v -130.077 5.86834 0.10791 
v -130.105 5.84853 0.10791 
v -130.079 5.84853 0.0472082 
v -130.019 5.59648 -0.00118585 
v -130.096 5.59648 0.0307682 
v -130.019 5.84853 0.0220642 
v -130.105 5.84853 0.10791 
v -129.958 5.84853 0.0472082 
v -129.942 5.59648 0.0307682 
v -129.933 5.84853 0.10791 
v -129.91 5.54823 0.10791 
v -129.942 5.54823 0.0307682 
v -129.899 4.6603 -0.0119038 
v -130.019 4.6603 -0.0615318 
v -130.019 5.54823 -0.00118585 
v -130.128 5.54823 0.10791 
v -130.096 5.54823 0.0307682 
v -130.139 4.6603 -0.0119038 
v -130.112 4.61311 0.20148 
v -130.139 4.6603 0.227724 
v -129.925 4.61311 0.20148 
v -129.925 4.61311 0.0143402 
v -129.899 4.6603 0.227724 
v -129.899 4.6603 -0.0119038 
v -129.849 4.6603 0.10791 
v -129.886 4.61311 0.10791 
v -130.096 5.59648 0.0307682 
v -130.019 5.84853 0.0220642 
v -129.958 5.84853 0.0472082 
v -129.942 5.59648 0.0307682 
v -129.91 5.59648 0.10791 
v -129.933 5.84853 0.10791 
v -129.958 5.84853 0.168612 
v -129.942 5.59648 0.185052 
v -129.942 5.54823 0.185052 
v -129.899 4.6603 0.227724 
v -129.849 4.6603 0.10791 
v -130.019 4.6603 0.277352 
v -129.91 5.54823 0.10791 
v -130.019 5.54823 0.217006 
v -129.942 5.54823 0.0307682 
v -129.899 4.6603 -0.0119038 
v -130.151 4.61311 0.10791 
v -129.886 4.61311 0.10791 
v -130.019 4.61311 0.240236 
v -129.925 4.61311 0.20148 
v -130.112 4.61311 0.20148 
v -130.019 4.61311 -0.0244159 
v -129.925 4.61311 0.0143402 
v -130.112 4.61311 0.0143402 
v -130.112 4.61311 0.20148 
v -130.139 4.6603 0.227724 
v -130.019 4.6603 0.277352 
v -130.019 4.61311 0.240236 
v -129.925 4.61311 0.20148 
v -129.899 4.6603 0.227724 
v -129.96 5.86834 0.10791 
v -129.933 5.84853 0.10791 
v -130.077 5.86834 0.10791 
v -130.105 5.84853 0.10791 
v -130.105 5.84853 0.10791 
v -130.079 5.84853 0.168612 
v -130.096 5.59648 0.185052 
v -130.019 5.59648 0.217006 
v -129.933 5.84853 0.10791 
v -130.019 5.84853 0.193756 
v -129.958 5.84853 0.168612 
v -129.942 5.59648 0.185052 
v -129.942 5.54823 0.185052 
v -129.899 4.6603 0.227724 
v -130.019 4.6603 0.277352 
v -129.91 5.54823 0.10791 
v -130.019 5.54823 0.217006 
v -130.096 5.54823 0.185052 
v -130.139 4.6603 0.227724 

vn -0.559055 -0.614173 0.559055 
vn -0.787402 -0.614173 0 
vn -0.787402 -0.614173 0 
vn -0.559055 -0.614173 -0.559055 
vn -0.559055 -0.614173 0.559055 
vn -0.559055 -0.614173 -0.559055 
vn 0.559055 -0.614173 -0.559055 
vn -0.700787 0.0944882 -0.700787 
vn -0.700787 0.0944882 -0.700787 
vn -0.992126 0.0944882 0 
vn 0 0.0944882 -0.992126 
vn -0.992126 0.0944882 0 
vn -0.700787 0.0944882 0.700787 
vn -0.700787 0.0944882 0.700787 
vn 0.700787 0.0944882 0.700787 
vn 1 0.0708661 0 
vn 0 0.0708661 1 
vn -0.708661 0.0708661 0.708661 
vn 0.708661 0.0708661 -0.708661 
vn -0.708661 0.0708661 0.708661 
vn 0 0.0708661 -1 
vn -1 0.0708661 0 
vn 0 0.0708661 -1 
vn -1 0.0708661 0 
vn -0.708661 0.0708661 -0.708661 
vn -0.708661 0.0708661 -0.708661 
vn 0 1 0 
vn 0 1 0 
vn 0 1 0 
vn 0 1 0 
vn 0 1 0 
vn 0 1 0 
vn 0 1 0 
vn 0 1 0 
vn 0.417323 0.811024 -0.417323 
vn 0 0.811024 -0.582677 
vn 0.417323 0.811024 -0.417323 
vn 0.582677 0.811024 0 
vn 0 0.811024 -0.582677 
vn 0.582677 0.811024 0 
vn -0.417323 0.811024 -0.417323 
vn 0.417323 0.811024 0.417323 
vn -0.417323 0.811024 -0.417323 
vn 0.417323 0.811024 0.417323 
vn -0.582677 0.811024 0 
vn 0 0.811024 0.582677 
vn -0.582677 0.811024 0 
vn 0 0.811024 0.582677 
vn -0.417323 0.811024 0.417323 
vn -0.417323 0.811024 0.417323 
vn -0.559055 -0.614173 0.559055 
vn -0.559055 -0.614173 -0.559055 
vn -0.559055 -0.614173 0.559055 
vn -0.559055 -0.614173 -0.559055 
vn 0 -0.614173 -0.787402 
vn 0 -0.614173 -0.787402 
vn 0.559055 -0.614173 -0.559055 
vn 0.559055 -0.614173 -0.559055 
vn 0.582677 0.811024 0 
vn 0.582677 0.811024 0 
vn -0.582677 0.811024 0 
vn -0.582677 0.811024 0 
vn -0.700787 0.0944882 -0.700787 
vn 0 0.0944882 -0.992126 
vn -0.700787 0.0944882 -0.700787 
vn 0 0.0944882 -0.992126 
vn -0.992126 0.0944882 0 
vn 0.700787 0.0944882 -0.700787 
vn 0.700787 0.0944882 -0.700787 
vn 0.992126 0.0944882 0 
vn 1 0.0708661 0 
vn 0.708661 0.0708661 -0.708661 
vn 0.708661 0.0708661 -0.708661 
vn 0 0.0708661 -1 
vn 0 0.0708661 -1 
vn -1 0.0708661 0 
vn -0.708661 0.0708661 -0.708661 
vn -0.708661 0.0708661 -0.708661 
vn -0.559055 -0.614173 0.559055 
vn -0.559055 -0.614173 0.559055 
vn 0.559055 -0.614173 0.559055 
vn 0.559055 -0.614173 -0.559055 
vn 0.559055 -0.614173 0.559055 
vn 0.559055 -0.614173 -0.559055 
vn 0.787402 -0.622047 0 
vn 0.787402 -0.622047 0 
vn -0.700787 0.0944882 -0.700787 
vn 0 0.0944882 -0.992126 
vn 0.700787 0.0944882 -0.700787 
vn 0.700787 0.0944882 -0.700787 
vn 0.992126 0.0944882 0 
vn 0.992126 0.0944882 0 
vn 0.700787 0.0944882 0.700787 
vn 0.700787 0.0944882 0.700787 
vn 0.708661 0.0708661 0.708661 
vn 0.708661 0.0708661 0.708661 
vn 1 0.0708661 0 
vn 0 0.0708661 1 
vn 1 0.0708661 0 
vn 0 0.0708661 1 
vn 0.708661 0.0708661 -0.708661 
vn 0.708661 0.0708661 -0.708661 
vn 0 -1 0 
vn 0 -1 0 
vn 0 -1 0 
vn 0 -1 0 
vn 0 -1 0 
vn 0 -1 0 
vn 0 -1 0 
vn 0 -1 0 
vn -0.559055 -0.614173 0.559055 
vn -0.559055 -0.614173 0.559055 
vn 0 -0.622047 0.787402 
vn 0 -0.622047 0.787402 
vn 0.559055 -0.614173 0.559055 
vn 0.559055 -0.614173 0.559055 
vn 0.582677 0.811024 0 
vn 0.582677 0.811024 0 
vn -0.582677 0.811024 0 
vn -0.582677 0.811024 0 
vn -0.992126 0.0944882 0 
vn -0.700787 0.0944882 0.700787 
vn -0.700787 0.0944882 0.700787 
vn 0 0.0944882 0.992126 
vn 0.992126 0.0944882 0 
vn 0 0.0944882 0.992126 
vn 0.700787 0.0944882 0.700787 
vn 0.700787 0.0944882 0.700787 
vn 0.708661 0.0708661 0.708661 
vn 0.708661 0.0708661 0.708661 
vn 0 0.0708661 1 
vn 1 0.0708661 0 
vn 0 0.0708661 1 
vn -0.708661 0.0708661 0.708661 
vn -0.708661 0.0708661 0.708661 

vt 30.0117 -39.0785 
vt 30 -39.0726 
vt 30 -39.0785 
vt 29.9883 -39.0785 
vt 30.015 -39.0726 
vt 29.985 -39.0726 
vt 29.985 -39.0726 
vt 29.9924 -38.924 
vt 29.9904 -38.9555 
vt 30 -38.9555 
vt 29.9893 -38.924 
vt 30 -38.924 
vt 30.0076 -38.924 
vt 30.0096 -38.9555 
vt 30.0096 -38.9555 
vt 30 -38.9616 
vt 30.0136 -38.9616 
vt 30.0096 -38.9616 
vt 29.985 -39.0726 
vt 30.015 -39.0726 
vt 29.9788 -39.0726 
vt 30 -39.0726 
vt 29.9864 -38.9616 
vt 30 -38.9616 
vt 29.9904 -38.9616 
vt 29.985 -39.0726 
vt 29.9948 -38.9948 
vt 30.0052 -38.9948 
vt 30 -38.9927 
vt 30.0052 -39.0052 
vt 30.0073 -39 
vt 29.9948 -39.0052 
vt 30 -39.0073 
vt 29.9927 -39 
vt 30.0076 -38.9924 
vt 30 -38.9927 
vt 30.0052 -38.9948 
vt 30.0073 -39 
vt 30 -38.9893 
vt 30.0107 -39 
vt 29.9924 -38.9924 
vt 30.0076 -39.0076 
vt 29.9948 -38.9948 
vt 30.0052 -39.0052 
vt 29.9927 -39 
vt 30 -39.0073 
vt 29.9893 -39 
vt 30 -39.0107 
vt 29.9924 -39.0076 
vt 29.9948 -39.0052 
vt 30.0117 -39.0785 
vt 30.0117 -39.0785 
vt 30.015 -39.0726 
vt 30.015 -39.0726 
vt 30 -39.0726 
vt 30 -39.0785 
vt 29.9883 -39.0785 
vt 29.985 -39.0726 
vt 29.9927 -38.9215 
vt 29.9893 -38.924 
vt 30.0073 -38.9215 
vt 30.0107 -38.924 
vt 30.0076 -38.924 
vt 30 -38.9555 
vt 30.0096 -38.9555 
vt 30 -38.924 
vt 30.0107 -38.924 
vt 29.9924 -38.924 
vt 29.9904 -38.9555 
vt 29.9893 -38.924 
vt 29.9864 -38.9616 
vt 29.9904 -38.9616 
vt 29.985 -39.0726 
vt 30 -39.0726 
vt 30 -38.9616 
vt 30.0136 -38.9616 
vt 30.0096 -38.9616 
vt 30.015 -39.0726 
vt 29.9883 -39.0785 
vt 29.985 -39.0726 
vt 29.9883 -39.0785 
vt 30.0117 -39.0785 
vt 29.985 -39.0726 
vt 30.015 -39.0726 
vt 30 -39.0726 
vt 30 -39.0785 
vt 30.0096 -38.9555 
vt 30.0107 -38.924 
vt 30.0076 -38.924 
vt 30.0096 -38.9555 
vt 30 -38.9555 
vt 30 -38.924 
vt 29.9924 -38.924 
vt 29.9904 -38.9555 
vt 29.9904 -38.9616 
vt 29.985 -39.0726 
vt 30 -39.0726 
vt 29.9788 -39.0726 
vt 30 -38.9616 
vt 29.9864 -38.9616 
vt 30.0096 -38.9616 
vt 30.015 -39.0726 
vt 30.0165 -39 
vt 29.9835 -39 
vt 30 -39.0165 
vt 29.9883 -39.0117 
vt 30.0117 -39.0117 
vt 30 -38.9835 
vt 29.9883 -38.9883 
vt 30.0117 -38.9883 
vt 29.9883 -39.0785 
vt 29.985 -39.0726 
vt 30 -39.0726 
vt 30 -39.0785 
vt 30.0117 -39.0785 
vt 30.015 -39.0726 
vt 30.0073 -38.9215 
vt 30.0107 -38.924 
vt 29.9927 -38.9215 
vt 29.9893 -38.924 
vt 29.9893 -38.924 
vt 29.9924 -38.924 
vt 29.9904 -38.9555 
vt 30 -38.9555 
vt 30.0107 -38.924 
vt 30 -38.924 
vt 30.0076 -38.924 
vt 30.0096 -38.9555 
vt 30.0096 -38.9616 
vt 30.015 -39.0726 
vt 30 -39.0726 
vt 30.0136 -38.9616 
vt 30 -38.9616 
vt 29.9904 -38.9616 
vt 29.985 -39.0726 

usemtl Meshpart2Mtl

f 213/213/213 214/214/214 215/215/215 
f 216/216/216 215/215/215 214/214/214 
f 214/214/214 213/213/213 217/217/217 
f 214/214/214 218/218/218 216/216/216 
f 222/222/222 220/220/220 221/221/221 
f 220/220/220 222/222/222 224/224/224 
f 222/222/222 225/225/225 224/224/224 
f 225/225/225 222/222/222 226/226/226 
f 230/230/230 234/234/234 232/232/232 
f 234/234/234 230/230/230 236/236/236 
f 237/237/237 234/234/234 236/236/236 
f 234/234/234 237/237/237 238/238/238 
f 239/239/239 240/240/240 241/241/241 
f 239/239/239 242/242/242 240/240/240 
f 240/240/240 242/242/242 243/243/243 
f 239/239/239 244/244/244 242/242/242 
f 242/242/242 244/244/244 245/245/245 
f 244/244/244 239/239/239 246/246/246 
f 247/247/247 248/248/248 249/249/249 
f 250/250/250 247/247/247 249/249/249 
f 248/248/248 247/247/247 251/251/251 
f 247/247/247 250/250/250 252/252/252 
f 253/253/253 248/248/248 251/251/251 
f 254/254/254 252/252/252 250/250/250 
f 248/248/248 253/253/253 255/255/255 
f 254/254/254 250/250/250 256/256/256 
f 253/253/253 257/257/257 255/255/255 
f 258/258/258 254/254/254 256/256/256 
f 257/257/257 253/253/253 259/259/259 
f 254/254/254 258/258/258 260/260/260 
f 261/261/261 257/257/257 259/259/259 
f 261/261/261 260/260/260 258/258/258 
f 257/257/257 261/261/261 262/262/262 
f 261/261/261 258/258/258 262/262/262 
f 267/267/267 264/264/264 266/266/266 
f 264/264/264 267/267/267 268/268/268 
f 269/269/269 268/268/268 267/267/267 
f 267/267/267 270/270/270 269/269/269 
f 275/275/275 276/276/276 277/277/277 
f 276/276/276 275/275/275 278/278/278 
f 280/280/280 276/276/276 278/278/278 
f 276/276/276 280/280/280 281/281/281 
f 284/284/284 285/285/285 286/286/286 
f 286/286/286 287/287/287 284/284/284 
f 286/286/286 289/289/289 287/287/287 
f 289/289/289 286/286/286 290/290/290 
f 293/293/293 297/297/297 295/295/295 
f 297/297/297 294/294/294 296/296/296 
f 297/297/297 293/293/293 298/298/298 
f 294/294/294 297/297/297 298/298/298 
f 302/302/302 301/301/301 303/303/303 
f 304/304/304 303/303/303 301/301/301 
f 305/305/305 303/303/303 304/304/304 
f 303/303/303 305/305/305 306/306/306 
f 307/307/307 308/308/308 309/309/309 
f 307/307/307 309/309/309 311/311/311 
f 309/309/309 313/313/313 311/311/311 
f 313/313/313 309/309/309 314/314/314 
f 315/315/315 316/316/316 317/317/317 
f 317/317/317 316/316/316 318/318/318 
f 315/315/315 317/317/317 319/319/319 
f 315/315/315 320/320/320 316/316/316 
f 316/316/316 320/320/320 321/321/321 
f 320/320/320 315/315/315 322/322/322 
f 325/325/325 324/324/324 323/323/323 
f 325/325/325 323/323/323 326/326/326 
f 327/327/327 325/325/325 326/326/326 
f 325/325/325 327/327/327 328/328/328 
f 336/336/336 334/334/334 335/335/335 
f 334/334/334 336/336/336 338/338/338 
f 338/338/338 336/336/336 339/339/339 
f 336/336/336 340/340/340 339/339/339 
f 341/341/341 343/343/343 342/342/342 
f 343/343/343 341/341/341 345/345/345 
f 346/346/346 343/343/343 345/345/345 
f 343/343/343 346/346/346 347/347/347 

